<?xml version="1.0" encoding="utf-8"?><svg version="1.1" id="Layer_1" xmlns="http://www.w3.org/2000/svg" xmlns:xlink="http://www.w3.org/1999/xlink" x="0px" y="0px" viewBox="0 0 55.32 38.52" style="enable-background:new 0 0 55.32 38.52" xml:space="preserve"><style type="text/css">.st0{fill:#CC0001;} .st1{fill:#FFFFFF;} .st2{fill:#010066;} .st3{fill:#FFCC00;} .st4{fill:none;stroke:#CCCCCC;stroke-width:0.1199;stroke-miterlimit:2.6131;}</style><g><path class="st0" d="M3.09,0.06h49.13c1.67,0,3.03,1.36,3.03,3.03v32.33c0,1.67-1.36,3.03-3.03,3.03H3.09 c-1.67,0-3.03-1.37-3.03-3.03V3.09C0.06,1.42,1.42,0.06,3.09,0.06L3.09,0.06z"/><path class="st1" d="M0.1,35.92h55.12c-0.24,1.44-1.49,2.54-2.99,2.54H3.09C1.59,38.46,0.34,37.36,0.1,35.92L0.1,35.92z"/><polygon class="st1" points="0.06,30.38 55.26,30.38 55.26,33.15 0.06,33.15 0.06,30.38"/><polygon class="st1" points="0.06,24.84 55.26,24.84 55.26,27.61 0.06,27.61 0.06,24.84"/><polygon class="st1" points="0.06,19.29 55.26,19.29 55.26,22.06 0.06,22.06 0.06,19.29"/><polygon class="st1" points="0.06,13.75 55.26,13.75 55.26,16.52 0.06,16.52 0.06,13.75"/><polygon class="st1" points="0.06,8.21 55.26,8.21 55.26,10.98 0.06,10.98 0.06,8.21"/><path class="st1" d="M0.09,2.67h55.14c0.02,0.14,0.03,0.28,0.03,0.42v2.35H0.06V3.09C0.06,2.95,0.07,2.81,0.09,2.67L0.09,2.67z"/><path class="st2" d="M36.64,0.06v22H0.06V3.09c0-1.67,1.36-3.03,3.03-3.03H36.64L36.64,0.06z"/><path class="st3" d="M13.81,2.67c-4.6,0-8.34,3.72-8.34,8.31c0,4.59,3.74,8.31,8.34,8.31c1.66,0,3.21-0.49,4.51-1.32 c-0.76,0.26-1.57,0.4-2.42,0.4c-4.08,0-7.4-3.3-7.4-7.37c0-4.07,3.31-7.37,7.4-7.37c0.9,0,1.77,0.16,2.57,0.46 C17.14,3.19,15.54,2.67,13.81,2.67L13.81,2.67z"/><polygon class="st3" points="27.64,15.31 24.13,13.48 25.17,17.23 22.82,14.09 22.09,17.91 21.36,14.09 19.01,17.22 20.06,13.47 16.54,15.29 19.15,12.36 15.17,12.51 18.83,10.98 15.17,9.43 19.16,9.59 16.55,6.65 20.06,8.49 19.03,4.74 21.37,7.87 22.11,4.05 22.83,7.88 25.19,4.74 24.14,8.49 27.66,6.67 25.04,9.6 29.02,9.45 25.36,10.99 29.02,12.53 25.04,12.37 27.64,15.31"/><path class="st4" d="M3.09,0.06h49.13c1.67,0,3.03,1.36,3.03,3.03v32.33c0,1.67-1.36,3.03-3.03,3.03H3.09 c-1.67,0-3.03-1.37-3.03-3.03V3.09C0.06,1.42,1.42,0.06,3.09,0.06L3.09,0.06z"/></g></svg>