<svg width="20" height="15" viewBox="0 0 20 15" fill="none" xmlns="http://www.w3.org/2000/svg">
<g clip-path="url(#clip0_85465_12172)">
<rect width="20" height="15" rx="1" fill="white"/>
<path fill-rule="evenodd" clip-rule="evenodd" d="M5 0H15V15H5V0Z" fill="#FFD018"/>
<path fill-rule="evenodd" clip-rule="evenodd" d="M0 0H5V15H0V0Z" fill="#2E42A5"/>
<path fill-rule="evenodd" clip-rule="evenodd" d="M15 0H20V15H15V0Z" fill="#E31D1C"/>
<path fill-rule="evenodd" clip-rule="evenodd" d="M10.1869 12.1399C10.3251 12.1011 10.4439 11.8609 10.4439 11.8609C10.4439 11.8609 10.5341 11.9314 10.6771 12.0031C10.8201 12.0749 10.9688 11.8609 10.9688 11.8609C10.9688 11.8609 11.1719 11.8609 11.261 11.6213C11.3501 11.3816 11.0833 11.2789 11.0833 11.2789C11.0833 11.2789 11.3951 10.9512 11.9218 10.9512H11.9218C12.4485 10.9512 12.8584 10.9512 13.202 10.8054C13.5457 10.6595 13.8796 10.4087 14.0045 9.88784C14.1294 9.367 13.734 9.03898 13.734 9.03898C13.734 9.03898 13.8216 9.06669 14.0045 8.91706C14.1874 8.76742 13.8925 8.28594 13.734 8.28594C13.5755 8.28594 13.5566 8.37503 13.5566 8.37503C13.5566 8.37503 13.4587 8.29005 13.3245 8.00103C13.1903 7.71202 13.4587 7.45832 13.4587 7.45832C13.4587 7.45832 13.6057 7.54258 13.734 7.40355C13.8623 7.26452 13.6674 7.05149 13.6674 7.05149C13.6674 7.05149 14.2849 6.8413 14.1956 6.05128C14.1064 5.26125 13.292 5.30618 13.292 5.30618C13.292 5.30618 13.3167 5.17483 13.202 5.09997C13.0873 5.02511 13.0023 5.17483 13.0023 5.17483C12.9122 4.96645 13.1762 4.6814 13.3875 4.45327C13.453 4.38258 13.5134 4.31736 13.5566 4.26158C13.7394 4.02578 13.6246 3.73448 12.9568 3.41652C12.2891 3.09857 11.9245 3.52589 11.871 3.67732C11.8175 3.82874 12.0246 3.92244 12.0246 3.92244C11.8557 4.07074 11.5288 4.12737 11.306 4.0249C11.0833 3.92244 11.182 3.61082 11.2281 3.52589C11.2331 3.5166 11.2398 3.50534 11.2475 3.49233C11.3105 3.38648 11.4422 3.16517 11.306 2.94996C11.1532 2.7083 10.8885 2.7083 10.6771 2.84553C10.4961 2.96298 10.2389 3.02526 10.1685 3.04077C10.0981 3.02526 9.84089 2.96298 9.65994 2.84553C9.44852 2.7083 9.18386 2.7083 9.03099 2.94996C8.89484 3.16517 9.02651 3.38648 9.08949 3.49233C9.09723 3.50534 9.10393 3.5166 9.10897 3.52589C9.15502 3.61082 9.25377 3.92244 9.03099 4.0249C8.8082 4.12737 8.48137 4.07074 8.31238 3.92244C8.31238 3.92244 8.51957 3.82874 8.46604 3.67732C8.41252 3.52589 8.04796 3.09857 7.38018 3.41652C6.71241 3.73448 6.59766 4.02578 6.78043 4.26158C6.82367 4.31736 6.88407 4.38258 6.94954 4.45327C7.16081 4.6814 7.4248 4.96645 7.33476 5.17483C7.33476 5.17483 7.24975 5.02511 7.13502 5.09997C7.02029 5.17483 7.04499 5.30618 7.04499 5.30618C7.04499 5.30618 6.23067 5.26125 6.14139 6.05128C6.05211 6.8413 6.66964 7.05149 6.66964 7.05149C6.66964 7.05149 6.47472 7.26452 6.60301 7.40355C6.7313 7.54258 6.87837 7.45832 6.87837 7.45832C6.87837 7.45832 7.14676 7.71202 7.01257 8.00103C6.87837 8.29005 6.78043 8.37503 6.78043 8.37503C6.78043 8.37503 6.76152 8.28594 6.60301 8.28594C6.4445 8.28594 6.1496 8.76742 6.33252 8.91706C6.51545 9.06669 6.60301 9.03898 6.60301 9.03898C6.60301 9.03898 6.20759 9.367 6.33252 9.88784C6.45745 10.4087 6.79136 10.6595 7.13502 10.8054C7.47868 10.9512 7.88856 10.9512 8.41521 10.9512H8.41522C8.94188 10.9512 9.25377 11.2789 9.25377 11.2789C9.25377 11.2789 8.98695 11.3816 9.07602 11.6213C9.1651 11.8609 9.3682 11.8609 9.3682 11.8609C9.3682 11.8609 9.51694 12.0749 9.65994 12.0031C9.80295 11.9314 9.89316 11.8609 9.89316 11.8609C9.89316 11.8609 10.012 12.1011 10.1501 12.1399V12.1452C10.1563 12.1452 10.1624 12.1448 10.1685 12.1439C10.1746 12.1448 10.1808 12.1452 10.1869 12.1452V12.1399Z" fill="#BF9937"/>
<path d="M7.56885 9.99866L7.63453 9.83984C8.38934 10.1634 9.2483 10.3254 10.212 10.3254C11.1751 10.3254 12.011 10.1636 12.7201 9.8406L12.7892 9.9979C12.0571 10.3313 11.1978 10.4977 10.212 10.4977C9.22659 10.4977 8.34537 10.3315 7.56885 9.99866Z" fill="#805440"/>
</g>
<rect x="0.5" y="0.5" width="19" height="14" rx="0.5" stroke="black" stroke-opacity="0.1"/>
<defs>
<clipPath id="clip0_85465_12172">
<rect width="20" height="15" rx="1" fill="white"/>
</clipPath>
</defs>
</svg>
