<svg width="20" height="15" viewBox="0 0 20 15" fill="none" xmlns="http://www.w3.org/2000/svg">
<g clip-path="url(#clip0_85465_12190)">
<rect width="20" height="15" rx="1" fill="white"/>
<path fill-rule="evenodd" clip-rule="evenodd" d="M14 0H20V15H14V0Z" fill="#67BD38"/>
<path fill-rule="evenodd" clip-rule="evenodd" d="M6 0H14V15H6V0Z" fill="#D51700"/>
<path fill-rule="evenodd" clip-rule="evenodd" d="M0 0H6V15H0V0Z" fill="#272727"/>
<path fill-rule="evenodd" clip-rule="evenodd" d="M7.70481 4.98535L7.92106 5.12107C7.56068 5.72763 7.3186 6.28344 7.19342 6.78867C7.24639 6.83753 7.27958 6.88034 7.31349 6.93906C7.41126 7.10841 7.4935 7.27281 7.56014 7.43232L7.27273 7.55468C7.22762 7.4467 7.17446 7.33566 7.11323 7.22161C7.08395 7.46808 7.08596 7.70097 7.11907 7.9203C7.17163 7.92569 7.21577 7.93674 7.26682 7.95533C7.45058 8.02221 7.61925 8.09528 7.77283 8.17464L7.63132 8.45312C7.50038 8.38546 7.35657 8.32231 7.19988 8.26371L7.20298 8.27317C7.33658 8.67688 7.54101 9.04831 7.81688 9.38762C7.85999 9.37834 7.90016 9.37482 7.9471 9.37482C8.14266 9.37482 8.32615 9.3858 8.49761 9.40784L8.45988 9.71792C8.34316 9.70292 8.21972 9.69342 8.08955 9.68945C8.33746 9.93751 8.62847 10.1663 8.96285 10.3758L8.83094 10.5982C8.41627 10.3383 8.06336 10.0486 7.77264 9.7291C7.73475 9.74392 7.68861 9.76352 7.62989 9.78919L7.60781 9.79876C7.86158 10.0648 8.16159 10.3095 8.50814 10.5329L8.37349 10.7536C7.97302 10.4954 7.63021 10.2086 7.34544 9.89331C7.20951 9.92821 7.09489 9.92747 6.96079 9.88813L7.04425 9.58763C7.06442 9.59355 7.08414 9.59793 7.10395 9.60073C6.83953 9.24886 6.64029 8.86514 6.50667 8.44976C6.48308 8.3764 6.46286 8.30171 6.44603 8.22569C6.34246 8.20594 6.2551 8.16707 6.16443 8.10034L6.34563 7.84651C6.36128 7.85803 6.37702 7.86818 6.39326 7.87708C6.3608 7.49428 6.40554 7.08104 6.52682 6.63744C6.45087 6.55001 6.40441 6.45939 6.37579 6.34154L6.64126 6.273C6.78434 5.86779 6.9867 5.43903 7.24791 4.98675L7.4658 5.11967C7.18097 5.61286 6.96993 6.07359 6.83205 6.50193C6.87069 6.537 6.91797 6.57457 6.97586 6.6175C7.11432 6.11371 7.35767 5.56962 7.70481 4.98535ZM6.89883 6.94886C6.87076 6.92701 6.83703 6.90175 6.79602 6.87152C6.77633 6.85701 6.75748 6.84287 6.73943 6.82903C6.64291 7.22644 6.61446 7.59366 6.65347 7.93075C6.7 7.93112 6.75272 7.92912 6.81356 7.92528L6.86311 7.92227C6.82179 7.61814 6.83383 7.29366 6.89883 6.94886ZM6.82701 8.23621C6.86411 8.23387 6.89654 8.232 6.92518 8.23065C6.93666 8.27321 6.9493 8.31534 6.9631 8.35702C7.09716 8.76216 7.29715 9.13626 7.56259 9.47918L7.5109 9.50161C7.46656 9.52099 7.42663 9.53753 7.39012 9.55132C7.09966 9.1924 6.88557 8.79805 6.74725 8.36802C6.73387 8.32644 6.72171 8.28433 6.71076 8.24167C6.74725 8.24068 6.78589 8.2388 6.82701 8.23621Z" fill="#F7FCFF"/>
<path fill-rule="evenodd" clip-rule="evenodd" d="M12.0868 4.98535L11.8706 5.12107C12.2309 5.72763 12.473 6.28344 12.5982 6.78867C12.5452 6.83753 12.512 6.88034 12.4781 6.93906C12.3804 7.10841 12.2981 7.27281 12.2315 7.43232L12.5189 7.55468C12.564 7.4467 12.6172 7.33566 12.6784 7.22161C12.7077 7.46808 12.7057 7.70097 12.6726 7.9203C12.62 7.92569 12.5759 7.93674 12.5248 7.95533C12.341 8.02221 12.1724 8.09528 12.0188 8.17464L12.1603 8.45312C12.2912 8.38546 12.4351 8.32231 12.5917 8.26371L12.5886 8.27317C12.455 8.67688 12.2506 9.04831 11.9747 9.38762C11.9316 9.37834 11.8915 9.37482 11.8445 9.37482C11.649 9.37482 11.4655 9.3858 11.294 9.40784L11.3317 9.71792C11.4485 9.70292 11.5719 9.69342 11.7021 9.68945C11.4542 9.93751 11.1632 10.1663 10.8288 10.3758L10.9607 10.5982C11.3754 10.3383 11.7283 10.0486 12.019 9.7291C12.0569 9.74392 12.103 9.76352 12.1617 9.78919L12.1838 9.79876C11.93 10.0648 11.63 10.3095 11.2835 10.5329L11.4181 10.7536C11.8186 10.4954 12.1614 10.2086 12.4462 9.89331C12.5821 9.92821 12.6967 9.92747 12.8308 9.88813L12.7474 9.58763C12.7272 9.59355 12.7075 9.59793 12.6877 9.60073C12.9521 9.24886 13.1513 8.86514 13.285 8.44976C13.3086 8.3764 13.3288 8.30171 13.3456 8.22569C13.4492 8.20594 13.5365 8.16707 13.6272 8.10034L13.446 7.84651C13.4303 7.85803 13.4146 7.86818 13.3984 7.87708C13.4308 7.49428 13.3861 7.08104 13.2648 6.63744C13.3408 6.55001 13.3872 6.45939 13.4158 6.34154L13.1504 6.273C13.0073 5.86779 12.8049 5.43903 12.5437 4.98675L12.3258 5.11967C12.6107 5.61286 12.8217 6.07359 12.9596 6.50193C12.9209 6.537 12.8737 6.57457 12.8158 6.6175C12.6773 6.11371 12.434 5.56962 12.0868 4.98535ZM12.8928 6.94886C12.9209 6.92701 12.9546 6.90175 12.9956 6.87152C13.0153 6.85701 13.0341 6.84287 13.0522 6.82903C13.1487 7.22644 13.1772 7.59366 13.1382 7.93075C13.0916 7.93112 13.0389 7.92912 12.9781 7.92528L12.9285 7.92227C12.9698 7.61814 12.9578 7.29366 12.8928 6.94886ZM12.9646 8.23621C12.9275 8.23387 12.8951 8.232 12.8664 8.23065C12.855 8.27321 12.8423 8.31534 12.8285 8.35702C12.6945 8.76216 12.4945 9.13626 12.229 9.47918L12.2807 9.50161C12.3251 9.52099 12.365 9.53753 12.4015 9.55132C12.692 9.1924 12.9061 8.79805 13.0444 8.36802C13.0578 8.32644 13.0699 8.28433 13.0809 8.24167C13.0444 8.24068 13.0057 8.2388 12.9646 8.23621Z" fill="#F7FCFF"/>
<path fill-rule="evenodd" clip-rule="evenodd" d="M8.80817 10.165L8.11047 10.8554C8.11047 10.8554 8.71213 11.2239 9.84606 11.2239C10.98 11.2239 11.6403 10.8554 11.6403 10.8554L11.1099 10.165C11.1099 10.165 10.3872 10.4451 9.87538 10.4451C9.36353 10.4451 8.80817 10.165 8.80817 10.165Z" fill="#F7FCFF"/>
<path d="M8.82275 10.6055C8.82275 10.6055 9.41345 10.7449 9.86628 10.7449C10.3191 10.7449 10.9098 10.6055 10.9098 10.6055" stroke="#C00001" stroke-width="0.5"/>
<path fill-rule="evenodd" clip-rule="evenodd" d="M10.4574 5.9113C10.4574 6.18456 10.2079 6.40609 9.90001 6.40609C9.59215 6.40609 9.34258 6.18456 9.34258 5.9113C9.34258 5.63803 9.59215 5.4165 9.90001 5.4165C10.2079 5.4165 10.4574 5.63803 10.4574 5.9113ZM9.90001 6.40609H9.29989L9.1346 6.53278H9.10238V5.54234H8.79833V6.53278H8.53177V6.7017H8.79833V8.48771C8.76227 8.773 8.67894 8.93431 8.56214 8.99036L7.94141 9.28819H11.6773L11.4088 9.01991C11.173 8.78429 11.0603 8.60308 11.0603 8.49762V6.7017H11.1669V6.53278H11.0603V5.54234H10.7562V6.53278H10.658L10.462 6.40609H9.90001ZM9.10238 6.7017H10.7562V8.49762C10.7562 8.64246 10.8247 8.79963 10.9585 8.97569H8.97697C9.03817 8.85249 9.07909 8.69892 9.10238 8.50734V6.7017ZM9.95069 7.49984H9.2919V8.80192H10.6095L9.95069 7.49984Z" fill="#F7FCFF"/>
<path fill-rule="evenodd" clip-rule="evenodd" d="M10.631 3.84766L10.6322 3.84955L10.6319 3.84883L10.631 3.84766ZM11.5943 4.18617L11.5948 4.19198L11.5945 4.18775L11.5943 4.18617ZM11.7813 4.20923L11.7823 4.20638L11.7818 4.20778L11.7813 4.20923ZM11.024 4.59277L11.0276 4.59274L11.0258 4.59296L11.024 4.59277Z" fill="#F7FCFF"/>
<path fill-rule="evenodd" clip-rule="evenodd" d="M8.02053 6.66748L7.896 6.7571L8.02439 6.94557C7.91439 6.98503 7.73754 7.08501 7.73754 7.31992C7.73754 7.66088 7.6178 7.9402 7.6178 7.9402L7.97544 8.16988C7.97544 8.16988 8.01274 7.77222 8.11008 7.54607C8.15889 7.43268 8.23488 7.37615 8.29853 7.34796L8.85446 8.16399L8.979 8.07437L8.02053 6.66748Z" fill="#F7FCFF"/>
<path fill-rule="evenodd" clip-rule="evenodd" d="M11.8196 6.66748L11.9441 6.7571L11.8157 6.94557C11.9257 6.98503 12.1026 7.08501 12.1026 7.31992C12.1026 7.66088 12.2223 7.9402 12.2223 7.9402L11.8647 8.16988C11.8647 8.16988 11.8273 7.77222 11.73 7.54607C11.6812 7.43268 11.6052 7.37615 11.5416 7.34796L10.9856 8.16399L10.8611 8.07437L11.8196 6.66748Z" fill="#F7FCFF"/>
</g>
<rect x="0.5" y="0.5" width="19" height="14" rx="0.5" stroke="black" stroke-opacity="0.1"/>
<defs>
<clipPath id="clip0_85465_12190">
<rect width="20" height="15" rx="1" fill="white"/>
</clipPath>
</defs>
</svg>
