<svg width="20" height="15" viewBox="0 0 20 15" fill="none" xmlns="http://www.w3.org/2000/svg">
<g clip-path="url(#clip0_85465_12268)">
<rect width="20" height="15" rx="1" fill="white"/>
<path fill-rule="evenodd" clip-rule="evenodd" d="M0 0V15H20V0H0Z" fill="#1D1D1D"/>
<mask id="mask0_85465_12268" style="mask-type:luminance" maskUnits="userSpaceOnUse" x="0" y="0" width="20" height="15">
<path fill-rule="evenodd" clip-rule="evenodd" d="M0 0V15H20V0H0Z" fill="white"/>
</mask>
<g mask="url(#mask0_85465_12268)">
<path fill-rule="evenodd" clip-rule="evenodd" d="M0 0V7.5H20V0H0Z" fill="#F50100"/>
<g filter="url(#filter0_d_85465_12268)">
<path fill-rule="evenodd" clip-rule="evenodd" d="M9.71876 8.3699C10.2033 7.77114 10.355 6.99711 10.355 6.5141C10.355 3.94035 7.14383 2.5166 7.14383 2.5166C9.35158 2.5166 11.8105 4.30638 11.8105 6.5141C11.8105 7.4489 11.4896 8.31626 10.952 9.00571C11.9359 9.4965 12.7687 9.8795 12.7687 9.8795C13.0776 10.0821 13.1639 10.6223 12.9614 10.9314C12.7587 11.2403 12.3439 11.3265 12.0351 11.1241C12.0351 11.1241 11.245 10.6569 10.7636 10.3412C10.5429 10.1966 10.2878 10.0398 10.0162 9.87918C9.38452 10.3044 8.62714 10.5536 7.81292 10.5536C7.81292 10.5536 4.87723 10.194 4.96124 8.68856C4.96124 8.68856 5.67194 9.23221 7.76264 9.23221C8.09535 9.23221 8.38782 9.18562 8.64443 9.10372C7.73887 8.60958 6.9709 8.2179 6.9709 8.2179C6.66178 8.01536 5.85793 6.98844 6.06052 6.67935C6.26318 6.37041 7.48839 6.71964 7.79728 6.92211C7.79728 6.92211 8.2269 7.51214 8.83322 7.87288C9.10111 8.03224 9.40355 8.20084 9.71876 8.3699ZM8.23778 6.12633L7.60663 6.54687L7.8083 5.82658L7.34498 5.36646L7.97235 5.34158L8.23778 4.62932L8.5032 5.34158H9.12951L8.66725 5.82658L8.89875 6.50436L8.23778 6.12633Z" fill="#FCFF01"/>
<path fill-rule="evenodd" clip-rule="evenodd" d="M9.71876 8.3699C10.2033 7.77114 10.355 6.99711 10.355 6.5141C10.355 3.94035 7.14383 2.5166 7.14383 2.5166C9.35158 2.5166 11.8105 4.30638 11.8105 6.5141C11.8105 7.4489 11.4896 8.31626 10.952 9.00571C11.9359 9.4965 12.7687 9.8795 12.7687 9.8795C13.0776 10.0821 13.1639 10.6223 12.9614 10.9314C12.7587 11.2403 12.3439 11.3265 12.0351 11.1241C12.0351 11.1241 11.245 10.6569 10.7636 10.3412C10.5429 10.1966 10.2878 10.0398 10.0162 9.87918C9.38452 10.3044 8.62714 10.5536 7.81292 10.5536C7.81292 10.5536 4.87723 10.194 4.96124 8.68856C4.96124 8.68856 5.67194 9.23221 7.76264 9.23221C8.09535 9.23221 8.38782 9.18562 8.64443 9.10372C7.73887 8.60958 6.9709 8.2179 6.9709 8.2179C6.66178 8.01536 5.85793 6.98844 6.06052 6.67935C6.26318 6.37041 7.48839 6.71964 7.79728 6.92211C7.79728 6.92211 8.2269 7.51214 8.83322 7.87288C9.10111 8.03224 9.40355 8.20084 9.71876 8.3699ZM8.23778 6.12633L7.60663 6.54687L7.8083 5.82658L7.34498 5.36646L7.97235 5.34158L8.23778 4.62932L8.5032 5.34158H9.12951L8.66725 5.82658L8.89875 6.50436L8.23778 6.12633Z" fill="#FFEA42"/>
</g>
</g>
</g>
<rect x="0.5" y="0.5" width="19" height="14" rx="0.5" stroke="black" stroke-opacity="0.1"/>
<defs>
<filter id="filter0_d_85465_12268" x="4.95947" y="2.5166" width="8.11133" height="8.7168" filterUnits="userSpaceOnUse" color-interpolation-filters="sRGB">
<feFlood flood-opacity="0" result="BackgroundImageFix"/>
<feColorMatrix in="SourceAlpha" type="matrix" values="0 0 0 0 0 0 0 0 0 0 0 0 0 0 0 0 0 0 127 0" result="hardAlpha"/>
<feOffset/>
<feColorMatrix type="matrix" values="0 0 0 0 0 0 0 0 0 0 0 0 0 0 0 0 0 0 0.2 0"/>
<feBlend mode="normal" in2="BackgroundImageFix" result="effect1_dropShadow_85465_12268"/>
<feBlend mode="normal" in="SourceGraphic" in2="effect1_dropShadow_85465_12268" result="shape"/>
</filter>
<clipPath id="clip0_85465_12268">
<rect width="20" height="15" rx="1" fill="white"/>
</clipPath>
</defs>
</svg>
