<svg width="20" height="15" viewBox="0 0 20 15" fill="none" xmlns="http://www.w3.org/2000/svg">
<g clip-path="url(#clip0_85465_12297)">
<rect width="20" height="15" rx="1" fill="white"/>
<path fill-rule="evenodd" clip-rule="evenodd" d="M0 0H20V15H0V0Z" fill="#F7FCFF"/>
<path d="M0 -0.625H-0.625V0V7.06687L-1.78 7.5L-0.625 7.93313V15V15.625H0H20L20.2195 14.4148L1.78 7.5L20.2195 0.585206L20 -0.625H0Z" fill="#3547A0" stroke="#E31D1C" stroke-width="1.25"/>
<path fill-rule="evenodd" clip-rule="evenodd" d="M17.556 3.76709C17.556 3.76709 12.5164 5.07558 12.5164 5.27692C12.5164 5.47826 12.063 6.11619 12.1558 6.28271C12.2487 6.44924 12.4898 6.66994 12.6878 6.55959C12.8859 6.44924 13.3562 6.00584 13.1984 6.28271C13.0405 6.55959 14.0471 6.88151 13.6227 7.49298C13.6227 7.49298 14.1325 7.19912 13.8857 8.87026L15.0993 9.21613C15.0993 9.21613 16.4546 8.86078 15.8359 7.84385H16.5543C16.5543 7.84385 16.2567 6.52603 16.6966 6.28271C17.1365 6.0394 16.2482 5.85445 16.2482 5.85445C18.1262 4.78537 17.556 3.76709 17.556 3.76709Z" fill="#C44800"/>
<path fill-rule="evenodd" clip-rule="evenodd" d="M16.7216 9.35653L13.6795 8.84241L13.281 8.30908L11.554 8.65683L13.0701 9.51572L13.5797 9.24142L16.7216 9.74304V9.35653Z" fill="#FFC221"/>
<path fill-rule="evenodd" clip-rule="evenodd" d="M17.189 9.82426V9.52287L13.7782 9.31534C13.7782 9.31534 13.5725 9.125 13.0652 9.125C12.5579 9.125 12.5 9.52287 12.5 9.52287C12.5 9.52287 12.7909 10.1027 13.3549 10.1027C13.919 10.1027 14.7961 10.2382 15.0336 10.5171C15.2712 10.796 16.2556 10.3738 16.2556 10.3738C16.2556 10.3738 15.835 9.65032 15.2953 9.87653C14.7556 10.1027 13.7782 9.76696 13.7782 9.64492C13.7782 9.52287 17.189 9.82426 17.189 9.82426Z" fill="#FFC221"/>
<path fill-rule="evenodd" clip-rule="evenodd" d="M11.4284 7.38379C11.4284 7.38379 11.0977 8.09245 11.2178 8.36042C11.7459 8.91192 12.7059 8.03338 12.7059 8.03338L11.4284 7.38379Z" fill="#FFC221"/>
<path fill-rule="evenodd" clip-rule="evenodd" d="M16.6421 7.72174C16.993 7.54129 17.172 7.20706 17.172 6.77108C17.172 6.43546 17.0921 6.17031 16.9154 6.00083V5.77203L16.6058 5.76919C13.8315 5.74373 12.2697 6.01825 11.817 6.70502C11.3592 7.39953 11.3991 7.99278 12.0222 8.28073L12.2979 8.27412C13.6447 7.5714 15.0152 7.39694 16.4238 7.74712L16.6421 7.72174ZM12.0779 6.877C12.4434 6.32245 13.9518 6.05735 16.6029 6.08168V6.16049C16.7739 6.24256 16.8595 6.44609 16.8595 6.77108C16.8595 7.09606 16.7394 7.32032 16.4992 7.44385C15.0156 7.07504 13.567 7.25945 12.1533 7.99706C11.7375 7.8049 11.7124 7.43155 12.0779 6.877Z" fill="#979797"/>
<path d="M16.603 6.0821C13.9519 6.05777 12.4436 6.32288 12.078 6.87742C11.7125 7.43197 11.7376 7.80532 12.1535 7.99748C13.5672 7.25987 15.0158 7.07547 16.4994 7.44427C16.7395 7.32074 16.8596 7.09648 16.8596 6.7715C16.8596 6.44652 16.7741 6.24299 16.603 6.16091V6.0821Z" fill="#F7FCFF"/>
</g>
<rect x="0.5" y="0.5" width="19" height="14" rx="0.5" stroke="black" stroke-opacity="0.1"/>
<defs>
<clipPath id="clip0_85465_12297">
<rect width="20" height="15" rx="1" fill="white"/>
</clipPath>
</defs>
</svg>
