<svg width="20" height="15" viewBox="0 0 20 15" fill="none" xmlns="http://www.w3.org/2000/svg">
<g clip-path="url(#clip0_85465_12318)">
<rect width="20" height="15" rx="1" fill="white"/>
<path fill-rule="evenodd" clip-rule="evenodd" d="M0 0H20V15H0V0Z" fill="#2E42A5"/>
<g clip-path="url(#clip1_85465_12318)">
<rect width="11" height="9" fill="#2E42A5"/>
<path d="M-1.25269 8.1247L1.22291 9.21045L11.3062 1.18028L12.612 -0.433182L9.96468 -0.796071L5.85197 2.66436L2.54165 4.99588L-1.25269 8.1247Z" fill="#F7FCFF"/>
<path d="M-0.913818 8.88555L0.347383 9.51562L12.143 -0.582947H10.3721L-0.913818 8.88555Z" fill="#F50100"/>
<path d="M12.5027 8.1248L10.3056 9.52051L-0.0561562 1.18038L-1.36198 -0.433076L1.28532 -0.795966L5.39803 2.66447L8.70835 4.99599L12.5027 8.1248Z" fill="#F7FCFF"/>
<path d="M12.4182 8.6707L11.157 9.30078L6.13431 4.97706L4.64518 4.49398L-1.48763 -0.427604H0.283246L6.41261 4.37716L8.04071 4.95642L12.4182 8.6707Z" fill="#F50100"/>
<path fill-rule="evenodd" clip-rule="evenodd" d="M6 0H5V4H0V5H5V9H6V5H11V4H6V0Z" fill="#F50100"/>
<path fill-rule="evenodd" clip-rule="evenodd" d="M4.0625 0H6.9375V3.0625L11 3V5.875L6.9375 5.9375V9H4.0625V5.9375L0 5.875V3L4.0625 3.0625V0ZM5 4H0V5H5V9H6V5H11V4H6V0H5V4Z" fill="#F7FCFF"/>
</g>
<g clip-path="url(#clip2_85465_12318)">
<path d="M5.92003 12.2784L5.09999 13.0362L5.1812 11.9226L4.07742 11.7539L4.99872 11.1231L4.44237 10.155L5.51001 10.4819L5.92003 9.44336L6.33005 10.4819L7.39769 10.155L6.84134 11.1231L7.76264 11.7539L6.65886 11.9226L6.74007 13.0362L5.92003 12.2784Z" fill="#F7FCFF"/>
<path d="M13.24 8.29674L12.6933 8.80196L12.7474 8.05954L12.0116 7.94711L12.6258 7.52655L12.2549 6.88114L12.9666 7.09913L13.24 6.40674L13.5133 7.09913L14.2251 6.88114L13.8542 7.52655L14.4684 7.94711L13.7325 8.05954L13.7867 8.80196L13.24 8.29674Z" fill="#F7FCFF"/>
<path d="M14.52 2.96324L13.9733 3.46846L14.0275 2.72604L13.2916 2.61362L13.9058 2.19305L13.5349 1.54765L14.2467 1.76563L14.52 1.07324L14.7934 1.76563L15.5051 1.54765L15.1342 2.19305L15.7484 2.61362L15.0126 2.72604L15.0667 3.46846L14.52 2.96324Z" fill="#F7FCFF"/>
<path d="M17.72 5.63023L17.1733 6.13546L17.2274 5.39303L16.4916 5.28061L17.1058 4.86005L16.7349 4.21464L17.4466 4.43262L17.72 3.74023L17.9933 4.43262L18.7051 4.21464L18.3342 4.86005L18.9484 5.28061L18.2125 5.39303L18.2667 6.13546L17.72 5.63023Z" fill="#F7FCFF"/>
<path d="M15.1599 13.2967L14.6132 13.802L14.6673 13.0595L13.9315 12.9471L14.5457 12.5266L14.1748 11.8811L14.8866 12.0991L15.1599 11.4067L15.4332 12.0991L16.145 11.8811L15.7741 12.5266L16.3883 12.9471L15.6525 13.0595L15.7066 13.802L15.1599 13.2967Z" fill="#F7FCFF"/>
<path d="M17.4001 9.13918L16.8446 9.4312L16.9507 8.81269L16.5013 8.37466L17.1223 8.28442L17.4001 7.72168L17.6778 8.28442L18.2988 8.37466L17.8495 8.81269L17.9555 9.4312L17.4001 9.13918Z" fill="#F7FCFF"/>
</g>
</g>
<rect x="0.5" y="0.5" width="19" height="14" rx="0.5" stroke="black" stroke-opacity="0.1"/>
<defs>
<clipPath id="clip0_85465_12318">
<rect width="20" height="15" rx="1" fill="white"/>
</clipPath>
<clipPath id="clip1_85465_12318">
<rect width="11" height="9" fill="white"/>
</clipPath>
<clipPath id="clip2_85465_12318">
<rect width="15" height="13" fill="white" transform="translate(4 1)"/>
</clipPath>
</defs>
</svg>
