<svg width="20" height="15" viewBox="0 0 20 15" fill="none" xmlns="http://www.w3.org/2000/svg">
<g clip-path="url(#clip0_85465_12330)">
<rect width="20" height="15" rx="1" fill="white"/>
<path fill-rule="evenodd" clip-rule="evenodd" d="M0 0V15H20V0H0Z" fill="#5BA3DA"/>
<mask id="mask0_85465_12330" style="mask-type:luminance" maskUnits="userSpaceOnUse" x="0" y="0" width="20" height="15">
<path fill-rule="evenodd" clip-rule="evenodd" d="M0 0V15H20V0H0Z" fill="white"/>
</mask>
<g mask="url(#mask0_85465_12330)">
<g filter="url(#filter0_d_85465_12330)">
<path fill-rule="evenodd" clip-rule="evenodd" d="M3.54574 4.97457L0.807617 4.39663L3.57949 3.84814L4.38127 0.979492L5.01355 3.82486L7.48814 4.39941L5.04264 4.97457L4.33701 7.31426L3.54574 4.97457Z" fill="#EF2929"/>
<path fill-rule="evenodd" clip-rule="evenodd" d="M3.54574 4.97457L0.807617 4.39663L3.57949 3.84814L4.38127 0.979492L5.01355 3.82486L7.48814 4.39941L5.04264 4.97457L4.33701 7.31426L3.54574 4.97457Z" fill="#FF0000"/>
</g>
<path fill-rule="evenodd" clip-rule="evenodd" d="M20 9H0V10H20V9ZM20 11H0V12H20V11Z" fill="#FAD615"/>
</g>
</g>
<rect x="0.5" y="0.5" width="19" height="14" rx="0.5" stroke="black" stroke-opacity="0.1"/>
<defs>
<filter id="filter0_d_85465_12330" x="-0.192383" y="-0.0205078" width="8.68042" height="8.33496" filterUnits="userSpaceOnUse" color-interpolation-filters="sRGB">
<feFlood flood-opacity="0" result="BackgroundImageFix"/>
<feColorMatrix in="SourceAlpha" type="matrix" values="0 0 0 0 0 0 0 0 0 0 0 0 0 0 0 0 0 0 127 0" result="hardAlpha"/>
<feOffset/>
<feGaussianBlur stdDeviation="0.5"/>
<feColorMatrix type="matrix" values="0 0 0 0 1 0 0 0 0 1 0 0 0 0 1 0 0 0 0.2 0"/>
<feBlend mode="normal" in2="BackgroundImageFix" result="effect1_dropShadow_85465_12330"/>
<feBlend mode="normal" in="SourceGraphic" in2="effect1_dropShadow_85465_12330" result="shape"/>
</filter>
<clipPath id="clip0_85465_12330">
<rect width="20" height="15" rx="1" fill="white"/>
</clipPath>
</defs>
</svg>
