<svg width="20" height="15" viewBox="0 0 20 15" fill="none" xmlns="http://www.w3.org/2000/svg">
<g clip-path="url(#clip0_85465_12347)">
<rect width="20" height="15" rx="1" fill="white"/>
<path fill-rule="evenodd" clip-rule="evenodd" d="M0 0V15H20V0H0Z" fill="#AF0100"/>
<mask id="mask0_85465_12347" style="mask-type:luminance" maskUnits="userSpaceOnUse" x="0" y="0" width="20" height="15">
<path fill-rule="evenodd" clip-rule="evenodd" d="M0 0V15H20V0H0Z" fill="white"/>
</mask>
<g mask="url(#mask0_85465_12347)">
<path fill-rule="evenodd" clip-rule="evenodd" d="M0 0V5H20V0H0Z" fill="#3CA5D9"/>
<path fill-rule="evenodd" clip-rule="evenodd" d="M0 10V15H20V10H0Z" fill="#73BE4A"/>
<path fill-rule="evenodd" clip-rule="evenodd" d="M10.726 9.31666C9.88415 9.12255 9.22535 8.4607 9.23409 7.4895C9.24227 6.58037 9.8287 5.81131 10.7546 5.60231C11.6806 5.39331 12.495 5.83405 12.495 5.83405C12.2398 5.26661 11.3515 4.8687 10.6228 4.87061C9.26635 4.87417 7.81926 5.90969 7.80504 7.49099C7.79029 9.1304 9.35055 10.0624 10.7237 10.0588C11.8245 10.0559 12.3475 9.34744 12.456 9.04617C12.456 9.04617 11.5679 9.51077 10.726 9.31666ZM11.261 8.38794L11.9957 7.87666L12.7305 8.38794L12.4713 7.53117L13.1846 6.99039L12.2896 6.97216L11.9957 6.12666L11.7019 6.97216L10.8069 6.99039L11.5202 7.53117L11.261 8.38794Z" fill="#F7FCFF"/>
</g>
</g>
<rect x="0.5" y="0.5" width="19" height="14" rx="0.5" stroke="black" stroke-opacity="0.1"/>
<defs>
<clipPath id="clip0_85465_12347">
<rect width="20" height="15" rx="1" fill="white"/>
</clipPath>
</defs>
</svg>
