<svg xmlns="http://www.w3.org/2000/svg" width="20" height="15" fill="none" viewBox="0 0 20 15"><g clip-path="url(#az_svg__a)"><rect width="20" height="15" fill="#fff" rx="1"/><path fill="#af0100" fill-rule="evenodd" d="M0 0v15h20V0z" clip-rule="evenodd"/><mask id="az_svg__b" width="20" height="15" x="0" y="0" maskUnits="userSpaceOnUse" style="mask-type:luminance"><path fill="#fff" fill-rule="evenodd" d="M0 0v15h20V0z" clip-rule="evenodd"/></mask><g fill-rule="evenodd" clip-rule="evenodd" mask="url(#az_svg__b)"><path fill="#3ca5d9" d="M0 0v5h20V0z"/><path fill="#73be4a" d="M0 10v5h20v-5z"/><path fill="#f7fcff" d="M10.726 9.317c-.842-.194-1.5-.856-1.492-1.828.008-.909.595-1.678 1.52-1.887.927-.209 1.741.232 1.741.232-.255-.567-1.143-.965-1.872-.963-1.357.003-2.804 1.039-2.818 2.62-.015 1.64 1.546 2.571 2.919 2.568 1.1-.003 1.624-.712 1.732-1.013 0 0-.888.465-1.73.27m.535-.93.735-.51.734.51-.259-.856.714-.54-.895-.019-.294-.845-.294.845-.895.018.713.541z"/></g></g><rect width="19" height="14" x=".5" y=".5" stroke="#000" stroke-opacity=".1" rx=".5"/><defs><clipPath id="az_svg__a"><rect width="20" height="15" fill="#fff" rx="1"/></clipPath></defs></svg>