<svg width="20" height="15" viewBox="0 0 20 15" fill="none" xmlns="http://www.w3.org/2000/svg">
<g clip-path="url(#clip0_85465_12407)">
<rect width="20" height="15" rx="1" fill="white"/>
<rect width="20" height="15" rx="1.25" fill="#5EAA22"/>
<mask id="path-4-outside-1_85465_12407" maskUnits="userSpaceOnUse" x="-5" y="-2" width="30" height="19" fill="black">
<rect fill="white" x="-5" y="-2" width="30" height="19"/>
<path fill-rule="evenodd" clip-rule="evenodd" d="M10 7.5L20 0H0L10 7.5ZM10 7.5L0 15H20L10 7.5Z"/>
</mask>
<path fill-rule="evenodd" clip-rule="evenodd" d="M10 7.5L20 0H0L10 7.5ZM10 7.5L0 15H20L10 7.5Z" fill="#DD2C2B"/>
<path d="M20 0L20.9375 1.25L24.6875 -1.5625H20V0ZM0 0V-1.5625H-4.6875L-0.9375 1.25L0 0ZM0 15L-0.9375 13.75L-4.6875 16.5625H0V15ZM20 15V16.5625H24.6875L20.9375 13.75L20 15ZM19.0625 -1.25L9.0625 6.25L10.9375 8.75L20.9375 1.25L19.0625 -1.25ZM0 1.5625H20V-1.5625H0V1.5625ZM10.9375 6.25L0.9375 -1.25L-0.9375 1.25L9.0625 8.75L10.9375 6.25ZM9.0625 6.25L-0.9375 13.75L0.9375 16.25L10.9375 8.75L9.0625 6.25ZM0 16.5625H20V13.4375H0V16.5625ZM20.9375 13.75L10.9375 6.25L9.0625 8.75L19.0625 16.25L20.9375 13.75Z" fill="white" mask="url(#path-4-outside-1_85465_12407)"/>
<path fill-rule="evenodd" clip-rule="evenodd" d="M10 11.25C12.0711 11.25 13.75 9.57107 13.75 7.5C13.75 5.42893 12.0711 3.75 10 3.75C7.92893 3.75 6.25 5.42893 6.25 7.5C6.25 9.57107 7.92893 11.25 10 11.25Z" fill="white"/>
<path fill-rule="evenodd" clip-rule="evenodd" d="M10.1043 6.51807L9.36962 6.90434L9.50994 6.0862L8.91553 5.5068H9.73698L10.1043 4.64307L10.4717 5.5068H11.2932L10.6988 6.0862L10.8391 6.90434L10.1043 6.51807Z" fill="#DD2C2B"/>
<path fill-rule="evenodd" clip-rule="evenodd" d="M8.35142 9.01807L7.61669 9.40434L7.75701 8.5862L7.1626 8.0068H7.98405L8.35142 7.14307L8.71878 8.0068H9.54024L8.94583 8.5862L9.08615 9.40434L8.35142 9.01807Z" fill="#DD2C2B"/>
<path fill-rule="evenodd" clip-rule="evenodd" d="M11.8514 9.01807L11.1167 9.40434L11.257 8.5862L10.6626 8.0068H11.4841L11.8514 7.14307L12.2188 8.0068H13.0402L12.4458 8.5862L12.5861 9.40434L11.8514 9.01807Z" fill="#DD2C2B"/>
</g>
<rect x="0.5" y="0.5" width="19" height="14" rx="0.5" stroke="black" stroke-opacity="0.1"/>
<defs>
<clipPath id="clip0_85465_12407">
<rect width="20" height="15" rx="1" fill="white"/>
</clipPath>
</defs>
</svg>
