<svg width="20" height="15" viewBox="0 0 20 15" fill="none" xmlns="http://www.w3.org/2000/svg">
<g clip-path="url(#clip0_85465_12430)">
<rect width="20" height="15" rx="1" fill="white"/>
<path fill-rule="evenodd" clip-rule="evenodd" d="M0 0V15H20V0H0Z" fill="#AF0100"/>
<mask id="mask0_85465_12430" style="mask-type:luminance" maskUnits="userSpaceOnUse" x="0" y="0" width="20" height="15">
<path fill-rule="evenodd" clip-rule="evenodd" d="M0 0V15H20V0H0Z" fill="white"/>
</mask>
<g mask="url(#mask0_85465_12430)">
<path fill-rule="evenodd" clip-rule="evenodd" d="M13.7548 7.5C13.7548 11.1792 14.103 12.4571 16.1999 12.4571C18.2969 12.4571 18.8706 10.6035 18.6936 7.5H13.7548Z" fill="#F7FCFF"/>
<path fill-rule="evenodd" clip-rule="evenodd" d="M16.3126 9.625C16.8994 9.625 17.3751 9.06536 17.3751 8.375C17.3751 7.68464 16.8994 7.125 16.3126 7.125C15.7258 7.125 15.2501 7.68464 15.2501 8.375C15.2501 9.06536 15.7258 9.625 16.3126 9.625Z" fill="#AF0100"/>
<path fill-rule="evenodd" clip-rule="evenodd" d="M14.2458 11.4463C14.6194 12.2796 15.2729 12.6963 16.2064 12.6963C17.1335 12.6963 17.7891 12.2852 18.1732 11.463L14.2458 11.4463Z" fill="#5EAA22"/>
<path d="M14.7621 9.39411L14.4132 8.52394C15.0535 8.26723 15.6708 8.13721 16.264 8.13721C16.8571 8.13721 17.4744 8.26723 18.1147 8.52394L17.7658 9.39411C17.232 9.18006 16.7317 9.07471 16.264 9.07471C15.7962 9.07471 15.296 9.18006 14.7621 9.39411Z" fill="#82B2CB"/>
<path fill-rule="evenodd" clip-rule="evenodd" d="M15.625 10C15.9702 10 16.25 9.72018 16.25 9.375C16.25 9.02982 15.9702 8.75 15.625 8.75C15.2798 8.75 15 9.02982 15 9.375C15 9.72018 15.2798 10 15.625 10Z" fill="#FECA00"/>
<path fill-rule="evenodd" clip-rule="evenodd" d="M16 11C16.3452 11 16.625 10.7202 16.625 10.375C16.625 10.0298 16.3452 9.75 16 9.75C15.6548 9.75 15.375 10.0298 15.375 10.375C15.375 10.7202 15.6548 11 16 11Z" fill="#8A4E22"/>
<path fill-rule="evenodd" clip-rule="evenodd" d="M15 10.5C15.3452 10.5 15.625 10.2202 15.625 9.875C15.625 9.52982 15.3452 9.25 15 9.25C14.6548 9.25 14.375 9.52982 14.375 9.875C14.375 10.2202 14.6548 10.5 15 10.5Z" fill="#AF0100"/>
<path fill-rule="evenodd" clip-rule="evenodd" d="M17.1251 10.5C17.4703 10.5 17.7501 10.2202 17.7501 9.875C17.7501 9.52982 17.4703 9.25 17.1251 9.25C16.7799 9.25 16.5001 9.52982 16.5001 9.875C16.5001 10.2202 16.7799 10.5 17.1251 10.5Z" fill="#AF0100"/>
<path fill-rule="evenodd" clip-rule="evenodd" d="M16.6875 11.875C16.9291 11.875 17.125 11.5952 17.125 11.25C17.125 10.9048 16.9291 10.625 16.6875 10.625C16.4459 10.625 16.25 10.9048 16.25 11.25C16.25 11.5952 16.4459 11.875 16.6875 11.875Z" fill="#AF0100"/>
<path fill-rule="evenodd" clip-rule="evenodd" d="M15.1875 11.875C15.4291 11.875 15.625 11.5952 15.625 11.25C15.625 10.9048 15.4291 10.625 15.1875 10.625C14.9459 10.625 14.75 10.9048 14.75 11.25C14.75 11.5952 14.9459 11.875 15.1875 11.875Z" fill="#AF0100"/>
</g>
<g clip-path="url(#clip1_85465_12430)">
<rect width="11" height="9" fill="#2E42A5"/>
<path d="M-1.25269 8.1247L1.22291 9.21045L11.3062 1.18028L12.612 -0.433182L9.96468 -0.796071L5.85197 2.66436L2.54165 4.99588L-1.25269 8.1247Z" fill="#F7FCFF"/>
<path d="M-0.913696 8.88555L0.347505 9.51562L12.1431 -0.582947H10.3723L-0.913696 8.88555Z" fill="#F50100"/>
<path d="M12.5027 8.1248L10.3056 9.52051L-0.0561562 1.18038L-1.36198 -0.433076L1.28532 -0.795966L5.39803 2.66447L8.70835 4.99599L12.5027 8.1248Z" fill="#F7FCFF"/>
<path d="M12.4182 8.6707L11.157 9.30078L6.13431 4.97706L4.64518 4.49398L-1.48763 -0.427604H0.283246L6.41261 4.37716L8.04071 4.95642L12.4182 8.6707Z" fill="#F50100"/>
<path fill-rule="evenodd" clip-rule="evenodd" d="M6 0H5V4H0V5H5V9H6V5H11V4H6V0Z" fill="#F50100"/>
<path fill-rule="evenodd" clip-rule="evenodd" d="M4.0625 0H6.9375V3.0625L11 3V5.875L6.9375 5.9375V9H4.0625V5.9375L0 5.875V3L4.0625 3.0625V0ZM5 4H0V5H5V9H6V5H11V4H6V0H5V4Z" fill="#F7FCFF"/>
</g>
</g>
<rect x="0.5" y="0.5" width="19" height="14" rx="0.5" stroke="black" stroke-opacity="0.1"/>
<defs>
<clipPath id="clip0_85465_12430">
<rect width="20" height="15" rx="1" fill="white"/>
</clipPath>
<clipPath id="clip1_85465_12430">
<rect width="11" height="9" fill="white"/>
</clipPath>
</defs>
</svg>
