<svg width="20" height="15" viewBox="0 0 20 15" fill="none" xmlns="http://www.w3.org/2000/svg">
<g clip-path="url(#clip0_85465_12687)">
<rect width="20" height="15" rx="1" fill="white"/>
<path fill-rule="evenodd" clip-rule="evenodd" d="M0 0V15H20V0H0Z" fill="#2E42A5"/>
<g clip-path="url(#clip1_85465_12687)">
<rect width="11" height="9" fill="#2E42A5"/>
<path d="M-1.25269 8.1247L1.22291 9.21045L11.3062 1.18028L12.612 -0.433182L9.96468 -0.796071L5.85197 2.66436L2.54165 4.99588L-1.25269 8.1247Z" fill="#F7FCFF"/>
<path d="M-0.913818 8.88555L0.347383 9.51562L12.143 -0.582947H10.3721L-0.913818 8.88555Z" fill="#F50100"/>
<path d="M12.5027 8.1248L10.3056 9.52051L-0.0561562 1.18038L-1.36198 -0.433076L1.28532 -0.795966L5.39803 2.66447L8.70835 4.99599L12.5027 8.1248Z" fill="#F7FCFF"/>
<path d="M12.4182 8.6707L11.157 9.30078L6.13431 4.97706L4.64518 4.49398L-1.48763 -0.427604H0.283246L6.41261 4.37716L8.04071 4.95642L12.4182 8.6707Z" fill="#F50100"/>
<path fill-rule="evenodd" clip-rule="evenodd" d="M6 0H5V4H0V5H5V9H6V5H11V4H6V0Z" fill="#F50100"/>
<path fill-rule="evenodd" clip-rule="evenodd" d="M4.0625 0H6.9375V3.0625L11 3V5.875L6.9375 5.9375V9H4.0625V5.9375L0 5.875V3L4.0625 3.0625V0ZM5 4H0V5H5V9H6V5H11V4H6V0H5V4Z" fill="#F7FCFF"/>
</g>
<path fill-rule="evenodd" clip-rule="evenodd" d="M14.9067 9.28457L15.5691 8.82315L16.21 9.28457L16.0108 8.46344L16.5255 7.94307H15.8704L15.5682 7.27295L15.3105 7.94307H14.542L15.1304 8.46344L14.9067 9.28457ZM16.6647 10.071L17.3271 9.60961L17.7184 9.89128L17.5929 10.2176H16.8244L17.4128 10.738L17.3038 11.1381L17.2276 10.9693L16.9699 11.6394H16.2014L16.7898 12.1598L16.5661 12.9809L17.2285 12.5195L17.8695 12.9809L17.6702 12.1598L18.1849 11.6394H17.5298L17.4208 11.3977L17.8515 11.0977L18.4924 11.5591L18.2932 10.738L18.8079 10.2176H18.1528L17.8506 9.54746L17.8447 9.5628L17.7688 9.24989L18.2835 8.72952H17.6284L17.3262 8.0594L17.0684 8.72952H16.3L16.8883 9.24989L16.6647 10.071ZM15.6359 13.2983L14.9735 13.7597L15.1971 12.9386L14.6622 12.4654L14.7932 13.0056L14.1523 12.5442L13.4899 13.0056L13.7136 12.1844L13.1252 11.6641H13.8937L13.9456 11.529L13.3608 11.108L12.6984 11.5694L12.9221 10.7483L12.3337 10.2279H13.1022L13.3599 9.55776L13.3954 9.63651L13.4928 9.27892L12.9045 8.75855H13.6729L13.9307 8.08843L14.2329 8.75855H14.8879L14.3732 9.27892L14.5725 10.1L13.9316 9.63863L13.5243 9.92232L13.6621 10.2279H14.3172L13.8025 10.7483L13.974 11.4551L14.1514 10.994L14.4536 11.6641H15.1087L14.594 12.1844L14.6507 12.4182H15.3772L15.635 11.7481L15.9372 12.4182H16.5923L16.0775 12.9386L16.2768 13.7597L15.6359 13.2983Z" fill="white"/>
</g>
<rect x="0.5" y="0.5" width="19" height="14" rx="0.5" stroke="black" stroke-opacity="0.1"/>
<defs>
<clipPath id="clip0_85465_12687">
<rect width="20" height="15" rx="1" fill="white"/>
</clipPath>
<clipPath id="clip1_85465_12687">
<rect width="11" height="9" fill="white"/>
</clipPath>
</defs>
</svg>
