<svg width="20" height="15" viewBox="0 0 20 15" fill="none" xmlns="http://www.w3.org/2000/svg">
<g clip-path="url(#clip0_85465_12740)">
<rect width="20" height="15" rx="1" fill="white"/>
<path fill-rule="evenodd" clip-rule="evenodd" d="M0 0V15H20V0H0Z" fill="#3D58DB"/>
<mask id="mask0_85465_12740" style="mask-type:luminance" maskUnits="userSpaceOnUse" x="0" y="0" width="20" height="15">
<path fill-rule="evenodd" clip-rule="evenodd" d="M0 0V15H20V0H0Z" fill="white"/>
</mask>
<g mask="url(#mask0_85465_12740)">
<path d="M0 5H-1.25V6.25V8.75V10H0H20H21.25V8.75V6.25V5H20H0Z" fill="#3D58DB" stroke="#F7FCFF" stroke-width="2.5"/>
</g>
<path fill-rule="evenodd" clip-rule="evenodd" d="M0 0V15L11.25 7.5L0 0Z" fill="#E31D1C"/>
<mask id="mask1_85465_12740" style="mask-type:luminance" maskUnits="userSpaceOnUse" x="0" y="0" width="12" height="15">
<path fill-rule="evenodd" clip-rule="evenodd" d="M0 0V15L11.25 7.5L0 0Z" fill="white"/>
</mask>
<g mask="url(#mask1_85465_12740)">
<path fill-rule="evenodd" clip-rule="evenodd" d="M4.1799 8.8855L1.88494 10.0968L3.00223 7.66304L1.57849 6.36296L3.33629 6.29808L4.1799 4.09766L4.82368 6.29808H6.57849L5.40887 7.66304L6.33921 10.0968L4.1799 8.8855Z" fill="#F7FCFF"/>
</g>
</g>
<rect x="0.5" y="0.5" width="19" height="14" rx="0.5" stroke="black" stroke-opacity="0.1"/>
<defs>
<clipPath id="clip0_85465_12740">
<rect width="20" height="15" rx="1" fill="white"/>
</clipPath>
</defs>
</svg>
