<svg width="20" height="15" viewBox="0 0 20 15" fill="none" xmlns="http://www.w3.org/2000/svg">
<g clip-path="url(#clip0_85465_12751)">
<rect width="20" height="15" rx="1" fill="white"/>
<path fill-rule="evenodd" clip-rule="evenodd" d="M0 0V15H20V0H0Z" fill="#4141DB"/>
<mask id="mask0_85465_12751" style="mask-type:luminance" maskUnits="userSpaceOnUse" x="0" y="0" width="20" height="15">
<path fill-rule="evenodd" clip-rule="evenodd" d="M0 0V15H20V0H0Z" fill="white"/>
</mask>
<g mask="url(#mask0_85465_12751)">
<path d="M0 8.125H-0.625V8.75V10V10.625H0H20H20.625V10V8.75V8.125H20H0Z" fill="#F90000" stroke="#F7FCFF" stroke-width="1.25"/>
<g filter="url(#filter0_d_85465_12751)">
<path fill-rule="evenodd" clip-rule="evenodd" d="M5.11874 6.32051L5.64978 5.9506L6.24612 6.37992L6.23738 6.41201L6.26448 6.39313L6.2907 6.41201L6.28299 6.38024L6.89978 5.9506L7.49612 6.37992L7.48738 6.41201L7.51448 6.39313L7.5407 6.41201L7.53299 6.38024L8.14978 5.9506L8.66361 6.32051H8.37268L8.96102 6.84088L8.73738 7.66201L9.39978 7.2006L9.91361 7.57051H9.62268L10.211 8.09088L10.0123 8.82051H9.62268L10.211 9.34088L10.0123 10.0705H9.62268L10.211 10.5909L10.0123 11.3205H9.70107L9.39886 10.6504L9.14113 11.3205H8.37268L8.96102 11.8409L8.7623 12.5705H8.45107L8.14886 11.9004L7.89113 12.5705H7.85615H7.20107L6.89886 11.9004L6.64113 12.5705H6.60615H5.95107L5.64886 11.9004L5.39113 12.5705H5.0185L4.84143 11.8409L5.35615 11.3205H4.70107L4.39886 10.6504L4.14113 11.3205H3.7685L3.59143 10.5909L4.10615 10.0705H3.7685L3.59143 9.34088L4.10615 8.82051H3.7685L3.59143 8.09088L4.10615 7.57051H3.86874L4.39978 7.2006L5.0407 7.66201L4.84143 6.84088L5.35615 6.32051H5.11874ZM5.0123 6.32051L5.21102 5.59088L4.62268 5.07051H5.39113L5.64886 4.40039L5.95107 5.07051H6.60615H6.64113L6.89886 4.40039L7.20107 5.07051H7.85615H7.89113L8.14886 4.40039L8.45107 5.07051H9.10615L8.59143 5.59088L8.7685 6.32051H9.14113L9.39886 5.65039L9.70107 6.32051H10.3561L9.84143 6.84088L10.0185 7.57051H10.3911L10.6489 6.90039L10.9511 7.57051H11.6061L11.0914 8.09088L11.2685 8.82051H11.6061L11.0914 9.34088L11.2685 10.0705H11.6061L11.0914 10.5909L11.2907 11.412L10.6498 10.9506L10.1187 11.3205H10.3561L9.84143 11.8409L10.0407 12.662L9.39978 12.2006L8.86874 12.5705H9.10615L8.59143 13.0909L8.7907 13.912L8.14978 13.4506L7.53299 13.8802L7.5407 13.912L7.51448 13.8931L7.48738 13.912L7.49612 13.8799L6.89978 13.4506L6.28299 13.8802L6.2907 13.912L6.26448 13.8931L6.23738 13.912L6.24612 13.8799L5.64978 13.4506L4.98738 13.912L5.21102 13.0909L4.62268 12.5705H4.91361L4.39978 12.2006L3.73738 12.662L3.96102 11.8409L3.37268 11.3205H3.66361L3.14978 10.9506L2.48738 11.412L2.71102 10.5909L2.12268 10.0705H2.5123L2.71102 9.34088L2.12268 8.82051H2.5123L2.71102 8.09088L2.12268 7.57051H2.89113L3.14886 6.90039L3.45107 7.57051H3.7623L3.96102 6.84088L3.37268 6.32051H4.14113L4.39886 5.65039L4.70107 6.32051H5.0123ZM3.34889 8.59393L3.66361 8.82051H3.45107L3.34889 8.59393ZM2.61874 8.82051L2.99081 8.56133L2.89113 8.82051H2.61874ZM2.61874 10.0705H2.89113L2.99081 9.81133L2.61874 10.0705ZM3.34889 9.84393L3.45107 10.0705H3.66361L3.34889 9.84393ZM6.09143 13.0909L6.26389 12.9165L6.46102 13.0909L6.26558 13.8085L6.09143 13.0909ZM7.51558 13.8085L7.71102 13.0909L7.51389 12.9165L7.34143 13.0909L7.51558 13.8085ZM10.3911 10.0705H10.1187L10.4908 9.81133L10.3911 10.0705ZM10.9511 10.0705L10.8489 9.84394L11.1636 10.0705H10.9511ZM11.1636 8.82051L10.8489 8.59394L10.9511 8.82051H11.1636ZM10.4908 8.56133L10.1187 8.82051H10.3911L10.4908 8.56133ZM7.71102 5.59088L7.51558 6.30848L7.34143 5.59088L7.51389 5.41653L7.71102 5.59088ZM6.26389 5.41653L6.09143 5.59088L6.26558 6.30848L6.46102 5.59088L6.26389 5.41653Z" fill="#FFDE00"/>
</g>
</g>
</g>
<rect x="0.5" y="0.5" width="19" height="14" rx="0.5" stroke="black" stroke-opacity="0.1"/>
<defs>
<filter id="filter0_d_85465_12751" x="-0.877319" y="1.40039" width="15.4835" height="15.5117" filterUnits="userSpaceOnUse" color-interpolation-filters="sRGB">
<feFlood flood-opacity="0" result="BackgroundImageFix"/>
<feColorMatrix in="SourceAlpha" type="matrix" values="0 0 0 0 0 0 0 0 0 0 0 0 0 0 0 0 0 0 127 0" result="hardAlpha"/>
<feOffset/>
<feGaussianBlur stdDeviation="1.5"/>
<feColorMatrix type="matrix" values="0 0 0 0 0 0 0 0 0 0 0 0 0 0 0 0 0 0 0.24 0"/>
<feBlend mode="normal" in2="BackgroundImageFix" result="effect1_dropShadow_85465_12751"/>
<feBlend mode="normal" in="SourceGraphic" in2="effect1_dropShadow_85465_12751" result="shape"/>
</filter>
<clipPath id="clip0_85465_12751">
<rect width="20" height="15" rx="1" fill="white"/>
</clipPath>
</defs>
</svg>
