<svg width="20" height="15" viewBox="0 0 20 15" fill="none" xmlns="http://www.w3.org/2000/svg">
<g clip-path="url(#clip0_85465_12774)">
<rect width="20" height="15" rx="1" fill="white"/>
<path fill-rule="evenodd" clip-rule="evenodd" d="M0 0V15H20V0H0Z" fill="#2E42A5"/>
<mask id="mask0_85465_12774" style="mask-type:luminance" maskUnits="userSpaceOnUse" x="0" y="0" width="20" height="15">
<path fill-rule="evenodd" clip-rule="evenodd" d="M0 0V15H20V0H0Z" fill="white"/>
</mask>
<g mask="url(#mask0_85465_12774)">
<path fill-rule="evenodd" clip-rule="evenodd" d="M2.65901 3.84327L1.41599 4.49932L2.01615 3.33158L1.25 2.47697L2.20209 2.44183L2.65901 1.25L3.00771 2.44183L4.12186 2.47697L3.31967 3.33158L3.82857 4.49932L2.65901 3.84327Z" fill="#F7FCFF"/>
<path fill-rule="evenodd" clip-rule="evenodd" d="M7.09512 6.92304L5.56098 7.56569L6.16284 5.9553L4.82898 4.87475H6.42729L7.09512 3.13281L7.60476 4.87475H9.20553L8.06802 5.9553L8.63285 7.56569L7.09512 6.92304Z" fill="#F7FCFF"/>
<path fill-rule="evenodd" clip-rule="evenodd" d="M0 8.75V11.25H20V8.75H0Z" fill="#F9E813"/>
</g>
</g>
<rect x="0.5" y="0.5" width="19" height="14" rx="0.5" stroke="black" stroke-opacity="0.1"/>
<defs>
<clipPath id="clip0_85465_12774">
<rect width="20" height="15" rx="1" fill="white"/>
</clipPath>
</defs>
</svg>
