<svg width="20" height="15" viewBox="0 0 20 15" fill="none" xmlns="http://www.w3.org/2000/svg">
<g clip-path="url(#clip0_85465_12782)">
<rect width="20" height="15" rx="1" fill="white"/>
<path fill-rule="evenodd" clip-rule="evenodd" d="M0 0H20V15H0V0Z" fill="#5EAA22"/>
<path fill-rule="evenodd" clip-rule="evenodd" d="M0 0L20 15H0V0Z" fill="#4141DB"/>
<path fill-rule="evenodd" clip-rule="evenodd" d="M3.75 5.625L3.125 6.08253L3.20873 5.3125L2.5 5L3.20873 4.6875L3.125 3.91747L3.75 4.375L4.375 3.91747L4.29127 4.6875L5 5L4.29127 5.3125L4.375 6.08253L3.75 5.625Z" fill="white"/>
<path fill-rule="evenodd" clip-rule="evenodd" d="M2.5 9.375L1.875 9.83253L1.95873 9.0625L1.25 8.75L1.95873 8.4375L1.875 7.66747L2.5 8.125L3.125 7.66747L3.04127 8.4375L3.75 8.75L3.04127 9.0625L3.125 9.83253L2.5 9.375Z" fill="white"/>
<path fill-rule="evenodd" clip-rule="evenodd" d="M5 13.125L4.375 13.5825L4.45873 12.8125L3.75 12.5L4.45873 12.1875L4.375 11.4175L5 11.875L5.625 11.4175L5.54127 12.1875L6.25 12.5L5.54127 12.8125L5.625 13.5825L5 13.125Z" fill="white"/>
<path fill-rule="evenodd" clip-rule="evenodd" d="M5.625 7.1875L5.3125 7.41627L5.35437 7.03125L5 6.875L5.35437 6.71875L5.3125 6.33373L5.625 6.5625L5.9375 6.33373L5.89563 6.71875L6.25 6.875L5.89563 7.03125L5.9375 7.41627L5.625 7.1875Z" fill="white"/>
<path fill-rule="evenodd" clip-rule="evenodd" d="M13.4757 7.64005C13.2421 7.39631 15.3446 6.82362 15.5626 6.08516C15.8513 5.44223 15.6584 4.92126 14.5671 4.46373C13.4757 4.0062 12.3728 3.12152 13.6411 3.12152C14.9093 3.12152 14.9093 3.30236 15.2501 3.8358C15.5908 4.36923 16.3272 4.4835 16.3428 3.8358C16.3428 2.73217 16.447 2.58374 15.5561 1.62426C14.6651 0.664778 17.7901 2.01828 17.5318 3.66315C17.2736 5.30802 16.9626 4.77726 17.16 5.05338C17.3574 5.32949 18.5452 4.47237 18.3969 5.61412C17.9813 6.27078 17.1572 7.24781 13.4757 7.64005Z" fill="#FECA00"/>
<path fill-rule="evenodd" clip-rule="evenodd" d="M10 10.625C11.7259 10.625 13.125 9.22589 13.125 7.5C13.125 5.77411 11.7259 4.375 10 4.375C8.27411 4.375 6.875 5.77411 6.875 7.5C6.875 9.22589 8.27411 10.625 10 10.625Z" fill="#FECA00"/>
<path fill-rule="evenodd" clip-rule="evenodd" d="M8.0956 6.35117C8.45007 6.27213 8.93477 7.22132 9.8096 6.86532C10.6844 6.50932 10.8671 5.82965 11.2828 6.0784C11.6984 6.32715 11.753 6.92608 11.4761 7.22711C11.1992 7.52813 10.7293 7.59934 10.7293 7.97982C10.7293 8.36029 10.6372 9.71709 10.4576 9.32388C9.91914 8.88697 10.2477 8.19107 9.58439 7.97982C8.9211 7.76856 8.51825 7.77564 8.02896 7.86478C7.53967 7.95393 8.35767 7.6199 8.53115 7.30277C8.88437 6.96296 7.93352 6.46416 8.0956 6.35117Z" fill="#548650"/>
</g>
<rect x="0.5" y="0.5" width="19" height="14" rx="0.5" stroke="black" stroke-opacity="0.1"/>
<defs>
<clipPath id="clip0_85465_12782">
<rect width="20" height="15" rx="1" fill="white"/>
</clipPath>
</defs>
</svg>
