<svg width="20" height="15" viewBox="0 0 20 15" fill="none" xmlns="http://www.w3.org/2000/svg">
<g clip-path="url(#clip0_85465_12864)">
<rect width="20" height="15" rx="1" fill="white"/>
<path fill-rule="evenodd" clip-rule="evenodd" d="M0 0V15H20V0H0Z" fill="#C51918"/>
<mask id="mask0_85465_12864" style="mask-type:luminance" maskUnits="userSpaceOnUse" x="0" y="0" width="20" height="15">
<path fill-rule="evenodd" clip-rule="evenodd" d="M0 0V15H20V0H0Z" fill="white"/>
</mask>
<g mask="url(#mask0_85465_12864)">
<path fill-rule="evenodd" clip-rule="evenodd" d="M8.75 0H11.25V6.25H20V8.75H11.25V15H8.75V8.75H0V6.25H8.75V0Z" fill="#F7FCFF"/>
<rect width="8.75" height="6.25" fill="#4257BF"/>
<rect x="11.25" y="8.75" width="8.75" height="6.25" fill="#4257BF"/>
<path d="M8.52313 6.94434L9.14529 7.00388C9.0388 8.11646 9.17719 8.58525 9.40205 8.58525V9.21025C8.62431 9.21025 8.38413 8.39661 8.52313 6.94434Z" fill="#309404"/>
<path d="M11.5167 6.94434L10.8945 7.00388C11.001 8.11646 10.8626 8.58525 10.6377 8.58525V9.21025C11.4155 9.21025 11.6557 8.39661 11.5167 6.94434Z" fill="#309404"/>
<rect x="9.20459" y="6.68262" width="0.590909" height="0.923077" fill="#003994"/>
<path d="M10.1138 7.77881H10.7047V8.24734C10.7047 8.49838 10.5012 8.70189 10.2501 8.70189H10.1138V7.77881Z" fill="#003994"/>
<rect x="10.0684" y="6.625" width="0.590909" height="0.923077" fill="#DE2110"/>
<path d="M9.20459 7.77881H9.7955V8.70189H9.65914C9.4081 8.70189 9.20459 8.49838 9.20459 8.24734V7.77881Z" fill="#DE2110"/>
<path d="M8.95906 6.63085L8.54102 6.16624C8.98248 5.76902 9.44258 5.5625 9.91643 5.5625C10.3903 5.5625 10.8504 5.76902 11.2918 6.16624L10.8738 6.63085C10.5394 6.33001 10.2219 6.1875 9.91643 6.1875C9.61091 6.1875 9.29341 6.33001 8.95906 6.63085Z" fill="#00319C"/>
<path d="M9.00447 9.74609L8.58643 9.28148C9.02789 8.88425 9.48799 8.67773 9.96184 8.67773C10.4357 8.67773 10.8958 8.88425 11.3372 9.28148L10.9192 9.74609C10.5849 9.44525 10.2674 9.30273 9.96184 9.30273C9.65632 9.30273 9.33882 9.44525 9.00447 9.74609Z" fill="#DE2110"/>
</g>
</g>
<rect x="0.5" y="0.5" width="19" height="14" rx="0.5" stroke="black" stroke-opacity="0.1"/>
<defs>
<clipPath id="clip0_85465_12864">
<rect width="20" height="15" rx="1" fill="white"/>
</clipPath>
</defs>
</svg>
