<svg width="20" height="15" viewBox="0 0 20 15" fill="none" xmlns="http://www.w3.org/2000/svg">
<g clip-path="url(#clip0_85465_12891)">
<rect width="20" height="15" rx="1" fill="white"/>
<path fill-rule="evenodd" clip-rule="evenodd" d="M0 0V15H20V0H0Z" fill="#2E42A5"/>
<mask id="mask0_85465_12891" style="mask-type:luminance" maskUnits="userSpaceOnUse" x="0" y="0" width="20" height="15">
<path fill-rule="evenodd" clip-rule="evenodd" d="M0 0V15H20V0H0Z" fill="white"/>
</mask>
<g mask="url(#mask0_85465_12891)">
<path fill-rule="evenodd" clip-rule="evenodd" d="M0 0V7.5H20V0H0Z" fill="#FECA00"/>
<path fill-rule="evenodd" clip-rule="evenodd" d="M0 11.25V15H20V11.25H0Z" fill="#E31D1C"/>
<path fill-rule="evenodd" clip-rule="evenodd" d="M5.75779 3.62005C5.68253 3.4503 8.57692 2.59131 8.79379 2.59131C9.01067 2.59131 9.28499 3.10568 9.28499 3.10568L11.0452 3.24806C11.0452 3.24806 10.8373 2.59131 11.0452 2.59131C11.2532 2.59131 14.44 3.69829 14.44 3.69829C14.44 3.69829 10.4562 4.1785 10.4562 4.28663C10.4562 4.39475 10.7171 4.98835 10.7171 4.98835L9.98042 5.22976C9.98042 5.22976 10.0237 4.5144 9.90356 4.5144C9.78343 4.5144 9.42682 5.37001 9.42682 5.37001L9.07713 4.28663C9.07713 4.28663 5.83305 3.7898 5.75779 3.62005Z" fill="#7B2900"/>
<path d="M5.77027 6.26123L6.55824 6.44965C5.73381 9.89736 6.49584 11.5508 8.84227 11.7044L8.78933 12.5129C5.84883 12.3203 4.84317 10.1383 5.77027 6.26123Z" fill="#FECA00"/>
<path d="M6.25023 5.79688L7.05068 5.92214C6.48607 9.53008 6.93823 11.1615 8.20552 11.1168L8.23404 11.9265C6.20933 11.9978 5.61527 9.85443 6.25023 5.79688Z" fill="#07138E"/>
<path d="M7.06029 5.46582L7.86074 5.59108C7.29613 9.19903 7.74829 10.8304 9.01558 10.7858L9.0441 11.5955C7.01939 11.6668 6.42533 9.52338 7.06029 5.46582Z" fill="#E10001"/>
<path d="M8.56369 12.0462L9.37007 11.9678C9.43646 12.6505 9.38618 13.2392 9.21321 13.7336L8.44849 13.466C8.57905 13.0929 8.61946 12.6197 8.56369 12.0462Z" fill="#07138E"/>
<path d="M13.4373 6.35547C13.4373 6.35547 14.7286 12.1635 10.7495 12.0629" stroke="#FECA00" stroke-width="0.810185"/>
<path d="M13.3513 5.79688L12.5509 5.92214C13.1155 9.53008 12.6633 11.1615 11.396 11.1168L11.3675 11.9265C13.3922 11.9978 13.9863 9.85443 13.3513 5.79688Z" fill="#07138E"/>
<path d="M12.5413 5.46582L11.7408 5.59108C12.3054 9.19903 11.8533 10.8304 10.586 10.7858L10.5575 11.5955C12.5822 11.6668 13.1762 9.52338 12.5413 5.46582Z" fill="#E10001"/>
<path d="M10.8803 12.0508L10.0749 11.9634C10.0072 12.5869 10.0587 13.127 10.2363 13.5818L10.991 13.2871C10.865 12.9646 10.8258 12.5531 10.8803 12.0508Z" fill="#07138E"/>
<rect x="8.6665" y="10.9375" width="2.43056" height="1.15809" fill="#908F89"/>
<path d="M9.88191 11.25C10.5672 11.25 11.1591 10.8637 11.5677 10.2964C11.9766 9.72853 12.2199 8.95984 12.2199 8.125C12.2199 7.29016 11.9766 6.52147 11.5677 5.95364C11.1591 5.38627 10.5672 5 9.88191 5C9.19662 5 8.6047 5.38627 8.1961 5.95364C7.78718 6.52147 7.54395 7.29016 7.54395 8.125C7.54395 8.95984 7.78718 9.72853 8.1961 10.2964C8.6047 10.8637 9.19662 11.25 9.88191 11.25Z" stroke="#FEE901" stroke-width="0.625"/>
<mask id="mask1_85465_12891" style="mask-type:luminance" maskUnits="userSpaceOnUse" x="7" y="4" width="6" height="8">
<path d="M9.88191 11.25C10.5672 11.25 11.1591 10.8637 11.5677 10.2964C11.9766 9.72853 12.2199 8.95984 12.2199 8.125C12.2199 7.29016 11.9766 6.52147 11.5677 5.95364C11.1591 5.38627 10.5672 5 9.88191 5C9.19662 5 8.6047 5.38627 8.1961 5.95364C7.78718 6.52147 7.54395 7.29016 7.54395 8.125C7.54395 8.95984 7.78718 9.72853 8.1961 10.2964C8.6047 10.8637 9.19662 11.25 9.88191 11.25Z" fill="white" stroke="white" stroke-width="0.625"/>
</mask>
<g mask="url(#mask1_85465_12891)">
<path fill-rule="evenodd" clip-rule="evenodd" d="M11.3487 9.62834C11.3487 9.62834 10.3641 9.09252 10.0815 8.90152C9.79885 8.71052 9.962 8.28441 9.47525 8.39829C8.98851 8.51218 8.59747 8.71052 8.59747 9.25426C8.59747 9.798 8.21532 10.1208 8.08508 9.74931C7.95484 9.37781 7.34243 7.64062 8.08508 7.64062C8.82773 7.64062 10.5636 8.03021 11.0746 8.03021C11.5856 8.03021 11.8831 8.29535 11.8831 8.7748C11.8831 9.4197 11.3487 9.62834 11.3487 9.62834Z" fill="#8DDD61"/>
<path fill-rule="evenodd" clip-rule="evenodd" d="M9.8819 6.80133C10.1056 6.80133 10.287 6.61615 10.287 6.38772C10.287 6.1593 10.1056 5.97412 9.8819 5.97412C9.65817 5.97412 9.47681 6.1593 9.47681 6.38772C9.47681 6.61615 9.65817 6.80133 9.8819 6.80133Z" fill="#FEE901"/>
<path fill-rule="evenodd" clip-rule="evenodd" d="M8.54339 6.8378C8.54339 6.8378 9.01462 6.72383 9.66574 7.16261C10.3169 7.60139 11.8955 7.85125 11.8955 7.50693C11.8955 7.16261 11.8955 8.17764 11.8955 8.17764C11.8955 8.17764 8.39266 7.95955 8.20526 8.17764C8.01786 8.39574 7.99916 6.95969 8.20526 6.8378C8.41136 6.71591 8.54339 6.8378 8.54339 6.8378Z" fill="#F7FCFF"/>
</g>
</g>
</g>
<rect x="0.5" y="0.5" width="19" height="14" rx="0.5" stroke="black" stroke-opacity="0.1"/>
<defs>
<clipPath id="clip0_85465_12891">
<rect width="20" height="15" rx="1" fill="white"/>
</clipPath>
</defs>
</svg>
