<svg width="20" height="15" viewBox="0 0 20 15" fill="none" xmlns="http://www.w3.org/2000/svg">
<g clip-path="url(#clip0_85465_12924)">
<rect width="20" height="15" rx="1" fill="white"/>
<path fill-rule="evenodd" clip-rule="evenodd" d="M0 0V15H20V0H0Z" fill="#F7FCFF"/>
<mask id="mask0_85465_12924" style="mask-type:luminance" maskUnits="userSpaceOnUse" x="0" y="0" width="20" height="15">
<path fill-rule="evenodd" clip-rule="evenodd" d="M0 0V15H20V0H0Z" fill="white"/>
</mask>
<g mask="url(#mask0_85465_12924)">
<path fill-rule="evenodd" clip-rule="evenodd" d="M0 0V5H20V0H0Z" fill="#BF2714"/>
<path fill-rule="evenodd" clip-rule="evenodd" d="M0 10V15H20V10H0Z" fill="#272727"/>
<path d="M7.66282 6.3877L8.28717 6.41632L8.13045 9.83494L7.5061 9.80632L7.66282 6.3877Z" fill="#C09302"/>
<path d="M8.31517 6.6001L8.93917 6.63538L8.78245 9.40745L8.15845 9.37217L8.31517 6.6001Z" fill="#C09302"/>
<path d="M8.968 6.80762L9.59091 6.85873L9.43419 8.76873L8.81128 8.71762L8.968 6.80762Z" fill="#C09302"/>
<path d="M12.3374 6.3877L11.7131 6.41632L11.8698 9.83494L12.4941 9.80632L12.3374 6.3877Z" fill="#C09302"/>
<path d="M11.6851 6.6001L11.0611 6.63538L11.2178 9.40745L11.8418 9.37217L11.6851 6.6001Z" fill="#C09302"/>
<path d="M11.0322 6.80762L10.4093 6.85873L10.5661 8.76873L11.189 8.71762L11.0322 6.80762Z" fill="#C09302"/>
<path d="M9.98348 9.57948L9.37427 9.4399L9.63213 8.31445L10.2413 8.45404L9.98348 9.57948Z" fill="#C09302"/>
<path d="M10.4499 9.57948L11.0591 9.4399L10.8012 8.31445L10.192 8.45404L10.4499 9.57948Z" fill="#C09302"/>
<path d="M10.2952 9.56931H9.67017V8.46436H10.2952V9.56931Z" fill="#C09302"/>
<path d="M9.14686 6.8208L9.77167 6.83613L9.73516 8.32419L9.11035 8.30886L9.14686 6.8208Z" fill="#C09302"/>
<path d="M10.2338 6.8208L10.8586 6.83613L10.8221 8.32419L10.1973 8.30886L10.2338 6.8208Z" fill="#C09302"/>
<path d="M8.33643 9.9517L8.49874 9.34814C9.16189 9.52649 9.67109 9.61469 10.0183 9.61469C10.3655 9.61469 10.8747 9.52649 11.5379 9.34814L11.7002 9.9517C10.9887 10.143 10.4307 10.2397 10.0183 10.2397C9.60587 10.2397 9.04792 10.143 8.33643 9.9517Z" fill="#C09302"/>
<path d="M7.67652 6.38934C7.63485 5.97647 7.8765 5.69698 8.28604 5.73263C8.4207 5.74435 8.57195 5.78418 8.77339 5.85253C8.83225 5.87272 8.83225 5.87272 8.88945 5.89297C9.16639 5.99147 9.24158 6.01679 9.25719 6.02012C9.19583 6.00622 9.37656 5.67949 9.41802 5.62442C9.42292 5.65939 9.40211 5.65442 9.35215 5.64442L8.78838 5.53159L9.1897 5.11987C9.32998 4.97595 9.51679 4.90459 9.72997 4.90459C9.75207 4.90459 9.77269 4.90356 9.84041 4.89939C9.8905 4.89635 9.8905 4.89635 9.94681 4.89402C10.3368 4.88138 10.6165 4.99166 10.6165 5.39269C10.6165 5.53617 10.6346 5.76688 10.6645 5.94191C10.6745 6.00079 10.694 6.05591 10.6367 6.08011C10.639 6.05922 10.7756 6.00532 10.988 5.91649L11.0135 5.90584C11.6307 5.64825 11.7028 5.62435 11.9017 5.74525C12.0343 5.82582 12.1605 5.97074 12.3019 6.18681L11.779 6.52912C11.6878 6.38976 11.6151 6.30519 11.5805 6.28157C11.6592 6.3362 11.3944 6.42414 11.2543 6.48261L11.2292 6.4931C10.7487 6.69405 10.6853 6.71802 10.5479 6.71802C10.1741 6.71802 10.0398 6.33505 10.0031 5.78657C9.88772 6.16631 9.54355 6.64553 9.25995 6.64553C9.13579 6.64553 9.19548 6.66517 8.68001 6.48183C8.626 6.46272 8.626 6.46272 8.57259 6.44439C8.41643 6.39141 8.30377 6.36169 8.2327 6.35535C8.23563 6.352 8.2461 6.34074 8.25784 6.33068L7.67652 6.38934Z" fill="#C09302"/>
</g>
</g>
<rect x="0.5" y="0.5" width="19" height="14" rx="0.5" stroke="black" stroke-opacity="0.1"/>
<defs>
<clipPath id="clip0_85465_12924">
<rect width="20" height="15" rx="1" fill="white"/>
</clipPath>
</defs>
</svg>
