<svg width="20" height="15" viewBox="0 0 20 15" fill="none" xmlns="http://www.w3.org/2000/svg">
<g clip-path="url(#clip0_85465_12981)">
<rect width="20" height="15" rx="1" fill="white"/>
<path fill-rule="evenodd" clip-rule="evenodd" d="M0 0V15H20V0H0Z" fill="#FFB400"/>
<mask id="mask0_85465_12981" style="mask-type:luminance" maskUnits="userSpaceOnUse" x="0" y="0" width="20" height="15">
<path fill-rule="evenodd" clip-rule="evenodd" d="M0 0V15H20V0H0Z" fill="white"/>
</mask>
<g mask="url(#mask0_85465_12981)">
<path fill-rule="evenodd" clip-rule="evenodd" d="M0 0V3.75H20V0H0Z" fill="#C51918"/>
<path fill-rule="evenodd" clip-rule="evenodd" d="M0 11.25V15H20V11.25H0Z" fill="#C51918"/>
<rect x="3.12988" y="6.41992" width="0.7" height="3.64" fill="#F1F9FF"/>
<path fill-rule="evenodd" clip-rule="evenodd" d="M4.1101 5.79004H2.8501V6.14004H3.0601V6.42004H3.9001V6.14004H4.1101V5.79004Z" fill="#C88A02"/>
<path fill-rule="evenodd" clip-rule="evenodd" d="M3.9001 10.2697H4.1101V10.6197H2.8501V10.2697H3.0601V9.98975H3.9001V10.2697Z" fill="#C88A02"/>
<path fill-rule="evenodd" clip-rule="evenodd" d="M3.47999 5.85984C3.63232 5.85984 3.64781 5.80248 3.73768 5.71681C3.80746 5.65029 3.96999 5.56778 3.96999 5.47484C3.96999 5.26221 3.75061 5.08984 3.47999 5.08984C3.20937 5.08984 2.98999 5.26221 2.98999 5.47484C2.98999 5.57839 3.10191 5.64762 3.18654 5.71681C3.2757 5.78971 3.34115 5.85984 3.47999 5.85984Z" fill="#AD1619"/>
<path fill-rule="evenodd" clip-rule="evenodd" d="M2.8501 10.6196H4.1101V11.1796C4.1101 11.1796 3.9526 11.1096 3.7951 11.1096C3.6376 11.1096 3.4801 11.1796 3.4801 11.1796C3.4801 11.1796 3.3226 11.1096 3.1651 11.1096C3.0076 11.1096 2.8501 11.1796 2.8501 11.1796V10.6196Z" fill="#005BBF"/>
<mask id="mask1_85465_12981" style="mask-type:luminance" maskUnits="userSpaceOnUse" x="2" y="10" width="3" height="2">
<path fill-rule="evenodd" clip-rule="evenodd" d="M2.8501 10.6196H4.1101V11.1796C4.1101 11.1796 3.9526 11.1096 3.7951 11.1096C3.6376 11.1096 3.4801 11.1796 3.4801 11.1796C3.4801 11.1796 3.3226 11.1096 3.1651 11.1096C3.0076 11.1096 2.8501 11.1796 2.8501 11.1796V10.6196Z" fill="white"/>
</mask>
<g mask="url(#mask1_85465_12981)">
<path d="M2.83878 11.0697L2.81128 11.0026C2.92477 10.9521 3.03866 10.9268 3.15272 10.9268C3.22641 10.9268 3.26489 10.937 3.33031 10.9661C3.38778 10.9917 3.41756 10.9997 3.48041 10.9997C3.54325 10.9997 3.57304 10.9917 3.6305 10.9661C3.69592 10.937 3.73441 10.9268 3.8081 10.9268C3.92216 10.9268 4.03605 10.9521 4.14954 11.0026L4.12204 11.0697C4.01706 11.0229 3.91249 10.9997 3.8081 10.9997C3.74525 10.9997 3.71547 11.0076 3.658 11.0332C3.59258 11.0623 3.5541 11.0726 3.48041 11.0726C3.40672 11.0726 3.36823 11.0623 3.30281 11.0332C3.24535 11.0076 3.21556 10.9997 3.15272 10.9997C3.04832 10.9997 2.94375 11.0229 2.83878 11.0697Z" fill="white"/>
<path d="M2.83878 10.8597L2.81128 10.7926C2.92477 10.7421 3.03866 10.7168 3.15272 10.7168C3.22641 10.7168 3.26489 10.7271 3.33031 10.7562C3.38778 10.7818 3.41756 10.7897 3.48041 10.7897C3.54325 10.7897 3.57304 10.7818 3.6305 10.7562C3.69592 10.7271 3.73441 10.7168 3.8081 10.7168C3.92216 10.7168 4.03605 10.7421 4.14954 10.7926L4.12204 10.8597C4.01706 10.813 3.91249 10.7897 3.8081 10.7897C3.74525 10.7897 3.71547 10.7977 3.658 10.8232C3.59258 10.8524 3.5541 10.8626 3.48041 10.8626C3.40672 10.8626 3.36823 10.8524 3.30281 10.8232C3.24535 10.7977 3.21556 10.7897 3.15272 10.7897C3.04832 10.7897 2.94375 10.813 2.83878 10.8597Z" fill="white"/>
</g>
<rect x="9.98999" y="6.41992" width="0.7" height="3.64" fill="#F1F9FF"/>
<path fill-rule="evenodd" clip-rule="evenodd" d="M10.97 5.79004H9.70996V6.14004H9.91996V6.42004H10.76V6.14004H10.97V5.79004Z" fill="#C88A02"/>
<path fill-rule="evenodd" clip-rule="evenodd" d="M10.76 10.2697H10.97V10.6197H9.70996V10.2697H9.91996V9.98975H10.76V10.2697Z" fill="#C88A02"/>
<path fill-rule="evenodd" clip-rule="evenodd" d="M10.3401 5.85984C10.4924 5.85984 10.5079 5.80248 10.5978 5.71681C10.6676 5.65029 10.8301 5.56778 10.8301 5.47484C10.8301 5.26221 10.6107 5.08984 10.3401 5.08984C10.0695 5.08984 9.8501 5.26221 9.8501 5.47484C9.8501 5.57839 9.96202 5.64762 10.0466 5.71681C10.1358 5.78971 10.2013 5.85984 10.3401 5.85984Z" fill="#AD1619"/>
<path fill-rule="evenodd" clip-rule="evenodd" d="M9.70996 10.6196H10.97V11.1796C10.97 11.1796 10.8125 11.1096 10.655 11.1096C10.4975 11.1096 10.34 11.1796 10.34 11.1796C10.34 11.1796 10.1825 11.1096 10.025 11.1096C9.86746 11.1096 9.70996 11.1796 9.70996 11.1796V10.6196Z" fill="#005BBF"/>
<mask id="mask2_85465_12981" style="mask-type:luminance" maskUnits="userSpaceOnUse" x="9" y="10" width="2" height="2">
<path fill-rule="evenodd" clip-rule="evenodd" d="M9.70996 10.6196H10.97V11.1796C10.97 11.1796 10.8125 11.1096 10.655 11.1096C10.4975 11.1096 10.34 11.1796 10.34 11.1796C10.34 11.1796 10.1825 11.1096 10.025 11.1096C9.86746 11.1096 9.70996 11.1796 9.70996 11.1796V10.6196Z" fill="white"/>
</mask>
<g mask="url(#mask2_85465_12981)">
<path d="M9.69864 11.0697L9.67114 11.0026C9.78463 10.9521 9.89852 10.9268 10.0126 10.9268C10.0863 10.9268 10.1248 10.937 10.1902 10.9661C10.2476 10.9917 10.2774 10.9997 10.3403 10.9997C10.4031 10.9997 10.4329 10.9917 10.4904 10.9661C10.5558 10.937 10.5943 10.9268 10.668 10.9268C10.782 10.9268 10.8959 10.9521 11.0094 11.0026L10.9819 11.0697C10.8769 11.0229 10.7724 10.9997 10.668 10.9997C10.6051 10.9997 10.5753 11.0076 10.5179 11.0332C10.4524 11.0623 10.414 11.0726 10.3403 11.0726C10.2666 11.0726 10.2281 11.0623 10.1627 11.0332C10.1052 11.0076 10.0754 10.9997 10.0126 10.9997C9.90819 10.9997 9.80362 11.0229 9.69864 11.0697Z" fill="white"/>
<path d="M9.69864 10.8597L9.67114 10.7926C9.78463 10.7421 9.89852 10.7168 10.0126 10.7168C10.0863 10.7168 10.1248 10.7271 10.1902 10.7562C10.2476 10.7818 10.2774 10.7897 10.3403 10.7897C10.4031 10.7897 10.4329 10.7818 10.4904 10.7562C10.5558 10.7271 10.5943 10.7168 10.668 10.7168C10.782 10.7168 10.8959 10.7421 11.0094 10.7926L10.9819 10.8597C10.8769 10.813 10.7724 10.7897 10.668 10.7897C10.6051 10.7897 10.5753 10.7977 10.5179 10.8232C10.4524 10.8524 10.414 10.8626 10.3403 10.8626C10.2666 10.8626 10.2281 10.8524 10.1627 10.8232C10.1052 10.7977 10.0754 10.7897 10.0126 10.7897C9.90819 10.7897 9.80362 10.813 9.69864 10.8597Z" fill="white"/>
</g>
<path fill-rule="evenodd" clip-rule="evenodd" d="M3.11747 9.79969C3.24367 9.64667 3.31425 9.50748 3.31425 9.35964C3.31425 9.26643 3.28651 9.18591 3.23791 9.12014L3.24612 9.11645C3.24536 9.11679 3.38457 9.05611 3.43303 9.03287C3.52313 8.98967 3.6025 8.94392 3.67989 8.88764C3.7293 8.85171 3.7955 8.81257 3.89641 8.75839L3.99125 8.70794L4.01685 8.69435C4.06589 8.66818 4.10242 8.64813 4.13635 8.62845C4.24208 8.56712 4.31195 8.51643 4.36539 8.44866C4.49196 8.28815 4.46568 8.07058 4.28831 7.94982C4.20141 7.89065 4.08415 7.8567 3.91225 7.82998L3.87665 7.82447L3.6664 7.79187C3.58415 7.77896 3.51075 7.7669 3.44531 7.75547C3.87566 7.68386 4.49019 7.71018 4.7605 7.84974L5.01741 7.35215C4.46657 7.06775 3.21149 7.09679 2.74265 7.41966C2.39878 7.65648 2.44492 8.01445 2.80271 8.1686C2.95221 8.23301 3.1471 8.27575 3.50776 8.3337C3.44732 8.36876 3.39721 8.40079 3.35052 8.43474C3.30318 8.46917 3.25245 8.49842 3.19092 8.52792C3.16149 8.54203 3.07434 8.5803 3.0344 8.59783L3.01432 8.60668C2.72289 8.73919 2.58146 8.9225 2.62372 9.25342L2.6466 9.43255L2.68764 9.44516L3.11747 9.79969ZM2.75723 9.33676L2.75634 9.33933L2.75702 9.33751L2.75723 9.33676ZM10.4412 9.35964C10.4412 9.50748 10.5118 9.64667 10.638 9.79969L11.0678 9.44516L11.1089 9.43255L11.1317 9.25342C11.174 8.9225 11.0326 8.73919 10.7411 8.60668L10.7211 8.59784L10.721 8.5978C10.681 8.58025 10.594 8.54202 10.5645 8.52792C10.503 8.49842 10.4523 8.46917 10.4049 8.43474C10.3583 8.40079 10.3081 8.36876 10.2477 8.3337C10.6084 8.27575 10.8033 8.23301 10.9528 8.1686C11.3105 8.01445 11.3567 7.65648 11.0128 7.41966C10.544 7.09679 9.2889 7.06775 8.73806 7.35215L8.99497 7.84974C9.26528 7.71018 9.8798 7.68386 10.3102 7.75547C10.2447 7.7669 10.1713 7.77896 10.0891 7.79187L9.87879 7.82447L9.84321 7.82998C9.67132 7.8567 9.55405 7.89065 9.46715 7.94982C9.28978 8.07058 9.2635 8.28815 9.39008 8.44866C9.44352 8.51643 9.51339 8.56712 9.61912 8.62845C9.65305 8.64813 9.68957 8.66818 9.73862 8.69435L9.76429 8.70798L9.85905 8.75839C9.95997 8.81257 10.0262 8.85171 10.0756 8.88764C10.153 8.94392 10.2323 8.98967 10.3224 9.03287C10.3709 9.05611 10.5101 9.11679 10.5093 9.11645L10.5176 9.12014C10.469 9.18591 10.4412 9.26643 10.4412 9.35964Z" fill="#AD1619"/>
<path d="M3.70198 7.75L3.9086 7.79274V8.1007C3.68854 8.27629 3.12988 8.57223 3.12988 8.57223V7.75H3.70198Z" fill="#F1F9FF"/>
<path d="M10.1967 7.75L9.99009 7.79274V8.1007C10.2101 8.27629 10.7688 8.57223 10.7688 8.57223V7.75H10.1967Z" fill="#F1F9FF"/>
<path fill-rule="evenodd" clip-rule="evenodd" d="M9.23497 4.50361V4.40112C8.87492 4.14272 8.49787 4.01352 8.10382 4.01352C7.72606 3.84635 7.34369 3.78145 6.95671 3.81885C6.95681 3.81765 6.95687 3.81704 6.95687 3.81704C6.37501 3.76011 5.78861 4.01352 5.78861 4.01352C5.19755 4.01352 4.65747 4.40112 4.65747 4.40112V4.50361L5.36349 5.21269C5.36349 5.21269 5.56222 5.89519 6.95399 5.73479V5.73652C6.95399 5.73652 7.87546 5.71137 7.94021 5.68983C7.9659 5.68129 7.99254 5.67351 8.01977 5.66556C8.20026 5.61287 8.4063 5.55271 8.52895 5.21269L9.23497 4.50361ZM6.95399 3.8502C6.9339 4.08628 6.81917 5.50936 6.95399 5.72999V3.8502Z" fill="#AD1619"/>
<path fill-rule="evenodd" clip-rule="evenodd" d="M5.19593 5.09358L5.1964 5.09142L4.69971 4.62412L4.74767 4.57313L5.21375 5.01163L5.22568 4.95678C5.30193 4.97336 5.35766 4.97945 5.39014 4.976V4.88088L5.49346 4.93679C5.54428 4.96429 5.61706 4.97168 5.71291 4.95609C5.78331 4.94463 5.83081 4.86287 5.84635 4.68864L5.87771 4.33691L5.98289 4.67401C6.03049 4.82654 6.10311 4.89378 6.20648 4.89378C6.30745 4.89378 6.34803 4.85677 6.35251 4.76347L6.36522 4.49886L6.48488 4.73521C6.52799 4.82035 6.58744 4.85899 6.67198 4.85899C6.79288 4.85899 6.87365 4.75819 6.87365 4.60004H6.87593H7.01365H7.01593C7.01593 4.75819 7.0967 4.85899 7.2176 4.85899C7.30214 4.85899 7.36159 4.82035 7.4047 4.73521L7.52437 4.49886L7.53707 4.76347C7.54155 4.85677 7.58214 4.89378 7.6831 4.89378C7.78648 4.89378 7.85909 4.82654 7.90669 4.67401L8.01187 4.33691L8.04323 4.68864C8.05877 4.86287 8.10627 4.94463 8.17667 4.95609C8.27253 4.97168 8.3453 4.96429 8.39612 4.93679L8.49944 4.88088V4.976C8.53192 4.97945 8.58765 4.97336 8.6639 4.95678L8.68604 5.05857L9.202 4.57313L9.24996 4.62412L8.6079 5.22819C8.51422 5.40071 8.46705 5.51458 8.46705 5.56188C8.46705 5.63404 8.27931 5.67687 7.9129 5.72086C7.62584 5.75533 7.28707 5.77846 7.00996 5.78192V5.78237L6.97484 5.78225L6.93971 5.78237V5.78192C6.6626 5.77846 6.32383 5.75533 6.03678 5.72086C5.67036 5.67687 5.48262 5.63404 5.48262 5.56188C5.48262 5.55293 5.48093 5.5416 5.47756 5.52794C5.44061 5.48089 5.41463 5.40391 5.39735 5.33447C5.38113 5.302 5.3626 5.26655 5.34177 5.22819L5.19952 5.09436L5.19593 5.09358ZM8.63684 5.10485C8.5222 5.12514 8.43941 5.12309 8.39549 5.08733C8.32679 5.10732 8.2462 5.10924 8.15419 5.09427C8.05592 5.07828 7.98748 5.01291 7.9463 4.90447C7.89254 4.97296 7.82456 5.01525 7.74314 5.02892C8.19109 5.09245 8.50488 5.18174 8.50488 5.18174C8.50488 5.18174 8.49714 5.24808 8.47832 5.32608C8.49824 5.28525 8.52182 5.23988 8.54909 5.1898L8.55585 5.18105L8.63684 5.10485ZM7.53176 5.00231C7.4928 4.98295 7.46169 4.95488 7.4392 4.91871C7.4058 4.9482 7.36782 4.96977 7.32563 4.98308C7.39606 4.98847 7.46493 4.99498 7.53176 5.00231ZM7.07851 4.96946C7.02398 4.94426 6.97865 4.90391 6.94479 4.85221C6.91117 4.90355 6.86624 4.94369 6.81222 4.96893C6.84422 4.96797 6.87641 4.9673 6.90874 4.96694V4.96662L6.93681 4.9667L6.96488 4.96662V4.96694C7.00298 4.96737 7.04088 4.96822 7.07851 4.96946ZM5.38873 5.17626L5.32346 5.11486C5.40181 5.12263 5.4598 5.11525 5.49409 5.08733C5.5628 5.10732 5.64338 5.10924 5.73539 5.09427C5.83367 5.07828 5.9021 5.01291 5.94328 4.90447C5.99549 4.97098 6.06109 5.01277 6.1394 5.02766C5.75318 5.08192 5.46503 5.15575 5.38873 5.17626ZM6.56091 4.98211C6.4931 4.98715 6.42669 4.99324 6.36213 5.00012C6.39908 4.98086 6.42873 4.95354 6.45038 4.91871C6.48298 4.94749 6.51994 4.96873 6.56091 4.98211ZM8.283 5.56325C8.33205 5.5862 8.37137 5.5633 8.40245 5.51936C8.39976 5.53149 8.39807 5.54247 8.3974 5.5523C8.39329 5.55498 8.387 5.55822 8.37874 5.56169C8.35568 5.57139 8.32046 5.58171 8.27465 5.59216C8.18461 5.6127 8.05645 5.63313 7.90455 5.65136C7.60793 5.68698 7.25523 5.71041 6.97484 5.71225C6.69444 5.71041 6.34174 5.68698 6.04512 5.65136C5.89323 5.63313 5.76506 5.6127 5.67502 5.59216C5.63662 5.5834 5.60567 5.57473 5.58308 5.56644C5.58556 5.5655 5.58807 5.56443 5.59061 5.56325C5.74353 5.49169 6.75471 5.42455 6.93681 5.41296C7.11891 5.42455 8.13009 5.49169 8.283 5.56325ZM8.47584 5.55042L8.47478 5.55165L8.47542 5.55076L8.47584 5.55042Z" fill="#C88A02"/>
<path fill-rule="evenodd" clip-rule="evenodd" d="M6.94511 3.34187C7.06109 3.34187 7.15511 3.24785 7.15511 3.13187C7.15511 3.0159 7.06109 2.92188 6.94511 2.92188C6.82913 2.92188 6.73511 3.0159 6.73511 3.13187C6.73511 3.24785 6.82913 3.34187 6.94511 3.34187Z" fill="#005BBF"/>
<path fill-rule="evenodd" clip-rule="evenodd" d="M6.80857 4.37318C6.81305 4.39622 6.82004 4.41768 6.82889 4.4368C6.80176 4.42644 6.76956 4.42044 6.73503 4.42044C6.63838 4.42044 6.56003 4.46745 6.56003 4.52544C6.56003 4.58343 6.63838 4.63044 6.73503 4.63044C6.83168 4.63044 6.91003 4.58343 6.91003 4.52544C6.91003 4.58343 6.98838 4.63044 7.08503 4.63044C7.18168 4.63044 7.26003 4.58343 7.26003 4.52544C7.26003 4.46745 7.18168 4.42044 7.08503 4.42044C7.0607 4.42044 7.03753 4.42342 7.01648 4.4288C7.02155 4.4001 7.02133 4.36718 7.01471 4.33311C6.99627 4.23823 6.93517 4.17029 6.87825 4.18136C6.82132 4.19242 6.79012 4.2783 6.80857 4.37318ZM6.91003 4.52544L6.90995 4.52224L6.91011 4.52229L6.91003 4.52544ZM5.77889 4.5068C5.77004 4.48768 5.76305 4.46622 5.75857 4.44318C5.74012 4.3483 5.77132 4.26242 5.82825 4.25136C5.88517 4.24029 5.94627 4.30823 5.96471 4.40311C5.97133 4.43718 5.97155 4.4701 5.96648 4.4988C5.98753 4.49342 6.0107 4.49044 6.03503 4.49044C6.13168 4.49044 6.21003 4.53745 6.21003 4.59544C6.21003 4.65343 6.13168 4.70044 6.03503 4.70044C5.93838 4.70044 5.86003 4.65343 5.86003 4.59544L5.86011 4.59229L5.85995 4.59224L5.86003 4.59544C5.86003 4.65343 5.78168 4.70044 5.68503 4.70044C5.58838 4.70044 5.51003 4.65343 5.51003 4.59544C5.51003 4.53745 5.58838 4.49044 5.68503 4.49044C5.71956 4.49044 5.75176 4.49644 5.77889 4.5068ZM7.97124 4.57079C7.96316 4.62822 7.87903 4.66387 7.78333 4.65041C7.68762 4.63696 7.61657 4.57951 7.62464 4.52208C7.63271 4.46465 7.71684 4.42901 7.81255 4.44246C7.84675 4.44726 7.8778 4.45769 7.90322 4.47172C7.89712 4.45156 7.89318 4.42933 7.89195 4.40589C7.88689 4.30937 7.92974 4.22867 7.98765 4.22563C8.04556 4.2226 8.09661 4.29838 8.10166 4.3949C8.10348 4.42956 8.09912 4.46219 8.0901 4.48991C8.11169 4.48751 8.13505 4.48778 8.15915 4.49117C8.25485 4.50462 8.3259 4.56208 8.31783 4.6195C8.30976 4.67693 8.22563 4.71258 8.12992 4.69912C8.03421 4.68567 7.96316 4.62822 7.97124 4.57079ZM7.97124 4.57079L7.9716 4.56761L7.97175 4.56768L7.97124 4.57079ZM8.63775 4.84845C8.72308 4.89382 8.81433 4.8891 8.84156 4.8379L8.84299 4.83503C8.8514 4.84393 8.86135 4.85041 8.8727 4.85388C8.92816 4.87083 8.99602 4.80965 9.02428 4.71722C9.05254 4.62479 9.03049 4.53612 8.97503 4.51917C8.91957 4.50221 8.85171 4.5634 8.82345 4.65582C8.81659 4.67828 8.81269 4.70051 8.81152 4.72154C8.79244 4.69966 8.76683 4.67925 8.73633 4.66303C8.651 4.61766 8.55975 4.62238 8.53252 4.67358C8.5053 4.72479 8.55241 4.80308 8.63775 4.84845ZM5.20304 4.86989C5.1177 4.91527 5.02645 4.91054 4.99923 4.85934C4.99873 4.8584 4.99825 4.85744 4.9978 4.85647C4.98939 4.86537 4.97944 4.87185 4.96808 4.87532C4.91263 4.89227 4.84477 4.83109 4.81651 4.73866C4.78825 4.64624 4.8103 4.55757 4.86575 4.54061C4.92121 4.52366 4.98907 4.58484 5.01733 4.67727C5.0242 4.69972 5.02809 4.72195 5.02926 4.74299C5.04834 4.7211 5.07396 4.70069 5.10445 4.68447C5.18979 4.6391 5.28104 4.64382 5.30826 4.69503C5.33549 4.74623 5.28838 4.82452 5.20304 4.86989Z" fill="#C88A02"/>
<path fill-rule="evenodd" clip-rule="evenodd" d="M6.86679 2.54785H7.01262V2.63998H7.10791V2.78581H7.01262V3.07748H7.10791V3.22331H6.77002V3.07748H6.86679V2.78581H6.77002V2.63998H6.86679V2.54785Z" fill="#C88A02"/>
<rect x="6.84009" y="3.33984" width="0.28" height="0.91" fill="#C88A02"/>
<path d="M5.71286 3.49259L5.71164 3.56258C5.09095 3.55174 4.73492 3.64232 4.64454 3.82285C4.5511 4.0095 4.56848 4.23638 4.6994 4.5059L4.63644 4.53649C4.49675 4.24893 4.47767 3.99981 4.58194 3.79152C4.68928 3.57712 5.06591 3.4813 5.71286 3.49259Z" fill="white"/>
<path d="M5.83295 4.11321L5.79706 4.17332C5.66189 4.09261 5.59424 3.95487 5.59424 3.76506C5.59424 3.49226 5.73477 3.33229 6.04561 3.22281C6.244 3.15295 6.51501 3.18159 6.85939 3.30645L6.83553 3.37226C6.50493 3.2524 6.24912 3.22536 6.06886 3.28884C5.78375 3.38925 5.66424 3.5253 5.66424 3.76506C5.66424 3.93163 5.72043 4.04603 5.83295 4.11321Z" fill="white"/>
<path d="M4.78763 4.39857L4.65554 4.44497C4.51849 4.05475 4.55763 3.78974 4.79181 3.67543C4.99816 3.5747 5.2989 3.5337 5.69553 3.54977L5.68986 3.68966C5.31434 3.67444 5.03496 3.71252 4.85322 3.80124C4.69932 3.87636 4.67117 4.06698 4.78763 4.39857Z" fill="#C88A02"/>
<path d="M6.33082 3.39928C6.01074 3.39928 5.87929 3.47724 5.8042 3.70742C5.75634 3.8541 5.80275 3.9793 5.95325 4.09617L5.86738 4.20674C5.67254 4.05544 5.60385 3.87014 5.6711 3.66399C5.7668 3.37065 5.95459 3.25928 6.33082 3.25928C6.57742 3.25928 6.76952 3.32406 6.90327 3.45591L6.92413 3.47648V4.15145H6.78413V3.53631C6.67967 3.44558 6.52962 3.39928 6.33082 3.39928Z" fill="#C88A02"/>
<path d="M8.15555 3.56241L8.15677 3.6324C8.77746 3.62157 9.13349 3.71215 9.22387 3.89268C9.31731 4.07932 9.29993 4.30621 9.16901 4.57573L9.23197 4.60631C9.37166 4.31875 9.39074 4.06963 9.28646 3.86134C9.17913 3.64694 8.80249 3.55112 8.15555 3.56241Z" fill="white"/>
<path d="M7.93634 4.12786L7.97223 4.18796C8.1074 4.10726 8.17505 3.96952 8.17505 3.77971C8.17505 3.50691 8.03452 3.34694 7.72368 3.23746C7.52529 3.16759 7.25428 3.19624 6.9099 3.3211L6.93375 3.38691C7.26436 3.26705 7.52017 3.24001 7.70042 3.30349C7.98554 3.4039 8.10505 3.53995 8.10505 3.77971C8.10505 3.94628 8.04886 4.06068 7.93634 4.12786Z" fill="white"/>
<path d="M9.12448 4.4684L9.25657 4.51479C9.39362 4.12457 9.35448 3.85957 9.1203 3.74525C8.91394 3.64452 8.61321 3.60353 8.21658 3.6196L8.22225 3.75948C8.59777 3.74427 8.87715 3.78235 9.05889 3.87106C9.21279 3.94619 9.24094 4.13681 9.12448 4.4684Z" fill="#C88A02"/>
<path d="M7.57323 3.41002C7.89332 3.41002 8.02476 3.48798 8.09986 3.71816C8.14771 3.86485 8.1013 3.99004 7.95081 4.10691L8.03667 4.21748C8.23151 4.06618 8.30021 3.88088 8.23295 3.67474C8.13725 3.38139 7.94947 3.27002 7.57323 3.27002C7.32663 3.27002 7.13454 3.33481 7.00078 3.46666L6.97992 3.48722V4.1622H7.11992V3.54706C7.22439 3.45632 7.37444 3.41002 7.57323 3.41002Z" fill="#C88A02"/>
<path opacity="0.3" fill-rule="evenodd" clip-rule="evenodd" d="M4.66992 5.79004H9.21992V9.87806C9.21992 9.87806 8.88194 11.25 6.94492 11.25C5.00791 11.25 4.66992 9.84188 4.66992 9.84188V5.79004Z" fill="#E1E5E8"/>
<mask id="mask3_85465_12981" style="mask-type:luminance" maskUnits="userSpaceOnUse" x="4" y="5" width="6" height="7">
<path fill-rule="evenodd" clip-rule="evenodd" d="M4.66992 5.79004H9.21992V9.87806C9.21992 9.87806 8.88194 11.25 6.94492 11.25C5.00791 11.25 4.66992 9.84188 4.66992 9.84188V5.79004Z" fill="white"/>
</mask>
<g mask="url(#mask3_85465_12981)">
<rect x="4.66992" y="8.31006" width="2.31" height="2.73" fill="#FFC034"/>
<rect x="4.94995" y="8.4502" width="0.28" height="2.59" fill="#AD1619"/>
<rect x="5.92993" y="8.4502" width="0.28" height="2.59" fill="#AD1619"/>
<rect x="5.43994" y="8.4502" width="0.28" height="2.59" fill="#AD1619"/>
<rect x="6.41992" y="8.4502" width="0.28" height="2.59" fill="#AD1619"/>
<rect x="4.66992" y="5.72021" width="2.31" height="2.66" fill="#AD1619"/>
<rect x="6.90991" y="8.24023" width="2.31" height="2.66" fill="#AD1619"/>
<rect x="6.90991" y="5.79004" width="2.45" height="2.59" fill="#F1F9FF"/>
<path fill-rule="evenodd" clip-rule="evenodd" d="M5.64991 6H5.85991V6.58074H5.99991V6.29037H6.20991V6.58074H6.41991V6.9437H6.20991V7.59704H6.41991V7.96H5.15991V7.59704H5.36991V6.9437H5.15991V6.58074H5.29991V6.29037H5.50991V6.58074H5.64991V6Z" fill="#C88A02"/>
<path d="M8.11157 6.12172L8.25493 5.96826L8.55589 6.2494L8.41253 6.40286L8.11157 6.12172Z" fill="#C88A02"/>
<path fill-rule="evenodd" clip-rule="evenodd" d="M8.97485 10.0877V8.55518H7.22485V10.0749L7.22763 10.0867C7.31622 10.4642 7.6179 10.6552 8.09985 10.6552C8.58134 10.6552 8.88298 10.4691 8.97193 10.0998L8.97485 10.0877ZM8.09985 10.4452C7.71316 10.4452 7.50199 10.3149 7.43485 10.0501V8.76518H8.76485V10.0623C8.69789 10.3184 8.4867 10.4452 8.09985 10.4452Z" fill="#FFC034"/>
<path fill-rule="evenodd" clip-rule="evenodd" d="M8.17217 8.68311H8.02634V9.3779L7.45145 8.75264L7.34839 8.84739L7.86829 9.41285H7.39723V9.62285H7.75909H7.87975L7.34839 10.2008L7.45145 10.2955L8.02634 9.67027V10.4824H8.17217V9.74335L8.67986 10.2955L8.78292 10.2008L8.25156 9.62285H8.84466V9.41285H8.26302L8.78292 8.84739L8.67986 8.75264L8.17217 9.30481V8.68311Z" fill="#FFC034"/>
<path fill-rule="evenodd" clip-rule="evenodd" d="M8.42672 10.9017C8.42672 10.9017 6.9441 11.0182 6.9441 10.062C6.9441 10.062 6.92996 10.9017 5.38184 10.9017V11.6566H8.42672V10.9017Z" fill="#F1F9FF"/>
<path fill-rule="evenodd" clip-rule="evenodd" d="M6.94492 8.87C7.23487 8.87 7.46992 8.61928 7.46992 8.31C7.46992 8.00072 7.23487 7.75 6.94492 7.75C6.65497 7.75 6.41992 8.00072 6.41992 8.31C6.41992 8.61928 6.65497 8.87 6.94492 8.87Z" fill="#005BBF" stroke="#AD1619" stroke-width="0.729167"/>
</g>
</g>
</g>
<rect x="0.5" y="0.5" width="19" height="14" rx="0.5" stroke="black" stroke-opacity="0.1"/>
<defs>
<clipPath id="clip0_85465_12981">
<rect width="20" height="15" rx="1" fill="white"/>
</clipPath>
</defs>
</svg>
