<svg width="20" height="15" viewBox="0 0 20 15" fill="none" xmlns="http://www.w3.org/2000/svg">
<g clip-path="url(#clip0_85465_13124)">
<rect width="20" height="15" rx="1" fill="white"/>
<path fill-rule="evenodd" clip-rule="evenodd" d="M0 0V15H20V0H0Z" fill="#67BFE5"/>
<g clip-path="url(#clip1_85465_13124)">
<rect width="11" height="9" fill="#2E42A5"/>
<path d="M-1.25269 8.1247L1.22291 9.21045L11.3062 1.18028L12.612 -0.433182L9.96468 -0.796071L5.85197 2.66436L2.54165 4.99588L-1.25269 8.1247Z" fill="#F7FCFF"/>
<path d="M-0.913818 8.88555L0.347383 9.51562L12.143 -0.582947H10.3721L-0.913818 8.88555Z" fill="#F50100"/>
<path d="M12.5027 8.1248L10.3056 9.52051L-0.0561562 1.18038L-1.36198 -0.433076L1.28532 -0.795966L5.39803 2.66447L8.70835 4.99599L12.5027 8.1248Z" fill="#F7FCFF"/>
<path d="M12.4182 8.6707L11.157 9.30078L6.13431 4.97706L4.64518 4.49398L-1.48763 -0.427604H0.283246L6.41261 4.37716L8.04071 4.95642L12.4182 8.6707Z" fill="#F50100"/>
<path fill-rule="evenodd" clip-rule="evenodd" d="M6 0H5V4H0V5H5V9H6V5H11V4H6V0Z" fill="#F50100"/>
<path fill-rule="evenodd" clip-rule="evenodd" d="M4.0625 0H6.9375V3.0625L11 3V5.875L6.9375 5.9375V9H4.0625V5.9375L0 5.875V3L4.0625 3.0625V0ZM5 4H0V5H5V9H6V5H11V4H6V0H5V4Z" fill="#F7FCFF"/>
</g>
<path fill-rule="evenodd" clip-rule="evenodd" d="M12.5 6.25H18.5345V11.4583C18.5345 11.4583 18.0284 13.75 15.5172 13.75C13.006 13.75 12.5 11.4583 12.5 11.4583V6.25Z" fill="#F7FCFF"/>
<mask id="mask0_85465_13124" style="mask-type:luminance" maskUnits="userSpaceOnUse" x="12" y="6" width="7" height="8">
<path fill-rule="evenodd" clip-rule="evenodd" d="M12.5 6.25H18.5345V11.4583C18.5345 11.4583 18.0284 13.75 15.5172 13.75C13.006 13.75 12.5 11.4583 12.5 11.4583V6.25Z" fill="white"/>
</mask>
<g mask="url(#mask0_85465_13124)">
<rect x="12.5" y="6.25" width="6.03448" height="1.875" fill="#C3352C"/>
<rect x="15.0862" y="7.9165" width="0.862069" height="5.83333" fill="#C3352C"/>
<path fill-rule="evenodd" clip-rule="evenodd" d="M12.5 10.2085H18.5345V11.0418H12.5V10.2085Z" fill="#C3352C"/>
<path fill-rule="evenodd" clip-rule="evenodd" d="M14.0878 12.9604C14.4507 13.4733 14.7463 13.6736 14.9553 13.3713C15.1022 13.1589 15.1174 12.9464 14.9081 12.9048C14.7867 12.7506 14.701 12.6303 14.6521 12.5463L14.6592 12.5397C14.7179 12.4826 14.72 12.4066 14.7085 12.3782C14.7041 12.3394 14.7332 12.2866 14.9217 12.1424C15.0925 12.0119 15.1683 11.8889 15.0564 11.7535C14.9975 11.6823 14.9446 11.6681 14.7778 11.6423L14.7266 11.6343C14.6772 11.6264 14.6413 11.6186 14.6187 11.6118L14.5027 11.3895C14.2605 11.3821 14.0712 11.4248 13.8641 11.5122C13.7749 11.5499 13.7148 11.5755 13.6747 11.5926L13.6747 11.5926L13.6747 11.5926C13.6136 11.6186 13.5989 11.6248 13.5984 11.6239C13.5983 11.6236 13.5996 11.6226 13.6013 11.6212C13.6061 11.6174 13.6141 11.6111 13.6025 11.6111C13.5588 11.6111 13.5115 11.6062 13.3803 11.5895L13.3546 11.5863C12.9773 11.5389 12.8829 11.5404 12.8217 11.716C12.7287 11.9832 13.2793 12.4729 13.5717 12.5317C13.7181 12.5612 13.8933 12.7014 14.0878 12.9604ZM14.498 12.5926C14.5334 12.5926 14.5608 12.5912 14.5849 12.5847L14.5922 12.5686C14.5726 12.582 14.543 12.5926 14.498 12.5926ZM13.1213 11.8549C13.1136 11.8458 13.1115 11.8341 13.1169 11.8187C13.1158 11.8219 13.1193 11.8287 13.1266 11.8385C13.1338 11.8481 13.1448 11.8604 13.1586 11.8749C13.1419 11.87 13.1289 11.8637 13.1213 11.8549ZM13.6333 12.2254C13.5285 12.2043 13.2621 11.9826 13.1586 11.8749C13.1857 11.8826 13.2227 11.8864 13.2625 11.8905L13.2625 11.8905C13.2799 11.8923 13.2978 11.8941 13.3156 11.8963L13.3409 11.8995C13.4883 11.9183 13.5398 11.9236 13.6025 11.9236C13.6386 11.9236 13.6312 11.9361 13.6266 11.9436C13.6252 11.946 13.6241 11.9478 13.6246 11.9487C13.6268 11.9523 13.6552 11.9402 13.7977 11.8797L13.7977 11.8797L13.9857 11.8001C14.0963 11.7534 14.1974 11.7231 14.3082 11.7095C14.3205 11.7619 14.3509 11.8092 14.4005 11.8477C14.4671 11.8993 14.5423 11.921 14.6715 11.942C14.5108 12.0742 14.4302 12.1849 14.4047 12.2927C14.2602 12.3385 14.2733 12.5014 14.3601 12.6642C14.4205 12.7777 14.5347 12.9385 14.7048 13.1513L14.8268 13.21C14.7908 13.21 14.7707 13.1935 14.7554 13.181C14.7361 13.1652 14.7245 13.1556 14.6983 13.1936C14.6965 13.1961 14.5828 13.1191 14.3403 12.7764C14.1016 12.4582 13.87 12.273 13.6333 12.2254ZM14.3954 12.4126C14.3976 12.4108 14.3974 12.4084 14.3972 12.4059L14.3972 12.4059L14.3954 12.4126ZM14.4954 12.2802L14.486 12.2803L14.4904 12.2806C14.4921 12.2803 14.4937 12.2802 14.4954 12.2802ZM14.498 12.2801C14.4971 12.2801 14.4962 12.2801 14.4954 12.2802L14.498 12.2801Z" fill="#979797"/>
<path d="M13.5343 10.0688C13.5343 10.0688 13.2361 9.65634 13.2361 9.50928" stroke="#964C36" stroke-width="0.625"/>
<path d="M13.3493 9.71422C13.3493 9.71422 12.968 9.5514 12.968 9.71422" stroke="#2A8E51" stroke-width="0.625"/>
<path d="M13.3429 9.5428C13.3429 9.5428 13.0748 9.20166 12.8732 9.20166C12.6716 9.20166 12.6764 9.37223 12.6764 9.37223" stroke="#2A8E51" stroke-width="0.625"/>
<path d="M13.19 9.20104C13.19 9.20104 13.0703 8.64307 12.8786 8.64307C12.687 8.64307 12.687 8.92205 12.687 8.92205" stroke="#2A8E51" stroke-width="0.625"/>
<path d="M13.2383 9.19987C13.2383 9.19987 13.1849 8.72168 13.4316 8.72168" stroke="#2A8E51" stroke-width="0.625"/>
<path d="M13.9133 9.98816C13.9133 9.98816 13.7742 9.49854 13.8245 9.36035" stroke="#964C36" stroke-width="0.625"/>
<path d="M13.8604 9.59166C13.8604 9.59166 13.5579 9.30826 13.5022 9.46127" stroke="#2A8E51" stroke-width="0.625"/>
<path d="M13.9131 9.42846C13.9131 9.42846 13.7778 9.01618 13.5883 8.94723C13.3989 8.87827 13.3451 9.0402 13.3451 9.0402" stroke="#2A8E51" stroke-width="0.625"/>
<path d="M13.8863 9.05474C13.8863 9.05474 13.9647 8.48949 13.7846 8.42394C13.6045 8.3584 13.5091 8.62056 13.5091 8.62056" stroke="#2A8E51" stroke-width="0.625"/>
<path d="M13.9323 9.07028C13.9323 9.07028 14.0457 8.60267 14.2775 8.68706" stroke="#2A8E51" stroke-width="0.625"/>
<path d="M14.2201 10.1626C14.2201 10.1626 14.4178 9.69358 14.3848 9.55029" stroke="#964C36" stroke-width="0.5"/>
<path d="M14.3207 9.77544C14.3207 9.77544 14.6555 9.53103 14.6921 9.68968" stroke="#2A8E51" stroke-width="0.5"/>
<path d="M14.2882 9.60736C14.2882 9.60736 14.4728 9.21464 14.6692 9.16929C14.8657 9.12394 14.8993 9.29122 14.8993 9.29122" stroke="#2A8E51" stroke-width="0.5"/>
<path d="M14.3603 9.23982C14.3603 9.23982 14.3514 8.66923 14.5381 8.62612C14.7249 8.58301 14.7876 8.85485 14.7876 8.85485" stroke="#2A8E51" stroke-width="0.5"/>
<path d="M14.3129 9.24981C14.3129 9.24981 14.2574 8.77187 14.0169 8.82737" stroke="#2A8E51" stroke-width="0.5"/>
<path d="M16.6863 9.87609C16.6863 9.87609 16.8375 9.18018 17.2679 9.18018C17.6983 9.18018 17.8909 9.91543 17.8909 9.91543" stroke="#2A8E51" stroke-width="0.5"/>
<path d="M16.3308 9.40098C16.3308 9.40098 16.5626 8.98992 17.3275 9.02354C18.0924 9.05715 18.2318 9.40098 18.2318 9.40098" stroke="#2A8E51" stroke-width="0.5"/>
<path d="M16.1763 8.87839C16.1763 8.87839 16.5964 8.35795 17.1853 8.79909L17.3848 8.87839C17.3848 8.87839 17.5848 8.2886 18.5513 8.87839" stroke="#2A8E51" stroke-width="0.5"/>
<path d="M17.3365 10.0233C17.3365 10.0233 17.3672 9.37372 17.4702 9.19531" stroke="#964C36" stroke-width="0.625"/>
<path d="M18.1867 11.4463C18.1867 11.4463 17.8004 11.2646 17.6848 11.4463C17.5692 11.628 16.1768 13.2975 16.1768 13.2975" stroke="#964C36" stroke-width="0.625"/>
<path fill-rule="evenodd" clip-rule="evenodd" d="M16.8528 11.6219L17.7158 12.2252C17.7158 12.2252 18.113 11.9418 17.9144 11.7819C17.7158 11.6219 17.1747 11.3398 17.1747 11.3398L16.8528 11.6219Z" fill="#FFF203"/>
<path fill-rule="evenodd" clip-rule="evenodd" d="M16.823 11.6528C16.823 11.6528 16.623 11.8621 16.623 12.0221C16.623 12.1821 16.437 12.6109 16.437 12.6109C16.437 12.6109 16.9573 12.9312 17.0653 12.7272C17.1733 12.5232 17.8749 12.6453 17.7512 12.3337C17.6274 12.0221 16.823 11.6528 16.823 11.6528Z" fill="#00A651"/>
<path fill-rule="evenodd" clip-rule="evenodd" d="M13.1603 6.98877C13.1603 6.98877 13.6211 6.75231 13.8492 6.98877C14.0773 7.22523 14.2642 6.96918 14.2642 6.82654C14.2642 6.6839 14.6264 6.19424 14.6264 6.5915C14.6264 6.98877 14.5137 7.21308 14.832 7.21308C15.1504 7.21308 16.584 6.66431 16.9277 6.82654C17.2715 6.98877 17.5346 6.94843 17.4472 6.71565C17.3598 6.48288 17.1352 6.33739 16.7027 6.46445C16.2703 6.5915 16.3723 6.71565 15.9986 6.71565C15.6248 6.71565 15.2088 6.5915 15.2088 6.5915C15.2088 6.5915 15.3256 6.38276 15.7524 6.53124C16.1791 6.67973 16.7677 6.34735 16.9277 6.34735C17.0878 6.34735 17.5284 6.33739 17.572 6.46445C17.6157 6.5915 17.8817 6.70809 17.679 6.82654C17.4762 6.94499 17.1418 7.01919 17.3719 7.17094C17.6019 7.3227 18.131 7.29345 18.1565 7.45131C18.182 7.60917 18.4327 7.84489 18.3321 7.84489C18.2314 7.84489 18.0496 8.06721 17.8802 7.99952C17.7109 7.93183 17.691 7.87239 17.8534 7.81755C18.0157 7.76271 18.0142 7.5321 17.8802 7.5321C17.7463 7.5321 17.8117 7.6129 17.5067 7.5321C17.2018 7.45131 16.7982 7.36149 16.8224 7.5321C16.8467 7.70272 17.0452 7.96461 16.6789 7.99952C16.3126 8.03442 16.1411 8.17456 16.0699 8.06171C15.9986 7.94886 15.7437 7.79848 15.9441 7.75026C16.1445 7.70205 16.336 7.91416 16.4082 7.87953C16.4803 7.84489 16.6439 7.82561 16.5069 7.67886C16.3699 7.5321 16.144 7.44571 16.3534 7.33586C16.5628 7.22602 16.3976 7.22376 15.9986 7.45131C15.5995 7.67886 15.3776 7.87224 15.0273 7.84489C14.6769 7.81755 14.5457 7.85444 14.4331 7.81755C14.3205 7.78067 13.7722 8.2251 13.6142 8.11231C13.4563 7.99952 12.9465 7.95624 13.0383 7.81755C13.1301 7.67886 13.2533 7.60745 13.3905 7.67886C13.5278 7.75026 13.6641 7.82167 13.7567 7.75026C13.8492 7.67886 14.1165 7.43384 14.0492 7.38485C13.982 7.33586 14.047 7.17094 13.6664 7.17094C13.2858 7.17094 13.152 7.35474 13.0616 7.23893C12.9713 7.12313 13.1603 6.98877 13.1603 6.98877Z" fill="#FFD100"/>
</g>
</g>
<rect x="0.5" y="0.5" width="19" height="14" rx="0.5" stroke="black" stroke-opacity="0.1"/>
<defs>
<clipPath id="clip0_85465_13124">
<rect width="20" height="15" rx="1" fill="white"/>
</clipPath>
<clipPath id="clip1_85465_13124">
<rect width="11" height="9" fill="white"/>
</clipPath>
</defs>
</svg>
