<svg width="20" height="15" viewBox="0 0 20 15" fill="none" xmlns="http://www.w3.org/2000/svg">
    <g clip-path="url(#clip0_85465_13242)">
    <rect width="20" height="15" rx="1" fill="white"/>
    <path fill-rule="evenodd" clip-rule="evenodd" d="M0 0V15H20V0H0Z" fill="#2E42A5"/>
    <mask id="mask0_85465_13242" style="mask-type:luminance" maskUnits="userSpaceOnUse" x="0" y="0" width="20" height="15">
    <path fill-rule="evenodd" clip-rule="evenodd" d="M0 0V15H20V0H0Z" fill="white"/>
    </mask>
    <g mask="url(#mask0_85465_13242)">
    <path d="M-2.22693 13.9283L2.17413 15.7896L20.0999 2.02354L22.4214 -0.742388L17.7151 -1.36448L10.4036 4.56768L4.51856 8.56458L-2.22693 13.9283Z" fill="white"/>
    <path d="M-1.62439 15.2324L0.617745 16.3125L21.5878 -0.999338H18.4395L-1.62439 15.2324Z" fill="#F50100"/>
    <path d="M22.2271 13.9283L17.826 15.7896L-0.0997791 2.02354L-2.42124 -0.742388L2.28506 -1.36448L9.59656 4.56768L15.4816 8.56458L22.2271 13.9283Z" fill="white"/>
    <path d="M22.0769 14.8642L19.8348 15.9443L10.9055 8.53224L8.25819 7.7041L-2.64459 -0.732895H0.503632L11.4003 7.50384L14.2947 8.49687L22.0769 14.8642Z" fill="#F50100"/>
    <mask id="path-9-inside-1_85465_13242" fill="white">
    <path fill-rule="evenodd" clip-rule="evenodd" d="M12.3611 -1.25H7.63889V5H-1.23279V10H7.63889V16.25H12.3611V10H21.2672V5H12.3611V-1.25Z"/>
    </mask>
    <path fill-rule="evenodd" clip-rule="evenodd" d="M12.3611 -1.25H7.63889V5H-1.23279V10H7.63889V16.25H12.3611V10H21.2672V5H12.3611V-1.25Z" fill="#F50100"/>
    <path d="M7.63889 -1.25V-2.5H6.38889V-1.25H7.63889ZM12.3611 -1.25H13.6111V-2.5H12.3611V-1.25ZM7.63889 5V6.25H8.88889V5H7.63889ZM-1.23279 5V3.75H-2.48279V5H-1.23279ZM-1.23279 10H-2.48279V11.25H-1.23279V10ZM7.63889 10H8.88889V8.75H7.63889V10ZM7.63889 16.25H6.38889V17.5H7.63889V16.25ZM12.3611 16.25V17.5H13.6111V16.25H12.3611ZM12.3611 10V8.75H11.1111V10H12.3611ZM21.2672 10V11.25H22.5172V10H21.2672ZM21.2672 5H22.5172V3.75H21.2672V5ZM12.3611 5H11.1111V6.25H12.3611V5ZM7.63889 0H12.3611V-2.5H7.63889V0ZM8.88889 5V-1.25H6.38889V5H8.88889ZM-1.23279 6.25H7.63889V3.75H-1.23279V6.25ZM0.0172119 10V5H-2.48279V10H0.0172119ZM7.63889 8.75H-1.23279V11.25H7.63889V8.75ZM8.88889 16.25V10H6.38889V16.25H8.88889ZM12.3611 15H7.63889V17.5H12.3611V15ZM11.1111 10V16.25H13.6111V10H11.1111ZM21.2672 8.75H12.3611V11.25H21.2672V8.75ZM20.0172 5V10H22.5172V5H20.0172ZM12.3611 6.25H21.2672V3.75H12.3611V6.25ZM11.1111 -1.25V5H13.6111V-1.25H11.1111Z" fill="white" mask="url(#path-9-inside-1_85465_13242)"/>
    </g>
    </g>
    <rect x="0.5" y="0.5" width="19" height="14" rx="0.5" stroke="black" stroke-opacity="0.1"/>
    <defs>
    <clipPath id="clip0_85465_13242">
    <rect width="20" height="15" rx="1" fill="white"/>
    </clipPath>
    </defs>
    </svg>
    