<svg width="20" height="15" viewBox="0 0 20 15" fill="none" xmlns="http://www.w3.org/2000/svg">
<g clip-path="url(#clip0_85465_13335)">
<rect width="20" height="15" rx="1" fill="white"/>
<rect width="20" height="15" fill="#F7FCFF"/>
<path fill-rule="evenodd" clip-rule="evenodd" d="M0 10H20V15H0V10Z" fill="#C51918"/>
<path fill-rule="evenodd" clip-rule="evenodd" d="M9.83769 2.0415H8.91663V2.95817H9.37126L9.33883 5.479H7.99558V4.33317H8.45611V3.4165H7.53505V3.87484H7.07453V3.4165H6.15348V4.33317H6.614V5.479H5.64282V6.39567L6.10335 6.39567V9.14567H5.64282V10.0623H14.3928V9.14567H13.4718V6.39567L14.3928 6.39567V5.479H13.49L13.5128 4.33317H13.9824V3.4165H13.0614V3.87484H12.6008V3.4165H11.6798V4.33317H12.1312L12.1084 5.479H10.7204L10.7528 2.95817H11.2193V2.0415H10.2982V2.49984H9.83769V2.0415Z" fill="#DB000B"/>
<path d="M7.13159 5.48026C7.13159 5.35309 7.23468 5.25 7.36185 5.25C7.48903 5.25 7.59212 5.35309 7.59212 5.48026V6.625H7.13159V5.48026Z" fill="#272727"/>
<path fill-rule="evenodd" clip-rule="evenodd" d="M6.76001 8.55651C6.76001 8.175 7.06929 7.86572 7.4508 7.86572C7.83231 7.86572 8.14159 8.175 8.14159 8.55651V9.69906H6.76001V8.55651Z" fill="#272727"/>
<path fill-rule="evenodd" clip-rule="evenodd" d="M11.8257 8.55651C11.8257 8.175 12.135 7.86572 12.5165 7.86572C12.898 7.86572 13.2073 8.175 13.2073 8.55651V9.69906H11.8257V8.55651Z" fill="#272727"/>
<path fill-rule="evenodd" clip-rule="evenodd" d="M9.0625 8.32828C9.0625 7.8196 9.47487 7.40723 9.98355 7.40723C10.4922 7.40723 10.9046 7.8196 10.9046 8.32828V10.1572H9.0625V8.32828Z" fill="#272727"/>
<path d="M9.89478 5.48026C9.89478 5.35309 9.99787 5.25 10.125 5.25C10.2522 5.25 10.3553 5.35309 10.3553 5.48026V6.625H9.89478V5.48026Z" fill="#272727"/>
<path d="M12.658 5.48026C12.658 5.35309 12.7611 5.25 12.8882 5.25C13.0154 5.25 13.1185 5.35309 13.1185 5.48026V6.625H12.658V5.48026Z" fill="#272727"/>
<path fill-rule="evenodd" clip-rule="evenodd" d="M10.3266 9.49815L10.2135 9.70562L10.0031 9.3916L8.27881 10.5472L10.2012 11.4621L11.8967 10.3534L10.3266 9.49815ZM9.53922 10.4549L10.0939 10.0831L10.6799 10.4023L10.1529 10.7469L9.53922 10.4549Z" fill="#E8AA00"/>
<path fill-rule="evenodd" clip-rule="evenodd" d="M8.97388 12.833H9.89493V13.7497H8.97388V12.833Z" fill="#E8AA00"/>
<path fill-rule="evenodd" clip-rule="evenodd" d="M9.5 11.25H10.593V13.75H9.5V11.25Z" fill="#E8AA00"/>
</g>
<rect x="0.5" y="0.5" width="19" height="14" rx="0.5" stroke="black" stroke-opacity="0.1"/>
<defs>
<clipPath id="clip0_85465_13335">
<rect width="20" height="15" rx="1" fill="white"/>
</clipPath>
</defs>
</svg>
