<svg width="20" height="15" viewBox="0 0 20 15" fill="none" xmlns="http://www.w3.org/2000/svg">
<g clip-path="url(#clip0_85465_13390)">
<rect width="20" height="15" rx="1" fill="white"/>
<path d="M0 0V5H20V0L0 0Z" fill="#002488"/>
<path d="M0.000488281 5V15H20.0005V5L0.000488281 5Z" fill="#DA121A"/>
<path d="M3.4677 0.70834C3.22692 1.10541 3.19819 1.42302 3.36252 1.97146C3.44165 2.22739 3.52856 2.60959 3.56508 2.81678C3.61377 3.10928 3.60867 3.13709 3.61551 3.20069C3.67637 3.20069 3.81469 3.20092 3.87864 3.20053C3.88784 3.09927 3.89527 2.98238 3.91687 2.82165C3.94204 2.63424 4.01671 2.24229 4.09702 1.97005C4.2575 1.42602 4.24675 1.09225 3.99721 0.714434C3.90591 0.574277 3.78419 0.458496 3.72941 0.458496C3.67463 0.458496 3.55072 0.565505 3.4677 0.70834Z" fill="#FCDD09"/>
<path d="M3.99239 2.94089C3.97171 3.04566 3.96667 3.08264 3.9563 3.20072C4.03007 3.20102 4.05907 3.20152 4.13098 3.20109C4.14672 3.12166 4.15806 3.07972 4.19276 2.96697C4.3303 2.5309 4.73541 2.35589 4.71715 2.76417C4.71107 2.8769 4.66355 2.93985 4.61065 3.00028C4.67604 2.98396 4.8149 2.91907 4.9275 2.85509C5.5544 2.47728 5.30753 1.55151 4.6502 1.83182C4.30937 1.97807 4.10437 2.38294 3.99239 2.94089Z" fill="#FCDD09"/>
<path d="M3.25757 3.36524C3.53264 3.36683 4.00805 3.36968 4.23639 3.36809C4.23666 3.29184 4.23751 3.33075 4.23807 3.26914C4.06997 3.26732 3.42625 3.27032 3.25887 3.27032C3.25925 3.31019 3.25849 3.32949 3.25757 3.36524L3.25757 3.36524Z" fill="#FCDD09"/>
<path d="M3.08423 3.85242C3.08423 3.85242 3.22125 3.86785 3.34904 3.85852C3.47683 3.84919 3.54773 3.83322 3.62325 3.79649C3.60275 3.94895 3.60157 4.09618 3.60157 4.09618C3.62016 4.29238 3.64119 4.34259 3.68368 4.43808C3.74134 4.51774 3.77487 4.51817 3.81725 4.43406C3.86306 4.33988 3.89322 4.24302 3.90279 4.09526C3.89946 3.98451 3.89328 3.93377 3.86708 3.79839C3.9555 3.8367 4.01135 3.84663 4.14326 3.85852C4.27824 3.87069 4.40231 3.86472 4.40231 3.86472C4.40231 3.86472 4.21997 3.77311 4.13972 3.66074C4.0605 3.54983 4.0774 3.56869 4.01979 3.4258C3.9498 3.42249 3.59493 3.42575 3.48233 3.42575C3.42066 3.55602 3.41446 3.58322 3.33829 3.66542C3.23913 3.77243 3.08423 3.85242 3.08423 3.85242Z" fill="#FCDD09"/>
<path d="M2.83733 1.83182C3.17817 1.97807 3.38316 2.38294 3.49514 2.94089C3.51582 3.04566 3.52087 3.08264 3.53124 3.20072C3.45746 3.20102 3.42847 3.20152 3.35655 3.20109C3.34081 3.12166 3.32947 3.07972 3.29478 2.96697C3.15723 2.5309 2.75212 2.35589 2.77038 2.76417C2.77647 2.8769 2.82399 2.93985 2.87689 3.00028C2.8115 2.98396 2.67263 2.91907 2.56003 2.85509C1.93314 2.47728 2.18 1.55151 2.83733 1.83182V1.83182Z" fill="#FCDD09"/>
<path d="M9.76775 0.70834C9.52697 1.10541 9.49824 1.42302 9.66257 1.97146C9.74169 2.22739 9.82861 2.60959 9.86513 2.81678C9.91382 3.10928 9.90872 3.13709 9.91556 3.20069C9.97642 3.20069 10.1147 3.20092 10.1787 3.20053C10.1879 3.09927 10.1953 2.98238 10.2169 2.82165C10.2421 2.63424 10.3168 2.24229 10.3971 1.97005C10.5575 1.42602 10.5468 1.09225 10.2973 0.714434C10.206 0.574277 10.0842 0.458496 10.0295 0.458496C9.97468 0.458496 9.85076 0.565505 9.76775 0.70834Z" fill="#FCDD09"/>
<path d="M10.9503 1.83182C10.6094 1.97807 10.4044 2.38294 10.2924 2.94089C10.2718 3.04566 10.2667 3.08264 10.2563 3.20072C10.3301 3.20102 10.3591 3.20152 10.431 3.20109C10.4468 3.12166 10.4581 3.07972 10.4928 2.96697C10.6304 2.5309 11.0355 2.35589 11.0172 2.76417C11.0111 2.8769 10.9636 2.93985 10.9107 3.00028C10.9761 2.98396 11.115 2.91907 11.2276 2.85509C11.8544 2.47728 11.6076 1.55151 10.9503 1.83182V1.83182Z" fill="#FCDD09"/>
<path d="M9.55762 3.36524C9.83269 3.36683 10.3081 3.36968 10.5364 3.36809C10.5367 3.29184 10.5376 3.33075 10.5381 3.26914C10.37 3.26732 9.7263 3.27032 9.55892 3.27032C9.5593 3.31019 9.55854 3.32949 9.55762 3.36524L9.55762 3.36524Z" fill="#FCDD09"/>
<path d="M9.63833 3.66542C9.53917 3.77243 9.38428 3.85242 9.38428 3.85242C9.38428 3.85242 9.5213 3.86785 9.64909 3.85852C9.77687 3.84919 9.84778 3.83322 9.9233 3.79649C9.9028 3.94895 9.90162 4.09618 9.90162 4.09618C9.9202 4.29238 9.94123 4.34259 9.98373 4.43808C10.0414 4.51774 10.0749 4.51817 10.1173 4.43406C10.1631 4.33988 10.1933 4.24302 10.2028 4.09526C10.1995 3.98451 10.1933 3.93377 10.1671 3.79839C10.2555 3.8367 10.3114 3.84663 10.4433 3.85852C10.5783 3.87069 10.7024 3.86472 10.7024 3.86472C10.7024 3.86472 10.52 3.77311 10.4398 3.66074C10.3606 3.54983 10.3774 3.56869 10.3198 3.4258C10.2499 3.42249 9.89497 3.42575 9.78238 3.42575C9.72071 3.55602 9.71451 3.58322 9.63833 3.66542V3.66542Z" fill="#FCDD09"/>
<path d="M9.13738 1.83182C9.47822 1.97807 9.68321 2.38294 9.79519 2.94089C9.81587 3.04566 9.82092 3.08264 9.83129 3.20072C9.75751 3.20102 9.72852 3.20152 9.6566 3.20109C9.64086 3.12166 9.62952 3.07972 9.59483 2.96697C9.45728 2.5309 9.05217 2.35589 9.07043 2.76417C9.07652 2.8769 9.12404 2.93985 9.17693 3.00028C9.11155 2.98396 8.97268 2.91907 8.86008 2.85509C8.23319 2.47728 8.48005 1.55151 9.13738 1.83182V1.83182Z" fill="#FCDD09"/>
<path d="M16.0676 0.70834C15.8268 1.10541 15.798 1.42302 15.9624 1.97146C16.0415 2.22739 16.1284 2.60959 16.1649 2.81678C16.2136 3.10928 16.2085 3.13709 16.2154 3.20069C16.2762 3.20069 16.4145 3.20092 16.4785 3.20053C16.4877 3.09927 16.4951 2.98238 16.5167 2.82165C16.5419 2.63424 16.6166 2.24229 16.6969 1.97005C16.8574 1.42602 16.8466 1.09225 16.5971 0.714434C16.5058 0.574277 16.384 0.458496 16.3293 0.458496C16.2745 0.458496 16.1506 0.565505 16.0676 0.70834Z" fill="#FCDD09"/>
<path d="M17.2501 1.83182C16.9092 1.97807 16.7042 2.38294 16.5922 2.94089C16.5716 3.04566 16.5665 3.08264 16.5562 3.20072C16.6299 3.20102 16.6589 3.20152 16.7308 3.20109C16.7466 3.12166 16.7579 3.07972 16.7926 2.96697C16.9302 2.5309 17.3353 2.35589 17.317 2.76417C17.3109 2.8769 17.2634 2.93985 17.2105 3.00028C17.2759 2.98396 17.4148 2.91907 17.5274 2.85509C18.1543 2.47728 17.9074 1.55151 17.2501 1.83182V1.83182Z" fill="#FCDD09"/>
<path d="M15.8574 3.36524C16.1325 3.36683 16.6079 3.36968 16.8362 3.36809C16.8365 3.29184 16.8374 3.33075 16.8379 3.26914C16.6698 3.26732 16.0261 3.27032 15.8587 3.27032C15.8591 3.31019 15.8583 3.32949 15.8574 3.36524L15.8574 3.36524Z" fill="#FCDD09"/>
<path d="M15.9381 3.66542C15.839 3.77243 15.6841 3.85242 15.6841 3.85242C15.6841 3.85242 15.8211 3.86785 15.9489 3.85852C16.0767 3.84919 16.1476 3.83322 16.2231 3.79649C16.2026 3.94895 16.2014 4.09618 16.2014 4.09618C16.22 4.29238 16.241 4.34259 16.2835 4.43808C16.3412 4.51774 16.3747 4.51817 16.4171 4.43406C16.4629 4.33988 16.4931 4.24302 16.5026 4.09526C16.4993 3.98451 16.4931 3.93377 16.4669 3.79839C16.5554 3.8367 16.6112 3.84663 16.7431 3.85852C16.8781 3.87069 17.0022 3.86472 17.0022 3.86472C17.0022 3.86472 16.8198 3.77311 16.7396 3.66074C16.6604 3.54983 16.6773 3.56869 16.6196 3.4258C16.5497 3.42249 16.1948 3.42575 16.0822 3.42575C16.0205 3.55602 16.0143 3.58322 15.9381 3.66542V3.66542Z" fill="#FCDD09"/>
<path d="M15.4372 1.83182C15.778 1.97807 15.983 2.38294 16.095 2.94089C16.1157 3.04566 16.1207 3.08264 16.1311 3.20072C16.0573 3.20102 16.0283 3.20152 15.9564 3.20109C15.9407 3.12166 15.9293 3.07972 15.8946 2.96697C15.7571 2.5309 15.352 2.35589 15.3702 2.76417C15.3763 2.8769 15.4238 2.93985 15.4767 3.00028C15.4114 2.98396 15.2725 2.91907 15.1599 2.85509C14.533 2.47728 14.7799 1.55151 15.4372 1.83182V1.83182Z" fill="#FCDD09"/>
<path d="M7.11834 8.27098C7.25048 8.33266 7.41922 8.38127 7.50431 8.38414C7.60487 8.38753 7.57818 8.36278 7.39049 8.28969C7.24357 8.23228 7.06785 8.13574 6.98986 8.07588C6.85004 7.96148 6.85004 7.96148 6.86469 8.06213C6.87306 8.11964 6.97845 8.20903 7.11834 8.27098Z" fill="#008000"/>
<path d="M6.29634 7.08178C6.38155 7.42303 6.73456 8.05068 6.85629 8.07506C6.96584 8.09334 6.96584 8.08725 6.87455 7.98365C6.72239 7.80693 6.39373 7.161 6.39373 7.03912C6.39373 6.97209 6.36329 6.92334 6.32678 6.92334C6.28417 6.92334 6.272 6.98428 6.29634 7.08178Z" fill="#008000"/>
<path d="M4.07117 8.09281C3.9677 8.17203 3.97379 8.17812 4.19898 8.14156C4.33288 8.12328 4.52765 8.08672 4.62503 8.06234C4.78327 8.01969 4.7711 8.01359 4.49722 8.0075C4.31462 8.0014 4.14421 8.03797 4.07117 8.09281Z" fill="#008000"/>
<path d="M2.55924 7.45177C3.56349 7.63458 5.57807 8.31099 5.45635 8.42677C5.42591 8.45724 4.85988 8.31708 4.78076 8.26224C4.75033 8.23177 4.4521 8.24395 4.12343 8.28661C3.50871 8.35364 3.40524 8.40849 3.41741 8.65833C3.4235 8.7802 3.4235 8.7802 3.45393 8.65833C3.50871 8.43286 3.60001 8.38411 3.94693 8.38411C4.32428 8.38411 5.35896 8.53645 5.81544 8.65833C6.42408 8.82895 6.44234 8.82895 6.24149 8.71927C5.97977 8.57302 5.58416 8.30489 5.51112 8.22567C5.37722 8.07333 2.94876 7.40302 2.59576 7.4152C2.43142 7.42739 2.42534 7.42739 2.55924 7.45177Z" fill="#008000"/>
<path d="M6.12333 8.15287C6.17202 8.23818 6.64675 8.47584 6.68327 8.43928C6.70153 8.42099 6.64675 8.37224 6.57372 8.32959C6.4946 8.28693 6.39113 8.2199 6.34852 8.17115C6.25114 8.07974 6.06855 8.06146 6.12333 8.15287Z" fill="#008000"/>
<path d="M6.15995 8.73148C6.20864 8.81679 6.68338 9.05445 6.71989 9.01789C6.73815 8.99961 6.68338 8.95086 6.61034 8.9082C6.53122 8.86554 6.42775 8.79851 6.38514 8.74976C6.28776 8.65836 6.10517 8.64008 6.15995 8.73148Z" fill="#008000"/>
<path d="M5.47952 8.0059C5.48828 7.99743 5.62522 8.04292 5.78769 8.1061C5.95015 8.16927 6.16002 8.22896 6.25031 8.23485C6.40945 8.24194 6.97295 8.51036 6.96752 8.57491C6.96647 8.63523 6.11444 8.37469 5.81578 8.22295C5.45733 8.0443 5.44887 8.03553 5.47952 8.0059Z" fill="#008000"/>
<path d="M6.48763 8.45155C6.37409 8.49548 6.2599 8.57494 6.22443 8.63179C6.1825 8.69897 6.21798 8.69961 6.36442 8.62596C6.47926 8.56846 6.64506 8.5213 6.73602 8.51354C6.90634 8.50512 6.90634 8.50512 6.79795 8.43731C6.73601 8.39856 6.6044 8.40245 6.48763 8.45155Z" fill="#008000"/>
<path d="M3.63918 6.39766C3.82785 6.7572 4.59474 7.58595 5.02078 7.90282C5.13642 7.98813 5.34336 8.07345 5.47117 8.09173L5.70854 8.12829L5.53204 7.93329C5.24598 7.62251 4.80776 7.02532 4.66777 6.76329C4.51561 6.47688 4.49735 6.55001 4.62517 6.91563C4.67386 7.06188 4.86862 7.35438 5.0573 7.56157C5.24598 7.77485 5.3677 7.95157 5.33727 7.95157C5.25815 7.95157 4.74689 7.34829 4.38171 6.82423C3.9861 6.25141 3.96784 6.23313 4.07739 6.55001C4.13217 6.70235 4.2539 6.92782 4.35737 7.0497C4.45475 7.17766 4.51561 7.28126 4.48518 7.28126C4.42432 7.28126 4.15652 6.97657 3.82177 6.53782C3.73047 6.40985 3.60266 6.24532 3.54788 6.1722C3.48702 6.09298 3.52962 6.19657 3.63918 6.39766Z" fill="#008000"/>
<path d="M6.21825 9.45919C5.75953 9.37727 5.54138 9.45045 5.35583 9.73677L5.19751 9.98267L5.40112 9.78941C5.67773 9.52049 5.87875 9.49453 6.37596 9.6392C6.60854 9.70806 6.8058 9.75307 6.81261 9.74297C6.85004 9.6874 6.45776 9.49598 6.21825 9.45919Z" fill="#008000"/>
<path d="M6.34309 9.58753C5.91705 9.77643 5.77706 9.95924 5.78315 10.3005L5.78923 10.593L5.8501 10.3188C5.92922 9.94096 6.08138 9.8069 6.57438 9.64846C6.80566 9.57534 6.99433 9.50221 6.99433 9.49003C6.99433 9.42299 6.5622 9.48393 6.34309 9.58753Z" fill="#008000"/>
<path d="M6.26234 10.1103C6.1893 10.2078 6.13452 10.3358 6.13452 10.4028C6.13452 10.482 6.16495 10.4638 6.25016 10.3236C6.31711 10.2139 6.43275 10.0859 6.50579 10.0311C6.64578 9.93359 6.64578 9.93359 6.51796 9.93359C6.44493 9.93359 6.33537 10.0067 6.26234 10.1103Z" fill="#008000"/>
<path d="M12.8426 11.1034C13.0403 11.1891 14.0656 11.448 14.7912 11.6608C15.5167 11.8735 16.3649 12.1184 16.5527 12.1448C16.8211 11.5591 16.3327 12.6546 16.6114 11.9906C16.2491 11.8983 14.8208 11.5618 14.2477 11.3969C13.7536 11.2584 13.0526 11.0424 12.8731 11.0028C12.6936 10.9632 12.6911 11.0374 12.8426 11.1034Z" fill="#008000"/>
<path d="M12.9681 10.9517C13.1686 11.0305 14.2024 11.2534 14.9349 11.4406C15.6674 11.6279 16.5237 11.843 16.7123 11.8628C16.9601 11.2681 16.5101 12.3799 16.7656 11.7067C16.4002 11.6271 14.9611 11.3407 14.3826 11.1959C13.8839 11.0748 13.1759 10.8833 12.9951 10.85C12.8143 10.8168 12.8144 10.891 12.9681 10.9517Z" fill="#008000"/>
<path d="M12.6842 11.2143C12.8771 11.3102 13.8875 11.6225 14.6009 11.873C15.3143 12.1234 16.1486 12.4124 16.3347 12.4486C16.6333 11.8778 16.0883 12.9462 16.4014 12.2978C16.0444 12.1866 14.6357 11.7757 14.0719 11.581C13.5858 11.4168 12.8971 11.1643 12.7198 11.1154C12.5426 11.0664 12.5363 11.1404 12.6842 11.2143Z" fill="#008000"/>
<path d="M12.5611 11.3389C12.7487 11.4449 13.7415 11.8097 14.4408 12.0972C15.1401 12.3847 15.9582 12.717 16.1422 12.7629C16.4702 12.2085 15.8701 13.2468 16.2166 12.6157C15.8659 12.486 14.4806 12.0019 13.9278 11.7779C13.4509 11.5884 12.7763 11.3002 12.6019 11.242C12.4275 11.1839 12.4173 11.2575 12.5611 11.3389Z" fill="#008000"/>
<path d="M12.4452 11.4958C12.629 11.6082 13.6084 12.0075 14.2973 12.3193C14.9862 12.631 15.7922 12.9917 15.9744 13.044C16.3216 12.5014 15.6857 13.5182 16.054 12.8995C15.708 12.7576 14.3404 12.2254 13.7958 11.9823C13.3257 11.7762 12.6616 11.4646 12.4894 11.4004C12.3171 11.3362 12.3043 11.4093 12.4452 11.4958Z" fill="#008000"/>
<path d="M10.3919 13.0756C10.6745 13.2727 10.8299 13.5466 10.8145 13.8294L10.8041 14.0628L10.8969 13.8331C10.9983 13.5927 10.9844 13.2287 10.8645 12.9591L10.7946 12.8019L11.0167 12.8987C11.334 13.0327 11.5429 13.2682 11.5866 13.5481L11.6248 13.7786L11.6679 13.5345C11.7172 13.2782 11.628 12.9252 11.4547 12.6864L11.3536 12.5471L11.591 12.5956C11.9292 12.6606 12.1825 12.8476 12.2833 13.1122L12.3686 13.3298L12.36 13.0821C12.355 12.8211 12.1944 12.4943 11.9754 12.2968L11.8476 12.1816L12.0898 12.1797C12.4341 12.1729 12.7207 12.303 12.8743 12.5409L13.0029 12.7359L12.943 12.4954C12.884 12.2413 12.6591 11.955 12.4038 11.8075L12.2549 11.7214L12.4914 11.6691C12.8268 11.5906 13.1341 11.6584 13.3337 11.8591L13.5 12.023L13.3915 11.8003C13.281 11.5639 13.0015 11.3307 12.7212 11.2395L12.5576 11.1864L12.7781 11.086C13.0898 10.9395 13.4045 10.9417 13.6415 11.0964L13.8382 11.2223L13.6858 11.0269C13.5286 10.8187 13.2068 10.6489 12.9137 10.618L12.7427 10.6001L12.9375 10.4559C13.212 10.2478 13.5203 10.1843 13.7842 10.2864L14.0028 10.3685L13.8132 10.2092C13.6162 10.0383 13.2661 9.9391 12.973 9.97L12.802 9.98794L12.9626 9.80637C13.1879 9.54564 13.4763 9.41948 13.7556 9.46444L13.9864 9.49918L13.7678 9.38286C13.5397 9.2567 13.1767 9.23253 12.8964 9.32372L12.7328 9.37687L12.8522 9.1659C13.0184 8.86393 13.2743 8.68052 13.5568 8.66626L13.7898 8.65227L13.5519 8.58399C13.3025 8.50809 12.9424 8.56005 12.6872 8.70753L12.5382 8.79361L12.6112 8.56235C12.7111 8.23241 12.9233 7.99977 13.1967 7.92703L13.4218 7.86482L13.1748 7.84756C12.9151 7.8252 12.5737 7.95089 12.3547 8.14837L12.2269 8.26358L12.2503 8.02222C12.2794 7.6786 12.4387 7.40691 12.691 7.2788L12.8982 7.17116L12.6531 7.20563C12.3944 7.23783 12.0866 7.43189 11.9133 7.67064L11.8123 7.80994L11.785 7.56896C11.7422 7.22688 11.8415 6.92784 12.0617 6.75011L12.242 6.60166L12.0094 6.6864C11.7631 6.77174 11.5023 7.02563 11.3824 7.29524L11.3125 7.45256L11.2357 7.2225C11.1228 6.89679 11.1579 6.58364 11.3364 6.36395L11.4819 6.18123L11.272 6.31249C11.0488 6.44726 10.8464 6.74988 10.7851 7.03855L10.7494 7.20697L10.6266 6.99797C10.4485 6.70277 10.4178 6.38927 10.5467 6.13715L10.6511 5.92814L10.473 6.10022C10.2827 6.27856 10.1476 6.61676 10.1476 6.91185V7.08397L9.98402 6.90509C9.74859 6.65354 9.65344 6.35315 9.72721 6.07974L9.78586 5.85352L9.64742 6.05903C9.49823 6.27299 9.43632 6.63191 9.49762 6.92065L9.53331 7.089L9.33622 6.94805C9.05362 6.75095 8.89822 6.477 8.91361 6.19418L8.92401 5.96069L8.83124 6.19053C8.7298 6.43093 8.74377 6.79484 8.8636 7.06445L8.93353 7.22177L8.71146 7.12493C8.39412 6.99097 8.18518 6.75537 8.14154 6.47558L8.10327 6.24502L8.06029 6.48907C8.01097 6.7453 8.10013 7.09845 8.27345 7.33721L8.37447 7.47643L8.13716 7.42793C7.79895 7.36295 7.54567 7.17604 7.44485 6.91135L7.35953 6.69381L7.36816 6.94152C7.37311 7.20248 7.53374 7.52927 7.75278 7.72671L7.88055 7.84191L7.63833 7.84387C7.29401 7.85071 7.00742 7.72056 6.85386 7.48273L6.72524 7.28767L6.78512 7.52811C6.84415 7.78235 7.0691 8.0686 7.32437 8.21616L7.47325 8.30224L7.23675 8.35454C6.90137 8.43289 6.59402 8.3653 6.39444 8.16459L6.22813 8.00058L6.33664 8.22335C6.44717 8.45971 6.72666 8.69282 7.007 8.784L7.17054 8.83723L6.95004 8.93764C6.63827 9.08416 6.32359 9.0819 6.08666 8.92715L5.88992 8.80134L6.04229 8.99662C6.1995 9.20483 6.52129 9.37468 6.81444 9.40553L6.98543 9.42355L6.79061 9.56766C6.51607 9.77586 6.20779 9.83919 5.94392 9.73712L5.72534 9.65508L5.91494 9.81436C6.11195 9.98533 6.46199 10.0845 6.75514 10.0536L6.92613 10.0357L6.7655 10.2172C6.54021 10.478 6.25181 10.6041 5.97252 10.5592L5.74169 10.5244L5.96027 10.6407C6.18848 10.7669 6.55145 10.7911 6.83179 10.6999L6.99533 10.6467L6.87593 10.8577C6.7097 11.1597 6.45381 11.3431 6.17129 11.3573L5.93828 11.3713L6.17624 11.4396C6.42564 11.5155 6.78569 11.4636 7.04096 11.316L7.18988 11.2299L7.11692 11.4612C7.01701 11.7912 6.80484 12.0239 6.53142 12.0966L6.30639 12.1588L6.55333 12.1761C6.81306 12.1984 7.15446 12.0726 7.3735 11.8752L7.50127 11.76L7.47789 12.0014C7.44872 12.3449 7.28948 12.6167 7.03713 12.7447L6.82995 12.8524L7.07509 12.818C7.33377 12.7858 7.64159 12.5916 7.81484 12.3529L7.9159 12.2137L7.94319 12.4547C7.98598 12.7968 7.88665 13.0957 7.66642 13.2735L7.48611 13.4219L7.71873 13.3372C7.96506 13.2519 8.22586 12.9979 8.34576 12.7283L8.41566 12.5711L8.49238 12.801C8.6053 13.1269 8.57022 13.4399 8.39171 13.6597L8.24617 13.8424L8.45611 13.7111C8.67933 13.5763 8.88172 13.2737 8.94301 12.985L8.97874 12.8166L9.10156 13.0257C9.27965 13.3208 9.31035 13.6344 9.18139 13.8865L9.077 14.0955L9.25509 13.9233C9.44546 13.7451 9.58056 13.4069 9.58056 13.1118V12.9396L9.7441 13.1185C9.97953 13.3701 10.0747 13.6705 10.0009 13.9439L9.94222 14.1701L10.0807 13.9646C10.2298 13.7505 10.2918 13.3917 10.2305 13.103L10.1948 12.9346L10.3919 13.0756Z" fill="#FCDD09"/>
</g>
<rect x="0.5" y="0.5" width="19" height="14" rx="0.5" stroke="black" stroke-opacity="0.1"/>
<defs>
<clipPath id="clip0_85465_13390">
<rect width="20" height="15" rx="1" fill="white"/>
</clipPath>
</defs>
</svg>
