<svg width="20" height="15" viewBox="0 0 20 15" fill="none" xmlns="http://www.w3.org/2000/svg">
<g clip-path="url(#clip0_85465_13432)">
<rect width="20" height="15" rx="1" fill="white"/>
<path fill-rule="evenodd" clip-rule="evenodd" d="M0 0V15.36H20.48V0H0Z" fill="#F7FCFF"/>
<mask id="mask0_85465_13432" style="mask-type:luminance" maskUnits="userSpaceOnUse" x="0" y="0" width="21" height="16">
<path fill-rule="evenodd" clip-rule="evenodd" d="M0 0V15.36H20.48V0H0Z" fill="white"/>
</mask>
<g mask="url(#mask0_85465_13432)">
<path fill-rule="evenodd" clip-rule="evenodd" d="M0 0V5.12H20.48V0H0Z" fill="#009D00"/>
<path fill-rule="evenodd" clip-rule="evenodd" d="M0 5.12012V10.2401H20.48V5.12012H0Z" fill="white"/>
<path fill-rule="evenodd" clip-rule="evenodd" d="M0 10.2402V15.3602H20.48V10.2402H0Z" fill="#F80000"/>
</g>
<path fill-rule="evenodd" clip-rule="evenodd" d="M0 0V15.36L5.12 7.77725L0 0Z" fill="#0075D5"/>
<mask id="mask1_85465_13432" style="mask-type:luminance" maskUnits="userSpaceOnUse" x="0" y="0" width="6" height="16">
<path fill-rule="evenodd" clip-rule="evenodd" d="M0 0V15.36L5.12 7.77725L0 0Z" fill="white"/>
</mask>
<g mask="url(#mask1_85465_13432)">
</g>
<path d="M9.32592 5.68898L9.31566 5.6913L9.30794 5.68416L9.18162 5.56746L9.16583 5.73871L9.16486 5.74918L9.15569 5.75432L9.00567 5.8384L9.16366 5.90634L9.17332 5.91049L9.17537 5.9208L9.20898 6.08946L9.32241 5.9602L9.32934 5.9523L9.33979 5.95353L9.51058 5.97369L9.42269 5.82587L9.41732 5.81683L9.42172 5.80728L9.49367 5.65108L9.32592 5.68898Z" fill="#FFD500" stroke="black" stroke-width="0.04"/>
<path d="M9.96581 5.68898L9.95556 5.6913L9.94783 5.68416L9.82151 5.56746L9.80572 5.73871L9.80476 5.74918L9.79559 5.75432L9.64556 5.8384L9.80355 5.90634L9.81321 5.91049L9.81527 5.9208L9.84887 6.08946L9.9623 5.9602L9.96924 5.9523L9.97968 5.95353L10.1505 5.97369L10.0626 5.82587L10.0572 5.81683L10.0616 5.80728L10.1336 5.65108L9.96581 5.68898Z" fill="#FFD500" stroke="black" stroke-width="0.04"/>
<path d="M10.606 5.68898L10.5957 5.6913L10.588 5.68416L10.4616 5.56746L10.4459 5.73871L10.4449 5.74918L10.4357 5.75432L10.2857 5.8384L10.4437 5.90634L10.4533 5.91049L10.4554 5.9208L10.489 6.08946L10.6024 5.9602L10.6094 5.9523L10.6198 5.95353L10.7906 5.97369L10.7027 5.82587L10.6973 5.81683L10.7017 5.80728L10.7737 5.65108L10.606 5.68898Z" fill="#FFD500" stroke="black" stroke-width="0.04"/>
<path d="M11.2458 5.68898L11.2356 5.6913L11.2279 5.68416L11.1015 5.56746L11.0858 5.73871L11.0848 5.74918L11.0756 5.75432L10.9256 5.8384L11.0836 5.90634L11.0932 5.91049L11.0953 5.9208L11.1289 6.08946L11.2423 5.9602L11.2493 5.9523L11.2597 5.95353L11.4305 5.97369L11.3426 5.82587L11.3372 5.81683L11.3416 5.80728L11.4136 5.65108L11.2458 5.68898Z" fill="#FFD500" stroke="black" stroke-width="0.04"/>
<path d="M11.886 5.68898L11.8757 5.6913L11.868 5.68416L11.7417 5.56746L11.7259 5.73871L11.7249 5.74918L11.7158 5.75432L11.5657 5.8384L11.7237 5.90634L11.7334 5.91049L11.7354 5.9208L11.769 6.08946L11.8825 5.9602L11.8894 5.9523L11.8998 5.95353L12.0706 5.97369L11.9827 5.82587L11.9774 5.81683L11.9818 5.80728L12.0537 5.65108L11.886 5.68898Z" fill="#FFD500" stroke="black" stroke-width="0.04"/>
<path d="M12.5259 5.68898L12.5156 5.6913L12.5079 5.68416L12.3816 5.56746L12.3658 5.73871L12.3648 5.74918L12.3556 5.75432L12.2056 5.8384L12.3636 5.90634L12.3733 5.91049L12.3753 5.9208L12.4089 6.08946L12.5224 5.9602L12.5293 5.9523L12.5397 5.95353L12.7105 5.97369L12.6226 5.82587L12.6173 5.81683L12.6217 5.80728L12.6936 5.65108L12.5259 5.68898Z" fill="#FFD500" stroke="black" stroke-width="0.04"/>
<path d="M9.6401 6.4399H12.1201V8.3199C12.1201 9.00473 11.5649 9.5599 10.8801 9.5599C10.1953 9.5599 9.6401 9.00474 9.6401 8.3199V6.4399Z" stroke="#373737" stroke-width="0.08"/>
<path fill-rule="evenodd" clip-rule="evenodd" d="M10.7048 7.65422C10.7048 7.65422 10.5757 9.168 10.4468 9.25974C10.3179 9.35148 11.0644 9.39729 11.1357 9.32852C11.207 9.25974 10.8102 8.0262 10.9467 7.65422C11.0832 7.28224 11.3031 7.2521 11.3031 7.2521C11.3031 7.2521 11.0259 7.19351 10.9467 7.30513C10.8675 7.41675 10.6312 7.2521 10.6312 7.2521L10.7048 7.65422Z" fill="#6F3E1D"/>
<path fill-rule="evenodd" clip-rule="evenodd" d="M10.6765 7.56893H10.5772C10.5772 7.56893 10.51 7.8318 10.3557 7.70037C10.2015 7.56893 9.98389 7.61527 9.98389 7.61527C9.98389 7.61527 10.0034 7.45796 10.2402 7.39542C10.477 7.33289 10.5772 6.82509 10.5772 6.82509C10.5772 6.82509 10.9123 6.70035 11.1162 6.95598C11.3201 7.21161 11.6073 7.10255 11.6073 7.10255C11.6073 7.10255 11.8172 7.22191 11.7123 7.39542C11.6073 7.56893 11.4283 7.69586 11.2722 7.56893C11.1162 7.442 10.6765 7.56893 10.6765 7.56893Z" fill="#009D29"/>
</g>
<rect x="0.5" y="0.5" width="19" height="14" rx="0.5" stroke="black" stroke-opacity="0.1"/>
<defs>
<clipPath id="clip0_85465_13432">
<rect width="20" height="15" rx="1" fill="white"/>
</clipPath>
</defs>
</svg>
