<svg width="20" height="15" viewBox="0 0 20 15" fill="none" xmlns="http://www.w3.org/2000/svg">
<g clip-path="url(#clip0_85465_13464)">
<rect width="20" height="15" rx="1" fill="white"/>
<path fill-rule="evenodd" clip-rule="evenodd" d="M0 0H20V15H0V0Z" fill="#2B409A"/>
<path d="M15.1987 11.5944C15.1603 11.5944 15.021 11.5194 15.021 11.5194C15.021 11.5194 14.92 11.6791 14.8671 11.6884C14.8142 11.6978 14.5403 11.5899 14.5403 11.5899C14.5403 11.5899 14.3481 11.74 14.3049 11.7306C14.2616 11.7214 13.8195 11.6274 13.8195 11.6274L13.5792 11.4771C13.5792 11.4771 13.4446 11.6931 13.4398 11.6884C13.435 11.6836 13.0362 11.6086 13.0362 11.6086C13.0362 11.6086 13.1563 11.4443 13.1563 11.4396C13.1563 11.4349 13.0986 11.416 13.0986 11.416L13.0121 11.4865L12.6565 11.5194L12.743 11.2751L12.8824 11.0685L14.5884 9.44824L15.4294 10.9652L15.3045 11.4207C15.3045 11.4207 15.2371 11.5944 15.1987 11.5944Z" fill="#6A4C2D"/>
<path d="M13.5691 11.2881C13.6285 11.3599 14.4113 12.1601 14.5382 12.5387C14.6651 12.9173 13.5088 12.4337 13.5088 12.4337C13.5088 12.4337 14.9648 11.488 15.6921 11.488C16.4194 11.488 17.8489 12.4337 17.8489 12.4337C17.8489 12.4337 16.8897 13.1092 16.8995 12.6833C16.9094 12.2573 17.3498 11.4182 17.8754 11.2881" stroke="#FFBB00" stroke-width="0.5" stroke-linecap="round" stroke-linejoin="round"/>
<path d="M18.4636 11.3498L18.2245 11.2608L18.0127 10.9803L17.1359 10.9159L16.3366 10.6978L15.9995 10.9226L16.181 11.1596L16.6245 11.3228L18.4636 11.3498Z" fill="#F7FCFF"/>
<g filter="url(#filter0_d_85465_13464)">
<path d="M14.9616 6.16644C14.9698 6.18692 15.1485 6.15061 15.1866 6.25771C15.379 5.97355 15.6048 6.24455 15.6048 6.24455L15.7949 6.01953L16.0095 6.22273L16.2063 6.2074L16.4121 6.69025L14.7886 6.65979C14.7886 6.65979 14.9535 6.14596 14.9616 6.16644Z" fill="#656263"/>
</g>
<path d="M16.6447 8.22102C16.6316 8.06813 16.4961 8.05024 16.4204 8.05535C16.3446 8.06046 16.2769 8.12413 16.2769 8.12413L16.0265 7.96869C16.0265 7.96869 16.1518 7.19637 16.2847 7.14802C16.411 7.059 16.4333 7.02048 16.4333 7.00024C16.4333 6.9798 16.3865 6.89706 16.3865 6.89706L15.57 6.80273L14.798 6.89195C14.798 6.89195 14.738 7.01282 14.7459 7.04859C14.7537 7.08416 14.7563 7.12248 14.8945 7.22702C15.0475 7.34199 15.1527 8.0019 15.1527 8.0019C15.1527 8.0019 14.9363 8.10625 14.9233 8.09348C14.9102 8.0809 14.845 8.06813 14.811 8.07324C14.7773 8.07835 14.665 8.13435 14.665 8.27958C14.665 8.425 14.7773 8.50911 14.7773 8.50911C14.7773 8.50911 15.5153 9.05 15.6249 9.24869C15.7319 9.00913 16.4333 8.46824 16.5168 8.42736C16.5508 8.40712 16.6577 8.37391 16.6447 8.22102Z" fill="#656263"/>
<path d="M17.3813 7.50119C17.4426 7.46129 17.851 7.44125 17.9492 7.50119C18.0471 7.56112 18.0839 7.85649 18.0839 7.85649C18.0839 7.85649 18.1452 7.96025 18.1493 8.03611C18.1533 8.11197 18.1615 8.16385 18.1615 8.16385C18.1615 8.16385 18.4883 8.57909 18.4923 8.95425C18.5291 9.20972 18.5209 9.89223 18.4189 10.1516C18.4147 10.4751 18.276 10.6866 18.276 10.6866C18.276 10.6866 18.3085 10.7424 18.3045 10.8023C18.3003 10.8622 18.2677 10.9181 18.2677 10.9181L17.9614 11.0497L17.6224 10.9939L17.2383 9.87219L17.3282 7.97617L17.3527 7.88047L17.3119 7.62499C17.3119 7.62499 17.3201 7.54108 17.3813 7.50119Z" fill="black"/>
<path d="M15.1637 8.49633C15.1637 8.49633 15.577 8.49633 15.6216 8.62741C15.6998 8.4527 16.0572 8.46371 16.0572 8.46371C16.2732 8.45644 16.4892 8.44917 16.7049 8.44189C16.7088 8.95127 16.7124 9.46065 16.7162 9.97003C16.5897 10.5629 16.1503 10.9815 15.6663 11.1598C15.0891 10.9778 14.7243 10.5012 14.6053 9.95902C14.5827 9.47519 14.5604 8.99117 14.5381 8.50734C14.7466 8.5036 14.9552 8.50006 15.1637 8.49633Z" fill="#F7FCFF"/>
<path d="M14.761 8.50188L15.6722 10.8747L16.4953 8.4502C16.2399 8.46631 15.6921 8.41089 15.6241 8.63846C15.5187 8.43487 14.9424 8.51701 14.761 8.50188V8.50188Z" fill="#006B00"/>
<path fill-rule="evenodd" clip-rule="evenodd" d="M15.8172 8.6737C15.8172 8.6737 15.9 8.88991 15.8172 8.99693C15.7343 9.10395 15.8241 9.19164 15.874 9.19164C15.924 9.19164 16.0956 9.36157 15.9564 9.36157C15.8172 9.36157 15.7386 9.30868 15.7386 9.45805C15.7386 9.60741 16.0454 10.5387 16.0009 10.3358C15.9564 10.1328 15.9129 10.1807 15.9129 10.0054C15.9129 9.83 15.9564 9.63481 15.9564 9.63481C15.9564 9.63481 16.0296 9.68965 15.9775 9.88985C15.9255 10.0901 15.6866 10.3805 15.6268 10.3919C15.567 10.4033 15.4752 10.4965 15.463 10.3246C15.4508 10.1527 15.4017 10.0723 15.4412 10.0388C15.4807 10.0054 15.5334 9.8858 15.5503 9.97982C15.5672 10.0738 15.4929 10.1637 15.505 10.1976C15.5172 10.2314 15.5239 10.3082 15.5754 10.2439C15.6268 10.1796 15.6571 10.0736 15.6956 10.1719C15.734 10.2701 15.7348 10.1926 15.6551 10.0054C15.5754 9.81815 15.5076 9.71402 15.5172 9.54965C15.5268 9.38529 15.5138 9.32373 15.5268 9.2709C15.5397 9.21807 15.3839 8.96078 15.4235 8.88669C15.463 8.8126 15.4782 8.57342 15.5268 8.61647C15.5754 8.65953 15.6004 8.71734 15.5754 8.78173C15.5503 8.84611 15.5253 8.91009 15.5503 8.95351C15.5754 8.99693 15.6612 9.12232 15.6784 9.09078C15.6956 9.05924 15.7533 9.08975 15.7533 8.91117C15.7533 8.73259 15.6889 8.66981 15.7295 8.62742C15.7701 8.58503 15.8172 8.6737 15.8172 8.6737Z" fill="#FFD100"/>
<path d="M16.5005 8.45021L16.6234 8.44727L16.404 8.71885L16.6672 9.01914L16.1494 9.65664L16.6381 10.2313C16.5844 10.36 16.5221 10.4771 16.439 10.583L16.1583 10.2798L16.6672 9.65959L16.249 9.1964L16.5005 8.45021Z" fill="#1E5AA6"/>
<path d="M14.6133 8.50734L14.8591 8.76734L14.5988 9.08472L15.14 9.65953L14.6923 10.2456C14.746 10.3743 14.8231 10.5171 14.9059 10.6229L15.1722 10.2941L14.6252 9.69943L15.026 9.20204L14.745 8.50439L14.6133 8.50734Z" fill="#1E5AA6"/>
<path d="M15.3535 10.0482L15.1604 10.2997L15.8508 11.0803C15.9726 11.0202 16.0684 10.9516 16.1727 10.8688L15.8128 10.4628L15.9592 10.0425L16.1697 10.2797L15.5115 11.1003C15.4013 11.0546 15.2795 10.983 15.1692 10.8944L15.5174 10.4628L15.3535 10.0482Z" fill="#1E5AA6"/>
<path d="M17.7408 8.03208C17.7408 8.07198 17.7843 10.4271 17.832 10.4047C17.9504 10.3486 17.9777 10.4709 17.9777 10.4709C17.9777 10.4709 18.0185 10.8582 17.9163 10.9101C17.7325 11.0058 17.6522 11.0269 17.6522 11.0269L17.4753 10.8981C17.4753 10.8981 17.2955 10.6466 17.2547 10.5348C17.2139 10.4231 17.1648 9.92417 17.1811 9.81628C17.1974 9.70859 17.2097 9.07776 17.2016 9.04592C17.1934 9.01389 17.1608 8.48702 17.1811 8.40724C17.2016 8.32745 17.3281 7.97607 17.3241 7.97607C17.3241 7.97607 17.7408 7.99219 17.7408 8.03208Z" fill="url(#paint0_linear_85465_13464)"/>
<path d="M17.3325 7.6286C17.4182 7.6286 17.4835 7.70053 17.504 7.76439C17.5081 7.7923 17.4958 7.81235 17.4998 7.86423C17.504 7.91611 16.879 7.87602 16.875 7.87209C16.875 7.87209 17.165 7.59676 17.3325 7.6286Z" fill="#FF7000"/>
<path d="M17.7306 7.80635C17.7306 7.83396 17.7082 7.85635 17.6806 7.85635C17.653 7.85635 17.6306 7.83396 17.6306 7.80635C17.6306 7.77873 17.653 7.75635 17.6806 7.75635C17.7082 7.75635 17.7306 7.77873 17.7306 7.80635Z" fill="black"/>
<path d="M16.1379 7.44287C16.1379 7.44287 16.4633 7.78698 16.6739 7.78324C16.7121 7.88425 16.5781 7.97819 16.5247 8.023C16.4175 7.98939 16.3205 8.02909 16.0718 7.72999C16.0873 7.53917 16.1418 7.45034 16.1379 7.44287Z" fill="#F7FCFF"/>
<path d="M17.4316 5.71143C17.4622 5.93212 17.9806 6.20292 18.1299 6.01957C18.1146 6.10191 18.1425 6.35866 17.354 6.35493C17.6526 6.63182 17.0565 6.93083 16.888 6.86342C17.1981 6.63153 16.8001 6.49318 16.5781 6.64273C16.6202 6.51558 16.9303 5.87611 17.4316 5.71143Z" fill="#F7FCFF"/>
<path fill-rule="evenodd" clip-rule="evenodd" d="M16.9064 7.2602C16.8473 7.01714 16.8187 6.73791 16.9493 6.63115C16.777 6.5152 16.5896 6.63488 16.5896 6.63488C16.5883 6.63778 16.5848 6.64268 16.5798 6.64959C16.5397 6.70496 16.4058 6.89005 16.5896 7.2225C16.0997 7.09535 16.3047 7.54005 16.3408 7.57365C16.3599 7.50251 16.6201 7.4353 16.6853 7.79808C16.7072 7.87158 16.5752 7.9776 16.5329 8.01163C16.5235 8.01917 16.5185 8.02318 16.5206 8.0225C16.5206 8.0225 16.9352 8.10666 16.9888 7.55895C17.0598 7.51672 17.4036 7.28743 17.3932 6.8145C17.0772 6.82099 16.9376 7.16911 16.9064 7.2602Z" fill="#0000FF"/>
<path d="M15.0547 7.54004C15.0547 7.54004 14.7372 7.80927 14.5572 7.72319C14.4233 7.8018 14.2664 7.66345 14.2664 7.66345C14.2664 7.66345 14.45 8.32533 15.1084 7.84661C15.0969 7.70079 15.0624 7.55124 15.0547 7.54004Z" fill="#F7FCFF"/>
<path d="M14.5533 7.71219C14.58 7.57384 14.6911 7.50643 14.7791 7.63732C14.8978 7.65992 15.0164 7.18493 14.5953 7.26334C14.714 6.64254 14.3581 6.41064 14.3581 6.41064C14.3581 6.41064 14.2318 7.09885 14.2892 7.226C14.3466 7.35315 14.205 6.99038 13.7496 6.88936C13.7419 7.40935 14.2586 7.65245 14.2586 7.65245C14.2586 7.65245 14.4041 7.78333 14.5533 7.71219Z" fill="#0000FF"/>
<path d="M14.1228 6.96168C13.9888 7.00276 13.6631 6.80637 13.8698 6.55188C13.1924 6.53694 12.8235 5.96462 13.0493 6.07375C13.2751 6.18288 13.4364 5.95034 13.6048 6.07375C13.3982 5.88686 13.677 5.7373 13.677 5.7373C13.677 5.7373 14.2549 5.90572 14.3582 6.40684C14.3238 6.50412 14.3085 6.67608 14.3008 6.66861C14.3008 6.66487 13.9429 6.66238 14.1228 6.96168Z" fill="#F7FCFF"/>
<path d="M15.4221 4.67153C15.3581 4.85836 15.1275 4.78748 15.1275 4.78748C15.1275 4.78748 15.1351 4.88098 15.1122 4.92585C15.1311 4.93977 15.2674 5.04467 15.4106 5.07172C15.6165 5.11064 16.0382 5.00418 16.1798 5.16147C16.3214 5.31877 16.314 5.44572 16.314 5.44572C16.314 5.44572 16.1297 5.46676 16.1809 5.53163C16.2142 5.57376 16.3058 5.60506 16.314 5.6486C16.3398 5.78718 16.2275 6.03653 16.2679 6.1302C16.2042 6.13589 16.1991 6.20114 16.1991 6.20114C16.1955 6.27523 16.0115 6.23121 16.0115 6.23121C16.0115 6.23121 16.1263 5.94311 16.134 5.8759C16.1416 5.80849 16.0535 5.68881 15.9848 5.68881C15.9158 5.68881 15.8661 5.90204 15.8661 5.90204C15.8661 5.90204 15.8317 6.06279 15.8432 6.07772C15.8546 6.09266 15.7971 6.02545 15.7971 6.02545C15.7971 6.02545 15.7791 6.09075 15.7494 6.1302C15.7161 6.17457 15.6708 6.19367 15.6708 6.19367C15.6708 6.19367 15.6364 6.09639 15.6479 6.05906C15.6594 6.02172 15.8355 5.8759 15.8203 5.77115C15.8134 5.72493 15.8074 5.64424 15.7494 5.61747C15.6761 5.58358 15.5417 5.6083 15.4605 5.59158C15.4158 5.66759 15.3953 6.08519 15.4259 6.11153C15.4567 6.13766 15.3495 6.19367 15.3495 6.19367L15.2232 6.1974C15.2212 6.14081 15.2976 5.98615 15.2976 5.85527C15.2976 5.72438 15.3072 5.58411 15.3072 5.58411C15.3072 5.58411 15.2224 5.60548 15.1771 5.68881C15.1392 5.75869 15.1393 5.89077 15.1427 5.9095C15.1504 5.95058 15.1886 6.06652 15.1771 6.10032C15.1657 6.13393 14.9668 6.17874 14.9668 6.17874L14.9589 6.07026C14.9589 6.07026 15.0432 6.01798 15.0432 5.8871C15.0432 5.75622 15.0508 5.56913 15.047 5.55793C15.0447 5.5512 14.9781 5.26479 14.8904 5.07172C14.8319 4.94297 14.7417 4.88397 14.7371 4.8735C14.7257 4.84732 14.7257 4.81739 14.7257 4.81739C14.7257 4.81739 14.5992 4.90716 14.45 4.71642C14.5867 4.60238 14.7333 4.68649 14.7333 4.68649C14.7333 4.68649 14.7715 4.58176 14.9475 4.58925C15.1236 4.59674 15.158 4.69398 15.1504 4.68275C15.1504 4.68275 15.2805 4.57054 15.4221 4.67153Z" fill="#923F00"/>
<path d="M14.7673 7.10236L15.5725 7.61724L16.2977 7.14068C16.2977 7.14068 16.4489 7.05913 16.4358 7.00056C16.4229 6.9418 16.3707 6.9648 16.3445 6.97502C16.3186 6.98524 15.5856 7.49245 15.5856 7.49245L14.8057 7.01059C14.8057 7.01059 14.7484 6.9929 14.7379 7.02847C14.7275 7.06424 14.7594 7.08448 14.7673 7.10236Z" fill="#B4B6B9"/>
<path d="M17.4668 10.8919C17.4668 10.8919 17.1671 10.8718 17.2129 10.9586C17.2383 11.0067 17.6351 11.0012 17.6351 11.0012L17.4668 10.8919Z" fill="#FF7000"/>
<path d="M17.6094 11.0087L17.2968 11.0175C17.2968 11.0175 17.2182 11.0873 17.2132 11.104C17.2084 11.1209 17.2649 11.1256 17.2649 11.1256C17.2649 11.1256 17.5872 11.2076 17.8312 11.1545C17.9542 11.1124 17.9758 11.0619 17.8895 11.0313C17.8034 11.0006 17.6118 11.0099 17.6094 11.0087Z" fill="#FF7000"/>
<path d="M13.9941 8.11876C13.9941 8.11876 13.9534 8.24375 13.9941 8.30624C14.0348 8.36874 14.2906 8.87438 14.2906 8.87438C14.2906 8.87438 14.465 8.6641 14.529 8.65841C14.5929 8.6529 14.5638 9.20394 14.5638 9.20394C14.5638 9.20394 14.4592 9.30043 14.3953 9.29473C14.3313 9.28903 14.5521 9.51071 14.5463 9.69819C14.5405 9.88567 14.2557 10.8174 14.151 10.8343C14.0464 10.8514 13.9561 10.6588 13.9561 10.4924C13.9561 10.326 14.0639 10.0617 14.058 9.98786C14.0522 9.91396 13.538 10.7797 13.5069 10.9149C13.501 10.9405 13.5348 11.0331 13.5348 11.0331C13.5348 11.0331 13.3333 11.0496 13.3779 11.3059C12.7849 11.1013 12.4942 10.7492 12.5 10.3913C12.5022 10.2541 12.3714 9.9314 12.5 9.57509C12.707 9.00143 13.2115 8.34668 13.2151 8.28364C13.2209 8.18126 13.2616 8.13586 13.2674 8.07907C13.2732 8.02227 13.25 7.73241 13.3081 7.68131C13.3662 7.63022 13.6685 7.50523 13.7441 7.51093C13.8197 7.51663 13.8836 7.56772 13.8836 7.56772C13.8836 7.56772 14.1685 7.56772 14.1859 7.67561C14.2034 7.7837 14.1278 7.8234 14.1278 7.8234C14.1278 7.8234 14.1685 7.97688 13.9941 8.11876Z" fill="#8A9396"/>
<path d="M14.1637 11.341C14.2597 11.4074 14.4816 11.4467 14.4816 11.4467C14.4816 11.4467 13.9366 11.5935 13.3829 11.3086C13.3322 11.0867 13.5017 11.0372 13.5436 11.0354C13.6414 11.0098 14.0676 11.2744 14.1637 11.341Z" fill="#2B2B2B"/>
<path d="M14.8307 11.3175C15.427 11.6327 15.4908 11.4205 15.9016 11.1209C15.9301 11.1001 16.0657 11.602 16.6414 11.3175C17.4561 10.9148 15.943 10.2437 15.7291 10.2582C15.5153 10.2731 14.2344 11.0023 14.8307 11.3175Z" fill="#00713D"/>
<path d="M14.8148 4.64039C14.8148 4.64039 14.5382 4.27662 14.5382 4.1936" stroke="#CDAD56" stroke-width="0.25" stroke-linecap="round"/>
<path d="M15.0382 4.64039C15.0382 4.64039 15.3148 4.27662 15.3148 4.1936" stroke="#CDAD56" stroke-width="0.25" stroke-linecap="round"/>
<g clip-path="url(#clip1_85465_13464)">
<rect width="11" height="9" fill="#2E42A5"/>
<path d="M-1.25269 8.1247L1.22291 9.21045L11.3062 1.18028L12.612 -0.433182L9.96468 -0.796071L5.85197 2.66436L2.54165 4.99588L-1.25269 8.1247Z" fill="#F7FCFF"/>
<path d="M-0.913818 8.88555L0.347383 9.51562L12.143 -0.582947H10.3721L-0.913818 8.88555Z" fill="#F50100"/>
<path d="M12.5027 8.1248L10.3056 9.52051L-0.0561562 1.18038L-1.36198 -0.433076L1.28532 -0.795966L5.39803 2.66447L8.70835 4.99599L12.5027 8.1248Z" fill="#F7FCFF"/>
<path d="M12.4182 8.6707L11.157 9.30078L6.13431 4.97706L4.64518 4.49398L-1.48763 -0.427604H0.283246L6.41261 4.37716L8.04071 4.95642L12.4182 8.6707Z" fill="#F50100"/>
<path fill-rule="evenodd" clip-rule="evenodd" d="M6 0H5V4H0V5H5V9H6V5H11V4H6V0Z" fill="#F50100"/>
<path fill-rule="evenodd" clip-rule="evenodd" d="M4.0625 0H6.9375V3.0625L11 3V5.875L6.9375 5.9375V9H4.0625V5.9375L0 5.875V3L4.0625 3.0625V0ZM5 4H0V5H5V9H6V5H11V4H6V0H5V4Z" fill="#F7FCFF"/>
</g>
</g>
<rect x="0.5" y="0.5" width="19" height="14" rx="0.5" stroke="black" stroke-opacity="0.1"/>
<defs>
<filter id="filter0_d_85465_13464" x="14.7886" y="6.01953" width="1.62354" height="0.920898" filterUnits="userSpaceOnUse" color-interpolation-filters="sRGB">
<feFlood flood-opacity="0" result="BackgroundImageFix"/>
<feColorMatrix in="SourceAlpha" type="matrix" values="0 0 0 0 0 0 0 0 0 0 0 0 0 0 0 0 0 0 127 0" result="hardAlpha"/>
<feOffset dy="0.25"/>
<feColorMatrix type="matrix" values="0 0 0 0 1 0 0 0 0 1 0 0 0 0 1 0 0 0 1 0"/>
<feBlend mode="normal" in2="BackgroundImageFix" result="effect1_dropShadow_85465_13464"/>
<feBlend mode="normal" in="SourceGraphic" in2="effect1_dropShadow_85465_13464" result="shape"/>
</filter>
<linearGradient id="paint0_linear_85465_13464" x1="17.672" y1="9.75456" x2="18.1361" y2="9.74949" gradientUnits="userSpaceOnUse">
<stop stop-color="#D5DFFF"/>
<stop offset="1" stop-color="white"/>
</linearGradient>
<clipPath id="clip0_85465_13464">
<rect width="20" height="15" rx="1" fill="white"/>
</clipPath>
<clipPath id="clip1_85465_13464">
<rect width="11" height="9" fill="white"/>
</clipPath>
</defs>
</svg>
