<svg width="20" height="15" viewBox="0 0 20 15" fill="none" xmlns="http://www.w3.org/2000/svg">
<g clip-path="url(#clip0_85465_13505)">
<rect width="20" height="15" rx="1" fill="white"/>
<path fill-rule="evenodd" clip-rule="evenodd" d="M14 0H20V15H14V0Z" fill="#58A5FF"/>
<path fill-rule="evenodd" clip-rule="evenodd" d="M0 0H6V15H0V0Z" fill="#58A5FF"/>
<path fill-rule="evenodd" clip-rule="evenodd" d="M6 0H14V15H6V0Z" fill="white"/>
<path d="M7.97776 10.6482L7.52368 10.2187L12.3283 5.13867L12.7824 5.56813L7.97776 10.6482Z" fill="#C6C6C6"/>
<path fill-rule="evenodd" clip-rule="evenodd" d="M8.11545 5.06592C8.11545 5.06592 6.57739 5.99415 6.57739 8.32114C6.57739 10.6481 10.322 10.9629 10.322 10.9629C10.322 10.9629 8.08109 9.59614 7.78781 8.61764C7.49452 7.63915 8.11545 5.06592 8.11545 5.06592Z" fill="#5AB92D"/>
<path fill-rule="evenodd" clip-rule="evenodd" d="M11.909 5.06592C11.909 5.06592 13.447 5.99415 13.447 8.32114C13.447 10.6481 9.70246 10.9629 9.70246 10.9629C9.70246 10.9629 12.0573 9.61243 12.3874 8.32114C12.7174 7.02985 11.909 5.06592 11.909 5.06592Z" fill="#5AB92D"/>
<path d="M9.25464 4.74951L9.87708 4.80601C9.85661 5.03153 9.97981 5.26106 10.2844 5.50743C11.2648 6.30039 11.7918 7.28954 11.3788 8.41357C11.0792 9.22921 10.6721 9.91789 10.1572 10.4772L9.69736 10.0539C10.1546 9.55723 10.5198 8.93939 10.7922 8.19803C11.0888 7.39071 10.6873 6.63712 9.89138 5.99338C9.43788 5.62659 9.21306 5.2077 9.25464 4.74951Z" fill="#5AB92D"/>
<path fill-rule="evenodd" clip-rule="evenodd" d="M8.85864 6.13033L9.51443 7.98418H9.03238C9.03238 7.98418 8.85864 8.56922 9.18654 8.56922C9.51443 8.56922 11.2042 8.56922 11.2042 8.56922C11.2042 8.56922 11.4239 8.42253 11.314 7.98418C11.2042 7.54583 10.6492 6.33575 10.6492 6.33575C10.6492 6.33575 10.8863 6.13492 10.8863 5.98606C10.8863 5.8372 10.6492 5.8208 10.6492 5.8208H9.15225C8.96118 5.85383 8.85864 6.13033 8.85864 6.13033Z" fill="#EFE298"/>
</g>
<rect x="0.5" y="0.5" width="19" height="14" rx="0.5" stroke="black" stroke-opacity="0.1"/>
<defs>
<clipPath id="clip0_85465_13505">
<rect width="20" height="15" rx="1" fill="white"/>
</clipPath>
</defs>
</svg>
