<svg width="20" height="15" viewBox="0 0 20 15" fill="none" xmlns="http://www.w3.org/2000/svg">
<g clip-path="url(#clip0_85465_13594)">
<rect width="20" height="15" rx="1" fill="white"/>
<path fill-rule="evenodd" clip-rule="evenodd" d="M0 0V15H20V0H0Z" fill="#F7FCFF"/>
<mask id="mask0_85465_13594" style="mask-type:luminance" maskUnits="userSpaceOnUse" x="0" y="0" width="20" height="15">
<path fill-rule="evenodd" clip-rule="evenodd" d="M0 0V15H20V0H0Z" fill="white"/>
</mask>
<g mask="url(#mask0_85465_13594)">
<path fill-rule="evenodd" clip-rule="evenodd" d="M0 0V5H20V0H0Z" fill="#E31D1C"/>
<path fill-rule="evenodd" clip-rule="evenodd" d="M0 10V15H20V10H0Z" fill="#3D58DB"/>
<rect x="6.29785" y="3.99805" width="7.125" height="2.5" fill="#E31D1C"/>
<path d="M6.65758 5.59961H12.9879C12.9986 6.08021 13.0018 6.91858 13.0018 7.72567C13.0017 8.24687 13.0003 8.74865 12.999 9.12017L12.9971 9.56577L12.9965 9.68924L12.9964 9.70701L12.9961 9.70906C12.9933 9.7257 12.9886 9.75188 12.9814 9.78624C12.967 9.85504 12.9428 9.95604 12.9043 10.0784C12.8269 10.3243 12.6938 10.6502 12.4719 10.9741C12.0379 11.6077 11.2498 12.2593 9.78103 12.2593C8.31422 12.2593 7.56429 11.6086 7.16512 10.981C6.96015 10.6587 6.8431 10.3339 6.77759 10.0883C6.74499 9.96607 6.72562 9.86518 6.71454 9.79643C6.709 9.76211 6.70557 9.73596 6.70359 9.71936L6.7024 9.70861L6.70207 9.68106L6.70058 9.55837L6.69527 9.11553C6.69088 8.74623 6.68502 8.24709 6.67917 7.72768C6.67022 6.93405 6.6613 6.09557 6.65758 5.59961ZM6.70136 9.69881C6.70134 9.69864 6.70134 9.69863 6.70136 9.69879L6.70136 9.69881Z" fill="#F7FCFF" stroke="#E31D1C" stroke-width="0.703125"/>
<mask id="mask1_85465_13594" style="mask-type:luminance" maskUnits="userSpaceOnUse" x="6" y="5" width="8" height="8">
<path d="M6.65758 5.59961H12.9879C12.9986 6.08021 13.0018 6.91858 13.0018 7.72567C13.0017 8.24687 13.0003 8.74865 12.999 9.12017L12.9971 9.56577L12.9965 9.68924L12.9964 9.70701L12.9961 9.70906C12.9933 9.7257 12.9886 9.75188 12.9814 9.78624C12.967 9.85504 12.9428 9.95604 12.9043 10.0784C12.8269 10.3243 12.6938 10.6502 12.4719 10.9741C12.0379 11.6077 11.2498 12.2593 9.78103 12.2593C8.31422 12.2593 7.56429 11.6086 7.16512 10.981C6.96015 10.6587 6.8431 10.3339 6.77759 10.0883C6.74499 9.96607 6.72562 9.86518 6.71454 9.79643C6.709 9.76211 6.70557 9.73596 6.70359 9.71936L6.7024 9.70861L6.70207 9.68106L6.70058 9.55837L6.69527 9.11553C6.69088 8.74623 6.68502 8.24709 6.67917 7.72768C6.67022 6.93405 6.6613 6.09557 6.65758 5.59961ZM6.70136 9.69881C6.70134 9.69864 6.70134 9.69863 6.70136 9.69879L6.70136 9.69881Z" fill="white" stroke="white" stroke-width="0.703125"/>
</mask>
<g mask="url(#mask1_85465_13594)">
<path fill-rule="evenodd" clip-rule="evenodd" d="M6.56152 5.64941H7.87988V6.9881H6.56152V5.64941ZM9.19824 6.9881H7.87988V8.32679H6.56152V9.66548L7.87988 9.66548V11.0042H6.56152V12.3429H7.87988V11.0042H9.19824V12.3429H10.5166V11.0042H11.835V12.3429H13.1533V11.0042H11.835V9.66548L13.1533 9.66548V8.32679H11.835V6.9881H13.1533V5.64941H11.835V6.9881H10.5166V5.64941H9.19824V6.9881ZM9.19824 8.32679V6.9881H10.5166V8.32679H9.19824ZM9.19824 9.66548V8.32679H7.87988V9.66548H9.19824ZM10.5166 9.66548V11.0042H9.19824V9.66548H10.5166ZM10.5166 9.66548V8.32679H11.835V9.66548H10.5166Z" fill="#F50100"/>
</g>
<path fill-rule="evenodd" clip-rule="evenodd" d="M6.53316 5.10165C6.53316 5.10165 6.94093 4.88384 7.28873 4.77159C7.63653 4.65935 7.91143 4.59802 7.91143 4.59802L7.39397 2.69046L6.35752 2.30322L5.77051 3.27079L6.53316 5.10165Z" fill="#56C6F5" stroke="white" stroke-width="0.5"/>
<path d="M6.36328 4.05681L6.48238 3.9994C6.60537 4.26247 6.76748 4.34373 6.9897 4.2608C7.21668 4.17609 7.30922 4.01591 7.27656 3.76196L7.40729 3.74463C7.44783 4.05986 7.32071 4.27989 7.03517 4.38645C6.74487 4.49479 6.51392 4.37903 6.36328 4.05681Z" fill="white"/>
<path fill-rule="evenodd" clip-rule="evenodd" d="M6.64512 3.4638L6.53126 3.53277C6.50607 3.54804 6.47474 3.5261 6.48047 3.49721L6.50634 3.36662L6.38967 3.3025C6.36386 3.28831 6.36719 3.25022 6.39508 3.24073L6.5211 3.19784L6.5183 3.06474C6.51768 3.03529 6.55234 3.01913 6.5745 3.03854L6.67466 3.12624L6.78852 3.05726C6.81371 3.042 6.84504 3.06394 6.83931 3.09283L6.81344 3.22342L6.93011 3.28754C6.95592 3.30172 6.95259 3.33982 6.9247 3.34931L6.79868 3.3922L6.80148 3.52529C6.8021 3.55474 6.76744 3.5709 6.74528 3.5515L6.64512 3.4638Z" fill="#FECA00"/>
<path fill-rule="evenodd" clip-rule="evenodd" d="M9.08801 4.4223C9.08801 4.4223 9.43576 4.39126 9.80116 4.39836C10.1666 4.40546 10.4757 4.40806 10.4757 4.40806L10.6541 2.52713L9.87144 1.82002L9.0014 2.54375L9.08801 4.4223Z" fill="#56C6F5" stroke="white" stroke-width="0.5"/>
<path fill-rule="evenodd" clip-rule="evenodd" d="M9.844 4.11539C10.1455 4.11539 10.1743 3.78979 10.1743 3.56799C10.0973 3.44497 10.1128 3.35693 9.8657 3.35693C9.61861 3.35693 9.5904 3.4316 9.51831 3.56799C9.51831 3.78979 9.54254 4.11539 9.844 4.11539Z" fill="#FECA00"/>
<path fill-rule="evenodd" clip-rule="evenodd" d="M10.1831 3.19547C10.4846 3.19547 10.5135 2.86987 10.5135 2.64807C10.4364 2.52505 10.4519 2.43701 10.2048 2.43701C9.95772 2.43701 9.92951 2.51168 9.85742 2.64807C9.85742 2.86987 9.88165 3.19547 10.1831 3.19547Z" fill="#FECA00"/>
<path fill-rule="evenodd" clip-rule="evenodd" d="M9.52393 3.19547C9.8254 3.19547 9.85427 2.86987 9.85427 2.64807C9.77719 2.52505 9.79272 2.43701 9.54563 2.43701C9.29854 2.43701 9.27034 2.51168 9.19824 2.64807C9.19824 2.86987 9.22247 3.19547 9.52393 3.19547Z" fill="#FECA00"/>
<path d="M7.64284 4.62646L7.71487 4.87115L7.95804 4.79422L7.95805 4.79422L7.95807 4.79421L7.95818 4.79418L7.95886 4.79396L7.9619 4.79301L7.97429 4.78916L8.02138 4.77483C8.06164 4.76274 8.11778 4.74629 8.18114 4.72885C8.31137 4.69299 8.45946 4.65653 8.56352 4.64207C8.67587 4.62646 8.8175 4.61486 8.93442 4.60713C8.99216 4.60331 9.04253 4.60051 9.0784 4.59868L9.12028 4.59664L9.13128 4.59615L9.134 4.59603L9.13463 4.59601L9.13475 4.596H9.13475L9.13476 4.596L9.13477 4.596L9.39604 4.58527L9.37356 4.32473L9.21589 2.49697L9.20594 2.38165L9.11157 2.31463L8.25987 1.70975L8.08451 1.5852L7.93518 1.74001L7.16113 2.54246L7.06017 2.64712L7.10124 2.78662L7.64284 4.62646Z" fill="#2E42A5" stroke="white" stroke-width="0.5"/>
<mask id="mask2_85465_13594" style="mask-type:luminance" maskUnits="userSpaceOnUse" x="6" y="1" width="4" height="5">
<path d="M7.64284 4.62646L7.71487 4.87115L7.95804 4.79422L7.95805 4.79422L7.95807 4.79421L7.95818 4.79418L7.95886 4.79396L7.9619 4.79301L7.97429 4.78916L8.02138 4.77483C8.06164 4.76274 8.11778 4.74629 8.18114 4.72885C8.31137 4.69299 8.45946 4.65653 8.56352 4.64207C8.67587 4.62646 8.8175 4.61486 8.93442 4.60713C8.99216 4.60331 9.04253 4.60051 9.0784 4.59868L9.12028 4.59664L9.13128 4.59615L9.134 4.59603L9.13463 4.59601L9.13475 4.596H9.13475L9.13476 4.596L9.13477 4.596L9.39604 4.58527L9.37356 4.32473L9.21589 2.49697L9.20594 2.38165L9.11157 2.31463L8.25987 1.70975L8.08451 1.5852L7.93518 1.74001L7.16113 2.54246L7.06017 2.64712L7.10124 2.78662L7.64284 4.62646Z" fill="white" stroke="white" stroke-width="0.5"/>
</mask>
<g mask="url(#mask2_85465_13594)">
<path d="M7.77277 4.14844L7.61621 3.77964C7.95247 3.63246 8.52049 3.54215 9.11822 3.50684L9.14119 3.90776C8.58552 3.94059 8.0599 4.02277 7.77277 4.14844Z" fill="#C51918"/>
<path d="M7.50837 3.25639L7.35181 2.88759C7.68806 2.7404 8.41082 2.62125 9.00855 2.58594L9.03152 2.98687C8.47585 3.01969 7.79549 3.13071 7.50837 3.25639Z" fill="#C51918"/>
</g>
<path d="M11.9884 4.621L11.9204 4.87292L11.6716 4.79422L11.6716 4.79422L11.6716 4.79421L11.6715 4.79418L11.6708 4.79396L11.6678 4.79301L11.6554 4.78916L11.6083 4.77483C11.568 4.76274 11.5119 4.74629 11.4486 4.72885C11.3183 4.69299 11.1702 4.65653 11.0662 4.64207C10.9538 4.62646 10.8122 4.61486 10.6953 4.60713C10.6375 4.60331 10.5872 4.60051 10.5513 4.59868L10.5094 4.59664L10.4984 4.59615L10.4957 4.59603L10.4951 4.59601L10.4949 4.596H10.4949L10.4949 4.596L10.4949 4.596L10.2337 4.58527L10.2561 4.32473L10.4138 2.49697L10.4237 2.38165L10.5181 2.31463L11.3698 1.70975L11.5501 1.5817L11.6992 1.74502L12.429 2.54443L12.5215 2.64572L12.4857 2.77813L11.9884 4.621Z" fill="#2E42A5" stroke="white" stroke-width="0.5"/>
<mask id="mask3_85465_13594" style="mask-type:luminance" maskUnits="userSpaceOnUse" x="9" y="1" width="4" height="5">
<path d="M11.9884 4.621L11.9204 4.87292L11.6716 4.79422L11.6716 4.79422L11.6716 4.79421L11.6715 4.79418L11.6708 4.79396L11.6678 4.79301L11.6554 4.78916L11.6083 4.77483C11.568 4.76274 11.5119 4.74629 11.4486 4.72885C11.3183 4.69299 11.1702 4.65653 11.0662 4.64207C10.9538 4.62646 10.8122 4.61486 10.6953 4.60713C10.6375 4.60331 10.5872 4.60051 10.5513 4.59868L10.5094 4.59664L10.4984 4.59615L10.4957 4.59603L10.4951 4.59601L10.4949 4.596H10.4949L10.4949 4.596L10.4949 4.596L10.2337 4.58527L10.2561 4.32473L10.4138 2.49697L10.4237 2.38165L10.5181 2.31463L11.3698 1.70975L11.5501 1.5817L11.6992 1.74502L12.429 2.54443L12.5215 2.64572L12.4857 2.77813L11.9884 4.621Z" fill="white" stroke="white" stroke-width="0.5"/>
</mask>
<g mask="url(#mask3_85465_13594)">
<path fill-rule="evenodd" clip-rule="evenodd" d="M11.4985 4.04156C11.4985 4.04156 11.6822 3.9393 11.7087 3.76687C11.7352 3.59444 12.0194 3.38207 11.8773 3.40735C11.7352 3.43262 11.8165 3.45237 11.6107 3.40735C11.4049 3.36233 11.1386 3.33255 11.1386 3.20606C11.1386 3.07957 11.271 2.97917 11.1628 2.97917C11.0546 2.97917 10.8237 2.85945 10.8701 2.95096C10.9164 3.04247 10.7634 2.939 10.8399 3.12897C10.9164 3.31895 10.8237 3.51034 10.8701 3.5607C10.9164 3.61106 10.8399 3.85805 10.8399 3.85805C10.8399 3.85805 10.868 3.94979 10.9172 3.81239C10.9664 3.67498 11.0739 3.57867 11.0201 3.69553C10.9664 3.81239 10.8977 4.09034 10.9589 4.04156C11.0201 3.99279 11.081 3.8579 11.081 3.81239C11.081 3.76687 11.2354 3.58821 11.2354 3.72313C11.2354 3.85805 11.0901 3.96431 11.1628 3.96431C11.2354 3.96431 11.2762 3.99298 11.3218 3.85805C11.3675 3.72313 11.4784 3.63387 11.5239 3.72313C11.5694 3.81239 11.5594 3.80762 11.4985 3.92459C11.4377 4.04156 11.4985 4.04156 11.4985 4.04156Z" fill="#FECA00"/>
<path fill-rule="evenodd" clip-rule="evenodd" d="M11.067 3.0413L10.9986 2.92685C11.1214 2.85122 11.2341 2.83107 11.333 2.87323C11.378 2.89241 11.412 2.91425 11.5003 2.97641L11.5119 2.98452C11.6039 3.04905 11.6526 3.07534 11.6826 3.07534V3.20921C11.6139 3.20921 11.5546 3.17717 11.4369 3.09467L11.4252 3.08645C11.3457 3.0305 11.315 3.01072 11.282 2.99668C11.2273 2.97335 11.1568 2.98595 11.067 3.0413ZM10.8506 3.91438C10.8894 3.91438 10.9209 3.88329 10.9209 3.84494C10.9209 3.80659 10.8894 3.77549 10.8506 3.77549C10.8118 3.77549 10.7803 3.80659 10.7803 3.84494C10.7803 3.88329 10.8118 3.91438 10.8506 3.91438ZM11.0527 3.97881C11.0527 4.01716 11.0213 4.04825 10.9824 4.04825C10.9436 4.04825 10.9121 4.01716 10.9121 3.97881C10.9121 3.94045 10.9436 3.90936 10.9824 3.90936C11.0213 3.90936 11.0527 3.94045 11.0527 3.97881ZM11.2192 4.04309C11.2581 4.04309 11.2896 4.012 11.2896 3.97365C11.2896 3.93529 11.2581 3.9042 11.2192 3.9042C11.1804 3.9042 11.1489 3.93529 11.1489 3.97365C11.1489 4.012 11.1804 4.04309 11.2192 4.04309ZM11.5098 4.08478C11.5098 4.12313 11.4784 4.15423 11.4395 4.15423C11.4007 4.15423 11.3692 4.12313 11.3692 4.08478C11.3692 4.04643 11.4007 4.01534 11.4395 4.01534C11.4784 4.01534 11.5098 4.04643 11.5098 4.08478Z" fill="#C51918"/>
</g>
<path d="M13.4312 5.15356L13.3233 5.40229L13.0842 5.27456L13.0842 5.27456L13.0841 5.27455L13.0841 5.27454L13.0841 5.27451L13.0834 5.27417L13.0805 5.2726L13.068 5.26607C13.0569 5.26029 13.0405 5.25177 13.0195 5.24114C12.9776 5.21986 12.9181 5.19025 12.848 5.15726C12.7062 5.09047 12.5285 5.01317 12.3695 4.96188C12.2011 4.90752 12.0501 4.86541 11.9413 4.83694C11.8869 4.82272 11.8433 4.81195 11.8136 4.8048L11.7798 4.79681L11.7714 4.7949L11.7695 4.79447L11.7692 4.79439L11.7692 4.79438L11.7692 4.79438L11.7691 4.79438L11.7691 4.79438L11.5107 4.73673L11.5832 4.48203L12.1119 2.6221L12.1465 2.50051L12.2649 2.45627L13.3013 2.06903L13.4952 1.9966L13.6026 2.17355L14.1896 3.14111L14.2567 3.25168L14.2052 3.37032L13.4312 5.15356Z" fill="#56C6F5" stroke="white" stroke-width="0.5"/>
<mask id="mask4_85465_13594" style="mask-type:luminance" maskUnits="userSpaceOnUse" x="11" y="1" width="4" height="5">
<path d="M13.4312 5.15356L13.3233 5.40229L13.0842 5.27456L13.0842 5.27456L13.0841 5.27455L13.0841 5.27454L13.0841 5.27451L13.0834 5.27417L13.0805 5.2726L13.068 5.26607C13.0569 5.26029 13.0405 5.25177 13.0195 5.24114C12.9776 5.21986 12.9181 5.19025 12.848 5.15726C12.7062 5.09047 12.5285 5.01317 12.3695 4.96188C12.2011 4.90752 12.0501 4.86541 11.9413 4.83694C11.8869 4.82272 11.8433 4.81195 11.8136 4.8048L11.7798 4.79681L11.7714 4.7949L11.7695 4.79447L11.7692 4.79439L11.7692 4.79438L11.7692 4.79438L11.7691 4.79438L11.7691 4.79438L11.5107 4.73673L11.5832 4.48203L12.1119 2.6221L12.1465 2.50051L12.2649 2.45627L13.3013 2.06903L13.4952 1.9966L13.6026 2.17355L14.1896 3.14111L14.2567 3.25168L14.2052 3.37032L13.4312 5.15356Z" fill="white" stroke="white" stroke-width="0.5"/>
</mask>
<g mask="url(#mask4_85465_13594)">
<path fill-rule="evenodd" clip-rule="evenodd" d="M13.2046 3.1809L13.1159 3.28015C13.0962 3.30212 13.0599 3.2903 13.0569 3.26099L13.0435 3.12855L12.9131 3.10134C12.8843 3.09532 12.8764 3.05791 12.9003 3.04068L13.0082 2.96282L12.9666 2.83636C12.9574 2.80838 12.9859 2.78279 13.0127 2.79487L13.1341 2.84945L13.2229 2.7502C13.2425 2.72824 13.2789 2.74006 13.2818 2.76937L13.2953 2.90181L13.4256 2.92902C13.4544 2.93504 13.4624 2.97245 13.4385 2.98968L13.3305 3.06754L13.3721 3.19399C13.3813 3.22198 13.3529 3.24757 13.326 3.23549L13.2046 3.1809Z" fill="#FECA00"/>
<path d="M11.8721 4.05485L12.0048 3.53662C12.5928 3.69193 13.2057 3.89099 13.6554 4.08347L13.4505 4.57689C13.0258 4.39506 12.4367 4.20399 11.8721 4.05485Z" fill="#E31D1C"/>
<path d="M12.052 3.57633L12.0833 3.44629C12.647 3.58618 13.2461 3.80938 13.6815 4.01727L13.6254 4.13841C13.1984 3.93452 12.6075 3.71419 12.052 3.57633Z" fill="white"/>
<path d="M11.885 4.11051L11.9163 3.98047C12.48 4.12036 13.001 4.31016 13.4364 4.51805L13.3803 4.6392C12.9533 4.4353 12.4405 4.24837 11.885 4.11051Z" fill="white"/>
<path d="M12.1394 3.85919L12.2601 3.80469C12.3109 3.92363 12.3737 3.94984 12.4786 3.89886C12.7265 3.77844 13.3412 3.94672 13.3412 4.17361C13.3412 4.26213 13.2899 4.3158 13.2116 4.31269C13.1673 4.31093 13.1202 4.29346 13.0509 4.25924C13.0425 4.25509 13.037 4.25231 13.0234 4.24538C12.9469 4.20634 12.941 4.2035 12.9207 4.19615L12.9643 4.06825C12.9925 4.07842 12.997 4.0806 13.082 4.12396C13.0951 4.13063 13.1002 4.13321 13.1081 4.13708C13.1611 4.16332 13.1966 4.17645 13.2166 4.17724C13.2185 4.17732 13.2094 4.18688 13.2094 4.17361C13.2094 4.07378 12.709 3.93682 12.5349 4.0214C12.3613 4.10575 12.2194 4.0465 12.1394 3.85919Z" fill="#272727"/>
</g>
</g>
</g>
<rect x="0.5" y="0.5" width="19" height="14" rx="0.5" stroke="black" stroke-opacity="0.1"/>
<defs>
<clipPath id="clip0_85465_13594">
<rect width="20" height="15" rx="1" fill="white"/>
</clipPath>
</defs>
</svg>
