<svg width="20" height="15" viewBox="0 0 20 15" fill="none" xmlns="http://www.w3.org/2000/svg">
<g clip-path="url(#clip0_85465_13653)">
<rect width="20" height="15" rx="1" fill="white"/>
<path fill-rule="evenodd" clip-rule="evenodd" d="M0 0V15H20V0H0Z" fill="#2E42A5"/>
<mask id="mask0_85465_13653" style="mask-type:luminance" maskUnits="userSpaceOnUse" x="0" y="0" width="20" height="15">
<path fill-rule="evenodd" clip-rule="evenodd" d="M0 0V15H20V0H0Z" fill="white"/>
</mask>
<g mask="url(#mask0_85465_13653)">
<path fill-rule="evenodd" clip-rule="evenodd" d="M0 7.5V15H20V7.5H0Z" fill="#E31D1C"/>
<rect x="6.25" y="5" width="7.5" height="5" fill="white"/>
<mask id="mask1_85465_13653" style="mask-type:luminance" maskUnits="userSpaceOnUse" x="6" y="5" width="8" height="5">
<rect x="6.25" y="5" width="7.5" height="5" fill="white"/>
</mask>
<g mask="url(#mask1_85465_13653)">
<path fill-rule="evenodd" clip-rule="evenodd" d="M6.25 9.11114C6.25 9.11114 8.05021 8.63781 10 8.6667C11.9498 8.69559 13.75 9.22226 13.75 9.22226V10H6.25V9.11114Z" fill="#279E19"/>
<path d="M10.046 5.56338C10.046 5.56338 9.46411 5.30127 9.0579 5.30127C8.65169 5.30127 8.42603 5.70134 8.42603 5.70134" stroke="#026A16" stroke-width="0.5"/>
<path d="M10.1754 5.82628C10.1754 5.82628 9.63992 5.63477 9.26613 5.63477C8.89234 5.63477 8.68469 5.92708 8.68469 5.92708" stroke="#026A16" stroke-width="0.5"/>
<path d="M10.1754 6.04845C10.1754 6.04845 9.77927 5.85693 9.50276 5.85693C9.22624 5.85693 9.07263 6.14924 9.07263 6.14924" stroke="#026A16" stroke-width="0.5"/>
<path d="M10.0125 6.27061C10.0125 6.27061 9.76775 6.0791 9.59691 6.0791C9.42608 6.0791 9.33118 6.37141 9.33118 6.37141" stroke="#026A16" stroke-width="0.5"/>
<path d="M9.99152 6.42218C9.99152 6.42218 9.89367 6.30127 9.82537 6.30127C9.75706 6.30127 9.71912 6.48582 9.71912 6.48582" stroke="#026A16" stroke-width="0.5"/>
<path d="M9.95398 5.56338C9.95398 5.56338 10.5359 5.30127 10.9421 5.30127C11.3483 5.30127 11.574 5.70134 11.574 5.70134" stroke="#026A16" stroke-width="0.5"/>
<path d="M9.82462 5.82628C9.82462 5.82628 10.3601 5.63477 10.7339 5.63477C11.1077 5.63477 11.3153 5.92708 11.3153 5.92708" stroke="#026A16" stroke-width="0.5"/>
<path d="M9.82462 6.04845C9.82462 6.04845 10.2207 5.85693 10.4972 5.85693C10.7738 5.85693 10.9274 6.14924 10.9274 6.14924" stroke="#026A16" stroke-width="0.5"/>
<path d="M9.98753 6.27061C9.98753 6.27061 10.2323 6.0791 10.4031 6.0791C10.5739 6.0791 10.6688 6.37141 10.6688 6.37141" stroke="#026A16" stroke-width="0.5"/>
<path d="M10.0085 6.42218C10.0085 6.42218 10.1063 6.30127 10.1746 6.30127C10.2429 6.30127 10.2809 6.48582 10.2809 6.48582" stroke="#026A16" stroke-width="0.5"/>
<path fill-rule="evenodd" clip-rule="evenodd" d="M9.92981 6.49902C9.92981 6.49902 9.8584 7.33491 9.8584 7.67509C9.8584 8.01528 9.92981 8.7493 9.92981 8.7493H10.1135C10.1135 8.7493 10.1135 7.95908 10.1135 7.67509C10.1135 7.3911 10.0057 6.49902 10.0057 6.49902H9.92981Z" fill="#FECA00"/>
<path fill-rule="evenodd" clip-rule="evenodd" d="M9.2075 7.44922C9.2075 7.44922 8.75488 7.69148 8.75488 8.40867L9.2075 9.27464H10.0243V7.84856L9.2075 7.44922Z" fill="#C51918"/>
<path fill-rule="evenodd" clip-rule="evenodd" d="M8.53686 6.76611C8.53686 6.76611 7.4801 7.07918 7.4801 8.23405L8.84923 8.35085C8.84923 8.35085 8.77445 7.67989 9.19577 7.36952L8.53686 6.76611Z" fill="#0A328C"/>
<path d="M8.10059 6.32568L9.91338 7.98697" stroke="#FFD018" stroke-width="0.5"/>
<path d="M7.47107 6.70166L9.99948 8.34352" stroke="#FFD018" stroke-width="0.5"/>
<path d="M7.03577 7.3374L9.88551 8.6407" stroke="#FFD018" stroke-width="0.5"/>
<path fill-rule="evenodd" clip-rule="evenodd" d="M7.48743 8.2251L9.37846 8.43653L9.272 8.70044H8.9722L9.17638 8.84955L9.63682 8.95731V8.70044H10.0401V9.24617H9.17638L8.84512 8.84955C8.84512 8.84955 8.5669 9.12381 8.29537 9.12381C8.02385 9.12381 7.75615 9.03474 7.75615 8.73563C7.75615 8.43653 7.75615 8.52754 7.75615 8.52754L7.48743 8.43653V8.2251Z" fill="#FECA00"/>
<path fill-rule="evenodd" clip-rule="evenodd" d="M10.534 7.44922C10.534 7.44922 10.9866 7.69148 10.9866 8.40867L10.534 9.27464H9.71713V7.84856L10.534 7.44922Z" fill="#C51918"/>
<path fill-rule="evenodd" clip-rule="evenodd" d="M11.2046 6.76611C11.2046 6.76611 12.2614 7.07918 12.2614 8.23405L10.8922 8.35085C10.8922 8.35085 10.967 7.67989 10.5457 7.36952L11.2046 6.76611Z" fill="#0A328C"/>
<path d="M11.6409 6.32568L9.82808 7.98697" stroke="#FFD018" stroke-width="0.5"/>
<path d="M12.2704 6.70166L9.74197 8.34352" stroke="#FFD018" stroke-width="0.5"/>
<path d="M12.7057 7.3374L9.85594 8.6407" stroke="#FFD018" stroke-width="0.5"/>
<path fill-rule="evenodd" clip-rule="evenodd" d="M12.254 8.2251L10.363 8.43653L10.4695 8.70044H10.7693L10.5651 8.84955L10.1046 8.95731V8.70044H9.70139V9.24617H10.5651L10.8963 8.84955C10.8963 8.84955 11.1746 9.12381 11.4461 9.12381C11.7176 9.12381 11.9853 9.03474 11.9853 8.73563C11.9853 8.43653 11.9853 8.52754 11.9853 8.52754L12.254 8.43653V8.2251Z" fill="#FECA00"/>
</g>
</g>
</g>
<rect x="0.5" y="0.5" width="19" height="14" rx="0.5" stroke="black" stroke-opacity="0.1"/>
<defs>
<clipPath id="clip0_85465_13653">
<rect width="20" height="15" rx="1" fill="white"/>
</clipPath>
</defs>
</svg>
