<svg width="20" height="15" viewBox="0 0 20 15" fill="none" xmlns="http://www.w3.org/2000/svg">
<g clip-path="url(#clip0_85465_13723)">
<rect width="20" height="15" rx="1" fill="white"/>
<path fill-rule="evenodd" clip-rule="evenodd" d="M0 0V15H20V0H0Z" fill="#E31D1C"/>
<mask id="mask0_85465_13723" style="mask-type:luminance" maskUnits="userSpaceOnUse" x="0" y="0" width="20" height="15">
<path fill-rule="evenodd" clip-rule="evenodd" d="M0 0V15H20V0H0Z" fill="white"/>
</mask>
<g mask="url(#mask0_85465_13723)">
<path fill-rule="evenodd" clip-rule="evenodd" d="M3.80849 2.58801C3.80368 2.53018 3.87288 2.50214 3.91201 2.54498C4.19272 2.85227 4.93463 3.61725 5.36368 3.61725C5.90056 3.61725 8.00905 1.8406 8.63227 2.13002C9.25549 2.41944 10.5173 5.44546 10.5173 5.44546L9.69503 6.47688L8.63227 5.89711L8.43141 3.61725C8.43141 3.61725 6.38575 4.66943 5.36368 4.28751L4.78913 4.7703C4.78913 4.7703 4.23582 3.67467 4.01794 3.33956C3.87377 3.11784 3.82499 2.7867 3.80849 2.58801Z" fill="#F7FCFF"/>
<path fill-rule="evenodd" clip-rule="evenodd" d="M5.16372 5.07779L4.81385 5.28977L4.88067 4.84079L4.59761 4.52283L4.98878 4.45732L5.16372 4.04883L5.33866 4.45732L5.72982 4.52283L5.44677 4.84079L5.51359 5.28977L5.16372 5.07779Z" fill="#FECA00"/>
<path fill-rule="evenodd" clip-rule="evenodd" d="M8.13293 2.36976C8.13293 2.24456 8.23443 2.14307 8.35963 2.14307C8.48483 2.14307 8.58633 2.24456 8.58633 2.36976V3.44076C8.58633 3.56596 8.48483 3.66746 8.35963 3.66746C8.23443 3.66746 8.13293 3.56596 8.13293 3.44076L8.13293 2.36976Z" fill="#FECA00"/>
<path fill-rule="evenodd" clip-rule="evenodd" d="M15.7627 3.18946C15.8143 3.21603 15.8014 3.28957 15.7443 3.30006C15.335 3.37527 14.2931 3.59906 14.0657 3.96292C13.7812 4.41822 14.1706 7.14781 13.5949 7.52296C13.0192 7.89811 9.78433 7.36464 9.78433 7.36464L9.34538 6.12075L10.4002 5.52671L12.4401 6.56451C12.4401 6.56451 12.6318 4.27212 13.4973 3.60774L13.3924 2.86465C13.3924 2.86465 14.6147 2.97602 15.0144 2.96882C15.2788 2.96406 15.5855 3.09817 15.7627 3.18946Z" fill="#F7FCFF"/>
<path fill-rule="evenodd" clip-rule="evenodd" d="M12.9332 3.01958L12.9388 2.61054L13.2842 2.90513L13.7038 2.83358L13.5521 3.20003L13.8058 3.56485L13.3667 3.49674L13.1038 3.79375L12.9842 3.38521L12.568 3.20396L12.9332 3.01958Z" fill="#FECA00"/>
<path fill-rule="evenodd" clip-rule="evenodd" d="M13.6964 7.0028C13.8086 7.07243 13.8455 7.21855 13.7796 7.33306C13.7089 7.4559 13.5491 7.49333 13.4313 7.41462L12.4634 6.76819C12.3766 6.71019 12.341 6.6001 12.3774 6.50223C12.427 6.36886 12.5864 6.31435 12.7073 6.38936L13.6964 7.0028Z" fill="#FECA00"/>
<path fill-rule="evenodd" clip-rule="evenodd" d="M9.28916 13.1146C9.24036 13.146 9.18311 13.0981 9.20257 13.0434C9.3421 12.6513 9.66924 11.6371 9.46781 11.2583C9.21576 10.7842 6.65719 9.75663 6.62015 9.07049C6.58311 8.38434 8.66254 5.84959 8.66254 5.84959L9.95926 6.0914L9.94629 7.30194L8.02759 8.54962C8.02759 8.54962 9.91699 9.86186 10.0596 10.9436L10.7556 11.2242C10.7556 11.2242 10.048 12.2272 9.85441 12.5769C9.72632 12.8082 9.45684 13.0068 9.28916 13.1146Z" fill="#F7FCFF"/>
<path fill-rule="evenodd" clip-rule="evenodd" d="M10.8511 10.7492L11.2025 10.9586L10.7747 11.1104L10.6269 11.5096L10.3854 11.1949L9.9426 11.2322L10.2211 10.886L10.0953 10.5099L10.509 10.6105L10.874 10.3407L10.8511 10.7492Z" fill="#FECA00"/>
<path fill-rule="evenodd" clip-rule="evenodd" d="M6.93973 9.34819C6.80031 9.40141 6.64527 9.32356 6.60467 9.17996C6.56908 9.05407 6.63491 8.92174 6.75678 8.87418L7.79946 8.4673C7.91531 8.42209 8.04693 8.46588 8.1126 8.57149C8.19832 8.70935 8.13707 8.89118 7.9854 8.94907L6.93973 9.34819Z" fill="#FECA00"/>
<path d="M8.53916 6.1029C8.46138 6.07572 8.41983 5.98909 8.44636 5.90941C8.4729 5.82973 8.59751 5.69663 8.6753 5.72381L9.76017 6.1029C9.81614 6.12246 9.85549 6.17412 9.86042 6.23449L9.95743 7.4244C9.96427 7.5083 9.84207 7.57617 9.76017 7.58317C9.67827 7.59018 9.60633 7.52785 9.59949 7.44395L9.50966 6.42067L8.53916 6.1029Z" fill="#FECA00"/>
<path d="M10.4254 5.47951C10.4903 5.42779 10.6061 5.48774 10.6566 5.55416C10.707 5.62059 10.6954 5.71637 10.6306 5.7681L9.87906 6.53836C9.81421 6.59008 9.66837 6.48919 9.61788 6.42276C9.56739 6.35633 9.55304 6.17538 9.61788 6.12366L10.4254 5.47951Z" fill="#FECA00"/>
</g>
</g>
<rect x="0.5" y="0.5" width="19" height="14" rx="0.5" stroke="black" stroke-opacity="0.1"/>
<defs>
<clipPath id="clip0_85465_13723">
<rect width="20" height="15" rx="1" fill="white"/>
</clipPath>
</defs>
</svg>
