<svg width="20" height="15" viewBox="0 0 20 15" fill="none" xmlns="http://www.w3.org/2000/svg">
<g clip-path="url(#clip0_85465_13755)">
<rect width="20" height="15" rx="1" fill="white"/>
<path fill-rule="evenodd" clip-rule="evenodd" d="M0 0V15H20V0H0Z" fill="#F7FCFF"/>
<mask id="mask0_85465_13755" style="mask-type:luminance" maskUnits="userSpaceOnUse" x="0" y="0" width="20" height="15">
<path fill-rule="evenodd" clip-rule="evenodd" d="M0 0V15H20V0H0Z" fill="white"/>
</mask>
<g mask="url(#mask0_85465_13755)">
<path fill-rule="evenodd" clip-rule="evenodd" d="M-0.941162 1.65728L-0.0116966 2.54292C0.75582 1.81739 1.48002 1.4751 2.16825 1.4751C2.50076 1.4751 2.64237 1.55541 3.02585 1.91792C3.63412 2.49291 4.04349 2.7251 4.81292 2.7251C5.58235 2.7251 5.99172 2.49291 6.59999 1.91792C6.98348 1.55541 7.12508 1.4751 7.4576 1.4751C7.79012 1.4751 7.93172 1.55541 8.3152 1.91792C8.92348 2.49291 9.33284 2.7251 10.1023 2.7251C10.8717 2.7251 11.2811 2.49291 11.8893 1.91792C12.2728 1.55541 12.4144 1.4751 12.747 1.4751C13.0795 1.4751 13.2211 1.55541 13.6046 1.91792C14.2128 2.49291 14.6222 2.7251 15.3916 2.7251C16.1611 2.7251 16.5704 2.49291 17.1787 1.91792C17.5622 1.55541 17.7038 1.4751 18.0363 1.4751C18.7245 1.4751 19.4487 1.81739 20.2162 2.54292L21.1457 1.65728C20.1501 0.71614 19.1112 0.225098 18.0363 0.225098C17.2669 0.225098 16.8575 0.457282 16.2492 1.03228C15.8657 1.39478 15.7241 1.4751 15.3916 1.4751C15.0591 1.4751 14.9175 1.39478 14.534 1.03228C13.9258 0.457282 13.5164 0.225098 12.747 0.225098C11.9775 0.225098 11.5682 0.457282 10.9599 1.03228C10.5764 1.39478 10.4348 1.4751 10.1023 1.4751C9.76976 1.4751 9.62815 1.39478 9.24467 1.03228C8.6364 0.457282 8.22703 0.225098 7.4576 0.225098C6.68817 0.225098 6.2788 0.457282 5.67053 1.03228C5.28705 1.39478 5.14544 1.4751 4.81292 1.4751C4.48041 1.4751 4.3388 1.39478 3.95532 1.03228C3.34705 0.457282 2.93768 0.225098 2.16825 0.225098C1.09336 0.225098 0.0544388 0.71614 -0.941162 1.65728ZM-0.0116966 5.04292L-0.941162 4.15728C0.0544388 3.21614 1.09336 2.7251 2.16825 2.7251C2.93768 2.7251 3.34705 2.95728 3.95532 3.53228C4.3388 3.89478 4.48041 3.9751 4.81292 3.9751C5.14544 3.9751 5.28705 3.89478 5.67053 3.53228C6.2788 2.95728 6.68817 2.7251 7.4576 2.7251C8.22703 2.7251 8.6364 2.95728 9.24467 3.53228C9.62815 3.89478 9.76976 3.9751 10.1023 3.9751C10.4348 3.9751 10.5764 3.89478 10.9599 3.53228C11.5682 2.95728 11.9775 2.7251 12.747 2.7251C13.5164 2.7251 13.9258 2.95728 14.534 3.53228C14.9175 3.89478 15.0591 3.9751 15.3916 3.9751C15.7241 3.9751 15.8657 3.89478 16.2492 3.53228C16.8575 2.95728 17.2669 2.7251 18.0363 2.7251C19.1112 2.7251 20.1501 3.21614 21.1457 4.15728L20.2162 5.04292C19.4487 4.31739 18.7245 3.9751 18.0363 3.9751C17.7038 3.9751 17.5622 4.05541 17.1787 4.41792C16.5704 4.99291 16.1611 5.2251 15.3916 5.2251C14.6222 5.2251 14.2128 4.99291 13.6046 4.41792C13.2211 4.05541 13.0795 3.9751 12.747 3.9751C12.4144 3.9751 12.2728 4.05541 11.8893 4.41792C11.2811 4.99291 10.8717 5.2251 10.1023 5.2251C9.33284 5.2251 8.92348 4.99291 8.3152 4.41792C7.93172 4.05541 7.79012 3.9751 7.4576 3.9751C7.12508 3.9751 6.98348 4.05541 6.59999 4.41792C5.99172 4.99291 5.58235 5.2251 4.81292 5.2251C4.04349 5.2251 3.63412 4.99291 3.02585 4.41792C2.64237 4.05541 2.50076 3.9751 2.16825 3.9751C1.48002 3.9751 0.75582 4.31739 -0.0116966 5.04292ZM-0.0116966 7.54292L-0.941162 6.65728C0.0544388 5.71614 1.09336 5.2251 2.16825 5.2251C2.93768 5.2251 3.34705 5.45728 3.95532 6.03228C4.3388 6.39478 4.48041 6.4751 4.81292 6.4751C5.14544 6.4751 5.28705 6.39478 5.67053 6.03228C6.2788 5.45728 6.68817 5.2251 7.4576 5.2251C8.22703 5.2251 8.6364 5.45728 9.24467 6.03228C9.62815 6.39478 9.76976 6.4751 10.1023 6.4751C10.4348 6.4751 10.5764 6.39478 10.9599 6.03228C11.5682 5.45728 11.9775 5.2251 12.747 5.2251C13.5164 5.2251 13.9258 5.45728 14.534 6.03228C14.9175 6.39478 15.0591 6.4751 15.3916 6.4751C15.7241 6.4751 15.8657 6.39478 16.2492 6.03228C16.8575 5.45728 17.2669 5.2251 18.0363 5.2251C19.1112 5.2251 20.1501 5.71614 21.1457 6.65728L20.2162 7.54292C19.4487 6.81739 18.7245 6.4751 18.0363 6.4751C17.7038 6.4751 17.5622 6.55541 17.1787 6.91792C16.5704 7.49291 16.1611 7.7251 15.3916 7.7251C14.6222 7.7251 14.2128 7.49291 13.6046 6.91792C13.2211 6.55541 13.0795 6.4751 12.747 6.4751C12.4144 6.4751 12.2728 6.55541 11.8893 6.91792C11.2811 7.49291 10.8717 7.7251 10.1023 7.7251C9.33284 7.7251 8.92348 7.49291 8.3152 6.91792C7.93172 6.55541 7.79012 6.4751 7.4576 6.4751C7.12508 6.4751 6.98348 6.55541 6.59999 6.91792C5.99172 7.49291 5.58235 7.7251 4.81292 7.7251C4.04349 7.7251 3.63412 7.49291 3.02585 6.91792C2.64237 6.55541 2.50076 6.4751 2.16825 6.4751C1.48002 6.4751 0.75582 6.81739 -0.0116966 7.54292ZM-0.0116966 10.0429L-0.941162 9.15728C0.0544388 8.21614 1.09336 7.7251 2.16825 7.7251C2.93768 7.7251 3.34705 7.95728 3.95532 8.53228C4.3388 8.89478 4.48041 8.9751 4.81292 8.9751C5.14544 8.9751 5.28705 8.89478 5.67053 8.53228C6.2788 7.95728 6.68817 7.7251 7.4576 7.7251C8.22703 7.7251 8.6364 7.95728 9.24467 8.53228C9.62815 8.89478 9.76976 8.9751 10.1023 8.9751C10.4348 8.9751 10.5764 8.89478 10.9599 8.53228C11.5682 7.95728 11.9775 7.7251 12.747 7.7251C13.5164 7.7251 13.9258 7.95728 14.534 8.53228C14.9175 8.89478 15.0591 8.9751 15.3916 8.9751C15.7241 8.9751 15.8657 8.89478 16.2492 8.53228C16.8575 7.95728 17.2669 7.7251 18.0363 7.7251C19.1112 7.7251 20.1501 8.21614 21.1457 9.15728L20.2162 10.0429C19.4487 9.31739 18.7245 8.9751 18.0363 8.9751C17.7038 8.9751 17.5622 9.05541 17.1787 9.41792C16.5704 9.99291 16.1611 10.2251 15.3916 10.2251C14.6222 10.2251 14.2128 9.99291 13.6046 9.41792C13.2211 9.05541 13.0795 8.9751 12.747 8.9751C12.4144 8.9751 12.2728 9.05541 11.8893 9.41792C11.2811 9.99291 10.8717 10.2251 10.1023 10.2251C9.33284 10.2251 8.92348 9.99291 8.3152 9.41792C7.93172 9.05541 7.79012 8.9751 7.4576 8.9751C7.12508 8.9751 6.98348 9.05541 6.59999 9.41792C5.99172 9.99291 5.58235 10.2251 4.81292 10.2251C4.04349 10.2251 3.63412 9.99291 3.02585 9.41792C2.64237 9.05541 2.50076 8.9751 2.16825 8.9751C1.48002 8.9751 0.75582 9.31739 -0.0116966 10.0429ZM-0.0116966 12.5429L-0.941162 11.6573C0.0544388 10.7161 1.09336 10.2251 2.16825 10.2251C2.93768 10.2251 3.34705 10.4573 3.95532 11.0323C4.3388 11.3948 4.48041 11.4751 4.81292 11.4751C5.14544 11.4751 5.28705 11.3948 5.67053 11.0323C6.2788 10.4573 6.68817 10.2251 7.4576 10.2251C8.22703 10.2251 8.6364 10.4573 9.24467 11.0323C9.62815 11.3948 9.76976 11.4751 10.1023 11.4751C10.4348 11.4751 10.5764 11.3948 10.9599 11.0323C11.5682 10.4573 11.9775 10.2251 12.747 10.2251C13.5164 10.2251 13.9258 10.4573 14.534 11.0323C14.9175 11.3948 15.0591 11.4751 15.3916 11.4751C15.7241 11.4751 15.8657 11.3948 16.2492 11.0323C16.8575 10.4573 17.2669 10.2251 18.0363 10.2251C19.1112 10.2251 20.1501 10.7161 21.1457 11.6573L20.2162 12.5429C19.4487 11.8174 18.7245 11.4751 18.0363 11.4751C17.7038 11.4751 17.5622 11.5554 17.1787 11.9179C16.5704 12.4929 16.1611 12.7251 15.3916 12.7251C14.6222 12.7251 14.2128 12.4929 13.6046 11.9179C13.2211 11.5554 13.0795 11.4751 12.747 11.4751C12.4144 11.4751 12.2728 11.5554 11.8893 11.9179C11.2811 12.4929 10.8717 12.7251 10.1023 12.7251C9.33284 12.7251 8.92348 12.4929 8.3152 11.9179C7.93172 11.5554 7.79012 11.4751 7.4576 11.4751C7.12508 11.4751 6.98348 11.5554 6.59999 11.9179C5.99172 12.4929 5.58235 12.7251 4.81292 12.7251C4.04349 12.7251 3.63412 12.4929 3.02585 11.9179C2.64237 11.5554 2.50076 11.4751 2.16825 11.4751C1.48002 11.4751 0.75582 11.8174 -0.0116966 12.5429ZM-0.0116966 15.0429L-0.941162 14.1573C0.0544388 13.2161 1.09336 12.7251 2.16825 12.7251C2.93768 12.7251 3.34705 12.9573 3.95532 13.5323C4.3388 13.8948 4.48041 13.9751 4.81292 13.9751C5.14544 13.9751 5.28705 13.8948 5.67053 13.5323C6.2788 12.9573 6.68817 12.7251 7.4576 12.7251C8.22703 12.7251 8.6364 12.9573 9.24467 13.5323C9.62815 13.8948 9.76976 13.9751 10.1023 13.9751C10.4348 13.9751 10.5764 13.8948 10.9599 13.5323C11.5682 12.9573 11.9775 12.7251 12.747 12.7251C13.5164 12.7251 13.9258 12.9573 14.534 13.5323C14.9175 13.8948 15.0591 13.9751 15.3916 13.9751C15.7241 13.9751 15.8657 13.8948 16.2492 13.5323C16.8575 12.9573 17.2669 12.7251 18.0363 12.7251C19.1112 12.7251 20.1501 13.2161 21.1457 14.1573L20.2162 15.0429C19.4487 14.3174 18.7245 13.9751 18.0363 13.9751C17.7038 13.9751 17.5622 14.0554 17.1787 14.4179C16.5704 14.9929 16.1611 15.2251 15.3916 15.2251C14.6222 15.2251 14.2128 14.9929 13.6046 14.4179C13.2211 14.0554 13.0795 13.9751 12.747 13.9751C12.4144 13.9751 12.2728 14.0554 11.8893 14.4179C11.2811 14.9929 10.8717 15.2251 10.1023 15.2251C9.33284 15.2251 8.92348 14.9929 8.3152 14.4179C7.93172 14.0554 7.79012 13.9751 7.4576 13.9751C7.12508 13.9751 6.98348 14.0554 6.59999 14.4179C5.99172 14.9929 5.58235 15.2251 4.81292 15.2251C4.04349 15.2251 3.63412 14.9929 3.02585 14.4179C2.64237 14.0554 2.50076 13.9751 2.16825 13.9751C1.48002 13.9751 0.75582 14.3174 -0.0116966 15.0429Z" fill="#2E42A5"/>
</g>
<g clip-path="url(#clip1_85465_13755)">
<rect width="11" height="9" fill="#2E42A5"/>
<path d="M-1.25269 8.1247L1.22291 9.21045L11.3062 1.18028L12.612 -0.433182L9.96468 -0.796071L5.85197 2.66436L2.54165 4.99588L-1.25269 8.1247Z" fill="#F7FCFF"/>
<path d="M-0.913818 8.88555L0.347383 9.51562L12.143 -0.582947H10.3721L-0.913818 8.88555Z" fill="#F50100"/>
<path d="M12.5027 8.1248L10.3056 9.52051L-0.0561562 1.18038L-1.36198 -0.433076L1.28532 -0.795966L5.39803 2.66447L8.70835 4.99599L12.5027 8.1248Z" fill="#F7FCFF"/>
<path d="M12.4182 8.6707L11.157 9.30078L6.13431 4.97706L4.64518 4.49398L-1.48763 -0.427604H0.283246L6.41261 4.37716L8.04071 4.95642L12.4182 8.6707Z" fill="#F50100"/>
<path fill-rule="evenodd" clip-rule="evenodd" d="M6 0H5V4H0V5H5V9H6V5H11V4H6V0Z" fill="#F50100"/>
<path fill-rule="evenodd" clip-rule="evenodd" d="M4.0625 0H6.9375V3.0625L11 3V5.875L6.9375 5.9375V9H4.0625V5.9375L0 5.875V3L4.0625 3.0625V0ZM5 4H0V5H5V9H6V5H11V4H6V0H5V4Z" fill="#F7FCFF"/>
</g>
<rect x="12.75" y="5.86182" width="0.625" height="7.88835" rx="0.3125" fill="#D86D00"/>
<path d="M12.7527 1.28613C13.3913 2.16189 13.4722 3.33789 13.3913 4.39148L12.8927 4.35538C12.9698 3.35032 12.7527 1.28613 12.7527 1.28613Z" fill="#449A01" stroke="white" stroke-width="0.15"/>
<path d="M13.5671 4.61537L13.1072 4.42491C13.5505 3.02209 15.7623 1.82764 15.7623 1.82764C14.7716 2.30102 14.4348 3.58453 13.5671 4.61537Z" fill="#449A01" stroke="white" stroke-width="0.15"/>
<path d="M13.3602 4.90687L13.1187 4.48185C14.301 3.65979 16.2111 3.48242 16.2111 3.48242C15.2257 3.76205 14.2305 4.44068 13.3602 4.90687Z" fill="#449A01" stroke="white" stroke-width="0.15"/>
<path d="M13.0527 5.11366L13.261 4.67236C15.5738 5.39027 15.9128 6.59067 15.9128 6.59067C15.6094 6.3228 14.6448 5.82205 13.0527 5.11366Z" fill="#449A01" stroke="white" stroke-width="0.15"/>
<path d="M12.8096 5.08105L13.3006 4.98975C13.4706 5.85155 13.9089 6.37374 14.1407 6.92694C14.1407 6.92694 12.8428 6.34723 12.8096 5.08105Z" fill="#449A01" stroke="white" stroke-width="0.15"/>
<path d="M12.7722 4.67725L13.3018 4.8104C12.433 5.87248 11.142 6.4304 10.6316 6.61279C10.6316 6.61279 11.7532 5.60113 12.7722 4.67725Z" fill="#449A01" stroke="white" stroke-width="0.15"/>
<path d="M13.0073 4.4471L12.9269 4.9406C11.8924 4.62508 10.0303 4.75727 10.0303 4.75727C10.8119 4.57215 11.8924 4.26546 13.0073 4.4471Z" fill="#449A01" stroke="white" stroke-width="0.15"/>
<path d="M13.0968 4.19454L12.8933 4.63799C11.3659 3.97758 10.5496 2.74316 10.5496 2.74316C10.6014 2.97023 11.748 3.61138 13.0968 4.19454Z" fill="#449A01" stroke="white" stroke-width="0.15"/>
<path fill-rule="evenodd" clip-rule="evenodd" d="M14.945 9.56736V9.47715C14.6569 9.24968 14.3553 9.13595 14.04 9.13595C13.7378 8.9888 13.4319 8.93168 13.1223 8.96459C13.1224 8.96354 13.1225 8.963 13.1225 8.963C12.657 8.91289 12.1879 9.13595 12.1879 9.13595C11.715 9.13595 11.283 9.47715 11.283 9.47715V9.56736L11.8478 10.1915C11.8478 10.1915 12.0068 10.7923 13.1202 10.6511V10.6526C13.1202 10.6526 13.8574 10.6305 13.9092 10.6115C13.9297 10.604 13.951 10.5972 13.9728 10.5902C14.1172 10.5438 14.282 10.4908 14.3801 10.1915L14.945 9.56736ZM13.1202 8.99219C13.1041 9.19999 13.0123 10.4527 13.1202 10.6469V8.99219Z" fill="#F50100"/>
<path fill-rule="evenodd" clip-rule="evenodd" d="M12.2003 8.86616C12.2604 8.66354 12.3655 8.59492 12.6216 8.59492C12.7806 8.59492 12.9007 8.63567 12.9843 8.71554V9.25703H13.029V9.31232C12.9986 9.33868 12.9841 9.39347 12.9955 9.45213C12.9993 9.47168 13.0056 9.48975 13.0138 9.50564C12.9934 9.49806 12.97 9.49373 12.945 9.49373C12.8676 9.49373 12.805 9.53511 12.805 9.58616C12.805 9.63721 12.8676 9.67859 12.945 9.67859C13.0223 9.67859 13.085 9.63721 13.085 9.58616C13.085 9.61187 13.1009 9.63514 13.1265 9.65189H13.0578H13.056C13.056 9.79111 12.9914 9.87984 12.8946 9.87984C12.827 9.87984 12.7795 9.84583 12.745 9.77088L12.6492 9.56283L12.6391 9.79576C12.6355 9.87789 12.603 9.91047 12.5222 9.91047C12.4438 9.91047 12.3875 9.85723 12.3494 9.7372C12.3608 9.73916 12.3727 9.7402 12.385 9.7402C12.4623 9.7402 12.525 9.69882 12.525 9.64778C12.525 9.59673 12.4623 9.55535 12.385 9.55535C12.3676 9.55535 12.351 9.55743 12.3357 9.56123C12.3419 9.53674 12.3427 9.5081 12.337 9.47847C12.3222 9.40257 12.2696 9.34894 12.2195 9.35868C12.1694 9.36842 12.1408 9.43785 12.1555 9.51375C12.1593 9.5333 12.1656 9.55137 12.1738 9.56726C12.1534 9.55968 12.13 9.55535 12.105 9.55535C12.0276 9.55535 11.965 9.59673 11.965 9.64778C11.965 9.69882 12.0276 9.7402 12.105 9.7402C12.1676 9.7402 12.2207 9.71301 12.2385 9.67552L12.2341 9.72989C12.2217 9.88325 12.1837 9.95523 12.1274 9.96531C12.0507 9.97904 11.9925 9.97253 11.9518 9.94832L11.8692 9.89911V9.98284C11.8432 9.98588 11.7986 9.98051 11.7376 9.96592L11.7281 10.0142L11.6297 9.9124C11.6585 9.91372 11.6916 9.90623 11.7233 9.88937C11.7916 9.85307 11.8275 9.7871 11.8035 9.74203C11.7796 9.69696 11.7048 9.68985 11.6365 9.72615C11.6173 9.73636 11.6007 9.74892 11.5872 9.7627C11.586 9.74875 11.5833 9.73431 11.5789 9.71981C11.5563 9.64586 11.4984 9.59802 11.4495 9.61295C11.4246 9.62056 11.4069 9.64304 11.3985 9.67305L11.3552 9.62821L11.3168 9.67309L11.3976 9.75672C11.3988 9.7624 11.4003 9.76812 11.4021 9.77385C11.4229 9.84195 11.4737 9.88791 11.5197 9.88309L11.7142 10.0844L11.7138 10.0863L11.7167 10.087L11.8305 10.2048C11.8471 10.2386 11.862 10.2698 11.8749 10.2984C11.8888 10.3595 11.9096 10.4273 11.9391 10.4687C11.9418 10.4807 11.9432 10.4907 11.9432 10.4986C11.9432 10.5621 12.0934 10.5998 12.3865 10.6385C12.6161 10.6689 12.8871 10.6892 13.1088 10.6923V10.6927L13.1369 10.6926L13.165 10.6927V10.6923C13.3867 10.6892 13.6577 10.6689 13.8874 10.6385C14.1805 10.5998 14.3307 10.5621 14.3307 10.4986C14.3307 10.4569 14.3684 10.3567 14.4434 10.2048L14.957 9.67309L14.9187 9.62821L14.7774 9.77441C14.78 9.76817 14.7824 9.76168 14.7844 9.75498C14.807 9.68103 14.7858 9.60899 14.737 9.59407C14.6881 9.57915 14.6302 9.62699 14.6076 9.70093C14.6032 9.71544 14.6005 9.72987 14.5993 9.74382C14.5858 9.73004 14.5692 9.71748 14.55 9.70727C14.4817 9.67098 14.4069 9.67809 14.383 9.72316C14.359 9.76823 14.3949 9.83419 14.4632 9.87049C14.5314 9.90679 14.6062 9.89968 14.6302 9.85461L14.6326 9.84949C14.6393 9.85508 14.6468 9.85929 14.6551 9.86184C14.6674 9.8656 14.6803 9.86537 14.6931 9.86173L14.5059 10.0555L14.4882 9.96592C14.4272 9.98051 14.3826 9.98588 14.3566 9.98284V9.89911L14.274 9.94832C14.2333 9.97253 14.1751 9.97904 14.0984 9.96531C14.0421 9.95523 14.0041 9.88325 13.9916 9.72989L13.9905 9.71618C14.0101 9.72729 14.0338 9.7354 14.0597 9.73905C14.1363 9.74981 14.2041 9.71755 14.2112 9.667C14.2183 9.61645 14.162 9.56675 14.0854 9.55599C14.0672 9.55343 14.0495 9.55331 14.033 9.55528C14.0431 9.53146 14.0483 9.50236 14.0467 9.47125C14.0426 9.39403 13.998 9.3336 13.9471 9.33628C13.8961 9.33895 13.858 9.40371 13.8621 9.48092C13.8631 9.49939 13.8663 9.51691 13.8715 9.53282C13.8531 9.52334 13.8316 9.5164 13.8082 9.51311C13.7316 9.50235 13.6638 9.53461 13.6567 9.58516C13.6495 9.63571 13.7059 9.68541 13.7824 9.69617C13.8251 9.70217 13.8651 9.69479 13.8934 9.67831L13.8824 9.71701C13.8443 9.85128 13.7862 9.91047 13.7035 9.91047C13.6228 9.91047 13.5903 9.87789 13.5867 9.79576L13.5766 9.56283L13.4808 9.77088C13.4463 9.84583 13.3988 9.87984 13.3311 9.87984C13.239 9.87984 13.176 9.79928 13.1702 9.67126C13.187 9.67598 13.2055 9.67859 13.225 9.67859C13.3023 9.67859 13.365 9.63721 13.365 9.58616C13.365 9.53511 13.3023 9.49373 13.225 9.49373C13.2076 9.49373 13.191 9.49581 13.1757 9.49961C13.1819 9.47512 13.1827 9.44648 13.177 9.41686C13.1715 9.38878 13.1609 9.36376 13.1471 9.34385H13.253V9.26655V8.72506C13.3365 8.64519 13.4566 8.60444 13.6156 8.60444C13.8717 8.60444 13.9768 8.67306 14.0369 8.87568C14.0752 9.0048 14.0381 9.11501 13.9177 9.21788L13.9864 9.31521C14.1209 9.2003 14.1802 9.06309 14.1594 8.91104C14.4474 8.90053 14.6627 8.93432 14.8041 9.01026C14.9272 9.07639 14.9497 9.24418 14.8566 9.53607L14.9623 9.57691C15.0719 9.23342 15.0406 9.00014 14.8532 8.89951C14.6882 8.81085 14.4476 8.77476 14.1303 8.78891L14.1306 8.79777C14.0505 8.56913 13.9007 8.4812 13.6156 8.4812C13.4708 8.4812 13.3496 8.51191 13.253 8.57412V8.54282H13.029V8.59708C12.9261 8.51307 12.7897 8.47168 12.6216 8.47168C12.3424 8.47168 12.1929 8.55605 12.1116 8.77441L12.1134 8.72729C11.7961 8.71314 11.5555 8.74923 11.3904 8.8379C11.203 8.93852 11.1717 9.1718 11.2814 9.51529L11.387 9.47445C11.2939 9.18257 11.3164 9.01477 11.4395 8.94864C11.5815 8.87237 11.798 8.83862 12.0879 8.84956C12.0446 9.02236 12.1012 9.17782 12.2508 9.30569L12.3195 9.20836C12.1991 9.10549 12.162 8.99528 12.2003 8.86616ZM13.085 9.58616C13.085 9.58115 13.0856 9.57624 13.0867 9.57145L13.083 9.5705C13.0843 9.57559 13.085 9.58082 13.085 9.58616ZM14.4665 10.0963C14.3748 10.1141 14.3086 10.1123 14.2735 10.0808C14.2185 10.0984 14.154 10.1001 14.0804 10.0869C14.0018 10.0729 13.947 10.0153 13.9141 9.91988C13.8711 9.98017 13.8167 10.0174 13.7516 10.0294C14.1099 10.0853 14.361 10.1639 14.361 10.1639C14.361 10.1639 14.3548 10.2223 14.3397 10.291C14.3557 10.2551 14.3745 10.2151 14.3963 10.171L14.4017 10.1633L14.4665 10.0963ZM13.5825 10.006C13.5513 9.98896 13.5264 9.96425 13.5084 9.93241C13.4817 9.95837 13.4513 9.97736 13.4176 9.98907C13.4739 9.99381 13.529 9.99954 13.5825 10.006ZM13.2199 9.97708C13.1762 9.9549 13.14 9.91938 13.1129 9.87387C13.086 9.91906 13.0501 9.9544 13.0068 9.97661C13.0324 9.97577 13.0582 9.97518 13.0841 9.97486V9.97458L13.1065 9.97465L13.129 9.97458V9.97486C13.1594 9.97524 13.1898 9.97599 13.2199 9.97708ZM11.868 10.1591L11.8158 10.1051C11.8785 10.1119 11.9249 10.1054 11.9523 10.0808C12.0073 10.0984 12.0718 10.1001 12.1454 10.0869C12.224 10.0729 12.2787 10.0153 12.3117 9.91988C12.3535 9.97842 12.4059 10.0152 12.4686 10.0283C12.1596 10.0761 11.9291 10.1411 11.868 10.1591ZM12.8058 9.98821C12.7515 9.99265 12.6984 9.99801 12.6468 10.0041C12.6763 9.98711 12.7 9.96307 12.7174 9.93241C12.7434 9.95774 12.773 9.97644 12.8058 9.98821ZM14.1835 10.4998C14.2227 10.52 14.2542 10.4998 14.279 10.4611C14.2769 10.4718 14.2755 10.4815 14.275 10.4901C14.2717 10.4925 14.2667 10.4953 14.26 10.4984C14.2416 10.5069 14.2134 10.516 14.1768 10.5252C14.1048 10.5433 14.0022 10.5613 13.8807 10.5773C13.6434 10.6087 13.3612 10.6293 13.1369 10.6309C12.9126 10.6293 12.6305 10.6087 12.3932 10.5773C12.2716 10.5613 12.1691 10.5433 12.0971 10.5252C12.0664 10.5175 12.0416 10.5099 12.0235 10.5026L12.0296 10.4998C12.1519 10.4368 12.9608 10.3777 13.1065 10.3675C13.2522 10.3777 14.0611 10.4368 14.1835 10.4998ZM14.3461 10.4885L14.3452 10.4896L14.3457 10.4888L14.3461 10.4885Z" fill="#FECA00"/>
<path d="M12.1272 8.67705L12.1262 8.73866C11.6297 8.72912 11.3449 8.80886 11.2726 8.96777C11.1978 9.13207 11.2117 9.33178 11.3165 9.56903L11.2661 9.59595C11.1543 9.34283 11.1391 9.12354 11.2225 8.94019C11.3084 8.75146 11.6097 8.66711 12.1272 8.67705Z" fill="white"/>
<path d="M12.2232 9.22333L12.1945 9.27623C12.0863 9.20519 12.0322 9.08394 12.0322 8.91686C12.0322 8.67673 12.1446 8.53591 12.3933 8.43954C12.552 8.37804 12.7688 8.40326 13.0443 8.51317L13.0253 8.5711C12.7608 8.46558 12.5561 8.44178 12.4119 8.49766C12.1838 8.58605 12.0882 8.70581 12.0882 8.91686C12.0882 9.06349 12.1332 9.16419 12.2232 9.22333Z" fill="white"/>
<path d="M14.0815 8.73858L14.0825 8.80019C14.579 8.79065 14.8639 8.87038 14.9362 9.0293C15.0109 9.19359 14.997 9.39331 14.8923 9.63055L14.9427 9.65748C15.0544 9.40435 15.0697 9.18506 14.9863 9.00171C14.9004 8.81298 14.5991 8.72864 14.0815 8.73858Z" fill="white"/>
<path d="M13.9062 9.23602L13.9349 9.28893C14.043 9.21788 14.0972 9.09664 14.0972 8.92956C14.0972 8.68942 13.9847 8.5486 13.7361 8.45224C13.5774 8.39074 13.3606 8.41595 13.085 8.52586L13.1041 8.58379C13.3686 8.47828 13.5733 8.45448 13.7175 8.51036C13.9456 8.59875 14.0412 8.7185 14.0412 8.92956C14.0412 9.07618 13.9962 9.17688 13.9062 9.23602Z" fill="white"/>
</g>
<rect x="0.5" y="0.5" width="19" height="14" rx="0.5" stroke="black" stroke-opacity="0.1"/>
<defs>
<clipPath id="clip0_85465_13755">
<rect width="20" height="15" rx="1" fill="white"/>
</clipPath>
<clipPath id="clip1_85465_13755">
<rect width="11" height="9" fill="white"/>
</clipPath>
</defs>
</svg>
