<svg width="20" height="15" viewBox="0 0 20 15" fill="none" xmlns="http://www.w3.org/2000/svg">
<g clip-path="url(#clip0_85465_13837)">
<rect width="20" height="15" rx="1" fill="white"/>
<path fill-rule="evenodd" clip-rule="evenodd" d="M0 0V15H20V0H0Z" fill="#F7FCFF"/>
<mask id="mask0_85465_13837" style="mask-type:luminance" maskUnits="userSpaceOnUse" x="0" y="0" width="20" height="15">
<path fill-rule="evenodd" clip-rule="evenodd" d="M0 0V15H20V0H0Z" fill="white"/>
</mask>
<g mask="url(#mask0_85465_13837)">
<path fill-rule="evenodd" clip-rule="evenodd" d="M0 0V5H20V0H0Z" fill="#5EAA22"/>
<path fill-rule="evenodd" clip-rule="evenodd" d="M0 10V15H20V10H0Z" fill="#E31D1C"/>
<path d="M0.233049 10.8545H-1.18823" stroke="#F7FCFF" stroke-width="0.625"/>
<path d="M-1.20288 11.4171V11.0908H-0.740214V11.4061H-0.272697V11.0912H-0.515252" stroke="#F7FCFF" stroke-width="0.625"/>
<path d="M0.211416 11.4041H-0.0241699V11.098H0.471849V10.8472V11.4041H0.696309V10.8472" stroke="#F7FCFF" stroke-width="0.625"/>
<path d="M0.94881 10.8804C0.94881 10.9112 0.94881 11.4065 0.94881 11.4065H0.71582" stroke="#F7FCFF" stroke-width="0.625"/>
<path d="M2.67201 10.8545H1.25073" stroke="#F7FCFF" stroke-width="0.625"/>
<path d="M1.23608 11.4171V11.0908H1.69875V11.4061H2.16627V11.0912H1.92371" stroke="#F7FCFF" stroke-width="0.625"/>
<path d="M2.69408 11.4041H2.4585V11.098H2.95451V10.8472V11.4041H3.17897V10.8472" stroke="#F7FCFF" stroke-width="0.625"/>
<path d="M3.43148 10.8804C3.43148 10.9112 3.43148 11.4065 3.43148 11.4065H3.19849" stroke="#F7FCFF" stroke-width="0.625"/>
<path d="M5.15468 10.8545H3.7334" stroke="#F7FCFF" stroke-width="0.625"/>
<path d="M3.71875 11.4171V11.0908H4.18142V11.4061H4.64893V11.0912H4.40638" stroke="#F7FCFF" stroke-width="0.625"/>
<path d="M5.13305 11.4041H4.89746V11.098H5.39348V10.8472V11.4041H5.61794V10.8472" stroke="#F7FCFF" stroke-width="0.625"/>
<path d="M5.87044 10.8804C5.87044 10.9112 5.87044 11.4065 5.87044 11.4065H5.63745" stroke="#F7FCFF" stroke-width="0.625"/>
<path d="M7.59364 10.8545H6.17236" stroke="#F7FCFF" stroke-width="0.625"/>
<path d="M6.15771 11.4171V11.0908H6.62038V11.4061H7.0879V11.0912H6.84534" stroke="#F7FCFF" stroke-width="0.625"/>
<path d="M7.57201 11.4041H7.33643V11.098H7.83244V10.8472V11.4041H8.0569V10.8472" stroke="#F7FCFF" stroke-width="0.625"/>
<path d="M8.30941 10.8804C8.30941 10.9112 8.30941 11.4065 8.30941 11.4065H8.07642" stroke="#F7FCFF" stroke-width="0.625"/>
<path d="M10.0326 10.8545H8.61133" stroke="#F7FCFF" stroke-width="0.625"/>
<path d="M8.59668 11.4171V11.0908H9.05935V11.4061H9.52686V11.0912H9.28431" stroke="#F7FCFF" stroke-width="0.625"/>
<path d="M10.0547 11.4041H9.81909V11.098H10.3151V10.8472V11.4041H10.5396V10.8472" stroke="#F7FCFF" stroke-width="0.625"/>
<path d="M10.7921 10.8804C10.7921 10.9112 10.7921 11.4065 10.7921 11.4065H10.5591" stroke="#F7FCFF" stroke-width="0.625"/>
<path d="M12.5153 10.8545H11.094" stroke="#F7FCFF" stroke-width="0.625"/>
<path d="M11.0793 11.4171V11.0908H11.542V11.4061H12.0095V11.0912H11.767" stroke="#F7FCFF" stroke-width="0.625"/>
<path d="M12.5373 11.4041H12.3018V11.098H12.7978V10.8472V11.4041H13.0222V10.8472" stroke="#F7FCFF" stroke-width="0.625"/>
<path d="M13.2747 10.8804C13.2747 10.9112 13.2747 11.4065 13.2747 11.4065H13.0417" stroke="#F7FCFF" stroke-width="0.625"/>
<path d="M14.9979 10.8545H13.5767" stroke="#F7FCFF" stroke-width="0.625"/>
<path d="M13.562 11.4171V11.0908H14.0247V11.4061H14.4922V11.0912H14.2496" stroke="#F7FCFF" stroke-width="0.625"/>
<path d="M15.0198 11.4041H14.7842V11.098H15.2802V10.8472V11.4041H15.5047V10.8472" stroke="#F7FCFF" stroke-width="0.625"/>
<path d="M15.7572 10.8804C15.7572 10.9112 15.7572 11.4065 15.7572 11.4065H15.5242" stroke="#F7FCFF" stroke-width="0.625"/>
<path d="M17.4804 10.8545H16.0591" stroke="#F7FCFF" stroke-width="0.625"/>
<path d="M16.0444 11.4171V11.0908H16.5071V11.4061H16.9746V11.0912H16.7321" stroke="#F7FCFF" stroke-width="0.625"/>
<path d="M17.459 11.4041H17.2234V11.098H17.7194V10.8472V11.4041H17.9439V10.8472" stroke="#F7FCFF" stroke-width="0.625"/>
<path d="M18.1964 10.8804C18.1964 10.9112 18.1964 11.4065 18.1964 11.4065H17.9634" stroke="#F7FCFF" stroke-width="0.625"/>
<path d="M19.9196 10.8545H18.4983" stroke="#F7FCFF" stroke-width="0.625"/>
<path d="M18.4836 11.4171V11.0908H18.9463V11.4061H19.4138V11.0912H19.1713" stroke="#F7FCFF" stroke-width="0.625"/>
<path d="M20.0286 11.4041H19.793V11.098H20.289V10.8472V11.4041H20.5134V10.8472" stroke="#F7FCFF" stroke-width="0.625"/>
<path d="M0.233049 3.22949H-1.18823" stroke="#F7FCFF" stroke-width="0.625"/>
<path d="M-1.20288 3.79207V3.46582H-0.740214V3.78112H-0.272697V3.46617H-0.515252" stroke="#F7FCFF" stroke-width="0.625"/>
<path d="M0.211416 3.7791H-0.0241699V3.47296H0.471849V3.22217V3.7791H0.696309V3.22217" stroke="#F7FCFF" stroke-width="0.625"/>
<path d="M0.94881 3.25537C0.94881 3.28615 0.94881 3.78152 0.94881 3.78152H0.71582" stroke="#F7FCFF" stroke-width="0.625"/>
<path d="M2.67201 3.22949H1.25073" stroke="#F7FCFF" stroke-width="0.625"/>
<path d="M1.23608 3.79207V3.46582H1.69875V3.78112H2.16627V3.46617H1.92371" stroke="#F7FCFF" stroke-width="0.625"/>
<path d="M2.69408 3.7791H2.4585V3.47296H2.95451V3.22217V3.7791H3.17897V3.22217" stroke="#F7FCFF" stroke-width="0.625"/>
<path d="M3.43148 3.25537C3.43148 3.28615 3.43148 3.78152 3.43148 3.78152H3.19849" stroke="#F7FCFF" stroke-width="0.625"/>
<path d="M5.15468 3.22949H3.7334" stroke="#F7FCFF" stroke-width="0.625"/>
<path d="M3.71875 3.79207V3.46582H4.18142V3.78112H4.64893V3.46617H4.40638" stroke="#F7FCFF" stroke-width="0.625"/>
<path d="M5.13305 3.7791H4.89746V3.47296H5.39348V3.22217V3.7791H5.61794V3.22217" stroke="#F7FCFF" stroke-width="0.625"/>
<path d="M5.87044 3.25537C5.87044 3.28615 5.87044 3.78152 5.87044 3.78152H5.63745" stroke="#F7FCFF" stroke-width="0.625"/>
<path d="M7.59364 3.22949H6.17236" stroke="#F7FCFF" stroke-width="0.625"/>
<path d="M6.15771 3.79207V3.46582H6.62038V3.78112H7.0879V3.46617H6.84534" stroke="#F7FCFF" stroke-width="0.625"/>
<path d="M7.57201 3.7791H7.33643V3.47296H7.83244V3.22217V3.7791H8.0569V3.22217" stroke="#F7FCFF" stroke-width="0.625"/>
<path d="M8.30941 3.25537C8.30941 3.28615 8.30941 3.78152 8.30941 3.78152H8.07642" stroke="#F7FCFF" stroke-width="0.625"/>
<path d="M10.0326 3.22949H8.61133" stroke="#F7FCFF" stroke-width="0.625"/>
<path d="M8.59668 3.79207V3.46582H9.05935V3.78112H9.52686V3.46617H9.28431" stroke="#F7FCFF" stroke-width="0.625"/>
<path d="M10.0547 3.7791H9.81909V3.47296H10.3151V3.22217V3.7791H10.5396V3.22217" stroke="#F7FCFF" stroke-width="0.625"/>
<path d="M10.7921 3.25537C10.7921 3.28615 10.7921 3.78152 10.7921 3.78152H10.5591" stroke="#F7FCFF" stroke-width="0.625"/>
<path d="M12.5153 3.22949H11.094" stroke="#F7FCFF" stroke-width="0.625"/>
<path d="M11.0793 3.79207V3.46582H11.542V3.78112H12.0095V3.46617H11.767" stroke="#F7FCFF" stroke-width="0.625"/>
<path d="M12.5373 3.7791H12.3018V3.47296H12.7978V3.22217V3.7791H13.0222V3.22217" stroke="#F7FCFF" stroke-width="0.625"/>
<path d="M13.2747 3.25537C13.2747 3.28615 13.2747 3.78152 13.2747 3.78152H13.0417" stroke="#F7FCFF" stroke-width="0.625"/>
<path d="M14.9979 3.22949H13.5767" stroke="#F7FCFF" stroke-width="0.625"/>
<path d="M13.562 3.79207V3.46582H14.0247V3.78112H14.4922V3.46617H14.2496" stroke="#F7FCFF" stroke-width="0.625"/>
<path d="M15.0198 3.7791H14.7842V3.47296H15.2802V3.22217V3.7791H15.5047V3.22217" stroke="#F7FCFF" stroke-width="0.625"/>
<path d="M15.7572 3.25537C15.7572 3.28615 15.7572 3.78152 15.7572 3.78152H15.5242" stroke="#F7FCFF" stroke-width="0.625"/>
<path d="M17.4804 3.22949H16.0591" stroke="#F7FCFF" stroke-width="0.625"/>
<path d="M16.0444 3.79207V3.46582H16.5071V3.78112H16.9746V3.46617H16.7321" stroke="#F7FCFF" stroke-width="0.625"/>
<path d="M17.459 3.7791H17.2234V3.47296H17.7194V3.22217V3.7791H17.9439V3.22217" stroke="#F7FCFF" stroke-width="0.625"/>
<path d="M18.1964 3.25537C18.1964 3.28615 18.1964 3.78152 18.1964 3.78152H17.9634" stroke="#F7FCFF" stroke-width="0.625"/>
<path d="M19.9196 3.22949H18.4983" stroke="#F7FCFF" stroke-width="0.625"/>
<path d="M18.4836 3.79207V3.46582H18.9463V3.78112H19.4138V3.46617H19.1713" stroke="#F7FCFF" stroke-width="0.625"/>
<path d="M20.0286 3.7791H19.793V3.47296H20.289V3.22217V3.7791H20.5134V3.22217" stroke="#F7FCFF" stroke-width="0.625"/>
<path fill-rule="evenodd" clip-rule="evenodd" d="M9.12908 5.15625C9.12908 5.15625 9.39616 5.29688 9.66952 5.29688C9.94288 5.29688 10.2179 5.15625 10.2179 5.15625V5.34375C10.2179 5.34375 9.91767 5.48438 9.65173 5.48438C9.38579 5.48438 9.12908 5.34375 9.12908 5.34375V5.15625ZM7.1604 7.36913C7.1604 6.25788 8.68664 5.53125 8.68664 5.53125C8.68664 5.53125 7.8045 6.00388 7.8045 7.32256C7.8045 8.64123 8.26244 9.21229 8.26244 9.21229C8.26244 9.21229 7.1604 8.48038 7.1604 7.36913ZM12.3089 7.3078C12.3089 6.19655 10.7841 5.53125 10.7841 5.53125C10.7841 5.53125 11.6663 6.00388 11.6663 7.32256C11.6663 8.64123 11.2083 9.21229 11.2083 9.21229C11.2083 9.21229 12.3089 8.41905 12.3089 7.3078ZM8.20234 7.61099C8.14418 6.50126 9.06735 5.50658 9.06735 5.50658C9.06735 5.50658 8.73135 5.96365 8.80036 7.28052C8.82406 7.73267 9.00215 8.40538 9.22653 8.80199V5.57812H10.164V8.82995C10.3887 8.45948 10.5618 7.82785 10.5859 7.36913C10.6549 6.05226 10.335 5.50658 10.335 5.50658C10.335 5.50658 11.2582 6.50126 11.2 7.61099C11.1654 8.27191 10.6568 8.97089 10.2511 9.42817C10.4482 9.47212 10.7125 9.52571 11.0757 9.59742C11.0834 9.6376 11.0025 9.63573 10.8417 9.63204C10.6641 9.62795 10.3892 9.62163 10.0287 9.66718C9.86294 9.83705 9.74758 9.93774 9.74758 9.93774C9.74758 9.93774 9.72935 9.9131 9.70118 9.87902C9.67301 9.9131 9.65477 9.93774 9.65477 9.93774C9.65477 9.93774 9.53941 9.83705 9.37368 9.66719C9.01319 9.62163 8.73824 9.62795 8.56067 9.63204C8.39985 9.63573 8.31892 9.6376 8.32667 9.59742C8.68988 9.52571 8.9541 9.47212 9.15123 9.42817C8.74554 8.97089 8.23698 8.27191 8.20234 7.61099Z" fill="#E31D1C"/>
</g>
</g>
<rect x="0.5" y="0.5" width="19" height="14" rx="0.5" stroke="black" stroke-opacity="0.1"/>
<defs>
<clipPath id="clip0_85465_13837">
<rect width="20" height="15" rx="1" fill="white"/>
</clipPath>
</defs>
</svg>
