<svg width="20" height="15" viewBox="0 0 20 15" fill="none" xmlns="http://www.w3.org/2000/svg">
<g clip-path="url(#clip0_85465_13967)">
<rect width="20" height="15" rx="1" fill="white"/>
<path fill-rule="evenodd" clip-rule="evenodd" d="M0 0H20V15H0V0Z" fill="#F7FCFF"/>
<path d="M-1.68841 0.777984L-2.96875 0.00379562V1.5V14V15.4962L-1.68841 14.722L8.6477 8.47202L9.84175 7.75L8.6477 7.02798L-1.68841 0.777984Z" fill="#F7FCFF" stroke="#E31D1C" stroke-width="1.6875"/>
<path d="M21.8255 0.77037L23.093 0.0342646V1.5V14V15.4657L21.8255 14.7296L11.0638 8.47963L9.80742 7.75L11.0638 7.02037L21.8255 0.77037Z" fill="#F7FCFF" stroke="#E31D1C" stroke-width="1.6875"/>
<path fill-rule="evenodd" clip-rule="evenodd" d="M8.54679 2.93915C8.54679 2.93915 8.01014 5.31309 9.8631 6.22485C9.8631 6.22485 11.642 5.25527 11.2424 2.93915C11.2424 2.93915 10.4785 2.68359 9.87099 2.68359C9.26352 2.68359 8.54679 2.93915 8.54679 2.93915Z" fill="#E31D1C"/>
<path fill-rule="evenodd" clip-rule="evenodd" d="M8.73906 3.4363C8.73906 3.4363 8.93724 3.34857 9.03534 3.4363C9.13344 3.52404 9.21382 3.42904 9.21382 3.37611C9.21382 3.32318 9.36959 3.1415 9.36959 3.2889C9.36959 3.4363 9.3211 3.51953 9.45802 3.51953C9.59494 3.51953 10.2115 3.31592 10.3593 3.37611C10.5072 3.4363 10.6203 3.42133 10.5827 3.33496C10.5451 3.2486 10.4486 3.19461 10.2626 3.24176C10.0766 3.2889 10.1205 3.33496 9.95971 3.33496C9.79897 3.33496 9.62005 3.2889 9.62005 3.2889C9.62005 3.2889 9.67031 3.21145 9.85383 3.26654C10.0374 3.32164 10.2905 3.19831 10.3593 3.19831C10.4282 3.19831 10.6176 3.19461 10.6364 3.24176C10.6552 3.2889 10.7696 3.33216 10.6824 3.37611C10.5952 3.42006 10.4514 3.44759 10.5503 3.5039C10.6493 3.56021 10.8768 3.54935 10.8878 3.60792C10.8987 3.6665 11.0066 3.75396 10.9633 3.75396C10.92 3.75396 10.8418 3.83645 10.769 3.81133C10.6961 3.78622 10.6876 3.76416 10.7574 3.74382C10.8272 3.72347 10.8266 3.6379 10.769 3.6379C10.7114 3.6379 10.7395 3.66788 10.6083 3.6379C10.4772 3.60792 10.3036 3.5746 10.314 3.6379C10.3245 3.70121 10.4099 3.79838 10.2523 3.81133C10.0948 3.82428 10.021 3.87628 9.99038 3.83441C9.95971 3.79253 9.85011 3.73674 9.9363 3.71885C10.0225 3.70096 10.1048 3.77966 10.1359 3.76681C10.1669 3.75396 10.2373 3.74681 10.1783 3.69235C10.1194 3.6379 10.0223 3.60585 10.1123 3.56509C10.2024 3.52433 10.1313 3.52349 9.95971 3.60792C9.7881 3.69235 9.69265 3.76411 9.54199 3.75396C9.39133 3.74382 9.3349 3.7575 9.28647 3.74382C9.23805 3.73013 9.00221 3.89503 8.93429 3.85318C8.86638 3.81133 8.64713 3.79528 8.6866 3.74382C8.72607 3.69235 8.77906 3.66586 8.83808 3.69235C8.8971 3.71885 8.95574 3.74534 8.99554 3.71885C9.03534 3.69235 9.15028 3.60144 9.12137 3.58327C9.09246 3.56509 9.12042 3.5039 8.95673 3.5039C8.79304 3.5039 8.73549 3.57209 8.69663 3.52912C8.65777 3.48616 8.73906 3.4363 8.73906 3.4363Z" fill="#FFD100"/>
<path fill-rule="evenodd" clip-rule="evenodd" d="M8.90256 4.21662C8.90256 4.21662 9.07679 4.13948 9.16304 4.21662C9.24929 4.29375 9.31995 4.21023 9.31995 4.1637C9.31995 4.11717 9.4569 3.95744 9.4569 4.08703C9.4569 4.21662 9.41427 4.28979 9.53464 4.28979C9.65502 4.28979 10.1971 4.11078 10.327 4.1637C10.457 4.21662 10.5565 4.20346 10.5234 4.12753C10.4904 4.05159 10.4055 4.00414 10.242 4.04558C10.0784 4.08703 10.117 4.12753 9.97571 4.12753C9.83439 4.12753 9.6771 4.08703 9.6771 4.08703C9.6771 4.08703 9.72128 4.01893 9.88263 4.06737C10.044 4.11581 10.2665 4.00738 10.327 4.00738C10.3876 4.00738 10.5541 4.00414 10.5707 4.04558C10.5872 4.08703 10.6877 4.12506 10.6111 4.1637C10.5344 4.20234 10.408 4.22654 10.495 4.27604C10.582 4.32555 10.782 4.31601 10.7916 4.3675C10.8013 4.419 10.8961 4.49589 10.858 4.49589C10.82 4.49589 10.7512 4.56841 10.6872 4.54633C10.6231 4.52425 10.6156 4.50486 10.677 4.48697C10.7384 4.46908 10.7378 4.39386 10.6872 4.39386C10.6365 4.39386 10.6613 4.42021 10.546 4.39386C10.4307 4.3675 10.278 4.3382 10.2872 4.39386C10.2964 4.44951 10.3715 4.53494 10.233 4.54633C10.0945 4.55772 10.0296 4.60343 10.0027 4.56662C9.97571 4.5298 9.87936 4.48075 9.95513 4.46502C10.0309 4.44929 10.1033 4.51849 10.1306 4.50719C10.1579 4.49589 10.2197 4.4896 10.1679 4.44173C10.1161 4.39386 10.0307 4.36567 10.1099 4.32984C10.1891 4.29401 10.1266 4.29327 9.97571 4.3675C9.82484 4.44173 9.74092 4.50481 9.60847 4.49589C9.47601 4.48697 9.4264 4.499 9.38383 4.48697C9.34125 4.47494 9.13391 4.61992 9.0742 4.58312C9.0145 4.54633 8.82174 4.53221 8.85644 4.48697C8.89114 4.44173 8.93773 4.41844 8.98962 4.44173C9.0415 4.46502 9.09306 4.48831 9.12805 4.46502C9.16304 4.44173 9.26409 4.3618 9.23867 4.34582C9.21326 4.32984 9.23784 4.27604 9.09393 4.27604C8.95002 4.27604 8.89942 4.336 8.86526 4.29822C8.8311 4.26045 8.90256 4.21662 8.90256 4.21662Z" fill="#FFD100"/>
<path fill-rule="evenodd" clip-rule="evenodd" d="M9.13406 5.00832C9.13406 5.00832 9.26618 4.94983 9.33158 5.00832C9.39699 5.06681 9.45057 5.00347 9.45057 4.96819C9.45057 4.9329 9.55442 4.81178 9.55442 4.91005C9.55442 5.00832 9.52209 5.0638 9.61337 5.0638C9.70465 5.0638 10.1157 4.92806 10.2142 4.96819C10.3128 5.00832 10.3882 4.99834 10.3632 4.94076C10.3381 4.88318 10.2737 4.84719 10.1497 4.87862C10.0257 4.91005 10.055 4.94076 9.94783 4.94076C9.84067 4.94076 9.72139 4.91005 9.72139 4.91005C9.72139 4.91005 9.7549 4.85841 9.87725 4.89514C9.99959 4.93187 10.1683 4.84965 10.2142 4.84965C10.2601 4.84965 10.3865 4.84719 10.399 4.87862C10.4115 4.91005 10.4878 4.93889 10.4296 4.96819C10.3715 4.99749 10.2756 5.01584 10.3416 5.05338C10.4075 5.09092 10.5592 5.08368 10.5665 5.12273C10.5738 5.16178 10.6457 5.22009 10.6169 5.22009C10.588 5.22009 10.5359 5.27508 10.4873 5.25834C10.4388 5.24159 10.4331 5.22689 10.4796 5.21332C10.5262 5.19976 10.5257 5.14272 10.4873 5.14272C10.4489 5.14272 10.4677 5.1627 10.3802 5.14272C10.2928 5.12273 10.1771 5.10051 10.184 5.14272C10.191 5.18492 10.2479 5.2497 10.1429 5.25834C10.0379 5.26697 9.98872 5.30163 9.96828 5.27372C9.94783 5.2458 9.87477 5.20861 9.93222 5.19668C9.98968 5.18475 10.0446 5.23722 10.0653 5.22866C10.086 5.22009 10.1329 5.21532 10.0936 5.17902C10.0543 5.14272 9.98953 5.12134 10.0496 5.09417C10.1096 5.067 10.0622 5.06644 9.94783 5.12273C9.83343 5.17902 9.76979 5.22685 9.66935 5.22009C9.56891 5.21332 9.53129 5.22245 9.49901 5.21332C9.46672 5.2042 9.3095 5.31414 9.26422 5.28624C9.21894 5.25834 9.07278 5.24763 9.09909 5.21332C9.1254 5.17902 9.16073 5.16135 9.20008 5.17902C9.23942 5.19668 9.27852 5.21434 9.30505 5.19668C9.33158 5.17902 9.40821 5.11841 9.38894 5.10629C9.36966 5.09417 9.38831 5.05338 9.27918 5.05338C9.17005 5.05338 9.13168 5.09884 9.10578 5.0702C9.07987 5.04155 9.13406 5.00832 9.13406 5.00832Z" fill="#FFD100"/>
</g>
<rect x="0.5" y="0.5" width="19" height="14" rx="0.5" stroke="black" stroke-opacity="0.1"/>
<defs>
<clipPath id="clip0_85465_13967">
<rect width="20" height="15" rx="1" fill="white"/>
</clipPath>
</defs>
</svg>
