<svg width="20" height="15" viewBox="0 0 20 15" fill="none" xmlns="http://www.w3.org/2000/svg">
<g clip-path="url(#clip0_85465_14166)">
<rect width="20" height="15" rx="1" fill="white"/>
<path fill-rule="evenodd" clip-rule="evenodd" d="M0 0H20V15H0V0Z" fill="#0067C3"/>
<path fill-rule="evenodd" clip-rule="evenodd" d="M0 0V5H20V0H0Z" fill="#272727"/>
<path fill-rule="evenodd" clip-rule="evenodd" d="M0 10V15H20V10H0Z" fill="#4E8B1D"/>
<path d="M0 4.375H-0.625V5V10V10.625H0H20H20.625V10V5V4.375H20H0Z" fill="#E31D1C" stroke="#F7FCFF" stroke-width="1.25"/>
<ellipse cx="10" cy="7.5" rx="2.5" ry="5" fill="#AC2317"/>
<path d="M12.2646 2.51917C12.4074 2.26246 12.7911 1.98214 13.4158 1.6782C13.4373 1.66776 13.4632 1.66716 13.4853 1.6766C13.5226 1.69258 13.5382 1.73208 13.5197 1.76475L7.04628 13.4074L6.70923 13.2632L12.4155 3.00028C12.1571 2.96336 12.1068 2.80299 12.2646 2.51917Z" fill="white"/>
<path d="M7.72843 2.51917C7.88623 2.80299 7.83594 2.96336 7.57754 3.00028L13.2838 13.2632L12.9468 13.4074L6.47333 1.76475C6.45492 1.73208 6.47043 1.69258 6.50777 1.6766C6.52983 1.66716 6.55576 1.66776 6.57723 1.6782C7.20196 1.98214 7.58569 2.26246 7.72843 2.51917Z" fill="white"/>
<path fill-rule="evenodd" clip-rule="evenodd" d="M12.1154 10.1658C12.359 9.39417 12.5 8.47996 12.5 7.4999C12.5 6.51983 12.359 5.60563 12.1154 4.83398C11.5672 5.60563 11.25 6.51983 11.25 7.4999C11.25 8.47996 11.5672 9.39417 12.1154 10.1658Z" fill="black"/>
<path fill-rule="evenodd" clip-rule="evenodd" d="M7.88462 4.83398C7.64099 5.60563 7.5 6.51983 7.5 7.4999C7.5 8.47996 7.64099 9.39417 7.88462 10.1658C8.43277 9.39417 8.75 8.47996 8.75 7.4999C8.75 6.51983 8.43277 5.60563 7.88462 4.83398Z" fill="black"/>
<path fill-rule="evenodd" clip-rule="evenodd" d="M10.15 7.12496C10.4923 6.91161 10.75 5.98238 10.75 4.86839C10.75 3.75439 10.4923 2.82516 10.15 2.61182V7.12496ZM9.775 7.0656C9.47072 6.77218 9.25 5.89942 9.25 4.86839C9.25 3.83736 9.47072 2.96459 9.775 2.67117V7.0656ZM9.775 8.00013V12.3945C9.47072 12.1011 9.25001 11.2284 9.25001 10.1973C9.25001 9.16632 9.47072 8.29356 9.775 8.00013ZM10.15 12.4539C10.4923 12.2406 10.75 11.3113 10.75 10.1973C10.75 9.08333 10.4923 8.15409 10.15 7.94076V12.4539Z" fill="#F7FCFF"/>
<path d="M10 7.17103C10.4142 7.17103 10.75 7.46558 10.75 7.82892C10.75 8.19227 10.4142 8.48682 10 8.48682C9.58579 8.48682 9.25 8.19227 9.25 7.82892C9.25 7.46558 9.58579 7.17103 10 7.17103Z" fill="#F7FCFF"/>
</g>
<rect x="0.5" y="0.5" width="19" height="14" rx="0.5" stroke="black" stroke-opacity="0.1"/>
<defs>
<clipPath id="clip0_85465_14166">
<rect width="20" height="15" rx="1" fill="white"/>
</clipPath>
</defs>
</svg>
