<svg width="20" height="15" viewBox="0 0 20 15" fill="none" xmlns="http://www.w3.org/2000/svg">
<g clip-path="url(#clip0_85465_14006)">
<rect width="20" height="15" rx="1" fill="white"/>
<path fill-rule="evenodd" clip-rule="evenodd" d="M0 0V15H20V0H0Z" fill="#C51918"/>
<mask id="mask0_85465_14006" style="mask-type:luminance" maskUnits="userSpaceOnUse" x="0" y="0" width="20" height="15">
<path fill-rule="evenodd" clip-rule="evenodd" d="M0 0V15H20V0H0Z" fill="white"/>
</mask>
<g mask="url(#mask0_85465_14006)">
<path fill-rule="evenodd" clip-rule="evenodd" d="M9.9887 11.1668C10.0557 11.1668 10.1223 11.165 10.1884 11.1616L10.574 12.3914L10.6634 11.1065C10.7924 11.0832 10.9191 11.0533 11.0432 11.0172L11.7044 12.1257L11.4925 10.8546C11.612 10.8025 11.7282 10.7443 11.8407 10.6805L12.7425 11.6086L12.2403 10.4191C12.344 10.3414 12.4435 10.2585 12.5383 10.1707L13.6324 10.8679L12.867 9.82525C12.9499 9.72627 13.0276 9.62295 13.0998 9.51568L14.3261 9.94372L13.3397 9.10484C13.3973 8.98976 13.449 8.8713 13.4945 8.74983L14.7862 8.88573L13.6318 8.29535C13.6609 8.1706 13.6835 8.04344 13.6995 7.91423L14.9879 7.75102L13.7274 7.44059C13.7268 7.31 13.7194 7.18101 13.7055 7.05395L14.9203 6.60075L13.6237 6.58703C13.5929 6.46027 13.5556 6.33605 13.512 6.21474L14.5872 5.49694L13.3235 5.77992C13.264 5.66393 13.1986 5.55146 13.1276 5.44291L14.0063 4.49909L12.8431 5.06321C12.7585 4.96403 12.6686 4.86933 12.574 4.77951L13.2092 3.661L12.2097 4.47496C12.1043 4.39765 11.9947 4.32569 11.8812 4.25951L12.2386 3.02785L11.4567 4.04677C11.3361 3.99568 11.2124 3.95069 11.0857 3.9122L11.147 2.63376L10.6234 3.80322C10.4947 3.78138 10.3637 3.76607 10.2308 3.75765L9.99321 2.5L9.75577 3.75708C9.62263 3.7652 9.49137 3.78023 9.36235 3.80181L8.83941 2.63376L8.90056 3.90951C8.77321 3.94788 8.64874 3.9928 8.52754 4.04389L7.74781 3.02785L8.10387 4.25503C7.98937 4.32145 7.87875 4.39374 7.77244 4.47148L6.77725 3.661L7.40922 4.77396C7.31348 4.8645 7.22257 4.96002 7.13693 5.06012L5.98008 4.49909L6.85353 5.43723C6.78147 5.54697 6.7151 5.66074 6.65485 5.77811L5.39925 5.49694L6.46712 6.20989C6.42283 6.33277 6.3849 6.45864 6.35371 6.58713L5.06608 6.60075L6.27228 7.05072C6.25807 7.17955 6.25052 7.31036 6.24998 7.44281L4.99854 7.75102L6.27777 7.91307C6.29392 8.0441 6.31696 8.17302 6.34652 8.29947L5.20025 8.88573L6.48324 8.75074C6.52937 8.87378 6.5819 8.99374 6.64041 9.11021L5.66036 9.94372L6.87928 9.51822C6.95244 9.62665 7.03121 9.73104 7.11517 9.83098L6.35406 10.8679L7.44274 10.1741C7.5386 10.2626 7.63914 10.3461 7.74396 10.4242L7.24394 11.6086L8.14252 10.6838C8.25588 10.7478 8.37295 10.8061 8.49332 10.8582L8.28204 12.1257L8.94192 11.0194C9.06644 11.0554 9.19365 11.0851 9.32317 11.1082L9.41238 12.3914L9.79791 11.162C9.86111 11.1652 9.92472 11.1668 9.9887 11.1668ZM12.8012 7.4473C12.8012 9.00031 11.5319 10.2593 9.9662 10.2593C8.40047 10.2593 7.1312 9.00031 7.1312 7.4473C7.1312 5.8943 8.40047 4.63534 9.9662 4.63534C11.5319 4.63534 12.8012 5.8943 12.8012 7.4473ZM11.9438 8.36329C12.0621 8.09735 12.1278 7.80287 12.1278 7.49303C12.1278 7.19033 12.0651 6.90229 11.9519 6.64121C11.4627 6.67599 11.048 6.80476 10.7115 6.96954C11.4583 7.29618 11.796 7.83386 11.9438 8.36329ZM11.7028 8.77431C11.6417 8.85612 11.5749 8.93343 11.503 9.00563C11.4631 8.26778 11.1474 7.70516 10.5814 7.09819C11.2822 7.43396 11.6775 8.2365 11.7028 8.77431ZM11.1664 9.28128C11.1268 9.30752 11.0863 9.33247 11.0449 9.35609C10.8766 8.52698 10.558 7.87282 10.1146 7.35003L10.2221 7.26898C10.2364 7.2582 10.2509 7.24743 10.2658 7.23669C10.8332 7.88927 11.1912 8.44913 11.1664 9.28128ZM9.98457 9.6363C10.2361 9.6363 10.4775 9.59298 10.7017 9.51338C10.5388 8.72449 10.255 7.98973 9.84424 7.45954C9.35339 8.04388 9.10365 8.70418 9.09446 9.4433C9.36556 9.56723 9.667 9.6363 9.98457 9.6363ZM9.57202 7.20564C9.58912 7.21901 9.60543 7.23232 9.62095 7.24555C9.09814 7.84019 8.81213 8.51073 8.76342 9.25463C8.6992 9.21002 8.63753 9.162 8.57868 9.11081C8.77567 8.32432 9.10229 7.67545 9.57202 7.20564ZM8.01104 6.65568C8.50229 6.71101 8.8901 6.83046 9.1807 6.96873C8.44 7.28347 8.1483 7.79058 8.00159 8.30778C7.89828 8.0566 7.8413 7.78147 7.8413 7.49303C7.8413 7.19592 7.90175 6.91293 8.01104 6.65568ZM8.28003 8.7925C8.26353 8.77089 8.24743 8.74896 8.23175 8.72672C8.26879 8.18362 8.61468 7.41294 9.31337 7.09521C8.84466 7.55007 8.49403 8.06785 8.28003 8.7925ZM8.4386 6.00857C8.82862 5.6025 9.37708 5.34976 9.98457 5.34976C10.5826 5.34976 11.1234 5.59468 11.5122 5.98969C10.9004 6.06065 10.3816 6.21403 9.96039 6.45264C9.58484 6.23716 9.07718 6.09151 8.4386 6.00857Z" fill="#FFDC17"/>
</g>
</g>
<rect x="0.5" y="0.5" width="19" height="14" rx="0.5" stroke="black" stroke-opacity="0.1"/>
<defs>
<clipPath id="clip0_85465_14006">
<rect width="20" height="15" rx="1" fill="white"/>
</clipPath>
</defs>
</svg>
