<svg width="20" height="15" viewBox="0 0 20 15" fill="none" xmlns="http://www.w3.org/2000/svg">
<g clip-path="url(#clip0_85465_14027)">
<rect width="20" height="15" rx="1" fill="white"/>
<path d="M0 0H20V15H0V0Z" fill="#032EA1"/>
<path d="M0 3.75H20V11.25H0V3.75Z" fill="#E00025"/>
<path d="M7.88745 7.06885H12.155V8.71135H7.88745V7.06885Z" fill="white" stroke="black" stroke-width="0.03" stroke-linejoin="bevel"/>
<path d="M7.88745 7.15137H12.155V7.31262H7.88745V7.15137Z" fill="white" stroke="black" stroke-width="0.03" stroke-linejoin="bevel"/>
<path d="M6.21875 8.79396C6.29716 8.75128 6.35622 8.68014 6.38375 8.59521H13.625C13.6525 8.68014 13.7116 8.75128 13.79 8.79396H6.21875Z" fill="white" stroke="black" stroke-width="0.03"/>
<path fill-rule="evenodd" clip-rule="evenodd" d="M9.9988 4.41016C9.9088 4.41391 9.91255 4.56766 9.91255 4.56766H10.0813C10.0813 4.56766 10.085 4.41016 9.9988 4.41016ZM9.4438 6.40516V6.61141H10.5538V6.40516C10.5558 6.34869 10.586 6.32042 10.6135 6.29469C10.6372 6.27257 10.6588 6.25233 10.6588 6.21766C10.6588 6.21766 10.6738 6.10516 10.64 6.05266C10.6025 6.20266 10.5275 6.17641 10.5275 6.11266C10.5275 6.06703 10.5587 6.0214 10.6235 5.92654L10.655 5.88016C10.685 5.83516 10.6663 5.70391 10.6288 5.65516C10.6138 5.77141 10.595 5.82391 10.5463 5.82391C10.5163 5.82391 10.49 5.80516 10.49 5.74891C10.49 5.7032 10.5095 5.67143 10.5299 5.6383C10.5429 5.61706 10.5563 5.59527 10.565 5.56891C10.5924 5.50102 10.5778 5.42341 10.5275 5.37016C10.5243 5.38988 10.5217 5.40753 10.5194 5.42323L10.5194 5.42324C10.5085 5.49706 10.504 5.52766 10.4638 5.52766C10.3694 5.49969 10.451 5.36745 10.4807 5.31927L10.4863 5.31016C10.505 5.23891 10.4488 5.18266 10.4488 5.18266C10.4188 5.28016 10.4113 5.29141 10.3738 5.28016C10.3288 5.26891 10.3363 5.20516 10.3888 5.15266C10.4225 5.11891 10.4188 5.06641 10.3813 5.02891C10.3438 5.10391 10.2838 5.09266 10.2913 5.04766L10.325 4.88641L10.28 4.88641L10.295 4.77016H10.2391L10.25 4.67266H9.7438L9.75111 4.77016H9.6988L9.7138 4.88641L9.67255 4.88641L9.70255 5.05141C9.6988 5.09641 9.6538 5.10016 9.6163 5.02891C9.5788 5.06641 9.57505 5.11516 9.6088 5.15266C9.6613 5.20516 9.6688 5.26891 9.6238 5.28016C9.5863 5.29141 9.5788 5.28391 9.5488 5.18266C9.5488 5.18266 9.4888 5.26891 9.5113 5.31016L9.51776 5.32064C9.54818 5.36949 9.62726 5.4965 9.5338 5.52766C9.4936 5.52766 9.4891 5.49706 9.47824 5.42324C9.47593 5.40754 9.47334 5.38989 9.47005 5.37016C9.41853 5.42259 9.4024 5.5003 9.4288 5.56891C9.43832 5.5934 9.45081 5.61394 9.46285 5.63375C9.48401 5.66855 9.5038 5.70112 9.5038 5.74891C9.5038 5.80516 9.4813 5.82391 9.4513 5.82391C9.40255 5.82391 9.3838 5.76766 9.3688 5.65516C9.3313 5.70391 9.31255 5.83516 9.34255 5.87641L9.36171 5.9055C9.43438 6.01578 9.4663 6.06422 9.4663 6.11266C9.4663 6.17641 9.39505 6.20266 9.3538 6.05266C9.3238 6.10516 9.3388 6.21766 9.3388 6.21766C9.3388 6.25201 9.36083 6.2722 9.38471 6.29409C9.41296 6.31998 9.4438 6.34825 9.4438 6.40516ZM9.75111 4.77016L9.7513 4.77266H10.2388L10.2391 4.77016H9.75111ZM9.83755 4.67141L9.8263 4.57141H10.1638L10.16 4.67141H9.83755ZM10.8875 8.60641C10.8875 8.68516 11 8.76766 11.075 8.79391H8.9563C9.0313 8.76766 9.1063 8.68516 9.1063 8.60641V7.69516L9.01255 7.56766H10.985L10.8875 7.69516V8.60641Z" fill="white"/>
<path d="M9.91255 4.56766L9.89755 4.56802L9.89791 4.58266H9.91255V4.56766ZM9.9988 4.41016V4.39514L9.99817 4.39517L9.9988 4.41016ZM10.0813 4.56766V4.58266H10.0959L10.0963 4.56801L10.0813 4.56766ZM9.4438 6.61141H9.4288V6.62641H9.4438V6.61141ZM10.5538 6.61141V6.62641H10.5688V6.61141H10.5538ZM10.5538 6.40516L10.5388 6.40462V6.40516H10.5538ZM10.6135 6.29469L10.6238 6.30564L10.6135 6.29469ZM10.6588 6.21766L10.6438 6.21566V6.21766H10.6588ZM10.64 6.05266L10.6527 6.04454L10.6339 6.01537L10.6255 6.04902L10.64 6.05266ZM10.6235 5.92654L10.6359 5.935L10.6359 5.93498L10.6235 5.92654ZM10.655 5.88016L10.6675 5.8886L10.6675 5.88848L10.655 5.88016ZM10.6288 5.65516L10.6407 5.64601L10.6186 5.61725L10.6139 5.65324L10.6288 5.65516ZM10.5299 5.6383L10.5427 5.64614H10.5427L10.5299 5.6383ZM10.565 5.56891L10.5511 5.56329L10.5508 5.56416L10.565 5.56891ZM10.5275 5.37016L10.5385 5.35986L10.5177 5.33788L10.5128 5.36769L10.5275 5.37016ZM10.5194 5.42323L10.5342 5.4256L10.5342 5.42541L10.5194 5.42323ZM10.5194 5.42324L10.5045 5.42087L10.5045 5.42106L10.5194 5.42324ZM10.4638 5.52766L10.4594 5.54266H10.4638V5.52766ZM10.4807 5.31927L10.4935 5.32714L10.4935 5.3271L10.4807 5.31927ZM10.4863 5.31016L10.4997 5.31833L10.5008 5.31397L10.4863 5.31016ZM10.4488 5.18266L10.4594 5.17205L10.4418 5.15443L10.4345 5.17824L10.4488 5.18266ZM10.3738 5.28016L10.3781 5.26577L10.3774 5.2656L10.3738 5.28016ZM10.3888 5.15266L10.3994 5.16326L10.3888 5.15266ZM10.3813 5.02891L10.3919 5.0183L10.3772 5.00358L10.3679 5.0222L10.3813 5.02891ZM10.2913 5.04766L10.2766 5.04458L10.2765 5.04519L10.2913 5.04766ZM10.325 4.88641L10.3397 4.88948L10.3435 4.87141L10.325 4.87141V4.88641ZM10.28 4.88641L10.2652 4.88449L10.263 4.90141L10.28 4.90141V4.88641ZM10.295 4.77016L10.3099 4.77208L10.3121 4.75516H10.295V4.77016ZM10.25 4.67266L10.265 4.67433L10.2668 4.65766H10.25V4.67266ZM9.7438 4.67266V4.65766H9.72763L9.72884 4.67378L9.7438 4.67266ZM9.6988 4.77016V4.75516H9.68174L9.68392 4.77208L9.6988 4.77016ZM9.7138 4.88641V4.90141L9.73086 4.90141L9.72868 4.88449L9.7138 4.88641ZM9.67255 4.88641V4.87141L9.65458 4.87141L9.65779 4.88909L9.67255 4.88641ZM9.70255 5.05141L9.71803 5.0527L9.71731 5.04872L9.70255 5.05141ZM9.6163 5.02891L9.62957 5.02192L9.62009 5.0039L9.60569 5.0183L9.6163 5.02891ZM9.6088 5.15266L9.59763 5.1627L9.59819 5.16326L9.6088 5.15266ZM9.6238 5.28016L9.62016 5.26559L9.61949 5.26579L9.6238 5.28016ZM9.5488 5.18266L9.56318 5.17839L9.55431 5.14846L9.53649 5.17409L9.5488 5.18266ZM9.5113 5.31016L9.49811 5.31735L9.49853 5.31803L9.5113 5.31016ZM9.51776 5.32064L9.50499 5.32851L9.50503 5.32857L9.51776 5.32064ZM9.5338 5.52766V5.54347L9.53854 5.54189L9.5338 5.52766ZM9.47824 5.42324L9.4634 5.42542L9.47824 5.42324ZM9.47005 5.37016L9.48484 5.36769L9.48 5.33863L9.45935 5.35964L9.47005 5.37016ZM9.4288 5.56891L9.4148 5.57429L9.41482 5.57434L9.4288 5.56891ZM9.46285 5.63375L9.47567 5.62596L9.46285 5.63375ZM9.3688 5.65516L9.38367 5.65317L9.3789 5.61742L9.35691 5.64601L9.3688 5.65516ZM9.34255 5.87641L9.35509 5.86815L9.35468 5.86758L9.34255 5.87641ZM9.36171 5.9055L9.34918 5.91375L9.34918 5.91376L9.36171 5.9055ZM9.3538 6.05266L9.36826 6.04868L9.35869 6.01387L9.34078 6.04521L9.3538 6.05266ZM9.3388 6.21766H9.35393L9.35367 6.21567L9.3388 6.21766ZM9.38471 6.29409L9.37457 6.30514H9.37457L9.38471 6.29409ZM9.7513 4.77266L9.73634 4.77378L9.73738 4.78766H9.7513V4.77266ZM10.2388 4.77266V4.78766H10.2522L10.2537 4.77433L10.2388 4.77266ZM9.8263 4.57141V4.55641H9.80952L9.81139 4.57308L9.8263 4.57141ZM9.83755 4.67141L9.82264 4.67308L9.82414 4.68641H9.83755V4.67141ZM10.1638 4.57141L10.1788 4.57197L10.1794 4.55641H10.1638V4.57141ZM10.16 4.67141V4.68641H10.1745L10.175 4.67197L10.16 4.67141ZM11.075 8.79391V8.80891L11.08 8.77975L11.075 8.79391ZM8.9563 8.79391L8.95134 8.77975L8.9563 8.80891V8.79391ZM9.1063 7.69516H9.12492L9.11838 7.68627L9.1063 7.69516ZM9.01255 7.56766V7.55266H8.9829L9.00046 7.57654L9.01255 7.56766ZM10.985 7.56766L10.997 7.57677L11.0154 7.55266H10.985V7.56766ZM10.8875 7.69516L10.8725 7.68369V7.69516H10.8875ZM9.91255 4.56766C9.92754 4.56729 9.92754 4.56729 9.92754 4.5673C9.92754 4.5673 9.92754 4.5673 9.92754 4.5673C9.92754 4.5673 9.92754 4.5673 9.92754 4.5673C9.92754 4.56729 9.92754 4.56727 9.92754 4.56725C9.92754 4.5672 9.92754 4.56711 9.92754 4.56699C9.92754 4.56675 9.92753 4.56637 9.92753 4.56586C9.92752 4.56483 9.92753 4.56329 9.92756 4.5613C9.92763 4.55733 9.92783 4.55159 9.92833 4.54466C9.92934 4.53075 9.93159 4.51241 9.93642 4.49416C9.9413 4.47574 9.94855 4.45849 9.95893 4.44588C9.96896 4.4337 9.98183 4.42588 9.99942 4.42514L9.99817 4.39517C9.97077 4.39631 9.95035 4.40911 9.93577 4.42681C9.92155 4.44409 9.91286 4.46598 9.90742 4.48647C9.90195 4.50712 9.8995 4.52745 9.89841 4.54248C9.89786 4.55004 9.89764 4.55634 9.89757 4.56078C9.89753 4.56301 9.89752 4.56477 9.89753 4.566C9.89753 4.56662 9.89754 4.5671 9.89754 4.56744C9.89755 4.56761 9.89755 4.56774 9.89755 4.56784C9.89755 4.56789 9.89755 4.56793 9.89755 4.56796C9.89755 4.56797 9.89755 4.56799 9.89755 4.568C9.89755 4.568 9.89755 4.56801 9.89755 4.56801C9.89755 4.56802 9.89755 4.56802 9.91255 4.56766ZM10.0813 4.55266H9.91255V4.58266H10.0813V4.55266ZM9.9988 4.42516C10.015 4.42516 10.0269 4.43225 10.0363 4.44412C10.0462 4.45649 10.0532 4.47381 10.0578 4.49254C10.0625 4.51108 10.0646 4.52981 10.0656 4.54406C10.066 4.55114 10.0662 4.55703 10.0663 4.56112C10.0663 4.56316 10.0663 4.56475 10.0663 4.5658C10.0663 4.56633 10.0663 4.56673 10.0663 4.56698C10.0663 4.56711 10.0663 4.5672 10.0663 4.56725C10.0663 4.56728 10.0663 4.56729 10.0663 4.5673C10.0663 4.56731 10.0663 4.56731 10.0663 4.56731C10.0663 4.56731 10.0663 4.56731 10.0663 4.56731C10.0663 4.5673 10.0663 4.5673 10.0813 4.56766C10.0963 4.56801 10.0963 4.56801 10.0963 4.568C10.0963 4.568 10.0963 4.568 10.0963 4.56799C10.0963 4.56798 10.0963 4.56797 10.0963 4.56795C10.0963 4.56792 10.0963 4.56788 10.0963 4.56783C10.0963 4.56774 10.0963 4.5676 10.0963 4.56743C10.0963 4.56709 10.0963 4.5666 10.0963 4.56597C10.0963 4.56472 10.0963 4.56292 10.0963 4.56066C10.0962 4.55613 10.096 4.54972 10.0955 4.54204C10.0945 4.52675 10.0922 4.50611 10.0869 4.48527C10.0818 4.46462 10.0735 4.44258 10.0598 4.42541C10.0457 4.40775 10.0257 4.39516 9.9988 4.39516V4.42516ZM9.4588 6.61141V6.40516H9.4288V6.61141H9.4588ZM10.5538 6.59641H9.4438V6.62641H10.5538V6.59641ZM10.5388 6.40516V6.61141H10.5688V6.40516H10.5388ZM10.6033 6.28374C10.5756 6.30961 10.5411 6.34158 10.5388 6.40462L10.5688 6.40569C10.5706 6.35581 10.5964 6.33124 10.6238 6.30564L10.6033 6.28374ZM10.6438 6.21766C10.6438 6.24492 10.6276 6.26096 10.6033 6.28374L10.6238 6.30564C10.6467 6.28419 10.6738 6.25973 10.6738 6.21766H10.6438ZM10.6274 6.06077C10.6418 6.08312 10.6466 6.12049 10.6471 6.15505C10.6473 6.17182 10.6465 6.18705 10.6457 6.1981C10.6452 6.20361 10.6448 6.20806 10.6445 6.2111C10.6443 6.21263 10.6442 6.2138 10.6441 6.21457C10.644 6.21496 10.644 6.21525 10.644 6.21543C10.6439 6.21553 10.6439 6.21559 10.6439 6.21563C10.6439 6.21565 10.6439 6.21567 10.6439 6.21567C10.6439 6.21568 10.6439 6.21568 10.6439 6.21568L10.6439 6.21568C10.6439 6.21568 10.6439 6.21567 10.6588 6.21766C10.6737 6.21964 10.6737 6.21964 10.6737 6.21963C10.6737 6.21963 10.6737 6.21963 10.6737 6.21962C10.6737 6.21962 10.6737 6.21961 10.6737 6.2196C10.6737 6.21958 10.6737 6.21955 10.6737 6.21951C10.6737 6.21945 10.6737 6.21935 10.6737 6.21923C10.6738 6.21899 10.6738 6.21864 10.6738 6.21819C10.674 6.21729 10.6741 6.21599 10.6743 6.21433C10.6746 6.21102 10.6751 6.20627 10.6756 6.20041C10.6765 6.18873 10.6773 6.17255 10.6771 6.15464C10.6766 6.11982 10.672 6.07469 10.6527 6.04454L10.6274 6.06077ZM10.5125 6.11266C10.5125 6.13136 10.518 6.14859 10.5284 6.16091C10.5389 6.17353 10.5547 6.18076 10.5724 6.17758C10.5894 6.17451 10.6054 6.16234 10.619 6.14286C10.6326 6.12324 10.645 6.09489 10.6546 6.05629L10.6255 6.04902C10.6164 6.08543 10.6053 6.11004 10.5943 6.12569C10.5833 6.14149 10.5735 6.1469 10.5671 6.14805C10.5614 6.14908 10.556 6.14717 10.5513 6.14163C10.5464 6.13578 10.5425 6.12583 10.5425 6.11266H10.5125ZM10.6111 5.91808C10.5789 5.96526 10.5544 6.00109 10.5381 6.03085C10.5217 6.06078 10.5125 6.0862 10.5125 6.11266H10.5425C10.5425 6.09348 10.549 6.07328 10.5644 6.04527C10.5798 6.0171 10.6033 5.98269 10.6359 5.935L10.6111 5.91808ZM10.6426 5.87172L10.6111 5.9181L10.6359 5.93498L10.6674 5.8886L10.6426 5.87172ZM10.6169 5.6643C10.6332 5.68554 10.6469 5.72739 10.6524 5.77094C10.6551 5.79237 10.6557 5.81338 10.6539 5.83143C10.6522 5.84983 10.6481 5.86359 10.6426 5.87184L10.6675 5.88848C10.677 5.87422 10.6818 5.8547 10.6838 5.83431C10.6858 5.81358 10.685 5.79028 10.6821 5.76718C10.6764 5.72167 10.6618 5.67352 10.6407 5.64601L10.6169 5.6643ZM10.5463 5.83891C10.5614 5.83891 10.575 5.83475 10.5867 5.82582C10.5982 5.81709 10.6069 5.80456 10.6138 5.78937C10.6276 5.75941 10.6362 5.71513 10.6437 5.65708L10.6139 5.65324C10.6064 5.71143 10.5982 5.75153 10.5866 5.77688C10.5809 5.78935 10.5748 5.7972 10.5686 5.80195C10.5626 5.8065 10.5556 5.80891 10.5463 5.80891V5.83891ZM10.475 5.74891C10.475 5.77913 10.4821 5.80198 10.4957 5.81741C10.5095 5.83312 10.5281 5.83891 10.5463 5.83891V5.80891C10.5345 5.80891 10.525 5.80532 10.5182 5.79759C10.5111 5.78958 10.505 5.77493 10.505 5.74891H10.475ZM10.5171 5.63046C10.4969 5.66338 10.475 5.69848 10.475 5.74891H10.505C10.505 5.70793 10.5222 5.67947 10.5427 5.64614L10.5171 5.63046ZM10.5508 5.56416C10.5427 5.58867 10.5302 5.60907 10.5171 5.63046L10.5427 5.64614C10.5556 5.62506 10.5699 5.60188 10.5793 5.57365L10.5508 5.56416ZM10.5166 5.38045C10.5628 5.42944 10.5763 5.50084 10.5511 5.5633L10.579 5.57451C10.6085 5.50119 10.5927 5.41737 10.5385 5.35986L10.5166 5.38045ZM10.5342 5.42541C10.5365 5.40971 10.5391 5.39219 10.5423 5.37262L10.5128 5.36769C10.5094 5.38758 10.5068 5.40536 10.5045 5.42105L10.5342 5.42541ZM10.5342 5.42561L10.5342 5.4256L10.5045 5.42086L10.5045 5.42087L10.5342 5.42561ZM10.4638 5.54266C10.4757 5.54266 10.4866 5.54038 10.496 5.53433C10.5055 5.52826 10.5118 5.51942 10.5163 5.50923C10.5248 5.48999 10.5289 5.46129 10.5342 5.42542L10.5045 5.42106C10.4989 5.45901 10.4953 5.48252 10.4889 5.49703C10.4859 5.50372 10.4829 5.50714 10.4798 5.50911C10.4767 5.5111 10.472 5.51266 10.4638 5.51266V5.54266ZM10.468 5.31139C10.4533 5.33517 10.4243 5.382 10.4113 5.42688C10.4048 5.44924 10.4017 5.47324 10.4081 5.49441C10.4149 5.51685 10.4316 5.53377 10.4595 5.54204L10.4681 5.51327C10.4488 5.50756 10.4403 5.49746 10.4368 5.48574C10.4329 5.47274 10.4343 5.45542 10.4401 5.43521C10.4518 5.39493 10.4784 5.35155 10.4935 5.32714L10.468 5.31139ZM10.4735 5.30232L10.4679 5.31144L10.4935 5.3271L10.4991 5.31799L10.4735 5.30232ZM10.4488 5.18266C10.4382 5.19326 10.4382 5.19326 10.4382 5.19326C10.4382 5.19325 10.4382 5.19325 10.4382 5.19325C10.4382 5.19324 10.4382 5.19324 10.4382 5.19324C10.4382 5.19324 10.4382 5.19323 10.4382 5.19324C10.4382 5.19324 10.4382 5.19326 10.4382 5.19329C10.4383 5.19335 10.4384 5.19347 10.4385 5.19363C10.4389 5.19396 10.4394 5.19449 10.44 5.19522C10.4413 5.19667 10.4432 5.19888 10.4455 5.20178C10.45 5.2076 10.4559 5.21605 10.4612 5.2265C10.4719 5.2475 10.4799 5.27548 10.4718 5.30634L10.5008 5.31397C10.5114 5.27358 10.5007 5.23781 10.4879 5.21287C10.4816 5.20035 10.4745 5.19029 10.4691 5.18333C10.4664 5.17985 10.4641 5.17711 10.4624 5.17521C10.4615 5.17426 10.4608 5.17351 10.4603 5.17298C10.4601 5.17272 10.4599 5.17251 10.4597 5.17235C10.4596 5.17227 10.4596 5.17221 10.4595 5.17216C10.4595 5.17213 10.4595 5.17211 10.4594 5.17209C10.4594 5.17208 10.4594 5.17208 10.4594 5.17207C10.4594 5.17207 10.4594 5.17206 10.4594 5.17206C10.4594 5.17205 10.4594 5.17205 10.4488 5.18266ZM10.3695 5.29452C10.3792 5.29742 10.3894 5.29975 10.3994 5.2982C10.4105 5.29649 10.4191 5.29043 10.4261 5.28125C10.4326 5.27266 10.4381 5.26077 10.4437 5.2459C10.4494 5.23083 10.4556 5.21143 10.4631 5.18707L10.4345 5.17824C10.427 5.20263 10.421 5.22121 10.4157 5.23531C10.4103 5.24962 10.406 5.25813 10.4022 5.26312C10.3988 5.26754 10.3966 5.26828 10.3948 5.26855C10.3919 5.269 10.3872 5.26851 10.3781 5.26579L10.3695 5.29452ZM10.3782 5.14205C10.3503 5.16992 10.3332 5.20193 10.3298 5.23012C10.3282 5.24432 10.3299 5.25843 10.3368 5.27033C10.3438 5.28256 10.3553 5.29099 10.3702 5.29471L10.3774 5.2656C10.3698 5.26369 10.3654 5.25994 10.3628 5.25541C10.36 5.25055 10.3585 5.24334 10.3596 5.23363C10.3619 5.21401 10.3748 5.1879 10.3994 5.16326L10.3782 5.14205ZM10.3707 5.03951C10.4036 5.07247 10.4049 5.11539 10.3782 5.14205L10.3994 5.16326C10.4402 5.12242 10.4339 5.06034 10.3919 5.0183L10.3707 5.03951ZM10.2765 5.04519C10.2741 5.05973 10.2768 5.07356 10.2854 5.08384C10.294 5.09419 10.3068 5.09893 10.3202 5.09826C10.3465 5.09694 10.3747 5.07558 10.3947 5.03561L10.3679 5.0222C10.3504 5.05723 10.3298 5.06774 10.3187 5.0683C10.3133 5.06857 10.3102 5.06675 10.3085 5.06468C10.3067 5.06253 10.3048 5.05809 10.3061 5.05012L10.2765 5.04519ZM10.3104 4.88333L10.2766 5.04458L10.306 5.05073L10.3397 4.88948L10.3104 4.88333ZM10.28 4.90141L10.325 4.90141V4.87141L10.28 4.87141V4.90141ZM10.2802 4.76824L10.2652 4.88449L10.2949 4.88833L10.3099 4.77208L10.2802 4.76824ZM10.2391 4.78516H10.295V4.75516H10.2391V4.78516ZM10.254 4.77183L10.265 4.67433L10.2351 4.67098L10.2242 4.76848L10.254 4.77183ZM10.25 4.65766H9.7438V4.68766H10.25V4.65766ZM9.72884 4.67378L9.73615 4.77128L9.76607 4.76903L9.75876 4.67153L9.72884 4.67378ZM9.6988 4.78516H9.75111V4.75516H9.6988V4.78516ZM9.72868 4.88449L9.71368 4.76824L9.68392 4.77208L9.69892 4.88833L9.72868 4.88449ZM9.67255 4.90141L9.7138 4.90141V4.87141L9.67255 4.87141V4.90141ZM9.71731 5.04872L9.68731 4.88372L9.65779 4.88909L9.68779 5.05409L9.71731 5.04872ZM9.60303 5.03589C9.62236 5.07263 9.64612 5.09519 9.66996 5.0986C9.68274 5.10042 9.69477 5.09648 9.7036 5.08727C9.71201 5.07848 9.71637 5.06614 9.7175 5.05265L9.6876 5.05016C9.68685 5.05917 9.68418 5.06417 9.68193 5.06652C9.68009 5.06844 9.67783 5.06942 9.6742 5.0689C9.66523 5.06762 9.64774 5.05643 9.62957 5.02192L9.60303 5.03589ZM9.61995 5.14262C9.60554 5.12661 9.59968 5.10894 9.6008 5.09176C9.60193 5.07443 9.61027 5.05615 9.62691 5.03951L9.60569 5.0183C9.58483 5.03916 9.57254 5.06401 9.57086 5.08981C9.56917 5.11575 9.57831 5.1412 9.59765 5.16269L9.61995 5.14262ZM9.62744 5.29471C9.64229 5.29099 9.65383 5.28256 9.66083 5.27033C9.66766 5.25843 9.66943 5.24432 9.66776 5.23012C9.66444 5.20193 9.64727 5.16992 9.61941 5.14205L9.59819 5.16326C9.62283 5.1879 9.63566 5.21401 9.63796 5.23363C9.63911 5.24334 9.6376 5.25055 9.63481 5.25541C9.63221 5.25994 9.62781 5.26369 9.62016 5.2656L9.62744 5.29471ZM9.53442 5.18692C9.54192 5.21224 9.54814 5.23213 9.55385 5.24743C9.55946 5.26249 9.56503 5.27439 9.57169 5.28286C9.5789 5.29204 9.58774 5.29761 9.59885 5.29882C9.60862 5.29988 9.61873 5.29734 9.62811 5.29452L9.61949 5.26579C9.61012 5.2686 9.60523 5.26934 9.60211 5.26899C9.60032 5.2688 9.59838 5.26827 9.59528 5.26433C9.59163 5.25967 9.58735 5.25142 9.58195 5.23695C9.57664 5.22271 9.57068 5.20369 9.56318 5.17839L9.53442 5.18692ZM9.52447 5.30297C9.5212 5.29698 9.52024 5.28786 9.52244 5.27545C9.52459 5.2633 9.52943 5.24994 9.53526 5.23716C9.54104 5.22449 9.54753 5.21294 9.55261 5.20453C9.55515 5.20034 9.5573 5.19697 9.55881 5.19466C9.55957 5.19351 9.56016 5.19262 9.56056 5.19204C9.56075 5.19175 9.5609 5.19153 9.561 5.19139C9.56104 5.19132 9.56108 5.19127 9.5611 5.19125C9.56111 5.19123 9.56111 5.19122 9.56111 5.19122C9.56112 5.19122 9.56112 5.19122 9.56112 5.19122C9.56112 5.19122 9.56112 5.19122 9.56112 5.19122C9.56111 5.19122 9.56111 5.19122 9.5488 5.18266C9.53649 5.17409 9.53648 5.17409 9.53648 5.1741C9.53648 5.1741 9.53648 5.1741 9.53648 5.1741C9.53647 5.17411 9.53647 5.17412 9.53646 5.17413C9.53645 5.17414 9.53643 5.17416 9.53641 5.17419C9.53638 5.17425 9.53632 5.17432 9.53626 5.17442C9.53613 5.17461 9.53594 5.17488 9.5357 5.17523C9.53523 5.17593 9.53456 5.17694 9.53371 5.17823C9.53203 5.1808 9.52968 5.18448 9.52694 5.18902C9.52147 5.19807 9.51437 5.21067 9.50796 5.22471C9.5016 5.23866 9.49566 5.25459 9.4929 5.27021C9.49017 5.28558 9.49015 5.30271 9.49813 5.31734L9.52447 5.30297ZM9.53053 5.31277L9.52407 5.30229L9.49853 5.31803L9.50499 5.32851L9.53053 5.31277ZM9.53854 5.54189C9.56597 5.53274 9.5825 5.51565 9.58933 5.49345C9.59583 5.47237 9.59294 5.44872 9.58666 5.42668C9.57409 5.38255 9.54549 5.3368 9.53049 5.31271L9.50503 5.32857C9.52045 5.35333 9.54659 5.39552 9.55781 5.43489C9.56342 5.4546 9.56467 5.4716 9.56066 5.48462C9.55699 5.49653 9.54836 5.50699 9.52906 5.51343L9.53854 5.54189ZM9.4634 5.42542C9.46868 5.46129 9.47275 5.48999 9.48131 5.50923C9.48584 5.51942 9.49214 5.52826 9.50156 5.53433C9.51096 5.54038 9.52188 5.54266 9.5338 5.54266V5.51266C9.52562 5.51266 9.5209 5.5111 9.51781 5.50911C9.51474 5.50714 9.5117 5.50372 9.50872 5.49703C9.50227 5.48252 9.49866 5.45901 9.49308 5.42106L9.4634 5.42542ZM9.45525 5.37262C9.45851 5.39219 9.46109 5.40972 9.4634 5.42542L9.49308 5.42106C9.49077 5.40536 9.48816 5.38758 9.48484 5.36769L9.45525 5.37262ZM9.4428 5.56352C9.41851 5.5004 9.43335 5.42891 9.48075 5.38067L9.45935 5.35964C9.40371 5.41627 9.38629 5.5002 9.4148 5.57429L9.4428 5.56352ZM9.47567 5.62596C9.46356 5.60604 9.45176 5.58656 9.44278 5.56347L9.41482 5.57434C9.42489 5.60023 9.43805 5.62183 9.45003 5.64154L9.47567 5.62596ZM9.5188 5.74891C9.5188 5.69645 9.49673 5.6606 9.47567 5.62596L9.45003 5.64154C9.47128 5.6765 9.4888 5.70578 9.4888 5.74891H9.5188ZM9.4513 5.83891C9.46961 5.83891 9.48759 5.83302 9.50051 5.81687C9.51292 5.80136 9.5188 5.77863 9.5188 5.74891H9.4888C9.4888 5.77543 9.48343 5.7902 9.47709 5.79813C9.47125 5.80542 9.46299 5.80891 9.4513 5.80891V5.83891ZM9.35393 5.65714C9.36142 5.71333 9.37006 5.75753 9.38371 5.78787C9.39062 5.80322 9.39925 5.81607 9.41062 5.8251C9.42229 5.83438 9.43594 5.83891 9.4513 5.83891V5.80891C9.44228 5.80891 9.43531 5.80641 9.42928 5.80162C9.42295 5.79658 9.41682 5.78834 9.41107 5.77556C9.39942 5.74966 9.39117 5.70948 9.38367 5.65317L9.35393 5.65714ZM9.35468 5.86758C9.34952 5.86048 9.34543 5.84773 9.34365 5.82981C9.34191 5.81232 9.34253 5.79169 9.34524 5.77049C9.35074 5.72741 9.36434 5.68555 9.38069 5.6643L9.35691 5.64601C9.33576 5.67351 9.32123 5.72165 9.31548 5.76669C9.31256 5.78956 9.31178 5.81252 9.31379 5.83277C9.31576 5.85258 9.32058 5.8717 9.33042 5.88523L9.35468 5.86758ZM9.37423 5.89726L9.35508 5.86816L9.33002 5.88465L9.34918 5.91375L9.37423 5.89726ZM9.4813 6.11266C9.4813 6.08488 9.47205 6.05809 9.45449 6.0252C9.43702 5.9925 9.4104 5.95213 9.37423 5.89725L9.34918 5.91376C9.38569 5.96915 9.41136 6.00815 9.42802 6.03934C9.44459 6.07035 9.4513 6.092 9.4513 6.11266H9.4813ZM9.33934 6.05663C9.34993 6.09516 9.36272 6.12342 9.37653 6.14294C9.39022 6.16228 9.40598 6.17448 9.42281 6.17757C9.44048 6.18081 9.45594 6.1734 9.4662 6.16069C9.47615 6.14834 9.4813 6.13117 9.4813 6.11266H9.4513C9.4513 6.12601 9.44754 6.13603 9.44285 6.14185C9.43845 6.1473 9.43353 6.14903 9.42823 6.14806C9.42208 6.14693 9.4123 6.14155 9.40102 6.12561C9.38988 6.10986 9.37829 6.08515 9.36826 6.04868L9.33934 6.05663ZM9.3388 6.21766C9.35367 6.21567 9.35367 6.21568 9.35367 6.21568C9.35367 6.21568 9.35367 6.21568 9.35367 6.21568C9.35367 6.21568 9.35367 6.21568 9.35367 6.21567C9.35367 6.21566 9.35366 6.21565 9.35366 6.21563C9.35366 6.21559 9.35365 6.21552 9.35364 6.21543C9.35361 6.21524 9.35357 6.21495 9.35353 6.21456C9.35343 6.21377 9.35329 6.2126 9.35312 6.21107C9.35278 6.20801 9.35233 6.20355 9.35187 6.19802C9.35096 6.18695 9.35005 6.17167 9.35005 6.15484C9.35005 6.13797 9.35097 6.11982 9.35362 6.10291C9.3563 6.08583 9.36061 6.07098 9.36682 6.0601L9.34078 6.04521C9.33199 6.06058 9.32693 6.07948 9.32398 6.09826C9.32101 6.11721 9.32005 6.13702 9.32005 6.15484C9.32005 6.1727 9.32101 6.18883 9.32197 6.20049C9.32246 6.20633 9.32294 6.21107 9.3233 6.21437C9.32349 6.21602 9.32364 6.21731 9.32375 6.2182C9.3238 6.21865 9.32385 6.219 9.32388 6.21924C9.32389 6.21936 9.32391 6.21945 9.32391 6.21952C9.32392 6.21955 9.32392 6.21958 9.32393 6.2196C9.32393 6.21961 9.32393 6.21962 9.32393 6.21962C9.32393 6.21963 9.32393 6.21963 9.32393 6.21963C9.32393 6.21964 9.32393 6.21964 9.3388 6.21766ZM9.39484 6.28303C9.37017 6.26042 9.3538 6.24447 9.3538 6.21766H9.3238C9.3238 6.25955 9.35148 6.28398 9.37457 6.30514L9.39484 6.28303ZM9.4588 6.40516C9.4588 6.34122 9.42319 6.30901 9.39484 6.28303L9.37457 6.30514C9.40273 6.33095 9.4288 6.35528 9.4288 6.40516H9.4588ZM9.73615 4.77128L9.73634 4.77378L9.76626 4.77153L9.76607 4.76903L9.73615 4.77128ZM9.7513 4.78766H10.2388V4.75766H9.7513V4.78766ZM10.2537 4.77433L10.254 4.77183L10.2242 4.76848L10.2239 4.77098L10.2537 4.77433ZM9.75111 4.78516H10.2391V4.75516H9.75111V4.78516ZM9.81139 4.57308L9.82264 4.67308L9.85245 4.66973L9.8412 4.56973L9.81139 4.57308ZM10.1638 4.55641H9.8263V4.58641H10.1638V4.55641ZM10.175 4.67197L10.1788 4.57197L10.1488 4.57084L10.1451 4.67084L10.175 4.67197ZM9.83755 4.68641H10.16V4.65641H9.83755V4.68641ZM11.08 8.77975C11.0445 8.76732 10.9993 8.74119 10.9632 8.70869C10.9265 8.67564 10.9025 8.63913 10.9025 8.60641H10.8725C10.8725 8.65243 10.9049 8.69655 10.9431 8.73099C10.982 8.76599 11.0306 8.79424 11.0701 8.80806L11.08 8.77975ZM8.9563 8.80891H11.075V8.77891H8.9563V8.80891ZM9.0913 8.60641C9.0913 8.64117 9.0746 8.6782 9.0479 8.71024C9.02127 8.7422 8.98595 8.76764 8.95134 8.77975L8.96125 8.80806C9.00165 8.79393 9.04133 8.76499 9.07095 8.72945C9.1005 8.69399 9.1213 8.65039 9.1213 8.60641H9.0913ZM9.0913 7.69516V8.60641H9.1213V7.69516H9.0913ZM9.00046 7.57654L9.09421 7.70404L9.11838 7.68627L9.02463 7.55877L9.00046 7.57654ZM10.985 7.55266H9.01255V7.58266H10.985V7.55266ZM10.8995 7.70427L10.997 7.57677L10.9731 7.55854L10.8756 7.68604L10.8995 7.70427ZM10.9025 8.60641V7.69516H10.8725V8.60641H10.9025Z" fill="black"/>
<path fill-rule="evenodd" clip-rule="evenodd" d="M9.49242 7.97266H9.35742V8.97266H9.49242V7.97266ZM10.6324 7.97266H10.4974V8.97266H10.6324V7.97266Z" fill="white"/>
<path d="M9.35742 7.97266V7.95766L9.34242 7.97266H9.35742ZM9.49242 7.97266H9.50742L9.49242 7.95766V7.97266ZM9.35742 8.97266H9.34242L9.35742 8.98766V8.97266ZM9.49242 8.97266V8.98766L9.50742 8.97266H9.49242ZM10.4974 7.97266V7.95766L10.4824 7.97266H10.4974ZM10.6324 7.97266H10.6474L10.6324 7.95766V7.97266ZM10.4974 8.97266H10.4824L10.4974 8.98766V8.97266ZM10.6324 8.97266V8.98766L10.6474 8.97266H10.6324ZM9.35742 7.98766H9.49242V7.95766H9.35742V7.98766ZM9.37242 8.97266V7.97266H9.34242V8.97266H9.37242ZM9.49242 8.95766H9.35742V8.98766H9.49242V8.95766ZM9.47742 7.97266V8.97266H9.50742V7.97266H9.47742ZM10.4974 7.98766H10.6324V7.95766H10.4974V7.98766ZM10.5124 8.97266V7.97266H10.4824V8.97266H10.5124ZM10.6324 8.95766H10.4974V8.98766H10.6324V8.95766ZM10.6174 7.97266V8.97266H10.6474V7.97266H10.6174Z" fill="black"/>
<path d="M8.97494 6.53271V7.56771H10.9999V6.53271C10.9525 6.55005 10.9162 6.5891 10.9024 6.63771V7.08021H9.07619V6.63771C9.07619 6.63771 9.05369 6.56271 8.97119 6.53271H8.97494Z" fill="white" stroke="black" stroke-width="0.03"/>
<path d="M10.7225 8.79398C10.655 8.76773 10.5125 8.68523 10.5125 8.60648V7.58648C10.5275 7.53023 10.6025 7.49648 10.6512 7.45898H9.31245C9.3762 7.49648 9.44745 7.52273 9.4737 7.58648V8.60648C9.4737 8.68523 9.3612 8.76773 9.2937 8.79398H10.7225Z" fill="white" stroke="black" stroke-width="0.03"/>
<path fill-rule="evenodd" clip-rule="evenodd" d="M10.9024 6.73531V7.47031H9.07617V6.73906H9.26367V6.66406H10.7187V6.73531H10.9024ZM10.2762 8.60656C10.2762 8.68531 10.3699 8.76781 10.4374 8.79406H9.55992C9.62367 8.76781 9.72117 8.68531 9.72117 8.60656V7.73281L9.66492 7.65781H10.3287L10.2762 7.73656V8.60656Z" fill="white"/>
<path d="M10.9024 7.47031V7.48531H10.9174V7.47031H10.9024ZM10.9024 6.73531H10.9174V6.72031H10.9024V6.73531ZM9.07617 7.47031H9.06117V7.48531H9.07617V7.47031ZM9.07617 6.73906V6.72406H9.06117V6.73906H9.07617ZM9.26367 6.73906V6.75406H9.27867V6.73906H9.26367ZM9.26367 6.66406V6.64906H9.24867V6.66406H9.26367ZM10.7187 6.66406H10.7337V6.64906H10.7187V6.66406ZM10.7187 6.73531H10.7037V6.75031H10.7187V6.73531ZM10.4374 8.79406V8.80906L10.4429 8.78008L10.4374 8.79406ZM9.55992 8.79406L9.55421 8.78019L9.55992 8.80906V8.79406ZM9.72117 7.73281H9.73992L9.73317 7.72381L9.72117 7.73281ZM9.66492 7.65781V7.64281H9.63492L9.65292 7.66681L9.66492 7.65781ZM10.3287 7.65781L10.3412 7.66613L10.3567 7.64281H10.3287V7.65781ZM10.2762 7.73656L10.2612 7.72656V7.73656H10.2762ZM10.9174 7.47031V6.73531H10.8874V7.47031H10.9174ZM9.07617 7.48531H10.9024V7.45531H9.07617V7.48531ZM9.06117 6.73906V7.47031H9.09117V6.73906H9.06117ZM9.26367 6.72406H9.07617V6.75406H9.26367V6.72406ZM9.24867 6.66406V6.73906H9.27867V6.66406H9.24867ZM10.7187 6.64906H9.26367V6.67906H10.7187V6.64906ZM10.7337 6.73531V6.66406H10.7037V6.73531H10.7337ZM10.9024 6.72031H10.7187V6.75031H10.9024V6.72031ZM10.4429 8.78008C10.4114 8.76786 10.3729 8.74203 10.3424 8.7097C10.3116 8.67707 10.2912 8.64031 10.2912 8.60656H10.2612C10.2612 8.65156 10.2876 8.69543 10.3206 8.7303C10.3538 8.76547 10.3959 8.79402 10.432 8.80804L10.4429 8.78008ZM9.55992 8.80906H10.4374V8.77906H9.55992V8.80906ZM9.70617 8.60656C9.70617 8.64013 9.68503 8.67685 9.65362 8.70962C9.62256 8.74204 9.58394 8.76795 9.55421 8.78019L9.56563 8.80793C9.59965 8.79393 9.64166 8.76546 9.67528 8.73038C9.70857 8.69565 9.73617 8.65174 9.73617 8.60656H9.70617ZM9.70617 7.73281V8.60656H9.73617V7.73281H9.70617ZM9.65292 7.66681L9.70917 7.74181L9.73317 7.72381L9.67692 7.64881L9.65292 7.66681ZM10.3287 7.64281H9.66492V7.67281H10.3287V7.64281ZM10.2887 7.74488L10.3412 7.66613L10.3162 7.64949L10.2637 7.72824L10.2887 7.74488ZM10.2912 8.60656V7.73656H10.2612V8.60656H10.2912Z" fill="black"/>
<path fill-rule="evenodd" clip-rule="evenodd" d="M10.85 6.30371C10.85 6.30371 10.6662 6.32706 10.6662 6.54496V6.36208C10.61 6.36208 10.6025 6.43212 10.6025 6.62278L9.39123 6.61889C9.39123 6.43601 9.39123 6.35819 9.32373 6.35819V6.9613C9.46248 7.01577 9.55998 7.19476 9.55998 7.19476H10.43C10.43 7.19476 10.5275 7.01577 10.6662 6.9613V7.30371H10.8012V6.75118C10.8012 6.75118 10.745 6.75118 10.745 6.65391C10.745 6.56052 10.7787 6.49437 10.85 6.49826V6.30371Z" fill="white"/>
<path d="M10.85 6.30371H10.865V6.28668L10.8481 6.28883L10.85 6.30371ZM10.6662 6.36208H10.6812V6.34708H10.6662V6.36208ZM10.6025 6.62278L10.6024 6.63778L10.6175 6.63783V6.62278H10.6025ZM9.39123 6.61889H9.37623V6.63384L9.39118 6.63389L9.39123 6.61889ZM9.32373 6.35819V6.34319H9.30873V6.35819H9.32373ZM9.32373 6.9613H9.30873V6.97152L9.31825 6.97526L9.32373 6.9613ZM9.55998 7.19476L9.54681 7.20194L9.55107 7.20976H9.55998V7.19476ZM10.43 7.19476V7.20976H10.4389L10.4432 7.20194L10.43 7.19476ZM10.6662 6.9613H10.6812V6.93929L10.6607 6.94734L10.6662 6.9613ZM10.6662 7.30371H10.6512V7.31871H10.6662V7.30371ZM10.8012 7.30371V7.31871H10.8162V7.30371H10.8012ZM10.8012 6.75118H10.8162V6.73618H10.8012V6.75118ZM10.85 6.49826L10.8492 6.51324L10.865 6.5141V6.49826H10.85ZM10.6812 6.54496C10.6812 6.44105 10.7247 6.38518 10.7669 6.35479C10.7883 6.33938 10.8098 6.33027 10.8259 6.32503C10.834 6.32242 10.8406 6.32078 10.8452 6.31981C10.8475 6.31933 10.8492 6.31901 10.8504 6.31882C10.851 6.31873 10.8514 6.31866 10.8516 6.31863C10.8517 6.31861 10.8518 6.3186 10.8519 6.31859C10.8519 6.31859 10.8519 6.31859 10.8519 6.31859C10.8519 6.31859 10.8519 6.31859 10.8519 6.31859C10.8519 6.31859 10.8519 6.31859 10.8519 6.31859C10.8519 6.31859 10.8519 6.31859 10.85 6.30371C10.8481 6.28883 10.8481 6.28883 10.8481 6.28883C10.8481 6.28883 10.8481 6.28883 10.848 6.28884C10.848 6.28884 10.848 6.28884 10.848 6.28884C10.8479 6.28885 10.8479 6.28886 10.8478 6.28887C10.8477 6.28888 10.8475 6.28891 10.8473 6.28894C10.8468 6.28901 10.8462 6.2891 10.8455 6.28923C10.8439 6.28949 10.8417 6.28989 10.839 6.29047C10.8335 6.29162 10.8258 6.29352 10.8166 6.2965C10.7983 6.30244 10.7739 6.31279 10.7493 6.33045C10.6997 6.36621 10.6512 6.43096 10.6512 6.54496H10.6812ZM10.6512 6.36208V6.54496H10.6812V6.36208H10.6512ZM10.6175 6.62278C10.6175 6.527 10.6194 6.46356 10.6279 6.42409C10.6322 6.4044 10.6377 6.39272 10.6437 6.38605C10.649 6.38012 10.6557 6.37708 10.6662 6.37708V6.34708C10.6486 6.34708 10.6333 6.35279 10.6214 6.36595C10.6102 6.37837 10.6033 6.39612 10.5986 6.41777C10.5893 6.46099 10.5875 6.52789 10.5875 6.62278H10.6175ZM9.39118 6.63389L10.6024 6.63778L10.6025 6.60778L9.39128 6.60389L9.39118 6.63389ZM9.32373 6.37319C9.33742 6.37319 9.34574 6.37697 9.3518 6.38345C9.35848 6.39059 9.36407 6.40278 9.36808 6.42289C9.37615 6.46337 9.37623 6.52665 9.37623 6.61889H9.40623C9.40623 6.52825 9.40631 6.46117 9.3975 6.41702C9.39307 6.39481 9.38602 6.37612 9.37371 6.36296C9.36078 6.34913 9.34379 6.34319 9.32373 6.34319V6.37319ZM9.33873 6.9613V6.35819H9.30873V6.9613H9.33873ZM9.55998 7.19476C9.57315 7.18759 9.57315 7.18758 9.57315 7.18758C9.57315 7.18758 9.57314 7.18757 9.57314 7.18757C9.57314 7.18756 9.57313 7.18754 9.57312 7.18753C9.57311 7.1875 9.57308 7.18746 9.57305 7.18741C9.573 7.1873 9.57292 7.18716 9.57281 7.18697C9.57261 7.1866 9.57231 7.18606 9.57191 7.18536C9.57112 7.18397 9.56997 7.18194 9.56845 7.17937C9.56543 7.17422 9.56097 7.16684 9.5552 7.15785C9.54367 7.13986 9.52683 7.11532 9.50555 7.08902C9.46329 7.0368 9.40223 6.976 9.32921 6.94734L9.31825 6.97526C9.38398 7.00107 9.44104 7.057 9.48223 7.10789C9.50266 7.13315 9.51887 7.15676 9.52995 7.17404C9.53549 7.18268 9.53974 7.18971 9.54259 7.19456C9.54401 7.19698 9.54508 7.19886 9.54579 7.20012C9.54615 7.20074 9.54641 7.20121 9.54658 7.20152C9.54666 7.20167 9.54673 7.20179 9.54676 7.20186C9.54678 7.20189 9.5468 7.20192 9.5468 7.20193C9.54681 7.20194 9.54681 7.20194 9.54681 7.20194C9.54681 7.20194 9.54681 7.20194 9.54681 7.20194C9.54681 7.20194 9.54681 7.20194 9.55998 7.19476ZM10.43 7.17976H9.55998V7.20976H10.43V7.17976ZM10.6607 6.94734C10.5877 6.976 10.5267 7.0368 10.4844 7.08902C10.4631 7.11532 10.4463 7.13986 10.4348 7.15785C10.429 7.16684 10.4245 7.17422 10.4215 7.17937C10.42 7.18194 10.4188 7.18397 10.418 7.18536C10.4177 7.18606 10.4174 7.1866 10.4171 7.18697C10.417 7.18716 10.417 7.1873 10.4169 7.18741C10.4169 7.18746 10.4169 7.1875 10.4168 7.18753C10.4168 7.18754 10.4168 7.18756 10.4168 7.18757C10.4168 7.18757 10.4168 7.18758 10.4168 7.18758C10.4168 7.18758 10.4168 7.18759 10.43 7.19476C10.4432 7.20194 10.4432 7.20194 10.4432 7.20194C10.4432 7.20194 10.4432 7.20194 10.4432 7.20194C10.4432 7.20194 10.4432 7.20194 10.4432 7.20193C10.4432 7.20192 10.4432 7.20189 10.4432 7.20186C10.4432 7.20179 10.4433 7.20167 10.4434 7.20152C10.4436 7.20121 10.4438 7.20074 10.4442 7.20012C10.4449 7.19886 10.446 7.19698 10.4474 7.19456C10.4502 7.18971 10.4545 7.18268 10.46 7.17404C10.4711 7.15676 10.4873 7.13315 10.5077 7.10789C10.5489 7.057 10.606 7.00107 10.6717 6.97526L10.6607 6.94734ZM10.6812 7.30371V6.9613H10.6512V7.30371H10.6812ZM10.8012 7.28871H10.6662V7.31871H10.8012V7.28871ZM10.7862 6.75118V7.30371H10.8162V6.75118H10.7862ZM10.73 6.65391C10.73 6.70547 10.745 6.73454 10.7633 6.75037C10.7722 6.7581 10.7813 6.76206 10.7883 6.76408C10.7918 6.76508 10.7948 6.7656 10.797 6.76588C10.7981 6.76602 10.799 6.76609 10.7997 6.76613C10.8001 6.76615 10.8004 6.76617 10.8007 6.76617C10.8008 6.76618 10.8009 6.76618 10.801 6.76618C10.801 6.76618 10.8011 6.76618 10.8011 6.76618C10.8011 6.76618 10.8012 6.76618 10.8012 6.76618C10.8012 6.76618 10.8012 6.76618 10.8012 6.76618C10.8012 6.76618 10.8012 6.76618 10.8012 6.75118C10.8012 6.73618 10.8012 6.73618 10.8013 6.73618C10.8013 6.73618 10.8013 6.73618 10.8013 6.73618C10.8013 6.73618 10.8013 6.73618 10.8013 6.73618C10.8013 6.73618 10.8014 6.73618 10.8014 6.73618C10.8014 6.73618 10.8015 6.73618 10.8015 6.73618C10.8015 6.73619 10.8015 6.73619 10.8015 6.73618C10.8014 6.73618 10.8011 6.73616 10.8007 6.7361C10.7998 6.736 10.7984 6.73576 10.7966 6.73525C10.793 6.73422 10.788 6.7321 10.7829 6.72768C10.7731 6.71918 10.76 6.69962 10.76 6.65391H10.73ZM10.8508 6.48329C10.8093 6.48102 10.7781 6.49962 10.758 6.53165C10.7386 6.56272 10.73 6.60581 10.73 6.65391H10.76C10.76 6.60862 10.7682 6.57194 10.7835 6.54756C10.7981 6.52414 10.8194 6.51161 10.8492 6.51324L10.8508 6.48329ZM10.835 6.30371V6.49826H10.865V6.30371H10.835Z" fill="black"/>
<path d="M9.32364 6.53621C9.32364 6.32621 9.13989 6.30371 9.13989 6.30371V6.49121C9.21114 6.48746 9.24489 6.55121 9.24489 6.64121C9.24489 6.73496 9.18864 6.73496 9.18864 6.73496V7.26746H9.32364V6.53621Z" fill="white" stroke="black" stroke-width="0.03"/>
<path d="M9.68005 5.13121H10.325V5.10121H9.68005V5.13121ZM9.60505 5.33371H10.3925V5.30371H9.60505V5.33371ZM9.53005 5.57746H10.4638V5.54746H9.53005V5.57746ZM9.4513 5.87371H10.5575V5.84371H9.4513V5.87371ZM9.42505 6.21121H10.565V6.18121H9.42505V6.21121Z" fill="black"/>
<path fill-rule="evenodd" clip-rule="evenodd" d="M9.82301 5.13408L9.9292 5.18283L10.0796 5.17908L10.1814 5.13408V5.00283C10.1761 5.00434 10.1705 5.00572 10.1648 5.00712C10.1283 5.01611 10.0885 5.0259 10.0885 5.07783C10.0747 5.01066 10.0582 5.00035 10.0307 4.98313C10.0229 4.97824 10.0142 4.9728 10.0044 4.96533C9.99428 4.97393 9.98472 4.97985 9.97587 4.98532C9.94997 5.00134 9.93025 5.01355 9.92035 5.07783C9.91242 5.02407 9.87608 5.01547 9.83677 5.00617C9.83221 5.00509 9.82761 5.004 9.82301 5.00283V5.13408ZM9.61541 7.17605C9.61708 7.03936 9.6195 6.84186 9.5 6.72033H10.5C10.3805 6.84186 10.3829 7.03936 10.3846 7.17605C10.3848 7.1912 10.385 7.20561 10.385 7.21908H9.61504C9.61504 7.20561 9.61522 7.1912 9.61541 7.17605Z" fill="white"/>
<path d="M9.9292 5.18283L9.92224 5.19801L9.92958 5.19783L9.9292 5.18283ZM9.82301 5.13408H9.80801V5.1437L9.81675 5.14771L9.82301 5.13408ZM10.0796 5.17908L10.0801 5.1953L10.0857 5.1928L10.0796 5.17908ZM10.1814 5.13408L10.1875 5.1478L10.1964 5.14385V5.13408H10.1814ZM10.1814 5.00283H10.1964V4.98301L10.1773 4.9884L10.1814 5.00283ZM10.1648 5.00712L10.1612 4.99255L10.1612 4.99255L10.1648 5.00712ZM10.0885 5.07783L10.0738 5.08085L10.1035 5.07783H10.0885ZM10.0307 4.98313L10.0387 4.97042V4.97042L10.0307 4.98313ZM10.0044 4.96533L10.0135 4.95341L10.0039 4.94609L9.99473 4.95389L10.0044 4.96533ZM9.97587 4.98532L9.96798 4.97257V4.97257L9.97587 4.98532ZM9.92035 5.07783L9.90551 5.08002L9.93518 5.08011L9.92035 5.07783ZM9.83677 5.00617L9.84023 4.99157L9.84023 4.99157L9.83677 5.00617ZM9.82301 5.00283L9.8267 4.98829L9.80801 4.98354V5.00283H9.82301ZM9.5 6.72033V6.70533H9.46421L9.4893 6.73085L9.5 6.72033ZM9.61541 7.17605L9.60041 7.17586L9.61541 7.17605ZM10.5 6.72033L10.5107 6.73085L10.5358 6.70533H10.5V6.72033ZM10.3846 7.17605L10.3996 7.17586L10.3846 7.17605ZM10.385 7.21908V7.23408H10.4V7.21908H10.385ZM9.61504 7.21908H9.60004V7.23408H9.61504V7.21908ZM9.93546 5.1692L9.82927 5.12045L9.81675 5.14771L9.92295 5.19646L9.93546 5.1692ZM10.0793 5.16409L9.92883 5.16784L9.92958 5.19783L10.08 5.19408L10.0793 5.16409ZM10.1753 5.12036L10.0736 5.16536L10.0857 5.1928L10.1875 5.1478L10.1753 5.12036ZM10.1664 5.00283V5.13408H10.1964V5.00283H10.1664ZM10.1684 5.02168C10.174 5.0203 10.1799 5.01886 10.1855 5.01727L10.1773 4.9884C10.1723 4.98983 10.1669 4.99114 10.1612 4.99255L10.1684 5.02168ZM10.1035 5.07783C10.1035 5.05662 10.1112 5.04587 10.1215 5.0387C10.1333 5.03051 10.1494 5.02634 10.1684 5.02168L10.1612 4.99255C10.1436 4.99688 10.1216 5.00211 10.1044 5.01405C10.0857 5.027 10.0735 5.04711 10.0735 5.07783H10.1035ZM10.0228 4.99585C10.0367 5.00459 10.0452 5.01006 10.0525 5.02041C10.06 5.03101 10.0671 5.04797 10.0738 5.08085L10.1032 5.07482C10.0962 5.04051 10.0881 5.01874 10.077 5.00309C10.0658 4.98718 10.0522 4.97889 10.0387 4.97042L10.0228 4.99585ZM9.99533 4.97726C10.0057 4.98519 10.015 4.99096 10.0228 4.99585L10.0387 4.97042C10.0309 4.96553 10.0227 4.9604 10.0135 4.95341L9.99533 4.97726ZM9.98376 4.99808C9.99259 4.99262 10.003 4.98618 10.0141 4.97678L9.99473 4.95389C9.98554 4.96168 9.97684 4.96708 9.96798 4.97257L9.98376 4.99808ZM9.93518 5.08011C9.93995 5.04914 9.94682 5.03263 9.95429 5.02223C9.96173 5.01188 9.97062 5.00621 9.98376 4.99808L9.96798 4.97257C9.95523 4.98045 9.94131 4.98889 9.92993 5.00473C9.91859 5.0205 9.91066 5.04224 9.90553 5.07555L9.93518 5.08011ZM9.83332 5.02077C9.85362 5.02557 9.86967 5.02955 9.88199 5.03779C9.89309 5.04523 9.9021 5.05687 9.90551 5.08002L9.93519 5.07564C9.93068 5.04503 9.91755 5.0255 9.89867 5.01286C9.881 5.00104 9.85923 4.99607 9.84023 4.99157L9.83332 5.02077ZM9.81931 5.01737C9.82405 5.01858 9.82878 5.01969 9.83332 5.02077L9.84023 4.99157C9.83565 4.99049 9.83117 4.98943 9.8267 4.98829L9.81931 5.01737ZM9.83801 5.13408V5.00283H9.80801V5.13408H9.83801ZM9.4893 6.73085C9.54611 6.78862 9.57452 6.86504 9.58836 6.94506C9.60221 7.02514 9.60125 7.10734 9.60041 7.17586L9.6304 7.17623C9.63124 7.10806 9.63232 7.02317 9.61792 6.93995C9.60352 6.85667 9.57339 6.77357 9.5107 6.70982L9.4893 6.73085ZM10.5 6.70533H9.5V6.73533H10.5V6.70533ZM10.3996 7.17586C10.3988 7.10734 10.3978 7.02514 10.4116 6.94506C10.4255 6.86504 10.4539 6.78862 10.5107 6.73085L10.4893 6.70982C10.4266 6.77357 10.3965 6.85667 10.3821 6.93995C10.3677 7.02317 10.3688 7.10806 10.3696 7.17623L10.3996 7.17586ZM10.4 7.21908C10.4 7.2055 10.3998 7.191 10.3996 7.17586L10.3696 7.17623C10.3698 7.19141 10.37 7.20572 10.37 7.21908H10.4ZM9.61504 7.23408H10.385V7.20408H9.61504V7.23408ZM9.60041 7.17586C9.60022 7.191 9.60004 7.2055 9.60004 7.21908H9.63004C9.63004 7.20572 9.63022 7.19141 9.6304 7.17623L9.60041 7.17586Z" fill="black"/>
<path d="M9.93125 5.39654L9.78125 5.29154V5.17529C9.8375 5.18654 9.89375 5.19404 9.90125 5.25779C9.91625 5.16404 9.95 5.11904 10.0025 5.08154C10.0512 5.11904 10.085 5.16404 10.1037 5.25779C10.1075 5.19404 10.1675 5.18654 10.2163 5.17529V5.29529L10.07 5.39654H9.93125Z" fill="white" stroke="black" stroke-width="0.03"/>
<path fill-rule="evenodd" clip-rule="evenodd" d="M9.88636 5.73014L9.63068 5.58014V5.40389L9.65392 5.40759C9.73823 5.42077 9.82482 5.43431 9.83523 5.52014C9.86364 5.38889 9.92045 5.31764 10.0057 5.26514C10.0966 5.31764 10.1534 5.38889 10.1875 5.52014C10.1979 5.43431 10.2845 5.42077 10.3688 5.40759L10.392 5.40389V5.58014L10.1307 5.73014H9.88636ZM10.3636 5.92889L10.1364 6.14264H9.86932L9.63636 5.92889H10.3636ZM9.67045 6.57014C9.65909 6.41264 9.61364 6.32639 9.5 6.28514H10.5C10.3864 6.32639 10.3409 6.41264 10.3295 6.57014H9.67045Z" fill="white"/>
<path d="M9.63068 5.58014H9.61568V5.58873L9.62309 5.59307L9.63068 5.58014ZM9.88636 5.73014L9.87756 5.74514H9.88636V5.73014ZM9.63068 5.40389L9.63304 5.38907L9.61568 5.38631V5.40389H9.63068ZM9.65392 5.40759L9.65156 5.4224L9.6516 5.42241L9.65392 5.40759ZM9.83523 5.52014L9.82034 5.52194L9.84989 5.52331L9.83523 5.52014ZM10.0057 5.26514L10.0132 5.25215L10.0054 5.24767L9.99781 5.25237L10.0057 5.26514ZM10.1875 5.52014L10.173 5.52391L10.2024 5.52194L10.1875 5.52014ZM10.3688 5.40759L10.3711 5.42241L10.3712 5.4224L10.3688 5.40759ZM10.392 5.40389H10.407V5.38631L10.3897 5.38907L10.392 5.40389ZM10.392 5.58014L10.3995 5.59315L10.407 5.58882V5.58014H10.392ZM10.1307 5.73014V5.74743L10.1381 5.74315L10.1307 5.73014ZM10.1364 6.14264V6.16323L10.1466 6.15356L10.1364 6.14264ZM10.3636 5.92889L10.3739 5.93981L10.4015 5.91389H10.3636V5.92889ZM9.86932 6.14264L9.85555 6.15764H9.86932V6.14264ZM9.63636 5.92889V5.91389H9.59783L9.62622 5.93994L9.63636 5.92889ZM9.5 6.28514V6.27014L9.49488 6.29924L9.5 6.28514ZM9.67045 6.57014L9.65549 6.57122L9.6565 6.58514H9.67045V6.57014ZM10.5 6.28514L10.5051 6.29924L10.5 6.27014V6.28514ZM10.3295 6.57014V6.58514H10.3435L10.3445 6.57122L10.3295 6.57014ZM9.62309 5.59307L9.87877 5.74307L9.89395 5.7172L9.63827 5.5672L9.62309 5.59307ZM9.61568 5.40389V5.58014H9.64568V5.40389H9.61568ZM9.65628 5.39277L9.63304 5.38907L9.62832 5.4187L9.65156 5.4224L9.65628 5.39277ZM9.85012 5.51833C9.84416 5.46918 9.81571 5.44048 9.77868 5.42305C9.74285 5.40619 9.69778 5.39926 9.65624 5.39277L9.6516 5.42241C9.69437 5.42909 9.73475 5.43553 9.7659 5.45019C9.79584 5.46428 9.81589 5.48527 9.82034 5.52194L9.85012 5.51833ZM9.99781 5.25237C9.90897 5.30709 9.8498 5.38188 9.82057 5.51696L9.84989 5.52331C9.87747 5.39589 9.93194 5.32818 10.0135 5.27791L9.99781 5.25237ZM10.202 5.51637C10.1846 5.44942 10.1612 5.39693 10.13 5.35425C10.0987 5.31149 10.0601 5.27924 10.0132 5.25215L9.99818 5.27813C10.0422 5.30353 10.0774 5.33316 10.1058 5.37196C10.1342 5.41084 10.1563 5.4596 10.173 5.52391L10.202 5.51637ZM10.3665 5.39277C10.3249 5.39926 10.2799 5.40619 10.2441 5.42305C10.207 5.44048 10.1786 5.46918 10.1726 5.51833L10.2024 5.52194C10.2068 5.48527 10.2269 5.46428 10.2568 5.45019C10.288 5.43553 10.3284 5.42909 10.3711 5.42241L10.3665 5.39277ZM10.3897 5.38907L10.3665 5.39277L10.3712 5.4224L10.3944 5.4187L10.3897 5.38907ZM10.407 5.58014V5.40389H10.377V5.58014H10.407ZM10.1381 5.74315L10.3995 5.59315L10.3846 5.56713L10.1232 5.71713L10.1381 5.74315ZM9.88636 5.74514H10.1307V5.71514H9.88636V5.74514ZM10.1466 6.15356L10.3739 5.93981L10.3534 5.91796L10.1261 6.13171L10.1466 6.15356ZM9.86932 6.15764H10.1364V6.12764H9.86932V6.15764ZM9.62622 5.93994L9.85918 6.15369L9.87946 6.13158L9.6465 5.91783L9.62622 5.93994ZM10.3636 5.91389H9.63636V5.94389H10.3636V5.91389ZM9.49488 6.29924C9.54883 6.31882 9.58561 6.34859 9.61061 6.39158C9.63594 6.43513 9.64988 6.49343 9.65549 6.57122L9.68542 6.56906C9.67966 6.48934 9.6652 6.42577 9.63655 6.3765C9.60757 6.32668 9.56481 6.2927 9.50512 6.27104L9.49488 6.29924ZM10.5 6.27014H9.5V6.30014H10.5V6.27014ZM10.3445 6.57122C10.3501 6.49343 10.3641 6.43513 10.3894 6.39158C10.4144 6.34859 10.4512 6.31882 10.5051 6.29924L10.4949 6.27104C10.4352 6.2927 10.3924 6.32668 10.3635 6.3765C10.3348 6.42577 10.3203 6.48934 10.3146 6.56906L10.3445 6.57122ZM9.67045 6.58514H10.3295V6.55514H9.67045V6.58514Z" fill="black"/>
<path d="M10.3325 5.92502V5.71502C10.2668 5.729 10.213 5.77575 10.19 5.83877C10.19 5.76377 10.0962 5.60252 9.99497 5.52002C9.89372 5.61002 9.79622 5.76002 9.79997 5.83502C9.78122 5.77877 9.73247 5.73377 9.65747 5.71502V5.92877L10.3325 5.92502Z" fill="white" stroke="black" stroke-width="0.03" stroke-linejoin="bevel"/>
<path d="M10.3624 6.28537V6.07537C10.2837 6.09787 10.2312 6.13912 10.2087 6.19912C10.2087 6.12412 10.1074 5.96287 9.99494 5.88037C9.88244 5.97412 9.77744 6.12037 9.78119 6.19912C9.76244 6.14287 9.70619 6.09787 9.62744 6.07537V6.28912L10.3624 6.28537Z" fill="white" stroke="black" stroke-width="0.03" stroke-linejoin="bevel"/>
<path d="M10.4524 6.72402V6.47652C10.3744 6.50091 10.3069 6.55117 10.2612 6.61902C10.2612 6.48777 10.1112 6.28152 9.99494 6.21777C9.87494 6.28527 9.72869 6.49527 9.72869 6.61902C9.68182 6.5507 9.61302 6.50043 9.53369 6.47652V6.72402H10.4524Z" fill="white" stroke="black" stroke-width="0.03" stroke-linejoin="bevel"/>
<path d="M6.38759 8.59514V7.83014C6.36134 7.73264 6.27509 7.64264 6.21509 7.62764V6.95264L6.35384 7.02764L6.51509 7.73639V8.59889L6.38759 8.59514Z" fill="white" stroke="black" stroke-width="0.03"/>
<path d="M6.28638 8.79379C6.35013 8.76754 6.44388 8.68504 6.44388 8.60629V7.64629L6.39888 7.57129H8.03763L7.97388 7.64629V8.60629C7.97948 8.6872 8.02819 8.75884 8.10138 8.79379H6.28638Z" fill="white" stroke="black" stroke-width="0.03"/>
<path d="M7.76755 8.79363C7.7038 8.76738 7.61005 8.68488 7.61005 8.60613V7.69488L7.74505 7.56738H6.63505L6.77005 7.69488V8.60613C6.77005 8.68488 6.6763 8.76738 6.61255 8.79363H7.76755Z" fill="white" stroke="black" stroke-width="0.03"/>
<path d="M7.61386 8.79396C7.55011 8.76771 7.45261 8.68521 7.45261 8.60646V7.78146L7.54261 7.65771H6.83761L6.92761 7.78146V8.60646C6.92761 8.68521 6.83386 8.76771 6.76636 8.79396H7.61386Z" fill="white" stroke="black" stroke-width="0.03"/>
<path fill-rule="evenodd" clip-rule="evenodd" d="M6.44751 6.81006H6.60876V6.93006H6.61251V7.56756H6.44751V6.93006V6.81006ZM6.56376 7.97256H6.69876V8.59131H6.56376V7.97256ZM7.71876 7.97256H7.85001V8.59131H7.71501L7.71876 7.97256ZM8.01126 7.06881H7.78251V7.55631H8.01126V7.06881Z" fill="white"/>
<path d="M6.60876 6.81006H6.62376L6.60876 6.79506V6.81006ZM6.44751 6.81006V6.79506L6.43251 6.81006H6.44751ZM6.60876 6.93006H6.59376L6.60876 6.94506V6.93006ZM6.61251 6.93006H6.62751L6.61251 6.91506V6.93006ZM6.61251 7.56756V7.58256L6.62751 7.56756H6.61251ZM6.44751 7.56756H6.43251L6.44751 7.58256V7.56756ZM6.69876 7.97256H6.71376L6.69876 7.95756V7.97256ZM6.56376 7.97256V7.95756L6.54876 7.97256H6.56376ZM6.69876 8.59131V8.60631L6.71376 8.59131H6.69876ZM6.56376 8.59131H6.54876L6.56376 8.60631V8.59131ZM7.85001 7.97256H7.86501L7.85001 7.95756V7.97256ZM7.71876 7.97256V7.95756L7.70376 7.97247L7.71876 7.97256ZM7.85001 8.59131V8.60631L7.86501 8.59131H7.85001ZM7.71501 8.59131L7.70001 8.59122L7.71501 8.60631V8.59131ZM7.78251 7.06881V7.05381L7.76751 7.06881H7.78251ZM8.01126 7.06881H8.02626L8.01126 7.05381V7.06881ZM7.78251 7.55631H7.76751L7.78251 7.57131V7.55631ZM8.01126 7.55631V7.57131L8.02626 7.55631H8.01126ZM6.60876 6.79506H6.44751V6.82506H6.60876V6.79506ZM6.62376 6.93006V6.81006H6.59376V6.93006H6.62376ZM6.61251 6.91506H6.60876V6.94506H6.61251V6.91506ZM6.62751 7.56756V6.93006H6.59751V7.56756H6.62751ZM6.44751 7.58256H6.61251V7.55256H6.44751V7.58256ZM6.43251 6.93006V7.56756H6.46251V6.93006H6.43251ZM6.43251 6.81006V6.93006H6.46251V6.81006H6.43251ZM6.69876 7.95756H6.56376V7.98756H6.69876V7.95756ZM6.71376 8.59131V7.97256H6.68376V8.59131H6.71376ZM6.56376 8.60631H6.69876V8.57631H6.56376V8.60631ZM6.54876 7.97256V8.59131H6.57876V7.97256H6.54876ZM7.85001 7.95756H7.71876V7.98756H7.85001V7.95756ZM7.86501 8.59131V7.97256H7.83501V8.59131H7.86501ZM7.71501 8.60631H7.85001V8.57631H7.71501V8.60631ZM7.70376 7.97247L7.70001 8.59122L7.73001 8.5914L7.73376 7.97265L7.70376 7.97247ZM7.78251 7.08381H8.01126V7.05381H7.78251V7.08381ZM7.79751 7.55631V7.06881H7.76751V7.55631H7.79751ZM8.01126 7.54131H7.78251V7.57131H8.01126V7.54131ZM7.99626 7.06881V7.55631H8.02626V7.06881H7.99626Z" fill="black"/>
<path fill-rule="evenodd" clip-rule="evenodd" d="M6.60885 6.47256V7.56006H7.7901V6.47631C7.77229 6.47631 7.76036 6.50096 7.74594 6.53076C7.7239 6.57628 7.69605 6.63381 7.6326 6.63381C7.57635 6.63381 7.58385 6.56631 7.61385 6.51381C7.6401 6.46506 7.67385 6.40131 7.62885 6.27756C7.5951 6.37131 7.5126 6.40131 7.5276 6.34506C7.53588 6.31309 7.5494 6.28935 7.56214 6.26699C7.58974 6.21851 7.61366 6.17652 7.5726 6.07131C7.55385 6.19881 7.47135 6.19506 7.4901 6.12006C7.49556 6.09911 7.50258 6.08103 7.50921 6.06395C7.52987 6.01072 7.54677 5.96716 7.50135 5.87631C7.4676 6.01506 7.42635 6.00756 7.42635 5.92131C7.42635 5.91856 7.42635 5.91581 7.42635 5.91306C7.42643 5.79145 7.42652 5.65773 7.26885 5.61006C7.26885 5.61006 7.2576 5.49756 7.20135 5.49756C7.14135 5.49756 7.1301 5.61006 7.1301 5.61006C6.9726 5.65881 6.9726 5.79381 6.9726 5.92131C6.9726 6.00756 6.93135 6.01506 6.8976 5.87631C6.85217 5.96716 6.86908 6.01072 6.88974 6.06395C6.89637 6.08103 6.90338 6.09911 6.90885 6.12006C6.9276 6.19506 6.8451 6.19881 6.82635 6.07131C6.78529 6.17652 6.8092 6.21851 6.83681 6.26699C6.84954 6.28935 6.86306 6.31309 6.87135 6.34506C6.88635 6.40131 6.80385 6.37131 6.7701 6.27756C6.7251 6.40131 6.75885 6.46506 6.7851 6.51381C6.81885 6.56631 6.8226 6.63381 6.76635 6.63381C6.70289 6.63381 6.67504 6.57491 6.65301 6.52831C6.63859 6.4978 6.62665 6.47256 6.60885 6.47256ZM6.3501 7.56756V6.73881C6.3821 6.72006 6.4141 6.72006 6.4501 6.73881V7.56756H6.3501Z" fill="white"/>
<path d="M6.60885 7.56006H6.59385V7.57506H6.60885V7.56006ZM6.60885 6.47256V6.45756H6.59385V6.47256H6.60885ZM7.7901 7.56006V7.57506H7.8051V7.56006H7.7901ZM7.7901 6.47631H7.8051V6.46131H7.7901V6.47631ZM7.74594 6.53076L7.75944 6.5373L7.74594 6.53076ZM7.61385 6.51381L7.62688 6.52125L7.62705 6.52092L7.61385 6.51381ZM7.62885 6.27756L7.64294 6.27243L7.62878 6.23347L7.61473 6.27248L7.62885 6.27756ZM7.5276 6.34506L7.54209 6.34892L7.54212 6.34882L7.5276 6.34506ZM7.56214 6.26699L7.5491 6.25957L7.56214 6.26699ZM7.5726 6.07131L7.58657 6.06586L7.56599 6.01312L7.55776 6.06913L7.5726 6.07131ZM7.4901 6.12006L7.47558 6.11627L7.47555 6.11642L7.4901 6.12006ZM7.50921 6.06395L7.49522 6.05852V6.05852L7.50921 6.06395ZM7.50135 5.87631L7.51476 5.8696L7.49645 5.83297L7.48677 5.87276L7.50135 5.87631ZM7.42635 5.91306L7.41135 5.91305V5.91305L7.42635 5.91306ZM7.26885 5.61006L7.25392 5.61155L7.25492 5.62152L7.26451 5.62442L7.26885 5.61006ZM7.1301 5.61006L7.13453 5.62439L7.14403 5.62145L7.14502 5.61155L7.1301 5.61006ZM6.8976 5.87631L6.91217 5.87276L6.90249 5.83297L6.88418 5.8696L6.8976 5.87631ZM6.88974 6.06395L6.90372 6.05852L6.88974 6.06395ZM6.90885 6.12006L6.9234 6.11642L6.92336 6.11627L6.90885 6.12006ZM6.82635 6.07131L6.84119 6.06913L6.83295 6.01312L6.81237 6.06586L6.82635 6.07131ZM6.83681 6.26699L6.84984 6.25957L6.83681 6.26699ZM6.87135 6.34506L6.85683 6.34882L6.85685 6.34892L6.87135 6.34506ZM6.7701 6.27756L6.78421 6.27248L6.77017 6.23347L6.756 6.27243L6.7701 6.27756ZM6.7851 6.51381L6.77185 6.52094L6.77248 6.52192L6.7851 6.51381ZM6.65301 6.52831L6.66657 6.5219L6.65301 6.52831ZM6.3501 6.73881L6.34251 6.72587L6.3351 6.73021V6.73881H6.3501ZM6.3501 7.56756H6.3351V7.58256H6.3501V7.56756ZM6.4501 6.73881H6.4651V6.72971L6.45703 6.7255L6.4501 6.73881ZM6.4501 7.56756V7.58256H6.4651V7.56756H6.4501ZM6.62385 7.56006V6.47256H6.59385V7.56006H6.62385ZM7.7901 7.54506H6.60885V7.57506H7.7901V7.54506ZM7.7751 6.47631V7.56006H7.8051V6.47631H7.7751ZM7.75944 6.5373C7.76684 6.522 7.77285 6.50968 7.77899 6.50104C7.78538 6.49202 7.7889 6.49131 7.7901 6.49131V6.46131C7.77349 6.46131 7.76214 6.47293 7.75451 6.48368C7.74662 6.49482 7.73945 6.50972 7.73243 6.52423L7.75944 6.5373ZM7.6326 6.64881C7.66967 6.64881 7.69633 6.6317 7.71606 6.60926C7.7353 6.58739 7.74859 6.5597 7.75944 6.5373L7.73243 6.52423C7.72124 6.54735 7.7096 6.57118 7.69354 6.58945C7.67797 6.60715 7.65898 6.61881 7.6326 6.61881V6.64881ZM7.60082 6.50637C7.58503 6.53401 7.57426 6.56697 7.57591 6.59439C7.57674 6.60829 7.58088 6.6222 7.5908 6.63273C7.601 6.64354 7.61541 6.64881 7.6326 6.64881V6.61881C7.62166 6.61881 7.61592 6.61563 7.61263 6.61215C7.60909 6.60839 7.60642 6.60214 7.60585 6.5926C7.60468 6.57315 7.61267 6.5461 7.62687 6.52125L7.60082 6.50637ZM7.61475 6.28268C7.63652 6.34255 7.63888 6.38682 7.63326 6.4214C7.62761 6.45618 7.61375 6.48235 7.60064 6.5067L7.62705 6.52092C7.64019 6.49652 7.65634 6.46644 7.66287 6.42621C7.66944 6.3858 7.66618 6.33632 7.64294 6.27243L7.61475 6.28268ZM7.5131 6.34119C7.50899 6.35664 7.50922 6.37519 7.52472 6.38434C7.53163 6.38843 7.5394 6.38895 7.54623 6.38799C7.55312 6.38703 7.56017 6.38442 7.56697 6.38081C7.59384 6.36655 7.62508 6.33232 7.64296 6.28264L7.61473 6.27248C7.59887 6.31655 7.57198 6.34419 7.55291 6.35431C7.54823 6.35679 7.54455 6.35793 7.54206 6.35829C7.53949 6.35865 7.53921 6.35806 7.53997 6.35851C7.54316 6.36039 7.53871 6.3616 7.54209 6.34892L7.5131 6.34119ZM7.5491 6.25957C7.53638 6.2819 7.52192 6.30719 7.51308 6.34129L7.54212 6.34882C7.54985 6.31899 7.56243 6.2968 7.57517 6.27441L7.5491 6.25957ZM7.55862 6.07676C7.57856 6.12786 7.58208 6.16195 7.57827 6.18828C7.57444 6.2148 7.56304 6.2351 7.5491 6.25957L7.57517 6.27441C7.58885 6.2504 7.6032 6.22547 7.60796 6.19257C7.61275 6.15948 7.60769 6.11997 7.58657 6.06586L7.55862 6.07676ZM7.47555 6.11642C7.47034 6.13723 7.47135 6.15613 7.47961 6.16978C7.48384 6.17677 7.48996 6.18225 7.49761 6.1852C7.50524 6.18815 7.51342 6.18822 7.52123 6.18609C7.53655 6.18192 7.55072 6.16937 7.56194 6.15111C7.57333 6.13258 7.58253 6.10685 7.58744 6.07349L7.55776 6.06913C7.55329 6.09952 7.54515 6.12114 7.53638 6.13541C7.52744 6.14996 7.51865 6.1557 7.51334 6.15715C7.51084 6.15783 7.50929 6.15755 7.50842 6.15722C7.50758 6.15689 7.50643 6.15616 7.50527 6.15424C7.50275 6.15008 7.50048 6.14038 7.50465 6.1237L7.47555 6.11642ZM7.49522 6.05852C7.48862 6.07555 7.4813 6.09437 7.47558 6.11627L7.50461 6.12384C7.50983 6.10384 7.51654 6.08651 7.52319 6.06938L7.49522 6.05852ZM7.48793 5.88302C7.50987 5.92689 7.51608 5.95796 7.51507 5.98365C7.51405 6.00968 7.50566 6.03162 7.49522 6.05852L7.52319 6.06938C7.53341 6.04305 7.5438 6.0166 7.54505 5.98482C7.5463 5.95271 7.53825 5.91658 7.51476 5.8696L7.48793 5.88302ZM7.41135 5.92131C7.41135 5.94367 7.41397 5.96258 7.41945 5.97589C7.42217 5.9825 7.42618 5.98915 7.4323 5.99365C7.43914 5.99867 7.44751 6.00013 7.4558 5.99746C7.4632 5.99507 7.4693 5.98981 7.47425 5.98393C7.47935 5.97789 7.48421 5.97004 7.48884 5.96064C7.49812 5.94182 7.50734 5.91512 7.51592 5.87985L7.48677 5.87276C7.47848 5.90687 7.46988 5.93126 7.46194 5.94737C7.45796 5.95543 7.45435 5.961 7.45132 5.96459C7.44815 5.96836 7.44645 5.96895 7.44659 5.96891C7.4476 5.96858 7.44924 5.96887 7.45006 5.96947C7.45016 5.96954 7.44886 5.96852 7.44719 5.96446C7.44388 5.95644 7.44135 5.94208 7.44135 5.92131H7.41135ZM7.41135 5.91305C7.41135 5.9158 7.41135 5.91856 7.41135 5.92131H7.44135C7.44135 5.91857 7.44135 5.91582 7.44135 5.91307L7.41135 5.91305ZM7.26451 5.62442C7.33875 5.64686 7.37456 5.68873 7.39265 5.73892C7.41127 5.79058 7.41139 5.85161 7.41135 5.91305L7.44135 5.91307C7.44139 5.85289 7.4416 5.78627 7.42087 5.72874C7.3996 5.66975 7.35662 5.62092 7.27319 5.5957L7.26451 5.62442ZM7.20135 5.51256C7.20973 5.51256 7.21713 5.51654 7.2242 5.52485C7.23146 5.5334 7.23739 5.5455 7.24203 5.55876C7.24661 5.57185 7.24961 5.5851 7.25146 5.59519C7.25238 5.6002 7.253 5.60436 7.25339 5.60724C7.25359 5.60868 7.25372 5.6098 7.25381 5.61053C7.25385 5.6109 7.25388 5.61118 7.2539 5.61135C7.25391 5.61143 7.25392 5.61149 7.25392 5.61153C7.25392 5.61155 7.25392 5.61156 7.25392 5.61156C7.25392 5.61156 7.25392 5.61156 7.25392 5.61156C7.25392 5.61156 7.25392 5.61156 7.25392 5.61156C7.25392 5.61155 7.25392 5.61155 7.26885 5.61006C7.28377 5.60857 7.28377 5.60856 7.28377 5.60856C7.28377 5.60856 7.28377 5.60855 7.28377 5.60855C7.28377 5.60854 7.28377 5.60853 7.28377 5.60852C7.28377 5.60849 7.28376 5.60846 7.28376 5.60843C7.28375 5.60835 7.28374 5.60825 7.28373 5.60812C7.2837 5.60787 7.28366 5.60751 7.28361 5.60706C7.2835 5.60615 7.28334 5.60484 7.28312 5.60321C7.28267 5.59994 7.28198 5.59531 7.28097 5.58978C7.27895 5.57877 7.27561 5.56389 7.27035 5.54885C7.26515 5.53399 7.25772 5.51797 7.24705 5.50542C7.23619 5.49264 7.22109 5.48256 7.20135 5.48256V5.51256ZM7.1301 5.61006C7.14502 5.61155 7.14502 5.61155 7.14502 5.61156C7.14502 5.61156 7.14502 5.61156 7.14502 5.61156C7.14502 5.61156 7.14502 5.61156 7.14502 5.61156C7.14502 5.61156 7.14502 5.61155 7.14503 5.61153C7.14503 5.6115 7.14503 5.61144 7.14504 5.61136C7.14506 5.61119 7.14509 5.61092 7.14514 5.61055C7.14522 5.60982 7.14536 5.60871 7.14556 5.60728C7.14595 5.60441 7.14659 5.60026 7.14753 5.59526C7.14943 5.58521 7.15253 5.57201 7.15731 5.55897C7.16214 5.54578 7.16837 5.53371 7.17605 5.52517C7.1835 5.5169 7.19166 5.51256 7.20135 5.51256V5.48256C7.18104 5.48256 7.16529 5.49228 7.15375 5.5051C7.14245 5.51766 7.13461 5.53371 7.12914 5.54864C7.12361 5.56373 7.12014 5.57866 7.11805 5.5897C7.11701 5.59525 7.11629 5.59989 7.11584 5.60317C7.11561 5.60482 7.11545 5.60612 7.11534 5.60704C7.11529 5.6075 7.11525 5.60786 7.11522 5.60812C7.11521 5.60824 7.11519 5.60835 7.11519 5.60842C7.11518 5.60846 7.11518 5.60849 7.11518 5.60851C7.11518 5.60853 7.11518 5.60854 7.11517 5.60855C7.11517 5.60855 7.11517 5.60855 7.11517 5.60856C7.11517 5.60856 7.11517 5.60857 7.1301 5.61006ZM6.9876 5.92131C6.9876 5.85692 6.98776 5.79404 7.00643 5.74114C7.02457 5.68973 7.06042 5.64733 7.13453 5.62439L7.12566 5.59573C7.04228 5.62154 6.99937 5.67101 6.97814 5.73116C6.95744 5.78982 6.9576 5.8582 6.9576 5.92131H6.9876ZM6.88302 5.87985C6.8916 5.91512 6.90082 5.94182 6.9101 5.96064C6.91474 5.97004 6.91959 5.97789 6.92469 5.98393C6.92965 5.98981 6.93575 5.99507 6.94315 5.99746C6.95143 6.00013 6.95981 5.99867 6.96665 5.99365C6.97276 5.98915 6.97677 5.9825 6.97949 5.97589C6.98498 5.96258 6.9876 5.94367 6.9876 5.92131H6.9576C6.9576 5.94208 6.95506 5.95644 6.95176 5.96446C6.95008 5.96852 6.94879 5.96954 6.94888 5.96947C6.9497 5.96887 6.95134 5.96858 6.95236 5.96891C6.95249 5.96895 6.9508 5.96836 6.94763 5.96459C6.9446 5.961 6.94098 5.95543 6.93701 5.94737C6.92906 5.93126 6.92047 5.90687 6.91217 5.87276L6.88302 5.87985ZM6.90372 6.05852C6.89328 6.03162 6.88489 6.00968 6.88388 5.98365C6.88287 5.95796 6.88908 5.92689 6.91101 5.88302L6.88418 5.8696C6.86069 5.91658 6.85264 5.95271 6.8539 5.98482C6.85514 6.0166 6.86554 6.04305 6.87575 6.06938L6.90372 6.05852ZM6.92336 6.11627C6.91765 6.09437 6.91033 6.07555 6.90372 6.05852L6.87575 6.06938C6.8824 6.08651 6.88911 6.10384 6.89433 6.12384L6.92336 6.11627ZM6.81151 6.07349C6.81641 6.10685 6.82562 6.13258 6.837 6.15111C6.84822 6.16937 6.8624 6.18192 6.87771 6.18609C6.88553 6.18822 6.89371 6.18815 6.90133 6.1852C6.90899 6.18225 6.9151 6.17677 6.91934 6.16978C6.9276 6.15613 6.9286 6.13723 6.9234 6.11642L6.8943 6.1237C6.89847 6.14038 6.89619 6.15008 6.89367 6.15424C6.89251 6.15616 6.89136 6.15689 6.89052 6.15722C6.88965 6.15755 6.88811 6.15783 6.88561 6.15715C6.8803 6.1557 6.8715 6.14996 6.86257 6.13541C6.8538 6.12114 6.84566 6.09952 6.84119 6.06913L6.81151 6.07349ZM6.84984 6.25957C6.83591 6.2351 6.82451 6.2148 6.82067 6.18828C6.81687 6.16195 6.82038 6.12786 6.84032 6.07676L6.81237 6.06586C6.79126 6.11997 6.7862 6.15948 6.79098 6.19257C6.79574 6.22547 6.8101 6.2504 6.82377 6.27441L6.84984 6.25957ZM6.88587 6.34129C6.87703 6.30719 6.86256 6.2819 6.84984 6.25957L6.82377 6.27441C6.83652 6.2968 6.84909 6.31899 6.85683 6.34882L6.88587 6.34129ZM6.75598 6.28264C6.77387 6.33232 6.8051 6.36655 6.83197 6.38081C6.83878 6.38442 6.84582 6.38703 6.85272 6.38799C6.85954 6.38895 6.86731 6.38843 6.87423 6.38434C6.88972 6.37519 6.88996 6.35664 6.88584 6.34119L6.85685 6.34892C6.86024 6.3616 6.85578 6.36039 6.85897 6.35851C6.85974 6.35806 6.85945 6.35865 6.85689 6.35829C6.85439 6.35793 6.85072 6.35679 6.84603 6.35431C6.82697 6.34419 6.80008 6.31655 6.78421 6.27248L6.75598 6.28264ZM6.7983 6.5067C6.78519 6.48235 6.77134 6.45618 6.76568 6.4214C6.76007 6.38682 6.76243 6.34255 6.78419 6.28268L6.756 6.27243C6.73277 6.33632 6.72951 6.3858 6.73607 6.42621C6.74261 6.46644 6.75875 6.49652 6.77189 6.52092L6.7983 6.5067ZM6.76635 6.64881C6.78354 6.64881 6.79803 6.64355 6.80845 6.63296C6.81866 6.62258 6.8233 6.60876 6.82442 6.59469C6.82664 6.56696 6.81572 6.5337 6.79772 6.5057L6.77248 6.52192C6.78823 6.54642 6.79605 6.57316 6.79452 6.5923C6.79377 6.60167 6.79091 6.60801 6.78706 6.61192C6.78342 6.61563 6.77728 6.61881 6.76635 6.61881V6.64881ZM6.63945 6.53472C6.65029 6.55765 6.66357 6.58596 6.68277 6.60831C6.70245 6.63123 6.72913 6.64881 6.76635 6.64881V6.61881C6.74011 6.61881 6.72114 6.60694 6.70552 6.58876C6.68943 6.57002 6.67776 6.54557 6.66657 6.5219L6.63945 6.53472ZM6.60885 6.48756C6.60988 6.48756 6.6134 6.48819 6.61987 6.49753C6.62602 6.50642 6.63205 6.51907 6.63945 6.53472L6.66657 6.5219C6.65955 6.50704 6.6524 6.49181 6.64453 6.48045C6.63697 6.46954 6.62562 6.45756 6.60885 6.45756V6.48756ZM6.3351 6.73881V7.56756H6.3651V6.73881H6.3351ZM6.45703 6.7255C6.43741 6.71529 6.41804 6.70975 6.3986 6.70975C6.37907 6.70975 6.36048 6.71534 6.34251 6.72587L6.35768 6.75175C6.37171 6.74353 6.38512 6.73975 6.3986 6.73975C6.41216 6.73975 6.42679 6.74358 6.44317 6.75211L6.45703 6.7255ZM6.4651 7.56756V6.73881H6.4351V7.56756H6.4651ZM6.3501 7.58256H6.4501V7.55256H6.3501V7.58256Z" fill="black"/>
<path fill-rule="evenodd" clip-rule="evenodd" d="M7.3477 5.95518L7.2802 6.01143H7.11145L7.04395 5.95143V5.87643C7.0702 5.88393 7.08145 5.88768 7.1002 5.91393C7.11666 5.86599 7.15183 5.82676 7.1977 5.80518C7.2429 5.82842 7.27674 5.86902 7.29145 5.91768C7.3102 5.89143 7.3252 5.88018 7.3477 5.88018V5.95518ZM7.7902 7.56393C7.8202 7.39893 7.93645 7.33143 8.0527 7.27518V7.56393H7.7902Z" fill="white"/>
<path d="M7.2802 6.01143V6.03095L7.2898 6.02295L7.2802 6.01143ZM7.3477 5.95518L7.3627 5.97318V5.95518H7.3477ZM7.11145 6.01143L7.09811 6.02643H7.11145V6.01143ZM7.04395 5.95143H7.02137L7.03398 5.96264L7.04395 5.95143ZM7.04395 5.87643L7.04807 5.862L7.02895 5.85654V5.87643H7.04395ZM7.1002 5.91393L7.08799 5.92264L7.10492 5.94635L7.11438 5.9188L7.1002 5.91393ZM7.1977 5.80518L7.20894 5.78331L7.19131 5.7916L7.1977 5.80518ZM7.29145 5.91768L7.27709 5.92202L7.28592 5.95122L7.30365 5.92639L7.29145 5.91768ZM7.3477 5.88018H7.3627V5.86518H7.3477V5.88018ZM8.0527 7.27518H8.0677V7.25125L8.04616 7.26167L8.0527 7.27518ZM7.7902 7.56393L7.77544 7.56124L7.77222 7.57893H7.7902V7.56393ZM8.0527 7.56393V7.57893H8.0677V7.56393H8.0527ZM7.2898 6.02295L7.3573 5.9667L7.33809 5.94365L7.27059 5.9999L7.2898 6.02295ZM7.11145 6.02643H7.2802V5.99643H7.11145V6.02643ZM7.03398 5.96264L7.10148 6.02264L7.12141 6.00021L7.05391 5.94021L7.03398 5.96264ZM7.02895 5.87643V5.95143H7.05895V5.87643H7.02895ZM7.1124 5.90521C7.10242 5.89123 7.09353 5.88196 7.0827 5.87535C7.07224 5.86895 7.06086 5.86566 7.04807 5.862L7.03982 5.89085C7.05328 5.89469 7.06065 5.89703 7.06706 5.90094C7.07311 5.90464 7.07922 5.91037 7.08799 5.92264L7.1124 5.90521ZM7.19131 5.7916C7.14178 5.81491 7.10379 5.85728 7.08601 5.90905L7.11438 5.9188C7.12953 5.87469 7.16189 5.8386 7.20408 5.81875L7.19131 5.7916ZM7.3058 5.91334C7.28992 5.86079 7.25338 5.81694 7.20455 5.79184L7.19084 5.81852C7.23243 5.8399 7.26356 5.87725 7.27709 5.92202L7.3058 5.91334ZM7.3477 5.86518C7.33358 5.86518 7.32122 5.86881 7.30969 5.8767C7.29864 5.88427 7.28898 5.89531 7.27924 5.90896L7.30365 5.92639C7.31266 5.91379 7.31988 5.90608 7.32663 5.90146C7.33292 5.89716 7.33931 5.89518 7.3477 5.89518V5.86518ZM7.3627 5.95518V5.88018H7.3327V5.95518H7.3627ZM8.04616 7.26167C7.92948 7.31813 7.80685 7.38848 7.77544 7.56124L7.80495 7.56661C7.83354 7.40937 7.94341 7.34472 8.05923 7.28868L8.04616 7.26167ZM8.0677 7.56393V7.27518H8.0377V7.56393H8.0677ZM7.7902 7.57893H8.0527V7.54893H7.7902V7.57893Z" fill="black"/>
<path d="M7.3177 6.19508L7.3477 6.12383V6.03008C7.3252 6.03008 7.3102 6.04133 7.29145 6.06758C7.27674 6.01892 7.2429 5.97832 7.1977 5.95508C7.15183 5.97666 7.11666 6.01589 7.1002 6.06383C7.08145 6.03758 7.0702 6.03383 7.04395 6.03008V6.12383L7.07395 6.19508H7.3177Z" fill="white" stroke="black" stroke-width="0.03"/>
<path d="M7.325 6.44246L7.4225 6.31871V6.19871C7.385 6.19871 7.36625 6.21746 7.34 6.25871C7.31375 6.17246 7.265 6.15746 7.1975 6.11621C7.12625 6.15371 7.0775 6.17246 7.055 6.25496C7.025 6.21371 7.00625 6.20246 6.96875 6.19871V6.31871L7.07 6.44246H7.325Z" fill="white" stroke="black" stroke-width="0.03"/>
<path d="M7.35126 6.68625C7.35126 6.68625 7.47126 6.585 7.47501 6.52875V6.3975C7.43001 6.40125 7.38876 6.4125 7.35501 6.46875C7.32501 6.36 7.28001 6.33 7.19751 6.28125C7.11126 6.33 7.06626 6.36 7.04001 6.46875C7.00251 6.4125 6.96501 6.40125 6.91626 6.39375V6.52875C6.94775 6.58823 6.98967 6.64158 7.04001 6.68625H7.35126Z" fill="white" stroke="black" stroke-width="0.03"/>
<path d="M7.40017 7.13611C7.40017 7.13611 7.56517 6.95986 7.56892 6.88861V6.68611C7.50892 6.69361 7.44892 6.73486 7.40392 6.82111C7.36642 6.65236 7.30642 6.53611 7.19767 6.45361C7.08517 6.53611 7.02517 6.65236 6.98767 6.82111C6.94267 6.73486 6.88642 6.69361 6.82642 6.68611V6.88861C6.83767 6.95986 6.99142 7.13611 6.99142 7.13611H7.40017Z" fill="white" stroke="black" stroke-width="0.03"/>
<path d="M7.40017 7.4026C7.40017 7.4026 7.53892 7.26385 7.56892 7.20385V7.00135C7.50892 7.00885 7.44892 7.0501 7.40392 7.1326C7.38365 6.99479 7.30946 6.87068 7.19767 6.7876C7.08517 6.8701 7.02517 6.96385 6.98767 7.1326C6.94267 7.0501 6.88642 7.00885 6.82642 7.00135V7.20385C6.86392 7.26385 6.99142 7.4026 6.99142 7.4026H7.40017Z" fill="white" stroke="black" stroke-width="0.03"/>
<path d="M7.45642 7.55984C7.41892 7.38359 7.38142 7.25234 7.19017 7.12109C6.99517 7.25234 6.96142 7.38359 6.92017 7.55984H7.45642Z" fill="white" stroke="black" stroke-width="0.03"/>
<path d="M13.6136 8.59514V7.83014C13.6399 7.73264 13.7261 7.64264 13.7861 7.62764V6.95264L13.6474 7.02764L13.4861 7.73639V8.59889L13.6136 8.59514Z" fill="white" stroke="black" stroke-width="0.03"/>
<path d="M13.7148 8.79379C13.6511 8.76754 13.5573 8.68504 13.5573 8.60629V7.64629L13.6023 7.57129H11.9636L12.0273 7.64629V8.60629C12.0217 8.6872 11.973 8.75884 11.8998 8.79379H13.7148Z" fill="white" stroke="black" stroke-width="0.03"/>
<path d="M12.2337 8.79363C12.2974 8.76738 12.3912 8.68488 12.3912 8.60613V7.69488L12.2562 7.56738H13.3662L13.2312 7.69488V8.60613C13.2312 8.68488 13.3249 8.76738 13.3887 8.79363H12.2337Z" fill="white" stroke="black" stroke-width="0.03"/>
<path d="M12.3874 8.79396C12.4511 8.76771 12.5486 8.68521 12.5486 8.60646V7.78146L12.4586 7.65771H13.1636L13.0736 7.78146V8.60646C13.0736 8.68521 13.1674 8.76771 13.2349 8.79396H12.3874Z" fill="white" stroke="black" stroke-width="0.03"/>
<path fill-rule="evenodd" clip-rule="evenodd" d="M13.5537 6.81006H13.3925V6.93006H13.3887V7.56756H13.5537V6.93006V6.81006ZM13.4375 7.97256H13.3025V8.59131H13.4375V7.97256ZM12.2825 7.97256H12.1512V8.59131H12.2862L12.2825 7.97256ZM11.99 7.06881H12.2187V7.55631H11.99V7.06881Z" fill="white"/>
<path d="M13.3925 6.81006H13.3775L13.3925 6.79506V6.81006ZM13.5537 6.81006V6.79506L13.5687 6.81006H13.5537ZM13.3925 6.93006H13.4075L13.3925 6.94506V6.93006ZM13.3887 6.93006H13.3737L13.3887 6.91506V6.93006ZM13.3887 7.56756V7.58256L13.3737 7.56756H13.3887ZM13.5537 7.56756H13.5687L13.5537 7.58256V7.56756ZM13.3025 7.97256H13.2875L13.3025 7.95756V7.97256ZM13.4375 7.97256V7.95756L13.4525 7.97256H13.4375ZM13.3025 8.59131V8.60631L13.2875 8.59131H13.3025ZM13.4375 8.59131H13.4525L13.4375 8.60631V8.59131ZM12.1512 7.97256H12.1362L12.1512 7.95756V7.97256ZM12.2825 7.97256V7.95756L12.2975 7.97247L12.2825 7.97256ZM12.1512 8.59131V8.60631L12.1362 8.59131H12.1512ZM12.2862 8.59131L12.3012 8.59122L12.2862 8.60631V8.59131ZM12.2187 7.06881V7.05381L12.2337 7.06881H12.2187ZM11.99 7.06881H11.975L11.99 7.05381V7.06881ZM12.2187 7.55631H12.2337L12.2187 7.57131V7.55631ZM11.99 7.55631V7.57131L11.975 7.55631H11.99ZM13.3925 6.79506H13.5537V6.82506H13.3925V6.79506ZM13.3775 6.93006V6.81006H13.4075V6.93006H13.3775ZM13.3887 6.91506H13.3925V6.94506H13.3887V6.91506ZM13.3737 7.56756V6.93006H13.4037V7.56756H13.3737ZM13.5537 7.58256H13.3887V7.55256H13.5537V7.58256ZM13.5687 6.93006V7.56756H13.5387V6.93006H13.5687ZM13.5687 6.81006V6.93006H13.5387V6.81006H13.5687ZM13.3025 7.95756H13.4375V7.98756H13.3025V7.95756ZM13.2875 8.59131V7.97256H13.3175V8.59131H13.2875ZM13.4375 8.60631H13.3025V8.57631H13.4375V8.60631ZM13.4525 7.97256V8.59131H13.4225V7.97256H13.4525ZM12.1512 7.95756H12.2825V7.98756H12.1512V7.95756ZM12.1362 8.59131V7.97256H12.1662V8.59131H12.1362ZM12.2862 8.60631H12.1512V8.57631H12.2862V8.60631ZM12.2975 7.97247L12.3012 8.59122L12.2712 8.5914L12.2675 7.97265L12.2975 7.97247ZM12.2187 7.08381H11.99V7.05381H12.2187V7.08381ZM12.2037 7.55631V7.06881H12.2337V7.55631H12.2037ZM11.99 7.54131H12.2187V7.57131H11.99V7.54131ZM12.005 7.06881V7.55631H11.975V7.06881H12.005Z" fill="black"/>
<path fill-rule="evenodd" clip-rule="evenodd" d="M13.3924 6.47256V7.56006H12.2111V6.47631C12.2289 6.47631 12.2409 6.50096 12.2553 6.53076C12.2773 6.57628 12.3052 6.63381 12.3686 6.63381C12.4249 6.63381 12.4174 6.56631 12.3874 6.51381C12.3611 6.46506 12.3274 6.40131 12.3724 6.27756C12.4061 6.37131 12.4886 6.40131 12.4736 6.34506C12.4653 6.31309 12.4518 6.28935 12.4391 6.26699C12.4115 6.21851 12.3876 6.17652 12.4286 6.07131C12.4474 6.19881 12.5299 6.19506 12.5111 6.12006C12.5057 6.09911 12.4986 6.08103 12.492 6.06395C12.4714 6.01072 12.4544 5.96716 12.4999 5.87631C12.5336 6.01506 12.5749 6.00756 12.5749 5.92131C12.5749 5.91856 12.5749 5.91581 12.5749 5.91306C12.5748 5.79145 12.5747 5.65773 12.7324 5.61006C12.7324 5.61006 12.7436 5.49756 12.7999 5.49756C12.8599 5.49756 12.8711 5.61006 12.8711 5.61006C13.0286 5.65881 13.0286 5.79381 13.0286 5.92131C13.0286 6.00756 13.0699 6.01506 13.1036 5.87631C13.149 5.96716 13.1321 6.01072 13.1115 6.06395C13.1049 6.08103 13.0978 6.09911 13.0924 6.12006C13.0736 6.19506 13.1561 6.19881 13.1749 6.07131C13.2159 6.17652 13.192 6.21851 13.1644 6.26699C13.1517 6.28935 13.1382 6.31309 13.1299 6.34506C13.1149 6.40131 13.1974 6.37131 13.2311 6.27756C13.2761 6.40131 13.2424 6.46506 13.2161 6.51381C13.1824 6.56631 13.1786 6.63381 13.2349 6.63381C13.2983 6.63381 13.3262 6.57491 13.3482 6.52831C13.3626 6.4978 13.3746 6.47256 13.3924 6.47256ZM13.6511 7.56756V6.73881C13.6191 6.72006 13.5871 6.72006 13.5511 6.73881V7.56756H13.6511Z" fill="white"/>
<path d="M13.3924 7.56006H13.4074V7.57506H13.3924V7.56006ZM13.3924 6.47256V6.45756H13.4074V6.47256H13.3924ZM12.2111 7.56006V7.57506H12.1961V7.56006H12.2111ZM12.2111 6.47631H12.1961V6.46131H12.2111V6.47631ZM12.2553 6.53076L12.2418 6.5373L12.2553 6.53076ZM12.3874 6.51381L12.3743 6.52125L12.3742 6.52092L12.3874 6.51381ZM12.3724 6.27756L12.3583 6.27243L12.3724 6.23347L12.3865 6.27248L12.3724 6.27756ZM12.4736 6.34506L12.4591 6.34892L12.4591 6.34882L12.4736 6.34506ZM12.4391 6.26699L12.4521 6.25957L12.4391 6.26699ZM12.4286 6.07131L12.4146 6.06586L12.4352 6.01312L12.4435 6.06913L12.4286 6.07131ZM12.5111 6.12006L12.5256 6.11627L12.5257 6.11642L12.5111 6.12006ZM12.492 6.06395L12.506 6.05852V6.05852L12.492 6.06395ZM12.4999 5.87631L12.4865 5.8696L12.5048 5.83297L12.5144 5.87276L12.4999 5.87631ZM12.5749 5.91306L12.5899 5.91305V5.91305L12.5749 5.91306ZM12.7324 5.61006L12.7473 5.61155L12.7463 5.62152L12.7367 5.62442L12.7324 5.61006ZM12.8711 5.61006L12.8667 5.62439L12.8572 5.62145L12.8562 5.61155L12.8711 5.61006ZM13.1036 5.87631L13.089 5.87276L13.0987 5.83297L13.117 5.8696L13.1036 5.87631ZM13.1115 6.06395L13.0975 6.05852L13.1115 6.06395ZM13.0924 6.12006L13.0778 6.11642L13.0779 6.11627L13.0924 6.12006ZM13.1749 6.07131L13.16 6.06913L13.1683 6.01312L13.1888 6.06586L13.1749 6.07131ZM13.1644 6.26699L13.1514 6.25957L13.1644 6.26699ZM13.1299 6.34506L13.1444 6.34882L13.1444 6.34892L13.1299 6.34506ZM13.2311 6.27756L13.217 6.27248L13.2311 6.23347L13.2452 6.27243L13.2311 6.27756ZM13.2161 6.51381L13.2294 6.52094L13.2287 6.52192L13.2161 6.51381ZM13.3482 6.52831L13.3346 6.5219L13.3482 6.52831ZM13.6511 6.73881L13.6587 6.72587L13.6661 6.73021V6.73881H13.6511ZM13.6511 7.56756H13.6661V7.58256H13.6511V7.56756ZM13.5511 6.73881H13.5361V6.72971L13.5442 6.7255L13.5511 6.73881ZM13.5511 7.56756V7.58256H13.5361V7.56756H13.5511ZM13.3774 7.56006V6.47256H13.4074V7.56006H13.3774ZM12.2111 7.54506H13.3924V7.57506H12.2111V7.54506ZM12.2261 6.47631V7.56006H12.1961V6.47631H12.2261ZM12.2418 6.5373C12.2344 6.522 12.2284 6.50968 12.2222 6.50104C12.2158 6.49202 12.2123 6.49131 12.2111 6.49131V6.46131C12.2277 6.46131 12.2391 6.47293 12.2467 6.48368C12.2546 6.49482 12.2618 6.50972 12.2688 6.52423L12.2418 6.5373ZM12.3686 6.64881C12.3315 6.64881 12.3049 6.6317 12.2852 6.60926C12.2659 6.58739 12.2526 6.5597 12.2418 6.5373L12.2688 6.52423C12.28 6.54735 12.2916 6.57118 12.3077 6.58945C12.3232 6.60715 12.3422 6.61881 12.3686 6.61881V6.64881ZM12.4004 6.50637C12.4162 6.53401 12.427 6.56697 12.4253 6.59439C12.4245 6.60829 12.4203 6.6222 12.4104 6.63273C12.4002 6.64354 12.3858 6.64881 12.3686 6.64881V6.61881C12.3796 6.61881 12.3853 6.61563 12.3886 6.61215C12.3921 6.60839 12.3948 6.60214 12.3954 6.5926C12.3965 6.57315 12.3886 6.5461 12.3743 6.52125L12.4004 6.50637ZM12.3865 6.28268C12.3647 6.34255 12.3623 6.38682 12.368 6.4214C12.3736 6.45618 12.3875 6.48235 12.4006 6.5067L12.3742 6.52092C12.361 6.49652 12.3449 6.46644 12.3383 6.42621C12.3318 6.3858 12.335 6.33632 12.3583 6.27243L12.3865 6.28268ZM12.4881 6.34119C12.4922 6.35664 12.492 6.37519 12.4765 6.38434C12.4696 6.38843 12.4618 6.38895 12.455 6.38799C12.4481 6.38703 12.4411 6.38442 12.4342 6.38081C12.4074 6.36655 12.3761 6.33232 12.3583 6.28264L12.3865 6.27248C12.4024 6.31655 12.4292 6.34419 12.4483 6.35431C12.453 6.35679 12.4567 6.35793 12.4592 6.35829C12.4617 6.35865 12.462 6.35806 12.4613 6.35851C12.4581 6.36039 12.4625 6.3616 12.4591 6.34892L12.4881 6.34119ZM12.4521 6.25957C12.4648 6.2819 12.4793 6.30719 12.4881 6.34129L12.4591 6.34882C12.4514 6.31899 12.4388 6.2968 12.426 6.27441L12.4521 6.25957ZM12.4426 6.07676C12.4227 6.12786 12.4191 6.16195 12.423 6.18828C12.4268 6.2148 12.4382 6.2351 12.4521 6.25957L12.426 6.27441C12.4124 6.2504 12.398 6.22547 12.3933 6.19257C12.3885 6.15948 12.3935 6.11997 12.4146 6.06586L12.4426 6.07676ZM12.5257 6.11642C12.5309 6.13723 12.5299 6.15613 12.5216 6.16978C12.5174 6.17677 12.5113 6.18225 12.5036 6.1852C12.496 6.18815 12.4878 6.18822 12.48 6.18609C12.4647 6.18192 12.4505 6.16937 12.4393 6.15111C12.4279 6.13258 12.4187 6.10685 12.4138 6.07349L12.4435 6.06913C12.4479 6.09952 12.4561 6.12114 12.4648 6.13541C12.4738 6.14996 12.4826 6.1557 12.4879 6.15715C12.4904 6.15783 12.4919 6.15755 12.4928 6.15722C12.4936 6.15689 12.4948 6.15616 12.4959 6.15424C12.4985 6.15008 12.5007 6.14038 12.4966 6.1237L12.5257 6.11642ZM12.506 6.05852C12.5126 6.07555 12.5199 6.09437 12.5256 6.11627L12.4966 6.12384C12.4914 6.10384 12.4847 6.08651 12.478 6.06938L12.506 6.05852ZM12.5133 5.88302C12.4914 5.92689 12.4851 5.95796 12.4862 5.98365C12.4872 6.00968 12.4956 6.03162 12.506 6.05852L12.478 6.06938C12.4678 6.04305 12.4574 6.0166 12.4562 5.98482C12.4549 5.95271 12.463 5.91658 12.4865 5.8696L12.5133 5.88302ZM12.5899 5.92131C12.5899 5.94367 12.5873 5.96258 12.5818 5.97589C12.579 5.9825 12.575 5.98915 12.5689 5.99365C12.5621 5.99867 12.5537 6.00013 12.5454 5.99746C12.538 5.99507 12.5319 5.98981 12.527 5.98393C12.5219 5.97789 12.517 5.97004 12.5124 5.96064C12.5031 5.94182 12.4939 5.91512 12.4853 5.87985L12.5144 5.87276C12.5227 5.90687 12.5313 5.93126 12.5393 5.94737C12.5433 5.95543 12.5469 5.961 12.5499 5.96459C12.5531 5.96836 12.5548 5.96895 12.5546 5.96891C12.5536 5.96858 12.552 5.96887 12.5512 5.96947C12.5511 5.96954 12.5524 5.96852 12.554 5.96446C12.5573 5.95644 12.5599 5.94208 12.5599 5.92131H12.5899ZM12.5899 5.91305C12.5899 5.9158 12.5899 5.91856 12.5899 5.92131H12.5599C12.5599 5.91857 12.5599 5.91582 12.5599 5.91307L12.5899 5.91305ZM12.7367 5.62442C12.6625 5.64686 12.6267 5.68873 12.6086 5.73892C12.59 5.79058 12.5898 5.85161 12.5899 5.91305L12.5599 5.91307C12.5598 5.85289 12.5596 5.78627 12.5804 5.72874C12.6016 5.66975 12.6446 5.62092 12.728 5.5957L12.7367 5.62442ZM12.7999 5.51256C12.7915 5.51256 12.7841 5.51654 12.777 5.52485C12.7698 5.5334 12.7638 5.5455 12.7592 5.55876C12.7546 5.57185 12.7516 5.5851 12.7498 5.59519C12.7488 5.6002 12.7482 5.60436 12.7478 5.60724C12.7476 5.60868 12.7475 5.6098 12.7474 5.61053C12.7474 5.6109 12.7473 5.61118 12.7473 5.61135C12.7473 5.61143 12.7473 5.61149 12.7473 5.61153C12.7473 5.61155 12.7473 5.61156 12.7473 5.61156C12.7473 5.61156 12.7473 5.61156 12.7473 5.61156C12.7473 5.61156 12.7473 5.61156 12.7473 5.61156C12.7473 5.61155 12.7473 5.61155 12.7324 5.61006C12.7174 5.60857 12.7174 5.60856 12.7174 5.60856C12.7174 5.60856 12.7174 5.60855 12.7174 5.60855C12.7175 5.60854 12.7175 5.60853 12.7175 5.60852C12.7175 5.60849 12.7175 5.60846 12.7175 5.60843C12.7175 5.60835 12.7175 5.60825 12.7175 5.60812C12.7175 5.60787 12.7176 5.60751 12.7176 5.60706C12.7177 5.60615 12.7179 5.60484 12.7181 5.60321C12.7185 5.59994 12.7192 5.59531 12.7203 5.58978C12.7223 5.57877 12.7256 5.56389 12.7309 5.54885C12.7361 5.53399 12.7435 5.51797 12.7542 5.50542C12.765 5.49264 12.7801 5.48256 12.7999 5.48256V5.51256ZM12.8711 5.61006C12.8562 5.61155 12.8562 5.61155 12.8562 5.61156C12.8562 5.61156 12.8562 5.61156 12.8562 5.61156C12.8562 5.61156 12.8562 5.61156 12.8562 5.61156C12.8562 5.61156 12.8562 5.61155 12.8562 5.61153C12.8562 5.6115 12.8562 5.61144 12.8562 5.61136C12.8562 5.61119 12.8561 5.61092 12.8561 5.61055C12.856 5.60982 12.8559 5.60871 12.8557 5.60728C12.8553 5.60441 12.8546 5.60026 12.8537 5.59526C12.8518 5.58521 12.8487 5.57201 12.8439 5.55897C12.8391 5.54578 12.8329 5.53371 12.8252 5.52517C12.8177 5.5169 12.8096 5.51256 12.7999 5.51256V5.48256C12.8202 5.48256 12.8359 5.49228 12.8475 5.5051C12.8588 5.51766 12.8666 5.53371 12.8721 5.54864C12.8776 5.56373 12.8811 5.57866 12.8832 5.5897C12.8842 5.59525 12.8849 5.59989 12.8854 5.60317C12.8856 5.60482 12.8858 5.60612 12.8859 5.60704C12.8859 5.6075 12.886 5.60786 12.886 5.60812C12.886 5.60824 12.886 5.60835 12.886 5.60842C12.886 5.60846 12.886 5.60849 12.886 5.60851C12.886 5.60853 12.886 5.60854 12.886 5.60855C12.886 5.60855 12.886 5.60855 12.886 5.60856C12.886 5.60856 12.886 5.60857 12.8711 5.61006ZM13.0136 5.92131C13.0136 5.85692 13.0135 5.79404 12.9948 5.74114C12.9766 5.68973 12.9408 5.64733 12.8667 5.62439L12.8756 5.59573C12.9589 5.62154 13.0019 5.67101 13.0231 5.73116C13.0438 5.78982 13.0436 5.8582 13.0436 5.92131H13.0136ZM13.1182 5.87985C13.1096 5.91512 13.1004 5.94182 13.0911 5.96064C13.0865 5.97004 13.0816 5.97789 13.0765 5.98393C13.0716 5.98981 13.0655 5.99507 13.0581 5.99746C13.0498 6.00013 13.0414 5.99867 13.0346 5.99365C13.0285 5.98915 13.0244 5.9825 13.0217 5.97589C13.0162 5.96258 13.0136 5.94367 13.0136 5.92131H13.0436C13.0436 5.94208 13.0462 5.95644 13.0495 5.96446C13.0511 5.96852 13.0524 5.96954 13.0523 5.96947C13.0515 5.96887 13.0499 5.96858 13.0489 5.96891C13.0487 5.96895 13.0504 5.96836 13.0536 5.96459C13.0566 5.961 13.0602 5.95543 13.0642 5.94737C13.0722 5.93126 13.0808 5.90687 13.089 5.87276L13.1182 5.87985ZM13.0975 6.05852C13.1079 6.03162 13.1163 6.00968 13.1173 5.98365C13.1184 5.95796 13.1121 5.92689 13.0902 5.88302L13.117 5.8696C13.1405 5.91658 13.1486 5.95271 13.1473 5.98482C13.1461 6.0166 13.1357 6.04305 13.1255 6.06938L13.0975 6.05852ZM13.0779 6.11627C13.0836 6.09437 13.0909 6.07555 13.0975 6.05852L13.1255 6.06938C13.1188 6.08651 13.1121 6.10384 13.1069 6.12384L13.0779 6.11627ZM13.1897 6.07349C13.1848 6.10685 13.1756 6.13258 13.1642 6.15111C13.153 6.16937 13.1388 6.18192 13.1235 6.18609C13.1157 6.18822 13.1075 6.18815 13.0999 6.1852C13.0922 6.18225 13.0861 6.17677 13.0819 6.16978C13.0736 6.15613 13.0726 6.13723 13.0778 6.11642L13.1069 6.1237C13.1028 6.14038 13.105 6.15008 13.1075 6.15424C13.1087 6.15616 13.1099 6.15689 13.1107 6.15722C13.1116 6.15755 13.1131 6.15783 13.1156 6.15715C13.1209 6.1557 13.1297 6.14996 13.1387 6.13541C13.1474 6.12114 13.1556 6.09952 13.16 6.06913L13.1897 6.07349ZM13.1514 6.25957C13.1653 6.2351 13.1767 6.2148 13.1805 6.18828C13.1844 6.16195 13.1808 6.12786 13.1609 6.07676L13.1888 6.06586C13.21 6.11997 13.215 6.15948 13.2102 6.19257C13.2055 6.22547 13.1911 6.2504 13.1774 6.27441L13.1514 6.25957ZM13.1154 6.34129C13.1242 6.30719 13.1387 6.2819 13.1514 6.25957L13.1774 6.27441C13.1647 6.2968 13.1521 6.31899 13.1444 6.34882L13.1154 6.34129ZM13.2452 6.28264C13.2274 6.33232 13.1961 6.36655 13.1692 6.38081C13.1624 6.38442 13.1554 6.38703 13.1485 6.38799C13.1417 6.38895 13.1339 6.38843 13.127 6.38434C13.1115 6.37519 13.1113 6.35664 13.1154 6.34119L13.1444 6.34892C13.141 6.3616 13.1454 6.36039 13.1422 6.35851C13.1415 6.35806 13.1418 6.35865 13.1443 6.35829C13.1468 6.35793 13.1505 6.35679 13.1552 6.35431C13.1743 6.34419 13.2011 6.31655 13.217 6.27248L13.2452 6.28264ZM13.2029 6.5067C13.216 6.48235 13.2299 6.45618 13.2355 6.4214C13.2412 6.38682 13.2388 6.34255 13.217 6.28268L13.2452 6.27243C13.2685 6.33632 13.2717 6.3858 13.2651 6.42621C13.2586 6.46644 13.2425 6.49652 13.2293 6.52092L13.2029 6.5067ZM13.2349 6.64881C13.2177 6.64881 13.2032 6.64355 13.1928 6.63296C13.1826 6.62258 13.1779 6.60876 13.1768 6.59469C13.1746 6.56696 13.1855 6.5337 13.2035 6.5057L13.2287 6.52192C13.213 6.54642 13.2052 6.57316 13.2067 6.5923C13.2074 6.60167 13.2103 6.60801 13.2142 6.61192C13.2178 6.61563 13.2239 6.61881 13.2349 6.61881V6.64881ZM13.3618 6.53472C13.3509 6.55765 13.3377 6.58596 13.3185 6.60831C13.2988 6.63123 13.2721 6.64881 13.2349 6.64881V6.61881C13.2611 6.61881 13.2801 6.60694 13.2957 6.58876C13.3118 6.57002 13.3235 6.54557 13.3346 6.5219L13.3618 6.53472ZM13.3924 6.48756C13.3913 6.48756 13.3878 6.48819 13.3814 6.49753C13.3752 6.50642 13.3692 6.51907 13.3618 6.53472L13.3346 6.5219C13.3417 6.50704 13.3488 6.49181 13.3567 6.48045C13.3642 6.46954 13.3756 6.45756 13.3924 6.45756V6.48756ZM13.6661 6.73881V7.56756H13.6361V6.73881H13.6661ZM13.5442 6.7255C13.5638 6.71529 13.5832 6.70975 13.6026 6.70975C13.6221 6.70975 13.6407 6.71534 13.6587 6.72587L13.6435 6.75175C13.6295 6.74353 13.6161 6.73975 13.6026 6.73975C13.5891 6.73975 13.5744 6.74358 13.5581 6.75211L13.5442 6.7255ZM13.5361 7.56756V6.73881H13.5661V7.56756H13.5361ZM13.6511 7.58256H13.5511V7.55256H13.6511V7.58256Z" fill="black"/>
<path fill-rule="evenodd" clip-rule="evenodd" d="M12.6535 5.95518L12.721 6.01143H12.8898L12.9573 5.95143V5.87643C12.931 5.88393 12.9198 5.88768 12.901 5.91393C12.8846 5.86599 12.8494 5.82676 12.8035 5.80518C12.7583 5.82842 12.7245 5.86902 12.7098 5.91768C12.691 5.89143 12.676 5.88018 12.6535 5.88018V5.95518ZM12.211 7.56393C12.181 7.39893 12.0648 7.33143 11.9485 7.27518V7.56393H12.211Z" fill="white"/>
<path d="M12.721 6.01143V6.03095L12.7114 6.02295L12.721 6.01143ZM12.6535 5.95518L12.6385 5.97318V5.95518H12.6535ZM12.8898 6.01143L12.9031 6.02643H12.8898V6.01143ZM12.9573 5.95143H12.9799L12.9672 5.96264L12.9573 5.95143ZM12.9573 5.87643L12.9532 5.862L12.9723 5.85654V5.87643H12.9573ZM12.901 5.91393L12.9132 5.92264L12.8963 5.94635L12.8868 5.9188L12.901 5.91393ZM12.8035 5.80518L12.7923 5.78331L12.8099 5.7916L12.8035 5.80518ZM12.7098 5.91768L12.7241 5.92202L12.7153 5.95122L12.6976 5.92639L12.7098 5.91768ZM12.6535 5.88018H12.6385V5.86518H12.6535V5.88018ZM11.9485 7.27518H11.9335V7.25125L11.9551 7.26167L11.9485 7.27518ZM12.211 7.56393L12.2258 7.56124L12.229 7.57893H12.211V7.56393ZM11.9485 7.56393V7.57893H11.9335V7.56393H11.9485ZM12.7114 6.02295L12.6439 5.9667L12.6631 5.94365L12.7306 5.9999L12.7114 6.02295ZM12.8898 6.02643H12.721V5.99643H12.8898V6.02643ZM12.9672 5.96264L12.8997 6.02264L12.8798 6.00021L12.9473 5.94021L12.9672 5.96264ZM12.9723 5.87643V5.95143H12.9423V5.87643H12.9723ZM12.8888 5.90521C12.8988 5.89123 12.9077 5.88196 12.9185 5.87535C12.929 5.86895 12.9404 5.86566 12.9532 5.862L12.9614 5.89085C12.9479 5.89469 12.9406 5.89703 12.9342 5.90094C12.9281 5.90464 12.922 5.91037 12.9132 5.92264L12.8888 5.90521ZM12.8099 5.7916C12.8594 5.81491 12.8974 5.85728 12.9152 5.90905L12.8868 5.9188C12.8717 5.87469 12.8393 5.8386 12.7971 5.81875L12.8099 5.7916ZM12.6954 5.91334C12.7113 5.86079 12.7478 5.81694 12.7967 5.79184L12.8104 5.81852C12.7688 5.8399 12.7377 5.87725 12.7241 5.92202L12.6954 5.91334ZM12.6535 5.86518C12.6676 5.86518 12.68 5.86881 12.6915 5.8767C12.7026 5.88427 12.7122 5.89531 12.722 5.90896L12.6976 5.92639C12.6886 5.91379 12.6813 5.90608 12.6746 5.90146C12.6683 5.89716 12.6619 5.89518 12.6535 5.89518V5.86518ZM12.6385 5.95518V5.88018H12.6685V5.95518H12.6385ZM11.9551 7.26167C12.0717 7.31813 12.1944 7.38848 12.2258 7.56124L12.1963 7.56661C12.1677 7.40937 12.0578 7.34472 11.942 7.28868L11.9551 7.26167ZM11.9335 7.56393V7.27518H11.9635V7.56393H11.9335ZM12.211 7.57893H11.9485V7.54893H12.211V7.57893Z" fill="black"/>
<path d="M12.6835 6.19508L12.6535 6.12383V6.03008C12.676 6.03008 12.691 6.04133 12.7098 6.06758C12.7245 6.01892 12.7583 5.97832 12.8035 5.95508C12.8494 5.97666 12.8846 6.01589 12.901 6.06383C12.9198 6.03758 12.931 6.03383 12.9573 6.03008V6.12383L12.9273 6.19508H12.6835Z" fill="white" stroke="black" stroke-width="0.03"/>
<path d="M12.6762 6.44246L12.5787 6.31871V6.19871C12.6162 6.19871 12.635 6.21746 12.6612 6.25871C12.6875 6.17246 12.7362 6.15746 12.8037 6.11621C12.875 6.15371 12.9237 6.17246 12.9462 6.25496C12.9762 6.21371 12.995 6.20246 13.0325 6.19871V6.31871L12.9312 6.44246H12.6762Z" fill="white" stroke="black" stroke-width="0.03"/>
<path d="M12.65 6.68625C12.65 6.68625 12.53 6.585 12.5262 6.52875V6.3975C12.5712 6.40125 12.6125 6.4125 12.6462 6.46875C12.6762 6.36 12.7212 6.33 12.8037 6.28125C12.89 6.33 12.935 6.36 12.9612 6.46875C12.9987 6.4125 13.0362 6.40125 13.085 6.39375V6.52875C13.0535 6.58823 13.0116 6.64158 12.9612 6.68625H12.65Z" fill="white" stroke="black" stroke-width="0.03"/>
<path d="M12.6011 7.13611C12.6011 7.13611 12.4361 6.95986 12.4323 6.88861V6.68611C12.4923 6.69361 12.5523 6.73486 12.5973 6.82111C12.6348 6.65236 12.6948 6.53611 12.8036 6.45361C12.9161 6.53611 12.9761 6.65236 13.0136 6.82111C13.0586 6.73486 13.1148 6.69361 13.1748 6.68611V6.88861C13.1636 6.95986 13.0098 7.13611 13.0098 7.13611H12.6011Z" fill="white" stroke="black" stroke-width="0.03"/>
<path d="M12.6011 7.4026C12.6011 7.4026 12.4623 7.26385 12.4323 7.20385V7.00135C12.4923 7.00885 12.5523 7.0501 12.5973 7.1326C12.6176 6.99479 12.6918 6.87068 12.8036 6.7876C12.9161 6.8701 12.9761 6.96385 13.0136 7.1326C13.0586 7.0501 13.1148 7.00885 13.1748 7.00135V7.20385C13.1373 7.26385 13.0098 7.4026 13.0098 7.4026H12.6011Z" fill="white" stroke="black" stroke-width="0.03"/>
<path d="M12.5448 7.55984C12.5823 7.38359 12.6198 7.25234 12.8111 7.12109C13.0061 7.25234 13.0398 7.38359 13.0811 7.55984H12.5448Z" fill="white" stroke="black" stroke-width="0.03"/>
<path fill-rule="evenodd" clip-rule="evenodd" d="M14.1125 9.03027H5.88497V9.33402H14.1125V9.03027ZM5.40122 9.73527H14.6V10.204L14.8437 10.204V10.6728H5.15747V10.204L5.40122 10.204V9.73527Z" fill="white"/>
<path d="M5.88497 9.03027V9.01527H5.86997V9.03027H5.88497ZM14.1125 9.03027H14.1275V9.01527H14.1125V9.03027ZM5.88497 9.33402H5.86997V9.34902H5.88497V9.33402ZM14.1125 9.33402V9.34902H14.1275V9.33402H14.1125ZM14.6 9.73527H14.615V9.72027H14.6V9.73527ZM5.40122 9.73527V9.72027H5.38622V9.73527H5.40122ZM14.6 10.204H14.585V10.219H14.6V10.204ZM14.8437 10.204H14.8587V10.189H14.8437V10.204ZM14.8437 10.6728V10.6878H14.8587V10.6728H14.8437ZM5.15747 10.6728H5.14247V10.6878H5.15747V10.6728ZM5.15747 10.204L5.15747 10.189H5.14247V10.204H5.15747ZM5.40122 10.204V10.219H5.41622V10.204H5.40122ZM5.88497 9.04527H14.1125V9.01527H5.88497V9.04527ZM5.89997 9.33402V9.03027H5.86997V9.33402H5.89997ZM14.1125 9.31902H5.88497V9.34902H14.1125V9.31902ZM14.0975 9.03027V9.33402H14.1275V9.03027H14.0975ZM14.6 9.72027H5.40122V9.75027H14.6V9.72027ZM14.615 10.204V9.73527H14.585V10.204H14.615ZM14.8437 10.189L14.6 10.189V10.219L14.8437 10.219V10.189ZM14.8587 10.6728V10.204H14.8287V10.6728H14.8587ZM5.15747 10.6878H14.8437V10.6578H5.15747V10.6878ZM5.14247 10.204V10.6728H5.17247V10.204H5.14247ZM5.40122 10.189L5.15747 10.189L5.15747 10.219L5.40122 10.219V10.189ZM5.38622 9.73527V10.204H5.41622V9.73527H5.38622Z" fill="black"/>
<path fill-rule="evenodd" clip-rule="evenodd" d="M13.9775 8.77002H6.02752V9.01902H13.9775V8.77002ZM14.36 9.34432H5.64502V9.77002H14.36V9.34432Z" fill="white"/>
<path d="M6.02752 8.77002V8.75502H6.01252V8.77002H6.02752ZM13.9775 8.77002H13.9925V8.75502H13.9775V8.77002ZM6.02752 9.01902H6.01252V9.03402H6.02752V9.01902ZM13.9775 9.01902V9.03402H13.9925V9.01902H13.9775ZM5.64502 9.34432V9.32932H5.63002V9.34432H5.64502ZM14.36 9.34432H14.375V9.32932H14.36V9.34432ZM5.64502 9.77002H5.63002V9.78502H5.64502V9.77002ZM14.36 9.77002V9.78502H14.375V9.77002H14.36ZM6.02752 8.78502H13.9775V8.75502H6.02752V8.78502ZM6.04252 9.01902V8.77002H6.01252V9.01902H6.04252ZM13.9775 9.00402H6.02752V9.03402H13.9775V9.00402ZM13.9625 8.77002V9.01902H13.9925V8.77002H13.9625ZM5.64502 9.35932H14.36V9.32932H5.64502V9.35932ZM5.66002 9.77002V9.34432H5.63002V9.77002H5.66002ZM14.36 9.75502H5.64502V9.78502H14.36V9.75502ZM14.345 9.34432V9.77002H14.375V9.34432H14.345Z" fill="black"/>
<path d="M6.88989 8.78662H7.48989V10.6616H6.88989V8.78662Z" fill="white" stroke="black" stroke-width="0.03"/>
<path fill-rule="evenodd" clip-rule="evenodd" d="M7.35874 8.78662H7.02499L7.02124 10.6616H7.35874V8.78662ZM10.2875 8.78662H9.68749V10.6616H10.2875V8.78662Z" fill="white"/>
<path d="M7.02499 8.78662V8.77162H7.01002L7.00999 8.78659L7.02499 8.78662ZM7.35874 8.78662H7.37374V8.77162H7.35874V8.78662ZM7.02124 10.6616L7.00624 10.6616L7.00621 10.6766H7.02124V10.6616ZM7.35874 10.6616V10.6766H7.37374V10.6616H7.35874ZM9.68749 8.78662V8.77162H9.67249V8.78662H9.68749ZM10.2875 8.78662H10.3025V8.77162H10.2875V8.78662ZM9.68749 10.6616H9.67249V10.6766H9.68749V10.6616ZM10.2875 10.6616V10.6766H10.3025V10.6616H10.2875ZM7.02499 8.80162H7.35874V8.77162H7.02499V8.80162ZM7.03624 10.6617L7.03999 8.78665L7.00999 8.78659L7.00624 10.6616L7.03624 10.6617ZM7.35874 10.6466H7.02124V10.6766H7.35874V10.6466ZM7.34374 8.78662V10.6616H7.37374V8.78662H7.34374ZM9.68749 8.80162H10.2875V8.77162H9.68749V8.80162ZM9.70249 10.6616V8.78662H9.67249V10.6616H9.70249ZM10.2875 10.6466H9.68749V10.6766H10.2875V10.6466ZM10.2725 8.78662V10.6616H10.3025V8.78662H10.2725Z" fill="black"/>
<path fill-rule="evenodd" clip-rule="evenodd" d="M10.1637 8.78662H9.82617V10.6616H10.1637V8.78662ZM13.1074 8.78662H12.5074V10.6616H13.1074V8.78662Z" fill="white"/>
<path d="M9.82617 8.78662V8.77162H9.81117V8.78662H9.82617ZM10.1637 8.78662H10.1787V8.77162H10.1637V8.78662ZM9.82617 10.6616H9.81117V10.6766H9.82617V10.6616ZM10.1637 10.6616V10.6766H10.1787V10.6616H10.1637ZM12.5074 8.78662V8.77162H12.4924V8.78662H12.5074ZM13.1074 8.78662H13.1224V8.77162H13.1074V8.78662ZM12.5074 10.6616H12.4924V10.6766H12.5074V10.6616ZM13.1074 10.6616V10.6766H13.1224V10.6616H13.1074ZM9.82617 8.80162H10.1637V8.77162H9.82617V8.80162ZM9.84117 10.6616V8.78662H9.81117V10.6616H9.84117ZM10.1637 10.6466H9.82617V10.6766H10.1637V10.6466ZM10.1487 8.78662V10.6616H10.1787V8.78662H10.1487ZM12.5074 8.80162H13.1074V8.77162H12.5074V8.80162ZM12.5224 10.6616V8.78662H12.4924V10.6616H12.5224ZM13.1074 10.6466H12.5074V10.6766H13.1074V10.6466ZM13.0924 8.78662V10.6616H13.1224V8.78662H13.0924Z" fill="black"/>
<path d="M12.6387 8.78662H12.9762V10.6616H12.6387V8.78662Z" fill="white" stroke="black" stroke-width="0.03"/>
</g>
<rect x="0.5" y="0.5" width="19" height="14" rx="0.5" stroke="black" stroke-opacity="0.1"/>
<defs>
<clipPath id="clip0_85465_14027">
<rect width="20" height="15" rx="1" fill="white"/>
</clipPath>
</defs>
</svg>
