<svg width="20" height="15" viewBox="0 0 20 15" fill="none" xmlns="http://www.w3.org/2000/svg">
<g clip-path="url(#clip0_85465_14135)">
<rect width="20" height="15" rx="1" fill="white"/>
<path fill-rule="evenodd" clip-rule="evenodd" d="M0 0V15H20V0H0Z" fill="#E31D1C"/>
<mask id="mask0_85465_14135" style="mask-type:luminance" maskUnits="userSpaceOnUse" x="0" y="0" width="20" height="15">
<path fill-rule="evenodd" clip-rule="evenodd" d="M0 0V15H20V0H0Z" fill="white"/>
</mask>
<g mask="url(#mask0_85465_14135)">
<path fill-rule="evenodd" clip-rule="evenodd" d="M9.57727 10.7355L9.86341 10.115L10.1495 10.7355L10.3194 10.0743L10.7126 10.6342L10.7607 9.95352L11.2484 10.4347L11.1732 9.75649L11.7397 10.1436L11.5436 9.48958L12.1706 9.77012L11.8599 9.16137L12.5274 9.32634L12.1121 8.78239L12.7986 8.8265L12.2921 8.36484L12.9754 8.28666L12.3939 7.92213L13.0523 7.72418L12.4145 7.4685L13.0266 7.15714L12.353 7.01851L12.8992 6.60375L12.2116 6.58664L12.6743 6.08181L11.9946 6.18677L12.3591 5.60809L11.7092 5.83175L11.9636 5.19782L11.3644 5.53298L11.5006 4.86418L10.9714 5.30007L10.985 4.6179L10.5428 5.14052L10.4334 4.4669L10.0923 5.05944L9.86341 4.41602L9.6345 5.05944L9.29344 4.4669L9.18404 5.14052L8.7418 4.6179L8.75542 5.30007L8.2262 4.86418L8.36241 5.53298L7.76323 5.19782L8.01764 5.83175L7.36775 5.60809L7.7322 6.18677L7.05249 6.08181L7.51526 6.58664L6.82758 6.60375L7.37378 7.01851L6.70024 7.15714L7.31233 7.4685L6.67456 7.72418L7.33287 7.92213L6.75138 8.28666L7.43474 8.36484L6.92822 8.8265L7.61468 8.78239L7.1994 9.32634L7.86688 9.16137L7.5562 9.77012L8.18326 9.48958L7.98716 10.1436L8.55364 9.75649L8.47842 10.4347L8.96612 9.95352L9.0142 10.6342L9.40743 10.0743L9.57727 10.7355Z" fill="#FFC84A"/>
<path fill-rule="evenodd" clip-rule="evenodd" d="M-0.494931 8.70024L1.13935 8.037C1.37757 7.94032 1.6443 7.9415 1.88166 8.04027L4.15088 8.98461C4.40762 9.09146 4.69775 9.08376 4.94847 8.96344L6.77885 8.08503C7.04137 7.95904 7.34643 7.9568 7.61077 8.07892L9.52793 8.96459C9.78621 9.08391 10.0837 9.08464 10.3425 8.96659L12.3043 8.07199C12.563 7.95398 12.8604 7.95467 13.1186 8.07388L15.0554 8.968C15.3096 9.08534 15.6019 9.08793 15.8581 8.97511L17.9745 8.04324C18.2036 7.94235 18.4627 7.93333 18.6983 8.01804L20.5957 8.70024V14.9588H-0.550537L-0.494931 8.70024Z" fill="#F7FCFF"/>
<mask id="mask1_85465_14135" style="mask-type:luminance" maskUnits="userSpaceOnUse" x="-1" y="7" width="22" height="8">
<path fill-rule="evenodd" clip-rule="evenodd" d="M-0.494931 8.70024L1.13935 8.037C1.37757 7.94032 1.6443 7.9415 1.88166 8.04027L4.15088 8.98461C4.40762 9.09146 4.69775 9.08376 4.94847 8.96344L6.77885 8.08503C7.04137 7.95904 7.34643 7.9568 7.61077 8.07892L9.52793 8.96459C9.78621 9.08391 10.0837 9.08464 10.3425 8.96659L12.3043 8.07199C12.563 7.95398 12.8604 7.95467 13.1186 8.07388L15.0554 8.968C15.3096 9.08534 15.6019 9.08793 15.8581 8.97511L17.9745 8.04324C18.2036 7.94235 18.4627 7.93333 18.6983 8.01804L20.5957 8.70024V14.9588H-0.550537L-0.494931 8.70024Z" fill="white"/>
</mask>
<g mask="url(#mask1_85465_14135)">
<path d="M-0.494873 10.1537L1.13941 9.49043C1.37762 9.39376 1.64436 9.39493 1.88172 9.49371L4.15093 10.438C4.40768 10.5449 4.69781 10.5372 4.94852 10.4169L6.7789 9.53847C7.04143 9.41248 7.34649 9.41024 7.61083 9.53236L9.52799 10.418C9.78626 10.5373 10.0837 10.5381 10.3426 10.42L12.3043 9.52542C12.5631 9.40741 12.8605 9.4081 13.1187 9.52731L15.0555 10.4214C15.3097 10.5388 15.602 10.5414 15.8582 10.4285L17.9745 9.49668C18.2036 9.39579 18.4628 9.38677 18.6983 9.47147L20.5957 10.1537" stroke="#015989" stroke-width="1.25"/>
<path d="M-0.494873 12.2342L1.13941 11.571C1.37762 11.4743 1.64436 11.4755 1.88172 11.5743L4.15093 12.5186C4.40768 12.6255 4.69781 12.6178 4.94852 12.4974L6.7789 11.619C7.04143 11.493 7.34649 11.4908 7.61083 11.6129L9.52799 12.4986C9.78626 12.6179 10.0837 12.6186 10.3426 12.5006L12.3043 11.606C12.5631 11.488 12.8605 11.4887 13.1187 11.6079L15.0555 12.502C15.3097 12.6193 15.602 12.6219 15.8582 12.5091L17.9745 11.5772C18.2036 11.4764 18.4628 11.4673 18.6983 11.552L20.5957 12.2342" stroke="#015989" stroke-width="1.25"/>
<path fill-rule="evenodd" clip-rule="evenodd" d="M-0.494873 13.8922L0.187417 13.6153C1.03554 13.2711 1.9852 13.2753 2.83026 13.627L4.15093 14.1766C4.40768 14.2834 4.69781 14.2757 4.94852 14.1554L5.71759 13.7863C6.65226 13.3378 7.73835 13.3298 8.6795 13.7646L9.52799 14.1566C9.78626 14.2759 10.0837 14.2766 10.3426 14.1586L11.2607 13.7399C12.182 13.3197 13.2407 13.3222 14.1601 13.7466L15.0555 14.16C15.3097 14.2773 15.602 14.2799 15.8582 14.1671L17.0608 13.6375C17.8765 13.2783 18.7991 13.2462 19.6378 13.5478L20.5957 13.8922V15.964H-0.380112L-0.494873 13.8922Z" fill="#015989"/>
</g>
<path fill-rule="evenodd" clip-rule="evenodd" d="M6.11255 2.13661C6.11255 2.13661 6.9825 2.13661 7.27539 2.13661C7.56827 2.13661 8.22901 1.68878 8.61119 1.83806C8.99336 1.98733 9.63673 2.46928 9.63673 2.46928C9.63673 2.46928 10.6989 1.63083 11.3324 1.63083C11.966 1.63083 13.1087 1.5376 13.1087 1.5376C13.1087 1.5376 12.8406 2.23351 12.0865 2.3514C11.3324 2.46928 10.4302 3.04661 10.4302 3.04661C10.4302 3.04661 11.469 3.04661 11.6559 3.04661C11.8427 3.04661 12.0865 3.32835 12.0865 3.32835C12.0865 3.32835 11.5835 3.67013 11.3324 3.67013C11.0813 3.67013 10.804 3.67013 10.804 3.67013C10.804 3.67013 10.2701 4.12823 9.61064 4.03076C8.95114 3.93329 8.42199 3.32835 8.42199 3.32835C8.42199 3.32835 7.84498 3.24564 7.84498 3.14612C7.84498 3.14612 7.48944 2.9639 7.38241 3.14612C7.27539 3.32835 7.84498 2.9021 7.84498 2.9021C7.84498 2.9021 8.07335 2.68788 8.24767 2.68788C8.42199 2.68788 9.00412 3.04661 9.00412 3.04661L9.14312 2.9021L8.42199 2.3514C6.9511 2.50551 6.11255 2.13661 6.11255 2.13661Z" fill="#FFC84A"/>
</g>
</g>
<rect x="0.5" y="0.5" width="19" height="14" rx="0.5" stroke="black" stroke-opacity="0.1"/>
<defs>
<clipPath id="clip0_85465_14135">
<rect width="20" height="15" rx="1" fill="white"/>
</clipPath>
</defs>
</svg>
