<svg width="20" height="15" viewBox="0 0 20 15" fill="none" xmlns="http://www.w3.org/2000/svg">
<g clip-path="url(#clip0_85465_14199)">
<rect width="20" height="15" rx="1" fill="white"/>
<path fill-rule="evenodd" clip-rule="evenodd" d="M0 0V15H20V0H0Z" fill="#3D58DB"/>
<mask id="mask0_85465_14199" style="mask-type:luminance" maskUnits="userSpaceOnUse" x="0" y="0" width="20" height="15">
<path fill-rule="evenodd" clip-rule="evenodd" d="M0 0V15H20V0H0Z" fill="white"/>
</mask>
<g mask="url(#mask0_85465_14199)">
<path d="M0 3.125H-0.625V3.75V11.25V11.875H0H20H20.625V11.25V3.75V3.125H20H0Z" fill="#C51918" stroke="#F7FCFF" stroke-width="1.25"/>
<path fill-rule="evenodd" clip-rule="evenodd" d="M6.25 10.625C7.97589 10.625 9.375 9.22589 9.375 7.5C9.375 5.77411 7.97589 4.375 6.25 4.375C4.52411 4.375 3.125 5.77411 3.125 7.5C3.125 9.22589 4.52411 10.625 6.25 10.625Z" fill="#F7FCFF"/>
<path fill-rule="evenodd" clip-rule="evenodd" d="M6.24694 8.66863L4.54924 9.85L5.14817 7.87032L3.5 6.62077L5.56786 6.57863L6.24694 4.625L6.92603 6.57863L8.99389 6.62077L7.34572 7.87032L7.94465 9.85L6.24694 8.66863Z" fill="#C51918"/>
</g>
</g>
<rect x="0.5" y="0.5" width="19" height="14" rx="0.5" stroke="black" stroke-opacity="0.1"/>
<defs>
<clipPath id="clip0_85465_14199">
<rect width="20" height="15" rx="1" fill="white"/>
</clipPath>
</defs>
</svg>
