<svg width="20" height="15" viewBox="0 0 20 15" fill="none" xmlns="http://www.w3.org/2000/svg">
<g clip-path="url(#clip0_85465_14208)">
<rect width="20" height="15" rx="1" fill="white"/>
<path fill-rule="evenodd" clip-rule="evenodd" d="M0 0V15H20V0H0Z" fill="#F7FCFF"/>
<mask id="mask0_85465_14208" style="mask-type:luminance" maskUnits="userSpaceOnUse" x="0" y="0" width="20" height="15">
<path fill-rule="evenodd" clip-rule="evenodd" d="M0 0V15H20V0H0Z" fill="white"/>
</mask>
<g mask="url(#mask0_85465_14208)">
<path fill-rule="evenodd" clip-rule="evenodd" d="M9.99989 11.3871C12.0016 11.3871 13.6243 9.66384 13.6243 7.53805C13.6243 5.41226 12.0016 3.68896 9.99989 3.68896C7.99819 3.68896 6.37549 5.41226 6.37549 7.53805C6.37549 9.66384 7.99819 11.3871 9.99989 11.3871Z" fill="#3D58DB"/>
<mask id="mask1_85465_14208" style="mask-type:luminance" maskUnits="userSpaceOnUse" x="6" y="3" width="8" height="9">
<path fill-rule="evenodd" clip-rule="evenodd" d="M9.99989 11.3871C12.0016 11.3871 13.6243 9.66384 13.6243 7.53805C13.6243 5.41226 12.0016 3.68896 9.99989 3.68896C7.99819 3.68896 6.37549 5.41226 6.37549 7.53805C6.37549 9.66384 7.99819 11.3871 9.99989 11.3871Z" fill="white"/>
</mask>
<g mask="url(#mask1_85465_14208)">
<path fill-rule="evenodd" clip-rule="evenodd" d="M13.7512 7.83294C13.7512 7.83294 13.5478 6.01797 12.0411 5.91944C10.5344 5.82092 10.1282 7.25043 10.0412 7.62917C9.95429 8.0079 9.73424 9.01821 8.14789 9.01821C6.56155 9.01821 6.41846 6.44919 6.41846 6.44919V3.41992H13.7512V7.83294Z" fill="#E31D1C"/>
</g>
<path fill-rule="evenodd" clip-rule="evenodd" d="M4.56203 1.28271L5.13388 1.79992L2.48372 4.89486L1.91187 4.37766L4.56203 1.28271ZM5.50514 2.11969L6.077 2.63689L3.52183 5.687L2.94998 5.16979L5.50514 2.11969ZM7.01579 3.48418L6.44394 2.96697L3.88168 6.04023L4.45353 6.55743L7.01579 3.48418Z" fill="#272727"/>
<path fill-rule="evenodd" clip-rule="evenodd" d="M15.8523 1.06592L15.2803 1.58119L16.2724 2.74546L16.8444 2.23019L15.8523 1.06592ZM17.6158 3.20757L17.0438 3.72284L18.0359 4.88711L18.6079 4.37184L17.6158 3.20757ZM13.3924 3.25818L13.9644 2.74291L14.9565 3.90718L14.3846 4.42245L13.3924 3.25818ZM15.7279 4.88456L15.1559 5.39983L16.1481 6.5641L16.72 6.04883L15.7279 4.88456ZM14.3722 2.39467L14.9441 1.87941L17.7058 5.24245L17.1338 5.75771L14.3722 2.39467Z" fill="#272727"/>
<path fill-rule="evenodd" clip-rule="evenodd" d="M16.2842 8.90204L15.7075 8.38477L14.707 9.55358L15.2838 10.0709L16.2842 8.90204ZM14.6022 10.9589L14.0254 10.4416L13.0249 11.6105L13.6017 12.1277L14.6022 10.9589ZM17.529 10.0206L18.1058 10.5379L17.1053 11.7067L16.5285 11.1894L17.529 10.0206ZM16.506 12.6425L15.9292 12.1252L14.9287 13.294L15.5055 13.8113L16.506 12.6425ZM14.979 11.2364L15.5558 11.7537L14.5114 13.0017L13.9347 12.4845L14.979 11.2364ZM17.2692 9.67399L16.6924 9.15672L15.6481 10.4048L16.2248 10.9221L17.2692 9.67399Z" fill="#272727"/>
<path fill-rule="evenodd" clip-rule="evenodd" d="M4.00403 9.30636L4.57603 8.79053L7.12891 11.7158L6.5569 12.2316L4.00403 9.30636ZM4.59953 11.8649L5.17153 11.3491L6.24985 12.5338L5.67785 13.0496L4.59953 11.8649ZM2.69332 10.4319L2.12132 10.9478L4.68744 13.9124L5.25945 13.3965L2.69332 10.4319ZM3.10031 10.0953L3.67231 9.57947L4.60711 10.6756L4.0351 11.1915L3.10031 10.0953Z" fill="#272727"/>
</g>
</g>
<rect x="0.5" y="0.5" width="19" height="14" rx="0.5" stroke="black" stroke-opacity="0.1"/>
<defs>
<clipPath id="clip0_85465_14208">
<rect width="20" height="15" rx="1" fill="white"/>
</clipPath>
</defs>
</svg>
