<svg width="20" height="15" viewBox="0 0 20 15" fill="none" xmlns="http://www.w3.org/2000/svg">
<g clip-path="url(#clip0_85465_14250)">
<rect width="20" height="15" rx="1" fill="white"/>
<path fill-rule="evenodd" clip-rule="evenodd" d="M0 0H20V15H0V0Z" fill="#2E42A5"/>
<g clip-path="url(#clip1_85465_14250)">
<rect width="11" height="9" fill="#2E42A5"/>
<path d="M-1.25269 8.1247L1.22291 9.21045L11.3062 1.18028L12.612 -0.433182L9.96468 -0.796071L5.85197 2.66436L2.54165 4.99588L-1.25269 8.1247Z" fill="#F7FCFF"/>
<path d="M-0.913818 8.88555L0.347383 9.51562L12.143 -0.582947H10.3721L-0.913818 8.88555Z" fill="#F50100"/>
<path d="M12.5027 8.1248L10.3056 9.52051L-0.0561562 1.18038L-1.36198 -0.433076L1.28532 -0.795966L5.39803 2.66447L8.70835 4.99599L12.5027 8.1248Z" fill="#F7FCFF"/>
<path d="M12.4182 8.6707L11.157 9.30078L6.13431 4.97706L4.64518 4.49398L-1.48763 -0.427604H0.283246L6.41261 4.37716L8.04071 4.95642L12.4182 8.6707Z" fill="#F50100"/>
<path fill-rule="evenodd" clip-rule="evenodd" d="M6 0H5V4H0V5H5V9H6V5H11V4H6V0Z" fill="#F50100"/>
<path fill-rule="evenodd" clip-rule="evenodd" d="M4.0625 0H6.9375V3.0625L11 3V5.875L6.9375 5.9375V9H4.0625V5.9375L0 5.875V3L4.0625 3.0625V0ZM5 4H0V5H5V9H6V5H11V4H6V0H5V4Z" fill="#F7FCFF"/>
</g>
<g clip-path="url(#clip2_85465_14250)">
<path d="M13.4812 9.27154V6.99531H18.1224V6.9968V7.00083V7.00487V7.00892V7.01298V7.01704V7.02112V7.02521V7.0293V7.03341V7.03752V7.04164V7.04578V7.04992V7.05407V7.05823V7.0624V7.06658V7.07076V7.07496V7.07916V7.08338V7.0876V7.09183V7.09607V7.10032V7.10457V7.10884V7.11311V7.11739V7.12168V7.12598V7.13029V7.1346V7.13892V7.14325V7.14759V7.15194V7.15629V7.16066V7.16503V7.16941V7.17379V7.17819V7.18259V7.187V7.19142V7.19584V7.20027V7.20471V7.20916V7.21362V7.21808V7.22255V7.22702V7.23151V7.236V7.2405V7.245V7.24951V7.25403V7.25856V7.26309V7.26763V7.27218V7.27673V7.28129V7.28586V7.29043V7.29501V7.2996V7.30419V7.30879V7.3134V7.31801V7.32263V7.32726V7.33189V7.33652V7.34117V7.34582V7.35047V7.35513V7.3598V7.36447V7.36915V7.37384V7.37853V7.38323V7.38793V7.39264V7.39735V7.40207V7.40679V7.41152V7.41626V7.421V7.42575V7.4305V7.43525V7.44002V7.44478V7.44956V7.45433V7.45911V7.4639V7.46869V7.47349V7.47829V7.4831V7.48791V7.49273V7.49755V7.50237V7.5072V7.51204V7.51687V7.52172V7.52656V7.53142V7.53627V7.54113V7.546V7.55086V7.55574V7.56061V7.5655V7.57038V7.57527V7.58016V7.58506V7.58996V7.59486V7.59977V7.60468V7.60959V7.61451V7.61943V7.62436V7.62929V7.63422V7.63916V7.64409V7.64904V7.65398V7.65893V7.66388V7.66884V7.67379V7.67875V7.68372V7.68868V7.69365V7.69862V7.7036V7.70858V7.71356V7.71854V7.72352V7.72851V7.7335V7.73849V7.74349V7.74849V7.75349V7.75849V7.76349V7.7685V7.77351V7.77852V7.78353V7.78854V7.79356V7.79858V7.8036V7.80862V7.81364V7.81867V7.82369V7.82872V7.83375V7.83878V7.84382V7.84885V7.85389V7.85893V7.86396V7.869V7.87404V7.87909V7.88413V7.88917V7.89422V7.89927V7.90431V7.90936V7.91441V7.91946V7.92451V7.92956V7.93461V7.93967V7.94472V7.94977V7.95483V7.95988V7.96494V7.96999V7.97505V7.9801V7.98516V7.99022V7.99527V8.00033V8.00538V8.01044V8.0155V8.02055V8.02561V8.03067V8.03572V8.04078V8.04583V8.05089V8.05594V8.06099V8.06605V8.0711V8.07615V8.0812V8.08626V8.09131V8.09635V8.1014V8.10645V8.1115V8.11654V8.12159V8.12663V8.13167V8.13672V8.14176V8.14679V8.15183V8.15687V8.1619V8.16694V8.17197V8.177V8.18203V8.18706V8.19208V8.19711V8.20213V8.20715V8.21217V8.21719V8.2222V8.22721V8.23222V8.23723V8.24224V8.24725V8.25225V8.25725V8.26225V8.26724V8.27224V8.27723V8.28222V8.2872V8.29219V8.29717V8.30214V8.30712V8.31209V8.31706V8.32203V8.32699V8.33196V8.33691V8.34187V8.34682V8.35177V8.35672V8.36166V8.3666V8.37154V8.37647V8.3814V8.38633V8.39125V8.39617V8.40109V8.406V8.41091V8.41581V8.42072V8.42561V8.43051V8.4354V8.44028V8.44517V8.45004V8.45492V8.45979V8.46465V8.46952V8.47437V8.47923V8.48408V8.48892V8.49376V8.4986V8.50343V8.50825V8.51308V8.51789V8.52271V8.52752V8.53232V8.53712V8.54191V8.5467V8.55148V8.55626V8.56104V8.56581V8.57057V8.57533V8.58008V8.58483V8.58957V8.59431V8.59904V8.60377V8.60849V8.61321V8.61792V8.62262V8.62732V8.63201V8.6367V8.64138V8.64606V8.65073V8.65539V8.66005V8.6647V8.66935V8.67399V8.67862V8.68325V8.68787V8.69248V8.69709V8.70169V8.70629V8.71088V8.71546V8.72004V8.72461V8.72917V8.73372V8.73827V8.74282V8.74735V8.75188V8.7564V8.76092V8.76542V8.76993V8.77442V8.77891V8.78339V8.78786V8.79232V8.79678V8.80123V8.80567V8.81011V8.81454V8.81896V8.82337V8.82777V8.83217V8.83656V8.84094V8.84531V8.84968V8.85404V8.85839V8.86273V8.86706V8.87139V8.87571V8.88002V8.88432V8.88861V8.8929V8.89717V8.90144V8.9057V8.90995V8.91419V8.91843V8.92265V8.92687V8.93108V8.93527V8.93946V8.94365V8.94782V8.95198V8.95614V8.96028V8.96442V8.96854V8.97266V8.97677V8.98087V8.98496V8.98904V8.99311V8.99717V9.00123V9.00527V9.0093V9.01332V9.01734V9.02134V9.02534V9.02932V9.0333V9.03726V9.04121V9.04516V9.04909V9.05302V9.05693V9.06084V9.06473V9.06861V9.07249V9.07635V9.0802V9.08405V9.08788V9.0917V9.09551V9.09931V9.1031V9.10688V9.11064V9.1144V9.11815V9.12188V9.12561V9.12932V9.13302V9.13671V9.14039V9.14406V9.14772V9.15137V9.155V9.15862V9.16224V9.16584V9.16943V9.173V9.17657V9.18012V9.18367V9.1872V9.19072V9.19423V9.19772V9.20121V9.20468V9.20814V9.21158V9.21502V9.21844V9.22186V9.22525V9.22864V9.23202V9.23538V9.23873V9.24207V9.24539V9.2487V9.252V9.25529V9.25856V9.26183V9.26508V9.26831V9.27154C18.1224 10.7367 17.579 11.7059 17.0263 12.3088C16.7497 12.6107 16.4704 12.8211 16.2551 12.9558C16.1475 13.0232 16.0561 13.0715 15.9894 13.1028C15.956 13.1184 15.9291 13.1297 15.9097 13.1369C15.9 13.1405 15.8926 13.1429 15.8875 13.1443C15.8872 13.1444 15.8869 13.1445 15.8866 13.1446C15.8862 13.1445 15.8858 13.1444 15.8854 13.1442C15.8799 13.1427 15.8721 13.1403 15.8618 13.1366C15.8412 13.1293 15.8126 13.118 15.7769 13.1023C15.7058 13.0709 15.6079 13.0225 15.4924 12.955C15.2613 12.8201 14.9607 12.6095 14.6627 12.3075C14.0673 11.7043 13.4812 10.7355 13.4812 9.27154Z" fill="white"/>
<path d="M13.4812 9.27154V6.99531H18.1224V6.9968V7.00083V7.00487V7.00892V7.01298V7.01704V7.02112V7.02521V7.0293V7.03341V7.03752V7.04164V7.04578V7.04992V7.05407V7.05823V7.0624V7.06658V7.07076V7.07496V7.07916V7.08338V7.0876V7.09183V7.09607V7.10032V7.10457V7.10884V7.11311V7.11739V7.12168V7.12598V7.13029V7.1346V7.13892V7.14325V7.14759V7.15194V7.15629V7.16066V7.16503V7.16941V7.17379V7.17819V7.18259V7.187V7.19142V7.19584V7.20027V7.20471V7.20916V7.21362V7.21808V7.22255V7.22702V7.23151V7.236V7.2405V7.245V7.24951V7.25403V7.25856V7.26309V7.26763V7.27218V7.27673V7.28129V7.28586V7.29043V7.29501V7.2996V7.30419V7.30879V7.3134V7.31801V7.32263V7.32726V7.33189V7.33652V7.34117V7.34582V7.35047V7.35513V7.3598V7.36447V7.36915V7.37384V7.37853V7.38323V7.38793V7.39264V7.39735V7.40207V7.40679V7.41152V7.41626V7.421V7.42575V7.4305V7.43525V7.44002V7.44478V7.44956V7.45433V7.45911V7.4639V7.46869V7.47349V7.47829V7.4831V7.48791V7.49273V7.49755V7.50237V7.5072V7.51204V7.51687V7.52172V7.52656V7.53142V7.53627V7.54113V7.546V7.55086V7.55574V7.56061V7.5655V7.57038V7.57527V7.58016V7.58506V7.58996V7.59486V7.59977V7.60468V7.60959V7.61451V7.61943V7.62436V7.62929V7.63422V7.63916V7.64409V7.64904V7.65398V7.65893V7.66388V7.66884V7.67379V7.67875V7.68372V7.68868V7.69365V7.69862V7.7036V7.70858V7.71356V7.71854V7.72352V7.72851V7.7335V7.73849V7.74349V7.74849V7.75349V7.75849V7.76349V7.7685V7.77351V7.77852V7.78353V7.78854V7.79356V7.79858V7.8036V7.80862V7.81364V7.81867V7.82369V7.82872V7.83375V7.83878V7.84382V7.84885V7.85389V7.85893V7.86396V7.869V7.87404V7.87909V7.88413V7.88917V7.89422V7.89927V7.90431V7.90936V7.91441V7.91946V7.92451V7.92956V7.93461V7.93967V7.94472V7.94977V7.95483V7.95988V7.96494V7.96999V7.97505V7.9801V7.98516V7.99022V7.99527V8.00033V8.00538V8.01044V8.0155V8.02055V8.02561V8.03067V8.03572V8.04078V8.04583V8.05089V8.05594V8.06099V8.06605V8.0711V8.07615V8.0812V8.08626V8.09131V8.09635V8.1014V8.10645V8.1115V8.11654V8.12159V8.12663V8.13167V8.13672V8.14176V8.14679V8.15183V8.15687V8.1619V8.16694V8.17197V8.177V8.18203V8.18706V8.19208V8.19711V8.20213V8.20715V8.21217V8.21719V8.2222V8.22721V8.23222V8.23723V8.24224V8.24725V8.25225V8.25725V8.26225V8.26724V8.27224V8.27723V8.28222V8.2872V8.29219V8.29717V8.30214V8.30712V8.31209V8.31706V8.32203V8.32699V8.33196V8.33691V8.34187V8.34682V8.35177V8.35672V8.36166V8.3666V8.37154V8.37647V8.3814V8.38633V8.39125V8.39617V8.40109V8.406V8.41091V8.41581V8.42072V8.42561V8.43051V8.4354V8.44028V8.44517V8.45004V8.45492V8.45979V8.46465V8.46952V8.47437V8.47923V8.48408V8.48892V8.49376V8.4986V8.50343V8.50825V8.51308V8.51789V8.52271V8.52752V8.53232V8.53712V8.54191V8.5467V8.55148V8.55626V8.56104V8.56581V8.57057V8.57533V8.58008V8.58483V8.58957V8.59431V8.59904V8.60377V8.60849V8.61321V8.61792V8.62262V8.62732V8.63201V8.6367V8.64138V8.64606V8.65073V8.65539V8.66005V8.6647V8.66935V8.67399V8.67862V8.68325V8.68787V8.69248V8.69709V8.70169V8.70629V8.71088V8.71546V8.72004V8.72461V8.72917V8.73372V8.73827V8.74282V8.74735V8.75188V8.7564V8.76092V8.76542V8.76993V8.77442V8.77891V8.78339V8.78786V8.79232V8.79678V8.80123V8.80567V8.81011V8.81454V8.81896V8.82337V8.82777V8.83217V8.83656V8.84094V8.84531V8.84968V8.85404V8.85839V8.86273V8.86706V8.87139V8.87571V8.88002V8.88432V8.88861V8.8929V8.89717V8.90144V8.9057V8.90995V8.91419V8.91843V8.92265V8.92687V8.93108V8.93527V8.93946V8.94365V8.94782V8.95198V8.95614V8.96028V8.96442V8.96854V8.97266V8.97677V8.98087V8.98496V8.98904V8.99311V8.99717V9.00123V9.00527V9.0093V9.01332V9.01734V9.02134V9.02534V9.02932V9.0333V9.03726V9.04121V9.04516V9.04909V9.05302V9.05693V9.06084V9.06473V9.06861V9.07249V9.07635V9.0802V9.08405V9.08788V9.0917V9.09551V9.09931V9.1031V9.10688V9.11064V9.1144V9.11815V9.12188V9.12561V9.12932V9.13302V9.13671V9.14039V9.14406V9.14772V9.15137V9.155V9.15862V9.16224V9.16584V9.16943V9.173V9.17657V9.18012V9.18367V9.1872V9.19072V9.19423V9.19772V9.20121V9.20468V9.20814V9.21158V9.21502V9.21844V9.22186V9.22525V9.22864V9.23202V9.23538V9.23873V9.24207V9.24539V9.2487V9.252V9.25529V9.25856V9.26183V9.26508V9.26831V9.27154C18.1224 10.7367 17.579 11.7059 17.0263 12.3088C16.7497 12.6107 16.4704 12.8211 16.2551 12.9558C16.1475 13.0232 16.0561 13.0715 15.9894 13.1028C15.956 13.1184 15.9291 13.1297 15.9097 13.1369C15.9 13.1405 15.8926 13.1429 15.8875 13.1443C15.8872 13.1444 15.8869 13.1445 15.8866 13.1446C15.8862 13.1445 15.8858 13.1444 15.8854 13.1442C15.8799 13.1427 15.8721 13.1403 15.8618 13.1366C15.8412 13.1293 15.8126 13.118 15.7769 13.1023C15.7058 13.0709 15.6079 13.0225 15.4924 12.955C15.2613 12.8201 14.9607 12.6095 14.6627 12.3075C14.0673 11.7043 13.4812 10.7355 13.4812 9.27154Z" stroke="#0B50A0" stroke-width="0.1"/>
<path d="M13.4812 9.27154V6.99531H18.1224V6.9968V7.00083V7.00487V7.00892V7.01298V7.01704V7.02112V7.02521V7.0293V7.03341V7.03752V7.04164V7.04578V7.04992V7.05407V7.05823V7.0624V7.06658V7.07076V7.07496V7.07916V7.08338V7.0876V7.09183V7.09607V7.10032V7.10457V7.10884V7.11311V7.11739V7.12168V7.12598V7.13029V7.1346V7.13892V7.14325V7.14759V7.15194V7.15629V7.16066V7.16503V7.16941V7.17379V7.17819V7.18259V7.187V7.19142V7.19584V7.20027V7.20471V7.20916V7.21362V7.21808V7.22255V7.22702V7.23151V7.236V7.2405V7.245V7.24951V7.25403V7.25856V7.26309V7.26763V7.27218V7.27673V7.28129V7.28586V7.29043V7.29501V7.2996V7.30419V7.30879V7.3134V7.31801V7.32263V7.32726V7.33189V7.33652V7.34117V7.34582V7.35047V7.35513V7.3598V7.36447V7.36915V7.37384V7.37853V7.38323V7.38793V7.39264V7.39735V7.40207V7.40679V7.41152V7.41626V7.421V7.42575V7.4305V7.43525V7.44002V7.44478V7.44956V7.45433V7.45911V7.4639V7.46869V7.47349V7.47829V7.4831V7.48791V7.49273V7.49755V7.50237V7.5072V7.51204V7.51687V7.52172V7.52656V7.53142V7.53627V7.54113V7.546V7.55086V7.55574V7.56061V7.5655V7.57038V7.57527V7.58016V7.58506V7.58996V7.59486V7.59977V7.60468V7.60959V7.61451V7.61943V7.62436V7.62929V7.63422V7.63916V7.64409V7.64904V7.65398V7.65893V7.66388V7.66884V7.67379V7.67875V7.68372V7.68868V7.69365V7.69862V7.7036V7.70858V7.71356V7.71854V7.72352V7.72851V7.7335V7.73849V7.74349V7.74849V7.75349V7.75849V7.76349V7.7685V7.77351V7.77852V7.78353V7.78854V7.79356V7.79858V7.8036V7.80862V7.81364V7.81867V7.82369V7.82872V7.83375V7.83878V7.84382V7.84885V7.85389V7.85893V7.86396V7.869V7.87404V7.87909V7.88413V7.88917V7.89422V7.89927V7.90431V7.90936V7.91441V7.91946V7.92451V7.92956V7.93461V7.93967V7.94472V7.94977V7.95483V7.95988V7.96494V7.96999V7.97505V7.9801V7.98516V7.99022V7.99527V8.00033V8.00538V8.01044V8.0155V8.02055V8.02561V8.03067V8.03572V8.04078V8.04583V8.05089V8.05594V8.06099V8.06605V8.0711V8.07615V8.0812V8.08626V8.09131V8.09635V8.1014V8.10645V8.1115V8.11654V8.12159V8.12663V8.13167V8.13672V8.14176V8.14679V8.15183V8.15687V8.1619V8.16694V8.17197V8.177V8.18203V8.18706V8.19208V8.19711V8.20213V8.20715V8.21217V8.21719V8.2222V8.22721V8.23222V8.23723V8.24224V8.24725V8.25225V8.25725V8.26225V8.26724V8.27224V8.27723V8.28222V8.2872V8.29219V8.29717V8.30214V8.30712V8.31209V8.31706V8.32203V8.32699V8.33196V8.33691V8.34187V8.34682V8.35177V8.35672V8.36166V8.3666V8.37154V8.37647V8.3814V8.38633V8.39125V8.39617V8.40109V8.406V8.41091V8.41581V8.42072V8.42561V8.43051V8.4354V8.44028V8.44517V8.45004V8.45492V8.45979V8.46465V8.46952V8.47437V8.47923V8.48408V8.48892V8.49376V8.4986V8.50343V8.50825V8.51308V8.51789V8.52271V8.52752V8.53232V8.53712V8.54191V8.5467V8.55148V8.55626V8.56104V8.56581V8.57057V8.57533V8.58008V8.58483V8.58957V8.59431V8.59904V8.60377V8.60849V8.61321V8.61792V8.62262V8.62732V8.63201V8.6367V8.64138V8.64606V8.65073V8.65539V8.66005V8.6647V8.66935V8.67399V8.67862V8.68325V8.68787V8.69248V8.69709V8.70169V8.70629V8.71088V8.71546V8.72004V8.72461V8.72917V8.73372V8.73827V8.74282V8.74735V8.75188V8.7564V8.76092V8.76542V8.76993V8.77442V8.77891V8.78339V8.78786V8.79232V8.79678V8.80123V8.80567V8.81011V8.81454V8.81896V8.82337V8.82777V8.83217V8.83656V8.84094V8.84531V8.84968V8.85404V8.85839V8.86273V8.86706V8.87139V8.87571V8.88002V8.88432V8.88861V8.8929V8.89717V8.90144V8.9057V8.90995V8.91419V8.91843V8.92265V8.92687V8.93108V8.93527V8.93946V8.94365V8.94782V8.95198V8.95614V8.96028V8.96442V8.96854V8.97266V8.97677V8.98087V8.98496V8.98904V8.99311V8.99717V9.00123V9.00527V9.0093V9.01332V9.01734V9.02134V9.02534V9.02932V9.0333V9.03726V9.04121V9.04516V9.04909V9.05302V9.05693V9.06084V9.06473V9.06861V9.07249V9.07635V9.0802V9.08405V9.08788V9.0917V9.09551V9.09931V9.1031V9.10688V9.11064V9.1144V9.11815V9.12188V9.12561V9.12932V9.13302V9.13671V9.14039V9.14406V9.14772V9.15137V9.155V9.15862V9.16224V9.16584V9.16943V9.173V9.17657V9.18012V9.18367V9.1872V9.19072V9.19423V9.19772V9.20121V9.20468V9.20814V9.21158V9.21502V9.21844V9.22186V9.22525V9.22864V9.23202V9.23538V9.23873V9.24207V9.24539V9.2487V9.252V9.25529V9.25856V9.26183V9.26508V9.26831V9.27154C18.1224 10.7367 17.579 11.7059 17.0263 12.3088C16.7497 12.6107 16.4704 12.8211 16.2551 12.9558C16.1475 13.0232 16.0561 13.0715 15.9894 13.1028C15.956 13.1184 15.9291 13.1297 15.9097 13.1369C15.9 13.1405 15.8926 13.1429 15.8875 13.1443C15.8872 13.1444 15.8869 13.1445 15.8866 13.1446C15.8862 13.1445 15.8858 13.1444 15.8854 13.1442C15.8799 13.1427 15.8721 13.1403 15.8618 13.1366C15.8412 13.1293 15.8126 13.118 15.7769 13.1023C15.7058 13.0709 15.6079 13.0225 15.4924 12.955C15.2613 12.8201 14.9607 12.6095 14.6627 12.3075C14.0673 11.7043 13.4812 10.7355 13.4812 9.27154Z" stroke="#F7FCFF" stroke-width="0.1"/>
<mask id="mask0_85465_14250" style="mask-type:luminance" maskUnits="userSpaceOnUse" x="13" y="6" width="6" height="8">
<path d="M13.4812 9.27154V6.99531H18.1224V6.9968V7.00083V7.00487V7.00892V7.01298V7.01704V7.02112V7.02521V7.0293V7.03341V7.03752V7.04164V7.04578V7.04992V7.05407V7.05823V7.0624V7.06658V7.07076V7.07496V7.07916V7.08338V7.0876V7.09183V7.09607V7.10032V7.10457V7.10884V7.11311V7.11739V7.12168V7.12598V7.13029V7.1346V7.13892V7.14325V7.14759V7.15194V7.15629V7.16066V7.16503V7.16941V7.17379V7.17819V7.18259V7.187V7.19142V7.19584V7.20027V7.20471V7.20916V7.21362V7.21808V7.22255V7.22702V7.23151V7.236V7.2405V7.245V7.24951V7.25403V7.25856V7.26309V7.26763V7.27218V7.27673V7.28129V7.28586V7.29043V7.29501V7.2996V7.30419V7.30879V7.3134V7.31801V7.32263V7.32726V7.33189V7.33652V7.34117V7.34582V7.35047V7.35513V7.3598V7.36447V7.36915V7.37384V7.37853V7.38323V7.38793V7.39264V7.39735V7.40207V7.40679V7.41152V7.41626V7.421V7.42575V7.4305V7.43525V7.44002V7.44478V7.44956V7.45433V7.45911V7.4639V7.46869V7.47349V7.47829V7.4831V7.48791V7.49273V7.49755V7.50237V7.5072V7.51204V7.51687V7.52172V7.52656V7.53142V7.53627V7.54113V7.546V7.55086V7.55574V7.56061V7.5655V7.57038V7.57527V7.58016V7.58506V7.58996V7.59486V7.59977V7.60468V7.60959V7.61451V7.61943V7.62436V7.62929V7.63422V7.63916V7.64409V7.64904V7.65398V7.65893V7.66388V7.66884V7.67379V7.67875V7.68372V7.68868V7.69365V7.69862V7.7036V7.70858V7.71356V7.71854V7.72352V7.72851V7.7335V7.73849V7.74349V7.74849V7.75349V7.75849V7.76349V7.7685V7.77351V7.77852V7.78353V7.78854V7.79356V7.79858V7.8036V7.80862V7.81364V7.81867V7.82369V7.82872V7.83375V7.83878V7.84382V7.84885V7.85389V7.85893V7.86396V7.869V7.87404V7.87909V7.88413V7.88917V7.89422V7.89927V7.90431V7.90936V7.91441V7.91946V7.92451V7.92956V7.93461V7.93967V7.94472V7.94977V7.95483V7.95988V7.96494V7.96999V7.97505V7.9801V7.98516V7.99022V7.99527V8.00033V8.00538V8.01044V8.0155V8.02055V8.02561V8.03067V8.03572V8.04078V8.04583V8.05089V8.05594V8.06099V8.06605V8.0711V8.07615V8.0812V8.08626V8.09131V8.09635V8.1014V8.10645V8.1115V8.11654V8.12159V8.12663V8.13167V8.13672V8.14176V8.14679V8.15183V8.15687V8.1619V8.16694V8.17197V8.177V8.18203V8.18706V8.19208V8.19711V8.20213V8.20715V8.21217V8.21719V8.2222V8.22721V8.23222V8.23723V8.24224V8.24725V8.25225V8.25725V8.26225V8.26724V8.27224V8.27723V8.28222V8.2872V8.29219V8.29717V8.30214V8.30712V8.31209V8.31706V8.32203V8.32699V8.33196V8.33691V8.34187V8.34682V8.35177V8.35672V8.36166V8.3666V8.37154V8.37647V8.3814V8.38633V8.39125V8.39617V8.40109V8.406V8.41091V8.41581V8.42072V8.42561V8.43051V8.4354V8.44028V8.44517V8.45004V8.45492V8.45979V8.46465V8.46952V8.47437V8.47923V8.48408V8.48892V8.49376V8.4986V8.50343V8.50825V8.51308V8.51789V8.52271V8.52752V8.53232V8.53712V8.54191V8.5467V8.55148V8.55626V8.56104V8.56581V8.57057V8.57533V8.58008V8.58483V8.58957V8.59431V8.59904V8.60377V8.60849V8.61321V8.61792V8.62262V8.62732V8.63201V8.6367V8.64138V8.64606V8.65073V8.65539V8.66005V8.6647V8.66935V8.67399V8.67862V8.68325V8.68787V8.69248V8.69709V8.70169V8.70629V8.71088V8.71546V8.72004V8.72461V8.72917V8.73372V8.73827V8.74282V8.74735V8.75188V8.7564V8.76092V8.76542V8.76993V8.77442V8.77891V8.78339V8.78786V8.79232V8.79678V8.80123V8.80567V8.81011V8.81454V8.81896V8.82337V8.82777V8.83217V8.83656V8.84094V8.84531V8.84968V8.85404V8.85839V8.86273V8.86706V8.87139V8.87571V8.88002V8.88432V8.88861V8.8929V8.89717V8.90144V8.9057V8.90995V8.91419V8.91843V8.92265V8.92687V8.93108V8.93527V8.93946V8.94365V8.94782V8.95198V8.95614V8.96028V8.96442V8.96854V8.97266V8.97677V8.98087V8.98496V8.98904V8.99311V8.99717V9.00123V9.00527V9.0093V9.01332V9.01734V9.02134V9.02534V9.02932V9.0333V9.03726V9.04121V9.04516V9.04909V9.05302V9.05693V9.06084V9.06473V9.06861V9.07249V9.07635V9.0802V9.08405V9.08788V9.0917V9.09551V9.09931V9.1031V9.10688V9.11064V9.1144V9.11815V9.12188V9.12561V9.12932V9.13302V9.13671V9.14039V9.14406V9.14772V9.15137V9.155V9.15862V9.16224V9.16584V9.16943V9.173V9.17657V9.18012V9.18367V9.1872V9.19072V9.19423V9.19772V9.20121V9.20468V9.20814V9.21158V9.21502V9.21844V9.22186V9.22525V9.22864V9.23202V9.23538V9.23873V9.24207V9.24539V9.2487V9.252V9.25529V9.25856V9.26183V9.26508V9.26831V9.27154C18.1224 10.7367 17.579 11.7059 17.0263 12.3088C16.7497 12.6107 16.4704 12.8211 16.2551 12.9558C16.1475 13.0232 16.0561 13.0715 15.9894 13.1028C15.956 13.1184 15.9291 13.1297 15.9097 13.1369C15.9 13.1405 15.8926 13.1429 15.8875 13.1443C15.8872 13.1444 15.8869 13.1445 15.8866 13.1446C15.8862 13.1445 15.8858 13.1444 15.8854 13.1442C15.8799 13.1427 15.8721 13.1403 15.8618 13.1366C15.8412 13.1293 15.8126 13.118 15.7769 13.1023C15.7058 13.0709 15.6079 13.0225 15.4924 12.955C15.2613 12.8201 14.9607 12.6095 14.6627 12.3075C14.0673 11.7043 13.4812 10.7355 13.4812 9.27154Z" fill="white"/>
<path d="M13.4812 9.27154V6.99531H18.1224V6.9968V7.00083V7.00487V7.00892V7.01298V7.01704V7.02112V7.02521V7.0293V7.03341V7.03752V7.04164V7.04578V7.04992V7.05407V7.05823V7.0624V7.06658V7.07076V7.07496V7.07916V7.08338V7.0876V7.09183V7.09607V7.10032V7.10457V7.10884V7.11311V7.11739V7.12168V7.12598V7.13029V7.1346V7.13892V7.14325V7.14759V7.15194V7.15629V7.16066V7.16503V7.16941V7.17379V7.17819V7.18259V7.187V7.19142V7.19584V7.20027V7.20471V7.20916V7.21362V7.21808V7.22255V7.22702V7.23151V7.236V7.2405V7.245V7.24951V7.25403V7.25856V7.26309V7.26763V7.27218V7.27673V7.28129V7.28586V7.29043V7.29501V7.2996V7.30419V7.30879V7.3134V7.31801V7.32263V7.32726V7.33189V7.33652V7.34117V7.34582V7.35047V7.35513V7.3598V7.36447V7.36915V7.37384V7.37853V7.38323V7.38793V7.39264V7.39735V7.40207V7.40679V7.41152V7.41626V7.421V7.42575V7.4305V7.43525V7.44002V7.44478V7.44956V7.45433V7.45911V7.4639V7.46869V7.47349V7.47829V7.4831V7.48791V7.49273V7.49755V7.50237V7.5072V7.51204V7.51687V7.52172V7.52656V7.53142V7.53627V7.54113V7.546V7.55086V7.55574V7.56061V7.5655V7.57038V7.57527V7.58016V7.58506V7.58996V7.59486V7.59977V7.60468V7.60959V7.61451V7.61943V7.62436V7.62929V7.63422V7.63916V7.64409V7.64904V7.65398V7.65893V7.66388V7.66884V7.67379V7.67875V7.68372V7.68868V7.69365V7.69862V7.7036V7.70858V7.71356V7.71854V7.72352V7.72851V7.7335V7.73849V7.74349V7.74849V7.75349V7.75849V7.76349V7.7685V7.77351V7.77852V7.78353V7.78854V7.79356V7.79858V7.8036V7.80862V7.81364V7.81867V7.82369V7.82872V7.83375V7.83878V7.84382V7.84885V7.85389V7.85893V7.86396V7.869V7.87404V7.87909V7.88413V7.88917V7.89422V7.89927V7.90431V7.90936V7.91441V7.91946V7.92451V7.92956V7.93461V7.93967V7.94472V7.94977V7.95483V7.95988V7.96494V7.96999V7.97505V7.9801V7.98516V7.99022V7.99527V8.00033V8.00538V8.01044V8.0155V8.02055V8.02561V8.03067V8.03572V8.04078V8.04583V8.05089V8.05594V8.06099V8.06605V8.0711V8.07615V8.0812V8.08626V8.09131V8.09635V8.1014V8.10645V8.1115V8.11654V8.12159V8.12663V8.13167V8.13672V8.14176V8.14679V8.15183V8.15687V8.1619V8.16694V8.17197V8.177V8.18203V8.18706V8.19208V8.19711V8.20213V8.20715V8.21217V8.21719V8.2222V8.22721V8.23222V8.23723V8.24224V8.24725V8.25225V8.25725V8.26225V8.26724V8.27224V8.27723V8.28222V8.2872V8.29219V8.29717V8.30214V8.30712V8.31209V8.31706V8.32203V8.32699V8.33196V8.33691V8.34187V8.34682V8.35177V8.35672V8.36166V8.3666V8.37154V8.37647V8.3814V8.38633V8.39125V8.39617V8.40109V8.406V8.41091V8.41581V8.42072V8.42561V8.43051V8.4354V8.44028V8.44517V8.45004V8.45492V8.45979V8.46465V8.46952V8.47437V8.47923V8.48408V8.48892V8.49376V8.4986V8.50343V8.50825V8.51308V8.51789V8.52271V8.52752V8.53232V8.53712V8.54191V8.5467V8.55148V8.55626V8.56104V8.56581V8.57057V8.57533V8.58008V8.58483V8.58957V8.59431V8.59904V8.60377V8.60849V8.61321V8.61792V8.62262V8.62732V8.63201V8.6367V8.64138V8.64606V8.65073V8.65539V8.66005V8.6647V8.66935V8.67399V8.67862V8.68325V8.68787V8.69248V8.69709V8.70169V8.70629V8.71088V8.71546V8.72004V8.72461V8.72917V8.73372V8.73827V8.74282V8.74735V8.75188V8.7564V8.76092V8.76542V8.76993V8.77442V8.77891V8.78339V8.78786V8.79232V8.79678V8.80123V8.80567V8.81011V8.81454V8.81896V8.82337V8.82777V8.83217V8.83656V8.84094V8.84531V8.84968V8.85404V8.85839V8.86273V8.86706V8.87139V8.87571V8.88002V8.88432V8.88861V8.8929V8.89717V8.90144V8.9057V8.90995V8.91419V8.91843V8.92265V8.92687V8.93108V8.93527V8.93946V8.94365V8.94782V8.95198V8.95614V8.96028V8.96442V8.96854V8.97266V8.97677V8.98087V8.98496V8.98904V8.99311V8.99717V9.00123V9.00527V9.0093V9.01332V9.01734V9.02134V9.02534V9.02932V9.0333V9.03726V9.04121V9.04516V9.04909V9.05302V9.05693V9.06084V9.06473V9.06861V9.07249V9.07635V9.0802V9.08405V9.08788V9.0917V9.09551V9.09931V9.1031V9.10688V9.11064V9.1144V9.11815V9.12188V9.12561V9.12932V9.13302V9.13671V9.14039V9.14406V9.14772V9.15137V9.155V9.15862V9.16224V9.16584V9.16943V9.173V9.17657V9.18012V9.18367V9.1872V9.19072V9.19423V9.19772V9.20121V9.20468V9.20814V9.21158V9.21502V9.21844V9.22186V9.22525V9.22864V9.23202V9.23538V9.23873V9.24207V9.24539V9.2487V9.252V9.25529V9.25856V9.26183V9.26508V9.26831V9.27154C18.1224 10.7367 17.579 11.7059 17.0263 12.3088C16.7497 12.6107 16.4704 12.8211 16.2551 12.9558C16.1475 13.0232 16.0561 13.0715 15.9894 13.1028C15.956 13.1184 15.9291 13.1297 15.9097 13.1369C15.9 13.1405 15.8926 13.1429 15.8875 13.1443C15.8872 13.1444 15.8869 13.1445 15.8866 13.1446C15.8862 13.1445 15.8858 13.1444 15.8854 13.1442C15.8799 13.1427 15.8721 13.1403 15.8618 13.1366C15.8412 13.1293 15.8126 13.118 15.7769 13.1023C15.7058 13.0709 15.6079 13.0225 15.4924 12.955C15.2613 12.8201 14.9607 12.6095 14.6627 12.3075C14.0673 11.7043 13.4812 10.7355 13.4812 9.27154Z" stroke="white" stroke-width="0.1"/>
</mask>
<g mask="url(#mask0_85465_14250)">
<rect x="13.1265" y="6.63281" width="5.4" height="2.125" fill="#F50100"/>
<path d="M15.5336 9.19531C15.7064 9.19531 16.052 8.9994 16.1384 8.95419C16.4552 8.75828 16.6856 8.93912 16.8728 9.02954C17.0744 9.11996 17.4488 9.22545 17.6792 9.02954C17.9096 8.83363 18.0392 8.8487 18.1976 8.8487C18.2264 8.62265 18.2264 8.39659 18.2264 8.1404V7.95956C18.0248 7.91435 17.924 7.97463 17.708 8.17054C17.492 8.36645 17.2472 8.32124 16.9304 8.20068C16.628 8.06505 16.3256 7.82393 16.0232 8.20068C15.9368 8.30617 15.7352 8.45687 15.5336 8.45687C15.3176 8.45687 15.1304 8.30617 15.044 8.20068C14.7272 7.82393 14.4392 8.06505 14.1368 8.20068C13.82 8.32124 13.5608 8.36645 13.3448 8.17054C13.1432 7.97463 13.0424 7.91435 12.8264 7.95956V8.1404C12.8264 8.39659 12.8408 8.62265 12.8696 8.8487C13.028 8.8487 13.1432 8.83363 13.3736 9.02954C13.604 9.22545 13.9928 9.11996 14.18 9.02954C14.3816 8.93912 14.612 8.75828 14.9288 8.95419C15.0152 8.9994 15.3464 9.19531 15.5336 9.19531H15.5336Z" fill="#F50100"/>
<path fill-rule="evenodd" clip-rule="evenodd" d="M14.0768 7.60091C14.0768 7.60091 14.207 7.60719 14.3611 7.77291C14.5152 7.93864 15.0823 7.83316 15.0823 7.73319C15.0823 7.63322 14.7382 7.5735 14.8704 7.40256C15.0026 7.23162 15.2266 7.23132 15.4066 7.32037C15.4582 7.32037 15.4525 7.90509 15.5703 7.873C15.9434 7.77134 16.5453 7.56992 16.7218 7.65634C16.954 7.77004 17.1318 7.74176 17.0727 7.57862C17.0137 7.41548 16.862 7.31351 16.5698 7.40256C16.2776 7.49161 16.3465 7.57862 16.094 7.57862C15.8415 7.57862 15.4082 7.72093 15.6006 7.40256C15.7731 7.11727 15.9787 7.11169 16.0572 7.23162C16.0974 7.29298 15.7698 7.42847 15.7698 7.49161C15.7698 7.57862 16.6136 7.32049 16.7218 7.32049C16.8299 7.32049 17.1276 7.31351 17.1571 7.40256C17.1866 7.49161 17.3663 7.57332 17.2293 7.65634C17.0923 7.73935 16.8664 7.79135 17.0219 7.89771C17.1773 8.00407 17.5712 8.05244 17.5884 8.16308C17.6056 8.27371 17.775 8.43892 17.707 8.43892C17.639 8.43892 17.5162 8.59473 17.4017 8.54729C17.2873 8.49985 17.2739 8.45819 17.3836 8.41976C17.4933 8.38132 17.4922 8.2197 17.4017 8.2197C17.3113 8.2197 17.319 8.20746 17.1129 8.15084C16.9069 8.09421 16.6342 8.03126 16.6506 8.15084C16.667 8.27041 16.8065 8.52706 16.559 8.55152C16.3115 8.57599 16.1957 8.6742 16.1475 8.59511C16.0994 8.51602 15.9272 8.41063 16.0626 8.37683C16.198 8.34304 16.3273 8.4917 16.3761 8.46743C16.4249 8.44315 16.53 8.35654 16.4375 8.25369C16.3449 8.15084 16.1651 8.14735 16.3066 8.07037C16.4481 7.99338 16.3636 7.93473 16.094 8.09421C15.8244 8.25369 15.6745 8.38922 15.4378 8.37006C15.2011 8.35089 15.0949 8.43859 15.0188 8.41273C14.9428 8.38688 14.5723 8.69837 14.4656 8.61932C14.3589 8.54027 14.0144 8.50994 14.0764 8.41273C14.1385 8.31553 14.2217 8.26549 14.3144 8.31553C14.4071 8.36558 14.4993 8.41562 14.5618 8.36558C14.6243 8.31553 14.8224 8.08196 14.777 8.04763C14.7316 8.0133 14.5716 7.95451 14.3144 7.95451C14.0573 7.95451 14.0513 7.77653 13.9903 7.69537C13.9292 7.6142 14.0768 7.60091 14.0768 7.60091Z" fill="#FFD100"/>
<path d="M15.5336 10.6953C15.7064 10.6953 16.052 10.4994 16.1384 10.4542C16.4552 10.2583 16.6856 10.4391 16.8728 10.5295C17.0744 10.62 17.4488 10.7255 17.6792 10.5295C17.9096 10.3336 18.0392 10.3487 18.1976 10.3487C18.2264 10.1226 18.2264 9.89659 18.2264 9.6404V9.45956C18.0248 9.41435 17.924 9.47463 17.708 9.67054C17.492 9.86645 17.2472 9.82124 16.9304 9.70068C16.628 9.56505 16.3256 9.32393 16.0232 9.70068C15.9368 9.80617 15.7352 9.95687 15.5336 9.95687C15.3176 9.95687 15.1304 9.80617 15.044 9.70068C14.7272 9.32393 14.4392 9.56505 14.1368 9.70068C13.82 9.82124 13.5608 9.86645 13.3448 9.67054C13.1432 9.47463 13.0424 9.41435 12.8264 9.45956V9.6404C12.8264 9.89659 12.8408 10.1226 12.8696 10.3487C13.028 10.3487 13.1432 10.3336 13.3736 10.5295C13.604 10.7255 13.9928 10.62 14.18 10.5295C14.3816 10.4391 14.612 10.2583 14.9288 10.4542C15.0152 10.4994 15.3464 10.6953 15.5336 10.6953H15.5336Z" fill="#0B50A0"/>
<path d="M15.5336 12.1328C15.7064 12.1328 16.052 11.9369 16.1384 11.8917C16.4552 11.6958 16.6856 11.8766 16.8728 11.967C17.0744 12.0575 17.4488 12.163 17.6792 11.967C17.9096 11.7711 18.0392 11.7862 18.1976 11.7862C18.2264 11.5601 18.2264 11.3341 18.2264 11.0779V10.8971C18.0248 10.8519 17.924 10.9121 17.708 11.108C17.492 11.304 17.2472 11.2587 16.9304 11.1382C16.628 11.0026 16.3256 10.7614 16.0232 11.1382C15.9368 11.2437 15.7352 11.3944 15.5336 11.3944C15.3176 11.3944 15.1304 11.2437 15.044 11.1382C14.7272 10.7614 14.4392 11.0026 14.1368 11.1382C13.82 11.2587 13.5608 11.304 13.3448 11.108C13.1432 10.9121 13.0424 10.8519 12.8264 10.8971V11.0779C12.8264 11.3341 12.8408 11.5601 12.8696 11.7862C13.028 11.7862 13.1432 11.7711 13.3736 11.967C13.604 12.163 13.9928 12.0575 14.18 11.967C14.3816 11.8766 14.612 11.6958 14.9288 11.8917C15.0152 11.9369 15.3464 12.1328 15.5336 12.1328H15.5336Z" fill="#0B50A0"/>
<path d="M15.5336 13.5703C15.7064 13.5703 16.052 13.3744 16.1384 13.3292C16.4552 13.1333 16.6856 13.3141 16.8728 13.4045C17.0744 13.495 17.4488 13.6005 17.6792 13.4045C17.9096 13.2086 18.0392 13.2237 18.1976 13.2237C18.2264 12.9976 18.2264 12.7716 18.2264 12.5154V12.3346C18.0248 12.2894 17.924 12.3496 17.708 12.5455C17.492 12.7415 17.2472 12.6962 16.9304 12.5757C16.628 12.4401 16.3256 12.1989 16.0232 12.5757C15.9368 12.6812 15.7352 12.8319 15.5336 12.8319C15.3176 12.8319 15.1304 12.6812 15.044 12.5757C14.7272 12.1989 14.4392 12.4401 14.1368 12.5757C13.82 12.6962 13.5608 12.7415 13.3448 12.5455C13.1432 12.3496 13.0424 12.2894 12.8264 12.3346V12.5154C12.8264 12.7716 12.8408 12.9976 12.8696 13.2237C13.028 13.2237 13.1432 13.2086 13.3736 13.4045C13.604 13.6005 13.9928 13.495 14.18 13.4045C14.3816 13.3141 14.612 13.1333 14.9288 13.3292C15.0152 13.3744 15.3464 13.5703 15.5336 13.5703H15.5336Z" fill="#0B50A0"/>
<path d="M15.8713 11.6558L15.8466 11.6427L15.8225 11.657L15.5522 11.8172L15.6312 11.4842L15.6379 11.4558L15.6164 11.4359L15.3544 11.1938H15.6915H15.7263L15.7384 11.161L15.8511 10.8549L15.9843 11.1636L15.9974 11.1938H16.0302H16.3104L16.0789 11.4383L16.0582 11.4601L16.0677 11.4885L16.1779 11.8177L15.8713 11.6558Z" fill="#059334" stroke="#FFD100" stroke-width="0.1"/>
<path d="M14.6714 10.4058L14.6466 10.3927L14.6225 10.407L14.3523 10.5672L14.4312 10.2342L14.4379 10.2058L14.4165 10.1859L14.1544 9.94375H14.4915H14.5264L14.5384 9.91103L14.6511 9.60492L14.7844 9.91357L14.7974 9.94375H14.8303H15.1104L14.8789 10.1883L14.8583 10.2101L14.8678 10.2385L14.9779 10.5677L14.6714 10.4058Z" fill="#059334" stroke="#FFD100" stroke-width="0.1"/>
<path d="M17.0713 10.4058L17.0465 10.3927L17.0224 10.407L16.7522 10.5672L16.8311 10.2342L16.8378 10.2058L16.8164 10.1859L16.5543 9.94375H16.8914H16.9263L16.9383 9.91103L17.051 9.60492L17.1843 9.91357L17.1973 9.94375H17.2302H17.5103L17.2788 10.1883L17.2582 10.2101L17.2677 10.2385L17.3778 10.5677L17.0713 10.4058Z" fill="#059334" stroke="#FFD100" stroke-width="0.1"/>
</g>
</g>
<path d="M13.0286 12.9668C13.0837 13.0897 13.4787 13.2509 13.9381 13.0436C14.2504 12.8977 14.4525 12.6903 14.6454 12.3217C14.7006 12.2295 14.7281 12.1143 14.5995 12.0452C14.4984 11.9837 14.3331 11.9146 14.2596 11.8532C14.2229 11.8224 14.1861 11.7994 14.1585 11.7764C14.1769 11.7917 14.1953 11.8071 14.2137 11.8301C14.3974 12.0144 14.2045 12.2833 14.0024 12.4445C13.8554 12.5597 13.589 12.8439 13.2031 12.5751C13.1205 12.5137 12.9275 12.7671 13.0286 12.9668L13.0286 12.9668Z" fill="#FFD100"/>
<path d="M18.6141 12.9668C18.5497 13.0897 18.1547 13.2509 17.7046 13.0436C17.3922 12.8977 17.1901 12.6903 16.988 12.3217C16.9421 12.2295 16.9145 12.1143 17.0431 12.0452C17.1442 11.9837 17.3096 11.9146 17.383 11.8532C17.4198 11.8224 17.4473 11.7994 17.4841 11.7764C17.4657 11.7917 17.4473 11.8071 17.429 11.8301C17.2452 12.0144 17.4382 12.2833 17.6311 12.4445C17.7781 12.5597 18.0537 12.8439 18.4395 12.5751C18.5222 12.5137 18.7059 12.7671 18.6141 12.9668L18.6141 12.9668Z" fill="#FFD100"/>
<path d="M15.8213 13.6273C16.5563 13.6273 17.6862 13.3508 18.2925 12.3831C18.3936 12.2218 18.2925 12.1373 18.1731 12.0836C18.0445 12.0375 17.8883 11.93 17.8057 11.8608C17.9526 11.9837 17.9251 12.0682 17.824 12.2064C17.3555 12.8592 16.7124 13.1895 15.8214 13.1895C14.9302 13.1895 14.2872 12.8592 13.8187 12.2064C13.7176 12.0682 13.6901 11.9837 13.8279 11.8608C13.7544 11.93 13.589 12.0375 13.4604 12.0836C13.341 12.1373 13.2399 12.2218 13.341 12.3831C13.9473 13.3508 15.0864 13.6273 15.8214 13.6273H15.8213Z" fill="#FFD100"/>
<path d="M14.1217 12.3294C14.1034 12.2526 13.9839 12.2833 13.9472 12.3754C13.9013 12.3217 13.8553 12.2679 13.8186 12.2065C13.7083 12.0682 13.69 11.9761 13.8461 11.8455C13.9196 11.7841 14.0666 11.715 14.1677 11.7918C14.379 11.9377 14.2687 12.1758 14.1217 12.3294L14.1217 12.3294Z" fill="#F50100"/>
<path d="M17.5117 12.3294C17.5301 12.2526 17.6587 12.2833 17.6954 12.3754C17.7414 12.3217 17.7873 12.2679 17.824 12.2065C17.9343 12.0682 17.9527 11.9761 17.7873 11.8455C17.723 11.7841 17.576 11.715 17.4658 11.7918C17.2637 11.9377 17.3647 12.1758 17.5117 12.3294L17.5117 12.3294Z" fill="#F50100"/>
<path d="M14.8808 5.92305C14.8086 5.82038 14.6127 5.77474 14.5302 5.86601C14.4993 5.88883 14.458 5.88883 14.4271 5.90023C14.3755 5.90023 14.3097 5.92896 14.3303 6.04305C14.3858 6.04305 14.3858 6.07136 14.4168 6.07136C14.4374 6.05995 14.491 6.26922 14.5941 6.25781C14.7076 6.25781 14.8086 6.31093 14.8293 6.33375C14.8602 6.36798 14.9015 6.45924 14.8499 6.50488C14.7777 6.57333 14.7261 6.73304 14.8499 6.85853C14.984 6.97262 15.3243 7.14374 15.7059 6.8129C16.0771 6.49347 16.6546 6.676 16.6959 6.79008C16.7475 6.90417 16.7681 6.97262 16.7784 7.02966C16.7887 7.07529 17.0672 7.14374 17.1084 7.17797C17.16 7.21219 17.2322 7.20079 17.2115 7.09811C17.1703 6.77868 16.995 6.73304 16.9744 6.58474C17.0775 6.59614 17.1497 6.59614 17.1909 6.55051C17.2219 6.50488 17.2631 6.42502 17.3044 6.4022C17.3353 6.37939 17.3353 6.35657 17.294 6.36798C17.2425 6.37939 17.2115 6.4022 17.1187 6.39079C16.8992 6.36439 16.9535 5.499 16.2273 5.33065C15.7786 5.22663 15.219 5.94001 15.0656 6.01064C15.0622 6.01217 15.0591 6.0134 15.0562 6.01432C14.984 6.01432 14.9221 5.98009 14.8808 5.92305Z" fill="#059334"/>
</g>
<rect x="0.5" y="0.5" width="19" height="14" rx="0.5" stroke="black" stroke-opacity="0.1"/>
<defs>
<clipPath id="clip0_85465_14250">
<rect width="20" height="15" rx="1" fill="white"/>
</clipPath>
<clipPath id="clip1_85465_14250">
<rect width="11" height="9" fill="white"/>
</clipPath>
<clipPath id="clip2_85465_14250">
<rect width="5" height="7" fill="white" transform="translate(13.4265 6.94531)"/>
</clipPath>
</defs>
</svg>
