<svg width="20" height="15" viewBox="0 0 20 15" fill="none" xmlns="http://www.w3.org/2000/svg">
<g clip-path="url(#clip0_85465_14287)">
<rect width="20" height="15" rx="1" fill="white"/>
<path fill-rule="evenodd" clip-rule="evenodd" d="M0 0V15H20V0H0Z" fill="#4EC7EE"/>
<mask id="mask0_85465_14287" style="mask-type:luminance" maskUnits="userSpaceOnUse" x="0" y="0" width="20" height="15">
<path fill-rule="evenodd" clip-rule="evenodd" d="M0 0V15H20V0H0Z" fill="white"/>
</mask>
<g mask="url(#mask0_85465_14287)">
<path d="M2.55624 14.5232C2.51658 14.8169 2.70473 15.0261 3.02037 15.1608C3.4447 15.3418 3.87285 15.1723 4.26668 14.7359L3.7563 14.2753C3.58136 14.4692 3.45494 14.5438 3.35735 14.5426C3.54843 14.4061 3.79325 14.2375 4.09145 14.0373L4.23459 13.8299C4.34954 13.3368 3.99209 13.0696 3.44693 13.0696C3.12584 13.0696 2.86912 13.1332 2.70625 13.2697C2.43866 13.4941 2.48447 13.8522 2.76606 14.0386C2.7884 14.0533 2.81107 14.0666 2.83405 14.0785C2.67608 14.2119 2.57967 14.3496 2.55624 14.5232Z" fill="#FFE402"/>
<path d="M2.85303 14.0596C2.85303 14.0596 2.93102 13.8867 2.89202 13.7968" stroke="#FFE402" stroke-width="0.6875"/>
<path d="M5.35587 14.5232C5.39553 14.8169 5.20738 15.0261 4.89173 15.1608C4.46741 15.3418 4.03926 15.1723 3.64543 14.7359L4.15581 14.2753C4.33075 14.4692 4.45717 14.5438 4.55476 14.5426C4.36368 14.4061 4.11886 14.2375 3.82065 14.0373L3.67752 13.8299C3.56256 13.3368 3.92002 13.0696 4.46518 13.0696C4.78627 13.0696 5.04299 13.1332 5.20586 13.2697C5.47345 13.4941 5.42763 13.8522 5.14604 14.0386C5.12371 14.0533 5.10104 14.0666 5.07806 14.0785C5.23603 14.2119 5.33244 14.3496 5.35587 14.5232Z" fill="#FFE402"/>
<path d="M5.37231 13.9184L4.74565 14.2012C4.65769 14.0062 4.6314 13.8291 4.7046 13.6603L5.33537 13.9337C5.35658 13.8848 5.35629 13.8829 5.37231 13.9184Z" fill="#FFE402"/>
<path d="M2.55624 0.476844C2.51658 0.183094 2.70473 -0.0261357 3.02037 -0.160796C3.4447 -0.341822 3.87285 -0.172308 4.26668 0.264074L3.7563 0.724692C3.58136 0.530845 3.45494 0.456161 3.35735 0.45743C3.54843 0.593943 3.79325 0.762468 4.09145 0.962731L4.23459 1.17006C4.34954 1.66318 3.99209 1.93038 3.44693 1.93038C3.12584 1.93038 2.86912 1.86685 2.70625 1.73029C2.43866 1.50592 2.48447 1.14777 2.76606 0.961434C2.7884 0.946654 2.81107 0.933353 2.83405 0.921502C2.67608 0.7881 2.57967 0.650378 2.55624 0.476844Z" fill="#FFE402"/>
<path d="M5.35587 0.476844C5.39553 0.183094 5.20738 -0.0261357 4.89173 -0.160796C4.46741 -0.341822 4.03926 -0.172308 3.64543 0.264074L4.15581 0.724692C4.33075 0.530845 4.45717 0.456161 4.55476 0.45743C4.36368 0.593943 4.11886 0.762468 3.82065 0.962731L3.67752 1.17006C3.56256 1.66318 3.92002 1.93038 4.46518 1.93038C4.78627 1.93038 5.04299 1.86685 5.20586 1.73029C5.47345 1.50592 5.42763 1.14777 5.14604 0.961434C5.12371 0.946654 5.10104 0.933353 5.07806 0.921502C5.23603 0.7881 5.33244 0.650378 5.35587 0.476844Z" fill="#FFE402"/>
<path fill-rule="evenodd" clip-rule="evenodd" d="M3.18365 12.5392C2.78926 12.5506 2.54388 12.632 2.54388 13.0121C2.54388 13.4313 2.95115 13.5625 3.38446 13.5625C3.77697 13.5625 4.21917 13.3189 4.21917 12.8826C4.21917 12.6172 3.88169 12.0816 3.03192 10.9205C3.00247 10.8931 2.98625 10.8791 2.97326 10.879C3.02479 10.8503 3.11555 10.8167 3.2353 10.8167C3.27688 10.8167 3.3309 10.8378 3.38446 10.8647V11.32H4.28413V10.9763C4.28413 10.5879 3.71003 10.1292 3.2353 10.1292C2.82071 10.1292 2.48786 10.3264 2.31927 10.6102C2.15266 10.8906 2.28006 11.1597 2.51934 11.3738C2.87539 11.8649 3.15184 12.2714 3.32522 12.5385C3.26152 12.5379 3.22654 12.538 3.18365 12.5392ZM3.22591 12.8562C3.21343 12.8535 3.20143 12.8504 3.19022 12.8472C3.19857 12.8559 3.23138 12.895 3.23138 13.0121C3.23138 13.0759 3.22831 13.1207 3.22419 13.1522C3.1082 13.0499 3.07577 12.8715 3.16065 12.7342L3.16275 12.7308L3.14981 12.7051C3.15153 12.7042 3.15325 12.7033 3.15494 12.7025C3.17492 12.6922 3.19135 12.6837 3.16275 12.7308L3.22591 12.8562ZM3.19022 12.8472L3.1783 12.8435C3.17958 12.8439 3.18126 12.8447 3.18323 12.846L3.19022 12.8472ZM3.53167 12.8826C3.53167 12.8709 3.52768 12.8639 3.52078 12.8601L3.52478 12.8645C3.52935 12.8739 3.53167 12.88 3.53167 12.8826Z" fill="#FFE402"/>
<path fill-rule="evenodd" clip-rule="evenodd" d="M4.72846 12.5392C5.12285 12.5506 5.36823 12.632 5.36823 13.0121C5.36823 13.4313 4.96095 13.5625 4.52765 13.5625C4.13513 13.5625 3.69294 13.3189 3.69294 12.8826C3.69294 12.6172 4.03042 12.0816 4.88019 10.9205C4.90964 10.8931 4.92586 10.8791 4.93885 10.879C4.88731 10.8503 4.79656 10.8167 4.67681 10.8167C4.63523 10.8167 4.5812 10.8378 4.52765 10.8647V11.32H3.62798V10.9763C3.62798 10.5879 4.20208 10.1292 4.67681 10.1292C5.0914 10.1292 5.42425 10.3264 5.59284 10.6102C5.75945 10.8906 5.63204 11.1597 5.39277 11.3738C5.03672 11.8649 4.76027 12.2714 4.58689 12.5385C4.65059 12.5379 4.68556 12.538 4.72846 12.5392ZM4.6862 12.8562C4.69868 12.8535 4.71068 12.8504 4.72189 12.8472C4.71354 12.8559 4.68073 12.895 4.68073 13.0121C4.68073 13.0759 4.6838 13.1207 4.68792 13.1522C4.80391 13.0499 4.83634 12.8715 4.75146 12.7342L4.74936 12.7308L4.7623 12.7051C4.76058 12.7042 4.75886 12.7033 4.75717 12.7025C4.73719 12.6922 4.72076 12.6837 4.74936 12.7308L4.6862 12.8562ZM4.72189 12.8472L4.73381 12.8435C4.73253 12.8439 4.73085 12.8447 4.72888 12.846L4.72189 12.8472ZM4.38044 12.8826C4.38044 12.8709 4.38443 12.8639 4.39133 12.8601L4.38733 12.8645C4.38276 12.8739 4.38044 12.88 4.38044 12.8826Z" fill="#FFE402"/>
<path fill-rule="evenodd" clip-rule="evenodd" d="M3.18365 8.34649C2.78926 8.33514 2.54388 8.25379 2.54388 7.87361C2.54388 7.4544 2.95115 7.32324 3.38446 7.32324C3.77697 7.32324 4.21917 7.56686 4.21917 8.00314C4.21917 8.26856 3.88169 8.80416 3.03192 9.96522C3.00247 9.99265 2.98625 10.0066 2.97326 10.0067C3.02479 10.0354 3.11555 10.069 3.2353 10.069C3.27688 10.069 3.3309 10.048 3.38446 10.0211V9.5657H4.28413V9.90945C4.28413 10.2978 3.71003 10.7565 3.2353 10.7565C2.82071 10.7565 2.48786 10.5593 2.31927 10.2756C2.15266 9.99516 2.28006 9.726 2.51934 9.5119C2.87539 9.02084 3.15184 8.61436 3.32522 8.34728C3.26152 8.34781 3.22654 8.34773 3.18365 8.34649ZM3.22591 8.0295C3.21343 8.03228 3.20143 8.03531 3.19022 8.03857C3.19857 8.02981 3.23138 7.99069 3.23138 7.87361C3.23138 7.80987 3.22831 7.76503 3.22419 7.7335C3.1082 7.83582 3.07577 8.0142 3.16065 8.15151L3.16275 8.15494L3.14981 8.18065C3.15153 8.18151 3.15325 8.1824 3.15494 8.18327C3.17492 8.19356 3.19135 8.20202 3.16275 8.15494L3.22591 8.0295ZM3.19022 8.03857L3.1783 8.04221C3.17958 8.0418 3.18126 8.041 3.18323 8.03973L3.19022 8.03857ZM3.53167 8.00314C3.53167 8.01488 3.52768 8.02186 3.52078 8.0256L3.52478 8.02122C3.52935 8.01182 3.53167 8.00574 3.53167 8.00314Z" fill="#FFE402"/>
<path fill-rule="evenodd" clip-rule="evenodd" d="M4.72846 8.34649C5.12285 8.33514 5.36823 8.25379 5.36823 7.87361C5.36823 7.4544 4.96095 7.32324 4.52765 7.32324C4.13513 7.32324 3.69294 7.56686 3.69294 8.00314C3.69294 8.26856 4.03042 8.80416 4.88019 9.96522C4.90964 9.99265 4.92586 10.0066 4.93885 10.0067C4.88731 10.0354 4.79656 10.069 4.67681 10.069C4.63523 10.069 4.5812 10.048 4.52765 10.0211V9.5657H3.62798V9.90945C3.62798 10.2978 4.20208 10.7565 4.67681 10.7565C5.0914 10.7565 5.42425 10.5593 5.59284 10.2756C5.75945 9.99516 5.63204 9.726 5.39277 9.5119C5.03672 9.02084 4.76027 8.61436 4.58689 8.34728C4.65059 8.34781 4.68556 8.34773 4.72846 8.34649ZM4.6862 8.0295C4.69868 8.03228 4.71068 8.03531 4.72189 8.03857C4.71354 8.02981 4.68073 7.99069 4.68073 7.87361C4.68073 7.80987 4.6838 7.76503 4.68792 7.7335C4.80391 7.83582 4.83634 8.0142 4.75146 8.15151L4.74936 8.15494L4.7623 8.18065C4.76058 8.18151 4.75886 8.1824 4.75717 8.18327C4.73719 8.19356 4.72076 8.20202 4.74936 8.15494L4.6862 8.0295ZM4.72189 8.03857L4.73381 8.04221C4.73253 8.0418 4.73085 8.041 4.72888 8.03973L4.72189 8.03857ZM4.38044 8.00314C4.38044 8.01488 4.38443 8.02186 4.39133 8.0256L4.38733 8.02122C4.38276 8.01182 4.38044 8.00574 4.38044 8.00314Z" fill="#FFE402"/>
<path fill-rule="evenodd" clip-rule="evenodd" d="M3.18365 6.65302C2.78926 6.66437 2.54388 6.74572 2.54388 7.1259C2.54388 7.54511 2.95115 7.67627 3.38446 7.67627C3.77697 7.67627 4.21917 7.43266 4.21917 6.99637C4.21917 6.73095 3.88169 6.19535 3.03192 5.03429C3.00247 5.00686 2.98625 4.99288 2.97326 4.99279C3.02479 4.9641 3.11555 4.93049 3.2353 4.93049C3.27688 4.93049 3.3309 4.95152 3.38446 4.97846V5.43381H4.28413V5.09006C4.28413 4.70169 3.71003 4.24299 3.2353 4.24299C2.82071 4.24299 2.48786 4.44022 2.31927 4.72395C2.15266 5.00435 2.28006 5.27351 2.51934 5.48761C2.87539 5.97868 3.15184 6.38516 3.32522 6.65223C3.26152 6.6517 3.22654 6.65178 3.18365 6.65302ZM3.22591 6.97001C3.21343 6.96724 3.20143 6.9642 3.19022 6.96095C3.19857 6.9697 3.23138 7.00882 3.23138 7.1259C3.23138 7.18964 3.22831 7.23448 3.22419 7.26601C3.1082 7.16369 3.07577 6.98531 3.16065 6.848L3.16275 6.84457L3.14981 6.81886C3.15153 6.818 3.15325 6.81711 3.15494 6.81624C3.17492 6.80595 3.19135 6.7975 3.16275 6.84457L3.22591 6.97001ZM3.19022 6.96095L3.1783 6.9573C3.17958 6.95772 3.18126 6.95851 3.18323 6.95978L3.19022 6.96095ZM3.53167 6.99637C3.53167 6.98463 3.52768 6.97765 3.52078 6.97391L3.52478 6.9783C3.52935 6.9877 3.53167 6.99377 3.53167 6.99637Z" fill="#FFE402"/>
<path fill-rule="evenodd" clip-rule="evenodd" d="M4.72846 6.65302C5.12285 6.66437 5.36823 6.74572 5.36823 7.1259C5.36823 7.54511 4.96095 7.67627 4.52765 7.67627C4.13513 7.67627 3.69294 7.43266 3.69294 6.99637C3.69294 6.73095 4.03042 6.19535 4.88019 5.03429C4.90964 5.00686 4.92586 4.99288 4.93885 4.99279C4.88731 4.9641 4.79656 4.93049 4.67681 4.93049C4.63523 4.93049 4.5812 4.95152 4.52765 4.97846V5.43381H3.62798V5.09006C3.62798 4.70169 4.20208 4.24299 4.67681 4.24299C5.0914 4.24299 5.42425 4.44022 5.59284 4.72395C5.75945 5.00435 5.63204 5.27351 5.39277 5.48761C5.03672 5.97868 4.76027 6.38516 4.58689 6.65223C4.65059 6.6517 4.68556 6.65178 4.72846 6.65302ZM4.6862 6.97001C4.69868 6.96724 4.71068 6.9642 4.72189 6.96095C4.71354 6.9697 4.68073 7.00882 4.68073 7.1259C4.68073 7.18964 4.6838 7.23448 4.68792 7.26601C4.80391 7.16369 4.83634 6.98531 4.75146 6.848L4.74936 6.84457L4.7623 6.81886C4.76058 6.818 4.75886 6.81711 4.75717 6.81624C4.73719 6.80595 4.72076 6.7975 4.74936 6.84457L4.6862 6.97001ZM4.72189 6.96095L4.73381 6.9573C4.73253 6.95772 4.73085 6.95851 4.72888 6.95978L4.72189 6.96095ZM4.38044 6.99637C4.38044 6.98463 4.38443 6.97765 4.39133 6.97391L4.38733 6.9783C4.38276 6.9877 4.38044 6.99377 4.38044 6.99637Z" fill="#FFE402"/>
<path fill-rule="evenodd" clip-rule="evenodd" d="M3.18365 2.46075C2.78926 2.4494 2.54388 2.36804 2.54388 1.98787C2.54388 1.56866 2.95115 1.4375 3.38446 1.4375C3.77697 1.4375 4.21917 1.68111 4.21917 2.1174C4.21917 2.38282 3.88169 2.91842 3.03192 4.07948C3.00247 4.10691 2.98625 4.12089 2.97326 4.12098C3.02479 4.14967 3.11555 4.18328 3.2353 4.18328C3.27688 4.18328 3.3309 4.16225 3.38446 4.13531V3.67996H4.28413V4.02371C4.28413 4.41208 3.71003 4.87078 3.2353 4.87078C2.82071 4.87078 2.48786 4.67355 2.31927 4.38982C2.15266 4.10942 2.28006 3.84026 2.51934 3.62616C2.87539 3.13509 3.15184 2.72861 3.32522 2.46154C3.26152 2.46207 3.22654 2.46199 3.18365 2.46075ZM3.22591 2.14376C3.21343 2.14653 3.20143 2.14957 3.19022 2.15282C3.19857 2.14407 3.23138 2.10495 3.23138 1.98787C3.23138 1.92413 3.22831 1.87929 3.22419 1.84776C3.1082 1.95008 3.07577 2.12846 3.16065 2.26577L3.16275 2.2692L3.14981 2.29491C3.15153 2.29577 3.15325 2.29666 3.15494 2.29753C3.17492 2.30782 3.19135 2.31627 3.16275 2.2692L3.22591 2.14376ZM3.19022 2.15282L3.1783 2.15647C3.17958 2.15605 3.18126 2.15526 3.18323 2.15399L3.19022 2.15282ZM3.53167 2.1174C3.53167 2.12914 3.52768 2.13612 3.52078 2.13986L3.52478 2.13547C3.52935 2.12607 3.53167 2.12 3.53167 2.1174Z" fill="#FFE402"/>
<path fill-rule="evenodd" clip-rule="evenodd" d="M4.72846 2.46075C5.12285 2.4494 5.36823 2.36804 5.36823 1.98787C5.36823 1.56866 4.96095 1.4375 4.52765 1.4375C4.13513 1.4375 3.69294 1.68111 3.69294 2.1174C3.69294 2.38282 4.03042 2.91842 4.88019 4.07948C4.90964 4.10691 4.92586 4.12089 4.93885 4.12098C4.88731 4.14967 4.79656 4.18328 4.67681 4.18328C4.63523 4.18328 4.5812 4.16225 4.52765 4.13531V3.67996H3.62798V4.02371C3.62798 4.41208 4.20208 4.87078 4.67681 4.87078C5.0914 4.87078 5.42425 4.67355 5.59284 4.38982C5.75945 4.10942 5.63204 3.84026 5.39277 3.62616C5.03672 3.13509 4.76027 2.72861 4.58689 2.46154C4.65059 2.46207 4.68556 2.46199 4.72846 2.46075ZM4.6862 2.14376C4.69868 2.14653 4.71068 2.14957 4.72189 2.15282C4.71354 2.14407 4.68073 2.10495 4.68073 1.98787C4.68073 1.92413 4.6838 1.87929 4.68792 1.84776C4.80391 1.95008 4.83634 2.12846 4.75146 2.26577L4.74936 2.2692L4.7623 2.29491C4.76058 2.29577 4.75886 2.29666 4.75717 2.29753C4.73719 2.30782 4.72076 2.31627 4.74936 2.2692L4.6862 2.14376ZM4.72189 2.15282L4.73381 2.15647C4.73253 2.15605 4.73085 2.15526 4.72888 2.15399L4.72189 2.15282ZM4.38044 2.1174C4.38044 2.12914 4.38443 2.13612 4.39133 2.13986L4.38733 2.13547C4.38276 2.12607 4.38044 2.12 4.38044 2.1174Z" fill="#FFE402"/>
<path fill-rule="evenodd" clip-rule="evenodd" d="M11.8668 1.74023L12.1227 2.69505C12.1227 2.69505 12.1257 2.91198 11.8807 2.91198C11.6356 2.91198 11.6233 2.69505 11.6233 2.69505L11.8668 1.74023ZM14.0316 5.38722C14.0316 6.62986 13.083 7.63722 11.9128 7.63722C10.7427 7.63722 9.7941 6.62986 9.7941 5.38722C9.7941 4.14458 10.7427 3.13722 11.9128 3.13722C13.083 3.13722 14.0316 4.14458 14.0316 5.38722ZM12.8634 2.8876L12.8978 1.89968L12.3857 2.74156C12.3857 2.74156 12.3341 2.95263 12.5685 3.02428C12.8029 3.09593 12.8634 2.8876 12.8634 2.8876ZM13.838 2.3675L13.5163 3.30218C13.5163 3.30218 13.3975 3.4837 13.1943 3.34666C12.9911 3.20962 13.1022 3.02287 13.1022 3.02287L13.838 2.3675ZM14.0231 3.90199L14.6041 3.10223L13.7088 3.51382C13.7088 3.51382 13.548 3.65994 13.7022 3.85039C13.8564 4.04085 14.0231 3.90199 14.0231 3.90199ZM15.132 4.04823L14.3323 4.62931C14.3323 4.62931 14.1309 4.70986 14.043 4.48107C13.9552 4.25228 14.1533 4.163 14.1533 4.163L15.132 4.04823ZM14.43 5.42615L15.3647 5.10426L14.3952 4.92788C14.3952 4.92788 14.1797 4.95534 14.1967 5.19981C14.2138 5.44428 14.43 5.42615 14.43 5.42615ZM15.288 6.18468L14.3 6.21924C14.3 6.21924 14.088 6.17338 14.1431 5.93459C14.1983 5.6958 14.4124 5.73256 14.4124 5.73256L15.288 6.18468ZM13.9538 6.93795L14.9086 7.19374L14.2035 6.50539C14.2035 6.50539 14.0095 6.40762 13.887 6.61986C13.7644 6.8321 13.9538 6.93795 13.9538 6.93795ZM14.2603 8.04202L13.422 7.51823C13.422 7.51823 13.2719 7.36163 13.4511 7.1945C13.6303 7.02736 13.7873 7.17758 13.7873 7.17758L14.2603 8.04202ZM12.7519 7.90833L13.4005 8.65433L13.2009 7.68937C13.2009 7.68937 13.0947 7.49981 12.8744 7.60724C12.6541 7.71467 12.7519 7.90833 12.7519 7.90833ZM12.4053 8.97643L12.0032 8.0734C12.0032 8.0734 11.9663 7.85961 12.2084 7.82128C12.4504 7.78294 12.4966 7.99526 12.4966 7.99526L12.4053 8.97643ZM11.2495 7.99527L11.3529 8.97837L11.7428 8.07341C11.7428 8.07341 11.7646 7.85721 11.5225 7.81888C11.2805 7.78054 11.2495 7.99527 11.2495 7.99527ZM10.3566 8.65975L10.5452 7.68938C10.5452 7.68938 10.6376 7.49309 10.8578 7.60052C11.0781 7.70795 10.9941 7.90834 10.9941 7.90834L10.3566 8.65975ZM9.95875 7.17761L9.49473 8.05045L10.3241 7.51826C10.3241 7.51826 10.463 7.35118 10.2837 7.18404C10.1045 7.01691 9.95875 7.17761 9.95875 7.17761ZM8.84357 7.20445L9.54251 6.50542C9.54251 6.50542 9.72888 6.39435 9.85141 6.60658C9.97394 6.81882 9.79226 6.93798 9.79226 6.93798L8.84357 7.20445ZM9.33364 5.73259L8.46086 6.19673L9.446 6.21928C9.446 6.21928 9.65459 6.15844 9.59946 5.91965C9.54433 5.68086 9.33364 5.73259 9.33364 5.73259ZM8.38049 5.11659L9.35084 4.92792C9.35084 4.92792 9.56745 4.94005 9.55035 5.18452C9.53326 5.42899 9.316 5.42619 9.316 5.42619L8.38049 5.11659ZM9.59271 4.16303L8.6096 4.05977L9.41371 4.62935C9.41371 4.62935 9.62066 4.69555 9.70848 4.46676C9.79631 4.23797 9.59271 4.16303 9.59271 4.16303ZM9.13415 3.11183L10.0372 3.51384C10.0372 3.51384 10.2077 3.64802 10.0535 3.83848C9.89926 4.02893 9.7229 3.90202 9.7229 3.90202L9.13415 3.11183ZM10.6438 3.02289L9.89775 2.37441L10.2297 3.3022C10.2297 3.3022 10.3613 3.47513 10.5645 3.33809C10.7676 3.20105 10.6438 3.02289 10.6438 3.02289ZM10.8364 1.90329L11.3603 2.74157C11.3603 2.74157 11.4266 2.94814 11.1922 3.01979C10.9578 3.09144 10.8826 2.88761 10.8826 2.88761L10.8364 1.90329Z" fill="#FFE402"/>
<path fill-rule="evenodd" clip-rule="evenodd" d="M7.63819 6.66959C7.62964 6.63676 7.62182 6.60471 7.61473 6.57345L7.65847 6.6615L7.63819 6.66959ZM7.69817 6.8759C7.67526 6.80392 7.65526 6.73518 7.63819 6.66959L7.37036 6.77653L7.41003 6.8759H7.38115L7.36996 6.88146C7.35392 6.79983 7.34585 6.72247 7.34585 6.64907V6.03214L7.61473 6.57345C7.58066 6.42307 7.56355 6.29077 7.56355 6.17545V5.40634L7.87471 6.18565L7.57924 6.27813L7.69533 6.64907H7.6896L7.65847 6.6615L7.76864 6.88329L7.87489 7.22278C7.7755 7.04029 7.7249 6.91917 7.7249 6.8759H7.69817ZM8.04011 7.74254C7.89156 7.41277 7.77744 7.12497 7.69817 6.8759H7.41003L7.70283 7.60923L7.59439 7.49354C7.48088 7.26615 7.40567 7.06323 7.36996 6.88146L7.13162 6.99985L7.08416 6.94923V7.02342L7.07329 7.02882L7.08416 7.05072V7.13463C7.05291 7.03707 7.0374 6.95155 7.0374 6.8759V5.41117L7.34585 6.03214V4.8611L7.56355 5.40634V3.92627L8.43278 6.70358L8.37167 6.72349C8.29104 6.48258 8.25105 6.29826 8.25105 6.17545H7.9073L7.87471 6.18565L8.12193 6.80484L8.06226 6.82427C8.04291 6.75562 8.03335 6.69702 8.03335 6.64907H7.69533L7.76864 6.88329L8.15252 7.65611L8.13661 7.66216C8.02825 7.4919 7.94083 7.34384 7.87489 7.22278L8.02562 7.70436L8.13661 7.66216L8.15207 7.68638L8.04011 7.74254ZM8.15928 7.69763L8.04026 7.74287L8.04011 7.74254L7.89569 7.81497L7.70283 7.60923L7.7947 7.83931C7.78359 7.83012 7.77686 7.82377 7.77375 7.8207C7.70605 7.70633 7.64622 7.59738 7.59439 7.49354L7.13162 6.99985L7.08416 7.02342V7.05072L7.46558 7.81858H7.42791L7.42536 7.82097C7.25573 7.54082 7.14251 7.31675 7.08416 7.13463V7.63679L5.71875 6.66406L7.45767 8.73356C8.01338 9.39492 8.69809 9.9031 9.50812 10.2562L7.9335 10.2228L9.5339 10.6745L8.70596 11.2838L10.136 10.8444L10.5259 10.9545C11.0507 11.1026 11.3429 11.2512 11.362 11.2963L11.4357 11.4704L11.6222 11.5014C12.0308 11.5694 12.7847 11.4635 13.7559 11.2482C14.086 11.175 14.4172 11.0936 14.6735 11.0244C14.7809 10.9954 14.8649 10.9713 14.9123 10.9557L14.9304 10.9496C14.9365 10.9474 14.9426 10.9451 14.9566 10.9397L14.9567 10.9397L14.968 10.935C14.9759 10.9315 14.9835 10.9274 15.0095 10.9133L15.0095 10.9132C15.0409 10.9089 15.0639 10.9058 15.0793 10.8932C15.1221 10.8585 15.1064 10.7519 15.0473 10.3496L15.0473 10.3496L15.0473 10.3496C14.7765 10.2771 14.7388 10.2669 14.7286 10.2794C14.727 10.2814 14.7261 10.284 14.725 10.287C14.6321 10.3063 14.4872 10.3041 14.2942 10.2793C15.9103 9.48454 16.9719 8.6883 17.4805 7.86901L18.4108 6.37044L17.8472 6.78162L18.0503 6.12877L17.2471 6.64498C17.3505 6.50783 17.4304 6.37129 17.4869 6.23484L18.0919 4.77253L17.1372 5.66321L17.6551 3.95619L16.4262 5.60243L11.3952 9.30473L11.3168 9.28653C10.0783 8.9994 9.20859 8.12453 8.69101 6.61947L8.43278 6.70358L8.43613 6.71429L8.37524 6.73413L8.37167 6.72349L8.12193 6.80484L8.1261 6.81528L8.06536 6.83507L8.06226 6.82427L8.0374 6.83237C8.12101 7.10403 8.21225 7.35858 8.31112 7.59582L8.15252 7.65611L8.16447 7.68016L8.15207 7.68638L8.15928 7.69763ZM8.17094 7.69319L8.15928 7.69763L8.18386 7.73574L7.93733 7.85939L7.89569 7.81497L7.81504 7.85542C7.80707 7.84936 7.80032 7.84397 7.7947 7.83931L7.80345 7.86123L7.81504 7.85542C7.82912 7.86612 7.84702 7.87892 7.86929 7.89351L7.82962 7.91341C7.81044 7.88212 7.79181 7.85122 7.77375 7.8207L7.77166 7.81858H7.46558L7.53472 7.95777L7.4898 7.92577C7.46748 7.88999 7.446 7.85507 7.42536 7.82097L7.38967 7.85443L7.08416 7.63679V7.81858C7.08416 8.14396 7.31311 8.38992 7.70638 8.59203L7.52139 8.7924L9.57824 10.2577L9.50812 10.2562C9.57548 10.2856 9.64371 10.3139 9.7128 10.3411L9.89134 10.4114L9.5339 10.6745L10.136 10.8444L10.616 10.6969L12.3244 11.37L11.7734 10.9774C11.8406 10.9768 11.9059 10.976 11.9694 10.9749C11.9425 10.9256 11.9083 10.8789 11.8667 10.8344C11.816 10.8331 11.772 10.8294 11.735 10.8232L11.7161 10.9366L11.1405 10.5266C11.3608 10.4506 11.5748 10.3709 11.7823 10.2876C12.6349 10.2784 13.1459 10.2327 13.2218 10.1765L13.3533 10.0789L13.512 10.1196C13.6648 10.1589 13.8056 10.1915 13.9337 10.2177L14.0427 10.4008C14.1279 10.3603 14.2118 10.3198 14.2942 10.2793C14.2738 10.2766 14.2528 10.2738 14.2313 10.2706L17.3911 7.96541L17.1267 7.72003C17.4612 7.54777 17.6792 7.32177 17.7697 7.03075L17.8472 6.78162L17.5067 7.03007L17.4415 6.92863L17.1133 6.82652C17.0829 6.92405 16.9841 7.02161 16.8089 7.11118C16.9846 6.95449 17.1307 6.79935 17.2471 6.64498L16.7508 6.96387L17.4037 6.35477L16.9963 6.07233C17.0318 5.99214 17.0614 5.91303 17.0851 5.83493L17.1372 5.66321L16.9071 5.87784L16.565 5.70495L16.7232 5.38392L16.4262 5.60243L15.723 6.54458L15.4835 6.34409C14.8412 7.64748 13.6852 8.68231 12.0038 9.44582L11.3952 9.30473L11.2214 9.43266L11.2391 9.27765C10.0928 9.27765 9.24769 8.4276 8.69448 6.63014L8.43613 6.71429L8.68173 7.49901L8.43634 7.5923L8.42106 7.55402L8.66709 7.46049C8.54099 7.18058 8.44383 6.93749 8.37524 6.73413L8.1261 6.81528L8.42106 7.55402L8.39998 7.56204L8.41576 7.55412C8.23292 7.25583 8.11729 7.01285 8.06536 6.83507L8.04088 6.84304C8.13112 7.10546 8.23199 7.35234 8.34344 7.58353L8.31112 7.59582L8.31486 7.60473L8.16447 7.68016L8.17094 7.69319ZM8.32708 7.63383L8.17094 7.69319L8.19044 7.73244L8.18386 7.73574L8.20745 7.77201L7.97832 7.90313L7.93733 7.85939L7.86929 7.89351C7.8867 7.90492 7.90678 7.91743 7.9298 7.93089L7.68979 8.06824L7.53472 7.95777L7.61177 8.11289L7.68979 8.06824L7.72599 8.09403L7.63182 8.14792C7.5812 8.0704 7.53386 7.99641 7.4898 7.92577L7.38967 7.85443L7.17712 8.05367L7.61814 8.52416L7.86894 8.28907L7.90383 8.22072L9.02421 9.01889L9.4385 9.46086C8.87448 9.16438 8.39037 8.77489 7.98402 8.29129L7.70638 8.59203L7.71265 8.59524L9.46614 9.49035L9.4385 9.46086C9.60679 9.54933 9.78221 9.62951 9.96479 9.70145L9.662 10.2595L9.57824 10.2577L9.63934 10.3012L9.662 10.2595L10.0856 10.2685L9.89134 10.4114L10.616 10.6969L10.6414 10.6891C10.8113 10.6369 10.9776 10.5828 11.1405 10.5266L11.0157 10.4376L11.2184 10.2884C11.4201 10.2898 11.6083 10.2895 11.7823 10.2876C12.0364 10.1856 12.2808 10.0781 12.5157 9.96515H13.7833L13.9337 10.2177C13.9625 10.2236 13.9907 10.2292 14.0182 10.2344L14.0978 10.368L14.2313 10.2706C14.1653 10.261 14.0942 10.2489 14.0182 10.2344L13.858 9.96515H14.2437L13.7962 9.8614L13.7477 9.77984C15.0774 9.1481 16.0177 8.52767 16.5676 7.93165C16.7798 7.87259 16.9666 7.80247 17.1267 7.72003L17.0118 7.61341L17.6273 7.21782L17.5067 7.03007L16.4691 7.78706L16.3393 7.48417C16.5142 7.35864 16.6707 7.23443 16.8089 7.11118C16.7107 7.16137 16.5886 7.20904 16.4411 7.25279L16.7508 6.96387L15.8102 7.56835C16.3965 7.02724 16.793 6.53211 16.9963 6.07233L16.9549 6.04357L17.0316 5.94076L16.9071 5.87784L16.1161 6.61579L16.565 5.70495L16.4272 5.63533C16.3431 5.91248 16.1343 6.23883 15.7987 6.60803L15.723 6.54458L15.2991 7.11244L15.4048 7.20772L12.2773 9.50923L12.0038 9.44582C11.7424 9.56453 11.4683 9.67667 11.1814 9.78225L11.2214 9.43266L10.6953 9.81982C9.6864 9.45909 8.90978 8.72756 8.37176 7.6415L8.44194 7.6063L8.43634 7.5923L8.36153 7.62074L8.34612 7.58905L8.39998 7.56204L8.34344 7.58353L8.34612 7.58905L8.31486 7.60473L8.32708 7.63383ZM8.33763 7.65861L8.19044 7.73244L8.22749 7.80704L8.00669 7.93339L7.97832 7.90313L7.9298 7.93089C7.9425 7.93832 7.9561 7.94604 7.97064 7.95402L7.72599 8.09403L7.90383 8.22072L8.02523 7.9829C8.00571 7.97295 7.98754 7.9633 7.97064 7.95402L8.00669 7.93339L9.02421 9.01889L10.4263 10.0178L10.0856 10.2685L10.5637 10.2786L10.7442 10.6374L11.0157 10.4376L10.799 10.2833C10.9446 10.2858 11.0845 10.2875 11.2184 10.2884L11.6577 9.96515H12.5157C12.7002 9.87641 12.8788 9.78428 13.0515 9.68874L13.7096 9.84133L13.7833 9.96515H13.858L13.7962 9.8614L13.7096 9.84133L13.6926 9.81263L16.1177 8.04335L16.4231 7.96923C16.4725 7.95724 16.5207 7.94472 16.5676 7.93165C16.5915 7.9058 16.6146 7.88 16.637 7.85424L17.0118 7.61341L16.8964 7.5064C16.8251 7.62131 16.7386 7.73729 16.637 7.85424L16.5279 7.92437L16.4691 7.78706L16.1177 8.04335L14.8726 8.34557C15.012 8.2069 15.1439 8.06393 15.2682 7.91665L15.6667 7.66055L15.8026 7.83908C15.9974 7.71942 16.1763 7.60122 16.3393 7.48417L16.2976 7.3867L16.4411 7.25279C16.3848 7.26951 16.3248 7.28565 16.2609 7.30113L16.2976 7.3867L15.8572 7.79754L15.7246 7.62336L15.8071 7.57034L15.8076 7.57077L15.8102 7.56835L15.8071 7.57034L15.6447 7.424C15.6568 7.40644 15.6688 7.38883 15.6807 7.37116L15.85 7.5237L16.9549 6.04357L16.8516 5.97199C16.7399 6.24209 16.4449 6.55774 15.9655 6.90594C16.0124 6.82109 16.0573 6.73511 16.1002 6.648L16.1161 6.61579L15.9704 6.75175L15.7987 6.60803C15.6661 6.75392 15.5138 6.9065 15.3415 7.06537L15.4569 7.16937L15.4048 7.20772L15.4438 7.24294L15.3882 7.29483L15.5687 7.53184C15.474 7.66323 15.3738 7.79149 15.2682 7.91665L14.4357 8.45161L14.8726 8.34557C14.3652 8.85032 13.7578 9.29797 13.0515 9.68874L12.2773 9.50923L11.6577 9.96515H11.2391C11.0767 9.96515 10.9192 9.9525 10.7668 9.92731C10.8091 9.91327 10.851 9.8991 10.8928 9.8848C10.9807 9.91129 11.0702 9.93511 11.1615 9.95627L11.1814 9.78225C11.0866 9.81715 10.9904 9.85133 10.8928 9.8848C10.826 9.86467 10.7601 9.84301 10.6953 9.81982L10.5955 9.89323C9.62732 9.6672 8.87358 8.91088 8.33763 7.65861ZM8.33763 7.65861L8.37176 7.6415L8.36153 7.62074L8.32708 7.63383L8.33763 7.65861ZM10.4442 10.0305L10.4263 10.0178L10.5955 9.89323C10.6519 9.90639 10.709 9.91775 10.7668 9.92731C10.6609 9.96253 10.5533 9.99693 10.4442 10.0305ZM15.6104 7.47335L15.6447 7.424L15.4502 7.2487L15.5063 7.21393L15.6807 7.37116C15.7826 7.22006 15.8775 7.06499 15.9655 6.90594C15.8277 7.00602 15.6746 7.10878 15.5063 7.21393L15.4904 7.19955L15.7686 6.93999L15.9956 6.77291L15.9704 6.75175L15.7686 6.93999L15.4569 7.16937L15.4904 7.19955L15.4438 7.24294L15.4502 7.2487L15.4428 7.25329L15.6104 7.47335ZM15.6104 7.47335L15.7246 7.62336L15.6667 7.66055L15.5687 7.53184C15.5827 7.51241 15.5966 7.49292 15.6104 7.47335ZM10.4442 10.0305L10.799 10.2833C10.7424 10.2823 10.6849 10.2812 10.6266 10.28L10.5637 10.2786L10.4395 10.0319L10.4442 10.0305ZM11.7161 10.9366L11.7093 10.9779L11.7734 10.9774L11.7161 10.9366ZM13.6313 10.7287L13.5312 10.5937C13.4809 10.6046 13.4312 10.6152 13.3822 10.6255L13.3411 10.7855C13.3812 10.7958 13.4207 10.8058 13.4595 10.8153C13.5307 10.7898 13.5877 10.761 13.6313 10.7287Z" fill="#FFE402"/>
</g>
</g>
<rect x="0.5" y="0.5" width="19" height="14" rx="0.5" stroke="black" stroke-opacity="0.1"/>
<defs>
<clipPath id="clip0_85465_14287">
<rect width="20" height="15" rx="1" fill="white"/>
</clipPath>
</defs>
</svg>
