<svg width="20" height="15" viewBox="0 0 20 15" fill="none" xmlns="http://www.w3.org/2000/svg">
<g clip-path="url(#clip0_85465_14439)">
<rect width="20" height="15" rx="1" fill="white"/>
<path fill-rule="evenodd" clip-rule="evenodd" d="M0 0V15H20V0H0Z" fill="#E31D1C"/>
<mask id="mask0_85465_14439" style="mask-type:luminance" maskUnits="userSpaceOnUse" x="0" y="0" width="20" height="15">
<path fill-rule="evenodd" clip-rule="evenodd" d="M0 0V15H20V0H0Z" fill="white"/>
</mask>
<g mask="url(#mask0_85465_14439)">
<path fill-rule="evenodd" clip-rule="evenodd" d="M0 0V7.5H20V0H0Z" fill="#2E42A5"/>
<path fill-rule="evenodd" clip-rule="evenodd" d="M2.99902 6.90803C2.99902 6.90803 3.75319 7.37747 5.5008 7.37747C7.2484 7.37747 8.17603 6.90803 8.17603 6.90803C8.17603 6.90803 6.8055 6.11133 5.58008 6.11133C4.35465 6.11133 2.99902 6.90803 2.99902 6.90803Z" fill="black"/>
<path d="M3.04413 4.21405L2.82805 4.33978L2.90036 4.46405H3.04413H8.2474H8.43058L8.48578 4.28938L8.2474 4.21405C8.48578 4.28938 8.48581 4.2893 8.48583 4.28922L8.48589 4.28904L8.48604 4.28857L8.48644 4.28729L8.48765 4.28335L8.49162 4.27008C8.49491 4.25889 8.49942 4.24309 8.50478 4.22316C8.5155 4.18335 8.5297 4.12683 8.54435 4.05752C8.57352 3.91956 8.60522 3.72762 8.61406 3.51398C8.63115 3.10091 8.56509 2.53496 8.13855 2.16416C7.70005 1.78297 7.14886 1.84891 6.70654 1.95946C6.55484 1.99738 6.39804 2.04566 6.25424 2.08993C6.18768 2.11042 6.12391 2.13006 6.06471 2.14741C5.86391 2.20628 5.70806 2.24157 5.58815 2.24157C5.46928 2.24157 5.33304 2.20938 5.16092 2.1552C5.11118 2.13954 5.05694 2.12149 4.99973 2.10244C4.87352 2.06043 4.73286 2.01361 4.59435 1.97716C4.16911 1.86525 3.66621 1.82057 3.11048 2.1353C2.81508 2.3026 2.64297 2.53824 2.56171 2.79759C2.48277 3.0495 2.49365 3.30939 2.53401 3.53143C2.57462 3.7549 2.64797 3.95563 2.7096 4.09849C2.74068 4.17053 2.76943 4.22936 2.79075 4.27076C2.80143 4.29149 2.81029 4.30795 2.8167 4.31961L2.82443 4.33346L2.82678 4.33759L2.82755 4.33893L2.82783 4.33942L2.82795 4.33962C2.828 4.3397 2.82805 4.33978 3.04413 4.21405Z" fill="#FFD83D" stroke="black" stroke-width="0.5"/>
<path d="M2.50171 4.45472L2.38515 4.23355L2.19219 4.33524L2.26678 4.54021L2.98738 6.52044L3.06789 6.74167L3.29348 6.67461L3.2935 6.6746L3.29351 6.6746L3.29355 6.67458L3.2939 6.67448L3.29596 6.67388L3.30511 6.67122L3.34276 6.66061C3.37617 6.65135 3.42578 6.63795 3.4893 6.62178C3.61641 6.58944 3.79883 6.54612 4.01825 6.50278C4.45868 6.41577 5.04096 6.33009 5.62134 6.33009C6.20148 6.33009 6.77258 6.41571 7.20146 6.50255C7.41517 6.54582 7.5919 6.58904 7.7147 6.6213C7.77606 6.63742 7.82387 6.65078 7.85598 6.66L7.89209 6.67054L7.90081 6.67316L7.90274 6.67375L7.90302 6.67384L7.90308 6.67385L7.90309 6.67386L7.90311 6.67386L8.12831 6.74335L8.2109 6.52252L8.95146 4.54229L9.02855 4.33616L8.83385 4.23355L8.7173 4.45472C8.83385 4.23355 8.83376 4.2335 8.83366 4.23345L8.83344 4.23334L8.83293 4.23307L8.83164 4.2324L8.82792 4.23049L8.81594 4.22449C8.80594 4.21955 8.79191 4.2128 8.77384 4.20449C8.73769 4.18787 8.68538 4.16503 8.61679 4.13809C8.47962 4.0842 8.27744 4.01392 8.00952 3.94417C7.47348 3.80461 6.67538 3.66748 5.6095 3.66748C4.54363 3.66748 3.74552 3.80461 3.20949 3.94417C2.94157 4.01392 2.73939 4.0842 2.60221 4.13809C2.53363 4.16503 2.48131 4.18787 2.44517 4.20449C2.42709 4.2128 2.41306 4.21955 2.40307 4.22449L2.39109 4.23049L2.38737 4.2324L2.38607 4.23307L2.38557 4.23334L2.38535 4.23345C2.38525 4.2335 2.38515 4.23355 2.50171 4.45472Z" fill="#FFD83D" stroke="black" stroke-width="0.5"/>
<path d="M5.54627 2.75924C5.96675 2.75924 6.21643 2.35435 6.21643 1.98094C6.21643 1.60753 5.96675 1.20264 5.54627 1.20264C5.12578 1.20264 4.8761 1.60753 4.8761 1.98094C4.8761 2.35435 5.12578 2.75924 5.54627 2.75924Z" fill="#FFD83D" stroke="black" stroke-width="0.5"/>
<mask id="path-10-outside-1_85465_14439" maskUnits="userSpaceOnUse" x="4.07349" y="-1" width="3" height="4" fill="black">
<rect fill="white" x="4.07349" y="-1" width="3" height="4"/>
<path fill-rule="evenodd" clip-rule="evenodd" d="M5.70374 0H5.38861L5.42918 0.576701L5.07349 0.528302V0.924528L5.43464 0.874782L5.38861 1.78302H5.70374L5.65709 0.873254L6.01886 0.924528V0.528302L5.66364 0.579291L5.70374 0Z"/>
</mask>
<path fill-rule="evenodd" clip-rule="evenodd" d="M5.70374 0H5.38861L5.42918 0.576701L5.07349 0.528302V0.924528L5.43464 0.874782L5.38861 1.78302H5.70374L5.65709 0.873254L6.01886 0.924528V0.528302L5.66364 0.579291L5.70374 0Z" fill="#FFD83D"/>
<path d="M5.38861 0V-0.5H4.85221L4.88984 0.0350833L5.38861 0ZM5.70374 0L6.20255 0.0345249L6.23954 -0.5H5.70374V0ZM5.42918 0.576701L5.36176 1.07214L5.97109 1.15505L5.92795 0.541618L5.42918 0.576701ZM5.07349 0.528302L5.1409 0.0328674L4.57349 -0.0443408V0.528302H5.07349ZM5.07349 0.924528H4.57349V1.49812L5.14171 1.41985L5.07349 0.924528ZM5.43464 0.874782L5.934 0.900089L5.96456 0.297069L5.36641 0.379459L5.43464 0.874782ZM5.38861 1.78302L4.88925 1.75771L4.86263 2.28302H5.38861V1.78302ZM5.70374 1.78302V2.28302H6.23004L6.20308 1.75741L5.70374 1.78302ZM5.65709 0.873254L5.72725 0.378201L5.12668 0.293084L5.15774 0.89886L5.65709 0.873254ZM6.01886 0.924528L5.9487 1.41958L6.51886 1.50039V0.924528H6.01886ZM6.01886 0.528302H6.51886V-0.048594L5.94782 0.0333747L6.01886 0.528302ZM5.66364 0.579291L5.16484 0.544766L5.1221 1.16215L5.73469 1.07422L5.66364 0.579291ZM5.38861 0.5H5.70374V-0.5H5.38861V0.5ZM5.92795 0.541618L5.88738 -0.0350833L4.88984 0.0350833L4.93041 0.611784L5.92795 0.541618ZM5.00607 1.02374L5.36176 1.07214L5.49659 0.0812664L5.1409 0.0328674L5.00607 1.02374ZM5.57349 0.924528V0.528302H4.57349V0.924528H5.57349ZM5.36641 0.379459L5.00526 0.429205L5.14171 1.41985L5.50287 1.37011L5.36641 0.379459ZM5.88797 1.80833L5.934 0.900089L4.93528 0.849475L4.88925 1.75771L5.88797 1.80833ZM5.70374 1.28302H5.38861V2.28302H5.70374V1.28302ZM5.15774 0.89886L5.20439 1.80862L6.20308 1.75741L6.15643 0.847648L5.15774 0.89886ZM6.08903 0.429476L5.72725 0.378201L5.58692 1.36831L5.9487 1.41958L6.08903 0.429476ZM5.51886 0.528302V0.924528H6.51886V0.528302H5.51886ZM5.73469 1.07422L6.08991 1.02323L5.94782 0.0333747L5.5926 0.084364L5.73469 1.07422ZM5.20493 -0.0345249L5.16484 0.544766L6.16245 0.613816L6.20255 0.0345249L5.20493 -0.0345249Z" fill="black" mask="url(#path-10-outside-1_85465_14439)"/>
</g>
</g>
<rect x="0.5" y="0.5" width="19" height="14" rx="0.5" stroke="black" stroke-opacity="0.1"/>
<defs>
<clipPath id="clip0_85465_14439">
<rect width="20" height="15" rx="1" fill="white"/>
</clipPath>
</defs>
</svg>
