<svg width="20" height="15" viewBox="0 0 20 15" fill="none" xmlns="http://www.w3.org/2000/svg">
<g clip-path="url(#clip0_85465_14453)">
<rect width="20" height="15" rx="1" fill="white"/>
<path fill-rule="evenodd" clip-rule="evenodd" d="M0 0H20V15H0V0Z" fill="#FECA00"/>
<rect x="1.25" y="1.25" width="3.75" height="12.5" fill="#1F8A6E"/>
<rect x="5" y="1.25" width="3.75" height="12.5" fill="#F56800"/>
<rect x="8.75" y="1.25" width="10" height="12.5" fill="#B01D00"/>
<rect x="7.5" y="1.25" width="1.25" height="12.5" fill="#E8AA00"/>
<path fill-rule="evenodd" clip-rule="evenodd" d="M10.6877 3.8584C10.6877 3.8584 9.89165 3.85609 9.89165 5.24222V7.27482C9.89165 7.27482 9.5127 7.34239 9.5127 7.5778C9.5127 7.8132 9.59301 8.01918 9.74233 8.01918C9.89165 8.01918 10.041 8.70976 9.89165 8.70976C9.74233 8.70976 9.59301 9.00606 9.74233 9.00606C9.77806 9.00606 9.80523 9.00122 9.82591 8.99753C9.84765 8.99366 9.86221 8.99106 9.87195 8.99673C9.89165 9.00821 9.89165 9.05353 9.89165 9.19053C9.89165 9.45963 9.74233 9.56844 9.74233 9.56844C9.74233 9.56844 9.6017 9.52921 9.6017 9.68757C9.6017 9.84593 9.74233 9.88602 9.74233 9.88602C9.74233 9.88602 9.82284 9.92083 9.66777 9.99581C9.5127 10.0708 9.5127 10.107 9.5127 10.107H9.89165L10.0814 10.4543L10.2625 10.107H10.6366C10.6366 10.107 10.4482 9.98656 10.4262 9.96131C10.4041 9.93606 10.3774 9.89918 10.4262 9.85696C10.4404 9.84465 10.4612 9.83524 10.4836 9.82514C10.5379 9.8006 10.6014 9.77195 10.6014 9.68757C10.6014 9.56844 10.3626 9.56844 10.3626 9.56844C10.3626 9.56844 10.2169 9.3054 10.2625 9.19053C10.2753 9.15841 10.2826 9.12983 10.2888 9.10533C10.3049 9.04218 10.3141 9.00606 10.3924 9.00606C10.5011 9.00606 10.5636 8.86879 10.4262 8.70976C10.4262 8.70976 10.5836 8.87907 10.5374 9.09877C10.4911 9.31848 10.5855 9.41798 10.6366 9.41798C10.6877 9.41798 10.769 9.34243 10.769 9.34243C10.769 9.34243 11.1937 9.72213 11.3803 9.72213C11.567 9.72213 11.8346 9.41798 11.8346 9.41798L12.2187 9.63374C12.2187 9.63374 12.4999 10.0277 12.4585 10.2985C12.417 10.5693 12.2567 10.7202 12.0681 10.6783C11.8795 10.6364 11.5727 10.7224 11.5493 10.8392C11.5458 10.8569 11.5405 10.8784 11.5348 10.902L11.5348 10.902C11.5025 11.0346 11.4541 11.2331 11.602 11.1841C11.7762 11.1264 11.8103 11.0822 11.8103 11.0822C11.8103 11.0822 11.7874 11.1841 11.9278 11.1841C12.0681 11.1841 12.1087 11.0822 12.1087 11.0822C12.1087 11.0822 12.2542 11.1841 12.3563 11.1841C12.4585 11.1841 12.5729 11.1056 12.5729 11.1056C12.5729 11.1056 12.6482 11.2223 12.8148 11.1841C12.9814 11.146 13.1073 10.7112 12.9861 10.6138C12.9861 10.6138 13.388 10.5555 13.4911 10.2063C13.4911 10.2063 13.1023 10.2005 13.1424 9.96131C13.1825 9.72213 13.3878 9.56844 13.3878 9.56844C13.3878 9.56844 13.9789 9.28229 14.2332 9.19053C14.4875 9.09877 14.9102 9.00606 15.015 9.00606C15.0576 9.00606 15.088 9.10557 15.1293 9.24045C15.1894 9.43699 15.2725 9.70865 15.4498 9.85696C15.7488 10.107 15.5449 10.6783 15.5449 10.6783C15.5449 10.6783 14.8796 10.7453 14.8796 10.9255C14.8796 11.1056 14.8904 11.1841 15.015 11.1841C15.1396 11.1841 15.137 11.0822 15.137 11.0822C15.137 11.0822 15.211 11.1841 15.3304 11.1841C15.4498 11.1841 15.5449 11.0822 15.5449 11.0822C15.5449 11.0822 15.5767 11.1841 15.7331 11.1841C15.8895 11.1841 15.8884 11.0822 15.8884 11.0822C15.8884 11.0822 15.9166 11.1841 16.0545 11.1841C16.1924 11.1841 16.4754 11.0822 16.4754 11.0822C16.4754 11.0822 16.5197 11.1841 16.6629 11.1841C16.8061 11.1841 16.8095 11.0822 16.8095 11.0822C16.8095 11.0822 16.8859 11.1841 17.0099 11.1841C17.134 11.1841 17.2067 11.0822 17.2067 11.0822C17.2067 11.0822 17.385 11.1841 17.508 11.1841C17.631 11.1841 17.5868 11 17.508 10.8392C17.488 10.7985 17.4649 10.7637 17.4439 10.732C17.3815 10.6382 17.3367 10.5707 17.4422 10.4543C17.4721 10.4213 17.5064 10.388 17.5407 10.3546L17.5407 10.3546C17.6685 10.2303 17.797 10.1053 17.7029 9.99581C17.675 9.96332 17.6422 9.94059 17.6093 9.91773C17.5016 9.84288 17.3919 9.76668 17.4422 9.34243C17.4724 9.08837 17.5297 8.88183 17.583 8.69007L17.583 8.69006C17.6458 8.46379 17.7029 8.2581 17.7029 8.01918C17.7029 7.5778 17.4422 7.07307 17.4422 7.07307C17.4422 7.07307 17.7932 6.82811 17.7932 6.3298C17.7932 5.8315 17.0099 5.77715 17.0099 5.77715C17.0099 5.77715 16.2319 5.97742 15.8884 5.87729C15.8109 5.85469 15.746 5.83844 15.692 5.82491C15.5068 5.77852 15.4498 5.76424 15.4498 5.63585C15.4498 5.47006 15.1998 5.77715 15.1998 5.77715C15.1998 5.77715 15.0038 5.69849 15.137 5.53572C15.2703 5.37296 15.3304 5.30915 15.3304 5.30915C15.3304 5.30915 15.213 5.17528 15.015 5.24222C14.8169 5.30915 14.7816 5.42006 14.7816 5.42006C14.7816 5.42006 14.5558 5.18891 14.6965 5.02107C14.8372 4.85323 15.015 5.02107 15.015 5.02107C15.015 5.02107 15.2172 5.12668 15.2335 4.98805C15.2498 4.84943 15.2335 4.73888 15.2335 4.73888C15.2335 4.73888 15.741 4.88443 15.5976 5.11083C15.4542 5.33723 15.5449 5.42006 15.5449 5.42006C15.5449 5.42006 15.8937 5.44152 15.9567 5.20091C15.9806 5.10991 15.9766 5.02165 15.9592 4.9523C16.0597 4.99963 16.1735 5.05572 16.1417 5.14878C16.0834 5.31974 15.9567 5.53572 15.9567 5.53572C15.9567 5.53572 16.3053 5.51535 16.4091 5.24222C16.513 4.96908 16.4754 5.30915 16.4754 5.30915C16.4754 5.30915 16.609 5.30439 16.8095 5.42006C17.0099 5.53572 16.8095 5.24222 16.8095 5.24222C16.8095 5.24222 17.2256 5.75822 17.6192 5.69704C18.0129 5.63585 17.991 5.30915 17.991 5.30915C17.991 5.30915 17.8978 5.14878 17.7029 5.14878C17.508 5.14878 17.6192 5.30915 17.6192 5.30915C17.6192 5.30915 17.8093 5.41738 17.508 5.30915C17.4207 5.2778 17.2905 5.1766 17.1289 5.05103L17.1289 5.05103C16.7326 4.74306 16.1476 4.28848 15.5449 4.3581C14.6965 4.4561 14.4004 4.83525 14.4004 4.83525V4.51955C14.4004 4.51955 14.2579 4.73888 14.1249 4.73888C13.992 4.73888 13.6229 4.51955 13.6229 4.51955L13.3878 4.73888C13.3878 4.73888 13.2987 4.51955 13.1424 4.51955C12.9861 4.51955 12.9861 4.73888 12.9861 4.73888C12.9861 4.73888 12.7895 4.64219 12.5729 4.64219C12.4842 4.64219 12.4087 4.60979 12.3505 4.5848C12.2667 4.54881 12.2187 4.52822 12.2187 4.64219C12.2187 4.66532 12.2193 4.6874 12.2198 4.7084V4.70841C12.2236 4.86271 12.2259 4.95899 12.0014 4.98805C11.7463 5.02107 11.5493 5.02107 11.5493 5.02107C11.5493 5.02107 11.3966 4.83525 11.2778 4.83525C11.159 4.83525 11.0214 4.97944 11.0214 5.11083C11.0214 5.24222 11.1753 5.61692 11.2778 5.69704C11.3048 5.71814 11.2998 5.71583 11.2778 5.70569C11.2162 5.67731 11.0214 5.5876 11.0214 5.77715C11.0214 5.90784 11.054 5.94051 11.0779 5.96437C11.1009 5.9875 11.1158 6.00235 11.0846 6.09009C11.0717 6.12661 11.0539 6.16884 11.0354 6.21292C10.9633 6.38407 10.8796 6.58301 11.0214 6.58301C11.098 6.58301 11.1705 6.56614 11.2221 6.55413C11.2907 6.53816 11.3224 6.53078 11.2778 6.58301C11.2601 6.60382 11.2362 6.62888 11.2122 6.65415L11.2121 6.65415C11.1304 6.74001 11.0462 6.82835 11.1918 6.76131C11.2684 6.72607 11.3331 6.67494 11.3864 6.63278C11.4643 6.57114 11.518 6.52866 11.5493 6.58301C11.5691 6.61738 11.5532 6.66332 11.5397 6.70269C11.5171 6.76817 11.5008 6.8155 11.6649 6.76131C11.7225 6.74231 11.7562 6.72749 11.7749 6.71685C11.7757 6.72751 11.7845 6.74233 11.8103 6.76131C11.8654 6.80176 11.8549 6.84007 11.8468 6.86935C11.8377 6.9025 11.8317 6.92407 11.9278 6.92407C12.0197 6.92407 12.1494 6.85283 12.2263 6.81061C12.3007 6.76973 12.3256 6.75605 12.2187 6.86058C12.1514 6.92646 12.0539 6.97037 11.9457 7.01912C11.705 7.12761 11.4111 7.26002 11.2778 7.71168C11.0979 8.32135 11.1785 8.44699 11.1905 8.46136L10.6366 7.85497C10.6366 7.85497 10.769 7.75146 10.769 7.5778C10.769 7.40413 10.4262 7.27482 10.4262 7.27482C10.4262 7.27482 10.4381 5.11373 10.5374 4.64219C10.6366 4.17065 10.6877 3.8584 10.6877 3.8584ZM11.7922 6.69643C11.7859 6.69645 11.7739 6.70326 11.7749 6.71685C11.7989 6.70322 11.7984 6.69642 11.7922 6.69643ZM15.9592 4.9523L15.9519 4.94884C15.8708 4.9107 15.801 4.87789 15.8278 4.83525C15.8655 4.77533 15.9306 4.83827 15.9592 4.9523ZM16.3257 9.62849C16.3257 9.62849 16.0632 9.88591 16.2299 9.94249C16.2804 9.95965 16.3419 9.96922 16.3991 9.97812C16.5304 9.99855 16.6388 10.0154 16.5393 10.1126C16.3965 10.2521 16.2757 10.4406 16.2757 10.6123C16.2757 10.7839 16.2797 10.9288 16.3257 10.8564C16.3509 10.8166 16.4546 10.775 16.5662 10.7301C16.658 10.6932 16.7551 10.6542 16.8186 10.6123C16.9385 10.533 16.9368 10.4473 16.9337 10.2932V10.2932C16.9332 10.2665 16.9326 10.2379 16.9326 10.2068C16.9326 9.99624 16.3257 9.62849 16.3257 9.62849ZM14.2893 6.18097C14.3505 6.13235 14.3544 5.53225 14.3544 5.53225C14.3544 5.53225 14.569 5.60369 14.569 5.69744C14.569 5.75582 14.5528 5.78921 14.5282 5.83961C14.5134 5.87014 14.4955 5.90691 14.4764 5.95925C14.4292 6.08817 14.5575 6.16893 14.6767 6.24395C14.6858 6.24968 14.6948 6.25537 14.7037 6.26104C14.7845 6.31255 14.8072 6.20079 14.8247 6.11451C14.8345 6.06669 14.8426 6.02669 14.8581 6.02669C14.9017 6.02669 15.227 6.10043 15.4717 6.22481C15.6853 6.33335 15.8949 6.28006 16.3749 6.15803C16.445 6.1402 16.5209 6.1209 16.6035 6.10043C17.2509 5.93981 17.3359 6.18097 17.4022 6.37084C17.4686 6.5607 16.966 6.8238 16.6035 6.87148C16.4442 6.89243 16.3062 6.88577 16.1792 6.87964C16.0173 6.87181 15.8733 6.86486 15.7259 6.91724C15.495 6.99936 14.7727 6.99118 14.4908 6.98799C14.4519 6.98755 14.4213 6.9872 14.4017 6.9872C14.2722 6.9872 14.2478 6.94635 14.1986 6.86438C14.1861 6.84354 14.1721 6.82006 14.1543 6.79391C14.0664 6.66488 14.173 6.58051 14.2421 6.58051C14.3112 6.58051 14.2893 6.42948 14.2421 6.37084C14.1949 6.3122 14.2281 6.22959 14.2893 6.18097Z" fill="#FECA00"/>
<path fill-rule="evenodd" clip-rule="evenodd" d="M8.85699 1.32636V1.552C8.85699 1.57979 8.845 1.61769 8.83156 1.66017C8.78895 1.79482 8.73178 1.97553 8.99572 2.02632C9.34294 2.09313 9.59871 2.24496 9.67648 2.3883C9.72632 2.48016 9.71228 2.32709 9.69577 2.14706C9.68651 2.04616 9.67648 1.9368 9.67648 1.85733C9.67648 1.63605 9.42862 1.20486 9.25298 1.32636C9.07735 1.44785 8.85699 1.32636 8.85699 1.32636ZM8.85699 13.442V13.6676C8.85699 13.6676 9.07735 13.5461 9.25298 13.6676C9.42862 13.7891 9.67648 13.3579 9.67648 13.1366C9.67648 13.0572 9.68651 12.9478 9.69577 12.8469C9.71228 12.6669 9.72632 12.5138 9.67648 12.6057C9.59871 12.749 9.34294 12.9008 8.99572 12.9677C8.73178 13.0184 8.78896 13.1992 8.83156 13.3338C8.845 13.3763 8.85699 13.4142 8.85699 13.442ZM18.6473 13.442V13.6676C18.6473 13.6676 18.4269 13.5461 18.2513 13.6676C18.0756 13.7891 17.8278 13.3579 17.8278 13.1366C17.8278 13.0572 17.8177 12.9478 17.8085 12.8469C17.792 12.6669 17.7779 12.5138 17.8278 12.6057C17.9055 12.749 18.1613 12.9008 18.5085 12.9677C18.7725 13.0184 18.7153 13.1992 18.6727 13.3338C18.6593 13.3763 18.6473 13.4142 18.6473 13.442ZM18.6473 1.552V1.32636C18.6473 1.32636 18.4269 1.44785 18.2513 1.32636C18.0756 1.20486 17.8278 1.63605 17.8278 1.85733C17.8278 1.9368 17.8177 2.04616 17.8085 2.14706C17.792 2.32709 17.7779 2.48016 17.8278 2.3883C17.9055 2.24496 18.1613 2.09313 18.5085 2.02632C18.7725 1.97553 18.7153 1.79482 18.6727 1.66017C18.6593 1.61769 18.6473 1.57979 18.6473 1.552Z" fill="#FECA00"/>
</g>
<rect x="0.5" y="0.5" width="19" height="14" rx="0.5" stroke="black" stroke-opacity="0.1"/>
<defs>
<clipPath id="clip0_85465_14453">
<rect width="20" height="15" rx="1" fill="white"/>
</clipPath>
</defs>
</svg>
