<svg width="20" height="15" viewBox="0 0 20 15" fill="none" xmlns="http://www.w3.org/2000/svg">
<g clip-path="url(#clip0_85465_14483)">
<rect width="20" height="15" rx="1" fill="white"/>
<path fill-rule="evenodd" clip-rule="evenodd" d="M0 10H20V15H0V10Z" fill="#55BA07"/>
<path fill-rule="evenodd" clip-rule="evenodd" d="M0 5H20V10H0V5Z" fill="#F7FCFF"/>
<path fill-rule="evenodd" clip-rule="evenodd" d="M0 0H20V5H0V0Z" fill="#3D58DB"/>
<path fill-rule="evenodd" clip-rule="evenodd" d="M9.53125 5.15034C9.20458 5.23805 9.03207 5.46382 9.03207 5.86326C9.03207 6.31976 9.25622 6.74824 9.53125 6.96921V5.15034ZM10.3125 6.95699C10.5799 6.73297 10.7948 6.31247 10.7948 5.86443C10.7948 5.47647 10.625 5.25172 10.3125 5.15846V6.95699ZM10.2862 4.83283C10.7977 4.94646 11.1678 5.29481 11.1678 5.86078C11.1678 6.27243 10.972 6.77285 10.6684 7.11626L12.1895 8.60815L12.5647 8.48461L13.125 9.3344C13.125 9.3344 11.7088 10.0002 9.95839 10.0002C8.20798 10.0002 6.875 9.3344 6.875 9.3344L7.35197 8.60815L7.73718 8.73442L9.1484 7.14213C8.83153 6.79834 8.62563 6.28289 8.62563 5.86078C8.62563 5.27479 9.02245 4.92208 9.56212 4.82166C9.62152 4.68168 9.76023 4.5835 9.92187 4.5835C10.0878 4.5835 10.2295 4.68693 10.2862 4.83283ZM7.50104 8.93538L7.34255 9.15568H7.65103L7.50104 8.93538ZM7.68172 9.24262L7.40932 9.29744L7.68172 9.39233V9.24262ZM7.82066 8.92537L7.95992 9.25051L8.30587 9.15615L8.23728 9.02542L7.82066 8.92537ZM8.573 9.57385L8.06497 9.47369L8.00682 9.37605L8.38997 9.29265L8.573 9.57385ZM8.60264 9.10848L8.76056 9.39262L9.10775 9.28688L9.01117 9.15953L8.60264 9.10848ZM8.88734 9.63053L8.82518 9.51302L9.20942 9.41045L9.43053 9.68064L8.88734 9.63053ZM9.6048 9.43546L10.1 9.30452L10.0391 9.1921H9.39639L9.6048 9.43546ZM9.78235 9.68577L9.70367 9.56414L10.1792 9.40843L10.4316 9.68577H9.78235ZM10.3841 9.2007L10.5362 9.38703L10.948 9.24427L10.8964 9.147L10.3841 9.2007ZM11.2779 9.58806L10.7242 9.64962L10.6428 9.51211L11.0615 9.37461L11.2779 9.58806ZM11.2428 9.11076L11.3979 9.30143L11.7696 9.11076L11.6664 9.0535L11.2428 9.11076ZM11.5643 9.5368L11.4971 9.43368L11.8508 9.22141L12.0306 9.43368L11.5643 9.5368ZM11.9155 8.94372L12.1401 9.15804L12.3586 8.94372L12.2895 8.85652L11.9155 8.94372ZM12.2716 9.23163L12.4547 9.05046L12.5862 9.23163L12.2716 9.33284V9.23163Z" fill="#1D1D1D"/>
</g>
<rect x="0.5" y="0.5" width="19" height="14" rx="0.5" stroke="black" stroke-opacity="0.1"/>
<defs>
<clipPath id="clip0_85465_14483">
<rect width="20" height="15" rx="1" fill="white"/>
</clipPath>
</defs>
</svg>
