<svg width="20" height="15" viewBox="0 0 20 15" fill="none" xmlns="http://www.w3.org/2000/svg">
<g clip-path="url(#clip0_85465_14598)">
<rect width="20" height="15" rx="1" fill="white"/>
<path fill-rule="evenodd" clip-rule="evenodd" d="M0 0H20V15H0V0Z" fill="#E8AA00"/>
<path fill-rule="evenodd" clip-rule="evenodd" d="M2 2H18V13H2V2Z" fill="#C51918"/>
<mask id="mask0_85465_14598" style="mask-type:luminance" maskUnits="userSpaceOnUse" x="2" y="2" width="16" height="11">
<path fill-rule="evenodd" clip-rule="evenodd" d="M2 2H18V13H2V2Z" fill="white"/>
</mask>
<g mask="url(#mask0_85465_14598)">
<path fill-rule="evenodd" clip-rule="evenodd" d="M12.6442 9.84487C12.8991 9.84487 13.1057 9.63311 13.1057 9.3719C13.1057 9.11068 12.8991 8.89893 12.6442 8.89893C12.3893 8.89893 12.1826 9.11068 12.1826 9.3719C12.1826 9.63311 12.3893 9.84487 12.6442 9.84487Z" fill="#1E5E91"/>
<path fill-rule="evenodd" clip-rule="evenodd" d="M6.64212 7.70754C5.43134 6.30039 7.16666 3.8584 7.16666 3.8584C7.16666 3.8584 7.42609 5.31687 8.38631 6.29828C8.38631 6.36797 8.29563 6.47079 8.20383 6.57489C8.13972 6.64758 8.07506 6.72091 8.04034 6.784C7.95592 6.93745 8.24575 7.02492 8.38631 7.02492C8.44939 7.02492 8.48425 7.1164 8.51571 7.19898C8.55434 7.30038 8.58785 7.38833 8.66223 7.27691C8.79717 7.07474 8.52729 6.63056 8.52729 6.63056L8.95452 6.17993L9.099 5.88863H8.95452V5.58873L8.85328 5.67186C8.85328 5.67186 8.7422 5.40371 8.52729 5.40371C8.31238 5.40371 8.24575 5.28109 8.24575 5.28109H8.52729C8.66827 5.28109 8.50476 5.09428 8.38631 4.99697C8.33321 4.95336 8.25267 4.96839 8.17995 4.98197C8.09044 4.99868 8.01279 5.01318 8.01279 4.91335C8.01279 4.80393 8.09799 4.78943 8.19643 4.77268C8.26076 4.76173 8.33075 4.74982 8.38631 4.70982C8.47819 4.64366 8.60204 4.664 8.7361 4.68602C8.80712 4.69769 8.881 4.70982 8.95452 4.70982H9.30262C9.42832 4.70982 9.099 4.91335 9.099 4.91335L9.30262 5.09428L9.60542 5.40371L9.45399 5.49359L9.76645 5.79659C9.76645 5.79659 9.66038 5.96904 9.76645 5.96904C9.81017 5.96904 9.83894 6.00487 9.85765 6.04699C9.87636 6.00487 9.90513 5.96904 9.94885 5.96904C10.0549 5.96904 9.94885 5.79659 9.94885 5.79659L10.2613 5.49359L10.1099 5.40371L10.4127 5.09428L10.6163 4.91335C10.6163 4.91335 10.287 4.70982 10.4127 4.70982H10.7608C10.8343 4.70982 10.9082 4.69769 10.9792 4.68602C11.1133 4.664 11.2371 4.64366 11.329 4.70982C11.3845 4.74982 11.4545 4.76173 11.5189 4.77268C11.6173 4.78943 11.7025 4.80393 11.7025 4.91335C11.7025 5.01318 11.6249 4.99868 11.5354 4.98197C11.4626 4.96839 11.3821 4.95336 11.329 4.99697C11.2105 5.09428 11.047 5.28109 11.188 5.28109H11.4695C11.4695 5.28109 11.4029 5.40371 11.188 5.40371C10.9731 5.40371 10.862 5.67186 10.862 5.67186L10.7608 5.58873V5.88863H10.6163L10.7608 6.17993L11.188 6.63056C11.188 6.63056 10.9181 7.07474 11.0531 7.27691C11.1274 7.38833 11.161 7.30038 11.1996 7.19898C11.2311 7.1164 11.2659 7.02492 11.329 7.02492C11.4695 7.02492 11.7594 6.93745 11.675 6.784C11.6402 6.72091 11.5756 6.64758 11.5115 6.57489C11.4197 6.47079 11.329 6.36797 11.329 6.29828C12.2892 5.31687 12.5486 3.8584 12.5486 3.8584C12.5486 3.8584 14.284 6.30039 13.0732 7.70754C11.8624 9.1147 10.9731 8.69038 10.9731 8.69038L11.4695 9.13556L11.329 9.25719H11.7426L11.5905 9.35889L11.7025 9.40793L11.821 9.45985C11.821 9.45985 11.5015 9.69482 11.821 9.69482C11.8715 9.69482 11.9249 9.69333 11.9799 9.6918C12.0402 9.69012 12.1024 9.6884 12.1645 9.68852C12.1812 9.68855 12.1438 9.59645 12.1067 9.50514C12.0701 9.41502 12.0338 9.32566 12.0502 9.32636C12.0847 9.32785 12.1526 9.40976 12.2207 9.49197C12.275 9.55749 12.3294 9.6232 12.3672 9.64849C12.3916 9.66478 12.4867 9.63174 12.5748 9.60113C12.6494 9.57525 12.7189 9.5511 12.7364 9.55995C12.8107 9.59745 12.7917 9.67334 12.7737 9.7456C12.769 9.76418 12.7644 9.78252 12.7615 9.7999C12.7588 9.81571 12.854 9.75397 12.9541 9.68903C13.0592 9.62084 13.1698 9.54912 13.1782 9.55995C13.18 9.56223 13.1819 9.56454 13.1839 9.56694C13.2196 9.60994 13.2772 9.67921 12.8522 10.0068C12.8522 10.0697 12.8544 10.1211 12.8562 10.1629C12.8621 10.2969 12.8636 10.3316 12.7728 10.3316C12.7323 10.3316 12.6758 10.3517 12.6102 10.3749C12.4421 10.4345 12.2151 10.515 12.0502 10.3316C11.821 10.0768 11.4695 9.69482 11.4695 9.69482V9.88256L11.0531 9.45985L10.9731 9.69482L10.4127 9.05113L10.2613 9.13556C10.2613 9.13556 10.7772 10.5591 11.0531 10.569C11.1902 10.5739 10.982 10.707 10.7062 10.8833C10.427 11.0617 10.0785 11.2844 9.94885 11.4633C9.91026 11.5165 9.88045 11.4353 9.85765 11.2588C9.83485 11.4353 9.80504 11.5165 9.76645 11.4633C9.63682 11.2844 9.28833 11.0617 9.00912 10.8833C8.73332 10.707 8.52512 10.5739 8.66223 10.569C8.93815 10.5591 9.45399 9.13556 9.45399 9.13556L9.30262 9.05113L8.7422 9.69482L8.66223 9.45985L8.24575 9.88256V9.69482C8.24575 9.69482 7.89427 10.0768 7.6651 10.3316C7.50022 10.515 7.2732 10.4345 7.10509 10.3749C7.03954 10.3517 6.98295 10.3316 6.9425 10.3316C6.79832 10.3316 6.75006 10.1299 6.9425 9.88256C7.10456 9.67426 7.44202 9.68364 7.73536 9.6918C7.79036 9.69333 7.84382 9.69482 7.89427 9.69482C8.2138 9.69482 7.89427 9.45985 7.89427 9.45985L8.01279 9.40793L8.12476 9.35889L7.97267 9.25719H8.38631L8.24575 9.13556L8.7422 8.69038C8.7422 8.69038 7.85289 9.1147 6.64212 7.70754Z" fill="#F6C540"/>
<path fill-rule="evenodd" clip-rule="evenodd" d="M7.77064 10.6443L7.22369 9.68541C7.22369 9.68541 6.50858 8.0366 6.50858 7.83642C6.50858 7.63624 6.2207 7.04343 6.2207 7.21551C6.2207 7.38759 6.2207 7.83642 6.2207 7.83642L7.42725 10.5545V10.7687H7.58973L7.77064 10.6443Z" fill="#F6C540"/>
<path d="M12.1511 9.35335L12.2343 9.07715L13.2505 9.38329L13.1673 9.65949L12.1511 9.35335Z" fill="#F6C540"/>
<path d="M12.6923 8.85059L12.9671 8.94054L12.6986 9.8018L12.4238 9.71185L12.6923 8.85059Z" fill="#F6C540"/>
<path fill-rule="evenodd" clip-rule="evenodd" d="M12.9481 8.56962L12.8891 8.55615L12.8651 8.65117L12.7565 8.62451L12.7432 8.68249L12.8505 8.70885L12.8231 8.81714L12.8822 8.8306L12.9093 8.72329L13.0161 8.74951L13.0294 8.69153L12.9239 8.66561L12.9481 8.56962Z" fill="#F6C540"/>
<path fill-rule="evenodd" clip-rule="evenodd" d="M9.80881 3.26416L9.83851 3.36779H9.92875L9.95846 3.26416C10.0335 3.28676 10.1017 3.31248 10.1627 3.34119L10.1648 3.3185C10.6472 3.36256 10.8975 3.56449 10.8707 3.91951C10.8485 4.21339 10.6998 4.36734 10.4517 4.3634V4.58291C10.4517 4.58291 10.0479 4.73794 9.84595 4.73794C9.64403 4.73794 9.24018 4.58291 9.24018 4.58291V4.35969C9.03594 4.33444 8.91398 4.18337 8.89404 3.91951C8.86721 3.56449 9.11754 3.36256 9.59993 3.3185L9.60214 3.34232C9.66381 3.31316 9.73273 3.28706 9.80881 3.26416ZM9.29811 4.16684C9.27092 4.17445 9.25181 4.18007 9.24404 4.18237C9.13329 4.1616 9.07923 4.07311 9.06667 3.90687C9.05397 3.7388 9.13293 3.62187 9.31912 3.55444C9.19209 3.71701 9.18277 3.92381 9.29811 4.16684ZM9.47007 4.12204C9.57186 4.09759 9.68962 4.07327 9.78397 4.06492V3.45825C9.39658 3.5942 9.30351 3.80219 9.47007 4.12204ZM9.95704 4.07037C10.0869 4.0874 10.2445 4.12639 10.3464 4.15383L10.2953 4.12564C10.4682 3.79662 10.3679 3.58552 9.95704 3.44929V4.07037ZM10.4491 3.55571C10.5787 3.72261 10.5846 3.93596 10.4593 4.18714C10.6119 4.18943 10.6834 4.10136 10.6981 3.90687C10.7107 3.73986 10.6328 3.62334 10.4491 3.55571Z" fill="#F6C540"/>
<path fill-rule="evenodd" clip-rule="evenodd" d="M9.84597 3.44974C9.95749 3.44974 10.0479 3.35934 10.0479 3.24782C10.0479 3.1363 9.95749 3.0459 9.84597 3.0459C9.73445 3.0459 9.64404 3.1363 9.64404 3.24782C9.64404 3.35934 9.73445 3.44974 9.84597 3.44974Z" fill="#3D58DB"/>
<path fill-rule="evenodd" clip-rule="evenodd" d="M9.87425 2.81162L9.81368 2.81285L9.81338 2.91085L9.7016 2.91124L9.70268 2.97073L9.81319 2.97034L9.81284 3.08204L9.87341 3.08081L9.87375 2.97012L9.98372 2.96973L9.98263 2.91024L9.87394 2.91063L9.87425 2.81162Z" fill="#F6C540"/>
<path fill-rule="evenodd" clip-rule="evenodd" d="M8.72094 6.47501C8.72094 6.47501 9.432 6.34082 9.8171 6.34082C10.1628 6.34082 10.9133 6.47501 10.9133 6.47501C10.9133 7.32504 11.1525 7.84544 10.9133 8.42602C10.674 9.00659 10.0895 8.72752 9.8249 9.28309C9.48677 8.75612 9.03012 9.04619 8.72094 8.2958C8.41177 7.54541 8.9089 7.19979 8.72094 6.47501Z" fill="#1E5E91"/>
<mask id="mask1_85465_14598" style="mask-type:luminance" maskUnits="userSpaceOnUse" x="8" y="6" width="4" height="4">
<path fill-rule="evenodd" clip-rule="evenodd" d="M8.72094 6.47501C8.72094 6.47501 9.432 6.34082 9.8171 6.34082C10.1628 6.34082 10.9133 6.47501 10.9133 6.47501C10.9133 7.32504 11.1525 7.84544 10.9133 8.42602C10.674 9.00659 10.0895 8.72752 9.8249 9.28309C9.48677 8.75612 9.03012 9.04619 8.72094 8.2958C8.41177 7.54541 8.9089 7.19979 8.72094 6.47501Z" fill="white"/>
</mask>
<g mask="url(#mask1_85465_14598)">
<rect x="8.72095" y="8.24854" width="2.19231" height="1.06419" fill="#5EAA22"/>
<path fill-rule="evenodd" clip-rule="evenodd" d="M9.36922 6.89406C9.28544 6.71602 9.80941 6.69531 9.80941 6.69531C9.80941 6.69531 9.9224 6.89406 9.80941 7.17686C9.72723 7.38253 9.86428 7.36419 10.0534 7.33889C10.1243 7.3294 10.2025 7.31893 10.2793 7.31893C10.3968 7.31893 10.4587 7.31031 10.51 7.32961C10.5816 7.35652 10.6329 7.43765 10.786 7.67193C10.856 7.77891 10.8529 7.84935 10.8107 7.89147C10.8143 8.0003 10.6959 8.09051 10.477 8.14826L10.4482 8.03375C10.564 8.0032 10.6349 7.97399 10.6678 7.94171C10.5028 7.95176 10.2793 7.87021 10.2793 7.76544C10.2793 7.61052 9.75116 7.64314 9.43337 7.66277C9.35242 7.66777 9.28511 7.67193 9.24366 7.67193C9.05883 7.67193 9.20054 7.44605 9.32951 7.2405C9.34301 7.21897 9.35638 7.19766 9.36922 7.17686C9.43545 7.06954 9.45694 7.04215 9.4518 7.02133C9.44643 6.99958 9.41202 6.98501 9.36922 6.89406ZM10.6262 6.8665C10.3096 6.81625 10.132 6.86486 10.132 7.04199C10.132 7.21058 10.3005 7.28369 10.6087 7.28256C10.6207 7.28648 10.6313 7.29033 10.6403 7.29407C10.6288 7.29953 10.6147 7.3053 10.5982 7.31125L10.6365 7.42279C10.8308 7.35272 10.8308 7.22804 10.6341 7.16682L10.6257 7.1642L10.6169 7.16427C10.3607 7.16639 10.2474 7.11834 10.2474 7.04199C10.2474 6.97253 10.3549 6.9431 10.6085 6.98335L10.6262 6.8665Z" fill="#F6C540"/>
</g>
</g>
</g>
<rect x="0.5" y="0.5" width="19" height="14" rx="0.5" stroke="black" stroke-opacity="0.1"/>
<defs>
<clipPath id="clip0_85465_14598">
<rect width="20" height="15" rx="1" fill="white"/>
</clipPath>
</defs>
</svg>
