<svg width="20" height="15" viewBox="0 0 20 15" fill="none" xmlns="http://www.w3.org/2000/svg">
<g clip-path="url(#clip0_85465_14659)">
<rect width="20" height="15" rx="1" fill="white"/>
<path fill-rule="evenodd" clip-rule="evenodd" d="M0 0V15H20V0H0Z" fill="#F50100"/>
<mask id="mask0_85465_14659" style="mask-type:luminance" maskUnits="userSpaceOnUse" x="0" y="0" width="20" height="15">
<path fill-rule="evenodd" clip-rule="evenodd" d="M0 0V15H20V0H0Z" fill="white"/>
</mask>
<g mask="url(#mask0_85465_14659)">
<path fill-rule="evenodd" clip-rule="evenodd" d="M0 -0.0263672V2.52608L8.75 6.24561L2.03452 -0.0263672H0ZM10 7.49986L11.875 -0.000142086H8.125L10 7.49986ZM10 7.49986L8.125 14.9999H11.875L10 7.49986ZM0 12.4694V15.0218L2.03452 15.0218L8.75 8.74986L0 12.4694ZM20 2.54132V-0.0111317L17.9655 -0.0111318L11.25 6.26085L20 2.54132ZM20 15.0371V12.4846L11.25 8.76509L17.9655 15.0371L20 15.0371ZM20 5.62486L12.5 7.49986L20 9.37486V5.62486ZM7.5 7.49986L0 5.62486V9.37486L7.5 7.49986Z" fill="#FFD018"/>
<path d="M10 10.625C11.7259 10.625 13.125 9.22589 13.125 7.5C13.125 5.77411 11.7259 4.375 10 4.375C8.27411 4.375 6.875 5.77411 6.875 7.5C6.875 9.22589 8.27411 10.625 10 10.625Z" fill="#FFD018" stroke="#F50100" stroke-width="1.25"/>
</g>
</g>
<rect x="0.5" y="0.5" width="19" height="14" rx="0.5" stroke="black" stroke-opacity="0.1"/>
<defs>
<clipPath id="clip0_85465_14659">
<rect width="20" height="15" rx="1" fill="white"/>
</clipPath>
</defs>
</svg>
