<svg width="20" height="15" viewBox="0 0 20 15" fill="none" xmlns="http://www.w3.org/2000/svg">
<g clip-path="url(#clip0_85465_14688)">
<rect width="20" height="15" rx="1" fill="white"/>
<path fill-rule="evenodd" clip-rule="evenodd" d="M6 0H14V15H6V0Z" fill="#4C67E8"/>
<path fill-rule="evenodd" clip-rule="evenodd" d="M13 0H20V15H13V0Z" fill="#C51918"/>
<path fill-rule="evenodd" clip-rule="evenodd" d="M0 0H8V15H0V0Z" fill="#C51918"/>
<path fill-rule="evenodd" clip-rule="evenodd" d="M3.75867 4.30245C3.12533 4.30245 3.20846 3.68536 3.20846 3.68536L3.50875 3.03686V3.29809V3.68536C3.50875 3.76878 3.62256 3.60195 3.62256 3.40113C3.62256 3.20031 3.75867 2.8996 3.75867 2.8996C3.75867 2.8996 3.76413 2.79905 3.7679 2.69976C3.78968 2.75085 3.83335 2.79508 3.89965 2.86223C3.91121 2.87393 3.92346 2.88634 3.9364 2.8996C4.01464 2.97978 4.00409 3.19219 3.99496 3.37597C3.98669 3.54241 3.97958 3.68536 4.04066 3.68536C4.16918 3.68536 4.15963 3.11113 4.15963 3.11113L4.37534 3.68536C4.37534 3.68536 4.39201 4.30245 3.75867 4.30245ZM3.75867 2.54015C3.77479 2.44593 3.77275 2.5718 3.7679 2.69976C3.74971 2.65711 3.74678 2.60968 3.75867 2.54015ZM4.71154 5.42719C4.71154 5.92887 4.29181 6.33556 3.77404 6.33556C3.25627 6.33556 2.83654 5.92887 2.83654 5.42719C2.83654 4.9255 3.25627 4.51881 3.77404 4.51881C4.29181 4.51881 4.71154 4.9255 4.71154 5.42719ZM2.35577 7.12748H1.25V12.4846H2.35577V7.12748ZM6.25 7.12748H5.14423V12.4846H6.25V7.12748ZM2.64423 7.17407L3.72218 7.84147L4.93711 7.17407H2.64423ZM3.72218 12.4998L2.64423 11.8324H4.93711L3.72218 12.4998ZM2.64423 8.05915H4.90385V8.4784H2.64423V8.05915ZM4.90385 11.1802H2.64423V11.5995H4.90385V11.1802ZM3.79808 10.9473C4.43533 10.9473 4.95192 10.4468 4.95192 9.82932C4.95192 9.21187 4.43533 8.71132 3.79808 8.71132C3.16083 8.71132 2.64423 9.21187 2.64423 9.82932C2.64423 10.4468 3.16083 10.9473 3.79808 10.9473ZM2.502 5.75994C2.502 5.75994 2.54085 6.92703 3.69117 6.92703C4.84149 6.92703 5.02715 5.75994 5.02715 5.75994C5.02715 5.75994 4.5819 6.47485 3.76457 6.47485C2.94725 6.47485 2.502 5.75994 2.502 5.75994Z" fill="#F8D000"/>
</g>
<rect x="0.5" y="0.5" width="19" height="14" rx="0.5" stroke="black" stroke-opacity="0.1"/>
<defs>
<clipPath id="clip0_85465_14688">
<rect width="20" height="15" rx="1" fill="white"/>
</clipPath>
</defs>
</svg>
