<svg width="20" height="15" viewBox="0 0 20 15" fill="none" xmlns="http://www.w3.org/2000/svg">
<g clip-path="url(#clip0_85465_14705)">
<rect width="20" height="15" rx="1" fill="white"/>
<path fill-rule="evenodd" clip-rule="evenodd" d="M0 0V15H20V0H0Z" fill="#1C9975"/>
<mask id="mask0_85465_14705" style="mask-type:luminance" maskUnits="userSpaceOnUse" x="0" y="0" width="20" height="15">
<path fill-rule="evenodd" clip-rule="evenodd" d="M0 0V15H20V0H0Z" fill="white"/>
</mask>
<g mask="url(#mask0_85465_14705)">
<path fill-rule="evenodd" clip-rule="evenodd" d="M10.0135 4.28358L8.9924 4.9L9.22531 3.69712L8.375 2.79687L9.52636 2.7482L10.0135 1.625L10.5006 2.7482H11.65L10.8017 3.69712L11.0571 4.9L10.0135 4.28358Z" fill="#FECA00"/>
<path fill-rule="evenodd" clip-rule="evenodd" d="M7.11418 4.74053L6.48283 5.12168L6.62684 4.37791L6.10107 3.82127L6.81298 3.79118L7.11418 3.09668L7.41538 3.79118H8.12607L7.60152 4.37791L7.75944 5.12168L7.11418 4.74053Z" fill="#FECA00"/>
<path fill-rule="evenodd" clip-rule="evenodd" d="M12.863 4.74053L12.2316 5.12168L12.3756 4.37791L11.8499 3.82127L12.5618 3.79118L12.863 3.09668L13.1642 3.79118H13.8749L13.3503 4.37791L13.5082 5.12168L12.863 4.74053Z" fill="#FECA00"/>
<path fill-rule="evenodd" clip-rule="evenodd" d="M5.479 6.00664L4.97236 6.3125L5.08792 5.71565L4.66602 5.26896L5.2373 5.24481L5.479 4.6875L5.7207 5.24481H6.29102L5.87008 5.71565L5.99681 6.3125L5.479 6.00664Z" fill="#FECA00"/>
<path fill-rule="evenodd" clip-rule="evenodd" d="M14.7253 6.00664L14.2187 6.3125L14.3343 5.71565L13.9124 5.26896L14.4836 5.24481L14.7253 4.6875L14.967 5.24481H15.5374L15.1164 5.71565L15.2431 6.3125L14.7253 6.00664Z" fill="#FECA00"/>
<mask id="mask1_85465_14705" style="mask-type:luminance" maskUnits="userSpaceOnUse" x="5" y="3" width="10" height="11">
<path fill-rule="evenodd" clip-rule="evenodd" d="M10 13.75C12.7614 13.75 15 11.5114 15 8.75C15 5.98858 12.7614 3.75 10 3.75C7.23858 3.75 5 5.98858 5 8.75C5 11.5114 7.23858 13.75 10 13.75Z" fill="white"/>
</mask>
<g mask="url(#mask1_85465_14705)">
<path fill-rule="evenodd" clip-rule="evenodd" d="M7.92554 13.165H12.0745V13.8353H7.92554V13.165Z" fill="#F7FCFF"/>
<path fill-rule="evenodd" clip-rule="evenodd" d="M6.22339 12.1626H14.2021V12.777H6.22339V12.1626Z" fill="#F7FCFF"/>
<path d="M7.88771 11.888H5.44727V11.263L7.88332 11.263C8.74626 11.2509 9.37683 11.0044 9.79756 10.5302L10.0072 10.2939L10.2412 10.5061C10.8031 11.0156 11.3644 11.263 11.9322 11.263H14.6224V11.888H11.9322C11.2799 11.888 10.6501 11.6426 10.048 11.1622C9.51467 11.6349 8.79054 11.8753 7.88771 11.888Z" fill="#F7FCFF"/>
</g>
<path fill-rule="evenodd" clip-rule="evenodd" d="M10.0218 4.75488C10.0218 4.75488 8.95383 5.80988 8.95383 7.25775C8.95383 7.56759 9.00274 7.8603 9.07963 8.12903C8.73555 7.36645 8.71171 6.53954 9.00866 5.63754L8.60447 5.50447C8.30239 6.42206 8.30108 7.28477 8.60099 8.08429C7.9806 7.7105 7.26683 7.45935 6.53421 7.37837L6.48746 7.80132C7.12772 7.8721 7.75264 8.08559 8.3013 8.40162C8.16584 8.347 8.0238 8.29949 7.87562 8.26167C6.52378 7.91665 5.19751 8.40587 5.19751 8.40587C5.19751 8.40587 5.96257 10.1223 7.44437 10.3754C7.51825 10.388 7.59128 10.3978 7.66337 10.4051L7.65218 10.4051C6.94568 10.4051 6.28867 10.1163 5.67344 9.52942L5.37973 9.83734C6.07077 10.4965 6.83083 10.8306 7.65218 10.8306C8.45546 10.8306 9.20149 10.511 9.88316 9.88038C9.99251 9.81434 10.0565 9.76709 10.0667 9.75941L10.0936 9.78222C10.0795 9.80636 10.0725 9.81952 10.0725 9.81952C10.0725 9.81952 10.1397 9.86021 10.2608 9.91752C10.9339 10.4392 11.776 10.8306 12.4423 10.8306C13.2637 10.8306 14.0237 10.4965 14.7148 9.83734L14.421 9.52942C13.8058 10.1163 13.1488 10.4051 12.4423 10.4051C12.1842 10.4051 11.9313 10.3637 11.6832 10.2802C12.0306 10.2989 12.4133 10.2676 12.8095 10.1465C14.2691 9.70023 14.8776 8.35045 14.8776 8.35045C14.8776 8.35045 14.1009 7.93139 13.1145 7.92668C13.3355 7.86968 13.5662 7.8279 13.8066 7.80132L13.7599 7.37837C12.8347 7.48063 12.0343 7.79289 11.3629 8.31394C11.7555 7.45072 11.7859 6.51059 11.4546 5.50447L11.0504 5.63754C11.3211 6.45969 11.3253 7.21946 11.0633 7.92499C11.1082 7.71637 11.1347 7.49338 11.1347 7.25775C11.1347 5.7314 10.0218 4.75488 10.0218 4.75488ZM10.4916 9.22215L10.4758 9.24497L10.4951 9.22194L10.4916 9.22215ZM9.4594 9.12248L9.50122 9.08401C9.53926 9.14719 9.5772 9.20667 9.61429 9.26219C9.56619 9.2169 9.51452 9.17009 9.4594 9.12248Z" fill="#F7FCFF"/>
</g>
</g>
<rect x="0.5" y="0.5" width="19" height="14" rx="0.5" stroke="black" stroke-opacity="0.1"/>
<defs>
<clipPath id="clip0_85465_14705">
<rect width="20" height="15" rx="1" fill="white"/>
</clipPath>
</defs>
</svg>
