<svg width="20" height="15" viewBox="0 0 20 15" fill="none" xmlns="http://www.w3.org/2000/svg">
<g clip-path="url(#clip0_85465_14733)">
<rect width="20" height="15" rx="1" fill="white"/>
<path fill-rule="evenodd" clip-rule="evenodd" d="M0 0H21.25V15H0V0Z" fill="#2993EC"/>
<path fill-rule="evenodd" clip-rule="evenodd" d="M3.88306 7.23958C3.88306 10.5475 6.62174 13.2292 10.0001 13.2292C13.3784 13.2292 16.1171 10.5475 16.1171 7.23958C16.1171 3.93163 13.3784 1.25 10.0001 1.25C6.62174 1.25 3.88306 3.93163 3.88306 7.23958ZM14.7873 7.23958C14.7873 9.82842 12.644 11.9271 10.0001 11.9271C7.35616 11.9271 5.21284 9.82842 5.21284 7.23958C5.21284 4.65075 7.35616 2.55208 10.0001 2.55208C12.644 2.55208 14.7873 4.65075 14.7873 7.23958Z" fill="#F1F9FF"/>
<path fill-rule="evenodd" clip-rule="evenodd" d="M4.41479 7.23975C4.41479 10.2601 6.91533 12.7085 9.9999 12.7085C13.0845 12.7085 15.585 10.2601 15.585 7.23975C15.585 4.21944 13.0845 1.771 9.9999 1.771C6.91533 1.771 4.41479 4.21944 4.41479 7.23975ZM15.3191 7.23975C15.3191 10.1162 12.9376 12.4481 9.9999 12.4481C7.06222 12.4481 4.68075 10.1162 4.68075 7.23975C4.68075 4.36326 7.06222 2.03141 9.9999 2.03141C12.9376 2.03141 15.3191 4.36326 15.3191 7.23975Z" fill="#E31D1C"/>
<path fill-rule="evenodd" clip-rule="evenodd" d="M9.99998 1.38037C9.93256 1.51954 9.89885 1.71731 9.89885 1.97366C9.89885 2.23002 9.79958 2.48664 9.60105 2.74352C9.56417 2.4607 9.54573 2.20408 9.54573 1.97366C9.54573 1.74324 9.69715 1.54548 9.99998 1.38037ZM11.3976 1.59201C11.3006 1.71245 11.2233 1.89756 11.1656 2.14735C11.108 2.39713 10.9535 2.62484 10.7023 2.83048C10.73 2.54662 10.7697 2.29243 10.8216 2.06791C10.8734 1.8434 11.0654 1.68476 11.3976 1.59201ZM12.3581 2.60508C12.4745 2.37667 12.5943 2.21576 12.7176 2.12237C12.3728 2.132 12.1481 2.23947 12.0435 2.44477C11.9389 2.65008 11.8388 2.8871 11.7433 3.15583C12.0368 3.01708 12.2417 2.8335 12.3581 2.60508ZM13.8695 2.92766C13.7284 2.99093 13.5754 3.12076 13.4106 3.31714C13.2459 3.51352 13.0049 3.6463 12.6877 3.71546C12.8412 3.47511 12.992 3.26668 13.1401 3.09016C13.2882 2.91365 13.5314 2.85948 13.8695 2.92766ZM14.2675 4.24772C14.4722 4.09344 14.6504 4.00135 14.8021 3.97144C14.488 3.82895 14.239 3.82704 14.0549 3.96571C13.8709 4.10438 13.6771 4.27354 13.4734 4.4732C13.798 4.47716 14.0627 4.402 14.2675 4.24772ZM15.4666 5.21032C15.3121 5.20263 15.1169 5.24887 14.8809 5.34904C14.645 5.44921 14.37 5.4581 14.0559 5.37572C14.3019 5.23127 14.5309 5.11403 14.743 5.024C14.9551 4.93396 15.1963 4.99607 15.4666 5.21032ZM15.2203 6.55697C15.4727 6.51246 15.6733 6.51132 15.8221 6.55355C15.6069 6.28399 15.3859 6.16921 15.1589 6.20922C14.932 6.24924 14.6825 6.31195 14.4104 6.39738C14.6978 6.54829 14.9678 6.60149 15.2203 6.55697ZM3.80249 6.1062C3.92784 6.19677 4.11675 6.26431 4.36921 6.30882C4.62167 6.35334 4.85715 6.49566 5.07565 6.73578C4.79073 6.72299 4.53481 6.69658 4.30789 6.65657C4.08097 6.61656 3.9125 6.4331 3.80249 6.1062ZM4.76323 5.11709C4.52725 5.01692 4.35838 4.90862 4.25661 4.79218C4.29027 5.13545 4.41315 5.3521 4.62525 5.44213C4.83736 5.53217 5.08078 5.61546 5.35552 5.69202C5.19663 5.4089 4.9992 5.21726 4.76323 5.11709ZM5.01695 3.60866C5.08752 3.74626 5.22518 3.8922 5.42991 4.04648C5.63465 4.20076 5.77985 4.43448 5.86552 4.74763C5.61746 4.60687 5.40142 4.46716 5.2174 4.32849C5.03338 4.18982 4.96656 3.94988 5.01695 3.60866ZM6.32811 3.15517C6.16333 2.95879 6.06203 2.78562 6.02422 2.63567C5.89837 2.95681 5.9095 3.20564 6.05761 3.38215C6.20572 3.55866 6.38479 3.74339 6.59483 3.93634C6.5818 3.61194 6.49289 3.35155 6.32811 3.15517ZM7.23288 1.91614C7.23599 2.07076 7.29574 2.26227 7.41212 2.49069C7.52851 2.7191 7.55656 2.99282 7.49628 3.31183C7.33503 3.07658 7.2021 2.8563 7.0975 2.651C6.99289 2.44569 7.03802 2.20074 7.23288 1.91614ZM8.62561 2.09066C8.56794 1.84088 8.5563 1.6406 8.59069 1.48983C8.33276 1.71883 8.22971 1.94558 8.28154 2.1701C8.33337 2.39461 8.40907 2.6405 8.50861 2.90777C8.64428 2.61282 8.68327 2.34045 8.62561 2.09066Z" fill="#FDDA33"/>
<path fill-rule="evenodd" clip-rule="evenodd" d="M9.11627 3.59375C8.88705 3.59375 8.71653 3.80563 8.76553 4.02955L9.00732 5.13438C9.02856 5.23145 9.08792 5.31209 9.16759 5.36199C9.09411 5.41912 9.04312 5.50442 9.03137 5.60302L8.16415 12.8815C8.14824 13.015 8.20798 13.1459 8.32473 13.2126C8.65113 13.3992 9.35878 13.75 10.0664 13.75C10.7741 13.75 11.4817 13.3992 11.8081 13.2126C11.9249 13.1459 11.9846 13.015 11.9687 12.8815L11.1015 5.60302C11.0897 5.50442 11.0388 5.41912 10.9653 5.36199C11.045 5.31209 11.1043 5.23145 11.1256 5.13438L11.3673 4.02955C11.4163 3.80563 11.2458 3.59375 11.0166 3.59375H9.11627Z" fill="#A7A7A7"/>
<path d="M4.07446 7.50784C4.10669 7.4047 4.21822 7.34667 4.32356 7.37823C4.42891 7.40979 4.48817 7.519 4.45594 7.62214C4.40016 7.80061 4.40016 8.0642 4.46169 8.40907C4.48529 8.54135 4.51335 8.64348 4.54786 8.73371C4.5616 8.76965 4.57582 8.80255 4.59481 8.84338C4.58636 8.8252 4.63272 8.92367 4.64399 8.94919C4.70361 9.08412 4.72997 9.20238 4.72997 9.37562C4.72997 9.48349 4.64067 9.57094 4.53051 9.57094C4.42034 9.57094 4.33104 9.48349 4.33104 9.37562C4.33104 9.25723 4.31638 9.1915 4.27785 9.10429C4.26877 9.08374 4.22547 8.99176 4.23177 9.00532C4.20926 8.95694 4.19163 8.91614 4.17426 8.8707C4.13096 8.75749 4.09649 8.63201 4.06871 8.47629C3.99733 8.07619 3.99733 7.75466 4.07446 7.50784Z" fill="#73BE4A"/>
<path fill-rule="evenodd" clip-rule="evenodd" d="M10.1331 10.1121L7.5615 11.8643L8.46871 8.92811L5.97218 7.07482L9.10443 7.01232L10.1331 4.11475L11.1617 7.01232L14.2939 7.07482L11.7974 8.92811L12.7046 11.8643L10.1331 10.1121Z" fill="#F7FCFF"/>
<path d="M15.9746 7.76859C15.9424 7.66544 15.8309 7.60741 15.7255 7.63897C15.6202 7.67053 15.5609 7.77974 15.5931 7.88289C15.6489 8.06135 15.6489 8.32494 15.5874 8.66981C15.5638 8.80209 15.5357 8.90423 15.5012 8.99445C15.4875 9.0304 15.4733 9.06329 15.4543 9.10412C15.4627 9.08594 15.4164 9.18441 15.4051 9.20993C15.3455 9.34487 15.3191 9.46312 15.3191 9.63637C15.3191 9.74423 15.4084 9.83168 15.5186 9.83168C15.6287 9.83168 15.718 9.74423 15.718 9.63637C15.718 9.51797 15.7327 9.45224 15.7712 9.36503C15.7803 9.34448 15.8236 9.2525 15.8173 9.26606C15.8398 9.21768 15.8574 9.17689 15.8748 9.13144C15.9181 9.01824 15.9526 8.89275 15.9804 8.73703C16.0517 8.33693 16.0517 8.01541 15.9746 7.76859Z" fill="#73BE4A"/>
<path d="M10.0381 1.96729C10.0381 1.96729 10.7658 2.29149 10.4515 2.80197" stroke="#73BE4A" stroke-width="0.625" stroke-linecap="round" stroke-linejoin="round"/>
<path d="M10.5698 1.96729C10.5698 1.96729 11.2976 2.29149 10.9833 2.80197" stroke="#73BE4A" stroke-width="0.625" stroke-linecap="round" stroke-linejoin="round"/>
<path d="M5.78736 3.97275C5.84012 3.88142 5.95094 3.85392 6.03488 3.91133C6.11883 3.96873 6.1441 4.0893 6.09134 4.18062C5.99011 4.35584 5.93741 4.59625 5.93741 4.9045C5.93741 5.01236 5.85704 5.09981 5.75789 5.09981C5.65874 5.09981 5.57837 5.01236 5.57837 4.9045C5.57837 4.52778 5.64664 4.21631 5.78736 3.97275Z" fill="#73BE4A"/>
<path d="M5.50528 5.75786C5.50528 5.86573 5.42491 5.95317 5.32576 5.95317C5.22661 5.95317 5.14624 5.86573 5.14624 5.75786V5.20151C5.14624 4.80784 5.20799 4.49782 5.33819 4.27143C5.39078 4.17998 5.50155 4.15224 5.5856 4.20945C5.66965 4.26667 5.69515 4.38718 5.64256 4.47863C5.55328 4.63387 5.50528 4.87484 5.50528 5.20151V5.75786Z" fill="#73BE4A"/>
<path d="M14.6776 5.49761C14.6776 5.60548 14.758 5.69292 14.8571 5.69292C14.9562 5.69292 15.0366 5.60548 15.0366 5.49761V4.94125C15.0366 4.54759 14.9749 4.23757 14.8447 4.01117C14.7921 3.91973 14.6813 3.89198 14.5973 3.9492C14.5132 4.00642 14.4877 4.12693 14.5403 4.21837C14.6296 4.37362 14.6776 4.61459 14.6776 4.94125V5.49761Z" fill="#73BE4A"/>
<path d="M15.2096 6.40874C15.2096 6.51661 15.2899 6.60405 15.3891 6.60405C15.4882 6.60405 15.5686 6.51661 15.5686 6.40874V5.85238C15.5686 5.45872 15.5069 5.1487 15.3766 4.92231C15.3241 4.83086 15.2133 4.80312 15.1292 4.86033C15.0452 4.91755 15.0197 5.03806 15.0723 5.1295C15.1616 5.28475 15.2096 5.52572 15.2096 5.85238V6.40874Z" fill="#73BE4A"/>
</g>
<rect x="0.5" y="0.5" width="19" height="14" rx="0.5" stroke="black" stroke-opacity="0.1"/>
<defs>
<clipPath id="clip0_85465_14733">
<rect width="20" height="15" rx="1" fill="white"/>
</clipPath>
</defs>
</svg>
