<svg width="20" height="15" viewBox="0 0 20 15" fill="none" xmlns="http://www.w3.org/2000/svg">
<g clip-path="url(#clip0_85465_14770)">
<rect width="20" height="15" rx="1" fill="white"/>
<rect width="20" height="15" fill="#21428E"/>
<path fill-rule="evenodd" clip-rule="evenodd" d="M8.75 0H11.25V6.25H20V8.75H11.25V15H8.75V8.75H0V6.25H8.75V0Z" fill="#F7FCFF"/>
<path d="M1.59725 3.96272C1.58073 3.96006 1.56495 3.95742 1.55005 3.95484C1.5663 3.95484 1.58194 3.9576 1.59725 3.96272C1.87443 4.00737 2.35989 4.05871 2.40607 3.95484C2.46722 3.81726 2.69652 3.17524 3.52197 3.19053C4.34742 3.20581 5.0353 3.03768 5.0353 2.50265C5.0353 1.95833 4.79072 1.93706 4.30157 2.07464C3.81241 2.21221 3.00807 2.1143 2.98695 1.79949C2.97294 1.5905 2.0444 1.71028 2.0519 1.54418C2.05474 1.48138 2.89945 1.47298 3.00875 1.34634C3.08937 1.14235 3.30942 1.02576 3.82769 1.03518C4.66844 1.05047 5.76904 1.32562 5.87604 2.07464C5.99834 2.93066 5.99833 3.46569 5.0353 3.67969C4.12493 3.88199 3.82769 3.83255 3.96527 3.95484C4.25655 4.21376 5.87604 3.69497 6.47221 3.95484C6.8228 4.10767 6.94608 5.08602 5.78433 5.10131C4.62258 5.11659 3.79712 5.28474 3.20096 4.82615C2.6048 4.36757 2.95636 4.55099 2.40607 4.45928C1.90077 4.37506 1.76923 4.02019 1.59725 3.96272Z" fill="white"/>
<path d="M1.59725 12.8099C1.58073 12.8072 1.56495 12.8046 1.55005 12.802C1.5663 12.802 1.58194 12.8048 1.59725 12.8099C1.87443 12.8545 2.35989 12.9059 2.40607 12.802C2.46722 12.6644 2.69652 12.0224 3.52197 12.0377C4.34742 12.053 5.0353 11.8848 5.0353 11.3498C5.0353 10.8055 4.79072 10.7842 4.30157 10.9218C3.81241 11.0594 3.00807 10.9615 2.98695 10.6467C2.97294 10.4377 2.0444 10.5575 2.0519 10.3913C2.05474 10.3285 2.89945 10.3201 3.00875 10.1935C3.08937 9.98951 3.30942 9.87293 3.82769 9.88235C4.66844 9.89764 5.76904 10.1728 5.87604 10.9218C5.99834 11.7778 5.99833 12.3129 5.0353 12.5269C4.12493 12.7292 3.82769 12.6797 3.96527 12.802C4.25655 13.0609 5.87604 12.5421 6.47221 12.802C6.8228 12.9548 6.94608 13.9332 5.78433 13.9485C4.62258 13.9638 3.79712 14.1319 3.20096 13.6733C2.6048 13.2147 2.95636 13.3982 2.40607 13.3064C1.90077 13.2222 1.76923 12.8674 1.59725 12.8099Z" fill="white"/>
<path d="M13.0623 3.96272C13.0458 3.96006 13.03 3.95742 13.0151 3.95484C13.0314 3.95484 13.047 3.9576 13.0623 3.96272C13.3395 4.00737 13.825 4.05871 13.8712 3.95484C13.9323 3.81726 14.1616 3.17524 14.9871 3.19053C15.8125 3.20581 16.5004 3.03768 16.5004 2.50265C16.5004 1.95833 16.2558 1.93706 15.7667 2.07464C15.2775 2.21221 14.4732 2.1143 14.452 1.79949C14.438 1.5905 13.5095 1.71028 13.517 1.54418C13.5198 1.48138 14.3645 1.47298 14.4738 1.34634C14.5545 1.14235 14.7745 1.02576 15.2928 1.03518C16.1335 1.05047 17.2341 1.32562 17.3411 2.07464C17.4634 2.93066 17.4634 3.46569 16.5004 3.67969C15.59 3.88199 15.2928 3.83255 15.4304 3.95484C15.7216 4.21376 17.3411 3.69497 17.9373 3.95484C18.2879 4.10767 18.4112 5.08602 17.2494 5.10131C16.0877 5.11659 15.2622 5.28474 14.666 4.82615C14.0699 4.36757 14.4214 4.55099 13.8712 4.45928C13.3659 4.37506 13.2343 4.02019 13.0623 3.96272Z" fill="white"/>
<path d="M13.0623 12.8099C13.0458 12.8072 13.03 12.8046 13.0151 12.802C13.0314 12.802 13.047 12.8048 13.0623 12.8099C13.3395 12.8545 13.825 12.9059 13.8712 12.802C13.9323 12.6644 14.1616 12.0224 14.9871 12.0377C15.8125 12.053 16.5004 11.8848 16.5004 11.3498C16.5004 10.8055 16.2558 10.7842 15.7667 10.9218C15.2775 11.0594 14.4732 10.9615 14.452 10.6467C14.438 10.4377 13.5095 10.5575 13.517 10.3913C13.5198 10.3285 14.3645 10.3201 14.4738 10.1935C14.5545 9.98951 14.7745 9.87293 15.2928 9.88235C16.1335 9.89764 17.2341 10.1728 17.3411 10.9218C17.4634 11.7778 17.4634 12.3129 16.5004 12.5269C15.59 12.7292 15.2928 12.6797 15.4304 12.802C15.7216 13.0609 17.3411 12.5421 17.9373 12.802C18.2879 12.9548 18.4112 13.9332 17.2494 13.9485C16.0877 13.9638 15.2622 14.1319 14.666 13.6733C14.0699 13.2147 14.4214 13.3982 13.8712 13.3064C13.3659 13.2222 13.2343 12.8674 13.0623 12.8099Z" fill="white"/>
</g>
<rect x="0.5" y="0.5" width="19" height="14" rx="0.5" stroke="black" stroke-opacity="0.1"/>
<defs>
<clipPath id="clip0_85465_14770">
<rect width="20" height="15" rx="1" fill="white"/>
</clipPath>
</defs>
</svg>
