<svg width="20" height="15" viewBox="0 0 20 15" fill="none" xmlns="http://www.w3.org/2000/svg">
<rect width="20" height="15" rx="1" fill="white"/>
<rect x="0.5" y="0.5" width="19" height="14" rx="0.5" stroke="black" stroke-opacity="0.1"/>
<mask id="path-3-inside-1_85465_14793" fill="white">
<path fill-rule="evenodd" clip-rule="evenodd" d="M6.25 3.7998H3.75V5.67014C3.47464 5.73546 3.2698 5.98295 3.2698 6.27828C3.2698 6.28548 3.26992 6.29266 3.27016 6.2998H1.25V8.7998H3.33171C3.41244 8.96691 3.56537 9.09261 3.75 9.13641V11.2998H6.25V9.14445C6.45225 9.11016 6.62144 8.97872 6.70788 8.7998H8.75V6.2998H6.76942C6.76966 6.29266 6.76979 6.28548 6.76979 6.27828C6.76979 5.96896 6.54508 5.71212 6.25 5.6621V3.7998Z"/>
</mask>
<path fill-rule="evenodd" clip-rule="evenodd" d="M6.25 3.7998H3.75V5.67014C3.47464 5.73546 3.2698 5.98295 3.2698 6.27828C3.2698 6.28548 3.26992 6.29266 3.27016 6.2998H1.25V8.7998H3.33171C3.41244 8.96691 3.56537 9.09261 3.75 9.13641V11.2998H6.25V9.14445C6.45225 9.11016 6.62144 8.97872 6.70788 8.7998H8.75V6.2998H6.76942C6.76966 6.29266 6.76979 6.28548 6.76979 6.27828C6.76979 5.96896 6.54508 5.71212 6.25 5.6621V3.7998Z" fill="#A0A0A0"/>
<path d="M3.75 3.7998V3.1748H3.125V3.7998H3.75ZM6.25 3.7998H6.875V3.1748H6.25V3.7998ZM3.75 5.67014L3.89426 6.27826L4.375 6.16422V5.67014H3.75ZM3.27016 6.2998V6.9248H3.91667L3.89481 6.27867L3.27016 6.2998ZM1.25 6.2998V5.6748H0.625V6.2998H1.25ZM1.25 8.7998H0.625V9.4248H1.25V8.7998ZM3.33171 8.7998L3.89448 8.52792L3.72388 8.1748H3.33171V8.7998ZM3.75 9.13641H4.375V8.64232L3.89426 8.52828L3.75 9.13641ZM3.75 11.2998H3.125V11.9248H3.75V11.2998ZM6.25 11.2998V11.9248H6.875V11.2998H6.25ZM6.25 9.14445L6.14554 8.52824L5.625 8.61648V9.14445H6.25ZM6.70788 8.7998V8.1748H6.31571L6.14511 8.52792L6.70788 8.7998ZM8.75 8.7998V9.4248H9.375V8.7998H8.75ZM8.75 6.2998H9.375V5.6748H8.75V6.2998ZM6.76942 6.2998L6.14478 6.27867L6.12292 6.9248H6.76942V6.2998ZM6.25 5.6621H5.625V6.19006L6.14554 6.27831L6.25 5.6621ZM3.75 4.4248H6.25V3.1748H3.75V4.4248ZM4.375 5.67014V3.7998H3.125V5.67014H4.375ZM3.8948 6.27828L3.89426 6.27826L3.60574 5.06202C3.05501 5.19266 2.6448 5.6868 2.6448 6.27828H3.8948ZM3.89481 6.27867L3.8948 6.27828H2.6448C2.6448 6.29253 2.64504 6.30675 2.64552 6.32094L3.89481 6.27867ZM1.25 6.9248H3.27016V5.6748H1.25V6.9248ZM1.875 8.7998V6.2998H0.625V8.7998H1.875ZM3.33171 8.1748H1.25V9.4248H3.33171V8.1748ZM3.89426 8.52828L3.89448 8.52792L2.76894 9.07169C2.93005 9.40515 3.23493 9.65657 3.60574 9.74453L3.89426 8.52828ZM4.375 11.2998V9.13641H3.125V11.2998H4.375ZM6.25 10.6748H3.75V11.9248H6.25V10.6748ZM5.625 9.14445V11.2998H6.875V9.14445H5.625ZM6.35446 9.76066C6.76086 9.69176 7.09825 9.42851 7.27064 9.07169L6.14511 8.52792L6.14554 8.52824L6.35446 9.76066ZM8.75 8.1748H6.70788V9.4248H8.75V8.1748ZM8.125 6.2998V8.7998H9.375V6.2998H8.125ZM6.76942 6.9248H8.75V5.6748H6.76942V6.9248ZM6.14479 6.27828L6.14478 6.27867L7.39406 6.32094C7.39454 6.30677 7.39479 6.29255 7.39479 6.27828H6.14479ZM6.14554 6.27831L6.14479 6.27828H7.39479C7.39479 5.65901 6.94509 5.14601 6.35446 5.04589L6.14554 6.27831ZM5.625 3.7998V5.6621H6.875V3.7998H5.625Z" fill="#FECA00" mask="url(#path-3-inside-1_85465_14793)"/>
<path fill-rule="evenodd" clip-rule="evenodd" d="M10 0H20V15H10V0Z" fill="#E31D1C"/>
<mask id="mask0_85465_14793" style="mask-type:luminance" maskUnits="userSpaceOnUse" x="10" y="0" width="10" height="15">
<path fill-rule="evenodd" clip-rule="evenodd" d="M10 0H20V15H10V0Z" fill="white"/>
</mask>
<g mask="url(#mask0_85465_14793)">
</g>
</svg>
