<svg width="20" height="15" viewBox="0 0 20 15" fill="none" xmlns="http://www.w3.org/2000/svg">
<g clip-path="url(#clip0_85465_14814)">
<rect width="20" height="15" rx="1" fill="white"/>
<path fill-rule="evenodd" clip-rule="evenodd" d="M0 0H20V13.75C20 14.4404 19.4404 15 18.75 15H1.25C0.559644 15 0 14.4404 0 13.75V0Z" fill="#C51918"/>
<path fill-rule="evenodd" clip-rule="evenodd" d="M0 0H20V15H0V0Z" fill="#C51918"/>
<path fill-rule="evenodd" clip-rule="evenodd" d="M3 3H17V12H3V3Z" fill="#579D20"/>
<path d="M3.625 3.625H16.375V11.375H3.625V3.625Z" stroke="#B6EB9A" stroke-opacity="0.238111" stroke-width="1.25"/>
<mask id="mask0_85465_14814" style="mask-type:luminance" maskUnits="userSpaceOnUse" x="3" y="3" width="14" height="9">
<path fill-rule="evenodd" clip-rule="evenodd" d="M3 3H17V12H3V3Z" fill="white"/>
<path d="M3.625 3.625H16.375V11.375H3.625V3.625Z" stroke="white" stroke-width="1.25"/>
</mask>
<g mask="url(#mask0_85465_14814)">
<path fill-rule="evenodd" clip-rule="evenodd" d="M10.0207 7.78888C10.01 9.70494 11.5185 10.7265 11.5185 10.7265C9.79726 10.9286 8.6521 9.36826 8.6521 7.80756C8.6521 6.24685 10.2131 4.95764 11.5185 4.37549C11.5185 4.37549 10.0313 5.87283 10.0207 7.78888Z" fill="#F9FAFA"/>
</g>
</g>
<rect x="0.5" y="0.5" width="19" height="14" rx="0.5" stroke="black" stroke-opacity="0.1"/>
<defs>
<clipPath id="clip0_85465_14814">
<rect width="20" height="15" rx="1" fill="white"/>
</clipPath>
</defs>
</svg>
