<svg width="20" height="15" viewBox="0 0 20 15" fill="none" xmlns="http://www.w3.org/2000/svg">
<g clip-path="url(#clip0_85465_14822)">
<rect width="20" height="15" rx="1" fill="white"/>
<path fill-rule="evenodd" clip-rule="evenodd" d="M0 0V15H20V0H0Z" fill="#E11C1B"/>
<mask id="mask0_85465_14822" style="mask-type:luminance" maskUnits="userSpaceOnUse" x="0" y="0" width="20" height="15">
<path fill-rule="evenodd" clip-rule="evenodd" d="M0 0V15H20V0H0Z" fill="white"/>
</mask>
<g mask="url(#mask0_85465_14822)">
<path fill-rule="evenodd" clip-rule="evenodd" d="M0 0V6H20V0H0Z" fill="#272727"/>
<path fill-rule="evenodd" clip-rule="evenodd" d="M0 10V15H20V10H0Z" fill="#5EAA22"/>
<path fill-rule="evenodd" clip-rule="evenodd" d="M2.50109 8.66637V8.66485L2.49524 8.66585L2.50109 8.66637ZM2.89387 6.27945H2.95824L2.85958 6.26434L2.89387 6.27945ZM4.72357 6.27945C4.75629 6.21655 4.79046 6.15433 4.82603 6.09282L3.39512 5.14562L5.08286 5.69464C5.17725 5.56265 5.27845 5.43468 5.38604 5.31109L4.14579 4.13027L5.72631 4.95503C5.84225 4.84432 5.96377 4.73805 6.0905 4.63655L5.08744 3.2509L6.50402 4.33459C6.6358 4.24699 6.77201 4.16411 6.91231 4.08626L6.18982 2.53579L7.38647 3.84936C7.52908 3.7856 7.67511 3.72673 7.82425 3.67303L7.41749 2.00792L8.34408 3.51039C8.49325 3.47052 8.64497 3.43565 8.79896 3.406L8.731 1.68425L9.34733 3.32388C9.49952 3.30747 9.65351 3.2961 9.80908 3.28995L10.0881 1.5752L10.3673 3.29045C10.5226 3.29687 10.6765 3.30851 10.8284 3.32517L11.4453 1.68425L11.3772 3.40837C11.5306 3.43821 11.6818 3.47323 11.8304 3.51322L12.7588 2.00792L12.351 3.67712C12.4993 3.73082 12.6444 3.78963 12.7862 3.85328L13.9864 2.53579L13.2614 4.0917C13.4006 4.16927 13.5357 4.2518 13.6665 4.33897L15.0888 3.2509L14.0812 4.64281C14.2067 4.74369 14.3271 4.84926 14.442 4.95919L16.0305 4.13027L14.7835 5.31751C14.8899 5.44012 14.99 5.56704 15.0834 5.6979L16.7811 5.14562L15.3413 6.09872C15.3757 6.1583 15.4087 6.21856 15.4404 6.27945H14.2123C13.366 5.10632 11.8192 4.32093 10.0512 4.32093C8.28324 4.32093 6.73641 5.10632 5.8901 6.27945H4.72357ZM6.59985 6.27945C7.40166 5.45246 8.66065 4.91961 10.0763 4.91961C11.492 4.91961 12.751 5.45246 13.5528 6.27945H6.59985ZM17.218 6.27945H17.2824L17.3167 6.26434L17.218 6.27945ZM17.6761 8.665L17.681 8.66585L17.6761 8.66629V8.665Z" fill="#E11C1B"/>
</g>
</g>
<rect x="0.5" y="0.5" width="19" height="14" rx="0.5" stroke="black" stroke-opacity="0.1"/>
<defs>
<clipPath id="clip0_85465_14822">
<rect width="20" height="15" rx="1" fill="white"/>
</clipPath>
</defs>
</svg>
