<svg width="20" height="15" viewBox="0 0 20 15" fill="none" xmlns="http://www.w3.org/2000/svg">
<g clip-path="url(#clip0_85465_14839)">
<rect width="20" height="15" rx="1" fill="white"/>
<path fill-rule="evenodd" clip-rule="evenodd" d="M14 0H20V15H14V0Z" fill="#D9071E"/>
<path fill-rule="evenodd" clip-rule="evenodd" d="M0 0H6V15H0V0Z" fill="#006923"/>
<path fill-rule="evenodd" clip-rule="evenodd" d="M6 0H14V15H6V0Z" fill="white"/>
<path fill-rule="evenodd" clip-rule="evenodd" d="M8.99003 4.9458C8.99003 4.9458 8.56079 5.27871 8.64106 5.63364C8.72134 5.98856 9.56728 5.63364 9.46502 5.28972C9.36275 4.9458 8.99003 4.9458 8.99003 4.9458Z" fill="#FCCA3D"/>
<path fill-rule="evenodd" clip-rule="evenodd" d="M8.33452 5.79261C8.01335 5.79261 7.87945 5.52497 7.94588 5.24049C7.98138 5.08846 8.07359 4.89561 8.22405 4.64502L8.75989 4.96675C8.70252 5.06229 8.6568 5.14522 8.62288 5.21367C8.73522 5.24686 8.84596 5.29615 8.93609 5.3555C9.22791 5.54767 9.33532 5.89007 9.02247 6.14383C8.96192 6.19295 8.86366 6.36039 8.80942 6.5212C8.9587 6.52952 9.0654 6.55197 9.16376 6.61015C9.44 6.77355 9.41402 7.07156 9.20364 7.3017C9.05454 7.46481 8.85546 7.59712 8.66791 7.66489C8.35587 7.77765 8.02202 7.73446 8.02202 7.33499L8.02194 7.33207C8.02133 7.3158 8.02028 7.28799 8.15963 7.28484M8.16575 7.28472L8.15963 7.28484C7.92187 7.28147 7.87097 7.15559 7.84132 6.93146C7.83381 6.87468 7.83078 6.82064 7.82661 6.70403L7.82383 6.62814L7.82048 6.55424L7.81948 6.53781C7.81478 6.46566 7.81153 6.4157 7.97326 6.4157H7.61072V5.7907H7.97326C8.17889 5.7907 8.29252 5.86013 8.35764 6.00369C8.39388 5.9386 8.43332 5.8773 8.47482 5.82236C8.42254 5.80426 8.36953 5.79261 8.33452 5.79261M8.16575 7.28472C8.17244 7.28461 8.17945 7.28455 8.18678 7.28455L8.17728 7.28449L8.16575 7.28472ZM8.73261 6.89042L8.74234 6.88001C8.74127 6.88117 8.74023 6.88266 8.73922 6.88444L8.73261 6.89042ZM8.45879 7.07589C8.45865 7.07595 8.45901 7.07587 8.4597 7.07572L8.45879 7.07589ZM8.45964 6.84012L8.46092 6.84948C8.4602 6.84405 8.45953 6.83809 8.45889 6.83139L8.45964 6.84012Z" fill="#A8AC71"/>
<path fill-rule="evenodd" clip-rule="evenodd" d="M12.0415 7.75182C12.0415 7.75182 12.6196 6.03848 11.7006 5.15158C10.7816 4.26469 9.71969 4.32403 9.71969 4.32403C9.71969 4.32403 9.41388 4.55125 9.71969 4.72454C10.0255 4.89782 9.89738 5.06397 9.89738 5.06397C9.89738 5.06397 9.38523 4.54395 9.04524 4.84777C8.70525 5.15158 9.36262 5.10535 9.29303 5.33411C9.22344 5.56287 8.92863 6.57853 9.35942 7.09131C9.79021 7.60409 8.95211 7.4928 9.12257 7.4928C9.29303 7.4928 9.89738 7.61216 9.89738 7.4928C9.89738 7.37345 10.1075 7.95686 10.2873 7.95686C10.4671 7.95686 10.6059 7.75182 10.6059 7.75182C10.6059 7.75182 10.8579 7.95686 11.0115 7.95686C11.1651 7.95686 11.7006 7.82267 11.7006 7.82267L10.6884 6.96985C10.6884 6.96985 10.7495 6.59368 10.6059 6.51227C10.4623 6.43085 11.757 7.23379 11.8584 7.4928C11.9598 7.75182 12.0415 7.75182 12.0415 7.75182Z" fill="#8F4620"/>
<path d="M6.9165 7.32899C6.9165 7.32899 7.01035 7.02989 7.11082 7.00913C7.19786 6.99114 7.3809 7.15246 7.3809 7.15246C7.70605 8.95862 8.49226 9.66408 9.7968 9.66408C11.1167 9.66408 11.9166 9.12803 12.3835 7.46224C12.3835 7.46224 12.6316 7.20881 12.7192 7.23698C12.8145 7.26765 12.934 7.60295 12.934 7.60295C12.3984 9.51396 11.3866 10.3648 9.7968 10.3648C8.19167 10.3648 7.28985 9.40287 6.9165 7.32899Z" fill="#9FAB2F"/>
<path fill-rule="evenodd" clip-rule="evenodd" d="M8.33386 8.53516C8.33386 8.53516 10.2116 8.9335 10.9527 8.9335C11.6939 8.9335 10.3024 9.53837 9.75953 9.53837C9.21661 9.53837 8.33386 8.53516 8.33386 8.53516Z" fill="#2FC2DC"/>
<rect x="9.16663" y="8.8125" width="1.25" height="0.669643" rx="0.104167" fill="#F9AA51"/>
<path d="M7.60962 7.58503L8.12126 7.22607C8.78716 8.17521 9.78297 8.48746 11.1757 8.16157L11.3181 8.77013C9.69 9.1511 8.43149 8.75648 7.60962 7.58503Z" fill="#259485"/>
<path fill-rule="evenodd" clip-rule="evenodd" d="M10.3696 7.71875C10.3696 7.71875 9.61102 8.11805 9.86387 8.11805C10.1167 8.11805 11.1063 8.3177 10.9137 8.11805C10.7212 7.9184 10.3696 7.71875 10.3696 7.71875Z" fill="#FCCA3D"/>
<path fill-rule="evenodd" clip-rule="evenodd" d="M9.47277 7.24246C9.47277 7.24246 9.32864 6.82617 9.02871 6.82617C8.72878 6.82617 8.81344 7.16766 8.66921 7.16766C8.52497 7.16766 8.8036 7.40796 8.92779 7.40796C9.05197 7.40796 9.47277 7.24246 9.47277 7.24246Z" fill="#FCCA3D"/>
</g>
<rect x="0.5" y="0.5" width="19" height="14" rx="0.5" stroke="black" stroke-opacity="0.1"/>
<defs>
<clipPath id="clip0_85465_14839">
<rect width="20" height="15" rx="1" fill="white"/>
</clipPath>
</defs>
</svg>
