<svg width="20" height="15" viewBox="0 0 20 15" fill="none" xmlns="http://www.w3.org/2000/svg">
<g clip-path="url(#clip0_85465_14891)">
<rect width="20" height="15" rx="1" fill="white"/>
<path fill-rule="evenodd" clip-rule="evenodd" d="M0 0V15H20V0H0Z" fill="#009933"/>
<mask id="mask0_85465_14891" style="mask-type:luminance" maskUnits="userSpaceOnUse" x="0" y="0" width="20" height="15">
<path fill-rule="evenodd" clip-rule="evenodd" d="M0 0V15H20V0H0Z" fill="white"/>
</mask>
<g mask="url(#mask0_85465_14891)">
<path fill-rule="evenodd" clip-rule="evenodd" d="M0 0V15L20 0H0Z" fill="#3195F9"/>
<path d="M-0.632825 16.9334L-0.301228 17.5342L0.266044 17.1481L22.036 2.32973L22.4748 2.03104L22.2511 1.54966L20.7874 -1.59983L20.4804 -2.26051L19.8741 -1.85655L-2.22325 12.8663L-2.70172 13.185L-2.42389 13.6884L-0.632825 16.9334Z" fill="#E31D1C" stroke="#F7FCFF" stroke-width="1.25"/>
<path fill-rule="evenodd" clip-rule="evenodd" d="M3.89352 5.77797L3.08471 6.78704L2.88879 5.50875L1.68381 5.97823L2.15328 4.77324L0.875 4.57733L1.88407 3.76852L0.875 2.95971L2.15328 2.76379L1.68381 1.55881L2.88879 2.02828L3.08471 0.75L3.89352 1.75907L4.70233 0.75L4.89824 2.02828L6.10323 1.55881L5.63375 2.76379L6.91204 2.95971L5.90297 3.76852L6.91204 4.57733L5.63375 4.77324L6.10323 5.97823L4.89824 5.50875L4.70233 6.78704L3.89352 5.77797ZM3.89352 5.33102C4.75646 5.33102 5.45602 4.63146 5.45602 3.76852C5.45602 2.90557 4.75646 2.20602 3.89352 2.20602C3.03057 2.20602 2.33102 2.90557 2.33102 3.76852C2.33102 4.63146 3.03057 5.33102 3.89352 5.33102ZM5.14352 3.76852C5.14352 4.45887 4.58387 5.01852 3.89352 5.01852C3.20316 5.01852 2.64352 4.45887 2.64352 3.76852C2.64352 3.07816 3.20316 2.51852 3.89352 2.51852C4.58387 2.51852 5.14352 3.07816 5.14352 3.76852Z" fill="#FECA00"/>
</g>
</g>
<rect x="0.5" y="0.5" width="19" height="14" rx="0.5" stroke="black" stroke-opacity="0.1"/>
<defs>
<clipPath id="clip0_85465_14891">
<rect width="20" height="15" rx="1" fill="white"/>
</clipPath>
</defs>
</svg>
