<svg width="20" height="15" viewBox="0 0 20 15" fill="none" xmlns="http://www.w3.org/2000/svg">
<g clip-path="url(#clip0_85465_14950)">
<rect width="20" height="15" rx="1" fill="white"/>
<path fill-rule="evenodd" clip-rule="evenodd" d="M0 0V15H20V0H0Z" fill="#F7FCFF"/>
<mask id="mask0_85465_14950" style="mask-type:luminance" maskUnits="userSpaceOnUse" x="0" y="0" width="20" height="15">
<path fill-rule="evenodd" clip-rule="evenodd" d="M0 0V15H20V0H0Z" fill="white"/>
</mask>
<g mask="url(#mask0_85465_14950)">
<path fill-rule="evenodd" clip-rule="evenodd" d="M0 0V5H20V0H0Z" fill="#0080EC"/>
<path fill-rule="evenodd" clip-rule="evenodd" d="M0 10V15H20V10H0Z" fill="#0080EC"/>
<path fill-rule="evenodd" clip-rule="evenodd" d="M10 5C10.1178 5 10.2337 5.00815 10.3471 5.0239L10.2233 5.82141C10.1502 5.81179 10.0757 5.80682 10 5.80682C9.88991 5.80682 9.78228 5.81732 9.67805 5.83739L9.62019 5.02867C9.74404 5.00979 9.87088 5 10 5ZM10.7201 5.10526L10.5028 5.88273C11.1924 6.0969 11.6932 6.73997 11.6932 7.5C11.6932 7.51868 11.6929 7.53729 11.6923 7.55583L12.497 7.62405C12.499 7.58295 12.5 7.54159 12.5 7.5C12.5 6.36961 11.7498 5.41444 10.7201 5.10526ZM12.1959 8.69598C11.7997 9.42184 11.0541 9.92962 10.1852 9.99324V9.18317C10.6481 9.13281 11.055 8.89586 11.3291 8.5491L12.1959 8.69598ZM7.8605 8.79397C8.27548 9.47865 9.00985 9.9482 9.85698 9.99598V9.18723C9.36327 9.14594 8.92978 8.89281 8.64767 8.51902L7.8605 8.79397ZM7.50226 7.60719C7.50076 7.57165 7.5 7.53591 7.5 7.5C7.5 6.43848 8.1616 5.53148 9.09494 5.16886L9.30361 5.9562C8.71929 6.22019 8.31162 6.80619 8.30686 7.48793L7.50226 7.60719Z" fill="#D0AB00"/>
<path fill-rule="evenodd" clip-rule="evenodd" d="M9.98424 5.59375L8.27368 8.55048H11.7216L9.98424 5.59375Z" fill="#7CDFFF"/>
<mask id="mask1_85465_14950" style="mask-type:luminance" maskUnits="userSpaceOnUse" x="8" y="5" width="4" height="4">
<path fill-rule="evenodd" clip-rule="evenodd" d="M9.98424 5.59375L8.27368 8.55048H11.7216L9.98424 5.59375Z" fill="white"/>
</mask>
<g mask="url(#mask1_85465_14950)">
<path d="M9.99993 9.44909C10.8252 9.44909 11.4943 8.78006 11.4943 7.95477C11.4943 7.12948 10.8252 6.46045 9.99993 6.46045C9.17464 6.46045 8.50562 7.12948 8.50562 7.95477C8.50562 8.78006 9.17464 9.44909 9.99993 9.44909Z" stroke="#E31D1C" stroke-width="0.625"/>
<path d="M9.99993 9.44909C10.8252 9.44909 11.4943 8.78006 11.4943 7.95477C11.4943 7.12948 10.8252 6.46045 9.99993 6.46045C9.17464 6.46045 8.50562 7.12948 8.50562 7.95477C8.50562 8.78006 9.17464 9.44909 9.99993 9.44909Z" stroke="#FFD018" stroke-width="0.625"/>
<path d="M9.99993 9.44909C10.8252 9.44909 11.4943 8.78006 11.4943 7.95477C11.4943 7.12948 10.8252 6.46045 9.99993 6.46045C9.17464 6.46045 8.50562 7.12948 8.50562 7.95477C8.50562 8.78006 9.17464 9.44909 9.99993 9.44909Z" stroke="#4EDD00" stroke-width="0.625"/>
<path d="M9.99993 9.44909C10.8252 9.44909 11.4943 8.78006 11.4943 7.95477C11.4943 7.12948 10.8252 6.46045 9.99993 6.46045C9.17464 6.46045 8.50562 7.12948 8.50562 7.95477C8.50562 8.78006 9.17464 9.44909 9.99993 9.44909Z" stroke="#3D58DB" stroke-width="0.625"/>
<rect x="8.13623" y="7.63672" width="3.90909" height="1.13636" fill="#3D58DB"/>
<path fill-rule="evenodd" clip-rule="evenodd" d="M8.39795 8.11958L9.17707 7.3448L9.41617 7.73219L9.58322 7.25977L9.76873 7.61389L9.96359 7.3448L10.2157 7.61389L10.4468 7.25977L10.6444 7.61389L10.8711 7.3448L11.4009 7.90773L11.4962 8.11958L8.39795 8.27675V8.11958Z" fill="#97C923"/>
</g>
</g>
</g>
<rect x="0.5" y="0.5" width="19" height="14" rx="0.5" stroke="black" stroke-opacity="0.1"/>
<defs>
<clipPath id="clip0_85465_14950">
<rect width="20" height="15" rx="1" fill="white"/>
</clipPath>
</defs>
</svg>
