<svg width="20" height="15" viewBox="0 0 20 15" fill="none" xmlns="http://www.w3.org/2000/svg">
<g clip-path="url(#clip0_85465_14986)">
<rect width="20" height="15" rx="1" fill="white"/>
<rect width="20" height="15" fill="white"/>
<path d="M7.11834 7.93856L12.6718 14.5002H0.5V0.978093L12.001 7.11554H7.5H6.42178L7.11834 7.93856Z" fill="#C51918" stroke="#4857A1"/>
<mask id="mask0_85465_14986" style="mask-type:luminance" maskUnits="userSpaceOnUse" x="0" y="0" width="14" height="15">
<path d="M7.11834 7.93856L12.6718 14.5002H0.5V0.978093L12.001 7.11554H7.5H6.42178L7.11834 7.93856Z" fill="white" stroke="white"/>
</mask>
<g mask="url(#mask0_85465_14986)">
<path fill-rule="evenodd" clip-rule="evenodd" d="M3.64352 12.5448L2.87779 13.5233L2.84244 12.2885L1.63881 12.637L2.34735 11.6176L1.16557 11.2029L2.34735 10.7882L1.63881 9.76879L2.84244 10.1173L2.87779 8.88247L3.64352 9.86098L4.40925 8.88247L4.4446 10.1173L5.64822 9.76879L4.93969 10.7882L6.12147 11.2029L4.93969 11.6176L5.64822 12.637L4.4446 12.2885L4.40925 13.5233L3.64352 12.5448Z" fill="#F7FCFF"/>
<path fill-rule="evenodd" clip-rule="evenodd" d="M3.625 5.23919L3.2251 5.75021L3.20664 5.10535L2.57805 5.28733L2.94808 4.75495L2.3309 4.53839L2.94808 4.32183L2.57805 3.78944L3.20664 3.97143L3.2251 3.32656L3.625 3.83758L4.0249 3.32656L4.04336 3.97143L4.67195 3.78944L4.30192 4.32183L4.9191 4.53839L4.30192 4.75495L4.67195 5.28733L4.04336 5.10535L4.0249 5.75021L3.625 5.23919Z" fill="#F7FCFF"/>
<path fill-rule="evenodd" clip-rule="evenodd" d="M3.5407 5.08948C4.91074 5.09503 5.64121 4.30566 5.64121 4.30566C5.78571 5.20639 4.67001 5.80566 3.55406 5.80566C2.4381 5.80566 1.76245 4.98878 1.34619 4.30566C1.34619 4.30566 2.17066 5.08392 3.5407 5.08948Z" fill="#F9FAFA"/>
</g>
</g>
<rect x="0.5" y="0.5" width="19" height="14" rx="0.5" stroke="black" stroke-opacity="0.1"/>
<defs>
<clipPath id="clip0_85465_14986">
<rect width="20" height="15" rx="1" fill="white"/>
</clipPath>
</defs>
</svg>
