<svg width="20" height="15" viewBox="0 0 20 15" fill="none" xmlns="http://www.w3.org/2000/svg">
<g clip-path="url(#clip0_85465_15043)">
<rect width="20" height="15" rx="1" fill="white"/>
<path fill-rule="evenodd" clip-rule="evenodd" d="M0 0V15H20V0H0Z" fill="#F50101"/>
<mask id="mask0_85465_15043" style="mask-type:luminance" maskUnits="userSpaceOnUse" x="0" y="0" width="20" height="15">
<path fill-rule="evenodd" clip-rule="evenodd" d="M0 0V15H20V0H0Z" fill="white"/>
</mask>
<g mask="url(#mask0_85465_15043)">
<path fill-rule="evenodd" clip-rule="evenodd" d="M0 0V5H20V0H0Z" fill="#F7FCFF"/>
<path fill-rule="evenodd" clip-rule="evenodd" d="M0 10V15H20V10H0Z" fill="#5EAA22"/>
<rect width="7.5" height="15" fill="#F50101"/>
<path fill-rule="evenodd" clip-rule="evenodd" d="M6.73161 1.27033C6.73752 1.21332 6.66459 1.19139 6.63551 1.24078C6.40871 1.62606 5.84023 2.54258 4.90444 3.74114V3.16758C4.81518 3.07057 4.53061 2.80959 4.53061 2.80959V2.23689L5.04541 1.77102L4.33837 1.2498L3.59315 1.77102L4.15644 2.23689V2.80959C4.15644 3.08421 3.81494 3.16758 3.81494 3.16758L3.75242 3.67277C2.88182 2.54227 2.33904 1.66081 2.10919 1.26683C2.07952 1.21598 2.00491 1.23994 2.01368 1.29815C2.08306 1.75887 2.29055 2.78112 2.86373 3.87258H2.71V3.85225C2.71 3.82224 2.68567 3.79791 2.65565 3.79791H1.33772C1.3077 3.79791 1.28337 3.82224 1.28337 3.85225V4.68106C1.28337 4.71107 1.3077 4.73541 1.33772 4.73541H2.65565C2.68567 4.73541 2.71 4.71107 2.71 4.68106V4.24594H2.87598C2.93228 4.37575 3.06156 4.46724 3.21276 4.46989C3.31837 4.63284 3.43292 4.79536 3.55712 4.95583C3.2714 4.92757 1.38305 4.7668 1.38305 5.4538C1.38305 5.86386 1.84236 6.08091 2.41838 6.19311C1.83838 6.71833 1.29094 7.2125 1.03906 7.43975C0.99819 7.47662 1.03014 7.54049 1.08356 7.52725C1.53337 7.41577 2.7124 7.07185 3.83479 6.30615L3.86975 6.3062C4.18585 6.3062 4.40571 6.16907 4.55851 5.98346C5.70009 6.91528 6.99159 7.34564 7.55221 7.49985C7.61038 7.51585 7.64183 7.44056 7.59227 7.40616C7.13691 7.09008 6.1101 6.32941 5.06017 5.22452L5.08772 5.19227C5.30193 4.93949 5.48858 4.67947 5.65121 4.41875C5.71927 4.37896 5.77346 4.31842 5.80489 4.24594H5.97087V4.68106C5.97087 4.71107 5.9952 4.73541 6.02522 4.73541H7.34315C7.37317 4.73541 7.3975 4.71107 7.3975 4.68106V3.85225C7.3975 3.82224 7.37317 3.79791 7.34315 3.79791H6.02522C6.0113 3.79791 5.99861 3.80314 5.98899 3.81174C6.52795 2.7208 6.68617 1.70855 6.73161 1.27033ZM5.97087 3.87258V3.85225L5.97105 3.8478L5.95858 3.87258H5.97087ZM3.52522 4.10033C3.52522 4.26735 3.38835 4.40275 3.21951 4.40275C3.05068 4.40275 2.91381 4.26735 2.91381 4.10033C2.91381 3.9333 3.05068 3.79791 3.21951 3.79791C3.38835 3.79791 3.52522 3.9333 3.52522 4.10033ZM5.15565 4.10033C5.15565 4.26735 5.29252 4.40275 5.46136 4.40275C5.6302 4.40275 5.76707 4.26735 5.76707 4.10033C5.76707 3.9333 5.6302 3.79791 5.46136 3.79791C5.29252 3.79791 5.15565 3.9333 5.15565 4.10033Z" fill="#F7FCFF"/>
</g>
</g>
<rect x="0.5" y="0.5" width="19" height="14" rx="0.5" stroke="black" stroke-opacity="0.1"/>
<defs>
<clipPath id="clip0_85465_15043">
<rect width="20" height="15" rx="1" fill="white"/>
</clipPath>
</defs>
</svg>
