<svg width="20" height="15" viewBox="0 0 20 15" fill="none" xmlns="http://www.w3.org/2000/svg">
<g clip-path="url(#clip0_85465_15119)">
<rect width="20" height="15" rx="1" fill="white"/>
<path fill-rule="evenodd" clip-rule="evenodd" d="M0 0V15H20V0H0Z" fill="#F7FCFF"/>
<mask id="mask0_85465_15119" style="mask-type:luminance" maskUnits="userSpaceOnUse" x="0" y="0" width="20" height="15">
<path fill-rule="evenodd" clip-rule="evenodd" d="M0 0V15H20V0H0Z" fill="white"/>
</mask>
<g mask="url(#mask0_85465_15119)">
<path fill-rule="evenodd" clip-rule="evenodd" d="M0 0V3.75H20V0H0Z" fill="#BF2714"/>
<path fill-rule="evenodd" clip-rule="evenodd" d="M0 11.25V15H20V11.25H0Z" fill="#BF2714"/>
<mask id="mask1_85465_15119" style="mask-type:luminance" maskUnits="userSpaceOnUse" x="6" y="3" width="8" height="9">
<path fill-rule="evenodd" clip-rule="evenodd" d="M10 11.25C12.0711 11.25 13.75 9.57107 13.75 7.5C13.75 5.42893 12.0711 3.75 10 3.75C7.92893 3.75 6.25 5.42893 6.25 7.5C6.25 9.57107 7.92893 11.25 10 11.25Z" fill="white"/>
</mask>
<g mask="url(#mask1_85465_15119)">
<path fill-rule="evenodd" clip-rule="evenodd" d="M6.59308 8.60311C6.55887 8.49595 6.67462 8.40292 6.77192 8.45938L7.00548 8.59491C7.04032 8.61513 7.08285 8.617 7.11933 8.59992L7.69586 8.32997C7.73628 8.31105 7.78377 8.31551 7.81995 8.34162L8.44276 8.79112L9.30367 8.32761C9.33685 8.30974 9.37638 8.30808 9.41094 8.32309L10.0593 8.60476C10.0921 8.619 10.1295 8.61828 10.1617 8.60278L10.7433 8.32277C10.7744 8.30782 10.8103 8.30659 10.8423 8.31937L11.5619 8.60683C11.5944 8.61979 11.6308 8.61834 11.6621 8.60286L12.2195 8.32707C12.2548 8.30963 12.2962 8.31011 12.3311 8.32835L12.8424 8.59611C12.8794 8.61548 12.9237 8.61475 12.96 8.59416L13.2259 8.44353C13.3207 8.38984 13.4333 8.47681 13.4053 8.58209L13.3498 8.79112H6.6531L6.59308 8.60311Z" fill="#5277B9"/>
<path fill-rule="evenodd" clip-rule="evenodd" d="M6.59074 9.34438C6.55753 9.23656 6.67493 9.14468 6.77161 9.20283L6.9841 9.33063C7.01972 9.35206 7.06376 9.35403 7.10115 9.33588L7.64942 9.0698C7.6908 9.04972 7.73992 9.05441 7.77675 9.08196L8.37422 9.52891L9.20151 9.06725C9.23549 9.04829 9.27643 9.04653 9.31191 9.0625L9.9305 9.34103C9.96416 9.35619 10.0028 9.35542 10.0359 9.33894L10.5907 9.06213C10.6225 9.04624 10.6597 9.04493 10.6926 9.05855L11.3802 9.34323C11.4135 9.35703 11.4512 9.35549 11.4833 9.33903L12.0144 9.06671C12.0505 9.04819 12.0935 9.04869 12.1292 9.06806L12.6152 9.33185C12.653 9.35241 12.6989 9.35164 12.7361 9.32982L12.9799 9.18667C13.0742 9.13131 13.1884 9.21732 13.1612 9.32323L13.1085 9.52891H6.64758L6.59074 9.34438Z" fill="#5277B9"/>
<path fill-rule="evenodd" clip-rule="evenodd" d="M6.71354 9.83608C6.68033 9.72826 6.79773 9.63638 6.89442 9.69453L7.1069 9.82233C7.14252 9.84376 7.18656 9.84573 7.22395 9.82758L7.77222 9.5615C7.8136 9.54142 7.86273 9.54611 7.89955 9.57366L8.49702 10.0206L9.32431 9.55895C9.35829 9.53999 9.39923 9.53823 9.43471 9.5542L10.0533 9.83273C10.087 9.84789 10.1256 9.84712 10.1587 9.83064L10.7135 9.55383C10.7453 9.53794 10.7825 9.53663 10.8154 9.55025L11.503 9.83493C11.5363 9.84873 11.574 9.84719 11.6061 9.83073L12.1372 9.55841C12.1733 9.53989 12.2163 9.54039 12.252 9.55976L12.738 9.82355C12.7758 9.84411 12.8217 9.84334 12.8589 9.82152L13.1027 9.67837C13.197 9.62301 13.3112 9.70902 13.284 9.81493L13.2313 10.0206H6.77038L6.71354 9.83608Z" fill="#5277B9"/>
<path fill-rule="evenodd" clip-rule="evenodd" d="M7.45133 10.3278C7.41812 10.22 7.53553 10.1281 7.63221 10.1862L7.84469 10.314C7.88032 10.3355 7.92435 10.3374 7.96175 10.3193L8.51002 10.0532C8.55139 10.0331 8.60052 10.0378 8.63735 10.0654L9.23482 10.5123L10.0621 10.0506C10.0961 10.0317 10.137 10.0299 10.1725 10.0459L10.7911 10.3244C10.8248 10.3396 10.8634 10.3388 10.8965 10.3223L11.4513 10.0455C11.4831 10.0296 11.5203 10.0283 11.5532 10.0419L12.2408 10.3266C12.2741 10.3404 12.3118 10.3389 12.3439 10.3224L12.875 10.0501C12.9111 10.0316 12.9541 10.0321 12.9897 10.0515L13.4758 10.3153C13.5136 10.3358 13.5595 10.335 13.5967 10.3132L13.8405 10.1701C13.9348 10.1147 14.049 10.2007 14.0218 10.3066L13.9691 10.5123H7.50817L7.45133 10.3278Z" fill="#5277B9"/>
<path fill-rule="evenodd" clip-rule="evenodd" d="M6.46769 10.9425C6.43448 10.8347 6.55189 10.7428 6.64857 10.801L6.86105 10.9288C6.89667 10.9502 6.94071 10.9522 6.97811 10.934L7.52637 10.6679C7.56775 10.6479 7.61688 10.6526 7.6537 10.6801L8.25118 11.1271L9.07846 10.6654C9.11244 10.6464 9.15338 10.6447 9.18886 10.6606L9.80745 10.9392C9.84111 10.9543 9.8798 10.9536 9.91282 10.9371L10.4676 10.6603C10.4995 10.6444 10.5367 10.6431 10.5695 10.6567L11.2571 10.9414C11.2905 10.9552 11.3282 10.9536 11.3603 10.9372L11.8914 10.6649C11.9275 10.6463 11.9704 10.6468 12.0061 10.6662L12.4921 10.93C12.53 10.9506 12.5759 10.9498 12.613 10.928L12.8568 10.7848C12.9511 10.7295 13.0653 10.8155 13.0382 10.9214L12.9854 11.1271H6.52453L6.46769 10.9425Z" fill="#5277B9"/>
<path d="M7.91699 5.90381H8.54199L8.52751 8.37388C8.63244 8.70645 8.78214 8.83638 9.01406 8.83638V9.46138C8.48636 9.46138 8.11301 9.13733 7.91699 8.4679V5.90381Z" fill="#FF0000"/>
<path d="M12.1418 5.90381H11.5168L11.5313 8.37388C11.4264 8.70645 11.2767 8.83638 11.0448 8.83638V9.46138C11.5725 9.46138 11.9458 9.13733 12.1418 8.4679V5.90381Z" fill="#FF0000"/>
<path fill-rule="evenodd" clip-rule="evenodd" d="M10.4528 4.31789C10.4528 4.31789 9.41602 4.04678 9.41602 4.73424C9.41602 5.42171 9.41602 6.89809 9.41602 6.89809L10.6247 7.25705V5.48842C10.6247 5.48842 10.0204 5.11913 10.0204 4.83034C10.0204 4.54155 10.4528 4.31789 10.4528 4.31789Z" fill="#FF0000"/>
<path d="M8.7085 8.05644L9.10268 7.55273" stroke="black" stroke-width="0.625"/>
<path d="M9.06788 8.03992L8.69019 7.5332" stroke="black" stroke-width="0.625"/>
<path d="M9.27417 8.05644L9.66835 7.55273" stroke="black" stroke-width="0.625"/>
<path d="M9.63355 8.03992L9.25586 7.5332" stroke="black" stroke-width="0.625"/>
<path d="M9.81519 8.05644L10.2094 7.55273" stroke="black" stroke-width="0.625"/>
<path d="M10.1746 8.03992L9.79688 7.5332" stroke="black" stroke-width="0.625"/>
<path d="M10.3809 8.05644L10.775 7.55273" stroke="black" stroke-width="0.625"/>
<path d="M10.7402 8.03992L10.3625 7.5332" stroke="black" stroke-width="0.625"/>
<path d="M10.9463 8.05644L11.3405 7.55273" stroke="black" stroke-width="0.625"/>
<path d="M11.3057 8.03992L10.928 7.5332" stroke="black" stroke-width="0.625"/>
<path fill-rule="evenodd" clip-rule="evenodd" d="M8.40909 4.43435L9.15714 5.89577L9.24923 4.43435L9.15714 4.14648L8.40909 4.43435ZM8.03435 5.68148L7.49541 5.11005L8.03435 4.46783L9.16713 6.27867V6.73895L8.62244 6.27867V5.68148H8.03435ZM6.84787 6.12173L7.83089 6.59233L7.90769 5.86527L7.08926 5.16595L6.84787 6.12173ZM7.88048 7.3286L6.58742 7.19633V6.28439L7.88048 6.78177V7.3286ZM6.55239 8.22438L6.39893 7.44895L7.85643 7.52163V8.22438H6.55239ZM8.60458 6.95027V6.51259L9.14967 6.95027L9.09051 7.18137L8.60458 6.95027ZM13.6755 7.44895L13.522 8.22438H12.218V7.52163L13.6755 7.44895ZM12.1939 7.3286L13.487 7.19633V6.28439L12.1939 6.78177V7.3286ZM13.2265 6.12173L12.2435 6.59233L12.1667 5.86527L12.9851 5.16595L13.2265 6.12173ZM12.04 5.68148L12.579 5.11005L12.04 4.46783L10.9072 6.27867V6.73895L11.4519 6.27867V5.68148H12.04ZM11.6653 4.43435L10.9172 5.89577L10.8252 4.43435L10.9172 4.14648L11.6653 4.43435ZM11.4698 6.95027V6.51259L10.9247 6.95027L10.9839 7.18137L11.4698 6.95027Z" fill="#FA8F21"/>
</g>
</g>
</g>
<rect x="0.5" y="0.5" width="19" height="14" rx="0.5" stroke="black" stroke-opacity="0.1"/>
<defs>
<clipPath id="clip0_85465_15119">
<rect width="20" height="15" rx="1" fill="white"/>
</clipPath>
</defs>
</svg>
