<svg width="20" height="15" viewBox="0 0 20 15" fill="none" xmlns="http://www.w3.org/2000/svg">
<g clip-path="url(#clip0_85465_15178)">
<rect width="20" height="15" rx="1" fill="white"/>
<path fill-rule="evenodd" clip-rule="evenodd" d="M0 0V15H20V0H0Z" fill="#BF2714"/>
<mask id="mask0_85465_15178" style="mask-type:luminance" maskUnits="userSpaceOnUse" x="0" y="0" width="20" height="15">
<path fill-rule="evenodd" clip-rule="evenodd" d="M0 0V15H20V0H0Z" fill="white"/>
</mask>
<g mask="url(#mask0_85465_15178)">
<path fill-rule="evenodd" clip-rule="evenodd" d="M0 -1.25V7.5H20V-1.25H0Z" fill="#3D58DB"/>
</g>
<path fill-rule="evenodd" clip-rule="evenodd" d="M0 0V15L11.25 7.5L0 0Z" fill="#F7FCFF"/>
<mask id="mask1_85465_15178" style="mask-type:luminance" maskUnits="userSpaceOnUse" x="0" y="0" width="12" height="15">
<path fill-rule="evenodd" clip-rule="evenodd" d="M0 0V15L11.25 7.5L0 0Z" fill="white"/>
</mask>
<g mask="url(#mask1_85465_15178)">
<path fill-rule="evenodd" clip-rule="evenodd" d="M8.50315 6.82507L9.30058 7.13259L9.77502 6.57426L9.78761 7.32098L10.5215 7.5597L9.74902 7.82191L9.79993 8.5081L9.29113 7.98246L8.49137 8.13458L8.96355 7.52918L8.50315 6.82507Z" fill="#FECA00"/>
<path fill-rule="evenodd" clip-rule="evenodd" d="M1.00315 10.5751L1.73613 10.8991L2.27502 10.3243L2.22316 11.0875L3.02152 11.3097L2.18457 11.5885L2.29993 12.2581L1.7172 11.7796L0.991365 11.8846L1.3991 11.2957L1.00315 10.5751Z" fill="#FECA00"/>
<path fill-rule="evenodd" clip-rule="evenodd" d="M1.00315 3.07507L1.81425 3.37396L2.27502 2.82426L2.30128 3.56235L3.02152 3.8097L2.26269 4.06328L2.29993 4.7581L1.79532 4.25443L0.991365 4.38458L1.47722 3.77055L1.00315 3.07507Z" fill="#FECA00"/>
<path fill-rule="evenodd" clip-rule="evenodd" d="M5.07593 9.08301C5.93887 9.08301 6.63843 8.38345 6.63843 7.52051C6.63843 6.65756 5.93887 5.95801 5.07593 5.95801C4.21298 5.95801 3.51343 6.65756 3.51343 7.52051C3.51343 8.38345 4.21298 9.08301 5.07593 9.08301Z" fill="#FECA00"/>
<path fill-rule="evenodd" clip-rule="evenodd" d="M4.89129 5.14987L4.97525 6.15362C4.98328 6.21458 5.03017 6.26314 5.09081 6.27329C5.16698 6.28604 5.23906 6.23462 5.25181 6.15845L5.36263 5.1581C5.36458 5.14647 5.36566 5.13471 5.36586 5.12291C5.36816 4.99131 5.26334 4.88276 5.13173 4.88046C5.11994 4.88026 5.10815 4.88093 5.09645 4.88247C4.96596 4.89966 4.8741 5.01938 4.89129 5.14987ZM4.62997 5.63498L4.75973 6.07162C4.77177 6.11216 4.81225 6.13725 4.85803 6.12918C4.89556 6.12031 4.91879 6.0827 4.90992 6.04518L4.80637 5.60695C4.79446 5.55656 4.74563 5.52393 4.69451 5.5322C4.6911 5.53275 4.68772 5.53352 4.6844 5.53451C4.64163 5.54722 4.61726 5.5922 4.62997 5.63498ZM5.33173 6.08982C5.32156 6.12701 5.34347 6.16541 5.38475 6.17657C5.42613 6.18525 5.46746 6.16158 5.48091 6.12149L5.62583 5.68964C5.64003 5.64733 5.61724 5.60153 5.57494 5.58733C5.57166 5.58623 5.56831 5.58534 5.56492 5.58467C5.51412 5.57462 5.46418 5.60553 5.45052 5.65548L5.33173 6.08982ZM6.62993 5.65096L5.93136 6.42234C5.89394 6.47112 5.89276 6.53862 5.92846 6.58867C5.9733 6.65155 6.06063 6.66616 6.12351 6.62132L6.9574 5.99007C6.96701 5.98322 6.97609 5.97567 6.98457 5.96748C7.07925 5.87604 7.08189 5.72517 6.99045 5.63048C6.98226 5.622 6.97345 5.61413 6.96409 5.60695C6.85966 5.52683 6.71005 5.54654 6.62993 5.65096ZM6.41742 7.28843L7.46052 7.2077C7.59101 7.19051 7.71074 7.28237 7.72792 7.41287C7.72946 7.42456 7.73013 7.43635 7.72993 7.44815C7.72763 7.57975 7.61908 7.68458 7.48748 7.68228C7.47568 7.68207 7.46392 7.68099 7.45229 7.67904L6.41259 7.56499C6.33642 7.55224 6.28501 7.48016 6.29776 7.40399C6.30791 7.34335 6.35647 7.29646 6.41742 7.28843ZM6.95878 8.9498L6.1487 8.24454C6.09993 8.20712 6.03243 8.20594 5.98238 8.24164C5.9195 8.28648 5.90488 8.37381 5.94973 8.43669L6.61967 9.27727C6.62652 9.28687 6.63407 9.29595 6.64227 9.30444C6.7337 9.39912 6.88458 9.40175 6.97926 9.31032C6.98774 9.30213 6.99561 9.29332 7.00279 9.28396C7.08291 9.17953 7.06321 9.02992 6.95878 8.9498ZM5.28261 8.7306L5.34446 9.78374C5.36165 9.91424 5.26979 10.034 5.1393 10.0511C5.1276 10.0527 5.11581 10.0534 5.10402 10.0532C4.97241 10.0509 4.86759 9.94231 4.86988 9.8107C4.87009 9.79891 4.87117 9.78715 4.87312 9.77551L5.00605 8.72577C5.0188 8.6496 5.09089 8.59819 5.16706 8.61094C5.22769 8.62109 5.27459 8.66965 5.28261 8.7306ZM3.63819 9.29955L4.3265 8.46188C4.36393 8.41311 4.3651 8.34561 4.32941 8.29556C4.28456 8.23268 4.19723 8.21806 4.13436 8.26291L3.31072 8.96045C3.30112 8.96729 3.29204 8.97485 3.28355 8.98304C3.18887 9.07447 3.18624 9.22535 3.27767 9.32003C3.28586 9.32852 3.29468 9.33638 3.30403 9.34356C3.40846 9.42369 3.55807 9.40398 3.63819 9.29955ZM3.84044 7.59579L2.79094 7.68228C2.66044 7.69947 2.54072 7.60761 2.52353 7.47711C2.52199 7.46542 2.52132 7.45363 2.52153 7.44183C2.52383 7.31023 2.63237 7.2054 2.76398 7.2077C2.77577 7.20791 2.78753 7.20899 2.79917 7.21094L3.84527 7.31923C3.92144 7.33198 3.97286 7.40407 3.96011 7.48024C3.94996 7.54087 3.9014 7.58777 3.84044 7.59579ZM3.21902 5.95137L4.10916 6.63968C4.15794 6.67711 4.22544 6.67828 4.27549 6.64259C4.33837 6.59774 4.35298 6.51041 4.30814 6.44754L3.55813 5.6239C3.55128 5.6143 3.54373 5.60522 3.53553 5.59673C3.4441 5.50205 3.29322 5.49942 3.19854 5.59085C3.19005 5.59904 3.18219 5.60786 3.17501 5.61721C3.09489 5.72164 3.11459 5.87125 3.21902 5.95137ZM5.83695 6.21196L6.05395 5.81145C6.07521 5.77222 6.12425 5.75765 6.16348 5.7789C6.16652 5.78055 6.16946 5.78239 6.17226 5.78442C6.21426 5.81472 6.22571 5.87231 6.1985 5.91637L5.96185 6.29947C5.94159 6.33227 5.89857 6.34244 5.86576 6.32217C5.82768 6.29551 5.81681 6.24914 5.83695 6.21196ZM6.93607 6.94315L6.49942 7.07291C6.45889 7.08495 6.43379 7.12543 6.44186 7.17121C6.45073 7.20874 6.48834 7.23197 6.52587 7.2231L6.96409 7.11955C7.01449 7.10764 7.04712 7.05881 7.03884 7.00769C7.03829 7.00428 7.03752 7.0009 7.03654 6.99758C7.02382 6.95481 6.97884 6.93044 6.93607 6.94315ZM6.35908 8.15013L6.75959 8.36713C6.79882 8.38839 6.8134 8.43743 6.79214 8.47666C6.79049 8.4797 6.78865 8.48264 6.78663 8.48544C6.75633 8.52744 6.69873 8.53889 6.65467 8.51168L6.27158 8.27503C6.23877 8.25477 6.22861 8.21175 6.24887 8.17894C6.27553 8.14086 6.3219 8.12999 6.35908 8.15013ZM5.6279 9.24925L5.49814 8.8126C5.48609 8.77207 5.44561 8.74697 5.39983 8.75504C5.36231 8.76391 5.33907 8.80152 5.34794 8.83905L5.4515 9.27727C5.46341 9.32767 5.51223 9.3603 5.56335 9.35202C5.56677 9.35147 5.57014 9.3507 5.57346 9.34972C5.61624 9.337 5.64061 9.29202 5.6279 9.24925ZM4.42092 8.67226L4.20391 9.07277C4.18266 9.112 4.13362 9.12658 4.09438 9.10532C4.09134 9.10367 4.08841 9.10183 4.0856 9.09981C4.0436 9.06951 4.03215 9.01191 4.05937 8.96785L4.29601 8.58476C4.31628 8.55195 4.3593 8.54179 4.3921 8.56205C4.43018 8.58871 4.44106 8.63508 4.42092 8.67226ZM3.3218 7.94108L3.75844 7.81132C3.79898 7.79927 3.82407 7.75879 3.816 7.71301C3.80713 7.67549 3.76952 7.65225 3.732 7.66112L3.29377 7.76468C3.24338 7.77659 3.21075 7.82541 3.21902 7.87653C3.21957 7.87995 3.22034 7.88332 3.22133 7.88664C3.23404 7.92942 3.27902 7.95379 3.3218 7.94108ZM3.89878 6.7341L3.49827 6.51709C3.45904 6.49584 3.44447 6.4468 3.46572 6.40756C3.46737 6.40452 3.46921 6.40159 3.47124 6.39878C3.50154 6.35678 3.55913 6.34533 3.60319 6.37255L3.98629 6.60919C4.01909 6.62946 4.02926 6.67248 4.00899 6.70528C3.98233 6.74336 3.93596 6.75424 3.89878 6.7341ZM6.22855 6.6293C6.19506 6.6484 6.1834 6.69105 6.20469 6.72813C6.22782 6.76353 6.27378 6.77601 6.31164 6.75718L6.71948 6.55429C6.75943 6.53441 6.77571 6.48591 6.75583 6.44596C6.75429 6.44286 6.75255 6.43987 6.75063 6.43699C6.72182 6.39396 6.66465 6.38051 6.61967 6.40617L6.22855 6.6293ZM6.39448 7.69793C6.40564 7.65665 6.44403 7.63474 6.48123 7.64491L6.91557 7.7637C6.96552 7.77736 6.99643 7.8273 6.98637 7.8781C6.9857 7.88149 6.98481 7.88484 6.98371 7.88812C6.96952 7.93042 6.92371 7.95321 6.88141 7.93901L6.44956 7.79409C6.40947 7.78064 6.3858 7.73931 6.39448 7.69793ZM5.94175 8.54173C5.92264 8.50824 5.88 8.49658 5.84292 8.51787C5.80752 8.541 5.79503 8.58696 5.81387 8.62482L6.01676 9.03266C6.03663 9.07261 6.08513 9.08889 6.12509 9.06901C6.12818 9.06747 6.13118 9.06573 6.13405 9.06381C6.17708 9.035 6.19054 8.97783 6.16488 8.93285L5.94175 8.54173ZM4.87312 8.70766C4.9144 8.71881 4.9363 8.75721 4.92613 8.79441L4.80734 9.22875C4.79368 9.2787 4.74375 9.30961 4.69295 9.29955C4.68955 9.29888 4.68621 9.29799 4.68293 9.29689C4.64062 9.28269 4.61784 9.23689 4.63203 9.19459L4.77695 8.76274C4.7904 8.72265 4.83173 8.69898 4.87312 8.70766ZM4.02931 8.25493C4.06281 8.23582 4.07447 8.19318 4.05317 8.1561C4.03004 8.1207 3.98408 8.10821 3.94622 8.12705L3.53839 8.32994C3.49843 8.34981 3.48216 8.39831 3.50203 8.43827C3.50357 8.44136 3.50531 8.44436 3.50724 8.44723C3.53605 8.49026 3.59321 8.50372 3.63819 8.47806L4.02931 8.25493ZM3.86339 7.1863C3.85223 7.22758 3.81383 7.24948 3.77664 7.23931L3.3423 7.12052C3.29235 7.10686 3.26144 7.05693 3.27149 7.00613C3.27216 7.00273 3.27305 6.99939 3.27415 6.99611C3.28835 6.9538 3.33415 6.93102 3.37646 6.94521L3.80831 7.09013C3.8484 7.10358 3.87207 7.14491 3.86339 7.1863ZM4.31612 6.34249C4.33522 6.37599 4.37787 6.38765 4.41495 6.36635C4.45035 6.34323 4.46283 6.29726 4.444 6.2594L4.24111 5.85157C4.22123 5.81161 4.17273 5.79534 4.13278 5.81521C4.12968 5.81675 4.12669 5.81849 4.12381 5.82042C4.08078 5.84923 4.06733 5.90639 4.09299 5.95137L4.31612 6.34249Z" fill="#FECA00"/>
</g>
</g>
<rect x="0.5" y="0.5" width="19" height="14" rx="0.5" stroke="black" stroke-opacity="0.1"/>
<defs>
<clipPath id="clip0_85465_15178">
<rect width="20" height="15" rx="1" fill="white"/>
</clipPath>
</defs>
</svg>
