<svg width="20" height="15" viewBox="0 0 20 15" fill="none" xmlns="http://www.w3.org/2000/svg">
<g clip-path="url(#clip0_85465_15316)">
<rect width="20" height="15" rx="1" fill="white"/>
<path fill-rule="evenodd" clip-rule="evenodd" d="M0 0V15H20V0H0Z" fill="#2E42A5"/>
<path fill-rule="evenodd" clip-rule="evenodd" d="M12.9427 7.03145C12.9427 7.03145 13.0003 7.67427 12.874 8.03852C12.7478 8.40278 12.6836 8.61422 12.6836 8.38139C12.6836 8.14855 12.5949 7.96404 12.5236 7.96404C12.4522 7.96404 12.5086 8.19493 12.4369 8.19493C12.3652 8.19493 12.1182 8.23463 12.1182 8.09933C12.1182 7.96404 12.0857 8.46228 12.246 8.50684C12.4062 8.55139 12.1682 8.68965 12.0619 8.64684C12.0619 8.64684 12.4991 8.78988 12.6705 8.91177C12.6705 8.91177 13.1844 9.55764 13.6651 9.47885C13.6651 9.47885 13.0106 9.25139 13.1259 8.8168C13.2412 8.38222 13.6651 8.31935 13.6651 8.31935C13.6651 8.31935 13.864 8.38633 13.8581 8.56175C13.8521 8.73718 14.0035 8.50684 14.0035 8.50684C14.0035 8.50684 14.0279 8.28519 14.001 8.23111C13.9741 8.17702 14.4566 8.07233 14.4871 7.84408C14.4871 7.84408 13.9941 7.86678 13.9602 7.80814C13.9264 7.74951 14.1128 7.65759 14.0545 7.54329C13.9962 7.42899 13.1259 8.19493 13.1259 8.19493C13.1259 8.19493 13.4264 7.6736 13.4264 7.39364C13.4264 7.11368 13.3501 6.92236 13.1259 6.92236C12.9017 6.92236 12.9427 7.03145 12.9427 7.03145Z" fill="#5EAA22"/>
<path fill-rule="evenodd" clip-rule="evenodd" d="M17.4736 7.18464C17.473 7.18556 17.4742 7.18637 17.4749 7.18562C17.5068 7.15399 17.7069 6.96822 17.8745 7.1147C18.0572 7.27435 17.7825 7.42993 17.7825 7.42993C17.7825 7.42993 17.9109 7.55534 18.0578 7.55534C18.2047 7.55534 18.2407 7.42993 18.2407 7.42993C18.2407 7.42993 18.2519 7.70902 18.731 7.8147C18.731 7.8147 18.9019 7.56766 18.731 7.43241C18.731 7.43241 18.9329 7.39024 18.9182 7.22561C18.9182 7.22561 18.7522 7.28254 18.6339 7.15171C18.5155 7.02088 18.2848 6.96055 18.1171 6.99072C17.6907 6.83592 17.4991 7.1398 17.4736 7.18464Z" fill="#5EAA22"/>
<path fill-rule="evenodd" clip-rule="evenodd" d="M14.5688 8.59233C14.5688 8.59233 15.0642 9.53034 14.7546 9.7247C14.445 9.91906 16.2268 9.7808 16.3947 9.7247C16.5626 9.6686 16.3608 9.37285 16.1746 9.29075C15.9884 9.20864 15.223 8.93547 15.0193 8.72944C14.8157 8.52342 14.9401 8.45031 15.1041 8.24694C15.2681 8.04356 15.8752 7.96223 15.8752 7.77214C15.8752 7.58205 16.2603 6.79808 16.5295 6.73893C16.7987 6.67978 16.6533 6.58663 16.5914 6.58663C16.5295 6.58663 16.1574 6.97275 16.0163 6.90308C15.8752 6.83342 15.858 6.83832 16.0163 6.66994C16.1746 6.50155 16.2938 6.30774 16.0845 6.44719C15.8752 6.58663 15.5302 6.80733 15.3643 6.80733C15.1985 6.80733 14.608 6.73205 14.6813 6.90308C14.7546 7.07412 14.7857 7.371 15.1041 7.57157C15.4225 7.77214 15.2841 7.91891 15.0193 8.11218C14.7546 8.30545 14.5688 8.59233 14.5688 8.59233Z" fill="#96877D"/>
<path d="M17.8559 7.35205L16.912 9.2578C16.912 9.2578 16.8844 9.79613 17.5593 9.43741C18.2341 9.0787 18.2076 8.82428 18.4021 8.82428C18.5967 8.82428 18.6585 8.71551 18.6585 8.71551L18.5289 8.61292C18.5289 8.61292 18.5139 8.42579 18.596 8.38376C18.596 8.38376 18.4349 8.29445 18.4119 8.36901C18.3889 8.44358 18.2754 8.21304 18.3396 8.21304C18.3396 8.21304 18.1976 8.44449 18.1677 8.53479C18.1677 8.53479 17.9622 8.4507 17.972 8.06106C17.9819 7.67143 17.8559 7.35205 17.8559 7.35205Z" fill="#FFD018"/>
<path d="M13.3629 7.05025C13.3629 7.05025 12.8822 7.16289 12.934 7.28011C12.9859 7.39734 13.0623 7.27695 12.8269 7.41821C12.8269 7.41821 12.4135 7.74 12.3234 7.70513C12.2333 7.67026 12.3872 7.78618 12.3872 7.41821C12.3872 7.05025 12.1471 7.34978 12.3872 7.10413C12.6273 6.85849 12.7115 7.05025 12.8269 6.9089C12.9424 6.76756 12.8386 6.84272 13.1518 6.84272C13.4649 6.84272 13.3629 7.05025 13.3629 7.05025Z" fill="#FFD018"/>
<path d="M14.8295 8.94434C14.8295 8.94434 13.4837 10.009 13.2148 10.0884C12.9458 10.1679 13.768 10.0666 13.9688 9.92603C14.1697 9.78548 14.8295 8.94434 14.8295 8.94434Z" fill="#FFD018"/>
<path fill-rule="evenodd" clip-rule="evenodd" d="M17.4976 10.812C17.4976 10.812 17.6268 11.6508 17.2896 11.5683C16.9524 11.4857 16.8124 11.443 16.8124 11.443C16.8124 11.443 16.9361 11.8337 17.1128 11.8337C17.1128 11.8337 17.414 12.4245 17.2981 12.611C17.2981 12.611 17.8168 12.1874 17.733 11.8506C17.6491 11.5138 17.867 11.906 17.867 11.906C17.867 11.906 18.0579 11.9988 18.1959 11.8952C18.3339 11.7915 18.1942 11.8376 18.0562 11.6403C17.9182 11.443 17.9523 10.889 17.5325 10.6018C17.1128 10.3146 17.0151 10.3238 17.0151 10.3238C17.0151 10.3238 16.706 9.81506 16.8912 9.84871C16.8912 9.84871 18.2184 10.3067 18.2529 10.4241C18.2874 10.5415 18.6393 10.52 18.4633 10.1843C18.2874 9.84871 17.3387 9.64644 17.2258 9.55179C17.1128 9.45714 17.2179 9.09815 17.0151 9.01994C16.8124 8.94174 16.2585 8.3868 16.2588 8.11937C16.2592 7.85195 15.9985 7.72606 15.7718 7.72606C15.5452 7.72606 15.1185 7.66016 14.9382 7.66016C14.7579 7.66016 14.5898 7.96376 14.764 7.96376C14.9382 7.96376 14.7894 8.53218 14.4978 8.6564C14.2061 8.78063 13.9807 8.95917 13.6476 8.95917C13.3146 8.95917 14.1191 9.24823 14.2473 9.13408C14.3755 9.01994 14.3334 8.84985 14.764 8.6564C15.1946 8.46295 15.6055 8.34841 15.5535 8.50241C15.5015 8.6564 15.6342 8.91398 15.8371 8.82076C16.0399 8.72753 16.105 8.49205 16.105 8.6564C16.105 8.82076 16.416 9.6649 16.6536 9.99436C16.8912 10.3238 17.4976 10.812 17.4976 10.812Z" fill="#5EAA22"/>
<path d="M14.6665 7.72949C14.6665 7.72949 14.5087 7.98257 14.6665 7.98257C14.8243 7.98257 15.0781 7.98257 14.9235 7.85603C14.7689 7.72949 14.6665 7.72949 14.6665 7.72949Z" fill="#FFD018"/>
<path d="M15.1937 7.7237C15.1937 7.7237 15.1945 7.89196 15.3038 7.89196C15.4132 7.89196 15.5105 8.06023 15.5105 7.89196C15.5105 7.7237 15.6625 7.7795 15.4281 7.7237C15.1937 7.6679 15.1937 7.7237 15.1937 7.7237Z" fill="#FFD018"/>
<path d="M15.8673 7.76221C15.8673 7.76221 15.7619 7.84211 15.8146 7.98464C15.8673 8.12717 15.9866 8.40922 15.8146 8.40922C15.6427 8.40922 15.5012 8.51091 15.6355 8.51091C15.7698 8.51091 16.0088 8.6126 16.0088 8.51091C16.0088 8.40922 16.106 8.67859 16.106 8.51091C16.106 8.34324 16.106 8.26312 16.106 8.16478C16.106 8.06644 16.2032 8.03817 16.106 7.90019C16.0088 7.76221 15.8673 7.76221 15.8673 7.76221Z" fill="#FFD018"/>
<path d="M16.1108 8.74316C16.1108 8.74316 16.3306 9.43929 16.45 9.52903C16.5695 9.61878 16.6231 10.3748 16.6756 10.457C16.728 10.5392 17.4424 10.954 17.4424 11.1766C17.4424 11.3993 17.6624 11.0056 17.5524 10.7851C17.4424 10.5647 17.0961 10.0953 16.847 9.99292C16.5979 9.89056 16.6295 9.6427 16.5772 9.4685C16.5248 9.29431 16.8871 9.60925 16.5772 9.21413C16.2673 8.819 16.2755 9.03103 16.3628 9.03103C16.45 9.03103 16.5373 8.98434 16.45 8.92294C16.3628 8.86154 16.1108 8.74316 16.1108 8.74316Z" fill="#FFD018"/>
<path d="M13.7815 10.1787C13.7815 10.1787 13.0679 11.4475 12.9405 11.513C12.8132 11.5786 12.7182 11.5919 12.6532 11.513C12.5881 11.4342 12.5814 11.7247 12.6532 11.8043C12.7249 11.8838 12.9405 11.8838 13.0602 11.7425C13.0602 11.7425 13.0791 12.0995 13.2655 12.3686C13.4519 12.6377 13.5295 12.5634 13.5295 12.7155C13.5295 12.8677 13.5736 13.0692 13.6305 13.0692C13.6873 13.0692 13.7314 13.5482 13.6305 13.5482C13.5295 13.5482 13.8644 13.5875 14.0103 13.4677C14.1563 13.3479 14.2187 13.2566 14.1875 13.2566C14.1563 13.2566 13.7815 13.058 13.7815 12.9175C13.7815 12.777 13.5295 12.667 13.5295 12.4584C13.5295 12.2498 13.3986 12.0018 13.3986 11.903C13.3986 11.8043 13.5105 11.9411 13.6305 11.8476C13.7504 11.7541 13.7815 11.513 13.7815 11.513C13.7815 11.513 13.5927 11.6406 13.5295 11.5768C13.4664 11.513 13.2676 11.3871 13.3986 11.1712C13.5295 10.9552 13.7815 10.1787 13.7815 10.1787Z" fill="#FFD018"/>
<path fill-rule="evenodd" clip-rule="evenodd" d="M15.0183 6.17725C15.0183 6.17725 14.7628 6.29167 14.848 6.46167C14.9331 6.63168 14.9638 6.70696 15.0183 6.66932C15.0729 6.63168 15.4557 6.56051 15.37 6.36888C15.2842 6.17725 15.1046 6.17725 15.1046 6.17725H15.0183Z" fill="#5EAA22"/>
<path d="M15.9047 6.08543C15.9047 6.08543 15.5672 5.93508 15.6797 6.08543C15.7922 6.23578 15.9362 6.31505 16.0397 6.31505C16.1433 6.31505 16.3584 6.28397 16.2509 6.22331C16.1433 6.16265 15.9047 6.08543 15.9047 6.08543Z" fill="#FFD018"/>
<path fill-rule="evenodd" clip-rule="evenodd" d="M12.5726 9.99232C12.5743 9.98352 12.5638 9.97735 12.5573 9.98355C12.4875 10.0505 12.2755 10.2761 12.3652 10.4724C12.4719 10.7058 12.5787 10.7869 12.5787 10.7869C12.5787 10.7869 12.6437 11.1442 12.778 11.2415C12.778 11.2415 12.9585 11.2322 12.9674 10.954C12.9674 10.954 13.2738 10.8635 13.3639 11.0561C13.3639 11.0561 13.3045 11.0778 13.3045 11.2415C13.3045 11.4052 13.4432 11.5825 13.4432 11.5825C13.4432 11.5825 13.5066 11.0179 13.792 10.654C14.0773 10.29 14.159 10.2182 14.159 10.2182V9.80859C14.159 9.80859 13.5686 10.2929 13.4432 10.6955C13.4432 10.6955 13.1458 10.7055 13.025 10.654C12.9042 10.6024 13.1759 10.5178 13.025 10.3346C12.8742 10.1513 12.9433 10.5926 12.778 10.4724C12.5186 10.3998 12.5548 10.0885 12.5726 9.99232Z" fill="#5EAA22"/>
<path fill-rule="evenodd" clip-rule="evenodd" d="M13.859 9.6377L16.8834 9.6377V11.4978C16.8834 11.4978 16.6368 13.0177 15.3197 13.7665C15.3197 13.7665 14.044 13.0074 13.859 11.4978V9.6377Z" fill="#5EAA22"/>
<mask id="mask0_85465_15316" style="mask-type:luminance" maskUnits="userSpaceOnUse" x="13" y="9" width="4" height="5">
<path fill-rule="evenodd" clip-rule="evenodd" d="M13.859 9.6377L16.8834 9.6377V11.4978C16.8834 11.4978 16.6368 13.0177 15.3197 13.7665C15.3197 13.7665 14.044 13.0074 13.859 11.4978V9.6377Z" fill="white"/>
</mask>
<g mask="url(#mask0_85465_15316)">
<path fill-rule="evenodd" clip-rule="evenodd" d="M15.2968 9.53711L13.9755 12.2975L15.7674 10.6593L17.0008 12.7171V9.53711L15.7674 10.5549L15.2968 9.53711Z" fill="#58A5FF"/>
<path d="M15.2551 11.5273C15.2551 11.4729 15.2993 11.4287 15.3537 11.4287C15.4082 11.4287 15.4523 11.4729 15.4523 11.5273V13.3011C15.4523 13.3555 15.4082 13.3997 15.3537 13.3997C15.2993 13.3997 15.2551 13.3555 15.2551 13.3011L15.2551 11.5273Z" fill="#FFD018"/>
<path d="M14.9129 11.965C14.8591 11.965 14.8154 11.9214 14.8154 11.8675C14.8154 11.8137 14.8591 11.77 14.9129 11.77H15.8025C15.8564 11.77 15.9 11.8137 15.9 11.8675C15.9 11.9214 15.8564 11.965 15.8025 11.965H14.9129Z" fill="#FFD018"/>
<path d="M15.498 13.4389L15.412 13.5092C15.2853 13.3542 15.1697 13.2797 15.0675 13.2797C14.9171 13.2797 14.7948 13.1534 14.6951 12.9138L14.7976 12.8711C14.882 13.0738 14.9738 13.1686 15.0675 13.1686C15.2095 13.1686 15.3523 13.2607 15.498 13.4389Z" fill="#FFD018"/>
<path fill-rule="evenodd" clip-rule="evenodd" d="M14.5954 12.5322C14.5948 12.5316 14.5939 12.5321 14.5939 12.5329V13.0735C14.5939 13.0742 14.5945 13.0746 14.5951 13.0743L14.9991 12.9069C14.9997 12.9067 14.9998 12.9059 14.9993 12.9054L14.5954 12.5322Z" fill="#FFD018"/>
<path d="M15.3189 13.4389L15.4049 13.5092C15.5316 13.3542 15.6472 13.2797 15.7494 13.2797C15.8998 13.2797 16.0221 13.1534 16.1218 12.9138L16.0192 12.8711C15.9349 13.0738 15.8431 13.1686 15.7494 13.1686C15.6074 13.1686 15.4646 13.2607 15.3189 13.4389Z" fill="#FFD018"/>
<path fill-rule="evenodd" clip-rule="evenodd" d="M16.2215 12.5322C16.2221 12.5316 16.223 12.5321 16.223 12.5329V13.0735C16.223 13.0742 16.2224 13.0746 16.2218 13.0743L15.8178 12.9069C15.8172 12.9067 15.8171 12.9059 15.8176 12.9054L16.2215 12.5322Z" fill="#FFD018"/>
<rect x="15.1549" y="10.7319" width="0.394366" height="0.591529" fill="white"/>
</g>
<g clip-path="url(#clip1_85465_15316)">
<rect width="11" height="9" fill="#2E42A5"/>
<path d="M-1.25269 8.1247L1.22291 9.21045L11.3062 1.18028L12.612 -0.433182L9.96468 -0.796071L5.85197 2.66436L2.54165 4.99588L-1.25269 8.1247Z" fill="#F7FCFF"/>
<path d="M-0.913696 8.88555L0.347505 9.51562L12.1431 -0.582947H10.3723L-0.913696 8.88555Z" fill="#F50100"/>
<path d="M12.5027 8.1248L10.3056 9.52051L-0.0561562 1.18038L-1.36198 -0.433076L1.28532 -0.795966L5.39803 2.66447L8.70835 4.99599L12.5027 8.1248Z" fill="#F7FCFF"/>
<path d="M12.4182 8.6707L11.157 9.30078L6.13431 4.97706L4.64518 4.49398L-1.48763 -0.427604H0.283246L6.41261 4.37716L8.04071 4.95642L12.4182 8.6707Z" fill="#F50100"/>
<path fill-rule="evenodd" clip-rule="evenodd" d="M6 0H5V4H0V5H5V9H6V5H11V4H6V0Z" fill="#F50100"/>
<path fill-rule="evenodd" clip-rule="evenodd" d="M4.0625 0H6.9375V3.0625L11 3V5.875L6.9375 5.9375V9H4.0625V5.9375L0 5.875V3L4.0625 3.0625V0ZM5 4H0V5H5V9H6V5H11V4H6V0H5V4Z" fill="#F7FCFF"/>
</g>
</g>
<rect x="0.5" y="0.5" width="19" height="14" rx="0.5" stroke="black" stroke-opacity="0.1"/>
<defs>
<clipPath id="clip0_85465_15316">
<rect width="20" height="15" rx="1" fill="white"/>
</clipPath>
<clipPath id="clip1_85465_15316">
<rect width="11" height="9" fill="white"/>
</clipPath>
</defs>
</svg>
