<svg width="20" height="15" viewBox="0 0 20 15" fill="none" xmlns="http://www.w3.org/2000/svg">
<g clip-path="url(#clip0_85465_15369)">
<rect width="20" height="15" rx="1" fill="white"/>
<path fill-rule="evenodd" clip-rule="evenodd" d="M5 0H20V15H5V0Z" fill="#EF0000"/>
<path fill-rule="evenodd" clip-rule="evenodd" d="M0 0H7.5V15H0V0Z" fill="#2F8D00"/>
<mask id="mask0_85465_15369" style="mask-type:luminance" maskUnits="userSpaceOnUse" x="2" y="2" width="11" height="11">
<path fill-rule="evenodd" clip-rule="evenodd" d="M7.44057 12.3796C4.77777 12.3796 2.61914 10.195 2.61914 7.50012C2.61914 4.80524 4.77777 2.62061 7.44057 2.62061C10.1034 2.62061 12.262 4.80524 12.262 7.50012C12.262 10.195 10.1034 12.3796 7.44057 12.3796Z" fill="white"/>
</mask>
<g mask="url(#mask0_85465_15369)">
<path fill-rule="evenodd" clip-rule="evenodd" d="M7.14307 2.5H7.76807V4.18675H7.14307V2.5Z" fill="#FFE017"/>
<path fill-rule="evenodd" clip-rule="evenodd" d="M7.14307 10.9341H7.76807V12.5003H7.14307V10.9341Z" fill="#FFE017"/>
<path d="M2.69671 7.75252L2.52197 7.30421C4.45021 6.53441 5.90556 6.03796 6.89306 5.81423C8.34188 5.48597 9.9338 5.24311 11.6689 5.08545L11.7115 5.56545C9.99629 5.7213 8.42478 5.96105 6.99709 6.28452C6.03899 6.50159 4.60385 6.99114 2.69671 7.75252Z" fill="#FFE017"/>
<path d="M11.9632 4.78993L11.8214 5.25C10.3641 4.78993 9.17694 4.59216 8.26443 4.65342L8.23291 4.17255C9.21265 4.10678 10.4546 4.31367 11.9632 4.78993Z" fill="#FFE017"/>
<path d="M12.4675 7.36233L12.1981 7.75973C11.4552 7.24394 10.5399 6.98486 9.44604 6.98486V6.50293C10.6319 6.50293 11.6411 6.78861 12.4675 7.36233Z" fill="#FFE017"/>
<path d="M12.0639 7.50684L12.187 7.97238C10.5854 8.40621 9.08167 8.65235 7.67576 8.71031C6.26016 8.76868 4.61025 8.52166 2.72461 7.97113L2.8566 7.50808C4.69641 8.04523 6.29681 8.28484 7.65638 8.22879C9.02564 8.17233 10.4949 7.93184 12.0639 7.50684Z" fill="#FFE017"/>
<path d="M11.8823 9.7727L11.1296 10.5444C9.6992 9.11527 8.43987 8.09342 7.35939 7.47943C6.26045 6.85496 4.82733 6.22085 3.06226 5.57967L3.42422 4.55908C5.24135 5.21918 6.72719 5.87661 7.88395 6.53394C9.05918 7.20176 10.3894 8.28114 11.8823 9.7727Z" fill="#FFE017"/>
<path d="M3.41162 10.2099L3.12671 9.82378C3.1665 9.79371 3.23749 9.74357 3.3353 9.68002C3.4968 9.5751 3.67614 9.47036 3.86909 9.37247C4.40053 9.10289 4.93361 8.93457 5.44206 8.91911C5.46693 8.91835 5.49169 8.91797 5.51635 8.91797V9.3999C5.49648 9.3999 5.47649 9.4002 5.45637 9.40082C5.02789 9.41384 4.55734 9.56242 4.08247 9.80331C3.90547 9.8931 3.74055 9.98943 3.59254 10.0856C3.54102 10.1191 3.49544 10.15 3.45638 10.1776C3.43361 10.1937 3.41849 10.2047 3.41162 10.2099Z" fill="#FFE017"/>
<path d="M3.63257 10.3768L3.75249 9.91038C5.34006 10.3285 6.56399 10.5368 7.41817 10.5368C8.26916 10.5368 9.53578 10.2911 11.2098 9.79785L11.3429 10.2606C9.62929 10.7654 8.32379 11.0187 7.41817 11.0187C6.51575 11.0187 5.25591 10.8043 3.63257 10.3768Z" fill="#FFE017"/>
<path d="M3.01416 6.05902L3.76858 5.28906L4.87316 6.39759L4.11874 7.16755L3.01416 6.05902Z" fill="#FFE017"/>
<path d="M9.27246 9.90517L9.83361 8.98145L11.5859 10.0717L11.0247 10.9955L9.27246 9.90517Z" fill="#FFE017"/>
</g>
<path fill-rule="evenodd" clip-rule="evenodd" d="M2.61914 7.50012C2.61914 10.195 4.77777 12.3796 7.44057 12.3796C10.1034 12.3796 12.262 10.195 12.262 7.50012C12.262 4.80524 10.1034 2.62061 7.44057 2.62061C4.77777 2.62061 2.61914 4.80524 2.61914 7.50012ZM11.6668 7.56036C11.6668 9.88928 9.80128 11.7772 7.50009 11.7772C5.19891 11.7772 3.33343 9.88928 3.33343 7.56036C3.33343 5.23145 5.19891 3.3435 7.50009 3.3435C9.80128 3.3435 11.6668 5.23145 11.6668 7.56036Z" fill="#F9E813"/>
<path d="M4.78564 4.49072V8.40367C5.04323 9.95247 5.91102 10.7269 7.38901 10.7269C8.86701 10.7269 9.73479 9.95247 9.99238 8.40367V4.49072H4.78564Z" fill="white"/>
<path d="M4.42847 4.12939H10.3495V8.43399L10.3445 8.46378C10.0585 10.1836 9.04453 11.0884 7.38898 11.0884C5.73342 11.0884 4.71944 10.1836 4.43342 8.46378L4.42847 8.43399V4.12939Z" fill="#C51918"/>
<path d="M5.78271 5.44434H8.99504V8.2199C8.99504 8.2199 8.75667 9.65321 7.38888 9.65321C6.02109 9.65321 5.78271 8.2199 5.78271 8.2199V5.44434Z" fill="#F7FCFF"/>
<path fill-rule="evenodd" clip-rule="evenodd" d="M5 4.42773H5.45181V4.72894H5V4.42773Z" fill="#F9E813"/>
<path fill-rule="evenodd" clip-rule="evenodd" d="M4.76196 4.54834H5.5953V4.69894H4.76196V4.54834Z" fill="#060101"/>
<path fill-rule="evenodd" clip-rule="evenodd" d="M4.76196 4.66846H5.21377V4.81906H4.76196V4.66846Z" fill="#F9E813"/>
<path fill-rule="evenodd" clip-rule="evenodd" d="M5.23804 4.66846H5.68984V4.81906H5.23804V4.66846Z" fill="#F9E813"/>
<path fill-rule="evenodd" clip-rule="evenodd" d="M4.76196 5.03027H5.06317V5.48208H4.76196V5.03027Z" fill="#F9E813"/>
<path fill-rule="evenodd" clip-rule="evenodd" d="M5.35718 5.03027H5.65838V5.48208H5.35718V5.03027Z" fill="#F9E813"/>
<path fill-rule="evenodd" clip-rule="evenodd" d="M5.11914 5.03027H5.26974V5.48208H5.11914V5.03027Z" fill="#F9E813"/>
<path fill-rule="evenodd" clip-rule="evenodd" d="M4.76196 4.90967H5.5953V5.06027H4.76196V4.90967Z" fill="#060101"/>
<path fill-rule="evenodd" clip-rule="evenodd" d="M4.76196 5.271H5.5953V5.4216H4.76196V5.271Z" fill="#060101"/>
<path fill-rule="evenodd" clip-rule="evenodd" d="M4.8811 4.78906H5.03171V4.93966H4.8811V4.78906Z" fill="#F9E813"/>
<path fill-rule="evenodd" clip-rule="evenodd" d="M5.35718 4.78906H5.50778V4.93966H5.35718V4.78906Z" fill="#F9E813"/>
<path fill-rule="evenodd" clip-rule="evenodd" d="M5.11914 4.66846H5.26974V4.96966H5.11914V4.66846Z" fill="#F9E813"/>
<path fill-rule="evenodd" clip-rule="evenodd" d="M7.26196 4.42773H7.71377V4.72894H7.26196V4.42773Z" fill="#F9E813"/>
<path fill-rule="evenodd" clip-rule="evenodd" d="M7.02393 4.54834H7.85726V4.69894H7.02393V4.54834Z" fill="#060101"/>
<path fill-rule="evenodd" clip-rule="evenodd" d="M7.02393 4.66846H7.47573V4.81906H7.02393V4.66846Z" fill="#F9E813"/>
<path fill-rule="evenodd" clip-rule="evenodd" d="M7.5 4.66846H7.95181V4.81906H7.5V4.66846Z" fill="#F9E813"/>
<path fill-rule="evenodd" clip-rule="evenodd" d="M7.02393 5.03027H7.32513V5.48208H7.02393V5.03027Z" fill="#F9E813"/>
<path fill-rule="evenodd" clip-rule="evenodd" d="M7.61914 5.03027H7.92035V5.48208H7.61914V5.03027Z" fill="#F9E813"/>
<path fill-rule="evenodd" clip-rule="evenodd" d="M7.3811 5.03027H7.53171V5.48208H7.3811V5.03027Z" fill="#F9E813"/>
<path fill-rule="evenodd" clip-rule="evenodd" d="M7.02393 4.90967H7.85726V5.06027H7.02393V4.90967Z" fill="#060101"/>
<path fill-rule="evenodd" clip-rule="evenodd" d="M7.02393 5.271H7.85726V5.4216H7.02393V5.271Z" fill="#060101"/>
<path fill-rule="evenodd" clip-rule="evenodd" d="M7.14307 4.78906H7.29367V4.93966H7.14307V4.78906Z" fill="#F9E813"/>
<path fill-rule="evenodd" clip-rule="evenodd" d="M7.61914 4.78906H7.76974V4.93966H7.61914V4.78906Z" fill="#F9E813"/>
<path fill-rule="evenodd" clip-rule="evenodd" d="M7.3811 4.66846H7.53171V4.96966H7.3811V4.66846Z" fill="#F9E813"/>
<path fill-rule="evenodd" clip-rule="evenodd" d="M9.40479 4.42773H9.85659V4.72894H9.40479V4.42773Z" fill="#F9E813"/>
<path fill-rule="evenodd" clip-rule="evenodd" d="M9.16675 4.54834H10.0001V4.69894H9.16675V4.54834Z" fill="#060101"/>
<path fill-rule="evenodd" clip-rule="evenodd" d="M9.16675 4.66846H9.61856V4.81906H9.16675V4.66846Z" fill="#F9E813"/>
<path fill-rule="evenodd" clip-rule="evenodd" d="M9.64282 4.66846H10.0946V4.81906H9.64282V4.66846Z" fill="#F9E813"/>
<path fill-rule="evenodd" clip-rule="evenodd" d="M9.16675 5.03027H9.46795V5.48208H9.16675V5.03027Z" fill="#F9E813"/>
<path fill-rule="evenodd" clip-rule="evenodd" d="M9.76196 5.03027H10.0632V5.48208H9.76196V5.03027Z" fill="#F9E813"/>
<path fill-rule="evenodd" clip-rule="evenodd" d="M9.52393 5.03027H9.67453V5.48208H9.52393V5.03027Z" fill="#F9E813"/>
<path fill-rule="evenodd" clip-rule="evenodd" d="M9.16675 4.90967H10.0001V5.06027H9.16675V4.90967Z" fill="#060101"/>
<path fill-rule="evenodd" clip-rule="evenodd" d="M9.16675 5.271H10.0001V5.4216H9.16675V5.271Z" fill="#060101"/>
<path fill-rule="evenodd" clip-rule="evenodd" d="M9.28589 4.78906H9.43649V4.93966H9.28589V4.78906Z" fill="#F9E813"/>
<path fill-rule="evenodd" clip-rule="evenodd" d="M9.76196 4.78906H9.91257V4.93966H9.76196V4.78906Z" fill="#F9E813"/>
<path fill-rule="evenodd" clip-rule="evenodd" d="M9.52393 4.66846H9.67453V4.96966H9.52393V4.66846Z" fill="#F9E813"/>
<path fill-rule="evenodd" clip-rule="evenodd" d="M9.40479 6.59619H9.85659V6.8974H9.40479V6.59619Z" fill="#F9E813"/>
<path fill-rule="evenodd" clip-rule="evenodd" d="M9.16675 6.7168H10.0001V6.8674H9.16675V6.7168Z" fill="#060101"/>
<path fill-rule="evenodd" clip-rule="evenodd" d="M9.16675 6.83691H9.61856V6.98752H9.16675V6.83691Z" fill="#F9E813"/>
<path fill-rule="evenodd" clip-rule="evenodd" d="M9.64282 6.83691H10.0946V6.98752H9.64282V6.83691Z" fill="#F9E813"/>
<path fill-rule="evenodd" clip-rule="evenodd" d="M9.16675 7.19873H9.46795V7.65054H9.16675V7.19873Z" fill="#F9E813"/>
<path fill-rule="evenodd" clip-rule="evenodd" d="M9.76196 7.19873H10.0632V7.65054H9.76196V7.19873Z" fill="#F9E813"/>
<path fill-rule="evenodd" clip-rule="evenodd" d="M9.52393 7.19873H9.67453V7.65054H9.52393V7.19873Z" fill="#F9E813"/>
<path fill-rule="evenodd" clip-rule="evenodd" d="M9.16675 7.07812H10.0001V7.22873H9.16675V7.07812Z" fill="#060101"/>
<path fill-rule="evenodd" clip-rule="evenodd" d="M9.16675 7.43945H10.0001V7.59006H9.16675V7.43945Z" fill="#060101"/>
<path fill-rule="evenodd" clip-rule="evenodd" d="M9.28589 6.95752H9.43649V7.10812H9.28589V6.95752Z" fill="#F9E813"/>
<path fill-rule="evenodd" clip-rule="evenodd" d="M9.76196 6.95752H9.91257V7.10812H9.76196V6.95752Z" fill="#F9E813"/>
<path fill-rule="evenodd" clip-rule="evenodd" d="M9.52393 6.83691H9.67453V7.13812H9.52393V6.83691Z" fill="#F9E813"/>
<path fill-rule="evenodd" clip-rule="evenodd" d="M5 6.59619H5.45181V6.8974H5V6.59619Z" fill="#F9E813"/>
<path fill-rule="evenodd" clip-rule="evenodd" d="M4.76196 6.7168H5.5953V6.8674H4.76196V6.7168Z" fill="#060101"/>
<path fill-rule="evenodd" clip-rule="evenodd" d="M4.76196 6.83691H5.21377V6.98752H4.76196V6.83691Z" fill="#F9E813"/>
<path fill-rule="evenodd" clip-rule="evenodd" d="M5.23804 6.83691H5.68984V6.98752H5.23804V6.83691Z" fill="#F9E813"/>
<path fill-rule="evenodd" clip-rule="evenodd" d="M4.76196 7.19873H5.06317V7.65054H4.76196V7.19873Z" fill="#F9E813"/>
<path fill-rule="evenodd" clip-rule="evenodd" d="M5.35718 7.19873H5.65838V7.65054H5.35718V7.19873Z" fill="#F9E813"/>
<path fill-rule="evenodd" clip-rule="evenodd" d="M5.11914 7.19873H5.26974V7.65054H5.11914V7.19873Z" fill="#F9E813"/>
<path fill-rule="evenodd" clip-rule="evenodd" d="M4.76196 7.07812H5.5953V7.22873H4.76196V7.07812Z" fill="#060101"/>
<path fill-rule="evenodd" clip-rule="evenodd" d="M4.76196 7.43945H5.5953V7.59006H4.76196V7.43945Z" fill="#060101"/>
<path fill-rule="evenodd" clip-rule="evenodd" d="M4.8811 6.95752H5.03171V7.10812H4.8811V6.95752Z" fill="#F9E813"/>
<path fill-rule="evenodd" clip-rule="evenodd" d="M5.35718 6.95752H5.50778V7.10812H5.35718V6.95752Z" fill="#F9E813"/>
<path fill-rule="evenodd" clip-rule="evenodd" d="M5.11914 6.83691H5.26974V7.13812H5.11914V6.83691Z" fill="#F9E813"/>
<path fill-rule="evenodd" clip-rule="evenodd" d="M5.29004 9.31494L5.58046 8.96884L5.81119 9.16245L5.52078 9.50855L5.29004 9.31494Z" fill="#F9E813"/>
<path fill-rule="evenodd" clip-rule="evenodd" d="M5.22925 9.5752L5.7649 8.93682L5.88027 9.03363L5.34462 9.672L5.22925 9.5752Z" fill="#060101"/>
<path fill-rule="evenodd" clip-rule="evenodd" d="M5.32153 9.65234L5.61195 9.30624L5.72732 9.40304L5.4369 9.74915L5.32153 9.65234Z" fill="#F9E813"/>
<path fill-rule="evenodd" clip-rule="evenodd" d="M5.62769 9.2876L5.9181 8.94149L6.03347 9.0383L5.74305 9.3844L5.62769 9.2876Z" fill="#F9E813"/>
<path fill-rule="evenodd" clip-rule="evenodd" d="M5.59839 9.88477L5.792 9.65403L6.1381 9.94445L5.94449 10.1752L5.59839 9.88477Z" fill="#F9E813"/>
<path fill-rule="evenodd" clip-rule="evenodd" d="M5.98096 9.42871L6.17457 9.19797L6.52067 9.48839L6.32706 9.71913L5.98096 9.42871Z" fill="#F9E813"/>
<path fill-rule="evenodd" clip-rule="evenodd" d="M5.82788 9.61133L5.92469 9.49596L6.27079 9.78638L6.17399 9.90174L5.82788 9.61133Z" fill="#F9E813"/>
<path fill-rule="evenodd" clip-rule="evenodd" d="M5.5061 9.80713L6.04176 9.16876L6.15713 9.26556L5.62147 9.90393L5.5061 9.80713Z" fill="#060101"/>
<path fill-rule="evenodd" clip-rule="evenodd" d="M5.78296 10.0396L6.31862 9.40118L6.43398 9.49799L5.89833 10.1364L5.78296 10.0396Z" fill="#060101"/>
<path fill-rule="evenodd" clip-rule="evenodd" d="M5.49048 9.63867L5.58728 9.5233L5.70265 9.62011L5.60585 9.73548L5.49048 9.63867Z" fill="#F9E813"/>
<path fill-rule="evenodd" clip-rule="evenodd" d="M5.79639 9.27393L5.89319 9.15856L6.00856 9.25536L5.91175 9.37073L5.79639 9.27393Z" fill="#F9E813"/>
<path fill-rule="evenodd" clip-rule="evenodd" d="M5.55103 9.37891L5.64783 9.26354L5.87857 9.45715L5.78176 9.57252L5.55103 9.37891Z" fill="#F9E813"/>
<path fill-rule="evenodd" clip-rule="evenodd" d="M9.36157 9.0415L9.65199 9.38761L9.42125 9.58122L9.13084 9.23511L9.36157 9.0415Z" fill="#F9E813"/>
<path fill-rule="evenodd" clip-rule="evenodd" d="M9.11621 8.93652L9.65187 9.57489L9.5365 9.6717L9.00084 9.03333L9.11621 8.93652Z" fill="#060101"/>
<path fill-rule="evenodd" clip-rule="evenodd" d="M9.02393 9.01367L9.31434 9.35978L9.19897 9.45658L8.90856 9.11048L9.02393 9.01367Z" fill="#F9E813"/>
<path fill-rule="evenodd" clip-rule="evenodd" d="M9.33008 9.37842L9.62049 9.72452L9.50513 9.82133L9.21471 9.47522L9.33008 9.37842Z" fill="#F9E813"/>
<path fill-rule="evenodd" clip-rule="evenodd" d="M8.74707 9.24609L8.94068 9.47683L8.59458 9.76725L8.40097 9.53651L8.74707 9.24609Z" fill="#F9E813"/>
<path fill-rule="evenodd" clip-rule="evenodd" d="M9.12964 9.70215L9.32325 9.93288L8.97714 10.2233L8.78353 9.99256L9.12964 9.70215Z" fill="#F9E813"/>
<path fill-rule="evenodd" clip-rule="evenodd" d="M8.97656 9.51953L9.07337 9.6349L8.72726 9.92532L8.63046 9.80995L8.97656 9.51953Z" fill="#F9E813"/>
<path fill-rule="evenodd" clip-rule="evenodd" d="M8.83936 9.16846L9.37501 9.80683L9.25964 9.90363L8.72399 9.26526L8.83936 9.16846Z" fill="#060101"/>
<path fill-rule="evenodd" clip-rule="evenodd" d="M8.5625 9.40088L9.09816 10.0392L8.98279 10.1361L8.44713 9.49768L8.5625 9.40088Z" fill="#060101"/>
<path fill-rule="evenodd" clip-rule="evenodd" d="M9.00806 9.18262L9.10486 9.29799L8.98949 9.39479L8.89269 9.27942L9.00806 9.18262Z" fill="#F9E813"/>
<path fill-rule="evenodd" clip-rule="evenodd" d="M9.31421 9.54736L9.41101 9.66273L9.29565 9.75954L9.19884 9.64417L9.31421 9.54736Z" fill="#F9E813"/>
<path fill-rule="evenodd" clip-rule="evenodd" d="M9.25342 9.2876L9.35022 9.40297L9.11949 9.59658L9.02268 9.48121L9.25342 9.2876Z" fill="#F9E813"/>
<path fill-rule="evenodd" clip-rule="evenodd" d="M7.84913 5.75293H7.02393V6.35385C7.02393 6.35385 7.08516 6.66417 7.43653 6.66417C7.7879 6.66417 7.84913 6.35385 7.84913 6.35385V5.75293ZM7.38107 5.99389C7.38107 6.06043 7.32777 6.11438 7.26202 6.11438C7.19627 6.11438 7.14297 6.06043 7.14297 5.99389C7.14297 5.92735 7.19627 5.87341 7.26202 5.87341C7.32777 5.87341 7.38107 5.92735 7.38107 5.99389ZM7.26202 6.5963C7.32777 6.5963 7.38107 6.54236 7.38107 6.47582C7.38107 6.40928 7.32777 6.35534 7.26202 6.35534C7.19627 6.35534 7.14297 6.40928 7.14297 6.47582C7.14297 6.54236 7.19627 6.5963 7.26202 6.5963ZM7.73821 6.47582C7.73821 6.54236 7.68491 6.5963 7.61916 6.5963C7.55342 6.5963 7.50012 6.54236 7.50012 6.47582C7.50012 6.40928 7.55342 6.35534 7.61916 6.35534C7.68491 6.35534 7.73821 6.40928 7.73821 6.47582ZM7.44059 6.35534C7.50634 6.35534 7.55964 6.3014 7.55964 6.23486C7.55964 6.16832 7.50634 6.11438 7.44059 6.11438C7.37484 6.11438 7.32154 6.16832 7.32154 6.23486C7.32154 6.3014 7.37484 6.35534 7.44059 6.35534ZM7.73821 5.99389C7.73821 6.06043 7.68491 6.11438 7.61916 6.11438C7.55342 6.11438 7.50012 6.06043 7.50012 5.99389C7.50012 5.92735 7.55342 5.87341 7.61916 5.87341C7.68491 5.87341 7.73821 5.92735 7.73821 5.99389Z" fill="#013399"/>
<path fill-rule="evenodd" clip-rule="evenodd" d="M7.84913 7.07812H7.02393V7.67905C7.02393 7.67905 7.08516 7.98936 7.43653 7.98936C7.7879 7.98936 7.84913 7.67905 7.84913 7.67905V7.07812ZM7.38107 7.31909C7.38107 7.38563 7.32777 7.43957 7.26202 7.43957C7.19627 7.43957 7.14297 7.38563 7.14297 7.31909C7.14297 7.25255 7.19627 7.19861 7.26202 7.19861C7.32777 7.19861 7.38107 7.25255 7.38107 7.31909ZM7.26202 7.9215C7.32777 7.9215 7.38107 7.86756 7.38107 7.80102C7.38107 7.73448 7.32777 7.68053 7.26202 7.68053C7.19627 7.68053 7.14297 7.73448 7.14297 7.80102C7.14297 7.86756 7.19627 7.9215 7.26202 7.9215ZM7.73821 7.80102C7.73821 7.86756 7.68491 7.9215 7.61916 7.9215C7.55342 7.9215 7.50012 7.86756 7.50012 7.80102C7.50012 7.73448 7.55342 7.68053 7.61916 7.68053C7.68491 7.68053 7.73821 7.73448 7.73821 7.80102ZM7.44059 7.68053C7.50634 7.68053 7.55964 7.62659 7.55964 7.56005C7.55964 7.49351 7.50634 7.43957 7.44059 7.43957C7.37484 7.43957 7.32154 7.49351 7.32154 7.56005C7.32154 7.62659 7.37484 7.68053 7.44059 7.68053ZM7.73821 7.31909C7.73821 7.38563 7.68491 7.43957 7.61916 7.43957C7.55342 7.43957 7.50012 7.38563 7.50012 7.31909C7.50012 7.25255 7.55342 7.19861 7.61916 7.19861C7.68491 7.19861 7.73821 7.25255 7.73821 7.31909Z" fill="#013399"/>
<path fill-rule="evenodd" clip-rule="evenodd" d="M8.92067 7.07812H8.09546V7.67905C8.09546 7.67905 8.1567 7.98936 8.50806 7.98936C8.85943 7.98936 8.92067 7.67905 8.92067 7.67905V7.07812ZM8.4526 7.31909C8.4526 7.38563 8.3993 7.43957 8.33355 7.43957C8.26781 7.43957 8.21451 7.38563 8.21451 7.31909C8.21451 7.25255 8.26781 7.19861 8.33355 7.19861C8.3993 7.19861 8.4526 7.25255 8.4526 7.31909ZM8.33355 7.9215C8.3993 7.9215 8.4526 7.86756 8.4526 7.80102C8.4526 7.73448 8.3993 7.68053 8.33355 7.68053C8.26781 7.68053 8.21451 7.73448 8.21451 7.80102C8.21451 7.86756 8.26781 7.9215 8.33355 7.9215ZM8.80974 7.80102C8.80974 7.86756 8.75645 7.9215 8.6907 7.9215C8.62495 7.9215 8.57165 7.86756 8.57165 7.80102C8.57165 7.73448 8.62495 7.68053 8.6907 7.68053C8.75645 7.68053 8.80974 7.73448 8.80974 7.80102ZM8.51213 7.68053C8.57787 7.68053 8.63117 7.62659 8.63117 7.56005C8.63117 7.49351 8.57787 7.43957 8.51213 7.43957C8.44638 7.43957 8.39308 7.49351 8.39308 7.56005C8.39308 7.62659 8.44638 7.68053 8.51213 7.68053ZM8.80974 7.31909C8.80974 7.38563 8.75645 7.43957 8.6907 7.43957C8.62495 7.43957 8.57165 7.38563 8.57165 7.31909C8.57165 7.25255 8.62495 7.19861 8.6907 7.19861C8.75645 7.19861 8.80974 7.25255 8.80974 7.31909Z" fill="#013399"/>
<path fill-rule="evenodd" clip-rule="evenodd" d="M6.77784 7.07812H5.95264V7.67905C5.95264 7.67905 6.01387 7.98936 6.36524 7.98936C6.71661 7.98936 6.77784 7.67905 6.77784 7.67905V7.07812ZM6.30978 7.31909C6.30978 7.38563 6.25648 7.43957 6.19073 7.43957C6.12498 7.43957 6.07168 7.38563 6.07168 7.31909C6.07168 7.25255 6.12498 7.19861 6.19073 7.19861C6.25648 7.19861 6.30978 7.25255 6.30978 7.31909ZM6.19073 7.9215C6.25648 7.9215 6.30978 7.86756 6.30978 7.80102C6.30978 7.73448 6.25648 7.68053 6.19073 7.68053C6.12498 7.68053 6.07168 7.73448 6.07168 7.80102C6.07168 7.86756 6.12498 7.9215 6.19073 7.9215ZM6.66692 7.80102C6.66692 7.86756 6.61362 7.9215 6.54787 7.9215C6.48213 7.9215 6.42883 7.86756 6.42883 7.80102C6.42883 7.73448 6.48213 7.68053 6.54787 7.68053C6.61362 7.68053 6.66692 7.73448 6.66692 7.80102ZM6.3693 7.68053C6.43505 7.68053 6.48835 7.62659 6.48835 7.56005C6.48835 7.49351 6.43505 7.43957 6.3693 7.43957C6.30356 7.43957 6.25026 7.49351 6.25026 7.56005C6.25026 7.62659 6.30356 7.68053 6.3693 7.68053ZM6.66692 7.31909C6.66692 7.38563 6.61362 7.43957 6.54787 7.43957C6.48213 7.43957 6.42883 7.38563 6.42883 7.31909C6.42883 7.25255 6.48213 7.19861 6.54787 7.19861C6.61362 7.19861 6.66692 7.25255 6.66692 7.31909Z" fill="#013399"/>
<path fill-rule="evenodd" clip-rule="evenodd" d="M7.84913 8.40381H7.02393V9.00473C7.02393 9.00473 7.08516 9.31505 7.43653 9.31505C7.7879 9.31505 7.84913 9.00473 7.84913 9.00473V8.40381ZM7.38107 8.64477C7.38107 8.71131 7.32777 8.76525 7.26202 8.76525C7.19627 8.76525 7.14297 8.71131 7.14297 8.64477C7.14297 8.57823 7.19627 8.52429 7.26202 8.52429C7.32777 8.52429 7.38107 8.57823 7.38107 8.64477ZM7.26202 9.24718C7.32777 9.24718 7.38107 9.19324 7.38107 9.1267C7.38107 9.06016 7.32777 9.00622 7.26202 9.00622C7.19627 9.00622 7.14297 9.06016 7.14297 9.1267C7.14297 9.19324 7.19627 9.24718 7.26202 9.24718ZM7.73821 9.1267C7.73821 9.19324 7.68491 9.24718 7.61916 9.24718C7.55342 9.24718 7.50012 9.19324 7.50012 9.1267C7.50012 9.06016 7.55342 9.00622 7.61916 9.00622C7.68491 9.00622 7.73821 9.06016 7.73821 9.1267ZM7.44059 9.00622C7.50634 9.00622 7.55964 8.95228 7.55964 8.88574C7.55964 8.8192 7.50634 8.76525 7.44059 8.76525C7.37484 8.76525 7.32154 8.8192 7.32154 8.88574C7.32154 8.95228 7.37484 9.00622 7.44059 9.00622ZM7.73821 8.64477C7.73821 8.71131 7.68491 8.76525 7.61916 8.76525C7.55342 8.76525 7.50012 8.71131 7.50012 8.64477C7.50012 8.57823 7.55342 8.52429 7.61916 8.52429C7.68491 8.52429 7.73821 8.57823 7.73821 8.64477Z" fill="#013399"/>
</g>
<rect x="0.5" y="0.5" width="19" height="14" rx="0.5" stroke="black" stroke-opacity="0.1"/>
<defs>
<clipPath id="clip0_85465_15369">
<rect width="20" height="15" rx="1" fill="white"/>
</clipPath>
</defs>
</svg>
