<svg xmlns="http://www.w3.org/2000/svg" width="20" height="15" fill="none" viewBox="0 0 20 15"><g clip-path="url(#py_svg__a)"><rect width="20" height="15" fill="#fff" rx="1"/><path fill="#f7fcff" fill-rule="evenodd" d="M0 0v15h20V0z" clip-rule="evenodd"/><mask id="py_svg__b" width="20" height="15" x="0" y="0" maskUnits="userSpaceOnUse" style="mask-type:luminance"><path fill="#fff" fill-rule="evenodd" d="M0 0v15h20V0z" clip-rule="evenodd"/></mask><g mask="url(#py_svg__b)"><path stroke="#272727" stroke-width=".625" d="M12.188 7.5a2.188 2.188 0 1 1-4.376 0 2.188 2.188 0 0 1 4.376 0Z"/><path fill="#f05234" fill-rule="evenodd" d="M0 0v5h20V0z" clip-rule="evenodd"/><path fill="#3d58db" fill-rule="evenodd" d="M0 10v5h20v-5z" clip-rule="evenodd"/><path stroke="#73be4a" stroke-width=".625" d="M9.174 6.36s-.704.487-.45 1.432c.252.945 1.24.98 1.24.98"/><path stroke="#73be4a" stroke-width=".625" d="M10.73 6.36s.704.487.45 1.432-1.24.98-1.24.98"/><path fill="#fbcd17" fill-rule="evenodd" d="M10.002 7.967a.625.625 0 1 0 0-1.25.625.625 0 0 0 0 1.25" clip-rule="evenodd"/></g></g><rect width="19" height="14" x=".5" y=".5" stroke="#000" stroke-opacity=".1" rx=".5"/><defs><clipPath id="py_svg__a"><rect width="20" height="15" fill="#fff" rx="1"/></clipPath></defs></svg>