<svg width="20" height="15" viewBox="0 0 20 15" fill="none" xmlns="http://www.w3.org/2000/svg">
<g clip-path="url(#clip0_85465_15558)">
<rect width="20" height="15" rx="1" fill="white"/>
<path fill-rule="evenodd" clip-rule="evenodd" d="M0 0V15H20V0H0Z" fill="#4857A1"/>
<mask id="mask0_85465_15558" style="mask-type:luminance" maskUnits="userSpaceOnUse" x="0" y="0" width="20" height="15">
<path fill-rule="evenodd" clip-rule="evenodd" d="M0 0V15H20V0H0Z" fill="white"/>
</mask>
<g mask="url(#mask0_85465_15558)">
<path fill-rule="evenodd" clip-rule="evenodd" d="M0 0V5H20V0H0Z" fill="#C51918"/>
<path fill-rule="evenodd" clip-rule="evenodd" d="M0 10V15H20V10H0Z" fill="#F7FCFF"/>
<path fill-rule="evenodd" clip-rule="evenodd" d="M7.15975 2.37716L7.08903 2.09375C7.14932 2.11227 7.2148 2.13127 7.28391 2.15081L7.28324 2.14718C8.10827 2.22202 9.3836 2.64908 9.62101 3.10266C9.71277 3.27798 9.62152 3.42743 9.50194 3.62329C9.48407 3.65256 9.46557 3.68286 9.44696 3.71444C9.38683 3.81643 9.33232 3.91392 9.28095 4.0058C9.09562 4.33729 8.95113 4.59572 8.73119 4.72846L8.73558 5.47908L5.05087 5.4474L5.04609 4.6892C4.85773 4.54815 4.72299 4.30716 4.5545 4.0058L4.5545 4.0058L4.55449 4.00579L4.55449 4.00579L4.55449 4.00578C4.50312 3.9139 4.44862 3.81642 4.3885 3.71444C4.36988 3.68286 4.35138 3.65256 4.33351 3.62329L4.33351 3.62329C4.21393 3.42743 4.12268 3.27798 4.21444 3.10266C4.39294 2.76163 5.20161 2.42996 5.9426 2.25455C6.0884 2.2027 6.24077 2.15426 6.39184 2.10786L6.45927 2.15667C6.51786 2.14867 6.57462 2.14215 6.62908 2.13721L6.71397 2.32652H7.01399C7.01399 2.32652 7.19515 2.86436 7.19515 3.16305C7.19515 3.46175 7.01399 3.70875 7.01399 3.70875V3.91493C7.04545 3.91756 7.07845 3.92075 7.11276 3.92446C7.11299 3.90657 7.11474 3.88773 7.11814 3.86845C7.13551 3.76992 7.18953 3.69709 7.2388 3.70578C7.28806 3.71446 7.31392 3.80138 7.29654 3.89991C7.29372 3.91593 7.28993 3.93127 7.28534 3.9457C7.47973 3.97213 7.69757 4.00904 7.9039 4.047C7.98248 3.8947 8.07828 3.74422 8.16975 3.60054L8.16976 3.60054C8.4062 3.22916 8.6137 2.90323 8.42004 2.70866C8.38331 2.67176 8.31685 2.63743 8.23112 2.60565C7.94779 2.53515 7.63931 2.48077 7.33953 2.45358L7.33048 2.40432C7.27067 2.3946 7.21325 2.38555 7.15975 2.37716ZM8.55989 4.17684C8.66464 4.19891 8.72817 4.21295 8.72817 4.21295L8.7288 4.32036C9.09386 4.039 9.35215 3.41556 9.37543 3.21133C9.38947 3.08821 9.19422 2.94626 8.88809 2.81764C9.03297 3.09243 8.83892 3.36512 8.5954 3.70734C8.50388 3.83595 8.40537 3.97438 8.31523 4.12644L8.40463 4.14459C8.40385 4.11636 8.40757 4.08461 8.41632 4.05196C8.44221 3.95532 8.50238 3.88747 8.5507 3.90042C8.59902 3.91337 8.6172 4.00221 8.59131 4.09885C8.58352 4.12793 8.57262 4.15439 8.55989 4.17684ZM6.67708 3.91633V3.6867C6.67708 3.6867 6.52023 3.5114 6.49592 3.14631C6.47853 2.88515 6.53237 2.57813 6.56443 2.4245C6.3304 2.45418 6.08369 2.50027 5.8448 2.55688C5.68629 2.60151 5.55998 2.65205 5.50363 2.70866C5.30997 2.90323 5.51748 3.22916 5.75392 3.60054L5.75392 3.60054L5.75393 3.60055C5.84228 3.73933 5.93467 3.88445 6.01168 4.03143C6.14486 4.0026 6.2787 3.9759 6.40365 3.95467C6.39827 3.93535 6.39441 3.91427 6.39247 3.89208C6.38375 3.79241 6.41708 3.70807 6.46691 3.70371C6.51675 3.69935 6.56422 3.77662 6.57294 3.87629C6.57452 3.89435 6.57472 3.91192 6.57369 3.92859C6.60957 3.92378 6.64413 3.91966 6.67708 3.91633ZM5.60758 4.12499C5.51768 3.9735 5.41951 3.83554 5.32828 3.70734L5.32828 3.70734L5.32828 3.70734C5.07925 3.35738 4.88196 3.08014 5.04594 2.799C4.6875 2.9378 4.44602 3.08853 4.46002 3.21133C4.48202 3.4043 4.7138 3.97148 5.04722 4.27079C5.07044 4.26432 5.19937 4.22855 5.38134 4.18177C5.36737 4.15996 5.35504 4.134 5.3457 4.10525C5.31479 4.0101 5.32829 3.92043 5.37587 3.90497C5.42345 3.88951 5.48708 3.95412 5.518 4.04927C5.52867 4.08211 5.53405 4.1143 5.53456 4.14301L5.60758 4.12499Z" fill="#F6C540"/>
<path fill-rule="evenodd" clip-rule="evenodd" d="M7.28256 2.19121C7.28256 2.41089 7.10007 2.58897 6.87495 2.58897C6.64983 2.58897 6.46734 2.41089 6.46734 2.19121C6.46734 1.97154 6.64983 1.79346 6.87495 1.79346C7.10007 1.79346 7.28256 1.97154 7.28256 2.19121ZM6.87495 5.14491C7.05004 5.14491 7.19198 5.0638 7.19198 4.96375C7.19198 4.8637 7.05004 4.78259 6.87495 4.78259C6.69986 4.78259 6.55792 4.8637 6.55792 4.96375C6.55792 5.0638 6.69986 5.14491 6.87495 5.14491ZM5.28981 5.09962C5.28981 5.17465 5.22897 5.23549 5.15394 5.23549C5.0789 5.23549 5.01807 5.17465 5.01807 5.09962C5.01807 5.02458 5.0789 4.96375 5.15394 4.96375C5.22897 4.96375 5.28981 5.02458 5.28981 5.09962ZM8.91299 5.09962C8.91299 5.17465 8.85216 5.23549 8.77712 5.23549C8.70209 5.23549 8.64125 5.17465 8.64125 5.09962C8.64125 5.02458 8.70209 4.96375 8.77712 4.96375C8.85216 4.96375 8.91299 5.02458 8.91299 5.09962Z" fill="#2E42A5"/>
<path fill-rule="evenodd" clip-rule="evenodd" d="M6.19557 5.00892C6.19557 5.08396 6.09419 5.14479 5.96913 5.14479C5.84406 5.14479 5.74268 5.08396 5.74268 5.00892C5.74268 4.93388 5.84406 4.87305 5.96913 4.87305C6.09419 4.87305 6.19557 4.93388 6.19557 5.00892ZM8.09775 5.00892C8.09775 5.08396 7.99636 5.14479 7.8713 5.14479C7.74623 5.14479 7.64485 5.08396 7.64485 5.00892C7.64485 4.93388 7.74623 4.87305 7.8713 4.87305C7.99636 4.87305 8.09775 4.93388 8.09775 5.00892Z" fill="#C5363C"/>
<path fill-rule="evenodd" clip-rule="evenodd" d="M7.64481 3.87696C7.64481 3.97701 7.60425 4.05812 7.55423 4.05812C7.5042 4.05812 7.46365 3.97701 7.46365 3.87696C7.46365 3.77691 7.5042 3.6958 7.55423 3.6958C7.60425 3.6958 7.64481 3.77691 7.64481 3.87696ZM6.28168 3.84897C6.3126 3.94412 6.29909 4.03379 6.25151 4.04925C6.20394 4.06471 6.1403 4.00011 6.10939 3.90495C6.07847 3.8098 6.09197 3.72013 6.13955 3.70467C6.18713 3.68921 6.25076 3.75381 6.28168 3.84897ZM5.2161 4.34012C5.26368 4.32466 5.27719 4.23499 5.24627 4.13983C5.21535 4.04468 5.15172 3.98007 5.10414 3.99553C5.05656 4.01099 5.04306 4.10066 5.07398 4.19581C5.10489 4.29097 5.16853 4.35558 5.2161 4.34012ZM8.80024 4.21717C8.74722 4.30202 8.66984 4.34931 8.62742 4.3228C8.585 4.29629 8.59358 4.20602 8.6466 4.12117C8.69962 4.03632 8.777 3.98903 8.81942 4.01554C8.86184 4.04205 8.85326 4.13232 8.80024 4.21717Z" fill="#F7FCFF"/>
<path fill-rule="evenodd" clip-rule="evenodd" d="M6.10564 2.37018C6.1309 2.38857 6.162 2.39942 6.19564 2.39942C6.28018 2.39942 6.34872 2.33089 6.34872 2.24634C6.34872 2.1618 6.28018 2.09326 6.19564 2.09326C6.13568 2.09326 6.08378 2.12773 6.05866 2.17793C6.0334 2.15954 6.00229 2.14869 5.96866 2.14869C5.91472 2.14869 5.8673 2.17659 5.84003 2.21873C5.81358 2.19693 5.77969 2.18384 5.74274 2.18384C5.6582 2.18384 5.58966 2.25238 5.58966 2.33692C5.58966 2.34163 5.58987 2.3463 5.59029 2.3509C5.56223 2.31606 5.51922 2.29376 5.471 2.29376C5.39437 2.29376 5.3309 2.35007 5.31968 2.42356C5.29165 2.3879 5.24813 2.365 5.19926 2.365C5.1258 2.365 5.06442 2.41675 5.04959 2.48579C5.02446 2.4677 4.99361 2.45704 4.96027 2.45704C4.89243 2.45704 4.8349 2.50117 4.81482 2.56228C4.79422 2.55197 4.77097 2.54616 4.74636 2.54616C4.67083 2.54616 4.60807 2.60087 4.59555 2.67282C4.58574 2.67084 4.57559 2.66981 4.5652 2.66981C4.48147 2.66981 4.41343 2.73704 4.41214 2.82047C4.40303 2.81878 4.39364 2.8179 4.38404 2.8179C4.2995 2.8179 4.23096 2.88644 4.23096 2.97098C4.23096 2.9817 4.23207 2.99216 4.23416 3.00226C4.22406 3.00016 4.2136 2.99906 4.20288 2.99906C4.11834 2.99906 4.0498 3.06759 4.0498 3.15214C4.0498 3.21637 4.08937 3.27137 4.14545 3.29408C4.14215 3.3066 4.14038 3.31974 4.14038 3.3333C4.14038 3.39753 4.17995 3.45252 4.23603 3.47524C4.23273 3.48776 4.23096 3.5009 4.23096 3.51446C4.23096 3.59699 4.29628 3.66427 4.37804 3.66742C4.34357 3.69549 4.32154 3.73827 4.32154 3.7862C4.32154 3.87074 4.39008 3.93928 4.47462 3.93928C4.55917 3.93928 4.6277 3.87074 4.6277 3.7862C4.6277 3.70366 4.56239 3.63638 4.48062 3.63323C4.5151 3.60516 4.53712 3.56238 4.53712 3.51446C4.53712 3.45022 4.49756 3.39523 4.44147 3.37252C4.44478 3.36 4.44654 3.34685 4.44654 3.3333C4.44654 3.26906 4.40698 3.21407 4.35089 3.19136C4.3542 3.17884 4.35596 3.16569 4.35596 3.15214C4.35596 3.14142 4.35486 3.13096 4.35277 3.12086C4.36286 3.12296 4.37332 3.12406 4.38404 3.12406C4.46778 3.12406 4.53581 3.05682 4.5371 2.97339C4.54621 2.97508 4.55561 2.97597 4.5652 2.97597C4.64074 2.97597 4.70349 2.92126 4.71601 2.84931C4.72582 2.85128 4.73597 2.85232 4.74636 2.85232C4.8142 2.85232 4.87173 2.80819 4.89182 2.74708C4.91242 2.75739 4.93567 2.7632 4.96027 2.7632C4.99386 2.7632 5.02492 2.75238 5.05016 2.73405C5.05492 2.75452 5.06378 2.77342 5.07584 2.78982C5.0572 2.81518 5.04618 2.84651 5.04618 2.8804C5.04618 2.96293 5.1115 3.03021 5.19326 3.03336C5.15878 3.06143 5.13676 3.10421 5.13676 3.15214C5.13676 3.21637 5.17632 3.27137 5.23241 3.29408C5.2291 3.3066 5.22734 3.31974 5.22734 3.3333C5.22734 3.39753 5.2669 3.45252 5.32299 3.47524C5.31968 3.48776 5.31792 3.5009 5.31792 3.51446C5.31792 3.599 5.38646 3.66754 5.471 3.66754C5.55554 3.66754 5.62408 3.599 5.62408 3.51446C5.62408 3.45022 5.58452 3.39523 5.52843 3.37252C5.53174 3.36 5.5335 3.34685 5.5335 3.3333C5.5335 3.26906 5.49394 3.21407 5.43785 3.19136C5.44116 3.17884 5.44292 3.16569 5.44292 3.15214C5.44292 3.0696 5.3776 3.00232 5.29584 2.99917C5.33032 2.97111 5.35234 2.92832 5.35234 2.8804C5.35234 2.84651 5.34133 2.81518 5.32268 2.78982C5.34133 2.76446 5.35234 2.73313 5.35234 2.69924C5.35234 2.66535 5.34133 2.63402 5.32268 2.60866C5.33697 2.58922 5.34678 2.56628 5.35058 2.54137C5.37861 2.57702 5.42213 2.59992 5.471 2.59992C5.55554 2.59992 5.62408 2.53139 5.62408 2.44684C5.62408 2.44213 5.62387 2.43747 5.62345 2.43286C5.65151 2.46771 5.69452 2.49 5.74274 2.49C5.79667 2.49 5.84409 2.46211 5.87136 2.41996C5.89781 2.44176 5.9317 2.45485 5.96866 2.45485C6.02861 2.45485 6.08052 2.42038 6.10564 2.37018ZM5.10994 2.64241C5.13508 2.6605 5.16592 2.67116 5.19926 2.67116C5.24991 2.67116 5.29481 2.64656 5.32268 2.60866C5.29481 2.57076 5.24991 2.54616 5.19926 2.54616C5.21477 2.54616 5.22734 2.53359 5.22734 2.51808C5.22734 2.50257 5.21477 2.49 5.19926 2.49C5.18375 2.49 5.17118 2.50257 5.17118 2.51808C5.17118 2.53359 5.18375 2.54616 5.19926 2.54616C5.16568 2.54616 5.13462 2.55698 5.10938 2.57531C5.10086 2.53867 5.07918 2.50708 5.04959 2.48579C5.04736 2.4962 5.04618 2.507 5.04618 2.51808C5.04618 2.55197 5.0572 2.5833 5.07584 2.60866C5.0572 2.63402 5.04618 2.66535 5.04618 2.69924C5.04618 2.71121 5.04756 2.72286 5.05016 2.73405C5.08013 2.71227 5.10189 2.67989 5.10994 2.64241ZM5.10994 2.64241C5.09688 2.63302 5.08537 2.62162 5.07584 2.60866C5.08523 2.59589 5.09655 2.58463 5.10938 2.57531C5.11198 2.5865 5.11335 2.59815 5.11335 2.61012C5.11335 2.6212 5.11217 2.632 5.10994 2.64241ZM5.19926 2.85232C5.14861 2.85232 5.10371 2.82772 5.07584 2.78982C5.10371 2.75192 5.14861 2.72732 5.19926 2.72732C5.24991 2.72732 5.29481 2.75192 5.32268 2.78982C5.29481 2.82772 5.24991 2.85232 5.19926 2.85232ZM5.19926 2.85232C5.21477 2.85232 5.22734 2.86489 5.22734 2.8804C5.22734 2.89591 5.21477 2.90848 5.19926 2.90848C5.18375 2.90848 5.17118 2.89591 5.17118 2.8804C5.17118 2.86489 5.18375 2.85232 5.19926 2.85232ZM5.19926 2.72732C5.18375 2.72732 5.17118 2.71475 5.17118 2.69924C5.17118 2.68373 5.18375 2.67116 5.19926 2.67116C5.21477 2.67116 5.22734 2.68373 5.22734 2.69924C5.22734 2.71475 5.21477 2.72732 5.19926 2.72732ZM5.52843 3.37252C5.5107 3.36533 5.49131 3.36138 5.471 3.36138C5.40001 3.36138 5.34031 3.4097 5.32299 3.47524C5.34072 3.48242 5.36011 3.48638 5.38042 3.48638C5.45141 3.48638 5.51111 3.43806 5.52843 3.37252ZM5.43785 3.19136C5.42012 3.18417 5.40073 3.18022 5.38042 3.18022C5.30943 3.18022 5.24973 3.22854 5.23241 3.29408C5.25014 3.30126 5.26953 3.30522 5.28984 3.30522C5.36083 3.30522 5.42053 3.2569 5.43785 3.19136ZM5.29584 2.99917L5.28984 2.99906C5.25322 2.99906 5.21961 3.01192 5.19326 3.03336L5.19926 3.03348C5.23588 3.03348 5.2695 3.02062 5.29584 2.99917ZM4.48062 3.63323L4.47462 3.63312C4.438 3.63312 4.40439 3.64597 4.37804 3.66742L4.38404 3.66754C4.42066 3.66754 4.45428 3.65468 4.48062 3.63323ZM4.44147 3.37252C4.42415 3.43806 4.36445 3.48638 4.29346 3.48638C4.27315 3.48638 4.25377 3.48242 4.23603 3.47524C4.25335 3.4097 4.31306 3.36138 4.38404 3.36138C4.40435 3.36138 4.42374 3.36533 4.44147 3.37252ZM4.35089 3.19136C4.33357 3.2569 4.27387 3.30522 4.20288 3.30522C4.18257 3.30522 4.16319 3.30126 4.14545 3.29408C4.16277 3.22854 4.22248 3.18022 4.29346 3.18022C4.31377 3.18022 4.33316 3.18417 4.35089 3.19136ZM4.23416 3.00226C4.2465 3.0617 4.29332 3.10852 4.35277 3.12086C4.34042 3.06142 4.29361 3.0146 4.23416 3.00226ZM4.5371 2.97339C4.46598 2.9602 4.41212 2.89783 4.41212 2.82289L4.41214 2.82047C4.48327 2.83367 4.53712 2.89603 4.53712 2.97098L4.5371 2.97339ZM4.71601 2.84931C4.64601 2.83523 4.59328 2.77339 4.59328 2.69924C4.59328 2.69023 4.59406 2.6814 4.59555 2.67282C4.66556 2.6869 4.71828 2.74874 4.71828 2.82289C4.71828 2.8319 4.7175 2.84073 4.71601 2.84931ZM4.89182 2.74708C4.84164 2.72195 4.80719 2.67006 4.80719 2.61012C4.80719 2.59341 4.80987 2.57733 4.81482 2.56228C4.86499 2.58741 4.89944 2.6393 4.89944 2.69924C4.89944 2.71595 4.89677 2.73203 4.89182 2.74708ZM5.35058 2.54137C5.33012 2.51534 5.31792 2.48252 5.31792 2.44684C5.31792 2.43893 5.31852 2.43115 5.31968 2.42356C5.34014 2.44958 5.35234 2.48241 5.35234 2.51808C5.35234 2.526 5.35174 2.53377 5.35058 2.54137ZM5.59029 2.3509C5.59309 2.38179 5.60505 2.41002 5.62345 2.43286C5.62065 2.40198 5.60869 2.37374 5.59029 2.3509ZM5.87136 2.41996C5.83729 2.39188 5.81558 2.34936 5.81558 2.30177C5.81558 2.27116 5.82456 2.24265 5.84003 2.21873C5.8741 2.24681 5.89582 2.28933 5.89582 2.33692C5.89582 2.36753 5.88684 2.39604 5.87136 2.41996ZM6.10564 2.37018C6.06741 2.34235 6.04256 2.29725 6.04256 2.24634C6.04256 2.22175 6.04836 2.19852 6.05866 2.17793C6.09689 2.20576 6.12174 2.25087 6.12174 2.30177C6.12174 2.32636 6.11594 2.34959 6.10564 2.37018ZM4.5652 2.85097C4.58071 2.85097 4.59328 2.8384 4.59328 2.82289C4.59328 2.80738 4.58071 2.79481 4.5652 2.79481C4.5497 2.79481 4.53712 2.80738 4.53712 2.82289C4.53712 2.8384 4.5497 2.85097 4.5652 2.85097ZM4.38404 2.99906C4.39955 2.99906 4.41212 2.98649 4.41212 2.97098C4.41212 2.95547 4.39955 2.9429 4.38404 2.9429C4.36854 2.9429 4.35596 2.95547 4.35596 2.97098C4.35596 2.98649 4.36854 2.99906 4.38404 2.99906ZM4.20288 3.18022C4.21839 3.18022 4.23096 3.16765 4.23096 3.15214C4.23096 3.13663 4.21839 3.12406 4.20288 3.12406C4.18738 3.12406 4.1748 3.13663 4.1748 3.15214C4.1748 3.16765 4.18738 3.18022 4.20288 3.18022ZM4.29346 3.36138C4.30897 3.36138 4.32154 3.34881 4.32154 3.3333C4.32154 3.31779 4.30897 3.30522 4.29346 3.30522C4.27796 3.30522 4.26538 3.31779 4.26538 3.3333C4.26538 3.34881 4.27796 3.36138 4.29346 3.36138ZM4.38404 3.54254C4.39955 3.54254 4.41212 3.52997 4.41212 3.51446C4.41212 3.49895 4.39955 3.48638 4.38404 3.48638C4.36854 3.48638 4.35596 3.49895 4.35596 3.51446C4.35596 3.52997 4.36854 3.54254 4.38404 3.54254ZM4.5027 3.7862C4.5027 3.8017 4.49013 3.81428 4.47462 3.81428C4.45912 3.81428 4.44654 3.8017 4.44654 3.7862C4.44654 3.77069 4.45912 3.75812 4.47462 3.75812C4.49013 3.75812 4.5027 3.77069 4.5027 3.7862ZM4.74636 2.72732C4.76187 2.72732 4.77444 2.71475 4.77444 2.69924C4.77444 2.68373 4.76187 2.67116 4.74636 2.67116C4.73085 2.67116 4.71828 2.68373 4.71828 2.69924C4.71828 2.71475 4.73085 2.72732 4.74636 2.72732ZM4.96027 2.6382C4.97578 2.6382 4.98835 2.62563 4.98835 2.61012C4.98835 2.59461 4.97578 2.58204 4.96027 2.58204C4.94476 2.58204 4.93219 2.59461 4.93219 2.61012C4.93219 2.62563 4.94476 2.6382 4.96027 2.6382ZM5.471 2.47492C5.48651 2.47492 5.49908 2.46235 5.49908 2.44684C5.49908 2.43134 5.48651 2.41876 5.471 2.41876C5.45549 2.41876 5.44292 2.43134 5.44292 2.44684C5.44292 2.46235 5.45549 2.47492 5.471 2.47492ZM5.74274 2.365C5.75825 2.365 5.77082 2.35243 5.77082 2.33692C5.77082 2.32141 5.75825 2.30884 5.74274 2.30884C5.72723 2.30884 5.71466 2.32141 5.71466 2.33692C5.71466 2.35243 5.72723 2.365 5.74274 2.365ZM5.96866 2.32985C5.98416 2.32985 5.99674 2.31728 5.99674 2.30177C5.99674 2.28626 5.98416 2.27369 5.96866 2.27369C5.95315 2.27369 5.94058 2.28626 5.94058 2.30177C5.94058 2.31728 5.95315 2.32985 5.96866 2.32985ZM6.19564 2.27442C6.21115 2.27442 6.22372 2.26185 6.22372 2.24634C6.22372 2.23083 6.21115 2.21826 6.19564 2.21826C6.18013 2.21826 6.16756 2.23083 6.16756 2.24634C6.16756 2.26185 6.18013 2.27442 6.19564 2.27442ZM5.28984 3.18022C5.30535 3.18022 5.31792 3.16765 5.31792 3.15214C5.31792 3.13663 5.30535 3.12406 5.28984 3.12406C5.27433 3.12406 5.26176 3.13663 5.26176 3.15214C5.26176 3.16765 5.27433 3.18022 5.28984 3.18022ZM5.38042 3.36138C5.39593 3.36138 5.4085 3.34881 5.4085 3.3333C5.4085 3.31779 5.39593 3.30522 5.38042 3.30522C5.36491 3.30522 5.35234 3.31779 5.35234 3.3333C5.35234 3.34881 5.36491 3.36138 5.38042 3.36138ZM5.471 3.54254C5.48651 3.54254 5.49908 3.52997 5.49908 3.51446C5.49908 3.49895 5.48651 3.48638 5.471 3.48638C5.45549 3.48638 5.44292 3.49895 5.44292 3.51446C5.44292 3.52997 5.45549 3.54254 5.471 3.54254ZM9.45651 3.81428C9.47202 3.81428 9.48459 3.8017 9.48459 3.7862C9.48459 3.77069 9.47202 3.75812 9.45651 3.75812C9.441 3.75812 9.42843 3.77069 9.42843 3.7862C9.42843 3.8017 9.441 3.81428 9.45651 3.81428ZM9.30343 3.7862C9.30343 3.87074 9.37196 3.93928 9.45651 3.93928C9.54105 3.93928 9.60959 3.87074 9.60959 3.7862C9.60959 3.73827 9.58756 3.69549 9.55309 3.66742C9.63485 3.66427 9.70017 3.59699 9.70017 3.51446C9.70017 3.5009 9.69841 3.48776 9.6951 3.47524C9.75118 3.45252 9.79075 3.39753 9.79075 3.3333C9.79075 3.31974 9.78898 3.3066 9.78568 3.29408C9.84176 3.27137 9.88133 3.21637 9.88133 3.15214C9.88133 3.06759 9.81279 2.99906 9.72825 2.99906C9.71753 2.99906 9.70707 3.00016 9.69697 3.00226C9.69907 2.99216 9.70017 2.9817 9.70017 2.97098C9.70017 2.88644 9.63163 2.8179 9.54709 2.8179C9.53749 2.8179 9.5281 2.81878 9.51899 2.82047C9.5177 2.73704 9.44967 2.66981 9.36593 2.66981C9.35554 2.66981 9.34539 2.67084 9.33558 2.67282C9.32306 2.60087 9.2603 2.54616 9.18477 2.54616C9.16016 2.54616 9.13691 2.55197 9.11632 2.56228C9.09623 2.50117 9.0387 2.45704 8.97086 2.45704C8.93752 2.45704 8.90668 2.4677 8.88154 2.48579C8.86671 2.41675 8.80534 2.365 8.73187 2.365C8.683 2.365 8.63948 2.3879 8.61145 2.42356C8.60023 2.35007 8.53676 2.29376 8.46013 2.29376C8.41191 2.29376 8.3689 2.31606 8.34084 2.3509C8.34126 2.3463 8.34147 2.34163 8.34147 2.33692C8.34147 2.25238 8.27294 2.18384 8.18839 2.18384C8.15144 2.18384 8.11755 2.19693 8.0911 2.21873C8.06383 2.17659 8.01641 2.14869 7.96248 2.14869C7.92884 2.14869 7.89774 2.15954 7.87247 2.17793C7.84735 2.12773 7.79545 2.09326 7.73549 2.09326C7.65095 2.09326 7.58241 2.1618 7.58241 2.24634C7.58241 2.33089 7.65095 2.39942 7.73549 2.39942C7.76913 2.39942 7.80023 2.38857 7.82549 2.37018C7.85061 2.42038 7.90252 2.45485 7.96248 2.45485C7.99943 2.45485 8.03332 2.44176 8.05977 2.41996C8.08704 2.46211 8.13446 2.49 8.18839 2.49C8.23661 2.49 8.27962 2.46771 8.30768 2.43286C8.30726 2.43747 8.30705 2.44213 8.30705 2.44684C8.30705 2.53139 8.37559 2.59992 8.46013 2.59992C8.509 2.59992 8.55252 2.57702 8.58055 2.54137C8.58435 2.56628 8.59416 2.58922 8.60845 2.60866C8.58981 2.63402 8.57879 2.66535 8.57879 2.69924C8.57879 2.73313 8.58981 2.76446 8.60845 2.78982C8.58981 2.81518 8.57879 2.84651 8.57879 2.8804C8.57879 2.92832 8.60081 2.97111 8.63529 2.99917C8.55353 3.00232 8.48821 3.0696 8.48821 3.15214C8.48821 3.16569 8.48997 3.17884 8.49328 3.19136C8.43719 3.21407 8.39763 3.26906 8.39763 3.3333C8.39763 3.34685 8.39939 3.36 8.4027 3.37252C8.34661 3.39523 8.30705 3.45022 8.30705 3.51446C8.30705 3.599 8.37559 3.66754 8.46013 3.66754C8.54467 3.66754 8.61321 3.599 8.61321 3.51446C8.61321 3.5009 8.61145 3.48776 8.60814 3.47524C8.66423 3.45252 8.70379 3.39753 8.70379 3.3333C8.70379 3.31974 8.70203 3.3066 8.69872 3.29408C8.75481 3.27137 8.79437 3.21637 8.79437 3.15214C8.79437 3.10421 8.77235 3.06143 8.73787 3.03336C8.81963 3.03021 8.88495 2.96293 8.88495 2.8804C8.88495 2.84651 8.87393 2.81518 8.85529 2.78982C8.86735 2.77342 8.87622 2.75452 8.88098 2.73405C8.90622 2.75238 8.93727 2.7632 8.97086 2.7632C8.99546 2.7632 9.01871 2.75739 9.03931 2.74708C9.0594 2.80819 9.11693 2.85232 9.18477 2.85232C9.19516 2.85232 9.20531 2.85128 9.21512 2.84931C9.22764 2.92126 9.2904 2.97597 9.36593 2.97597C9.37553 2.97597 9.38492 2.97508 9.39403 2.97339C9.39532 3.05682 9.46335 3.12406 9.54709 3.12406C9.55781 3.12406 9.56827 3.12296 9.57837 3.12086C9.57627 3.13096 9.57517 3.14142 9.57517 3.15214C9.57517 3.16569 9.57693 3.17884 9.58024 3.19136C9.52415 3.21407 9.48459 3.26906 9.48459 3.3333C9.48459 3.34685 9.48635 3.36 9.48966 3.37252C9.43357 3.39523 9.39401 3.45022 9.39401 3.51446C9.39401 3.56238 9.41603 3.60516 9.45051 3.63323C9.36875 3.63638 9.30343 3.70366 9.30343 3.7862ZM8.82119 2.64241C8.79605 2.6605 8.76521 2.67116 8.73187 2.67116C8.68122 2.67116 8.63632 2.64656 8.60845 2.60866C8.63632 2.57076 8.68122 2.54616 8.73187 2.54616C8.76546 2.54616 8.79651 2.55698 8.82175 2.57531C8.81916 2.5865 8.81778 2.59815 8.81778 2.61012C8.81778 2.6212 8.81896 2.632 8.82119 2.64241ZM8.85529 2.60866C8.87393 2.63402 8.88495 2.66535 8.88495 2.69924C8.88495 2.71121 8.88358 2.72286 8.88098 2.73405C8.85101 2.71227 8.82924 2.67989 8.82119 2.64241C8.83425 2.63302 8.84576 2.62162 8.85529 2.60866ZM8.85529 2.60866C8.8459 2.59589 8.83458 2.58463 8.82175 2.57531C8.83027 2.53867 8.85195 2.50708 8.88154 2.48579C8.88377 2.4962 8.88495 2.507 8.88495 2.51808C8.88495 2.55197 8.87393 2.5833 8.85529 2.60866ZM8.73187 2.54616C8.71636 2.54616 8.70379 2.53359 8.70379 2.51808C8.70379 2.50257 8.71636 2.49 8.73187 2.49C8.74738 2.49 8.75995 2.50257 8.75995 2.51808C8.75995 2.53359 8.74738 2.54616 8.73187 2.54616ZM8.73187 2.85232C8.68122 2.85232 8.63632 2.82772 8.60845 2.78982C8.63632 2.75192 8.68122 2.72732 8.73187 2.72732C8.78252 2.72732 8.82742 2.75192 8.85529 2.78982C8.82742 2.82772 8.78252 2.85232 8.73187 2.85232ZM8.73187 2.85232C8.74738 2.85232 8.75995 2.86489 8.75995 2.8804C8.75995 2.89591 8.74738 2.90848 8.73187 2.90848C8.71636 2.90848 8.70379 2.89591 8.70379 2.8804C8.70379 2.86489 8.71636 2.85232 8.73187 2.85232ZM8.73187 2.72732C8.71636 2.72732 8.70379 2.71475 8.70379 2.69924C8.70379 2.68373 8.71636 2.67116 8.73187 2.67116C8.74738 2.67116 8.75995 2.68373 8.75995 2.69924C8.75995 2.71475 8.74738 2.72732 8.73187 2.72732ZM8.60814 3.47524C8.59082 3.4097 8.53112 3.36138 8.46013 3.36138C8.43982 3.36138 8.42043 3.36533 8.4027 3.37252C8.42002 3.43806 8.47972 3.48638 8.55071 3.48638C8.57102 3.48638 8.59041 3.48242 8.60814 3.47524ZM8.69872 3.29408C8.6814 3.22854 8.6217 3.18022 8.55071 3.18022C8.5304 3.18022 8.51101 3.18417 8.49328 3.19136C8.5106 3.2569 8.5703 3.30522 8.64129 3.30522C8.6616 3.30522 8.68099 3.30126 8.69872 3.29408ZM8.73787 3.03336C8.71152 3.01192 8.67791 2.99906 8.64129 2.99906L8.63529 2.99917C8.66164 3.02062 8.69525 3.03348 8.73187 3.03348L8.73787 3.03336ZM7.82549 2.37018C7.86372 2.34235 7.88857 2.29725 7.88857 2.24634C7.88857 2.22175 7.88278 2.19852 7.87247 2.17793C7.83424 2.20576 7.8094 2.25087 7.8094 2.30177C7.8094 2.32636 7.81519 2.34959 7.82549 2.37018ZM8.05977 2.41996C8.09384 2.39188 8.11556 2.34936 8.11556 2.30177C8.11556 2.27116 8.10657 2.24265 8.0911 2.21873C8.05703 2.24681 8.03531 2.28933 8.03531 2.33692C8.03531 2.36753 8.0443 2.39604 8.05977 2.41996ZM8.34084 2.3509C8.33805 2.38179 8.32608 2.41002 8.30768 2.43286C8.31048 2.40198 8.32245 2.37374 8.34084 2.3509ZM8.58055 2.54137C8.60101 2.51534 8.61321 2.48252 8.61321 2.44684C8.61321 2.43893 8.61261 2.43115 8.61145 2.42356C8.59099 2.44958 8.57879 2.48241 8.57879 2.51808C8.57879 2.526 8.57939 2.53377 8.58055 2.54137ZM9.03931 2.74708C9.08949 2.72195 9.12394 2.67006 9.12394 2.61012C9.12394 2.59341 9.12126 2.57733 9.11632 2.56228C9.06614 2.58741 9.03169 2.6393 9.03169 2.69924C9.03169 2.71595 9.03437 2.73203 9.03931 2.74708ZM9.21512 2.84931C9.28512 2.83523 9.33785 2.77339 9.33785 2.69924C9.33785 2.69023 9.33707 2.6814 9.33558 2.67282C9.26557 2.6869 9.21285 2.74874 9.21285 2.82289C9.21285 2.8319 9.21363 2.84073 9.21512 2.84931ZM9.57837 3.12086C9.63781 3.10852 9.68463 3.0617 9.69697 3.00226C9.63752 3.0146 9.59071 3.06142 9.57837 3.12086ZM9.51899 2.82047L9.51901 2.82289C9.51901 2.89783 9.46515 2.9602 9.39403 2.97339L9.39401 2.97098C9.39401 2.89603 9.44787 2.83367 9.51899 2.82047ZM9.58024 3.19136C9.59797 3.18417 9.61736 3.18022 9.63767 3.18022C9.70865 3.18022 9.76836 3.22854 9.78568 3.29408C9.76794 3.30126 9.74856 3.30522 9.72825 3.30522C9.65726 3.30522 9.59756 3.2569 9.58024 3.19136ZM9.48966 3.37252C9.50739 3.36533 9.52678 3.36138 9.54709 3.36138C9.61807 3.36138 9.67778 3.4097 9.6951 3.47524C9.67736 3.48242 9.65798 3.48638 9.63767 3.48638C9.56668 3.48638 9.50698 3.43806 9.48966 3.37252ZM9.54709 3.66754C9.51047 3.66754 9.47685 3.65468 9.45051 3.63323L9.45651 3.63312C9.49313 3.63312 9.52674 3.64597 9.55309 3.66742L9.54709 3.66754ZM9.54709 3.54254C9.5626 3.54254 9.57517 3.52997 9.57517 3.51446C9.57517 3.49895 9.5626 3.48638 9.54709 3.48638C9.53158 3.48638 9.51901 3.49895 9.51901 3.51446C9.51901 3.52997 9.53158 3.54254 9.54709 3.54254ZM9.63767 3.36138C9.65317 3.36138 9.66575 3.34881 9.66575 3.3333C9.66575 3.31779 9.65317 3.30522 9.63767 3.30522C9.62216 3.30522 9.60959 3.31779 9.60959 3.3333C9.60959 3.34881 9.62216 3.36138 9.63767 3.36138ZM9.72825 3.18022C9.74375 3.18022 9.75633 3.16765 9.75633 3.15214C9.75633 3.13663 9.74375 3.12406 9.72825 3.12406C9.71274 3.12406 9.70017 3.13663 9.70017 3.15214C9.70017 3.16765 9.71274 3.18022 9.72825 3.18022ZM9.54709 2.99906C9.5626 2.99906 9.57517 2.98649 9.57517 2.97098C9.57517 2.95547 9.5626 2.9429 9.54709 2.9429C9.53158 2.9429 9.51901 2.95547 9.51901 2.97098C9.51901 2.98649 9.53158 2.99906 9.54709 2.99906ZM9.36593 2.85097C9.38144 2.85097 9.39401 2.8384 9.39401 2.82289C9.39401 2.80738 9.38144 2.79481 9.36593 2.79481C9.35042 2.79481 9.33785 2.80738 9.33785 2.82289C9.33785 2.8384 9.35042 2.85097 9.36593 2.85097ZM9.18477 2.72732C9.20028 2.72732 9.21285 2.71475 9.21285 2.69924C9.21285 2.68373 9.20028 2.67116 9.18477 2.67116C9.16926 2.67116 9.15669 2.68373 9.15669 2.69924C9.15669 2.71475 9.16926 2.72732 9.18477 2.72732ZM8.97086 2.6382C8.98637 2.6382 8.99894 2.62563 8.99894 2.61012C8.99894 2.59461 8.98637 2.58204 8.97086 2.58204C8.95535 2.58204 8.94278 2.59461 8.94278 2.61012C8.94278 2.62563 8.95535 2.6382 8.97086 2.6382ZM8.46013 2.47492C8.47564 2.47492 8.48821 2.46235 8.48821 2.44684C8.48821 2.43134 8.47564 2.41876 8.46013 2.41876C8.44462 2.41876 8.43205 2.43134 8.43205 2.44684C8.43205 2.46235 8.44462 2.47492 8.46013 2.47492ZM8.18839 2.365C8.2039 2.365 8.21647 2.35243 8.21647 2.33692C8.21647 2.32141 8.2039 2.30884 8.18839 2.30884C8.17288 2.30884 8.16031 2.32141 8.16031 2.33692C8.16031 2.35243 8.17288 2.365 8.18839 2.365ZM7.96248 2.32985C7.97798 2.32985 7.99056 2.31728 7.99056 2.30177C7.99056 2.28626 7.97798 2.27369 7.96248 2.27369C7.94697 2.27369 7.9344 2.28626 7.9344 2.30177C7.9344 2.31728 7.94697 2.32985 7.96248 2.32985ZM7.73549 2.27442C7.751 2.27442 7.76357 2.26185 7.76357 2.24634C7.76357 2.23083 7.751 2.21826 7.73549 2.21826C7.71999 2.21826 7.70741 2.23083 7.70741 2.24634C7.70741 2.26185 7.71999 2.27442 7.73549 2.27442ZM8.64129 3.18022C8.6568 3.18022 8.66937 3.16765 8.66937 3.15214C8.66937 3.13663 8.6568 3.12406 8.64129 3.12406C8.62578 3.12406 8.61321 3.13663 8.61321 3.15214C8.61321 3.16765 8.62578 3.18022 8.64129 3.18022ZM8.55071 3.36138C8.56622 3.36138 8.57879 3.34881 8.57879 3.3333C8.57879 3.31779 8.56622 3.30522 8.55071 3.30522C8.5352 3.30522 8.52263 3.31779 8.52263 3.3333C8.52263 3.34881 8.5352 3.36138 8.55071 3.36138ZM8.46013 3.54254C8.47564 3.54254 8.48821 3.52997 8.48821 3.51446C8.48821 3.49895 8.47564 3.48638 8.46013 3.48638C8.44462 3.48638 8.43205 3.49895 8.43205 3.51446C8.43205 3.52997 8.44462 3.54254 8.46013 3.54254Z" fill="white"/>
<path fill-rule="evenodd" clip-rule="evenodd" d="M6.93855 1.34638L6.80428 1.34858L6.80451 1.56928L6.55668 1.56914L6.55963 1.70313L6.80465 1.70327L6.80491 1.95481L6.93918 1.95262L6.93892 1.70334L7.18273 1.70348L7.17978 1.56949L6.93878 1.56936L6.93855 1.34638Z" fill="#F6C540"/>
<path fill-rule="evenodd" clip-rule="evenodd" d="M3.61548 5.45898H10.1155V10.9799C10.1155 10.9799 9.91891 13.73 6.86548 13.73C3.81204 13.73 3.61548 10.9799 3.61548 10.9799V5.45898Z" fill="#C51918"/>
<path fill-rule="evenodd" clip-rule="evenodd" d="M5.57739 5.6499C5.51779 5.6499 5.42604 5.69271 5.30442 5.74118C5.1828 5.78966 5.05508 5.89431 5.17975 5.99914C5.30442 6.10396 5.48289 6.33403 5.48289 6.24801C5.48289 6.16199 5.6961 6.07859 5.6961 6.12029C5.6961 6.16199 5.63009 6.24801 5.80324 6.24801C5.97638 6.24801 6.06558 6.29916 5.88084 6.29916C5.6961 6.29916 5.67602 6.38368 5.55596 6.38368C5.4359 6.38368 5.17975 6.29853 5.17975 6.24801C5.17975 6.19749 5.32809 6.49638 5.48289 6.49638C5.6377 6.49638 5.72563 6.6418 5.80324 6.56909C5.88084 6.49638 5.87165 6.49638 5.99703 6.49638C6.1224 6.49638 6.07664 6.20272 6.07664 6.20272C6.07664 6.20272 5.637 5.6499 5.57739 5.6499Z" fill="#E8AA00"/>
<path fill-rule="evenodd" clip-rule="evenodd" d="M8.08569 5.6499C8.14529 5.6499 8.23705 5.69271 8.35866 5.74118C8.48028 5.78966 8.608 5.89431 8.48333 5.99914C8.35866 6.10396 8.18019 6.33403 8.18019 6.24801C8.18019 6.16199 7.96699 6.07859 7.96699 6.12029C7.96699 6.16199 8.03299 6.24801 7.85985 6.24801C7.68671 6.24801 7.5975 6.29916 7.78225 6.29916C7.96699 6.29916 7.98706 6.38368 8.10713 6.38368C8.22719 6.38368 8.48333 6.29853 8.48333 6.24801C8.48333 6.19749 8.335 6.49638 8.18019 6.49638C8.02538 6.49638 7.93746 6.6418 7.85985 6.56909C7.78225 6.49638 7.79143 6.49638 7.66606 6.49638C7.54068 6.49638 7.58644 6.20272 7.58644 6.20272C7.58644 6.20272 8.02609 5.6499 8.08569 5.6499Z" fill="#E8AA00"/>
<path fill-rule="evenodd" clip-rule="evenodd" d="M8.88248 6.25029C9.00708 6.54086 8.05213 7.62029 8.05213 7.62029H7.9452C7.90027 7.62029 7.8167 7.50973 7.71579 7.37624C7.64663 7.28474 7.56933 7.18248 7.49074 7.09765C7.3429 6.93806 7.42125 6.804 7.49429 6.67902C7.51673 6.64063 7.53867 6.6031 7.55339 6.56595C7.58529 6.48547 7.58983 6.45336 7.59501 6.41667C7.60001 6.3813 7.60561 6.34166 7.63693 6.25029C7.68295 6.11601 7.84341 5.94276 7.95467 5.82262C7.99763 5.77623 8.03326 5.73776 8.05213 5.71252C8.1117 5.63283 8.0665 5.63329 7.94216 5.63456C7.9251 5.63474 7.90655 5.63493 7.88657 5.63493C7.72101 5.63493 7.40475 5.71252 7.31022 5.80314C7.21569 5.89377 7.11656 5.9131 6.97091 5.9131C6.82525 5.9131 6.91509 6.01118 7.04774 6.07742C6.90492 6.10473 6.81335 6.34281 6.75956 6.5542C6.73021 6.34281 6.66547 6.10473 6.52264 6.07742C6.65529 6.01118 6.74513 5.9131 6.59948 5.9131C6.45382 5.9131 6.3547 5.89377 6.26016 5.80314C6.16563 5.71252 5.84937 5.63493 5.68381 5.63493C5.66384 5.63493 5.64529 5.63474 5.62823 5.63456C5.50388 5.63329 5.45869 5.63283 5.51825 5.71252C5.53712 5.73776 5.57275 5.77623 5.61571 5.82262C5.72697 5.94276 5.88743 6.11601 5.93345 6.25029C5.96477 6.34166 5.97037 6.3813 5.97537 6.41667C5.98056 6.45336 5.9851 6.48547 6.01699 6.56595C6.03172 6.6031 6.05365 6.64063 6.07609 6.67902C6.14913 6.804 6.22749 6.93806 6.07965 7.09765C6.00106 7.18248 5.92375 7.28474 5.8546 7.37624C5.75369 7.50973 5.67011 7.62029 5.62518 7.62029H5.51825C5.51825 7.62029 4.5633 6.54086 4.6879 6.25029C4.73606 6.13798 4.81375 6.03214 4.87803 5.94456C4.98006 5.80555 5.04835 5.71252 4.9113 5.71252C4.6879 5.71252 3.79736 6.2772 3.79736 7.55047C3.79736 8.82374 3.87962 9.54789 4.07057 10.0552C4.20088 10.4014 4.08152 10.7377 3.99257 10.9882C3.95117 11.1048 3.91636 11.2029 3.91636 11.2748C3.91636 11.5012 4.26699 11.3028 4.26699 11.1611C4.26699 11.0936 4.315 11.194 4.36535 11.2993C4.42087 11.4155 4.47924 11.5375 4.47924 11.4471C4.47924 11.3507 4.53514 11.2489 4.58439 11.1592C4.62316 11.0885 4.65781 11.0254 4.65781 10.9783C4.65781 10.9313 4.707 10.933 4.76204 10.935C4.83195 10.9375 4.9113 10.9403 4.9113 10.8439C4.9113 10.7788 4.93655 10.7658 4.96798 10.7496C5.01982 10.723 5.08848 10.6876 5.08848 10.3959C5.08848 10.1797 5.13177 10.2563 5.18143 10.3441C5.22713 10.425 5.27823 10.5154 5.30593 10.3959C5.30863 10.3842 5.33731 10.3341 5.37277 10.2721C5.42439 10.1819 5.49035 10.0666 5.51145 10.0084C5.4464 10.2631 5.29034 10.5285 5.19123 10.6549C5.08848 10.786 4.9113 11.0705 4.9113 11.0705C4.9113 11.0705 5.07654 11.1626 5.19123 11.0705C5.2553 11.019 5.25962 11.0674 5.26434 11.1202C5.26806 11.1619 5.27203 11.2064 5.30593 11.2064C5.32721 11.2064 5.34725 11.2099 5.3651 11.213C5.3783 11.2153 5.39031 11.2173 5.40073 11.2177C5.36244 11.3152 5.3281 11.4711 5.44329 11.3669C5.52555 11.2925 5.58323 11.2623 5.62144 11.2423C5.66567 11.2192 5.68381 11.2097 5.68381 11.1611C5.68381 11.1126 5.70178 11.129 5.72993 11.1547C5.75436 11.1771 5.78645 11.2064 5.82112 11.2064C5.8658 11.2064 5.8751 11.1442 5.88862 11.0537C5.89769 10.993 5.90866 10.9197 5.93345 10.8439C5.93923 10.8262 5.94466 10.8092 5.9498 10.7931C5.99968 10.637 6.02294 10.5642 6.07965 10.7611C6.10615 10.8531 6.15295 10.9183 6.19371 10.975C6.24917 11.0522 6.29343 11.1139 6.26016 11.2064C6.24714 11.2426 6.2308 11.2835 6.21331 11.3274C6.15327 11.4778 6.07965 11.6622 6.07965 11.8074C6.07965 11.8938 6.00105 12.0115 5.92718 12.1221C5.84059 12.2517 5.7605 12.3716 5.82112 12.4199C5.93345 12.5094 5.79752 12.8109 5.68381 12.9655C5.5701 13.1202 5.58891 13.309 5.76118 13.309C5.85546 13.309 5.90662 13.3432 5.95294 13.3741C5.99126 13.3998 6.02627 13.4232 6.07965 13.4232C6.19754 13.4232 6.26016 13.365 6.26016 13.365C6.26016 13.365 6.33294 13.4751 6.45382 13.4751C6.5747 13.4751 6.59948 13.365 6.59948 13.365L6.68898 13.4751L6.69592 12.9933V13.4751L6.97091 13.365C6.97091 13.365 6.99568 13.4751 7.11656 13.4751C7.23744 13.4751 7.31022 13.365 7.31022 13.365C7.31022 13.365 7.37284 13.4232 7.49074 13.4232C7.54412 13.4232 7.57913 13.3998 7.61745 13.3741C7.66377 13.3432 7.71492 13.309 7.8092 13.309C7.98147 13.309 8.00028 13.1202 7.88657 12.9655C7.77286 12.8109 7.63693 12.5094 7.74926 12.4199C7.80988 12.3716 7.7298 12.2517 7.64321 12.1221C7.56934 12.0115 7.49074 11.8938 7.49074 11.8074C7.49074 11.6622 7.41711 11.4778 7.35708 11.3274C7.33959 11.2835 7.32325 11.2426 7.31022 11.2064C7.27695 11.1139 7.32122 11.0522 7.37667 10.975C7.41743 10.9183 7.46424 10.8531 7.49074 10.7611C7.54744 10.5642 7.57071 10.637 7.62058 10.7931C7.62573 10.8092 7.63115 10.8262 7.63693 10.8439C7.66172 10.9197 7.67269 10.993 7.68176 11.0537C7.69529 11.1442 7.70459 11.2064 7.74926 11.2064C7.78393 11.2064 7.81603 11.1771 7.84045 11.1547C7.8686 11.129 7.88657 11.1126 7.88657 11.1611C7.88657 11.2097 7.90472 11.2192 7.94894 11.2423C7.98715 11.2623 8.04483 11.2925 8.1271 11.3669C8.24229 11.4711 8.20794 11.3152 8.16965 11.2177C8.18007 11.2173 8.19208 11.2153 8.20528 11.213C8.22313 11.2099 8.24317 11.2064 8.26446 11.2064C8.29835 11.2064 8.30232 11.1619 8.30605 11.1202C8.31076 11.0674 8.31509 11.019 8.37915 11.0705C8.49384 11.1626 8.65908 11.0705 8.65908 11.0705C8.65908 11.0705 8.4819 10.786 8.37915 10.6549C8.28005 10.5285 8.12398 10.2631 8.05894 10.0084C8.08003 10.0666 8.146 10.1819 8.19761 10.2721C8.23307 10.3341 8.26176 10.3842 8.26446 10.3959C8.29216 10.5154 8.34325 10.425 8.38896 10.3441C8.43861 10.2563 8.4819 10.1797 8.4819 10.3959C8.4819 10.6876 8.55056 10.723 8.6024 10.7496C8.63384 10.7658 8.65908 10.7788 8.65908 10.8439C8.65908 10.9403 8.73844 10.9375 8.80835 10.935C8.86339 10.933 8.91258 10.9313 8.91258 10.9783C8.91258 11.0254 8.94722 11.0885 8.98599 11.1592C9.03524 11.2489 9.09114 11.3507 9.09114 11.4471C9.09114 11.5375 9.14951 11.4155 9.20503 11.2993C9.25539 11.194 9.3034 11.0936 9.3034 11.1611C9.3034 11.3028 9.65402 11.5012 9.65402 11.2748C9.65402 11.2029 9.61921 11.1048 9.57781 10.9882C9.48886 10.7377 9.3695 10.4014 9.49981 10.0552C9.69076 9.54789 9.77302 8.82374 9.77302 7.55047C9.77302 6.2772 8.88248 5.71252 8.65908 5.71252C8.52204 5.71252 8.59032 5.80555 8.69235 5.94456C8.75664 6.03214 8.83432 6.13798 8.88248 6.25029ZM8.05213 9.98034C8.05427 9.98968 8.05654 9.99904 8.05894 10.0084C8.05457 9.99638 8.05213 9.98678 8.05213 9.98034ZM8.1271 11.1611C8.1271 11.1293 8.14895 11.1649 8.16965 11.2177C8.14333 11.2184 8.1271 11.208 8.1271 11.1611ZM5.40073 11.2177C5.42705 11.2184 5.44329 11.208 5.44329 11.1611C5.44329 11.1293 5.42143 11.1649 5.40073 11.2177ZM5.51145 10.0084C5.51581 9.99638 5.51825 9.98678 5.51825 9.98034C5.51611 9.98968 5.51384 9.99904 5.51145 10.0084Z" fill="#F7FCFF"/>
<path fill-rule="evenodd" clip-rule="evenodd" d="M5.11788 12.0015C5.11788 11.9137 5.34259 11.71 5.34259 11.71V11.7273C5.37411 11.7527 5.57494 11.9183 5.57494 11.9993C5.57494 12.0495 5.54894 12.1223 5.52668 12.1847C5.51002 12.2313 5.49546 12.2721 5.49546 12.2931C5.49546 12.3073 5.50134 12.2971 5.51253 12.2778C5.54027 12.2299 5.60061 12.1258 5.68489 12.1954C5.79654 12.2876 5.79586 12.4236 5.79543 12.5098C5.79541 12.515 5.79538 12.5199 5.79538 12.5247C5.79538 12.5515 5.79533 12.5514 5.79175 12.5386C5.78405 12.511 5.75999 12.425 5.68489 12.425C5.57494 12.425 5.49546 12.5247 5.49546 12.5247V12.6947C5.49546 12.6947 5.5094 12.8351 5.57494 12.7649C5.64048 12.6947 5.65442 12.8515 5.57494 12.8515C5.53436 12.8515 5.49263 12.8946 5.45177 12.9368C5.41259 12.9772 5.37422 13.0168 5.33845 13.0168V13.0027C5.30456 13 5.27664 12.9651 5.24816 12.9296C5.21725 12.891 5.18569 12.8515 5.14511 12.8515C5.06563 12.8515 5.07957 12.6947 5.14511 12.7649C5.21065 12.8351 5.22459 12.6947 5.22459 12.6947V12.5247C5.22459 12.5247 5.14511 12.425 5.03516 12.425C4.96006 12.425 4.936 12.511 4.9283 12.5386C4.92472 12.5514 4.92467 12.5515 4.92467 12.5247C4.92467 12.5199 4.92464 12.515 4.92462 12.5098C4.92419 12.4236 4.92351 12.2876 5.03516 12.1954C5.11944 12.1258 5.17978 12.2299 5.20752 12.2778C5.21871 12.2971 5.22459 12.3073 5.22459 12.2931C5.22459 12.2721 5.20504 12.2317 5.18268 12.1855C5.1528 12.1238 5.11788 12.0518 5.11788 12.0015Z" fill="#E8AA00"/>
<path fill-rule="evenodd" clip-rule="evenodd" d="M8.10714 12.0015C8.10714 11.9137 8.33185 11.71 8.33185 11.71V11.7273C8.36337 11.7527 8.5642 11.9183 8.5642 11.9993C8.5642 12.0495 8.53819 12.1223 8.51593 12.1847C8.49928 12.2313 8.48472 12.2721 8.48472 12.2931C8.48472 12.3073 8.4906 12.2971 8.50179 12.2778C8.52953 12.2299 8.58987 12.1258 8.67415 12.1954C8.7858 12.2876 8.78512 12.4236 8.78469 12.5098C8.78467 12.515 8.78464 12.5199 8.78464 12.5247C8.78464 12.5515 8.78459 12.5514 8.78101 12.5386C8.7733 12.511 8.74925 12.425 8.67415 12.425C8.5642 12.425 8.48472 12.5247 8.48472 12.5247V12.6947C8.48472 12.6947 8.49866 12.8351 8.5642 12.7649C8.62973 12.6947 8.64368 12.8515 8.5642 12.8515C8.52362 12.8515 8.48189 12.8946 8.44103 12.9368C8.40185 12.9772 8.36348 13.0168 8.32771 13.0168V13.0027C8.29382 13 8.2659 12.9651 8.23742 12.9296C8.20651 12.891 8.17494 12.8515 8.13437 12.8515C8.05489 12.8515 8.06883 12.6947 8.13437 12.7649C8.1999 12.8351 8.21385 12.6947 8.21385 12.6947V12.5247C8.21385 12.5247 8.13437 12.425 8.02441 12.425C7.94932 12.425 7.92526 12.511 7.91756 12.5386C7.91398 12.5514 7.91392 12.5515 7.91392 12.5247C7.91392 12.5199 7.9139 12.515 7.91387 12.5098C7.91344 12.4236 7.91277 12.2876 8.02441 12.1954C8.1087 12.1258 8.16904 12.2299 8.19677 12.2778C8.20797 12.2971 8.21385 12.3073 8.21385 12.2931C8.21385 12.2721 8.1943 12.2317 8.17194 12.1855C8.14205 12.1238 8.10714 12.0518 8.10714 12.0015Z" fill="#E8AA00"/>
<path fill-rule="evenodd" clip-rule="evenodd" d="M4.89415 11.4749C5.09445 11.4749 5.13494 11.094 5.13494 11.094C5.13494 11.094 5.30299 10.9198 5.30299 11.0482C5.30299 11.1167 5.25521 11.203 5.21887 11.2686C5.18706 11.3261 5.16401 11.3677 5.18945 11.3677H5.46682C5.69551 11.3677 5.42666 11.4749 5.30299 11.5227C5.24689 11.5443 5.20711 11.5557 5.16894 11.5665C5.12298 11.5796 5.07936 11.592 5.01242 11.6211C4.88989 11.6742 4.83733 12.0237 4.89415 12.1359C4.95097 12.2482 4.83733 12.2008 4.79037 12.1359C4.76427 12.0999 4.74523 12.1495 4.71866 12.2187C4.69741 12.2741 4.67135 12.342 4.63302 12.3886C4.55899 12.4786 4.55978 12.399 4.56149 12.2278C4.56177 12.1995 4.56208 12.1688 4.56208 12.1359C4.56208 11.9842 4.59237 11.9828 4.63742 11.9808C4.66132 11.9797 4.68937 11.9785 4.71927 11.9545C4.78382 11.9027 4.79157 11.876 4.81108 11.8088C4.81764 11.7863 4.82552 11.7592 4.83733 11.725C4.8843 11.589 4.63302 11.8039 4.56208 11.9057C4.51888 11.9677 4.48879 11.9744 4.44378 11.9845C4.41488 11.991 4.37982 11.9989 4.33118 12.0237C4.25212 12.064 4.27357 11.9848 4.2997 11.8884C4.31467 11.8332 4.33118 11.7723 4.33118 11.725C4.33118 11.6434 4.38028 11.6643 4.4432 11.6912C4.48042 11.707 4.52248 11.725 4.56208 11.725C4.66326 11.725 4.71552 11.6822 4.78002 11.6295C4.78343 11.6267 4.78688 11.6239 4.79037 11.6211C4.84212 11.5789 4.72938 11.5916 4.59513 11.6068C4.54921 11.6119 4.50078 11.6174 4.45554 11.6211C4.3523 11.6294 4.34541 11.6232 4.31963 11.6C4.3011 11.5833 4.2728 11.5578 4.19189 11.5227C3.99847 11.4386 4.31623 11.4749 4.45554 11.5227C4.53301 11.5492 4.59802 11.5315 4.6749 11.5105C4.73628 11.4937 4.80523 11.4749 4.89415 11.4749ZM8.77846 11.4749C8.57817 11.4749 8.53767 11.094 8.53767 11.094C8.53767 11.094 8.36962 10.9198 8.36962 11.0482C8.36962 11.1167 8.4174 11.203 8.45374 11.2686C8.48556 11.3261 8.50861 11.3677 8.48316 11.3677H8.2058C7.97711 11.3677 8.24596 11.4749 8.36962 11.5227C8.42572 11.5443 8.46551 11.5557 8.50367 11.5665C8.54964 11.5796 8.59325 11.592 8.6602 11.6211C8.78272 11.6742 8.83528 12.0237 8.77846 12.1359C8.72164 12.2482 8.83528 12.2008 8.88225 12.1359C8.90834 12.0999 8.92739 12.1495 8.95395 12.2187C8.9752 12.2741 9.00126 12.342 9.03959 12.3886C9.11363 12.4786 9.11283 12.399 9.11112 12.2278C9.11084 12.1995 9.11054 12.1688 9.11054 12.1359C9.11054 11.9842 9.08025 11.9828 9.03519 11.9808C9.01129 11.9797 8.98324 11.9785 8.95335 11.9545C8.88879 11.9027 8.88104 11.876 8.86153 11.8088C8.85498 11.7863 8.84709 11.7592 8.83528 11.725C8.78832 11.589 9.03959 11.8039 9.11054 11.9057C9.15373 11.9677 9.18382 11.9744 9.22883 11.9845C9.25774 11.991 9.2928 11.9989 9.34144 12.0237C9.4205 12.064 9.39904 11.9848 9.37292 11.8884C9.35795 11.8332 9.34144 11.7723 9.34144 11.725C9.34144 11.6434 9.29234 11.6643 9.22941 11.6912C9.19219 11.707 9.15013 11.725 9.11054 11.725C9.00935 11.725 8.9571 11.6822 8.89259 11.6295C8.88918 11.6267 8.88574 11.6239 8.88225 11.6211C8.83049 11.5789 8.94323 11.5916 9.07749 11.6068C9.1234 11.6119 9.17184 11.6174 9.21707 11.6211C9.32031 11.6294 9.3272 11.6232 9.35298 11.6C9.37152 11.5833 9.39982 11.5578 9.48072 11.5227C9.67415 11.4386 9.35639 11.4749 9.21707 11.5227C9.1396 11.5492 9.0746 11.5315 8.99771 11.5105C8.93633 11.4937 8.86738 11.4749 8.77846 11.4749Z" fill="#E8AA00"/>
<path fill-rule="evenodd" clip-rule="evenodd" d="M5.6543 7.71338H8.07649V9.92233C8.07649 9.92233 7.81647 11.0227 6.8654 11.0227C5.91432 11.0227 5.6543 9.92233 5.6543 9.92233V7.71338Z" fill="#C51918"/>
<path fill-rule="evenodd" clip-rule="evenodd" d="M7.19195 7.68115H6.5579V8.94927H5.6521V9.40217H6.5579V11.0326H7.19195V9.40217H8.09775V8.94927H7.19195V7.68115Z" fill="#F7FCFF"/>
<path fill-rule="evenodd" clip-rule="evenodd" d="M6.06294 8.31825C6.12374 8.31825 6.15274 8.26697 6.12059 8.22182C6.10368 8.19808 6.06865 8.19121 6.04235 8.20646C6.03999 8.20783 6.03778 8.20933 6.03573 8.21095C6.02604 8.20853 6.01421 8.20523 6.00056 8.20106C5.98832 8.19731 5.97502 8.19746 5.96289 8.20148C5.94818 8.20635 5.93984 8.19128 5.94693 8.09759C5.9537 8.07146 5.98951 8.0553 6.07296 8.0553C6.22544 8.0553 6.28809 8.07162 6.28809 8.08596V8.31002L6.21409 8.3768C6.17843 8.40899 6.20368 8.46402 6.25412 8.46402H6.28809V8.63558C6.24156 8.67186 6.19997 8.68881 6.16354 8.68881C6.02714 8.68881 5.9505 8.63798 5.94839 8.57793C5.94897 8.56033 5.94976 8.54734 5.95034 8.53851L5.9621 8.54237C5.97458 8.54669 5.98835 8.54689 6.00098 8.54292L6.00617 8.54122C6.01105 8.53957 6.01388 8.53861 6.01547 8.53962C6.01766 8.54101 6.01745 8.54619 6.01694 8.55853L6.01636 8.5753C6.01568 8.60351 6.04047 8.62687 6.07173 8.62749C6.10299 8.62811 6.12888 8.60574 6.12956 8.57753C6.13195 8.47856 6.07645 8.42166 5.98431 8.44102C5.92994 8.42472 5.8919 8.42661 5.86224 8.46014C5.84044 8.48477 5.83752 8.50498 5.83522 8.57795C5.83941 8.70333 5.97159 8.79099 6.16354 8.79099C6.23754 8.79099 6.31084 8.75791 6.38378 8.69512C6.39498 8.68548 6.40131 8.67212 6.40131 8.65816V8.41293C6.40131 8.3964 6.39262 8.38171 6.37913 8.37237L6.38473 8.36731C6.39535 8.35773 6.40131 8.34473 6.40131 8.33118V8.08596C6.40131 7.98125 6.29331 7.95312 6.07296 7.95312C5.9431 7.95312 5.85815 7.99146 5.83535 8.08214C5.8225 8.23706 5.8684 8.32949 5.98187 8.30307C6.01698 8.31314 6.04297 8.31825 6.06294 8.31825ZM7.65383 8.22182C7.62168 8.26697 7.65068 8.31825 7.71148 8.31825C7.73145 8.31825 7.75744 8.31314 7.79255 8.30307C7.90602 8.32949 7.95192 8.23706 7.93907 8.08214C7.91627 7.99146 7.83132 7.95312 7.70146 7.95312C7.48111 7.95312 7.37311 7.98125 7.37311 8.08596V8.33118C7.37311 8.34473 7.37907 8.35773 7.38969 8.36731L7.39529 8.37237C7.3818 8.38171 7.37311 8.3964 7.37311 8.41293V8.65816C7.37311 8.67212 7.37944 8.68548 7.39064 8.69512C7.46358 8.75791 7.53689 8.79099 7.61088 8.79099C7.80283 8.79099 7.93501 8.70333 7.9392 8.57795C7.9369 8.50498 7.93398 8.48477 7.91218 8.46014C7.88252 8.42661 7.84448 8.42472 7.79011 8.44102C7.69797 8.42166 7.64247 8.47856 7.64486 8.57753C7.64554 8.60574 7.67143 8.62811 7.70269 8.62749C7.73395 8.62687 7.75874 8.60351 7.75806 8.5753L7.75748 8.55853V8.55853C7.75697 8.54619 7.75676 8.54101 7.75895 8.53962C7.76054 8.53861 7.76337 8.53957 7.76825 8.54122L7.77344 8.54292C7.78607 8.54689 7.79984 8.54669 7.81232 8.54237L7.82408 8.53851C7.82466 8.54734 7.82545 8.56033 7.82603 8.57793C7.82392 8.63798 7.74728 8.68881 7.61088 8.68881C7.57445 8.68881 7.53286 8.67186 7.48633 8.63558V8.46402H7.5203C7.57074 8.46402 7.59599 8.40899 7.56033 8.3768L7.48633 8.31002V8.08596C7.48633 8.07162 7.54898 8.0553 7.70146 8.0553C7.78491 8.0553 7.82072 8.07146 7.82749 8.09759C7.83458 8.19128 7.82624 8.20635 7.81153 8.20148C7.7994 8.19746 7.7861 8.19731 7.77386 8.20106C7.76021 8.20523 7.74838 8.20853 7.73869 8.21095C7.73664 8.20933 7.73443 8.20783 7.73207 8.20646C7.70577 8.19121 7.67074 8.19808 7.65383 8.22182ZM7.84462 8.53396L7.8422 8.53387L7.84381 8.53401L7.84462 8.53396ZM7.71148 9.94869C7.65068 9.94869 7.62168 9.8974 7.65383 9.85225C7.67074 9.82852 7.70577 9.82164 7.73207 9.8369C7.73443 9.83827 7.73664 9.83977 7.73869 9.84138C7.74838 9.83896 7.76021 9.83567 7.77386 9.83149C7.7861 9.82775 7.7994 9.82789 7.81153 9.83191C7.82624 9.83678 7.83458 9.82172 7.82749 9.72802C7.82072 9.7019 7.78491 9.68574 7.70146 9.68574C7.54898 9.68574 7.48633 9.70205 7.48633 9.71639V9.94046L7.56033 10.0072C7.59599 10.0394 7.57074 10.0945 7.5203 10.0945H7.48633V10.266C7.53286 10.3023 7.57445 10.3192 7.61088 10.3192C7.74728 10.3192 7.82392 10.2684 7.82603 10.2084C7.82545 10.1908 7.82466 10.1778 7.82408 10.1689L7.81232 10.1728C7.79984 10.1771 7.78607 10.1773 7.77344 10.1734L7.76825 10.1717L7.76825 10.1717C7.76337 10.17 7.76054 10.169 7.75895 10.1701C7.75676 10.1714 7.75697 10.1766 7.75748 10.189L7.75806 10.2057C7.75874 10.2339 7.73395 10.2573 7.70269 10.2579C7.67143 10.2585 7.64554 10.2362 7.64486 10.208C7.64247 10.109 7.69797 10.0521 7.79011 10.0715C7.84448 10.0552 7.88252 10.057 7.91218 10.0906C7.93398 10.1152 7.9369 10.1354 7.9392 10.2084C7.93501 10.3338 7.80283 10.4214 7.61088 10.4214C7.53689 10.4214 7.46358 10.3883 7.39064 10.3256C7.37944 10.3159 7.37311 10.3026 7.37311 10.2886V10.0434C7.37311 10.0268 7.3818 10.0121 7.39529 10.0028L7.38969 9.99775C7.37907 9.98816 7.37311 9.97517 7.37311 9.96162V9.71639C7.37311 9.61169 7.48111 9.58356 7.70146 9.58356C7.83132 9.58356 7.91627 9.62189 7.93907 9.71258C7.95192 9.8675 7.90602 9.95993 7.79255 9.93351C7.75744 9.94358 7.73145 9.94869 7.71148 9.94869ZM6.06294 9.94869C6.12374 9.94869 6.15274 9.8974 6.12059 9.85225C6.10368 9.82852 6.06865 9.82164 6.04235 9.8369C6.03999 9.83827 6.03778 9.83977 6.03573 9.84138C6.02604 9.83896 6.01421 9.83567 6.00056 9.83149C5.98832 9.82775 5.97502 9.82789 5.96289 9.83191C5.94818 9.83678 5.93984 9.82172 5.94693 9.72802C5.9537 9.7019 5.98951 9.68574 6.07296 9.68574C6.22544 9.68574 6.28809 9.70205 6.28809 9.71639V9.94046L6.21409 10.0072C6.17843 10.0394 6.20368 10.0945 6.25412 10.0945H6.28809V10.266C6.24156 10.3023 6.19997 10.3192 6.16354 10.3192C6.02714 10.3192 5.9505 10.2684 5.94839 10.2084C5.94897 10.1908 5.94976 10.1778 5.95034 10.1689L5.9621 10.1728C5.97458 10.1771 5.98835 10.1773 6.00098 10.1734C6.00293 10.1727 6.00465 10.1722 6.00617 10.1717C6.01105 10.17 6.01388 10.169 6.01547 10.1701C6.01766 10.1714 6.01745 10.1766 6.01694 10.189C6.01675 10.1935 6.01652 10.1991 6.01636 10.2057C6.01568 10.2339 6.04047 10.2573 6.07173 10.2579C6.10299 10.2585 6.12888 10.2362 6.12956 10.208C6.13195 10.109 6.07645 10.0521 5.98431 10.0715C5.92994 10.0552 5.8919 10.057 5.86224 10.0906C5.84044 10.1152 5.83752 10.1354 5.83522 10.2084C5.83941 10.3338 5.97159 10.4214 6.16354 10.4214C6.23754 10.4214 6.31084 10.3883 6.38378 10.3256C6.39498 10.3159 6.40131 10.3026 6.40131 10.2886V10.0434C6.40131 10.0268 6.39262 10.0121 6.37913 10.0028L6.38473 9.99775C6.39535 9.98816 6.40131 9.97517 6.40131 9.96162V9.71639C6.40131 9.61169 6.29331 9.58356 6.07296 9.58356C5.9431 9.58356 5.85815 9.62189 5.83535 9.71258C5.8225 9.8675 5.8684 9.95993 5.98187 9.93351C6.01698 9.94358 6.04297 9.94869 6.06294 9.94869Z" fill="#F7FCFF"/>
</g>
</g>
<rect x="0.5" y="0.5" width="19" height="14" rx="0.5" stroke="black" stroke-opacity="0.1"/>
<defs>
<clipPath id="clip0_85465_15558">
<rect width="20" height="15" rx="1" fill="white"/>
</clipPath>
</defs>
</svg>
