<svg width="20" height="15" viewBox="0 0 20 15" fill="none" xmlns="http://www.w3.org/2000/svg">
<g clip-path="url(#clip0_85465_15798)">
<rect width="20" height="15" rx="1" fill="white"/>
<path fill-rule="evenodd" clip-rule="evenodd" d="M0 0V15H20V0H0Z" fill="#F7FCFF"/>
<mask id="mask0_85465_15798" style="mask-type:luminance" maskUnits="userSpaceOnUse" x="0" y="0" width="20" height="15">
<path fill-rule="evenodd" clip-rule="evenodd" d="M0 0V15H20V0H0Z" fill="white"/>
</mask>
<g mask="url(#mask0_85465_15798)">
<path fill-rule="evenodd" clip-rule="evenodd" d="M0 0V7.5H20V0H0Z" fill="#E31D1C"/>
<path fill-rule="evenodd" clip-rule="evenodd" d="M5.54264 6.61865C5.54264 6.61865 3.77659 5.90835 3.77659 3.98393C3.77659 2.05951 5.54264 1.37215 5.54264 1.37215C4.68431 1.15485 2.40674 1.3492 2.40674 3.98393C2.40674 6.61865 4.64989 7.11553 5.54264 6.61865ZM5.99513 6.30056L6.50177 5.9947L7.01957 6.30056L6.89285 5.70371L7.31378 5.23287H6.74347L6.50177 4.67556L6.26007 5.23287L5.68878 5.25703L6.11069 5.70371L5.99513 6.30056ZM8.3432 5.96055L7.83656 6.26641L7.95212 5.66956L7.53022 5.22287L8.1015 5.19872L8.3432 4.64141L8.5849 5.19872H9.15522L8.73428 5.66956L8.86101 6.26641L8.3432 5.96055ZM7.05436 3.60634L7.561 3.30048L8.07881 3.60634L7.95208 3.00949L8.37302 2.53865H7.8027L7.561 1.98134L7.3193 2.53865L6.74802 2.5628L7.16992 3.00949L7.05436 3.60634ZM5.85601 4.51433L5.34937 4.82019L5.46493 4.22334L5.04302 3.77666L5.61431 3.7525L5.85601 3.19519L6.09771 3.7525H6.66802L6.24709 4.22334L6.37381 4.82019L5.85601 4.51433ZM8.69838 4.79278L9.20502 4.48692L9.72282 4.79278L9.5961 4.19593L10.017 3.72509H9.44672L9.20502 3.16778L8.96332 3.72509L8.39203 3.74925L8.81394 4.19593L8.69838 4.79278Z" fill="#F1F9FF"/>
</g>
</g>
<rect x="0.5" y="0.5" width="19" height="14" rx="0.5" stroke="black" stroke-opacity="0.1"/>
<defs>
<clipPath id="clip0_85465_15798">
<rect width="20" height="15" rx="1" fill="white"/>
</clipPath>
</defs>
</svg>
