<svg width="20" height="15" viewBox="0 0 20 15" fill="none" xmlns="http://www.w3.org/2000/svg">
<g clip-path="url(#clip0_85465_15829)">
<rect width="20" height="15" rx="1" fill="white"/>
<path fill-rule="evenodd" clip-rule="evenodd" d="M0 0V15H20V0H0Z" fill="#2E42A5"/>
<mask id="mask0_85465_15829" style="mask-type:luminance" maskUnits="userSpaceOnUse" x="0" y="0" width="20" height="15">
<path fill-rule="evenodd" clip-rule="evenodd" d="M0 0V15H20V0H0Z" fill="white"/>
</mask>
<g mask="url(#mask0_85465_15829)">
<path fill-rule="evenodd" clip-rule="evenodd" d="M0 0V5H20V0H0Z" fill="#F7FCFF"/>
<path fill-rule="evenodd" clip-rule="evenodd" d="M0 10V15H20V10H0Z" fill="#C51918"/>
<path fill-rule="evenodd" clip-rule="evenodd" d="M8.5875 3.14758C8.5875 3.14758 7.27204 2.52637 5.63591 2.52637C3.99979 2.52637 2.68433 3.14758 2.68433 3.14758C2.68433 3.14758 2.83072 5.64427 3.06209 6.9669C3.16088 7.53162 3.63572 8.35527 4.06559 8.74511C4.55557 9.18946 5.63591 9.71589 5.63591 9.71589C5.94854 9.50046 6.53308 9.40359 7.28023 8.74511C8.02738 8.08664 8.21308 6.9669 8.21308 6.9669L8.5875 3.14758Z" fill="#2E42A5"/>
<path d="M8.41362 3.06592L8.96144 3.3395L8.58538 7.10363C8.45366 7.9003 8.12408 8.52855 7.59703 8.99304C7.31113 9.24502 7.03205 9.43329 6.73284 9.58972C6.56395 9.67803 5.85748 10.0419 5.86363 10.039C5.79285 10.0731 5.73918 10.103 5.69558 10.133L5.62725 10.1801L5.55348 10.1441C4.82175 9.78759 4.13906 9.30775 3.7998 9.00009C3.33669 8.58011 2.84839 7.7207 2.74428 7.1256C2.58863 6.23582 2.44904 5.01025 2.35107 3.3395L2.8432 3.08203C2.94042 4.74021 3.05779 6.06203 3.21064 6.93575C3.30107 7.45268 3.75135 8.24517 4.16212 8.61769C4.4657 8.893 4.95478 9.19827 5.62725 9.53027C5.66736 9.50677 5.71181 9.4835 5.76267 9.45899C5.7641 9.4583 6.22155 9.25516 6.38053 9.17204C6.65937 9.02625 6.91855 8.8514 7.1854 8.61622C7.65326 8.20389 7.94526 7.64859 8.06335 6.94316L8.41362 3.06592Z" fill="#C51918"/>
<path fill-rule="evenodd" clip-rule="evenodd" d="M3.46362 6.8899C3.46362 6.8899 3.58286 7.2547 3.8033 7.66438C4.12702 7.74974 4.32509 7.74526 4.3877 7.67518C4.56882 7.47246 5.21322 7.38583 5.33346 7.55901C5.40763 7.66584 5.66837 7.7397 5.95347 7.64198L5.92168 7.64761C5.97121 7.62961 6.0872 7.58363 6.15869 7.55529L6.21691 7.53233C6.32425 7.49183 6.40312 7.47058 6.48346 7.46461C6.58417 7.45712 6.68075 7.47587 6.78308 7.52459C7.00802 7.6317 7.28557 7.68161 7.47458 7.64917C7.70561 7.24678 7.87036 6.8899 7.87036 6.8899L6.7733 5.83703L6.33726 6.3102L5.61278 5.27734L5.00624 6.3102L4.54115 5.83703L3.46362 6.8899ZM4.09785 8.13385C4.0472 8.06556 3.99934 7.99501 3.95436 7.92381C4.23515 7.97501 4.42581 7.94809 4.53188 7.82937C4.58198 7.7733 4.73063 7.71892 4.89975 7.69618C4.9786 7.68558 5.05425 7.68294 5.11225 7.68848C5.13887 7.69102 5.16032 7.69517 5.17476 7.70017C5.17943 7.70179 5.17929 7.70158 5.17444 7.69463L5.17356 7.69337C5.30288 7.87828 5.65399 7.97738 5.98526 7.85694L5.95347 7.86257C6.04308 7.83502 6.20446 7.77157 6.26246 7.74876L6.28264 7.74087C6.37462 7.70616 6.43801 7.68908 6.49713 7.68469C6.56531 7.67962 6.62964 7.69211 6.70263 7.72686C6.90182 7.8217 7.13337 7.87813 7.33745 7.87959C7.29395 7.94996 7.24903 8.01993 7.2032 8.08792C7.04455 8.12475 6.79911 8.07633 6.60111 7.96822C6.50857 7.91768 6.4202 7.89801 6.32805 7.90586C6.25518 7.91207 6.18453 7.93391 6.08908 7.97521C6.08351 7.97762 6.06392 7.98653 6.03752 7.99853C5.9751 8.0269 5.87465 8.07256 5.83189 8.09039L5.86779 8.08316C5.62001 8.17873 5.40312 8.10827 5.3412 8.00599C5.2307 7.82347 4.65156 7.91276 4.48862 8.12191C4.44519 8.17766 4.3141 8.18785 4.09785 8.13385ZM4.31347 8.38943C4.32568 8.40198 4.33801 8.41432 4.35045 8.42646C4.91494 8.97687 5.61278 9.24666 5.61278 9.24666C5.61278 9.24666 6.44395 8.99515 6.91568 8.46562C6.95593 8.42044 6.99627 8.37149 7.03637 8.31976C6.86435 8.31125 6.67525 8.25523 6.51108 8.16559C6.45076 8.13265 6.39883 8.12108 6.34371 8.12578C6.29496 8.12994 6.24158 8.14644 6.16323 8.18034C6.16112 8.18125 6.156 8.18356 6.14847 8.18695C6.1005 8.20855 5.9548 8.27415 5.86779 8.30375L5.90368 8.29652C5.61168 8.41827 5.30164 8.32214 5.18072 8.13979C5.17 8.13558 5.15318 8.13186 5.13187 8.12953C5.08336 8.12421 5.0193 8.12678 4.95232 8.1371C4.80883 8.15923 4.6835 8.2118 4.64206 8.265C4.57239 8.35444 4.46312 8.39394 4.31347 8.38943Z" fill="white"/>
<path fill-rule="evenodd" clip-rule="evenodd" d="M4.46655 3.67856H4.0271L4.36794 3.35926L4.0271 3.02185H4.46655L4.6521 2.69434L4.8384 3.02185H5.2771L4.9533 3.339L5.24081 3.67856H4.8384L4.6521 4.02419L4.46655 3.67856Z" fill="#FECA00"/>
<path fill-rule="evenodd" clip-rule="evenodd" d="M6.53784 3.67856H6.09839L6.43923 3.35926L6.09839 3.02185H6.53784L6.72339 2.69434L6.90969 3.02185H7.34839L7.02459 3.339L7.3121 3.67856H6.90969L6.72339 4.02419L6.53784 3.67856Z" fill="#FECA00"/>
<path fill-rule="evenodd" clip-rule="evenodd" d="M5.37475 4.72983H4.9353L5.27614 4.41053L4.9353 4.07312H5.37475L5.5603 3.74561L5.7466 4.07312H6.1853L5.86151 4.39027L6.14902 4.72983H5.7466L5.5603 5.07545L5.37475 4.72983Z" fill="#FECA00"/>
</g>
</g>
<rect x="0.5" y="0.5" width="19" height="14" rx="0.5" stroke="black" stroke-opacity="0.1"/>
<defs>
<clipPath id="clip0_85465_15829">
<rect width="20" height="15" rx="1" fill="white"/>
</clipPath>
</defs>
</svg>
