<svg width="20" height="15" viewBox="0 0 20 15" fill="none" xmlns="http://www.w3.org/2000/svg">
<g clip-path="url(#clip0_85465_15872)">
<rect width="20" height="15" rx="1" fill="white"/>
<path fill-rule="evenodd" clip-rule="evenodd" d="M0 0V15H20V0H0Z" fill="#F7FCFF"/>
<mask id="mask0_85465_15872" style="mask-type:luminance" maskUnits="userSpaceOnUse" x="0" y="0" width="20" height="15">
<path fill-rule="evenodd" clip-rule="evenodd" d="M0 0V15H20V0H0Z" fill="white"/>
</mask>
<g mask="url(#mask0_85465_15872)">
<path fill-rule="evenodd" clip-rule="evenodd" d="M0 7.5V15H20V7.5H0Z" fill="#56C6F5"/>
<path fill-rule="evenodd" clip-rule="evenodd" d="M6.4088 5.6427C6.40416 5.58989 6.39311 5.54423 6.37401 5.50864C6.21347 5.20941 6.26533 4.835 6.26533 4.835C6.26533 4.835 6.07363 5.27347 5.96114 5.68629C5.8429 5.49404 5.80156 5.30145 5.80156 5.30145C5.80156 5.30145 5.72504 6.51244 5.959 6.79936C6.19296 7.08629 6.34895 7.21237 6.34895 7.21237C6.34895 7.21237 6.36666 6.70952 6.29854 6.31626C6.34654 6.1522 6.38984 5.97248 6.40535 5.81775C6.43606 5.795 6.51698 5.73425 6.61826 5.65162C6.57558 5.8871 6.57346 6.01505 6.57346 6.01505C6.57346 6.01505 7.45507 5.37493 7.47748 5.03609C7.49989 4.69726 7.74229 4.40723 7.74229 4.40723C7.74229 4.40723 7.54185 4.54439 7.31298 4.72831C7.37349 4.44389 7.56084 4.21973 7.56084 4.21973C7.56084 4.21973 6.55946 4.90498 6.4774 5.266C6.4417 5.42303 6.4209 5.54969 6.4088 5.6427ZM6.45168 7.72421C6.35567 7.54292 5.93783 6.78297 5.64638 6.71684C5.31523 6.6417 5.06668 6.35691 5.06668 6.35691C5.06668 6.35691 5.58685 7.45316 5.93058 7.59069C6.20662 7.70113 6.38839 7.74523 6.44928 7.75831C6.43925 7.90609 6.4375 8.00819 6.4375 8.00819C6.4375 8.00819 6.59987 7.89044 6.84852 7.61615C7.09718 7.34186 7.08414 6.12853 7.08414 6.12853C7.08414 6.12853 6.98559 6.49345 6.72089 6.70615C6.54332 6.84884 6.47646 7.38602 6.45168 7.72421ZM5.66955 7.60952C6.04787 7.60729 6.62988 8.53497 6.62988 8.53497C6.62988 8.53497 6.4044 8.54733 6.01051 8.4851C5.61662 8.42286 5.00269 7.3658 5.00269 7.3658C5.00269 7.3658 5.29123 7.61174 5.66955 7.60952ZM7.5137 9.77007C7.5137 9.77007 7.7382 8.5879 7.40109 8.31232C7.06399 8.03674 7.00452 7.6249 7.00452 7.6249C7.00452 7.6249 6.70506 8.93584 7.00452 9.27532C7.30398 9.61481 7.5137 9.77007 7.5137 9.77007ZM6.15351 9.45091C6.37365 9.71192 7.07503 9.45091 7.07503 9.45091C7.07503 9.45091 7.22957 9.59126 6.67334 9.08288C6.1171 8.5745 4.98528 8.8956 5.28988 8.8956C5.59448 8.8956 5.93336 9.18991 6.15351 9.45091ZM6.67334 10.8386C7.08141 11.1842 7.96319 10.3625 7.96319 10.3625C7.96319 10.3625 7.73619 10.0876 7.31548 9.88496C6.89477 9.68235 5.34289 9.88496 5.34289 9.88496L6.03351 10.1924C6.03351 10.1924 5.26476 10.493 5.46881 10.4763C5.67287 10.4595 6.26526 10.493 6.67334 10.8386Z" fill="#006923"/>
<path fill-rule="evenodd" clip-rule="evenodd" d="M12.0084 10.1227C12.0084 10.1227 11.6576 9.53307 12.0084 9.24823C12.3593 8.96338 12.4981 9.15284 12.4981 8.82535C12.4981 8.49786 12.5336 8.59537 12.706 8.43279C12.8784 8.27021 12.7563 7.87533 12.9872 8.07277C13.218 8.27021 13.2612 7.89159 13.2612 8.67813C13.2612 9.46466 13.2612 7.96475 13.2612 7.52298C13.2612 7.08121 12.9872 7.18579 12.9872 6.88953C12.9872 6.59326 12.7132 6.15079 12.9872 6.15079C13.2612 6.15079 13.4222 6.47999 13.4222 6.47999C13.4222 6.47999 13.6914 6.93884 13.6914 6.47999C13.6914 6.02115 13.2121 6.15756 12.9872 5.65122C12.7622 5.14488 12.7978 5.70801 12.4981 5.05556C12.1985 4.40311 11.8418 4.19607 12.17 4.19607C12.4981 4.19607 12.4249 4.19607 12.706 4.19607C12.9872 4.19607 13.4222 3.96255 13.4222 4.19607C13.4222 4.42959 13.4222 4.32258 13.4222 4.68907C13.4222 5.05556 13.6914 5.05556 13.6914 5.05556C13.6914 5.05556 13.8378 4.32258 14.0216 4.68907C14.2055 5.05556 14.0803 5.65122 14.2149 5.65122C14.3494 5.65122 14.238 5.03565 14.5319 5.50713C14.8257 5.97861 14.5319 6.29811 14.5319 6.47999C14.5319 6.66187 14.2149 7.10748 14.2149 7.10748C14.2149 7.10748 14.2768 7.32543 14.5319 7.10748C14.787 6.88953 15.029 6.67158 15.029 6.88953C15.029 7.10748 15.5262 7.17518 15.029 7.52298C14.5319 7.87078 14.8489 8.21898 14.5319 8.21898C14.2149 8.21898 13.8414 8.67813 13.6914 8.67813C13.5415 8.67813 12.9808 9.02966 13.2612 9.02966C13.5415 9.02966 13.8284 8.32659 14.0216 8.67813C14.2149 9.02967 14.2123 8.62104 14.3721 8.82535C14.5319 9.02966 14.6917 10.1382 14.5319 9.69323C14.3721 9.24823 14.1217 9.24823 13.6914 9.24823C13.2612 9.24823 12.4249 9.28036 12.706 9.48679C12.9872 9.69323 13.3029 9.28036 13.4222 9.48679C13.5415 9.69323 13.5068 9.89966 13.6914 9.69323C13.876 9.48679 14.0576 9.69323 14.2149 9.69323C14.3721 9.69323 14.0576 9.92432 14.2149 10.1227C14.3721 10.321 14.7226 10.5853 14.3721 10.5853C14.0216 10.5853 13.8414 10.3051 13.6914 10.5853C13.5415 10.8655 13.5352 11.3521 13.2612 10.9687C12.9872 10.5853 12.4981 10.7799 12.4981 10.5853C12.4981 10.3906 12.6051 10.3592 12.3068 10.3592C12.0084 10.3592 12.0084 10.1227 12.0084 10.1227Z" fill="#009933"/>
<path fill-rule="evenodd" clip-rule="evenodd" d="M13.4475 5.90625C13.4475 5.99254 13.3798 6.0625 13.2963 6.0625C13.2128 6.0625 13.1451 5.99254 13.1451 5.90625C13.1451 5.81996 13.2128 5.75 13.2963 5.75C13.3798 5.75 13.4475 5.81996 13.4475 5.90625ZM6.46163 6.25C6.54515 6.25 6.61284 6.18004 6.61284 6.09375C6.61284 6.00746 6.54515 5.9375 6.46163 5.9375C6.37812 5.9375 6.31042 6.00746 6.31042 6.09375C6.31042 6.18004 6.37812 6.25 6.46163 6.25ZM6.61284 6.90625C6.61284 6.99254 6.54515 7.0625 6.46163 7.0625C6.37812 7.0625 6.31042 6.99254 6.31042 6.90625C6.31042 6.81996 6.37812 6.75 6.46163 6.75C6.54515 6.75 6.61284 6.81996 6.61284 6.90625ZM6.70357 8.5C6.78708 8.5 6.85478 8.43004 6.85478 8.34375C6.85478 8.25746 6.78708 8.1875 6.70357 8.1875C6.62006 8.1875 6.55236 8.25746 6.55236 8.34375C6.55236 8.43004 6.62006 8.5 6.70357 8.5ZM7.91325 10.0625C7.99676 10.0625 8.06446 9.99254 8.06446 9.90625C8.06446 9.81996 7.99676 9.75 7.91325 9.75C7.82974 9.75 7.76204 9.81996 7.76204 9.90625C7.76204 9.99254 7.82974 10.0625 7.91325 10.0625ZM13.7197 7.6875C13.8032 7.6875 13.8709 7.61754 13.8709 7.53125C13.8709 7.44496 13.8032 7.375 13.7197 7.375C13.6362 7.375 13.5685 7.44496 13.5685 7.53125C13.5685 7.61754 13.6362 7.6875 13.7197 7.6875ZM13.387 8.78125C13.387 8.86754 13.3193 8.9375 13.2358 8.9375C13.1523 8.9375 13.0846 8.86754 13.0846 8.78125C13.0846 8.69496 13.1523 8.625 13.2358 8.625C13.3193 8.625 13.387 8.69496 13.387 8.78125ZM11.9657 10.3125C12.0492 10.3125 12.1169 10.2425 12.1169 10.1562C12.1169 10.07 12.0492 10 11.9657 10C11.8822 10 11.8145 10.07 11.8145 10.1562C11.8145 10.2425 11.8822 10.3125 11.9657 10.3125ZM8.12494 10.3438C8.12494 10.43 8.05724 10.5 7.97373 10.5C7.89022 10.5 7.82252 10.43 7.82252 10.3438C7.82252 10.2575 7.89022 10.1875 7.97373 10.1875C8.05724 10.1875 8.12494 10.2575 8.12494 10.3438Z" fill="#C51918"/>
<path fill-rule="evenodd" clip-rule="evenodd" d="M11.2736 12.3877C11.2736 12.2597 9.33577 10.9242 8.81565 10.6297C8.29553 10.3351 5.75565 8.71383 6.44733 6.25049H6.34265C6.34265 6.25049 5.87456 9.28577 9.09959 11.1725C10.568 12.1576 10.6411 12.3877 10.6411 12.3877C10.6411 12.3877 11.2736 12.5158 11.2736 12.3877Z" fill="#FECA00"/>
<path fill-rule="evenodd" clip-rule="evenodd" d="M8.70271 12.3877C8.70271 12.2597 10.6405 10.9242 11.1607 10.6297C11.6808 10.3351 14.2207 8.71383 13.529 6.25049H13.6337C13.6337 6.25049 14.1018 9.28577 10.8767 11.1725C9.4083 12.1576 9.33522 12.3877 9.33522 12.3877C9.33522 12.3877 8.70271 12.5158 8.70271 12.3877Z" fill="#FECA00"/>
<path fill-rule="evenodd" clip-rule="evenodd" d="M10.0303 10.5535C11.3832 10.5535 12.4799 8.80238 12.4799 7.09375C12.4799 5.38512 11.3832 4.5 10.0303 4.5C8.67741 4.5 7.58069 5.38512 7.58069 7.09375C7.58069 8.80238 8.67741 10.5535 10.0303 10.5535Z" fill="#56C6F5"/>
<path fill-rule="evenodd" clip-rule="evenodd" d="M8.94577 5.96209C8.94577 5.96209 9.32302 5.62935 9.13439 5.62935C9.09781 5.62935 9.05327 5.62221 9.00524 5.6145C8.80563 5.58248 8.5457 5.54078 8.5457 5.96209V6.6861L8.5456 6.6878H8.48994C8.45542 6.6878 8.42744 6.71578 8.42744 6.7503C8.42744 6.78481 8.45542 6.8128 8.48994 6.8128H8.53884C8.53048 6.96744 8.51568 7.24246 8.50116 7.51733L8.42964 7.52358C8.39266 7.52682 8.36531 7.55941 8.36855 7.59639L8.37317 7.64928C8.37641 7.68625 8.409 7.7136 8.44598 7.71037L8.49121 7.70641C8.47442 8.02757 8.46026 8.30862 8.46026 8.34302C8.46026 8.42749 9.03419 8.39478 9.03419 8.39478C9.03419 8.39478 9.01633 8.05598 8.99667 7.66219L9.03513 7.65883C9.0721 7.65559 9.09945 7.62299 9.09622 7.58602L9.09159 7.53313C9.08836 7.49616 9.05576 7.4688 9.01878 7.47204L8.98739 7.47479C8.97581 7.23895 8.96447 6.99947 8.95655 6.8128H9.03026C9.06478 6.8128 9.09276 6.78481 9.09276 6.7503C9.09276 6.71578 9.06478 6.6878 9.03026 6.6878H8.95147C8.94789 6.59452 8.94577 6.5244 8.94577 6.48909V5.96209Z" fill="white"/>
<path fill-rule="evenodd" clip-rule="evenodd" d="M8.66943 6.87549H8.87105V7.14431H8.66943V6.87549Z" fill="black"/>
<path fill-rule="evenodd" clip-rule="evenodd" d="M8.60889 7.81299H8.94491V8.43799H8.60889V7.81299Z" fill="black"/>
<path fill-rule="evenodd" clip-rule="evenodd" d="M10.2159 5.96209C10.2159 5.96209 10.5932 5.62935 10.4045 5.62935C10.368 5.62935 10.3234 5.62221 10.2754 5.6145C10.0758 5.58248 9.81584 5.54078 9.81584 5.96209V6.6861L9.81574 6.6878H9.76008C9.72557 6.6878 9.69758 6.71578 9.69758 6.7503C9.69758 6.78481 9.72557 6.8128 9.76008 6.8128H9.80898C9.80062 6.96744 9.78582 7.24246 9.7713 7.51733L9.69978 7.52358C9.6628 7.52682 9.63545 7.55941 9.63869 7.59639L9.64331 7.64928C9.64655 7.68625 9.67915 7.7136 9.71612 7.71037L9.76136 7.70641C9.74456 8.02757 9.7304 8.30862 9.7304 8.34302C9.7304 8.42749 10.3043 8.39478 10.3043 8.39478C10.3043 8.39478 10.2865 8.05598 10.2668 7.66219L10.3053 7.65883C10.3422 7.65559 10.3696 7.62299 10.3664 7.58602L10.3617 7.53313C10.3585 7.49616 10.3259 7.4688 10.2889 7.47204L10.2575 7.47479C10.2459 7.23895 10.2346 6.99947 10.2267 6.8128H10.3004C10.3349 6.8128 10.3629 6.78481 10.3629 6.7503C10.3629 6.71578 10.3349 6.6878 10.3004 6.6878H10.2216C10.218 6.59452 10.2159 6.5244 10.2159 6.48909V5.96209Z" fill="white"/>
<path fill-rule="evenodd" clip-rule="evenodd" d="M9.93958 6.87549H10.1412V7.14431H9.93958V6.87549Z" fill="black"/>
<path fill-rule="evenodd" clip-rule="evenodd" d="M9.87903 7.81299H10.215V8.43799H9.87903V7.81299Z" fill="black"/>
<path fill-rule="evenodd" clip-rule="evenodd" d="M11.4256 5.96209C11.4256 5.96209 11.8029 5.62935 11.6143 5.62935C11.5777 5.62935 11.5331 5.62221 11.4851 5.6145C11.2855 5.58248 11.0256 5.54078 11.0256 5.96209V6.6861L11.0255 6.6878H10.9698C10.9353 6.6878 10.9073 6.71578 10.9073 6.7503C10.9073 6.78481 10.9353 6.8128 10.9698 6.8128H11.0187C11.0103 6.96744 10.9955 7.24246 10.981 7.51733L10.9095 7.52358C10.8725 7.52682 10.8452 7.55941 10.8484 7.59639L10.853 7.64928C10.8563 7.68625 10.8889 7.7136 10.9258 7.71037L10.9711 7.70641C10.9543 8.02757 10.9401 8.30862 10.9401 8.34302C10.9401 8.42749 11.514 8.39478 11.514 8.39478C11.514 8.39478 11.4962 8.05598 11.4765 7.66219L11.515 7.65883C11.552 7.65559 11.5793 7.62299 11.5761 7.58602L11.5714 7.53313C11.5682 7.49616 11.5356 7.4688 11.4986 7.47204L11.4672 7.47479C11.4557 7.23895 11.4443 6.99947 11.4364 6.8128H11.5101C11.5446 6.8128 11.5726 6.78481 11.5726 6.7503C11.5726 6.71578 11.5446 6.6878 11.5101 6.6878H11.4313C11.4277 6.59452 11.4256 6.5244 11.4256 6.48909V5.96209Z" fill="white"/>
<path fill-rule="evenodd" clip-rule="evenodd" d="M11.1493 6.87549H11.3509V7.14431H11.1493V6.87549Z" fill="black"/>
<path fill-rule="evenodd" clip-rule="evenodd" d="M11.0887 7.81299H11.4248V8.43799H11.0887V7.81299Z" fill="black"/>
<path fill-rule="evenodd" clip-rule="evenodd" d="M11.5725 4H8.3669V4.47852L8.3454 4.48045C8.3454 4.48045 6.77483 5.7009 7.21071 7.52915C7.64659 9.35739 9.37794 10.7132 9.37794 10.7132L9.46522 10.3977C9.46522 10.3977 7.81546 8.15447 7.81546 7.2581C7.81546 6.36174 8.12672 5.52042 8.45628 5.38961C8.65451 5.31093 8.6887 5.32689 8.74271 5.35212C8.7785 5.36883 8.823 5.38961 8.92968 5.38961C9.19736 5.38961 9.46522 5.198 9.46522 5.198C9.46522 5.198 9.65146 5.38961 9.82446 5.38961C9.99745 5.38961 9.99987 5.198 9.99987 5.198V4.5625H10.0192V5.198C10.0192 5.198 10.0217 5.38961 10.1947 5.38961C10.3677 5.38961 10.5539 5.198 10.5539 5.198C10.5539 5.198 10.8218 5.38961 11.0894 5.38961C11.1961 5.38961 11.2406 5.36883 11.2764 5.35212C11.3304 5.32689 11.3646 5.31093 11.5628 5.38961C11.8924 5.52042 12.2037 6.36174 12.2037 7.2581C12.2037 8.15447 10.5539 10.3977 10.5539 10.3977L10.6412 10.7132C10.6412 10.7132 12.3725 9.35739 12.8084 7.52915C13.2443 5.7009 11.6737 4.48045 11.6737 4.48045L11.5725 4.4714V4Z" fill="#E8AA00"/>
<path d="M8.3669 4V3.6875H8.0544V4H8.3669ZM11.5725 4H11.885V3.6875H11.5725V4ZM8.3669 4.47852L8.39473 4.78978L8.6794 4.76433V4.47852H8.3669ZM8.3454 4.48045L8.31757 4.16919L8.22613 4.17736L8.15365 4.23369L8.3454 4.48045ZM7.21071 7.52915L7.51469 7.45667L7.21071 7.52915ZM9.37794 10.7132L9.18527 10.9592L9.55419 11.2481L9.67913 10.7965L9.37794 10.7132ZM9.46522 10.3977L9.76641 10.481L9.80687 10.3348L9.71697 10.2125L9.46522 10.3977ZM8.45628 5.38961L8.57157 5.68006L8.45628 5.38961ZM8.74271 5.35212L8.87494 5.06897L8.87494 5.06897L8.74271 5.35212ZM9.46522 5.198L9.68932 4.98019L9.502 4.78747L9.28341 4.94383L9.46522 5.198ZM9.99987 5.198L10.3124 5.20195V5.198H9.99987ZM9.99987 4.5625V4.25H9.68737V4.5625H9.99987ZM10.0192 4.5625H10.3317V4.25H10.0192V4.5625ZM10.0192 5.198H9.70672L9.70677 5.20195L10.0192 5.198ZM10.5539 5.198L10.7357 4.94383L10.5171 4.78747L10.3298 4.98019L10.5539 5.198ZM11.2764 5.35212L11.1442 5.06897L11.1442 5.06897L11.2764 5.35212ZM11.5628 5.38961L11.4475 5.68006L11.5628 5.38961ZM10.5539 10.3977L10.3022 10.2125L10.2123 10.3348L10.2527 10.481L10.5539 10.3977ZM10.6412 10.7132L10.34 10.7965L10.4649 11.2481L10.8339 10.9592L10.6412 10.7132ZM12.8084 7.52915L13.1124 7.60162L12.8084 7.52915ZM11.6737 4.48045L11.8655 4.23369L11.793 4.17736L11.7016 4.16919L11.6737 4.48045ZM11.5725 4.4714H11.26V4.75721L11.5447 4.78266L11.5725 4.4714ZM8.3669 4.3125H11.5725V3.6875H8.3669V4.3125ZM8.6794 4.47852V4H8.0544V4.47852H8.6794ZM8.37323 4.7917L8.39473 4.78978L8.33907 4.16727L8.31757 4.16919L8.37323 4.7917ZM7.51469 7.45667C7.32233 6.64983 7.56946 5.97426 7.87857 5.48647C8.03318 5.24247 8.20087 5.04991 8.32976 4.91868C8.39398 4.85329 8.44794 4.80377 8.48489 4.77133C8.50335 4.75513 8.51751 4.74325 8.52652 4.73583C8.53102 4.73212 8.53423 4.72954 8.53604 4.72809C8.53694 4.72737 8.53749 4.72693 8.53768 4.72678C8.53778 4.72671 8.53778 4.72671 8.53769 4.72678C8.53765 4.72681 8.53758 4.72686 8.53749 4.72693C8.53744 4.72697 8.53736 4.72704 8.53733 4.72705C8.53724 4.72713 8.53714 4.7272 8.3454 4.48045C8.15365 4.23369 8.15354 4.23378 8.15342 4.23387C8.15337 4.2339 8.15325 4.234 8.15316 4.23407C8.15297 4.23422 8.15276 4.23438 8.15253 4.23456C8.15206 4.23493 8.15149 4.23537 8.15083 4.23589C8.14952 4.23693 8.14782 4.23827 8.14577 4.23991C8.14166 4.2432 8.1361 4.24769 8.12921 4.25337C8.11542 4.26472 8.09626 4.28084 8.07263 4.30158C8.0254 4.34304 7.96006 4.40314 7.88385 4.48074C7.73188 4.63548 7.53417 4.86229 7.35063 5.15194C6.98342 5.73143 6.66322 6.58022 6.90673 7.60162L7.51469 7.45667ZM9.37794 10.7132C9.57061 10.4672 9.57067 10.4672 9.57072 10.4673C9.57073 10.4673 9.57077 10.4673 9.57079 10.4673C9.57082 10.4673 9.57083 10.4673 9.57081 10.4673C9.57077 10.4673 9.57063 10.4672 9.57039 10.467C9.5699 10.4666 9.56901 10.4659 9.56771 10.4649C9.56513 10.4628 9.56096 10.4595 9.5553 10.4549C9.54398 10.4457 9.52669 10.4315 9.50416 10.4125C9.4591 10.3745 9.39318 10.3174 9.31225 10.2429C9.15016 10.0937 8.92901 9.87584 8.69486 9.60318C8.22277 9.05342 7.71622 8.30197 7.51469 7.45667L6.90673 7.60162C7.14108 8.58457 7.71815 9.42514 8.2207 10.0104C8.47388 10.3052 8.7128 10.5406 8.88897 10.7027C8.97716 10.7839 9.04991 10.847 9.10123 10.8903C9.1269 10.9119 9.14723 10.9286 9.16148 10.9402C9.16861 10.946 9.17421 10.9505 9.17821 10.9537C9.18021 10.9552 9.1818 10.9565 9.18298 10.9574C9.18357 10.9579 9.18406 10.9583 9.18444 10.9586C9.18463 10.9587 9.1848 10.9589 9.18494 10.959C9.185 10.959 9.18509 10.9591 9.18512 10.9591C9.1852 10.9592 9.18527 10.9592 9.37794 10.7132ZM9.16404 10.3144L9.07675 10.6299L9.67913 10.7965L9.76641 10.481L9.16404 10.3144ZM7.50296 7.2581C7.50296 7.55566 7.63315 7.91777 7.78931 8.25737C7.95127 8.60959 8.16455 8.9858 8.37391 9.32735C8.58392 9.66996 8.79343 9.98325 8.95018 10.2106C9.02865 10.3244 9.09413 10.417 9.14013 10.4813C9.16314 10.5135 9.1813 10.5386 9.19379 10.5558C9.20003 10.5644 9.20486 10.5711 9.20818 10.5756C9.20984 10.5779 9.21111 10.5796 9.212 10.5808C9.21245 10.5814 9.21279 10.5819 9.21304 10.5822C9.21316 10.5824 9.21326 10.5825 9.21333 10.5826C9.21337 10.5827 9.21341 10.5827 9.21342 10.5828C9.21345 10.5828 9.21348 10.5828 9.46522 10.3977C9.71697 10.2125 9.71698 10.2126 9.71699 10.2126C9.71698 10.2126 9.71698 10.2126 9.71697 10.2125C9.71694 10.2125 9.71689 10.2124 9.71681 10.2123C9.71666 10.2121 9.71641 10.2118 9.71606 10.2113C9.71536 10.2103 9.71427 10.2089 9.71281 10.2069C9.70988 10.2028 9.70544 10.1968 9.69961 10.1887C9.68793 10.1726 9.67064 10.1487 9.64854 10.1178C9.60432 10.056 9.54091 9.9663 9.46472 9.85579C9.31213 9.6345 9.1092 9.33097 8.90677 9.00072C8.70369 8.66941 8.50453 8.31676 8.35716 7.99626C8.20398 7.66316 8.12796 7.40873 8.12796 7.2581H7.50296ZM8.34099 5.09915C8.17426 5.16533 8.04916 5.3017 7.95855 5.4352C7.8637 5.57494 7.78303 5.74653 7.71745 5.93319C7.58612 6.30699 7.50296 6.7766 7.50296 7.2581H8.12796C8.12796 6.84325 8.20043 6.44401 8.30711 6.14036C8.36054 5.98829 8.41948 5.869 8.47569 5.78619C8.53612 5.69715 8.57352 5.67929 8.57157 5.68006L8.34099 5.09915ZM8.87494 5.06897C8.83762 5.05154 8.75521 5.01187 8.63265 5.0201C8.54049 5.02629 8.44367 5.0584 8.34099 5.09915L8.57157 5.68006C8.61574 5.66253 8.64475 5.65271 8.66337 5.64736C8.68237 5.6419 8.68389 5.64307 8.67451 5.6437C8.66915 5.64406 8.66093 5.6442 8.6506 5.6432C8.64003 5.64218 8.62977 5.64021 8.62034 5.63763C8.61128 5.63514 8.60506 5.63264 8.60314 5.63185C8.60232 5.63151 8.60259 5.63158 8.61049 5.63527L8.87494 5.06897ZM8.92968 5.07711C8.9131 5.07711 8.90203 5.0763 8.89526 5.07554C8.88869 5.0748 8.88592 5.07409 8.8859 5.07408C8.88582 5.07406 8.88603 5.07412 8.88644 5.07425C8.88684 5.07438 8.88706 5.07447 8.88692 5.07442C8.88598 5.07404 8.88447 5.07342 8.87494 5.06897L8.61049 5.63527C8.63077 5.64474 8.67362 5.66515 8.73332 5.68017C8.79178 5.69489 8.85582 5.70211 8.92968 5.70211V5.07711ZM9.46522 5.198C9.28341 4.94383 9.28347 4.94379 9.28353 4.94375C9.28355 4.94374 9.2836 4.9437 9.28364 4.94367C9.28371 4.94362 9.28377 4.94358 9.28384 4.94353C9.28396 4.94344 9.28407 4.94336 9.28417 4.94329C9.28436 4.94316 9.28449 4.94307 9.28456 4.94302C9.2847 4.94292 9.28461 4.94299 9.28428 4.94321C9.28363 4.94366 9.28207 4.94473 9.27967 4.94634C9.27485 4.94956 9.26674 4.95485 9.25583 4.96153C9.23379 4.97505 9.20166 4.99345 9.1633 5.01175C9.08051 5.05123 8.99593 5.07711 8.92968 5.07711V5.70211C9.13111 5.70211 9.3143 5.63218 9.43237 5.57586C9.49443 5.54626 9.546 5.51675 9.58254 5.49434C9.60094 5.48307 9.61584 5.47339 9.62671 5.46613C9.63216 5.46249 9.63662 5.45945 9.64002 5.45709C9.64172 5.45591 9.64316 5.45491 9.64434 5.45408C9.64492 5.45367 9.64544 5.4533 9.64589 5.45298C9.64612 5.45282 9.64632 5.45268 9.64651 5.45254C9.64661 5.45247 9.6467 5.45241 9.64679 5.45234C9.64683 5.45231 9.64689 5.45227 9.64691 5.45225C9.64698 5.45221 9.64704 5.45217 9.46522 5.198ZM9.82446 5.07711C9.83707 5.07711 9.83615 5.08005 9.81876 5.07257C9.80253 5.0656 9.78212 5.05392 9.75961 5.0381C9.73773 5.02273 9.71857 5.00678 9.70491 4.99461C9.69825 4.98868 9.69334 4.98404 9.69055 4.98134C9.68916 4.98001 9.68833 4.97918 9.6881 4.97895C9.68799 4.97884 9.68803 4.97888 9.68823 4.97908C9.68833 4.97918 9.68847 4.97933 9.68865 4.97951C9.68874 4.9796 9.68884 4.97971 9.68895 4.97982C9.68901 4.97988 9.68906 4.97994 9.68913 4.98C9.68916 4.98003 9.6892 4.98008 9.68922 4.98009C9.68927 4.98014 9.68932 4.98019 9.46522 5.198C9.24113 5.41581 9.24118 5.41586 9.24124 5.41591C9.24125 5.41593 9.2413 5.41598 9.24134 5.41602C9.24141 5.41609 9.24149 5.41617 9.24157 5.41625C9.24172 5.41641 9.24189 5.41658 9.24207 5.41677C9.24243 5.41714 9.24284 5.41755 9.2433 5.41802C9.24421 5.41894 9.24532 5.42006 9.24661 5.42135C9.2492 5.42393 9.25254 5.42722 9.25658 5.43112C9.26465 5.43891 9.27564 5.44924 9.28915 5.46127C9.31581 5.48503 9.35402 5.51698 9.40032 5.54951C9.47988 5.6054 9.637 5.70211 9.82446 5.70211V5.07711ZM9.99987 5.198C9.6874 5.19405 9.6874 5.19391 9.6874 5.19377C9.6874 5.19373 9.68741 5.19359 9.68741 5.1935C9.68741 5.19332 9.68741 5.19315 9.68741 5.19297C9.68742 5.19262 9.68743 5.19228 9.68743 5.19195C9.68745 5.19128 9.68746 5.19065 9.68748 5.19005C9.68751 5.18885 9.68755 5.18777 9.68759 5.18681C9.68767 5.18489 9.68777 5.18337 9.68786 5.1822C9.68803 5.17995 9.68822 5.17857 9.68837 5.17763C9.68842 5.17729 9.68915 5.17179 9.69358 5.16225C9.69819 5.15232 9.71127 5.12872 9.74034 5.10745C9.77297 5.08358 9.80602 5.07711 9.82446 5.07711V5.70211C9.92939 5.70211 10.0276 5.67168 10.1094 5.61188C10.1875 5.55469 10.2337 5.48319 10.2605 5.42535C10.2872 5.36792 10.2993 5.31452 10.3052 5.27825C10.3083 5.25935 10.31 5.24299 10.311 5.23027C10.3115 5.22385 10.3118 5.21822 10.312 5.2135C10.3121 5.21113 10.3122 5.20898 10.3122 5.20705C10.3123 5.20609 10.3123 5.20518 10.3123 5.20433C10.3123 5.2039 10.3123 5.20349 10.3123 5.2031C10.3123 5.2029 10.3123 5.2027 10.3123 5.20251C10.3123 5.20242 10.3123 5.20228 10.3123 5.20223C10.3123 5.20209 10.3123 5.20195 9.99987 5.198ZM9.68737 4.5625V5.198H10.3124V4.5625H9.68737ZM10.0192 4.25H9.99987V4.875H10.0192V4.25ZM9.70675 4.5625V5.198H10.3317V4.5625H9.70675ZM10.0192 5.198C9.70677 5.20195 9.70677 5.20209 9.70678 5.20223C9.70678 5.20228 9.70678 5.20242 9.70678 5.20251C9.70678 5.2027 9.70679 5.2029 9.70679 5.2031C9.7068 5.20349 9.7068 5.2039 9.70681 5.20433C9.70683 5.20518 9.70685 5.20609 9.70688 5.20705C9.70693 5.20898 9.707 5.21113 9.7071 5.2135C9.7073 5.21822 9.70762 5.22385 9.70812 5.23027C9.7091 5.24299 9.71082 5.25935 9.71391 5.27825C9.71982 5.31452 9.73197 5.36792 9.75862 5.42535C9.78546 5.48319 9.83159 5.55469 9.90977 5.61188C9.99151 5.67168 10.0897 5.70211 10.1947 5.70211V5.07711C10.2131 5.07711 10.2462 5.08358 10.2788 5.10745C10.3079 5.12872 10.3209 5.15232 10.3255 5.16225C10.33 5.17179 10.3307 5.17729 10.3308 5.17763C10.3309 5.17857 10.3311 5.17995 10.3313 5.1822C10.3314 5.18337 10.3315 5.18489 10.3315 5.18681C10.3316 5.18777 10.3316 5.18885 10.3316 5.19005C10.3317 5.19065 10.3317 5.19128 10.3317 5.19195C10.3317 5.19228 10.3317 5.19262 10.3317 5.19297C10.3317 5.19315 10.3317 5.19332 10.3317 5.1935C10.3317 5.19359 10.3317 5.19373 10.3317 5.19377C10.3317 5.19391 10.3317 5.19405 10.0192 5.198ZM10.1947 5.70211C10.3821 5.70211 10.5392 5.6054 10.6188 5.54951C10.6651 5.51698 10.7033 5.48503 10.73 5.46127C10.7435 5.44924 10.7545 5.43891 10.7625 5.43112C10.7666 5.42722 10.7699 5.42393 10.7725 5.42135C10.7738 5.42006 10.7749 5.41894 10.7758 5.41802C10.7763 5.41755 10.7767 5.41714 10.7771 5.41677C10.7772 5.41658 10.7774 5.41641 10.7776 5.41625C10.7776 5.41617 10.7777 5.41609 10.7778 5.41602C10.7778 5.41598 10.7779 5.41593 10.7779 5.41591C10.7779 5.41586 10.778 5.41581 10.5539 5.198C10.3298 4.98019 10.3299 4.98014 10.3299 4.98009C10.3299 4.98008 10.33 4.98003 10.33 4.98C10.3301 4.97994 10.3301 4.97988 10.3302 4.97982C10.3303 4.97971 10.3304 4.9796 10.3305 4.97951C10.3307 4.97933 10.3308 4.97918 10.3309 4.97908C10.3311 4.97888 10.3311 4.97884 10.331 4.97895C10.3308 4.97918 10.33 4.98001 10.3286 4.98134C10.3258 4.98404 10.3209 4.98868 10.3142 4.99461C10.3006 5.00678 10.2814 5.02273 10.2595 5.0381C10.237 5.05392 10.2166 5.0656 10.2004 5.07257C10.183 5.08005 10.1821 5.07711 10.1947 5.07711V5.70211ZM10.5539 5.198C10.3721 5.45217 10.3721 5.45221 10.3722 5.45225C10.3722 5.45227 10.3723 5.45231 10.3723 5.45234C10.3724 5.45241 10.3725 5.45247 10.3726 5.45254C10.3728 5.45268 10.373 5.45282 10.3732 5.45298C10.3737 5.4533 10.3742 5.45367 10.3748 5.45408C10.376 5.45491 10.3774 5.45591 10.3791 5.45709C10.3825 5.45945 10.387 5.46249 10.3924 5.46613C10.4033 5.47339 10.4182 5.48307 10.4366 5.49434C10.4731 5.51675 10.5247 5.54626 10.5868 5.57586C10.7048 5.63218 10.888 5.70211 11.0894 5.70211V5.07711C11.0232 5.07711 10.9386 5.05123 10.8558 5.01175C10.8175 4.99345 10.7853 4.97505 10.7633 4.96153C10.7524 4.95485 10.7443 4.94956 10.7395 4.94634C10.7371 4.94473 10.7355 4.94366 10.7348 4.94321C10.7345 4.94299 10.7344 4.94292 10.7346 4.94302C10.7346 4.94307 10.7348 4.94316 10.735 4.94329C10.735 4.94336 10.7352 4.94344 10.7353 4.94353C10.7353 4.94358 10.7354 4.94362 10.7355 4.94367C10.7355 4.9437 10.7356 4.94374 10.7356 4.94375C10.7357 4.94379 10.7357 4.94383 10.5539 5.198ZM11.0894 5.70211C11.1633 5.70211 11.2273 5.69489 11.2858 5.68017C11.3455 5.66515 11.3883 5.64474 11.4086 5.63527L11.1442 5.06897C11.1346 5.07342 11.1331 5.07404 11.1322 5.07442C11.1321 5.07447 11.1323 5.07438 11.1327 5.07425C11.1331 5.07412 11.1333 5.07406 11.1332 5.07409C11.1332 5.07409 11.1304 5.0748 11.1239 5.07554C11.1171 5.0763 11.106 5.07711 11.0894 5.07711V5.70211ZM11.4086 5.63527C11.4165 5.63158 11.4168 5.63151 11.416 5.63185C11.4141 5.63264 11.4078 5.63514 11.3988 5.63763C11.3894 5.64021 11.3791 5.64218 11.3685 5.6432C11.3582 5.6442 11.35 5.64406 11.3446 5.6437C11.3352 5.64307 11.3368 5.6419 11.3558 5.64736C11.3744 5.65271 11.4034 5.66253 11.4475 5.68006L11.6781 5.09915C11.5755 5.0584 11.4786 5.02629 11.3865 5.0201C11.2639 5.01187 11.1815 5.05154 11.1442 5.06897L11.4086 5.63527ZM11.4475 5.68006C11.4456 5.67929 11.483 5.69715 11.5434 5.78619C11.5996 5.869 11.6586 5.98829 11.712 6.14036C11.8187 6.44401 11.8912 6.84325 11.8912 7.2581H12.5162C12.5162 6.7766 12.433 6.30699 12.3017 5.93319C12.2361 5.74653 12.1554 5.57494 12.0606 5.4352C11.97 5.3017 11.8449 5.16533 11.6781 5.09915L11.4475 5.68006ZM11.8912 7.2581C11.8912 7.40873 11.8151 7.66316 11.662 7.99626C11.5146 8.31676 11.3154 8.66941 11.1124 9.00072C10.9099 9.33097 10.707 9.6345 10.5544 9.85579C10.4782 9.9663 10.4148 10.056 10.3706 10.1178C10.3485 10.1487 10.3312 10.1726 10.3195 10.1887C10.3137 10.1968 10.3092 10.2028 10.3063 10.2069C10.3049 10.2089 10.3038 10.2103 10.3031 10.2113C10.3027 10.2118 10.3025 10.2121 10.3023 10.2123C10.3022 10.2124 10.3022 10.2125 10.3022 10.2125C10.3021 10.2126 10.3021 10.2126 10.3021 10.2126C10.3021 10.2126 10.3022 10.2125 10.5539 10.3977C10.8056 10.5828 10.8057 10.5828 10.8057 10.5828C10.8057 10.5827 10.8058 10.5827 10.8058 10.5826C10.8059 10.5825 10.806 10.5824 10.8061 10.5822C10.8063 10.5819 10.8067 10.5814 10.8071 10.5808C10.808 10.5796 10.8093 10.5779 10.8109 10.5756C10.8143 10.5711 10.8191 10.5644 10.8253 10.5558C10.8378 10.5386 10.856 10.5135 10.879 10.4813C10.925 10.417 10.9905 10.3244 11.0689 10.2106C11.2257 9.98325 11.4352 9.66996 11.6452 9.32735C11.8546 8.9858 12.0679 8.60959 12.2298 8.25737C12.386 7.91777 12.5162 7.55566 12.5162 7.2581H11.8912ZM10.2527 10.481L10.34 10.7965L10.9424 10.6299L10.8551 10.3144L10.2527 10.481ZM10.6412 10.7132C10.8339 10.9592 10.8339 10.9592 10.834 10.9591C10.834 10.9591 10.8341 10.959 10.8342 10.959C10.8343 10.9589 10.8345 10.9587 10.8347 10.9586C10.8351 10.9583 10.8356 10.9579 10.8361 10.9574C10.8373 10.9565 10.8389 10.9552 10.8409 10.9537C10.8449 10.9505 10.8505 10.946 10.8576 10.9402C10.8719 10.9286 10.8922 10.9119 10.9179 10.8903C10.9692 10.847 11.042 10.7839 11.1302 10.7027C11.3063 10.5406 11.5452 10.3052 11.7984 10.0104C12.301 9.42514 12.878 8.58457 13.1124 7.60162L12.5044 7.45667C12.3029 8.30197 11.7964 9.05342 11.3243 9.60318C11.0901 9.87584 10.869 10.0937 10.7069 10.2429C10.6259 10.3174 10.56 10.3745 10.515 10.4125C10.4924 10.4315 10.4751 10.4457 10.4638 10.4549C10.4582 10.4595 10.454 10.4628 10.4514 10.4649C10.4501 10.4659 10.4492 10.4666 10.4487 10.467C10.4485 10.4672 10.4484 10.4673 10.4483 10.4673C10.4483 10.4673 10.4483 10.4673 10.4483 10.4673C10.4483 10.4673 10.4484 10.4673 10.4484 10.4673C10.4485 10.4672 10.4485 10.4672 10.6412 10.7132ZM13.1124 7.60162C13.3559 6.58022 13.0357 5.73143 12.6685 5.15194C12.4849 4.86229 12.2872 4.63548 12.1353 4.48074C12.0591 4.40314 11.9937 4.34304 11.9465 4.30158C11.9229 4.28084 11.9037 4.26472 11.8899 4.25337C11.883 4.24769 11.8775 4.2432 11.8734 4.23991C11.8713 4.23827 11.8696 4.23693 11.8683 4.23589C11.8676 4.23537 11.8671 4.23493 11.8666 4.23456C11.8664 4.23438 11.8662 4.23422 11.866 4.23407C11.8659 4.234 11.8657 4.2339 11.8657 4.23387C11.8656 4.23378 11.8655 4.23369 11.6737 4.48045C11.482 4.7272 11.4819 4.72713 11.4818 4.72705C11.4818 4.72704 11.4817 4.72697 11.4816 4.72693C11.4815 4.72686 11.4815 4.72681 11.4814 4.72678C11.4813 4.72671 11.4813 4.72671 11.4814 4.72678C11.4816 4.72693 11.4822 4.72737 11.4831 4.72809C11.4849 4.72954 11.4881 4.73212 11.4926 4.73583C11.5016 4.74325 11.5158 4.75513 11.5342 4.77133C11.5712 4.80377 11.6251 4.85329 11.6894 4.91868C11.8182 5.04991 11.9859 5.24247 12.1406 5.48647C12.4497 5.97426 12.6968 6.64983 12.5044 7.45667L13.1124 7.60162ZM11.7016 4.16919L11.6004 4.16014L11.5447 4.78266L11.6459 4.7917L11.7016 4.16919ZM11.26 4V4.4714H11.885V4H11.26Z" fill="#FFD018"/>
<path fill-rule="evenodd" clip-rule="evenodd" d="M8.1897 8.61555C8.1897 8.61555 8.38625 8.08779 8.72996 8.26371C9.07368 8.43963 9.04366 9.05206 9.35638 8.8338C9.6691 8.61555 9.49181 8.26371 9.95522 8.26371C10.4186 8.26371 10.3504 8.8338 10.6283 8.8338C10.9062 8.8338 10.9302 8.26371 11.2409 8.26371C11.5516 8.26371 11.8666 8.61555 11.8666 8.61555L10.0282 11.1171L8.1897 8.61555Z" fill="#8FC753"/>
<path fill-rule="evenodd" clip-rule="evenodd" d="M4.95555 11.5359L4.75782 11.2695C4.75782 11.2695 5.57785 11.2695 5.68911 11.4623C5.72046 11.5167 5.73414 11.5582 5.74456 11.5898C5.77109 11.6703 5.77641 11.6864 5.99885 11.6864C6.30859 11.6864 5.99885 11.3791 5.86988 11.2695C5.7409 11.1599 5.81944 10.9688 5.99885 10.9688C6.06799 10.9688 6.18833 10.953 6.33627 10.9335C6.57219 10.9024 6.87827 10.8621 7.15871 10.8621C7.615 10.8621 7.23673 11.2695 7.23673 11.2695C7.23673 11.2695 7.8275 11.2695 7.68085 11.0999C7.53421 10.9304 8.17329 10.7241 8.44942 10.7241C8.70685 10.7241 9.86569 10.7819 10.0216 10.7897C10.1846 10.7819 11.396 10.7241 11.6534 10.7241C11.9295 10.7241 12.5686 10.9304 12.422 11.0999C12.2753 11.2695 12.8661 11.2695 12.8661 11.2695C12.8661 11.2695 12.4878 10.8621 12.9441 10.8621C13.2246 10.8621 13.5306 10.9024 13.7666 10.9335C13.9145 10.953 14.0348 10.9688 14.104 10.9688C14.2834 10.9688 14.3619 11.1599 14.2329 11.2695C14.104 11.3791 13.7942 11.6864 14.104 11.6864C14.3264 11.6864 14.3317 11.6703 14.3583 11.5898C14.3687 11.5582 14.3824 11.5167 14.4137 11.4623C14.521 11.2763 15.2878 11.2697 15.342 11.2695C15.3296 11.2469 15.3226 11.2207 15.3226 11.1929C15.3226 11.1066 15.3903 11.0366 15.4738 11.0366C15.5573 11.0366 15.625 11.1066 15.625 11.1929C15.625 11.2792 15.5573 11.3491 15.4738 11.3491C15.4182 11.3491 15.3695 11.3181 15.3433 11.2718L15.1473 11.5359L15.3514 11.7886C15.3789 11.7495 15.4235 11.7241 15.4738 11.7241C15.5573 11.7241 15.625 11.7941 15.625 11.8804C15.625 11.9667 15.5573 12.0366 15.4738 12.0366C15.3903 12.0366 15.3226 11.9667 15.3226 11.8804C15.3226 11.8625 15.3255 11.8454 15.3308 11.8294C15.2152 11.7733 15.0154 11.6864 14.8858 11.6864H14.525C14.6157 11.6864 15.1155 12.0161 14.9642 12.159L14.9385 12.1833C14.7901 12.3245 14.5964 12.5086 14.4137 12.4082C14.2203 12.3019 14.104 12.159 14.104 12.159L13.9524 11.6864C13.9524 11.6864 13.0592 11.4559 13.0592 11.6154C13.0592 11.775 13.0567 11.8532 12.7399 11.8532C12.5627 11.8532 12.3914 11.8231 12.2406 11.7966C12.1219 11.7758 12.0159 11.7572 11.9295 11.7572C11.806 11.7572 11.6151 11.7953 11.4739 11.8235C11.391 11.8401 11.3252 11.8532 11.3001 11.8532C11.2325 11.8532 10.8708 11.8369 11.1187 11.6864C11.3666 11.5359 11.4237 11.3791 11.4237 11.3791C11.4237 11.3791 10.4315 11.5264 10.0389 11.5355V11.5359L10.0212 11.5358L10.0034 11.5359V11.5355C9.61421 11.5264 8.67912 11.3791 8.67912 11.3791C8.67912 11.3791 8.73623 11.5359 8.98412 11.6864C9.232 11.8369 8.87033 11.8532 8.80269 11.8532C8.77766 11.8532 8.71184 11.8401 8.6289 11.8235C8.48767 11.7953 8.29683 11.7572 8.17329 11.7572C8.08694 11.7572 7.98092 11.7758 7.86224 11.7966C7.71141 11.8231 7.54015 11.8532 7.36289 11.8532C7.04614 11.8532 7.0436 11.775 7.0436 11.6154C7.0436 11.4559 6.15038 11.6864 6.15038 11.6864L5.99885 12.159C5.99885 12.159 5.88252 12.3019 5.68911 12.4082C5.50641 12.5086 5.31276 12.3245 5.16429 12.1833L5.13866 12.159C4.9873 12.0161 5.48709 11.6864 5.57785 11.6864H5.21698C5.02549 11.6864 4.68083 11.8761 4.68083 11.8761L4.95555 11.5359ZM4.52621 11.3491C4.60972 11.3491 4.67742 11.2792 4.67742 11.1929C4.67742 11.1066 4.60972 11.0366 4.52621 11.0366C4.4427 11.0366 4.375 11.1066 4.375 11.1929C4.375 11.2792 4.4427 11.3491 4.52621 11.3491ZM4.52621 12.0366C4.60972 12.0366 4.67742 11.9667 4.67742 11.8804C4.67742 11.7941 4.60972 11.7241 4.52621 11.7241C4.4427 11.7241 4.375 11.7941 4.375 11.8804C4.375 11.9667 4.4427 12.0366 4.52621 12.0366Z" fill="white"/>
<path fill-rule="evenodd" clip-rule="evenodd" d="M9.93399 1.26855H10.059V1.40253H10.2125V1.52753H10.059V1.75506C10.2314 1.78418 10.3629 1.93878 10.3629 2.12513C10.3629 2.33224 10.2004 2.50013 9.99999 2.50013C9.79956 2.50013 9.63708 2.33224 9.63708 2.12513C9.63708 1.94131 9.76507 1.78839 9.93399 1.75632V1.52753H9.79289V1.40253H9.93399V1.26855Z" fill="#FFD018"/>
<path fill-rule="evenodd" clip-rule="evenodd" d="M8.59179 3.26649C8.41682 3.26649 8.04785 3.4536 8.04785 3.4536L8.33474 4.08982L10.0652 4.0249L11.7956 4.08982L12.0825 3.4536C12.0825 3.4536 11.7135 3.26649 11.5385 3.26649C11.4617 3.26649 11.4519 3.22128 11.441 3.17057C11.427 3.10579 11.4111 3.03204 11.251 3.03204C11.1377 3.03204 11.0577 3.05083 10.9929 3.06605C10.8944 3.08918 10.8311 3.10404 10.7399 3.03204C10.7361 3.02903 10.7322 3.02603 10.7284 3.02301C10.5807 2.90634 10.4273 2.78516 10.1791 2.78516C10.1296 2.78516 10.0926 2.83197 10.0652 2.90739C10.0377 2.83197 10.0007 2.78516 9.95117 2.78516C9.70299 2.78516 9.54958 2.90634 9.40187 3.02301C9.39806 3.02603 9.39425 3.02903 9.39044 3.03204C9.2992 3.10404 9.23592 3.08918 9.13742 3.06605C9.07262 3.05083 8.99258 3.03204 8.87931 3.03204C8.7192 3.03204 8.70329 3.10579 8.68932 3.17057C8.67838 3.22128 8.66862 3.26649 8.59179 3.26649Z" fill="#E31D1C"/>
<path fill-rule="evenodd" clip-rule="evenodd" d="M9.75497 2.23047L9.63351 2.27261C9.31254 2.38396 9.03458 2.42068 8.79979 2.3845C8.3164 2.31 7.68566 2.56152 7.76469 2.92984C7.79933 3.09125 7.90042 3.39611 8.00555 3.65448C8.15144 4.013 8.25354 4.19384 8.37297 4.19384C8.38843 4.19384 8.55061 4.2027 8.60464 4.20565C8.61436 4.20618 8.62058 4.20652 8.62182 4.20658C8.79748 4.21547 8.95231 4.22018 9.10125 4.21948C9.53194 4.21747 9.7989 4.17518 9.89425 4.04597L9.9223 4.00794L9.90899 3.96214C9.79589 3.57322 9.74353 3.03968 9.7531 2.36285L9.75497 2.23047ZM7.94184 2.88925C7.90309 2.70865 8.39645 2.51191 8.77303 2.56995C9.00762 2.6061 9.27343 2.57889 9.57058 2.48949C9.569 3.09109 9.61807 3.57977 9.71859 3.95645C9.63247 4.00151 9.40617 4.03055 9.10043 4.03198C8.95525 4.03266 8.8034 4.02805 8.6307 4.01931C8.63224 4.01938 8.4528 4.00944 8.39135 4.00692C8.38931 4.00484 8.38691 4.00224 8.38423 3.99912C8.36803 3.98024 8.34778 3.94973 8.32497 3.90932C8.28 3.82967 8.22748 3.71614 8.17282 3.58181C8.07156 3.33294 7.97377 3.03807 7.94184 2.88925Z" fill="#FFD018"/>
<path fill-rule="evenodd" clip-rule="evenodd" d="M10.2842 2.23047L10.4057 2.27261C10.7266 2.38396 11.0046 2.42068 11.2394 2.3845C11.7228 2.31 12.3535 2.56152 12.2745 2.92984C12.2399 3.09125 12.1388 3.39611 12.0336 3.65448C11.8877 4.013 11.7856 4.19384 11.6662 4.19384C11.6508 4.19384 11.4886 4.2027 11.4345 4.20565C11.4248 4.20618 11.4186 4.20652 11.4174 4.20658C11.2417 4.21547 11.0869 4.22018 10.9379 4.21948C10.5072 4.21747 10.2403 4.17518 10.1449 4.04597L10.1169 4.00794L10.1302 3.96214C10.2433 3.57322 10.2957 3.03968 10.2861 2.36285L10.2842 2.23047ZM12.0973 2.88925C12.1361 2.70865 11.6427 2.51191 11.2662 2.56995C11.0316 2.6061 10.7658 2.57889 10.4686 2.48949C10.4702 3.09109 10.4211 3.57977 10.3206 3.95645C10.4067 4.00151 10.633 4.03055 10.9388 4.03198C11.0839 4.03266 11.2358 4.02805 11.4085 4.01931C11.4069 4.01938 11.5864 4.00944 11.6478 4.00692C11.6499 4.00484 11.6523 4.00224 11.655 3.99912C11.6712 3.98024 11.6914 3.94973 11.7142 3.90932C11.7592 3.82967 11.8117 3.71614 11.8664 3.58181C11.9676 3.33294 12.0654 3.03807 12.0973 2.88925Z" fill="#FFD018"/>
<path fill-rule="evenodd" clip-rule="evenodd" d="M11.947 4.04447C11.9468 4.00978 11.9668 3.94714 12.0105 3.8308C12.0707 3.67053 12.1118 3.62196 12.1993 3.56852C12.2436 3.54148 12.2609 3.51804 12.2817 3.43734C12.2984 3.37278 12.3153 3.3224 12.3347 3.27597C12.3387 3.26654 12.3471 3.2478 12.3552 3.22974L12.3552 3.22973L12.3552 3.22965C12.3636 3.21107 12.3716 3.19323 12.3741 3.18701C12.3876 3.15304 12.3932 3.12284 12.3932 3.07387C12.3932 3.01804 12.3786 2.97332 12.34 2.89201C12.317 2.84344 12.314 2.83699 12.3058 2.81651C12.2892 2.77496 12.2807 2.73903 12.2807 2.70234V2.46162C12.2807 2.32106 12.2751 2.3125 12.2061 2.32182C12.1992 2.32276 12.1925 2.32383 12.1855 2.3251C12.1881 2.32463 12.1523 2.33159 12.1438 2.3326C12.1274 2.33454 12.1139 2.33322 12.1003 2.32707C12.0755 2.31589 12.0573 2.29397 12.0138 2.22884C11.9933 2.19816 11.9712 2.20117 11.8929 2.23935C11.8817 2.24477 11.8751 2.24792 11.868 2.25121C11.7878 2.28802 11.7322 2.28909 11.6848 2.23126C11.6121 2.1424 11.564 2.14807 11.4758 2.23384C11.4322 2.2762 11.4102 2.29224 11.3823 2.29633L11.38 2.29668C11.3507 2.30103 11.3489 2.3013 11.2661 2.25057C11.2604 2.26231 11.2481 2.26684 11.2283 2.27147C11.2018 2.27766 11.1623 2.27976 11.1359 2.27563C11.1139 2.27219 11.0983 2.2654 11.088 2.24395C11.053 2.24289 11.0117 2.24233 10.9638 2.24233V2.17983C11.0251 2.17983 11.0762 2.18074 11.1174 2.18247L11.129 2.17241C11.1517 2.15243 11.1869 2.1214 11.2036 2.12632C11.2058 2.12698 11.2124 2.13284 11.2215 2.1409L11.2215 2.14091L11.2215 2.14091C11.2354 2.15324 11.2552 2.17075 11.274 2.18274L11.2764 2.18421C11.3585 2.23461 11.3617 2.23624 11.3738 2.23446C11.3847 2.23287 11.4001 2.22157 11.4343 2.18832C11.5451 2.08064 11.6323 2.07036 11.731 2.1909C11.756 2.22146 11.785 2.22091 11.8434 2.1941C11.8501 2.19104 11.8563 2.18805 11.8671 2.18281C11.9717 2.13185 12.0182 2.12551 12.0636 2.19332C12.0995 2.24707 12.1147 2.26536 12.1245 2.2698L12.1266 2.27092C12.1288 2.27191 12.1316 2.27139 12.1587 2.26649L12.1751 2.26353C12.1829 2.26211 12.1905 2.26091 12.1983 2.25985C12.3126 2.24442 12.3412 2.28849 12.3412 2.46162V2.70234C12.3412 2.72971 12.3479 2.75805 12.3617 2.79267C12.3692 2.81134 12.3721 2.81753 12.3943 2.86452C12.4367 2.95389 12.4536 3.00579 12.4536 3.07387C12.4536 3.13086 12.4466 3.16913 12.43 3.21075C12.427 3.21837 12.4179 3.23864 12.409 3.2585L12.409 3.25854C12.4012 3.27572 12.3937 3.2926 12.3903 3.30074C12.372 3.34437 12.3561 3.39186 12.3402 3.45346C12.3152 3.55004 12.2879 3.58698 12.2301 3.62233C12.154 3.66879 12.122 3.70654 12.0669 3.85341C12.0382 3.92971 12.0204 3.98325 12.0119 4.01674C12.0102 4.02366 12.0089 4.02946 12.008 4.03413C12.0168 4.04115 12.0157 4.04612 12.0128 4.05997L12.0128 4.05998C12.0108 4.06472 12.0101 4.06618 12.0093 4.0675L12.0079 4.06945C12.0044 4.07368 12.0044 4.07368 12.0002 4.07716C11.9985 4.07846 11.9967 4.07964 11.9948 4.08065C11.9959 4.08048 11.9968 4.08011 11.9979 4.07935C11.9943 4.0836 11.9894 4.08966 11.9833 4.09761C11.9241 4.17506 11.8495 4.17506 11.7782 4.10015L11.8213 4.05631C11.8682 4.10549 11.9002 4.10549 11.9359 4.05885L11.947 4.04447ZM8.02288 4.04447C8.02308 4.00978 8.00307 3.94714 7.95939 3.8308C7.89921 3.67053 7.85806 3.62196 7.77058 3.56852C7.7263 3.54148 7.70901 3.51804 7.68815 3.43734C7.67147 3.37278 7.65453 3.3224 7.63514 3.27597C7.63119 3.26653 7.62276 3.24774 7.61463 3.22965L7.61463 3.22964L7.61462 3.22963L7.61462 3.22963L7.61462 3.22962C7.60628 3.21105 7.59828 3.19323 7.59581 3.18701C7.58231 3.15304 7.57672 3.12284 7.57672 3.07387C7.57672 3.01804 7.59133 2.97332 7.62987 2.89201C7.65288 2.84344 7.65586 2.83699 7.66404 2.81651C7.68064 2.77496 7.68918 2.73903 7.68918 2.70234V2.46162C7.68918 2.32106 7.69474 2.3125 7.76375 2.32182C7.77067 2.32276 7.77737 2.32383 7.78441 2.3251C7.78182 2.32463 7.81758 2.33159 7.82605 2.3326C7.84247 2.33454 7.85597 2.33322 7.8696 2.32707C7.89437 2.31589 7.91254 2.29397 7.95608 2.22884C7.97659 2.19816 7.99866 2.20117 8.07703 2.23935C8.08817 2.24477 8.09473 2.24792 8.10191 2.25121C8.18208 2.28802 8.23772 2.28909 8.28506 2.23126C8.35781 2.1424 8.40587 2.14807 8.49408 2.23384C8.53765 2.2762 8.55965 2.29224 8.58753 2.29633L8.58986 2.29668C8.61922 2.30103 8.62102 2.3013 8.70381 2.25057C8.70945 2.26231 8.72173 2.26684 8.74159 2.27147C8.76811 2.27766 8.80753 2.27976 8.83396 2.27563C8.85595 2.27219 8.87154 2.2654 8.88184 2.24395C8.91683 2.24289 8.95822 2.24233 9.00606 2.24233V2.17983C8.94477 2.17983 8.8937 2.18074 8.85248 2.18247L8.8409 2.17241C8.81821 2.15243 8.78297 2.1214 8.76628 2.12632C8.76405 2.12698 8.75744 2.13284 8.74835 2.1409L8.74835 2.1409L8.74835 2.1409L8.74835 2.14091L8.74835 2.14091C8.73385 2.15376 8.71304 2.17222 8.6935 2.18421C8.61137 2.23461 8.60822 2.23624 8.59605 2.23446C8.58522 2.23287 8.56973 2.22157 8.53553 2.18832C8.42478 2.08064 8.33757 2.07036 8.23889 2.1909C8.21386 2.22146 8.18485 2.22091 8.12647 2.1941C8.11982 2.19104 8.11357 2.18805 8.10282 2.18281C7.99821 2.13185 7.95164 2.12551 7.90631 2.19332C7.87039 2.24707 7.85522 2.26536 7.8454 2.2698L7.84326 2.27092C7.84111 2.27191 7.83826 2.27139 7.81118 2.26649L7.79479 2.26353C7.78694 2.26211 7.77941 2.26091 7.77159 2.25985C7.65732 2.24442 7.62869 2.28849 7.62869 2.46162V2.70234C7.62869 2.72971 7.62196 2.75805 7.60813 2.79267C7.60067 2.81134 7.59782 2.81753 7.57555 2.86452C7.53319 2.95389 7.51624 3.00579 7.51624 3.07387C7.51624 3.13086 7.52332 3.16913 7.53986 3.21075C7.54288 3.21837 7.55198 3.23863 7.5609 3.2585L7.5609 3.2585C7.56862 3.27569 7.5762 3.29259 7.57961 3.30074C7.59783 3.34437 7.6138 3.39186 7.62972 3.45346C7.65467 3.55004 7.68193 3.58698 7.73981 3.62233C7.81587 3.66879 7.84785 3.70654 7.903 3.85341C7.93165 3.92971 7.94943 3.98325 7.95794 4.01674C7.9597 4.02366 7.96099 4.02946 7.96186 4.03413C7.9531 4.04115 7.95414 4.04612 7.95704 4.05997C7.95911 4.06472 7.95974 4.06618 7.96059 4.0675L7.96198 4.06945L7.96198 4.06945C7.96546 4.07368 7.96546 4.07368 7.96964 4.07716C7.97137 4.07846 7.97319 4.07964 7.97509 4.08065C7.97398 4.08048 7.97306 4.08011 7.97196 4.07935C7.9756 4.0836 7.98046 4.08966 7.98655 4.09761C8.04581 4.17506 8.12033 4.17506 8.19167 4.10015L8.14856 4.05631C8.10172 4.10549 8.06968 4.10549 8.03399 4.05885L8.02288 4.04447ZM8.7493 2.20907L8.74813 2.20851L8.74862 2.20873L8.7493 2.20907Z" fill="#5E5E5E"/>
<path d="M8.60876 11.1783L8.64673 10.8682C9.31834 10.9504 9.76677 10.9915 9.99272 10.9916C10.3335 11.007 10.7396 10.9823 11.2105 10.9172L11.2532 11.2268C10.7648 11.2943 10.3401 11.3201 9.9857 11.304C9.74983 11.304 9.29297 11.2621 8.60876 11.1783Z" fill="#272727"/>
</g>
</g>
<rect x="0.5" y="0.5" width="19" height="14" rx="0.5" stroke="black" stroke-opacity="0.1"/>
<defs>
<clipPath id="clip0_85465_15872">
<rect width="20" height="15" rx="1" fill="white"/>
</clipPath>
</defs>
</svg>
