<svg width="20" height="15" viewBox="0 0 20 15" fill="none" xmlns="http://www.w3.org/2000/svg">
<g clip-path="url(#clip0_85465_16011)">
<rect width="20" height="15" rx="1" fill="white"/>
<path fill-rule="evenodd" clip-rule="evenodd" d="M0 0V15H20V0H0Z" fill="#E31D1C"/>
<mask id="mask0_85465_16011" style="mask-type:luminance" maskUnits="userSpaceOnUse" x="0" y="0" width="20" height="15">
<path fill-rule="evenodd" clip-rule="evenodd" d="M0 0V15H20V0H0Z" fill="white"/>
</mask>
<g mask="url(#mask0_85465_16011)">
<path fill-rule="evenodd" clip-rule="evenodd" d="M0 7.5V15H20V7.5H0Z" fill="#2E42A5"/>
</g>
<path fill-rule="evenodd" clip-rule="evenodd" d="M0 -1.25V16.25L12.5 7.5L0 -1.25Z" fill="#F7FCFF"/>
<mask id="mask1_85465_16011" style="mask-type:luminance" maskUnits="userSpaceOnUse" x="0" y="-2" width="13" height="19">
<path fill-rule="evenodd" clip-rule="evenodd" d="M0 -1.25V16.25L12.5 7.5L0 -1.25Z" fill="white"/>
</mask>
<g mask="url(#mask1_85465_16011)">
<path fill-rule="evenodd" clip-rule="evenodd" d="M5.07851 5.74301C5.97646 5.74301 6.70439 5.29686 6.70439 4.7465C6.70439 4.19615 5.97646 3.75 5.07851 3.75C4.18057 3.75 3.45264 4.19615 3.45264 4.7465C3.45264 5.29686 4.18057 5.74301 5.07851 5.74301Z" fill="#FBCD17"/>
<path fill-rule="evenodd" clip-rule="evenodd" d="M5.22084 3.99072C5.08811 3.99072 4.9938 4.07623 4.9938 4.20494L4.99392 4.21914C4.98679 4.24058 4.98278 4.26449 4.98206 4.29125C4.98022 4.35972 5.00572 4.41684 5.05924 4.46923C5.06253 4.48435 5.06424 4.49688 5.06376 4.50399C5.06051 4.49282 5.04759 4.48346 5.02299 4.46562C4.98802 4.44027 4.92944 4.3978 4.84148 4.3087C4.71478 4.18037 4.61917 4.13014 4.50032 4.1501C4.46428 4.15615 4.42901 4.16884 4.38666 4.1858C4.31915 4.21012 4.257 4.21576 4.14224 4.19386C3.82337 4.13299 3.47361 4.19271 3.09497 4.36817L3.22636 4.65171C3.54951 4.50196 3.83461 4.45328 4.08365 4.50082C4.25473 4.53347 4.37352 4.52268 4.49254 4.47982C4.54383 4.46053 4.54831 4.45891 4.55207 4.45828C4.5483 4.45892 4.55072 4.46124 4.56657 4.47647C4.57724 4.48673 4.59401 4.50285 4.61909 4.52825C4.65481 4.56443 4.69215 4.59718 4.73028 4.62697C4.65698 4.64667 4.66078 4.66019 4.67423 4.70816C4.67971 4.72771 4.6868 4.75298 4.69092 4.78671C4.70004 4.86119 4.6849 4.89961 4.69796 4.918C4.71253 4.93853 4.7622 4.93413 4.9198 4.9271C4.96222 4.92521 5.0196 4.92083 5.0858 4.91457C5.21562 4.90229 5.36256 4.8844 5.45284 4.8696C5.54054 4.85522 5.56385 4.84998 5.60063 4.82321C5.61335 4.80761 5.62424 4.79426 5.63326 4.78238C5.93315 4.73832 6.19981 4.70702 6.43711 4.68542C6.52219 4.67768 6.59056 4.67237 6.65677 4.66751C6.65809 4.6675 6.65918 4.66749 6.66027 4.66744C6.66568 4.66721 6.67105 4.66609 6.70307 4.65939C6.71989 4.65224 6.72684 4.64929 6.72919 4.6483L6.72917 4.64836C6.72976 4.6481 6.73022 4.64789 6.73022 4.64788C6.73021 4.64788 6.72992 4.64799 6.72919 4.6483L6.80579 4.46687L6.72666 4.37118C6.67365 4.35452 6.67365 4.35452 6.66698 4.35445L6.66698 4.35445C6.65726 4.35388 6.65726 4.35388 6.6517 4.35379C6.62662 4.35363 6.62662 4.35363 6.58003 4.35369C6.52812 4.35369 6.48711 4.3493 6.42788 4.33877L6.37279 4.32864C6.12916 4.28394 5.90319 4.28394 5.42395 4.3554L5.39717 4.33494C5.47435 4.32152 5.56835 4.31242 5.66768 4.30712C5.72773 4.30433 5.72773 4.30433 5.76126 4.30343L5.77592 4.30309L5.77409 3.99074L5.75039 3.99072H5.22084ZM4.96198 4.89543L4.99186 4.88922L5.0213 4.88294C5.0159 4.88408 5.00993 4.88533 5.00332 4.88671C4.9916 4.88915 4.97791 4.89201 4.96198 4.89543Z" fill="#DA610A"/>
<path d="M4.95307 5.36273L5.00363 5.37102L5.05419 5.36273C5.67483 5.26097 6.0835 5.27285 6.32029 5.35228C6.59306 5.44377 6.89459 5.41787 7.21166 5.31109C7.11102 5.7597 7.0595 6.18369 7.0595 6.58217C7.0595 7.03644 7.14737 7.4034 7.22711 7.72536C7.22925 7.734 7.23138 7.7426 7.2335 7.75116C7.31164 8.06643 7.37639 8.3277 7.37639 8.62753C7.37639 8.89666 7.28713 9.03803 7.16236 9.12636C7.01789 9.22864 6.77696 9.2938 6.41967 9.2938C5.91591 9.2938 5.44464 9.42947 5.0107 9.6949L5.00363 9.68982L4.99655 9.6949C4.56262 9.42947 4.09135 9.2938 3.58759 9.2938C3.23029 9.2938 2.98936 9.22864 2.84489 9.12636C2.72013 9.03803 2.63086 8.89666 2.63086 8.62753C2.63086 8.3277 2.69561 8.06643 2.77375 7.75116C2.77587 7.7426 2.778 7.734 2.78014 7.72536C2.85988 7.4034 2.94776 7.03644 2.94776 6.58217C2.94776 6.18369 2.89623 5.7597 2.79559 5.31109C3.11267 5.41787 3.41419 5.44377 3.68696 5.35228C3.92375 5.27285 4.33243 5.26097 4.95307 5.36273Z" fill="#56C6F5" stroke="#E31D1C" stroke-width="0.625"/>
<path fill-rule="evenodd" clip-rule="evenodd" d="M5.49041 6.39L5.00827 5.96143L4.52612 6.39H4.66898V6.63707L3.91898 7.10428V8.24714H3.77612V8.46143H3.91898H6.09755H6.27612V8.24714H6.09755V7.10428L5.31184 6.61482V6.39H5.49041Z" fill="#F7FCFF"/>
<path d="M4.96988 10.6375C5.63303 10.6375 6.08956 10.5651 6.32465 10.4417C6.38628 10.3369 6.49437 10.2778 6.60938 10.282C7.12591 10.3011 7.52596 10.0835 7.84045 9.60526C8.18026 9.0885 8.24854 8.35446 8.02706 7.39096L8.58932 7.26172C8.84308 8.36568 8.76021 9.25658 8.3225 9.92224C7.93027 10.5187 7.39547 10.8373 6.74281 10.8589C6.40946 11.1057 5.82528 11.2144 4.96988 11.2144C4.14235 11.2144 3.52878 11.0538 3.13525 10.7124C2.24158 10.5012 1.67366 10.1448 1.45036 9.61646C1.21232 9.05326 1.21232 8.2714 1.43436 7.26424L1.99776 7.38844C1.79908 8.28961 1.79908 8.95963 1.98176 9.39186C2.10924 9.69347 2.47965 9.93961 3.10717 10.1103L3.69017 10.2349L3.66219 10.3821C3.9466 10.5484 4.38128 10.6375 4.96988 10.6375Z" fill="#FBCD17"/>
<path d="M2.94629 5.51514L3.26588 5.64371L3.10609 5.97592L3.55308 5.74553L3.51835 5.91611L3.42252 6.38689L3.60567 5.85079V6.32433L3.71757 5.85079L4.04988 5.95101L3.71757 5.74553L4.04988 5.64371" stroke="#73BE4A" stroke-width="0.625" stroke-linecap="round" stroke-linejoin="round"/>
<path fill-rule="evenodd" clip-rule="evenodd" d="M3.55542 6.21045C3.72801 6.21045 3.86792 6.07054 3.86792 5.89795C3.86792 5.72536 3.72801 5.58545 3.55542 5.58545C3.38283 5.58545 3.24292 5.72536 3.24292 5.89795C3.24292 6.07054 3.38283 6.21045 3.55542 6.21045Z" fill="#FBCD17"/>
<path fill-rule="evenodd" clip-rule="evenodd" d="M6.65056 6.17101C6.64544 5.96084 6.62209 5.48096 6.51546 5.48096C6.4082 5.48096 6.39188 5.96647 6.38982 6.17467C6.20517 6.23503 6.06616 6.39392 6.06616 6.39392H6.98588C6.98588 6.39392 6.84099 6.2283 6.65056 6.17101Z" fill="#F7FCFF"/>
</g>
</g>
<rect x="0.5" y="0.5" width="19" height="14" rx="0.5" stroke="black" stroke-opacity="0.1"/>
<defs>
<clipPath id="clip0_85465_16011">
<rect width="20" height="15" rx="1" fill="white"/>
</clipPath>
</defs>
</svg>
