<svg width="20" height="15" viewBox="0 0 20 15" fill="none" xmlns="http://www.w3.org/2000/svg">
<g clip-path="url(#clip0_85465_16046)">
<rect width="20" height="15" rx="1" fill="white"/>
<path fill-rule="evenodd" clip-rule="evenodd" d="M0 0H20V15H0V0Z" fill="#3D58DB"/>
<path d="M0 3.125H-0.625V3.75V11.25V11.875H0H20H20.625V11.25V3.75V3.125H20H0Z" fill="#C51918" stroke="#FFD018" stroke-width="1.25"/>
<path d="M4.46827 5.83189C4.3933 5.83189 4.33252 5.66239 4.33252 5.4533C4.33252 5.24421 4.3933 5.07471 4.46827 5.07471H15.35C15.425 5.07471 15.4857 5.24421 15.4857 5.4533C15.4857 5.66239 15.425 5.83189 15.35 5.83189H4.46827Z" fill="#FFD018"/>
<path fill-rule="evenodd" clip-rule="evenodd" d="M15.0596 5.37643L15.6915 4.57031L16.8096 5.37643L15.6915 6.20375L15.0596 5.37643Z" fill="#F7FCFF"/>
<path d="M4.46827 8.33189C4.3933 8.33189 4.33252 8.16239 4.33252 7.9533C4.33252 7.74421 4.3933 7.57471 4.46827 7.57471H15.35C15.425 7.57471 15.4857 7.74421 15.4857 7.9533C15.4857 8.16239 15.425 8.33189 15.35 8.33189H4.46827Z" fill="#FFD018"/>
<path fill-rule="evenodd" clip-rule="evenodd" d="M15.0596 7.87643L15.6915 7.07031L16.8096 7.87643L15.6915 8.70375L15.0596 7.87643Z" fill="#F7FCFF"/>
<path d="M2.71594 9.88854C2.61542 9.88854 2.53394 9.69608 2.53394 9.45867C2.53394 9.22127 2.61542 9.02881 2.71594 9.02881H17.3061C17.4066 9.02881 17.4881 9.22127 17.4881 9.45867C17.4881 9.69608 17.4066 9.88854 17.3061 9.88854H2.71594Z" fill="#FFD018"/>
<path fill-rule="evenodd" clip-rule="evenodd" d="M5.51074 7.53292C5.51074 7.53292 7.28658 3.79541 9.82653 3.79541C12.3665 3.79541 14.202 7.53292 14.202 7.53292C14.202 7.53292 11.9607 11.2213 9.85639 11.2213C7.75209 11.2213 5.51074 7.53292 5.51074 7.53292Z" fill="#F7FCFF"/>
<mask id="mask0_85465_16046" style="mask-type:luminance" maskUnits="userSpaceOnUse" x="5" y="3" width="10" height="9">
<path fill-rule="evenodd" clip-rule="evenodd" d="M5.51074 7.53292C5.51074 7.53292 7.28658 3.79541 9.82653 3.79541C12.3665 3.79541 14.202 7.53292 14.202 7.53292C14.202 7.53292 11.9607 11.2213 9.85639 11.2213C7.75209 11.2213 5.51074 7.53292 5.51074 7.53292Z" fill="white"/>
</mask>
<g mask="url(#mask0_85465_16046)">
<path fill-rule="evenodd" clip-rule="evenodd" d="M9.95257 3.5498C9.95257 3.5498 9.37302 4.25368 9.56621 4.92488C9.75939 5.59608 10.2095 5.52518 10.2095 6.11629C10.2095 6.70739 10.0015 7.31023 10.2095 7.31023C10.4174 7.31023 10.4895 7.71813 10.2994 7.99467C10.1094 8.2712 9.94131 8.27975 9.95257 8.72981C9.96383 9.17988 10.9476 9.62168 10.471 9.62168C9.99447 9.62168 9.36636 10.0842 9.56621 10.0842C9.76605 10.0842 10.8116 10.4446 10.8116 10.9176C10.8116 11.3906 10.8116 11.7691 10.8116 11.7691H5.35693V3.5498H9.95257Z" fill="#272727"/>
<path fill-rule="evenodd" clip-rule="evenodd" d="M7.38673 6.20166H7.11523V7.30743H7.38673V6.20166ZM8.18763 6.20166H7.91614V7.30743H8.18763V6.20166ZM7.51569 6.20166H7.78718V7.30743H7.51569V6.20166ZM8.58809 6.20166H8.31659V7.30743H8.58809V6.20166ZM8.71704 6.20166H8.98854V7.30743H8.71704V6.20166ZM9.38899 6.20166H9.1175V7.30743H9.38899V6.20166ZM7.11523 7.7882H7.38673V8.89397H7.11523V7.7882ZM8.18763 7.7882H7.91614V8.89397H8.18763V7.7882ZM7.51569 7.7882H7.78718V8.89397H7.51569V7.7882ZM8.58809 7.7882H8.31659V8.89397H8.58809V7.7882ZM8.71704 7.7882H8.98854V8.89397H8.71704V7.7882ZM9.38899 7.7882H9.1175V8.89397H9.38899V7.7882Z" fill="#F7FCFF"/>
<path fill-rule="evenodd" clip-rule="evenodd" d="M10.6108 6.20166H10.3394V7.30743H10.6108V6.20166ZM11.4118 6.20166H11.1403V7.30743H11.4118V6.20166ZM10.7398 6.20166H11.0113V7.30743H10.7398V6.20166ZM11.8122 6.20166H11.5407V7.30743H11.8122V6.20166ZM11.9412 6.20166H12.2127V7.30743H11.9412V6.20166ZM12.6131 6.20166H12.3416V7.30743H12.6131V6.20166ZM10.3394 7.7882H10.6108V8.89397H10.3394V7.7882ZM11.4118 7.7882H11.1403V8.89397H11.4118V7.7882ZM10.7398 7.7882H11.0113V8.89397H10.7398V7.7882ZM11.8122 7.7882H11.5407V8.89397H11.8122V7.7882ZM11.9412 7.7882H12.2127V8.89397H11.9412V7.7882ZM12.6131 7.7882H12.3416V8.89397H12.6131V7.7882Z" fill="#272727"/>
<path fill-rule="evenodd" clip-rule="evenodd" d="M8.26975 4.41966C7.88943 4.53748 7.7154 5.53487 7.75791 5.77595C7.80042 6.01703 7.92945 5.7457 7.92945 5.7457C7.92945 5.7457 8.1926 6.31764 8.21974 6.47151C8.24687 6.62539 8.38545 6.23891 8.38545 6.23891C8.38545 6.23891 8.8419 6.55336 8.90368 6.90375C8.96546 7.25413 9.05839 6.5028 9.05839 6.5028L9.16179 6.48456L9.09637 6.11356L9.29355 6.28217L9.23272 5.93715C9.23272 5.93715 9.38122 6.13122 9.34355 5.91761C9.30589 5.70399 9.28486 5.58473 9.28486 5.58473L9.23338 5.29276L9.42855 5.25835C9.42855 5.25835 8.65006 4.30183 8.26975 4.41966Z" fill="#3D58DB"/>
</g>
<path fill-rule="evenodd" clip-rule="evenodd" d="M16.3053 8.55983C15.9103 8.60983 15.5657 9.56184 15.5657 9.80664C15.5657 10.0514 15.7399 9.80664 15.7399 9.80664C15.7399 9.80664 15.8997 10.4156 15.8997 10.5718C15.8997 10.7281 16.1033 10.3715 16.1033 10.3715C16.1033 10.3715 16.4982 10.7605 16.4982 11.1163C16.4982 11.4721 16.7202 10.7483 16.7202 10.7483H16.8252V10.3715L16.9901 10.5718V10.2215C16.9901 10.2215 17.1026 10.4384 17.1026 10.2215C17.1026 10.0046 17.1026 9.88349 17.1026 9.88349V9.58701H17.3008C17.3008 9.58701 16.7003 8.50984 16.3053 8.55983Z" fill="#3D58DB"/>
<path fill-rule="evenodd" clip-rule="evenodd" d="M3.49553 8.41579C3.89052 8.46579 4.23511 9.4178 4.23511 9.6626C4.23511 9.9074 4.06092 9.6626 4.06092 9.6626C4.06092 9.6626 3.90108 10.2715 3.90108 10.4278C3.90108 10.584 3.69749 10.2275 3.69749 10.2275C3.69749 10.2275 3.30258 10.6164 3.30258 10.9722C3.30258 11.328 3.0806 10.6042 3.0806 10.6042H2.97561V10.2275L2.8107 10.4278V10.0775C2.8107 10.0775 2.69815 10.2944 2.69815 10.0775C2.69815 9.86054 2.69815 9.73944 2.69815 9.73944V9.44297H2.49996C2.49996 9.44297 3.10053 8.36579 3.49553 8.41579Z" fill="#3D58DB"/>
</g>
<rect x="0.5" y="0.5" width="19" height="14" rx="0.5" stroke="black" stroke-opacity="0.1"/>
<defs>
<clipPath id="clip0_85465_16046">
<rect width="20" height="15" rx="1" fill="white"/>
</clipPath>
</defs>
</svg>
