<svg width="20" height="15" viewBox="0 0 20 15" fill="none" xmlns="http://www.w3.org/2000/svg">
<g clip-path="url(#clip0_85465_16141)">
<rect width="20" height="15" rx="1" fill="white"/>
<path fill-rule="evenodd" clip-rule="evenodd" d="M0 0H20V15H0V0Z" fill="#F7FCFF"/>
<path fill-rule="evenodd" clip-rule="evenodd" d="M0 0V5H20V0H0Z" fill="#C51918"/>
<path fill-rule="evenodd" clip-rule="evenodd" d="M0 10V15H20V10H0Z" fill="#409100"/>
<path fill-rule="evenodd" clip-rule="evenodd" d="M10.0126 5.39362L9.6431 5.65469L9.77345 5.2172L9.41474 4.94105L9.86479 4.93174L10.0126 4.5L10.1604 4.93174L10.6104 4.94105L10.2517 5.2172L10.3821 5.65469L10.0126 5.39362ZM8.45189 5.7766L8.0824 6.03767L8.21275 5.60017L7.85405 5.32403L8.3041 5.31472L8.45189 4.88298L8.59969 5.31472L9.04974 5.32403L8.69103 5.60017L8.82138 6.03767L8.45189 5.7766ZM6.86853 7.18661L7.23802 6.92553L7.60751 7.18661L7.47716 6.74911L7.83587 6.47297L7.38582 6.46366L7.23802 6.03191L7.09022 6.46366L6.64017 6.47297L6.99888 6.74911L6.86853 7.18661ZM6.84785 8.41489L6.47836 8.67597L6.60871 8.23847L6.25 7.96233L6.70005 7.95302L6.84785 7.52128L6.99564 7.95302L7.44569 7.96233L7.08698 8.23847L7.21734 8.67597L6.84785 8.41489ZM12.7645 8.67597L13.134 8.41489L13.5035 8.67597L13.3731 8.23847L13.7318 7.96233L13.2818 7.95302L13.134 7.52128L12.9862 7.95302L12.5361 7.96233L12.8948 8.23847L12.7645 8.67597ZM12.6571 6.92553L12.2876 7.18661L12.418 6.74911L12.0592 6.47297L12.5093 6.46366L12.6571 6.03191L12.8049 6.46366L13.2549 6.47297L12.8962 6.74911L13.0266 7.18661L12.6571 6.92553ZM11.0919 6.03767L11.4614 5.7766L11.8309 6.03767L11.7005 5.60017L12.0592 5.32403L11.6092 5.31472L11.4614 4.88298L11.3136 5.31472L10.8636 5.32403L11.2223 5.60017L11.0919 6.03767ZM7.9171 10.4716L7.80189 10.0614C8.43942 9.88886 9.17134 9.80306 9.99779 9.80306C10.8242 9.80306 11.5562 9.88886 12.1937 10.0614L12.0785 10.4716C11.4809 10.3099 10.7873 10.2286 9.99779 10.2286C9.20828 10.2286 8.51467 10.3099 7.9171 10.4716ZM8.70661 9.81374C8.45225 9.85695 8.24422 9.61107 8.24422 9.61107L8.49658 9.50681C8.48859 9.33186 8.59411 9.2234 8.59411 9.2234C8.67947 9.26271 8.79595 9.47753 8.79595 9.47753H9.02471C9.02471 9.47753 8.96097 9.77054 8.70661 9.81374ZM11.7126 9.65362C11.7126 9.65362 11.5045 9.8995 11.2502 9.85629C10.9958 9.81309 10.9321 9.52008 10.9321 9.52008H11.1608C11.1608 9.52008 11.2773 9.30526 11.3627 9.26596C11.3627 9.26596 11.4682 9.37442 11.4602 9.54936L11.7126 9.65362ZM9.96586 9.73583C9.70796 9.74322 9.53617 9.47078 9.53617 9.47078L9.80058 9.40266C9.81702 9.2283 9.93661 9.13559 9.93661 9.13559C10.0157 9.18639 10.1011 9.41533 10.1011 9.41533L10.3277 9.44717C10.3277 9.44717 10.2238 9.72845 9.96586 9.73583Z" fill="#FFBB00"/>
<path fill-rule="evenodd" clip-rule="evenodd" d="M9.97405 8.56183C9.97405 8.56183 9.68094 9.23264 9.21928 9.28453C8.75762 9.33641 8.52315 8.90301 8.52315 8.90301C8.52315 8.90301 8.4929 9.35371 7.94464 9.52743C7.39637 9.70116 7.10767 9.00705 7.10767 9.00705C7.10767 9.00705 7.39311 9.26238 7.83581 9.15112C8.27852 9.03986 8.45327 8.62897 8.45327 8.62897C8.45327 8.62897 8.78091 9.05734 9.21928 8.84315C9.65764 8.62897 9.90017 8.36722 9.90017 8.11604V7.3649C9.90017 7.3649 9.78707 7.17012 9.59088 7.17012C9.39468 7.17012 9.33993 7.3082 9.33993 7.3082C9.33993 7.3082 9.26335 6.52675 9.96897 6.47845L9.96894 6.47656L9.98845 6.47732L10.008 6.47656L10.0079 6.47845C10.7135 6.52675 10.637 7.3082 10.637 7.3082C10.637 7.3082 10.5822 7.17012 10.386 7.17012C10.1898 7.17012 10.0767 7.3649 10.0767 7.3649V8.11604C10.0767 8.36722 10.3193 8.62897 10.7576 8.84315C11.196 9.05734 11.5236 8.62897 11.5236 8.62897C11.5236 8.62897 11.6984 9.03986 12.1411 9.15112C12.5838 9.26238 12.8692 9.00705 12.8692 9.00705C12.8692 9.00705 12.5805 9.70116 12.0323 9.52743C11.484 9.35371 11.4538 8.90301 11.4538 8.90301C11.4538 8.90301 11.2193 9.33641 10.7576 9.28453C10.296 9.23264 10.0028 8.56183 10.0028 8.56183L9.98845 7.67647L9.97405 8.56183ZM9.96756 6.68887C9.64204 6.68887 9.57611 6.96443 9.57611 6.96443C9.86274 6.96443 9.96756 7.08937 9.96756 7.08937C9.96756 7.08937 10.1798 6.96443 10.3934 6.96443C10.3934 6.96443 10.2931 6.68887 9.96756 6.68887Z" fill="#FFBB00"/>
</g>
<rect x="0.5" y="0.5" width="19" height="14" rx="0.5" stroke="black" stroke-opacity="0.1"/>
<defs>
<clipPath id="clip0_85465_16141">
<rect width="20" height="15" rx="1" fill="white"/>
</clipPath>
</defs>
</svg>
