<svg width="20" height="15" viewBox="0 0 20 15" fill="none" xmlns="http://www.w3.org/2000/svg">
<g clip-path="url(#clip0_85465_16184)">
<rect width="20" height="15" rx="1" fill="white"/>
<path fill-rule="evenodd" clip-rule="evenodd" d="M0 0V15H20V0H0Z" fill="#29C470"/>
<mask id="mask0_85465_16184" style="mask-type:luminance" maskUnits="userSpaceOnUse" x="0" y="0" width="20" height="15">
<path fill-rule="evenodd" clip-rule="evenodd" d="M0 0V15H20V0H0Z" fill="white"/>
</mask>
<g mask="url(#mask0_85465_16184)">
<rect x="1.25" y="-0.20166" width="6.25" height="16.4518" fill="#C51918"/>
<mask id="mask1_85465_16184" style="mask-type:luminance" maskUnits="userSpaceOnUse" x="1" y="-1" width="7" height="18">
<rect x="1.25" y="-0.20166" width="6.25" height="16.4518" fill="white"/>
</mask>
<g mask="url(#mask1_85465_16184)">
<path fill-rule="evenodd" clip-rule="evenodd" d="M1.6221 0.566016L1.28079 1.00459L1.25 0.974146L1.58114 0.548638V0.463222L1.58239 0.455287L1.62089 0.336735L1.59732 0.295436L1.40204 0.490695L1.77847 -0.0955613V0.104766L1.85071 0.169972L2.02326 -0.131817L1.85013 -0.422265L1.72518 -0.326241L1.77585 -0.224449L1.74101 -0.200256L1.45894 -0.672143L1.63864 -0.549269L1.6703 -0.595171L1.4981 -0.770577L1.57427 -0.854458L1.32258 -1.22178L1.355 -1.25L1.62897 -0.850154L1.5579 -0.771889L1.72598 -0.600682L1.64859 -0.488471L1.59705 -0.523711L1.69538 -0.359214L1.86113 -0.486594L2.07229 -0.132346L1.86055 0.237993L1.73751 0.126941V0.0469691L1.614 0.239322L1.66635 0.331059L1.6221 0.467314V0.566016ZM1.28079 4.1439L1.6221 3.70533V3.60662L1.66635 3.47037L1.614 3.37863L1.73751 3.18628V3.26625L1.86055 3.3773L2.07229 3.00696L1.86113 2.65272L1.69538 2.7801L1.59705 2.6156L1.64859 2.65084L1.72598 2.53863L1.5579 2.36742L1.62897 2.28916L1.355 1.88931L1.32258 1.91753L1.57427 2.28485L1.4981 2.36873L1.6703 2.54414L1.63864 2.59004L1.45894 2.46717L1.74101 2.93905L1.77585 2.91486L1.72518 2.81307L1.85013 2.71704L2.02326 3.00749L1.85071 3.30928L1.77847 3.24407V3.04375L1.40204 3.63L1.59732 3.43475L1.62089 3.47604L1.58239 3.5946L1.58114 3.60253V3.68795L1.25 4.11346L1.28079 4.1439ZM1.6221 6.56764L1.28079 7.00621L1.25 6.97577L1.58114 6.55026V6.46484L1.58239 6.45691L1.62089 6.33835L1.59732 6.29706L1.40204 6.49231L1.77847 5.90606V6.10639L1.85071 6.17159L2.02326 5.8698L1.85013 5.57935L1.72518 5.67538L1.77585 5.77717L1.74101 5.80136L1.45894 5.32948L1.63864 5.45235L1.6703 5.40645L1.4981 5.23104L1.57427 5.14716L1.32258 4.77984L1.355 4.75162L1.62897 5.15147L1.5579 5.22973L1.72598 5.40094L1.64859 5.51315L1.59705 5.47791L1.69538 5.64241L1.86113 5.51503L2.07229 5.86927L1.86055 6.23961L1.73751 6.12856V6.04859L1.614 6.24094L1.66635 6.33268L1.6221 6.46893V6.56764ZM1.28079 9.91469L1.6221 9.47611V9.37741L1.66635 9.24116L1.614 9.14942L1.73751 8.95707V9.03704L1.86055 9.14809L2.07229 8.77775L1.86113 8.4235L1.69538 8.55088L1.59705 8.38639L1.64859 8.42163L1.72598 8.30941L1.5579 8.13821L1.62897 8.05994L1.355 7.6601L1.32258 7.68832L1.57427 8.05564L1.4981 8.13952L1.6703 8.31493L1.63864 8.36083L1.45894 8.23795L1.74101 8.70984L1.77585 8.68565L1.72518 8.58386L1.85013 8.48783L2.02326 8.77828L1.85071 9.08007L1.77847 9.01486V8.81454L1.40204 9.40079L1.59732 9.20553L1.62089 9.24683L1.58239 9.36538L1.58114 9.37332V9.45873L1.25 9.88424L1.28079 9.91469ZM1.28079 12.5L1.6221 12.0614V11.9627L1.66635 11.8265L1.614 11.7347L1.73751 11.5424V11.6224L1.86055 11.7334L2.07229 11.3631L1.86113 11.0088L1.69538 11.1362L1.59705 10.9717L1.64859 11.0069L1.72598 10.8947L1.5579 10.7235L1.62897 10.6453L1.355 10.2454L1.32258 10.2736L1.57427 10.641L1.4981 10.7248L1.6703 10.9002L1.63864 10.9461L1.45894 10.8233L1.74101 11.2952L1.77585 11.271L1.72518 11.1692L1.85013 11.0731L2.02326 11.3636L1.85071 11.6654L1.77847 11.6002V11.3998L1.40204 11.9861L1.59732 11.7908L1.62089 11.8321L1.58239 11.9507L1.58114 11.9586V12.044L1.25 12.4696L1.28079 12.5ZM7.46921 12.5L7.1279 12.0614V11.9627L7.08365 11.8265L7.136 11.7347L7.01249 11.5424V11.6224L6.88945 11.7334L6.67771 11.3631L6.88887 11.0088L7.05462 11.1362L7.15295 10.9717L7.10141 11.0069L7.02402 10.8947L7.1921 10.7235L7.12103 10.6453L7.395 10.2454L7.42742 10.2736L7.17573 10.641L7.2519 10.7248L7.0797 10.9002L7.11136 10.9461L7.29106 10.8233L7.00899 11.2952L6.97415 11.271L7.02482 11.1692L6.89987 11.0731L6.72674 11.3636L6.89929 11.6654L6.97153 11.6002V11.3998L7.34796 11.9861L7.15268 11.7908L7.12911 11.8321L7.16761 11.9507L7.16886 11.9586V12.044L7.5 12.4696L7.46921 12.5ZM7.1279 9.47611L7.46921 9.91469L7.5 9.88424L7.16886 9.45873V9.37332L7.16761 9.36538L7.12911 9.24683L7.15268 9.20553L7.34796 9.40079L6.97153 8.81454V9.01486L6.89929 9.08007L6.72674 8.77828L6.89987 8.48783L7.02482 8.58386L6.97415 8.68565L7.00899 8.70984L7.29106 8.23795L7.11136 8.36083L7.0797 8.31493L7.2519 8.13952L7.17573 8.05564L7.42742 7.68832L7.395 7.6601L7.12103 8.05994L7.1921 8.13821L7.02402 8.30941L7.10141 8.42163L7.15295 8.38639L7.05462 8.55088L6.88887 8.4235L6.67771 8.77775L6.88945 9.14809L7.01249 9.03704V8.95707L7.136 9.14942L7.08365 9.24116L7.1279 9.37741V9.47611ZM7.46921 7.00621L7.1279 6.56764V6.46893L7.08365 6.33268L7.136 6.24094L7.01249 6.04859V6.12856L6.88945 6.23961L6.67771 5.86927L6.88887 5.51503L7.05462 5.64241L7.15295 5.47791L7.10141 5.51315L7.02402 5.40094L7.1921 5.22973L7.12103 5.15147L7.395 4.75162L7.42742 4.77984L7.17573 5.14716L7.2519 5.23104L7.0797 5.40645L7.11136 5.45235L7.29106 5.32948L7.00899 5.80136L6.97415 5.77717L7.02482 5.67538L6.89987 5.57935L6.72674 5.8698L6.89929 6.17159L6.97153 6.10639V5.90606L7.34796 6.49231L7.15268 6.29706L7.12911 6.33835L7.16761 6.45691L7.16886 6.46484V6.55026L7.5 6.97577L7.46921 7.00621ZM7.1279 3.70533L7.46921 4.1439L7.5 4.11346L7.16886 3.68795V3.60253L7.16761 3.5946L7.12911 3.47604L7.15268 3.43475L7.34796 3.63L6.97153 3.04375V3.24407L6.89929 3.30928L6.72674 3.00749L6.89987 2.71704L7.02482 2.81307L6.97415 2.91486L7.00899 2.93905L7.29106 2.46717L7.11136 2.59004L7.0797 2.54414L7.2519 2.36873L7.17573 2.28485L7.42742 1.91753L7.395 1.88931L7.12103 2.28916L7.1921 2.36742L7.02402 2.53863L7.10141 2.65084L7.15295 2.6156L7.05462 2.7801L6.88887 2.65272L6.67771 3.00696L6.88945 3.3773L7.01249 3.26625V3.18628L7.136 3.37863L7.08365 3.47037L7.1279 3.60662V3.70533ZM7.46921 1.00459L7.1279 0.566016V0.467314L7.08365 0.331059L7.136 0.239322L7.01249 0.0469691V0.126941L6.88945 0.237993L6.67771 -0.132346L6.88887 -0.486594L7.05462 -0.359214L7.15295 -0.523711L7.10141 -0.488471L7.02402 -0.600682L7.1921 -0.771889L7.12103 -0.850154L7.395 -1.25L7.42742 -1.22178L7.17573 -0.854458L7.2519 -0.770577L7.0797 -0.595171L7.11136 -0.549269L7.29106 -0.672143L7.00899 -0.200256L6.97415 -0.224449L7.02482 -0.326241L6.89987 -0.422265L6.72674 -0.131817L6.89929 0.169972L6.97153 0.104766V-0.0955613L7.34796 0.490695L7.15268 0.295436L7.12911 0.336735L7.16761 0.455287L7.16886 0.463222V0.548638L7.5 0.974146L7.46921 1.00459Z" fill="#E8AA00"/>
<path fill-rule="evenodd" clip-rule="evenodd" d="M4.56667 9.10289H5.53761V9.33076H5.75885V9.51305H6.02434V10.1055H5.75885V10.2878H5.53761V10.4701H4.59258L4.33113 10.7024L4.06843 10.4701H3.19248V10.2878H2.97124V10.1055H2.75V9.51305H2.97124V9.33076H3.19248V9.10289H4.09446L4.33113 8.89355L4.56667 9.10289Z" fill="#389F5D"/>
<path d="M5.53761 9.10289H5.78761V8.85289H5.53761V9.10289ZM4.56667 9.10289L4.4006 9.28976L4.47164 9.35289H4.56667V9.10289ZM5.53761 9.33076H5.28761V9.58076H5.53761V9.33076ZM5.75885 9.33076H6.00885V9.08076H5.75885V9.33076ZM5.75885 9.51305H5.50885V9.76305H5.75885V9.51305ZM6.02434 9.51305H6.27434V9.26305H6.02434V9.51305ZM6.02434 10.1055V10.3555H6.27434V10.1055H6.02434ZM5.75885 10.1055V9.85549H5.50885V10.1055H5.75885ZM5.75885 10.2878V10.5378H6.00885V10.2878H5.75885ZM5.53761 10.2878V10.0378H5.28761V10.2878H5.53761ZM5.53761 10.4701V10.7201H5.78761V10.4701H5.53761ZM4.59258 10.4701V10.2201H4.49754L4.4265 10.2832L4.59258 10.4701ZM4.33113 10.7024L4.16549 10.8897L4.33152 11.0366L4.4972 10.8893L4.33113 10.7024ZM4.06843 10.4701L4.23407 10.2828L4.16313 10.2201H4.06843V10.4701ZM3.19248 10.4701H2.94248V10.7201H3.19248V10.4701ZM3.19248 10.2878H3.44248V10.0378H3.19248V10.2878ZM2.97124 10.2878H2.72124V10.5378H2.97124V10.2878ZM2.97124 10.1055H3.22124V9.85549H2.97124V10.1055ZM2.75 10.1055H2.5V10.3555H2.75V10.1055ZM2.75 9.51305V9.26305H2.5V9.51305H2.75ZM2.97124 9.51305V9.76305H3.22124V9.51305H2.97124ZM2.97124 9.33076V9.08076H2.72124V9.33076H2.97124ZM3.19248 9.33076V9.58076H3.44248V9.33076H3.19248ZM3.19248 9.10289V8.85289H2.94248V9.10289H3.19248ZM4.09446 9.10289V9.35289H4.18916L4.2601 9.29015L4.09446 9.10289ZM4.33113 8.89355L4.4972 8.70669L4.33152 8.55944L4.16549 8.7063L4.33113 8.89355ZM5.53761 8.85289H4.56667V9.35289H5.53761V8.85289ZM5.78761 9.33076V9.10289H5.28761V9.33076H5.78761ZM5.75885 9.08076H5.53761V9.58076H5.75885V9.08076ZM6.00885 9.51305V9.33076H5.50885V9.51305H6.00885ZM6.02434 9.26305H5.75885V9.76305H6.02434V9.26305ZM6.27434 10.1055V9.51305H5.77434V10.1055H6.27434ZM5.75885 10.3555H6.02434V9.85549H5.75885V10.3555ZM6.00885 10.2878V10.1055H5.50885V10.2878H6.00885ZM5.53761 10.5378H5.75885V10.0378H5.53761V10.5378ZM5.78761 10.4701V10.2878H5.28761V10.4701H5.78761ZM4.59258 10.7201H5.53761V10.2201H4.59258V10.7201ZM4.4972 10.8893L4.75865 10.6569L4.4265 10.2832L4.16505 10.5156L4.4972 10.8893ZM3.9028 10.6573L4.16549 10.8897L4.49676 10.5152L4.23407 10.2828L3.9028 10.6573ZM3.19248 10.7201H4.06843V10.2201H3.19248V10.7201ZM2.94248 10.2878V10.4701H3.44248V10.2878H2.94248ZM2.97124 10.5378H3.19248V10.0378H2.97124V10.5378ZM2.72124 10.1055V10.2878H3.22124V10.1055H2.72124ZM2.75 10.3555H2.97124V9.85549H2.75V10.3555ZM2.5 9.51305V10.1055H3V9.51305H2.5ZM2.97124 9.26305H2.75V9.76305H2.97124V9.26305ZM2.72124 9.33076V9.51305H3.22124V9.33076H2.72124ZM3.19248 9.08076H2.97124V9.58076H3.19248V9.08076ZM2.94248 9.10289V9.33076H3.44248V9.10289H2.94248ZM4.09446 8.85289H3.19248V9.35289H4.09446V8.85289ZM4.2601 9.29015L4.49676 9.08081L4.16549 8.7063L3.92883 8.91563L4.2601 9.29015ZM4.16505 9.08042L4.4006 9.28976L4.73275 8.91602L4.4972 8.70669L4.16505 9.08042Z" fill="#E8AA00"/>
<path fill-rule="evenodd" clip-rule="evenodd" d="M3.32202 9.62965V9.22705H3.79113L3.32202 9.62965ZM5.29555 9.62965V9.22705H4.82645L5.29555 9.62965ZM3.32202 10.3588V9.95622L3.79113 10.3588H3.32202ZM5.29555 9.95622V10.3588H4.82645L5.29555 9.95622Z" fill="#C51918"/>
<path fill-rule="evenodd" clip-rule="evenodd" d="M4.15308 9.26186L4.31501 9.0498L4.4749 9.26186H4.15308ZM4.15308 9.45996L4.31501 9.67202L4.4749 9.45996H4.15308ZM4.31501 9.96126L4.15308 10.1733H4.4749L4.31501 9.96126ZM4.15308 10.3714L4.31501 10.5835L4.4749 10.3714H4.15308Z" fill="#E8AA00"/>
<path fill-rule="evenodd" clip-rule="evenodd" d="M4.15645 9.23633V9.32747H4.06348V9.45247H4.15645V9.54362H4.48087V9.45247H4.57384V9.32747H4.48087V9.23633H4.15645ZM4.48087 10.2389V10.1478H4.15645V10.2389H4.06348V10.3639H4.15645V10.4551H4.48087V10.3639H4.57384V10.2389H4.48087Z" fill="#AF0100"/>
<path fill-rule="evenodd" clip-rule="evenodd" d="M3.53369 9.71838L3.68783 9.50537L3.84003 9.71838H3.53369ZM3.53369 9.91736L3.68783 10.1304L3.84003 9.91736H3.53369ZM4.97102 9.50537L4.81688 9.71838H5.12322L4.97102 9.50537ZM4.81688 9.91736L4.97102 10.1304L5.12322 9.91736H4.81688Z" fill="#AF0100"/>
<path fill-rule="evenodd" clip-rule="evenodd" d="M3.53259 9.69238V9.78535H3.44409V9.91285H3.53259V10.0058H3.8414V9.91285H3.9299V9.78535H3.8414V9.69238H3.53259ZM5.12459 9.78535V9.69238H4.81577V9.78535H4.72728V9.91285H4.81577V10.0058H5.12459V9.91285H5.21309V9.78535H5.12459Z" fill="#E8AA00"/>
<mask id="mask2_85465_16184" style="mask-type:luminance" maskUnits="userSpaceOnUse" x="2" y="10" width="5" height="4">
<path fill-rule="evenodd" clip-rule="evenodd" d="M3.88555 10.7817L2.77832 11.4061V12.4408L3.88555 13.0904H5.08479L6.21836 12.4408V11.4061L5.08479 10.7817H3.88555Z" fill="white"/>
</mask>
<g mask="url(#mask2_85465_16184)">
<path d="M2.79419 11.9351H4.51985V13.0744H2.79419V11.9351Z" fill="#E8AA00"/>
<rect x="2.61719" y="10.7954" width="1.90265" height="1.13932" fill="#F9E8E7"/>
<path d="M3.05957 11.4592L3.63239 11.1143V11.4592H3.05957Z" fill="#E8AA00"/>
<rect width="1.90265" height="1.13932" transform="matrix(-1 0 0 1 6.42236 10.7954)" fill="#E8AA00"/>
<path d="M5.84717 11.4592L5.27434 11.1143V11.4592H5.84717Z" fill="#F9E8E7"/>
<rect x="6.24561" y="13.0742" width="1.72566" height="1.13932" transform="rotate(180 6.24561 13.0742)" fill="#F9E8E7"/>
<path d="M5.80322 12.4104L5.2304 12.7554V12.4104H5.80322Z" fill="#E8AA00"/>
<path d="M3.05957 12.3382L3.63239 12.6831V12.3382H3.05957Z" fill="#FCFCFC"/>
</g>
<path fill-rule="evenodd" clip-rule="evenodd" d="M3.90039 11.4793H4.188L4.47561 11.3882L4.76322 11.4793H5.05083V12.3452H4.76322L4.47561 12.4819L4.188 12.3452H3.90039V11.4793Z" fill="#C51918"/>
<path fill-rule="evenodd" clip-rule="evenodd" d="M4.87386 10.9609H5.03011V11.1373H5.09413V11.2623H5.03011V11.3295H4.87386V10.9609ZM3.30444 11.5078H3.14819V11.8764H3.30444V11.8091H3.36847V11.6841H3.30444V11.5078ZM3.52568 11.5078H3.36943V11.8764H3.52568V11.5078ZM3.30444 11.9635H3.14819V12.3321H3.30444V12.2649H3.36847V12.1399H3.30444V11.9635ZM3.36943 11.9635H3.52568V12.3321H3.36943V11.9635ZM5.58182 11.5078H5.73807V11.6841H5.8021V11.8091H5.73807V11.8764H5.58182V11.5078ZM5.95931 11.5078H5.80306V11.8764H5.95931V11.5078ZM5.73807 11.9635H5.58182V12.3321H5.73807V12.2649H5.8021V12.1399H5.73807V11.9635ZM5.80306 11.9635H5.95931V12.3321H5.80306V11.9635ZM5.25135 10.9609H5.0951V11.3295H5.25135V10.9609ZM3.96816 10.9609H3.81191V11.3295H3.96816V11.2623H4.03219V11.1373H3.96816V10.9609ZM4.03315 10.9609H4.1894V11.3295H4.03315V10.9609ZM4.87386 12.5104H5.03011V12.6867H5.09413V12.8117H5.03011V12.879H4.87386V12.5104ZM5.25135 12.5104H5.0951V12.879H5.25135V12.5104ZM3.96816 12.5104H3.81191V12.879H3.96816V12.8117H4.03219V12.6867H3.96816V12.5104ZM4.03315 12.5104H4.1894V12.879H4.03315V12.5104Z" fill="#C9343F"/>
<path fill-rule="evenodd" clip-rule="evenodd" d="M4.39051 11.6664H4.43476V11.5425H4.21368V11.6842H4.03149V11.8872H4.2009V11.8416H4.07574V11.7297H4.226L4.45217 11.9254L4.226 12.1212H4.07574V12.0093H4.2009V11.9637H4.03149V12.1667H4.21368V12.3084H4.43476V12.1845H4.39051V12.2628H4.25793V12.1531L4.48792 11.954L4.71792 12.1531V12.2628H4.58534V12.1845H4.54109V12.3084H4.76217V12.1667H4.94435V11.9637H4.77495V12.0093H4.90011V12.1212H4.74985L4.52368 11.9254L4.74985 11.7297H4.90011V11.8416H4.77495V11.8872H4.94435V11.6842H4.76217V11.5425H4.54109V11.6664H4.58534V11.5881H4.71792V11.6978L4.48792 11.8969L4.25793 11.6978V11.5881H4.39051V11.6664Z" fill="white"/>
<path fill-rule="evenodd" clip-rule="evenodd" d="M4.74031 3H3.96109V5.5H4.74031V3ZM2.98706 3.52885H3.47407V4.875H2.98706V3.52885ZM5.27602 3.52885H5.76303V4.875H5.27602V3.52885Z" fill="#E8AA00"/>
<path fill-rule="evenodd" clip-rule="evenodd" d="M3.96104 3.19238H3.47403V5.11546H3.96104V3.19238ZM2.98701 3.72123H2.5V4.63469H2.98701V3.72123ZM5.76299 3.72123H6.25V4.63469H5.76299V3.72123ZM5.22727 3.19238H4.74026V5.11546H5.22727V3.19238Z" fill="#389F5D"/>
<path fill-rule="evenodd" clip-rule="evenodd" d="M3.86365 3.4328C3.86365 3.51246 3.79823 3.57704 3.71754 3.57704C3.63685 3.57704 3.57144 3.51246 3.57144 3.4328C3.57144 3.35315 3.63685 3.28857 3.71754 3.28857C3.79823 3.28857 3.86365 3.35315 3.86365 3.4328ZM2.88962 3.91357C2.88962 3.99323 2.82421 4.0578 2.74352 4.0578C2.66283 4.0578 2.59741 3.99323 2.59741 3.91357C2.59741 3.83392 2.66283 3.76934 2.74352 3.76934C2.82421 3.76934 2.88962 3.83392 2.88962 3.91357ZM2.88962 4.44242C2.88962 4.52208 2.82421 4.58665 2.74352 4.58665C2.66283 4.58665 2.59741 4.52208 2.59741 4.44242C2.59741 4.36276 2.66283 4.29819 2.74352 4.29819C2.82421 4.29819 2.88962 4.36276 2.88962 4.44242ZM3.71754 5.01934C3.79823 5.01934 3.86365 4.95477 3.86365 4.87511C3.86365 4.79546 3.79823 4.73088 3.71754 4.73088C3.63685 4.73088 3.57144 4.79546 3.57144 4.87511C3.57144 4.95477 3.63685 5.01934 3.71754 5.01934ZM6.0065 4.0578C6.08719 4.0578 6.15261 3.99323 6.15261 3.91357C6.15261 3.83392 6.08719 3.76934 6.0065 3.76934C5.92581 3.76934 5.8604 3.83392 5.8604 3.91357C5.8604 3.99323 5.92581 4.0578 6.0065 4.0578ZM6.15261 4.44242C6.15261 4.52208 6.08719 4.58665 6.0065 4.58665C5.92581 4.58665 5.8604 4.52208 5.8604 4.44242C5.8604 4.36276 5.92581 4.29819 6.0065 4.29819C6.08719 4.29819 6.15261 4.36276 6.15261 4.44242ZM4.98378 5.01934C5.06447 5.01934 5.12988 4.95477 5.12988 4.87511C5.12988 4.79546 5.06447 4.73088 4.98378 4.73088C4.90308 4.73088 4.83767 4.79546 4.83767 4.87511C4.83767 4.95477 4.90308 5.01934 4.98378 5.01934ZM5.12988 3.4328C5.12988 3.51246 5.06447 3.57704 4.98378 3.57704C4.90308 3.57704 4.83767 3.51246 4.83767 3.4328C4.83767 3.35315 4.90308 3.28857 4.98378 3.28857C5.06447 3.28857 5.12988 3.35315 5.12988 3.4328Z" fill="#E1E5E8"/>
<path fill-rule="evenodd" clip-rule="evenodd" d="M4.49681 3.24042C4.49681 3.32008 4.4314 3.38465 4.35071 3.38465C4.27002 3.38465 4.2046 3.32008 4.2046 3.24042C4.2046 3.16077 4.27002 3.09619 4.35071 3.09619C4.4314 3.09619 4.49681 3.16077 4.49681 3.24042ZM3.37668 3.76927C3.37668 3.84892 3.31127 3.9135 3.23058 3.9135C3.14989 3.9135 3.08447 3.84892 3.08447 3.76927C3.08447 3.68961 3.14989 3.62504 3.23058 3.62504C3.31127 3.62504 3.37668 3.68961 3.37668 3.76927ZM4.35071 5.45196C4.4314 5.45196 4.49681 5.38739 4.49681 5.30773C4.49681 5.22807 4.4314 5.1635 4.35071 5.1635C4.27002 5.1635 4.2046 5.22807 4.2046 5.30773C4.2046 5.38739 4.27002 5.45196 4.35071 5.45196ZM5.66564 3.76927C5.66564 3.84892 5.60023 3.9135 5.51954 3.9135C5.43885 3.9135 5.37343 3.84892 5.37343 3.76927C5.37343 3.68961 5.43885 3.62504 5.51954 3.62504C5.60023 3.62504 5.66564 3.68961 5.66564 3.76927ZM3.23058 4.77888C3.31127 4.77888 3.37668 4.71431 3.37668 4.63465C3.37668 4.555 3.31127 4.49042 3.23058 4.49042C3.14989 4.49042 3.08447 4.555 3.08447 4.63465C3.08447 4.71431 3.14989 4.77888 3.23058 4.77888ZM5.66564 4.63465C5.66564 4.71431 5.60023 4.77888 5.51954 4.77888C5.43885 4.77888 5.37343 4.71431 5.37343 4.63465C5.37343 4.555 5.43885 4.49042 5.51954 4.49042C5.60023 4.49042 5.66564 4.555 5.66564 4.63465Z" fill="#C51918"/>
<path fill-rule="evenodd" clip-rule="evenodd" d="M3.5041 3.99458L3.9782 3.56641H4.748L5.28828 4.05763H6.00651V4.24994H5.30775V4.25998L4.748 4.82927H3.9782L3.5041 4.31546V4.24994H2.69482V4.05763H3.5041V3.99458Z" fill="#C51918"/>
<path fill-rule="evenodd" clip-rule="evenodd" d="M4.38192 3.92273L4.61215 4.15606L4.37045 4.38501L4.12875 4.15606L4.35898 3.92273L4.37045 3.91215L4.38192 3.92273ZM4.42384 4.48609L4.45081 4.46113L4.42321 4.43498L4.66313 4.20772L4.91337 4.46132L4.80075 4.58009H4.73398L4.60977 4.65823L4.42384 4.48609ZM4.37045 4.53552L4.13972 4.74915L3.98563 4.65221H3.90847L3.72653 4.46033L4.02507 4.15779L3.72461 3.87318L3.92176 3.68187L3.99321 3.738L4.0966 3.63357L4.06552 3.60208L4.11785 3.55176L4.37045 3.80776L4.62306 3.55176L4.67538 3.60208L4.64431 3.63357L4.74769 3.738L4.81914 3.68187L5.01629 3.87318L4.71584 4.15779L5.01437 4.46033L4.83243 4.65221H4.75527L4.60118 4.74915L4.37045 4.53552ZM4.49921 3.93824L4.50224 3.93504L4.43306 3.8712L4.42437 3.8624L4.60432 3.69636L4.74156 3.83498L4.81404 3.77804L4.91144 3.87255L4.66486 4.10613L4.49921 3.93824ZM4.34466 4.46053L4.13113 4.65823L4.00693 4.58009H3.94015L3.82754 4.46132L4.07778 4.20772L4.34466 4.46053ZM3.82946 3.87255L4.07604 4.10613L4.31653 3.8624L4.13658 3.69636L3.99934 3.83498L3.92686 3.77804L3.82946 3.87255Z" fill="#E8AA00"/>
<path fill-rule="evenodd" clip-rule="evenodd" d="M2.78022 13.401L2.78022 13.401C2.64958 13.2352 2.56141 13.1233 2.53819 13.125C2.46527 13.1304 2.39689 13.9024 3.34465 14.4897C3.34465 14.4897 3.48455 14.5675 3.56603 14.4897C3.64751 14.4119 3.56603 14.2975 3.56603 14.2975C3.25967 14.0096 2.97348 13.6463 2.78022 13.401ZM5.96978 13.401L5.96978 13.401L5.96979 13.401C6.10042 13.2352 6.18859 13.1233 6.21181 13.125C6.28473 13.1304 6.35311 13.9024 5.40535 14.4897C5.40535 14.4897 5.26545 14.5675 5.18397 14.4897C5.10249 14.4119 5.18397 14.2975 5.18397 14.2975C5.49033 14.0096 5.77652 13.6463 5.96977 13.401L5.96978 13.401ZM5.90044 14.4398C5.58901 14.5318 5.22831 14.5511 5.09038 14.4916C5.04639 14.4726 4.99968 14.4577 4.9506 14.4466C4.81339 14.4154 4.67965 14.4152 4.52095 14.4326L4.46229 14.4393L4.4583 14.4398C4.44336 14.4415 4.43473 14.4422 4.43308 14.4422C4.42378 14.4422 4.41358 14.4436 4.4024 14.4462C4.39122 14.4436 4.38102 14.4422 4.37172 14.4422C4.37007 14.4422 4.36144 14.4415 4.3465 14.4398C4.34628 14.4398 4.34484 14.4396 4.34252 14.4393C4.33093 14.438 4.2974 14.434 4.28386 14.4326C4.12515 14.4152 3.99141 14.4154 3.8542 14.4466C3.80512 14.4577 3.75841 14.4726 3.71442 14.4916C3.57649 14.5511 3.2158 14.5318 2.90436 14.4398C2.90436 14.4398 3.47109 14.6674 3.80768 14.5666C3.84032 14.5525 3.87474 14.5415 3.91096 14.5333C4.00678 14.5115 4.10491 14.5096 4.22296 14.5206C4.17331 14.5437 4.11559 14.5702 4.04844 14.5974V14.625C4.18099 14.5712 4.33633 14.5458 4.4024 14.5379C4.46848 14.5458 4.62381 14.5712 4.75636 14.625V14.5974C4.68922 14.5702 4.63149 14.5437 4.58184 14.5206C4.69989 14.5096 4.79803 14.5115 4.89384 14.5333C4.93006 14.5415 4.96449 14.5525 4.99713 14.5666C5.33371 14.6674 5.90044 14.4398 5.90044 14.4398Z" fill="#E8AA00"/>
<path fill-rule="evenodd" clip-rule="evenodd" d="M3.60228 6.23584L2.81982 6.92538V7.58211L3.50387 8.26948H4.90061L5.67071 7.53606V6.97694L4.90061 6.23584H3.60228Z" fill="#389F5D"/>
<path fill-rule="evenodd" clip-rule="evenodd" d="M3.87157 6.30859H3.69458V6.44531H3.87157V6.30859ZM3.87157 8.09611H3.69458V8.23283H3.87157V8.09611ZM4.13706 8.09611H4.31405V8.23283H4.13706V8.09611ZM4.31405 6.30859H4.13706V6.44531H4.31405V6.30859ZM4.57954 8.09611H4.75653V8.23283H4.57954V8.09611ZM4.75653 6.30859H4.57954V6.44531H4.75653V6.30859Z" fill="#C51918"/>
<path fill-rule="evenodd" clip-rule="evenodd" d="M4.09594 6.27344H3.91577V6.41016H4.09594V6.27344ZM4.09594 8.09635H3.91577V8.23307H4.09594V8.09635ZM4.36619 6.27344H4.54635V6.41016H4.36619V6.27344ZM4.54635 8.09635H4.36619V8.23307H4.54635V8.09635Z" fill="#E8AA00"/>
<path fill-rule="evenodd" clip-rule="evenodd" d="M3.07095 6.15137H5.43347V6.51645H5.77175V8.0257H5.43347V8.33769H3.07095V8.0257H2.70361V6.51645H3.07095V6.15137ZM3.20369 6.65316H2.83636V7.88898H3.20369V8.20097H5.30072V7.88898H5.639V6.65316H5.30072V6.28809H3.20369V6.65316Z" fill="#750100"/>
<path fill-rule="evenodd" clip-rule="evenodd" d="M4.00432 6H3.78308V6.22786H4.00432V6ZM4.3583 6H4.13706V6.22786H4.3583V6ZM4.49105 6H4.71228V6.22786H4.49105V6ZM4.00432 8.27865H3.78308V8.50651H4.00432V8.27865ZM4.13706 8.27865H4.3583V8.50651H4.13706V8.27865ZM4.71228 8.27865H4.49105V8.50651H4.71228V8.27865ZM2.49658 7.77403V7.55279H2.72445V7.77403H2.49658ZM2.49658 7.18821V7.40945H2.72445V7.18821H2.49658ZM2.49658 7.04486V6.82363H2.72445V7.04486H2.49658ZM5.68242 7.55279V7.77403H5.91029V7.55279H5.68242ZM5.68242 7.40945V7.18821H5.91029V7.40945H5.68242ZM5.68242 6.82363V7.04486H5.91029V6.82363H5.68242Z" fill="#389F5D"/>
<path fill-rule="evenodd" clip-rule="evenodd" d="M3.61132 6.42773L3.22974 6.75962V7.83354L3.54641 8.05763H4.91931L5.23553 7.83354V6.75962L4.87864 6.42773H3.61132Z" fill="#C51918"/>
<path fill-rule="evenodd" clip-rule="evenodd" d="M4.25193 6.87305L3.7915 7.26644H4.25193V6.87305Z" fill="#E1E5E8"/>
<path d="M4.25193 7.62354L3.7915 7.23014H4.25193V7.62354Z" fill="#E8AA00"/>
<path fill-rule="evenodd" clip-rule="evenodd" d="M4.21193 6.87305L4.67236 7.26644H4.21193V6.87305Z" fill="#E8AA00"/>
<path fill-rule="evenodd" clip-rule="evenodd" d="M4.23223 7.37266C4.30924 7.37266 4.37168 7.31022 4.37168 7.2332C4.37168 7.15619 4.30924 7.09375 4.23223 7.09375C4.15521 7.09375 4.09277 7.15619 4.09277 7.2332C4.09277 7.31022 4.15521 7.37266 4.23223 7.37266Z" fill="#29AE66"/>
<path d="M4.21193 7.62354L4.67236 7.23014H4.21193V7.62354Z" fill="#E1E5E8"/>
<path fill-rule="evenodd" clip-rule="evenodd" d="M3.25199 7.09375H2.85376V7.22125H3.25199V7.09375ZM3.25199 7.32617H2.85376V7.45367H3.25199V7.32617ZM5.24314 7.09375H5.64137V7.22125H5.24314V7.09375ZM5.64137 7.32617H5.24314V7.45367H5.64137V7.32617Z" fill="#C51918"/>
<path fill-rule="evenodd" clip-rule="evenodd" d="M3.20774 6.95703H2.85376V7.09648H3.20774V6.95703ZM3.20774 7.18945H2.85376V7.32891H3.20774V7.18945ZM2.85376 7.42188H3.20774V7.56133H2.85376V7.42188ZM5.59712 6.95703H5.24314V7.09648H5.59712V6.95703ZM5.24314 7.18945H5.59712V7.32891H5.24314V7.18945ZM5.59712 7.42188H5.24314V7.56133H5.59712V7.42188Z" fill="#E8AA00"/>
<path fill-rule="evenodd" clip-rule="evenodd" d="M6.24068 0.994207L6.23933 1.24744H4.39001L4.38868 2.39744H3.80881C3.70758 2.39744 3.43005 2.20307 3.43005 2.20307H2.9592L2.74184 1.98101V1.75788L2.50854 1.48087L2.50989 1.22764H4.35922L4.36054 0.0776367H4.94042C5.04164 0.0776367 5.31917 0.272008 5.31917 0.272008H5.79002L6.00739 0.494074V0.717203L6.24068 0.994207Z" fill="#E8AA00"/>
<path fill-rule="evenodd" clip-rule="evenodd" d="M2.50859 0.994207L2.50993 1.24744H4.35926L4.36058 2.39744H4.94046C5.04168 2.39744 5.31922 2.20307 5.31922 2.20307H5.79006L6.00743 1.98101V1.75788L6.24072 1.48087L6.23938 1.22764H4.39005L4.38873 0.0776367H3.80885C3.70763 0.0776367 3.43009 0.272008 3.43009 0.272008H2.95925L2.74188 0.494074V0.717203L2.50859 0.994207Z" fill="#E1E5E8"/>
<path fill-rule="evenodd" clip-rule="evenodd" d="M3.75144 0.428559L3.73119 0.33075L4.13011 0.239017C4.17799 0.215893 4.2611 0.150017 4.37558 0.0429688L4.42921 0.103328L4.43841 0.0929687C4.55288 0.200017 4.63599 0.265893 4.68388 0.289017L5.08279 0.38075L5.06254 0.478559L4.84132 0.43286L4.86249 0.451785C4.84728 0.460893 4.83074 0.474171 4.81303 0.491537L4.71963 0.477783L4.72831 0.446198L4.70486 0.44238C4.68768 0.474785 4.66803 0.521149 4.64705 0.580643L4.55364 0.55314L4.59146 0.371962L4.38034 0.173949L4.23243 0.312675C4.25083 0.329356 4.26918 0.348505 4.28755 0.370167C4.27186 0.376138 4.25686 0.381407 4.24254 0.385977L4.23621 0.387488L4.26035 0.50314L4.16694 0.530643C4.15475 0.496077 4.143 0.465942 4.13194 0.440403L4.12424 0.441537C4.10652 0.424171 4.08998 0.410893 4.07478 0.401785L4.10122 0.378146C4.09688 0.370728 4.09273 0.364299 4.08878 0.358875L3.75144 0.428559ZM3.76786 0.786682L3.82112 0.702956L3.54561 0.518229L3.57625 0.475384L3.49774 0.416202L3.46394 0.463467L3.3546 0.390158L3.30134 0.473884L3.4062 0.544195L3.38461 0.574397L3.46312 0.633579L3.48788 0.598957L3.76786 0.786682ZM3.42695 0.886682L3.48021 0.802956L3.2047 0.618229L3.23534 0.575384L3.15683 0.516202L3.12303 0.563467L3.01369 0.490158L2.96043 0.573884L3.06529 0.644195L3.0437 0.674397L3.12221 0.733579L3.14697 0.698957L3.42695 0.886682ZM3.28085 1.18668L3.33411 1.10296L3.0586 0.918229L3.08924 0.875384L3.01072 0.816202L2.97692 0.863467L2.86759 0.790158L2.81433 0.873884L2.91919 0.944195L2.89759 0.974397L2.97611 1.03358L3.00086 0.998957L3.28085 1.18668ZM3.2854 1.4267L3.23214 1.34297L2.95216 1.53069L2.9274 1.49607L2.84889 1.55525L2.87049 1.58546L2.76562 1.65577L2.81888 1.73949L2.92822 1.66618L2.96202 1.71345L3.04053 1.65427L3.00989 1.61142L3.2854 1.4267ZM3.37825 1.64297L3.43151 1.7267L3.156 1.91142L3.18664 1.95427L3.10813 2.01345L3.07432 1.96618L2.96499 2.03949L2.91173 1.95577L3.01659 1.88546L2.99499 1.85525L3.07351 1.79607L3.09827 1.83069L3.37825 1.64297ZM3.71916 1.74297L3.77242 1.8267L3.49691 2.01142L3.52755 2.05427L3.44903 2.11345L3.41523 2.06618L3.3059 2.13949L3.25264 2.05577L3.3575 1.98546L3.3359 1.95525L3.41442 1.89607L3.43918 1.93069L3.71916 1.74297ZM4.23885 2.22087C4.22316 2.2149 4.20816 2.20963 4.19384 2.20506L4.1753 2.20064L4.21165 2.02651L4.11824 1.99901C4.0884 2.08361 4.06126 2.14166 4.04008 2.17078L3.70274 2.10109L3.68249 2.1989L4.06698 2.28732L4.06688 2.28768L4.12248 2.32462L4.1298 2.32006C4.17826 2.35385 4.24444 2.40959 4.32687 2.48668L4.35829 2.45132L4.38971 2.48668C4.50418 2.37963 4.58729 2.31376 4.63518 2.29063L4.64813 2.28766C4.66493 2.30201 4.6818 2.31432 4.69881 2.32462L4.75442 2.28768L4.7488 2.26862L4.755 2.26308L5.03409 2.1989L5.01384 2.10109L4.6765 2.17078C4.65532 2.14166 4.62819 2.08361 4.59835 1.99901L4.50494 2.02651L4.54276 2.20769L4.35829 2.3807L4.21564 2.24691C4.22338 2.23868 4.23111 2.23 4.23885 2.22087ZM5.43118 1.4267L5.48444 1.34297L5.76442 1.53069L5.78918 1.49607L5.86769 1.55525L5.84609 1.58546L5.95096 1.65577L5.8977 1.73949L5.78836 1.66618L5.75456 1.71345L5.67605 1.65427L5.70669 1.61142L5.43118 1.4267ZM5.28508 1.7267L5.33834 1.64297L5.61832 1.83069L5.64308 1.79607L5.72159 1.85525L5.69999 1.88546L5.80485 1.95577L5.7516 2.03949L5.64226 1.96618L5.60846 2.01345L5.52995 1.95427L5.56059 1.91142L5.28508 1.7267ZM4.94417 1.8267L4.99743 1.74297L5.27741 1.93069L5.30217 1.89607L5.38068 1.95525L5.35908 1.98546L5.46395 2.05577L5.41069 2.13949L5.30135 2.06618L5.26755 2.11345L5.18904 2.05427L5.21968 2.01142L4.94417 1.8267ZM5.47988 1.15296L5.53314 1.23668L5.81312 1.04896L5.83788 1.08358L5.91639 1.0244L5.8948 0.994195L5.99966 0.923885L5.9464 0.840158L5.83706 0.913467L5.80326 0.866202L5.72475 0.925384L5.75539 0.968229L5.47988 1.15296ZM5.33378 0.852956L5.38704 0.936682L5.66702 0.748957L5.69178 0.783579L5.77029 0.724397L5.74869 0.694195L5.85356 0.623884L5.8003 0.540158L5.69096 0.613467L5.65716 0.566202L5.57865 0.625384L5.60929 0.668229L5.33378 0.852956ZM4.99287 0.752956L5.04613 0.836682L5.32611 0.648957L5.35087 0.683579L5.42938 0.624397L5.40778 0.594195L5.51265 0.523885L5.45939 0.440158L5.35005 0.513467L5.31625 0.466202L5.23774 0.525384L5.26838 0.568229L4.99287 0.752956Z" fill="#C51918"/>
<path fill-rule="evenodd" clip-rule="evenodd" d="M3.87973 0.720728L4.43131 0.428223V1.22822H5.79495L5.47002 1.46224V1.76842H4.95575L4.40416 2.06092V1.26092H3.04053L3.36545 1.0269V0.720728H3.87973Z" fill="#C51918"/>
<path fill-rule="evenodd" clip-rule="evenodd" d="M4.95572 0.720728L4.40414 0.428223V1.22822H3.0405L3.36543 1.46224V1.76842H3.8797L4.43129 2.06092V1.26092H5.79492L5.46999 1.0269V0.720728H4.95572Z" fill="#29AE66"/>
<path fill-rule="evenodd" clip-rule="evenodd" d="M3.61182 0.92835L3.70182 0.750977L3.93078 0.873438L3.99386 0.779587L4.1542 0.893178L4.10488 0.966555L4.78257 1.32902L4.82435 1.26686L4.98469 1.38045L4.95667 1.42214L5.02987 1.46129L4.93987 1.63867L4.84517 1.58802L4.76831 1.70238L4.60797 1.58879L4.67108 1.4949L3.99339 1.13244L3.93782 1.21511L3.77748 1.10152L3.81929 1.03932L3.61182 0.92835Z" fill="#29AE66"/>
<path fill-rule="evenodd" clip-rule="evenodd" d="M5.05607 0.879578L4.95392 0.708915L4.73405 0.84705L4.66458 0.757828L4.51256 0.882327L4.56688 0.952085L3.91612 1.36094L3.87011 1.30185L3.71809 1.42635L3.74894 1.46598L3.67865 1.51014L3.78081 1.68081L3.87174 1.62368L3.95639 1.7324L4.10842 1.6079L4.03891 1.51864L4.68967 1.10978L4.75087 1.18838L4.90289 1.06388L4.85685 1.00475L5.05607 0.879578Z" fill="#C51918"/>
</g>
<path fill-rule="evenodd" clip-rule="evenodd" d="M11.9209 1.25C11.9209 1.25 13.3772 4.701 12.0833 6.16657C10.7894 7.63215 7.5 7.34959 7.5 7.34959C7.5 7.34959 11.7228 9.25687 13.5626 6.63066C15.4024 4.00446 11.9209 1.25 11.9209 1.25Z" fill="#F7FCFF"/>
<path fill-rule="evenodd" clip-rule="evenodd" d="M9.27777 3.28044L8.89243 3.55167L9.02838 3.09715L8.65428 2.81026L9.12364 2.80059L9.27777 2.35205L9.43191 2.80059L9.90127 2.81026L9.52717 3.09715L9.66312 3.55167L9.27777 3.28044ZM9.35232 4.53377L8.96697 4.805L9.10292 4.35048L8.72882 4.0636L9.19818 4.05392L9.35232 3.60538L9.50645 4.05392L9.97581 4.0636L9.60171 4.35048L9.73766 4.805L9.35232 4.53377ZM7.79553 4.9018L8.18087 4.63057L8.56621 4.9018L8.43027 4.44728L8.80437 4.1604L8.33501 4.15072L8.18087 3.70218L8.02673 4.15072L7.55737 4.1604L7.93147 4.44728L7.79553 4.9018ZM9.35232 5.84844L8.96697 6.11967L9.10292 5.66515L8.72882 5.37826L9.19818 5.36859L9.35232 4.92005L9.50645 5.36859L9.97581 5.37826L9.60171 5.66515L9.73766 6.11967L9.35232 5.84844ZM10.2405 4.42195L10.6258 4.15072L11.0112 4.42195L10.8752 3.96744L11.2493 3.68055L10.78 3.67088L10.6258 3.22234L10.4717 3.67088L10.0023 3.68055L10.3764 3.96744L10.2405 4.42195Z" fill="#F7FCFF"/>
</g>
</g>
<rect x="0.5" y="0.5" width="19" height="14" rx="0.5" stroke="black" stroke-opacity="0.1"/>
<defs>
<clipPath id="clip0_85465_16184">
<rect width="20" height="15" rx="1" fill="white"/>
</clipPath>
</defs>
</svg>
