<svg width="20" height="15" viewBox="0 0 20 15" fill="none" xmlns="http://www.w3.org/2000/svg">
<g clip-path="url(#clip0_85465_16450)">
<rect width="20" height="15" rx="1" fill="white"/>
<path fill-rule="evenodd" clip-rule="evenodd" d="M0 0V15H20V0H0Z" fill="#E31D1C"/>
<mask id="mask0_85465_16450" style="mask-type:luminance" maskUnits="userSpaceOnUse" x="0" y="0" width="20" height="15">
<path fill-rule="evenodd" clip-rule="evenodd" d="M0 0V15H20V0H0Z" fill="white"/>
</mask>
<g mask="url(#mask0_85465_16450)">
<path fill-rule="evenodd" clip-rule="evenodd" d="M10 12.5C12.7614 12.5 15 10.2614 15 7.5C15 4.73858 12.7614 2.5 10 2.5C7.23858 2.5 5 4.73858 5 7.5C5 10.2614 7.23858 12.5 10 12.5Z" fill="#F7FCFF"/>
<path fill-rule="evenodd" clip-rule="evenodd" d="M10.8766 11.0317C10.8766 11.0317 8.24134 10.3128 8.24134 7.48341C8.24134 4.65404 10.8766 3.87346 10.8766 3.87346C9.78689 3.45171 6.59791 4.09882 6.59791 7.48341C6.59791 10.868 9.87585 11.4775 10.8766 11.0317ZM10.7315 6.86772L9.42408 7.34542L10.8293 7.83661L10.8766 9.15219L11.7317 8.13014L13.1418 8.23023L12.1259 7.40139L12.7377 6.20445L11.5426 6.60673L10.7146 5.57178L10.7315 6.86772Z" fill="#E31D1C"/>
</g>
</g>
<rect x="0.5" y="0.5" width="19" height="14" rx="0.5" stroke="black" stroke-opacity="0.1"/>
<defs>
<clipPath id="clip0_85465_16450">
<rect width="20" height="15" rx="1" fill="white"/>
</clipPath>
</defs>
</svg>
