<svg width="20" height="15" viewBox="0 0 20 15" fill="none" xmlns="http://www.w3.org/2000/svg">
<g clip-path="url(#clip0_85465_16482)">
<rect width="20" height="15" rx="1" fill="white"/>
<path fill-rule="evenodd" clip-rule="evenodd" d="M0 0V15H20V0H0Z" fill="#00B4FF"/>
<g clip-path="url(#clip1_85465_16482)">
<rect width="11" height="9" fill="#2E42A5"/>
<path d="M-1.25269 8.1247L1.22291 9.21045L11.3062 1.18028L12.612 -0.433182L9.96468 -0.796071L5.85197 2.66436L2.54165 4.99588L-1.25269 8.1247Z" fill="#F7FCFF"/>
<path d="M-0.913818 8.88555L0.347383 9.51562L12.143 -0.582947H10.3721L-0.913818 8.88555Z" fill="#F50100"/>
<path d="M12.5027 8.1248L10.3056 9.52051L-0.0561562 1.18038L-1.36198 -0.433076L1.28532 -0.795966L5.39803 2.66447L8.70835 4.99599L12.5027 8.1248Z" fill="#F7FCFF"/>
<path d="M12.4182 8.6707L11.157 9.30078L6.13431 4.97706L4.64518 4.49398L-1.48763 -0.427604H0.283246L6.41261 4.37716L8.04071 4.95642L12.4182 8.6707Z" fill="#F50100"/>
<path fill-rule="evenodd" clip-rule="evenodd" d="M6 0H5V4H0V5H5V9H6V5H11V4H6V0Z" fill="#F50100"/>
<path fill-rule="evenodd" clip-rule="evenodd" d="M4.0625 0H6.9375V3.0625L11 3V5.875L6.9375 5.9375V9H4.0625V5.9375L0 5.875V3L4.0625 3.0625V0ZM5 4H0V5H5V9H6V5H11V4H6V0H5V4Z" fill="#F7FCFF"/>
</g>
<path fill-rule="evenodd" clip-rule="evenodd" d="M16.7855 6.67818L17.165 5.97478L17.9975 5.94991L17.3529 5.41154L17.5752 4.68491L17.0195 5.01881L16.3169 4.59277L16.385 5.40006L15.7555 5.77826L16.5726 5.8804L16.7855 6.67818ZM14.665 7.22478L14.2855 7.92818L14.0726 7.1304L13.2555 7.02826L13.885 6.65006L13.8169 5.84277L14.5195 6.26881L15.0752 5.93491L14.8529 6.66154L15.4975 7.19991L14.665 7.22478ZM13.0355 9.17818L13.415 8.47478L14.2475 8.44991L13.6029 7.91154L13.8252 7.18491L13.2695 7.51881L12.5669 7.09277L12.635 7.90006L12.0055 8.27826L12.8226 8.3804L13.0355 9.17818ZM10.5355 11.6782L10.915 10.9748L11.7475 10.9499L11.1029 10.4115L11.3252 9.68491L10.7695 10.0188L10.0669 9.59277L10.135 10.4001L9.50553 10.7783L10.3226 10.8804L10.5355 11.6782ZM8.10887 13.5849L7.4213 13.9924L7.64972 13.1989L7.00195 12.6905H7.73627L8.09375 11.9635L8.47651 12.6905H9.1248L8.56007 13.1989L8.83533 13.9924L8.10887 13.5849ZM10.915 13.4748L10.5355 14.1782L10.3226 13.3804L9.50553 13.2783L10.135 12.9001L10.0669 12.0928L10.7695 12.5188L11.3252 12.1849L11.1029 12.9115L11.7475 13.4499L10.915 13.4748ZM13.415 12.2248L13.0355 12.9282L12.8226 12.1304L12.0055 12.0283L12.635 11.6501L12.5669 10.8428L13.2695 11.2688L13.8252 10.9349L13.6029 11.6615L14.2475 12.1999L13.415 12.2248ZM15.915 10.9748L15.5355 11.6782L15.3226 10.8804L14.5055 10.7783L15.135 10.4001L15.0669 9.59277L15.7695 10.0188L16.3252 9.68491L16.1029 10.4115L16.7475 10.9499L15.915 10.9748ZM16.7855 10.4282L17.165 9.72478L17.9975 9.69991L17.3529 9.16154L17.5752 8.43491L17.0195 8.76881L16.3169 8.34277L16.385 9.15006L15.7555 9.52826L16.5726 9.6304L16.7855 10.4282Z" fill="#FFD018"/>
</g>
<rect x="0.5" y="0.5" width="19" height="14" rx="0.5" stroke="black" stroke-opacity="0.1"/>
<defs>
<clipPath id="clip0_85465_16482">
<rect width="20" height="15" rx="1" fill="white"/>
</clipPath>
<clipPath id="clip1_85465_16482">
<rect width="11" height="9" fill="white"/>
</clipPath>
</defs>
</svg>
