<svg width="20" height="15" viewBox="0 0 20 15" fill="none" xmlns="http://www.w3.org/2000/svg">
<g clip-path="url(#clip0_85465_16523)">
<rect width="20" height="15" rx="1" fill="white"/>
<path fill-rule="evenodd" clip-rule="evenodd" d="M0 0V15H20V0H0Z" fill="#FECA00"/>
<mask id="mask0_85465_16523" style="mask-type:luminance" maskUnits="userSpaceOnUse" x="0" y="0" width="20" height="15">
<path fill-rule="evenodd" clip-rule="evenodd" d="M0 0V15H20V0H0Z" fill="white"/>
</mask>
<g mask="url(#mask0_85465_16523)">
<rect width="20" height="2.5" fill="#272727"/>
<rect y="5" width="20" height="2.5" fill="#D74800"/>
<rect y="7.5" width="20" height="2.5" fill="#272727"/>
<rect y="12.5" width="20" height="2.5" fill="#D74800"/>
<path fill-rule="evenodd" clip-rule="evenodd" d="M10 11.25C12.0711 11.25 13.75 9.57107 13.75 7.5C13.75 5.42893 12.0711 3.75 10 3.75C7.92893 3.75 6.25 5.42893 6.25 7.5C6.25 9.57107 7.92893 11.25 10 11.25Z" fill="#F7FCFF"/>
<path fill-rule="evenodd" clip-rule="evenodd" d="M8.54978 5.20546L7.88854 5.42243L8.54978 5.47904C8.54978 5.47904 8.65668 5.74051 8.54978 5.94463C8.52264 5.99644 8.45264 6.06283 8.36329 6.14756C8.10066 6.39662 7.67085 6.80423 7.67085 7.46646C7.67085 8.354 9.38368 8.75642 9.38368 8.75642V9.1781C9.38368 9.1781 9.58249 9.30158 8.44823 9.30158C7.46458 9.30158 7.5261 9.67498 7.55978 9.8794C7.56494 9.9107 7.56944 9.93804 7.56944 9.95946C7.56944 10.1209 8.04222 9.79808 8.26353 9.47671C8.38003 9.30754 8.86788 9.31647 9.36858 9.36288C9.4081 9.36654 9.77318 10.1399 9.45624 10.5394C9.3231 10.7072 8.8633 10.7291 8.57603 10.7427C8.42955 10.7497 8.32792 10.7545 8.33735 10.7755C8.34442 10.7912 8.43105 10.786 8.55698 10.7785C8.71414 10.7691 8.9325 10.7561 9.13376 10.7755C9.1643 10.7784 9.04586 10.8812 8.9261 10.9852C8.80276 11.0922 8.67801 11.2005 8.71317 11.2022C8.75268 11.204 8.98366 11.0761 9.19351 10.9598C9.36711 10.8636 9.52625 10.7755 9.55053 10.7755C9.70888 10.7755 9.85186 10.795 9.97727 10.8122C10.1869 10.8408 10.3474 10.8627 10.4485 10.7755C10.4796 10.7486 10.2992 10.7054 10.1152 10.6613C9.92568 10.6159 9.7324 10.5696 9.76286 10.5394C9.93708 10.3665 9.8643 10.0041 9.80698 9.71867C9.78126 9.59063 9.75866 9.47808 9.76286 9.40507C9.77778 9.14584 10.052 9.28182 10.2675 9.38869C10.3619 9.43549 10.445 9.47671 10.4901 9.47671C10.8982 9.47671 10.3915 8.96053 10.1134 8.6772C10.089 8.65237 10.0664 8.62933 10.0463 8.60858C9.90481 8.46252 10.004 8.48215 10.2283 8.52649C10.3994 8.56034 10.6434 8.60858 10.9088 8.60858C11.5219 8.60858 11.9694 8.4094 11.8139 7.87007C11.7114 7.51425 11.1498 7.39318 10.5632 7.26669C10.2606 7.20145 9.95132 7.13477 9.69489 7.03369C9.06399 6.78502 9.09616 6.42247 9.12336 6.1159C9.12865 6.05627 9.13376 5.99877 9.13376 5.94463C9.13376 5.61212 9.69489 5.20546 9.69489 5.20546C9.69489 5.20546 9.4388 4.77637 9.01413 4.77637C8.58946 4.77637 8.54978 5.20546 8.54978 5.20546ZM9.7049 9.11036V8.79676C9.7049 8.79676 9.96712 8.78811 10.0591 9.00871C10.1511 9.22931 9.7049 9.11036 9.7049 9.11036Z" fill="#272727"/>
<path fill-rule="evenodd" clip-rule="evenodd" d="M8.1731 4.19464L8.80657 4.94586L9.13463 4.86869L8.9773 4.11035L8.1731 4.19464Z" fill="#D74800"/>
<path fill-rule="evenodd" clip-rule="evenodd" d="M8.99552 4.01298L9.03636 5.14238L9.57728 5.00928L9.80763 4.26959L8.99552 4.01298Z" fill="#FFD018"/>
<path fill-rule="evenodd" clip-rule="evenodd" d="M8.48563 5.89941C8.60512 5.89941 8.70198 5.80497 8.70198 5.68848C8.70198 5.57198 8.60512 5.47754 8.48563 5.47754C8.36615 5.47754 8.26929 5.57198 8.26929 5.68848C8.26929 5.80497 8.36615 5.89941 8.48563 5.89941Z" fill="#D74800"/>
<path fill-rule="evenodd" clip-rule="evenodd" d="M9.86035 4.2246L9.23055 4.9789L9.36351 5.28858L10.083 5.00195L9.86035 4.2246Z" fill="#D74800"/>
<path fill-rule="evenodd" clip-rule="evenodd" d="M11.3242 9.93313C11.3242 9.93313 12.432 9.43827 12.432 8.74621C12.432 8.05414 10.6333 7.30029 10.6333 7.30029C10.6333 7.30029 9.57519 7.54245 10.0521 7.86652C10.529 8.19059 11.168 8.31509 11.168 8.74621C11.168 9.17733 11.343 9.58842 10.9881 9.58842C10.6333 9.58842 11.3242 9.93313 11.3242 9.93313Z" fill="#D74800"/>
<path fill-rule="evenodd" clip-rule="evenodd" d="M9.72596 7.17383C9.72596 7.17383 9.33417 7.24265 9.35277 7.30629C9.4042 7.48221 9.93991 7.71134 10.1734 7.87C10.6503 8.19406 11.1025 8.15766 11.4388 7.94676C11.7752 7.73586 9.72596 7.17383 9.72596 7.17383Z" fill="#FFFDFF"/>
</g>
</g>
<rect x="0.5" y="0.5" width="19" height="14" rx="0.5" stroke="black" stroke-opacity="0.1"/>
<defs>
<clipPath id="clip0_85465_16523">
<rect width="20" height="15" rx="1" fill="white"/>
</clipPath>
</defs>
</svg>
