<svg width="20" height="15" viewBox="0 0 20 15" fill="none" xmlns="http://www.w3.org/2000/svg">
<g clip-path="url(#clip0_85465_16574)">
<rect width="20" height="15" rx="1" fill="white"/>
<path fill-rule="evenodd" clip-rule="evenodd" d="M0 0H20V15H0V0Z" fill="#E31D1C"/>
<path fill-rule="evenodd" clip-rule="evenodd" d="M0 1.25V2.5H20V1.25H0ZM0 3.75V5H20V3.75H0ZM0 7.5V6.25H20V7.5H0ZM0 8.75V10H20V8.75H0ZM0 12.5V11.25H20V12.5H0ZM0 15V13.75H20V15H0Z" fill="#F7FCFF"/>
<rect width="11.25" height="8.75" fill="#2E42A5"/>
<path fill-rule="evenodd" clip-rule="evenodd" d="M1.73569 2.60029L2.16376 2.30211L2.57795 2.60029L2.44918 2.06964L2.78181 1.73336H2.35846L2.16316 1.30029L1.9966 1.73336H1.5L1.88021 2.06964L1.73569 2.60029ZM4.23569 2.60029L4.66376 2.30211L5.07795 2.60029L4.94918 2.06964L5.28181 1.73336H4.85846L4.66316 1.30029L4.4966 1.73336H4L4.38021 2.06964L4.23569 2.60029ZM7.16376 2.30211L6.73569 2.60029L6.88021 2.06964L6.5 1.73336H6.9966L7.16316 1.30029L7.35846 1.73336H7.78181L7.44918 2.06964L7.57795 2.60029L7.16376 2.30211ZM9.23569 2.60029L9.66376 2.30211L10.078 2.60029L9.94918 2.06964L10.2818 1.73336H9.85846L9.66316 1.30029L9.4966 1.73336H9L9.38021 2.06964L9.23569 2.60029ZM2.16376 4.80211L1.73569 5.10029L1.88021 4.56964L1.5 4.23336H1.9966L2.16316 3.80029L2.35846 4.23336H2.78181L2.44918 4.56964L2.57795 5.10029L2.16376 4.80211ZM4.23569 5.10029L4.66376 4.80211L5.07795 5.10029L4.94918 4.56964L5.28181 4.23336H4.85846L4.66316 3.80029L4.4966 4.23336H4L4.38021 4.56964L4.23569 5.10029ZM7.16376 4.80211L6.73569 5.10029L6.88021 4.56964L6.5 4.23336H6.9966L7.16316 3.80029L7.35846 4.23336H7.78181L7.44918 4.56964L7.57795 5.10029L7.16376 4.80211ZM9.23569 5.10029L9.66376 4.80211L10.078 5.10029L9.94918 4.56964L10.2818 4.23336H9.85846L9.66316 3.80029L9.4966 4.23336H9L9.38021 4.56964L9.23569 5.10029ZM2.16376 7.30211L1.73569 7.60029L1.88021 7.06964L1.5 6.73336H1.9966L2.16316 6.30029L2.35846 6.73336H2.78181L2.44918 7.06964L2.57795 7.60029L2.16376 7.30211ZM4.23569 7.60029L4.66376 7.30211L5.07795 7.60029L4.94918 7.06964L5.28181 6.73336H4.85846L4.66316 6.30029L4.4966 6.73336H4L4.38021 7.06964L4.23569 7.60029ZM7.16376 7.30211L6.73569 7.60029L6.88021 7.06964L6.5 6.73336H6.9966L7.16316 6.30029L7.35846 6.73336H7.78181L7.44918 7.06964L7.57795 7.60029L7.16376 7.30211ZM9.23569 7.60029L9.66376 7.30211L10.078 7.60029L9.94918 7.06964L10.2818 6.73336H9.85846L9.66316 6.30029L9.4966 6.73336H9L9.38021 7.06964L9.23569 7.60029ZM3.41376 3.55211L2.98569 3.85029L3.13021 3.31964L2.75 2.98336H3.2466L3.41316 2.55029L3.60846 2.98336H4.03181L3.69918 3.31964L3.82795 3.85029L3.41376 3.55211ZM5.48569 3.85029L5.91376 3.55211L6.32795 3.85029L6.19918 3.31964L6.53181 2.98336H6.10846L5.91316 2.55029L5.7466 2.98336H5.25L5.63021 3.31964L5.48569 3.85029ZM8.41376 3.55211L7.98569 3.85029L8.13021 3.31964L7.75 2.98336H8.2466L8.41316 2.55029L8.60846 2.98336H9.03181L8.69918 3.31964L8.82795 3.85029L8.41376 3.55211ZM2.98569 6.35029L3.41376 6.05211L3.82795 6.35029L3.69918 5.81964L4.03181 5.48336H3.60846L3.41316 5.05029L3.2466 5.48336H2.75L3.13021 5.81964L2.98569 6.35029ZM5.91376 6.05211L5.48569 6.35029L5.63021 5.81964L5.25 5.48336H5.7466L5.91316 5.05029L6.10846 5.48336H6.53181L6.19918 5.81964L6.32795 6.35029L5.91376 6.05211ZM7.98569 6.35029L8.41376 6.05211L8.82795 6.35029L8.69918 5.81964L9.03181 5.48336H8.60846L8.41316 5.05029L8.2466 5.48336H7.75L8.13021 5.81964L7.98569 6.35029Z" fill="#F7FCFF"/>
</g>
<rect x="0.5" y="0.5" width="19" height="14" rx="0.5" stroke="black" stroke-opacity="0.1"/>
<defs>
<clipPath id="clip0_85465_16574">
<rect width="20" height="15" rx="1" fill="white"/>
</clipPath>
</defs>
</svg>
