<svg width="20" height="15" viewBox="0 0 20 15" fill="none" xmlns="http://www.w3.org/2000/svg">
<g clip-path="url(#clip0_85465_16639)">
<rect width="20" height="15" rx="1" fill="white"/>
<path fill-rule="evenodd" clip-rule="evenodd" d="M0 0H20V15H0V0Z" fill="#F7FCFF"/>
<path fill-rule="evenodd" clip-rule="evenodd" d="M0 0H8.75V15H0V0Z" fill="#FFDC17"/>
<path d="M14.2385 7.96924L14.0227 7.98329C14.0743 8.7244 14.2335 9.29688 14.5037 9.70088C14.9394 10.3524 15.5145 10.8561 15.8992 10.8561C15.9866 10.8561 16.007 10.8886 15.9782 10.9687C15.9372 11.0827 15.8075 11.1947 15.6408 11.2377C15.3634 11.3093 14.7326 11.3463 13.759 11.3463V11.5556C14.7521 11.5556 15.3943 11.5179 15.6964 11.44C15.9311 11.3795 16.1172 11.2185 16.1823 11.0376C16.2576 10.8283 16.144 10.6468 15.8992 10.6468C15.6135 10.6468 15.0833 10.1824 14.6852 9.58713C14.4377 9.21715 14.2877 8.6778 14.2385 7.96924Z" fill="#AF0100"/>
<path d="M13.2169 7.96924L13.4326 7.98329C13.3811 8.7244 13.2218 9.29688 12.9517 9.70088C12.5159 10.3524 11.9409 10.8561 11.5561 10.8561C11.4687 10.8561 11.4483 10.8886 11.4772 10.9687C11.5182 11.0827 11.6478 11.1947 11.8145 11.2377C12.0919 11.3093 12.7227 11.3463 13.6963 11.3463V11.5556C12.7032 11.5556 12.061 11.5179 11.7589 11.44C11.5243 11.3795 11.3381 11.2185 11.273 11.0376C11.1977 10.8283 11.3113 10.6468 11.5561 10.6468C11.8419 10.6468 12.372 10.1824 12.7702 9.58713C13.0176 9.21715 13.1676 8.6778 13.2169 7.96924Z" fill="#AF0100"/>
<path fill-rule="evenodd" clip-rule="evenodd" d="M17.5415 4.24854L11.8281 8.70229C11.6281 8.63711 11.4097 8.60144 11.1822 8.60144C10.2552 8.60144 9.47949 9.19353 9.47949 9.96191C9.47949 10.7303 10.2552 11.3224 11.1822 11.3224C11.2885 11.3224 11.3928 11.3146 11.4942 11.2996C11.4004 11.2264 11.3304 11.1348 11.2954 11.0375C11.2532 10.9204 11.2703 10.812 11.3363 10.7392C11.2861 10.7442 11.2346 10.7468 11.1822 10.7468C10.5568 10.7468 10.0741 10.3784 10.0741 9.96191C10.0741 9.54544 10.5568 9.17703 11.1822 9.17703C11.8076 9.17703 12.2903 9.54544 12.2903 9.96191C12.2903 10.0893 12.2451 10.2122 12.1645 10.3215C12.1797 10.3079 12.1949 10.2941 12.2102 10.2798C12.4082 10.0955 11.9632 10.8561 11.5785 10.8561C11.4911 10.8561 11.4707 10.8885 11.4995 10.9687C11.5379 11.0754 11.6541 11.1805 11.8057 11.2287C12.4324 11.0327 12.8849 10.5487 12.8849 9.96191C12.8849 9.72187 12.8092 9.49903 12.6768 9.30608L15.7474 6.70007L15.9529 6.91241L16.1008 6.77824L16.6137 7.15836L16.3993 7.32369L16.837 7.8558L17.7202 7.17497L17.7351 7.16724L17.7325 7.16544L17.7873 7.12325L17.3495 6.59114L17.1379 6.7543L16.5644 6.35781L16.6316 6.29684L16.4471 6.10621L16.7245 5.87073L16.8718 6.02288L17.0299 5.87945L17.5272 6.27305L17.3182 6.43416L17.7559 6.96627L18.5125 6.38305L18.5991 6.33561L18.5865 6.32595L18.7062 6.23371L18.2684 5.7016L18.0212 5.89221L17.4765 5.47438L17.5505 5.4073L17.4242 5.27687L17.9895 4.7971L17.5415 4.24854Z" fill="#F4B300"/>
<path fill-rule="evenodd" clip-rule="evenodd" d="M9.80389 9.20335C9.96808 9.20335 10.1012 9.09793 10.1012 8.96789C10.1012 8.83784 9.96808 8.73242 9.80389 8.73242C9.6397 8.73242 9.50659 8.83784 9.50659 8.96789C9.50659 9.09793 9.6397 9.20335 9.80389 9.20335ZM9.912 11.3487C10.0762 11.3487 10.2093 11.2433 10.2093 11.1132C10.2093 10.9832 10.0762 10.8778 9.912 10.8778C9.7478 10.8778 9.6147 10.9832 9.6147 11.1132C9.6147 11.2433 9.7478 11.3487 9.912 11.3487ZM12.8579 11.1132C12.8579 11.2433 12.7248 11.3487 12.5606 11.3487C12.3965 11.3487 12.2633 11.2433 12.2633 11.1132C12.2633 10.9832 12.3965 10.8778 12.5606 10.8778C12.7248 10.8778 12.8579 10.9832 12.8579 11.1132Z" fill="#BFBFBF"/>
<path fill-rule="evenodd" clip-rule="evenodd" d="M14.6149 9.96192C14.6149 9.61655 14.7716 9.3068 15.0283 9.07042L11.7474 6.52959L11.7099 6.55839L11.8056 6.64513L11.5469 6.91242L11.4107 6.78888L10.9084 7.17565L11.1005 7.3237L10.6627 7.85581L9.78901 7.18225L9.76464 7.16725L9.76723 7.16545L9.71249 7.12325L10.1503 6.59114L10.3619 6.75431L10.9354 6.35782L10.8682 6.29685L11.1161 6.04072L10.8272 5.81702L10.628 6.02289L10.4758 5.88484L9.98488 6.28254L10.1816 6.43417L9.74381 6.96628L9.01134 6.4016L8.90064 6.33562L8.91322 6.32596L8.79357 6.23372L9.23133 5.70161L9.47858 5.89222L10.0232 5.47439L9.94926 5.40731L10.0987 5.25287L9.51022 4.79711L9.88166 4.34766L15.5578 8.74334C15.7876 8.65223 16.0461 8.60145 16.3176 8.60145C17.2445 8.60145 18.0203 9.19354 18.0203 9.96192C18.0203 10.7303 17.2445 11.3224 16.3176 11.3224C16.2113 11.3224 16.1069 11.3146 16.0055 11.2996C16.0993 11.2264 16.1694 11.1349 16.2044 11.0375C16.2465 10.9204 16.2295 10.812 16.1634 10.7392C16.2137 10.7442 16.2651 10.7468 16.3176 10.7468C16.943 10.7468 17.4257 10.3784 17.4257 9.96192C17.4257 9.54545 16.943 9.17703 16.3176 9.17703C15.6921 9.17703 15.2095 9.54545 15.2095 9.96192C15.2095 10.0893 15.2546 10.2122 15.3353 10.3215C15.3201 10.308 15.3048 10.2941 15.2896 10.2798C15.0916 10.0955 15.5365 10.8561 15.9213 10.8561C16.0087 10.8561 16.029 10.8885 16.0002 10.9687C15.9618 11.0754 15.8457 11.1805 15.694 11.2287C15.0673 11.0327 14.6149 10.5487 14.6149 9.96192Z" fill="#BFBFBF"/>
<path fill-rule="evenodd" clip-rule="evenodd" d="M17.6959 9.20335C17.5317 9.20335 17.3986 9.09793 17.3986 8.96789C17.3986 8.83784 17.5317 8.73242 17.6959 8.73242C17.8601 8.73242 17.9932 8.83784 17.9932 8.96789C17.9932 9.09793 17.8601 9.20335 17.6959 9.20335ZM17.5878 11.3487C17.4236 11.3487 17.2905 11.2433 17.2905 11.1132C17.2905 10.9832 17.4236 10.8778 17.5878 10.8778C17.752 10.8778 17.8851 10.9832 17.8851 11.1132C17.8851 11.2433 17.752 11.3487 17.5878 11.3487ZM14.6418 11.1132C14.6418 11.2433 14.7749 11.3487 14.9391 11.3487C15.1033 11.3487 15.2364 11.2433 15.2364 11.1132C15.2364 10.9832 15.1033 10.8778 14.9391 10.8778C14.7749 10.8778 14.6418 10.9832 14.6418 11.1132Z" fill="#F4B300"/>
<path fill-rule="evenodd" clip-rule="evenodd" d="M13.5876 7.37207C13.5429 7.37207 13.5066 7.40837 13.5066 7.45315V7.79067H13.2067C13.1633 7.79067 13.1282 7.82582 13.1282 7.86916C13.1282 7.91251 13.1633 7.94765 13.2067 7.94765H13.5066V12.4189C13.5066 12.4637 13.5429 12.5 13.5876 12.5H13.7498C13.7946 12.5 13.8309 12.4637 13.8309 12.4189V7.94765H14.2929C14.3363 7.94765 14.3714 7.91251 14.3714 7.86916C14.3714 7.82582 14.3363 7.79067 14.2929 7.79067H13.8309V7.45315C13.8309 7.40837 13.7946 7.37207 13.7498 7.37207H13.5876Z" fill="#AF0100"/>
<path fill-rule="evenodd" clip-rule="evenodd" d="M10.4714 4.74601L10.6037 4.8368C10.912 4.41577 11.1895 4.3312 11.4717 4.55217C11.959 4.93366 12.0012 5.86442 11.4801 6.17605C10.8587 6.54772 10.5437 7.27254 10.8192 7.66702C11.0735 8.03102 11.6865 7.89327 12.2917 7.43606C12.3992 7.35489 12.5016 7.26823 12.5979 7.17717L12.47 7.07847C12.3824 7.16048 12.2894 7.23874 12.192 7.31231C11.6522 7.72012 11.1335 7.83666 10.9536 7.57908C10.7388 7.27158 11.0133 6.63973 11.5653 6.3096C12.1898 5.93617 12.1416 4.87476 11.5737 4.43012C11.2074 4.14333 10.8281 4.25893 10.4714 4.74601ZM12.8514 6.65305L12.9833 6.74455C13.2128 6.43483 13.3696 6.09941 13.4217 5.76905L13.2614 5.74538C13.2134 6.04965 13.0668 6.36236 12.8514 6.65305Z" fill="#979797"/>
<path fill-rule="evenodd" clip-rule="evenodd" d="M17.0432 4.74601L16.9109 4.8368C16.6026 4.41577 16.3251 4.3312 16.0429 4.55217C15.5557 4.93366 15.5135 5.86442 16.0345 6.17605C16.656 6.54772 16.971 7.27254 16.6954 7.66702C16.4411 8.03102 15.8281 7.89327 15.2229 7.43606C15.1155 7.35489 15.013 7.26823 14.9168 7.17717L15.0446 7.07847C15.1323 7.16048 15.2253 7.23874 15.3227 7.31231C15.8625 7.72012 16.3812 7.83666 16.5611 7.57908C16.7759 7.27158 16.5013 6.63973 15.9493 6.3096C15.3249 5.93617 15.373 4.87476 15.9409 4.43012C16.3072 4.14333 16.6865 4.25893 17.0432 4.74601ZM14.6633 6.65305L14.5313 6.74455C14.3018 6.43483 14.145 6.09941 14.093 5.76905L14.2533 5.74538C14.3012 6.04965 14.4478 6.36236 14.6633 6.65305Z" fill="#979797"/>
<path fill-rule="evenodd" clip-rule="evenodd" d="M13.6688 12.5104C13.8479 12.5104 13.9931 12.4378 13.9931 12.3482C13.9931 12.2586 13.8479 12.186 13.6688 12.186C13.4897 12.186 13.3445 12.2586 13.3445 12.3482C13.3445 12.4378 13.4897 12.5104 13.6688 12.5104Z" fill="#AF0100"/>
<path fill-rule="evenodd" clip-rule="evenodd" d="M13.6146 5.76217C14.2415 5.76217 14.7498 5.67746 14.7498 5.57298C14.7498 5.46849 14.2415 5.38379 13.6146 5.38379C12.9877 5.38379 12.4795 5.46849 12.4795 5.57298C12.4795 5.67746 12.9877 5.76217 13.6146 5.76217Z" fill="#AF0100"/>
<path fill-rule="evenodd" clip-rule="evenodd" d="M13.6787 1.27393H13.5165V1.46088H13.363V1.61786H13.5165V2.07598H13.6787V1.61786H13.8658V1.46088H13.6787V1.27393ZM12.4593 3.53537L12.3869 3.41345C12.4266 3.39682 12.467 3.38113 12.5083 3.36637L12.2974 2.90373L12.4457 2.84034L12.6629 3.31662C12.709 3.30335 12.7559 3.29114 12.8038 3.27998C12.7705 3.24224 12.7499 3.19061 12.7499 3.13366C12.7499 3.01807 12.8346 2.92436 12.9391 2.92436C13.0436 2.92436 13.1283 3.01807 13.1283 3.13366C13.1283 3.16629 13.1215 3.19716 13.1095 3.22469C13.238 3.20765 13.3721 3.19711 13.512 3.19303V3.01566H13.3089V2.88941H13.512V2.73904H13.7264V2.88941H13.9739V3.01566H13.7264V3.19179C13.8858 3.19456 14.0351 3.20564 14.1743 3.2251C14.1621 3.19748 14.1553 3.16645 14.1553 3.13366C14.1553 3.01807 14.24 2.92436 14.3445 2.92436C14.449 2.92436 14.5337 3.01807 14.5337 3.13366C14.5337 3.19286 14.5115 3.24632 14.4758 3.28439C14.5362 3.30016 14.5943 3.31793 14.6499 3.33771L14.8052 2.99731L14.9535 3.06071L14.7995 3.39839C14.8117 3.404 14.8238 3.40972 14.8357 3.41556L14.754 3.53326L14.7409 3.52694L14.716 3.58158L14.5676 3.51819L14.5919 3.46504C14.3553 3.38013 14.067 3.33427 13.7264 3.32809V3.38412H13.512V3.32938C13.1078 3.3417 12.7571 3.41053 12.4593 3.53537ZM12.3869 3.67507L12.4248 3.73882L12.2974 3.79327L12.5083 4.25591C12.467 4.27067 12.4266 4.28636 12.3869 4.30298L12.4593 4.42491C12.7571 4.30006 13.1078 4.23123 13.512 4.21891V4.27365H13.7264V4.21762C14.067 4.2238 14.3553 4.26967 14.5919 4.35457L14.5676 4.40772L14.716 4.47112L14.7409 4.41648L14.754 4.4228L14.8357 4.30509C14.8238 4.29925 14.8117 4.29353 14.7995 4.28792L14.9535 3.95025L14.8052 3.88685L14.6499 4.22724C14.5943 4.20746 14.5362 4.18969 14.4758 4.17393C14.5115 4.13586 14.5337 4.0824 14.5337 4.0232C14.5337 3.9076 14.449 3.8139 14.3445 3.8139C14.24 3.8139 14.1553 3.9076 14.1553 4.0232C14.1553 4.05599 14.1621 4.08701 14.1743 4.11464C14.0351 4.09518 13.8858 4.08409 13.7264 4.08133V3.90519H13.9739V3.77894H13.7264V3.62858H13.512V3.77894H13.3089V3.90519H13.512V4.08256C13.3721 4.08664 13.238 4.09719 13.1095 4.11422C13.1215 4.0867 13.1283 4.05582 13.1283 4.0232C13.1283 3.9076 13.0436 3.8139 12.9391 3.8139C12.8346 3.8139 12.7499 3.9076 12.7499 4.0232C12.7499 4.08014 12.7705 4.13178 12.8038 4.16951C12.7559 4.18067 12.709 4.19288 12.6629 4.20615L12.4736 3.79107C12.8009 3.65656 13.1915 3.58899 13.646 3.58899C14.1058 3.58899 14.4749 3.65812 14.754 3.79489L14.8357 3.67718C14.5293 3.52705 14.1325 3.45273 13.646 3.45273C13.1609 3.45273 12.741 3.52662 12.3869 3.67507ZM12.3869 4.56461L12.4248 4.62835L12.2974 4.6828L12.5083 5.14544C12.467 5.1602 12.4266 5.17589 12.3869 5.19252L12.4593 5.31444C12.7571 5.1896 13.1078 5.12077 13.512 5.10845V5.16319H13.7264V5.10716C14.067 5.11334 14.3553 5.1592 14.5919 5.24411L14.5676 5.29726L14.716 5.36065L14.7409 5.30601L14.754 5.31233L14.8357 5.19463C14.8238 5.18879 14.8117 5.18307 14.7995 5.17746L14.9535 4.83978L14.8052 4.77638L14.6499 5.11678C14.5943 5.097 14.5362 5.07923 14.4758 5.06346C14.5115 5.02539 14.5337 4.97193 14.5337 4.91273C14.5337 4.79714 14.449 4.70343 14.3445 4.70343C14.24 4.70343 14.1553 4.79714 14.1553 4.91273C14.1553 4.94552 14.1621 4.97655 14.1743 5.00417C14.0351 4.98471 13.8858 4.97363 13.7264 4.97086V4.79473H13.9739V4.66848H13.7264V4.51811H13.512V4.66848H13.3089V4.79473H13.512V4.9721C13.3721 4.97618 13.238 4.98672 13.1095 5.00376C13.1215 4.97623 13.1283 4.94536 13.1283 4.91273C13.1283 4.79714 13.0436 4.70343 12.9391 4.70343C12.8346 4.70343 12.7499 4.79714 12.7499 4.91273C12.7499 4.96968 12.7705 5.02131 12.8038 5.05905C12.7559 5.07021 12.709 5.08242 12.6629 5.09569L12.4736 4.68061C12.8009 4.5461 13.1915 4.47853 13.646 4.47853C14.1058 4.47853 14.4749 4.54766 14.754 4.68443L14.8357 4.56672C14.5293 4.41659 14.1325 4.34226 13.646 4.34226C13.1609 4.34226 12.741 4.41616 12.3869 4.56461ZM12.3869 5.45414L12.4593 5.57607C12.7895 5.43762 13.1848 5.36806 13.646 5.36806C14.1058 5.36806 14.4749 5.43719 14.754 5.57396L14.8357 5.45625C14.5293 5.30612 14.1325 5.2318 13.646 5.2318C13.1609 5.2318 12.741 5.30569 12.3869 5.45414Z" fill="#F4B300"/>
</g>
<rect x="0.5" y="0.5" width="19" height="14" rx="0.5" stroke="black" stroke-opacity="0.1"/>
<defs>
<clipPath id="clip0_85465_16639">
<rect width="20" height="15" rx="1" fill="white"/>
</clipPath>
</defs>
</svg>
