<svg width="20" height="15" viewBox="0 0 20 15" fill="none" xmlns="http://www.w3.org/2000/svg">
<g clip-path="url(#clip0_85465_16732)">
<rect width="20" height="15" rx="1" fill="white"/>
<path fill-rule="evenodd" clip-rule="evenodd" d="M0 0V15H20V0H0Z" fill="#2E42A5"/>
<mask id="mask0_85465_16732" style="mask-type:luminance" maskUnits="userSpaceOnUse" x="0" y="0" width="20" height="15">
<path fill-rule="evenodd" clip-rule="evenodd" d="M0 0V15H20V0H0Z" fill="white"/>
</mask>
<g mask="url(#mask0_85465_16732)">
<path fill-rule="evenodd" clip-rule="evenodd" d="M0 0V5H20V0H0Z" fill="#FECA00"/>
<path fill-rule="evenodd" clip-rule="evenodd" d="M0 10V15H20V10H0Z" fill="#E31D1C"/>
<path fill-rule="evenodd" clip-rule="evenodd" d="M7.9606 7.4123L8.57477 7.06388L9.26391 7.4123L9.01643 6.70416L9.53114 6.18379H8.87606L8.57385 5.51367L8.31612 6.18379H7.54767L8.12548 6.69486H7.47746L7.17525 6.02474L6.91752 6.69486H6.14907L6.73741 7.21523L6.62496 7.66919H6.13461L5.8324 6.99907L5.57467 7.66919H4.80622L5.39456 8.18956L5.28574 8.62884H5.07106L4.76885 7.95872L4.51112 8.62884H3.74268L4.33101 9.14921L4.1556 9.85735L4.76978 9.50892L5.45892 9.85735L5.21143 9.14921L5.72614 8.62884H5.69307L5.83332 8.54927L6.52246 8.8977L6.27497 8.18956L6.56992 7.89137L6.562 7.92337L7.17618 7.57494L7.86532 7.92337L7.61783 7.21523L8.12925 6.69818L8.13601 6.70416L7.9606 7.4123Z" fill="#F7FCFF"/>
<path fill-rule="evenodd" clip-rule="evenodd" d="M12.0144 7.38496L11.4002 7.03653L10.7111 7.38496L10.9585 6.67682L10.4438 6.15645H11.0989L11.4011 5.48633L11.6589 6.15645H12.4273L11.8495 6.66751H12.5006L12.8028 5.99739L13.0605 6.66751H13.829L13.2406 7.18788L13.3531 7.64184H13.8434L14.1456 6.97172L14.4034 7.64184H15.1718L14.5835 8.16222L14.6923 8.60149H14.907L15.2092 7.93137L15.4669 8.60149H16.2354L15.647 9.12187L15.8224 9.83L15.2082 9.48158L14.5191 9.83L14.7666 9.12187L14.2519 8.60149H14.285L14.1447 8.52193L13.4556 8.87036L13.7031 8.16222L13.4081 7.86402L13.416 7.89602L12.8019 7.5476L12.1127 7.89602L12.3602 7.18788L11.8474 6.6694L11.839 6.67682L12.0144 7.38496Z" fill="#F7FCFF"/>
<path fill-rule="evenodd" clip-rule="evenodd" d="M9.89575 6.58438L9.28157 6.93281L9.45699 6.22467L8.86865 5.7043H9.6371L9.89483 5.03418L10.197 5.7043H10.8521L10.3374 6.22467L10.5849 6.93281L9.89575 6.58438Z" fill="#F7FCFF"/>
</g>
</g>
<rect x="0.5" y="0.5" width="19" height="14" rx="0.5" stroke="black" stroke-opacity="0.1"/>
<defs>
<clipPath id="clip0_85465_16732">
<rect width="20" height="15" rx="1" fill="white"/>
</clipPath>
</defs>
</svg>
