<svg width="20" height="15" viewBox="0 0 20 15" fill="none" xmlns="http://www.w3.org/2000/svg">
<g clip-path="url(#clip0_85465_16756)">
<rect width="20" height="15" rx="1" fill="white"/>
<path fill-rule="evenodd" clip-rule="evenodd" d="M0 0V15H20V0H0Z" fill="#F7FCFF"/>
<mask id="mask0_85465_16756" style="mask-type:luminance" maskUnits="userSpaceOnUse" x="0" y="0" width="20" height="15">
<path fill-rule="evenodd" clip-rule="evenodd" d="M0 0V15H20V0H0Z" fill="white"/>
</mask>
<g mask="url(#mask0_85465_16756)">
<path fill-rule="evenodd" clip-rule="evenodd" d="M11.0016 5.13421C11.1528 5.22027 11.2435 5.44061 11.2435 5.44061H8.68852L8.8649 5.13421C8.8649 5.13421 8.68852 5.05415 8.77725 5.05415C8.86597 5.05415 9.11906 4.69907 9.11906 4.69907H9.01347C9.01347 4.69907 8.95915 4.61074 9.11906 4.61074C9.27897 4.61074 9.4067 4.0392 9.4067 4.0392C9.4067 4.0392 9.51161 3.7718 9.25479 3.70431C8.99797 3.63682 8.68852 3.92786 8.68852 3.92786C8.68852 3.92786 8.76402 3.46223 8.8649 3.36138C8.91179 3.31451 8.9993 3.30706 9.07955 3.30022C9.17199 3.29235 9.25479 3.2853 9.25479 3.21978C9.25479 3.09737 9.55547 3.00195 10.047 3.00195C10.5385 3.00195 10.717 3.58899 10.717 3.70431C10.717 3.81963 10.8851 4.43256 10.8851 4.43256C10.8851 4.43256 10.717 4.43256 10.717 4.51163C10.717 4.5907 11.2435 4.9324 11.2435 4.9324C11.2435 4.9324 10.8503 5.04814 11.0016 5.13421ZM1.73576 3.04339C1.93179 2.95928 3.92385 3.5529 5.41608 3.99757C6.2742 4.25329 6.96703 4.45974 7.05798 4.45974C7.30709 4.45974 7.77575 5.06293 7.54142 5.31682C7.30709 5.57071 7.22782 5.71908 7.38462 5.71908C7.54142 5.71908 8.33229 5.51383 8.33229 5.51383V7.87118C8.33229 7.87118 7.57434 8.05108 7.38462 7.87118C7.29275 7.78406 7.15263 7.77883 7.03253 7.77435C6.90462 7.76958 6.79942 7.76565 6.79942 7.66455C6.79942 7.46851 6.36268 7.43769 6.36268 7.43769C6.36268 7.43769 5.95851 7.30441 5.95851 7.17901C5.95851 7.05362 5.69403 6.69919 5.69403 6.69919C5.69403 6.69919 4.68604 6.1285 3.829 5.50226C3.65587 5.37575 3.48476 5.25655 3.32093 5.14243L3.32093 5.14243C2.67382 4.69166 2.14037 4.32006 2.04451 3.88931C1.59691 3.44607 1.42701 3.17587 1.73576 3.04339ZM8.02737 8.01988C8.02737 8.01988 7.688 8.25372 7.31252 8.87988C7.12782 9.18792 7.11295 9.45928 7.1022 9.6555C7.0911 9.85815 7.08439 9.98066 6.8995 9.98066C6.68369 9.98066 6.52711 10.0273 6.39968 10.0653C6.31223 10.0914 6.23851 10.1134 6.16878 10.1134C5.99744 10.1134 5.66846 10.7602 5.83295 10.9098C5.99744 11.0595 6.68665 11.2981 6.68665 10.9098C6.68665 10.5216 6.87202 10.301 7.20885 10.301C7.54568 10.301 8.14775 10.078 8.14775 9.58867C8.14775 9.09932 8.80421 9.13426 8.80421 9.13426L8.02737 8.01988ZM14.7258 3.99757C16.218 3.5529 18.2101 2.95928 18.4061 3.04339C18.7149 3.17587 18.545 3.44607 18.0974 3.88931C18.0015 4.32006 17.4681 4.69166 16.821 5.14243L16.8209 5.14245C16.6571 5.25656 16.486 5.37575 16.3129 5.50226C15.4559 6.1285 14.4479 6.69919 14.4479 6.69919C14.4479 6.69919 14.1834 7.05362 14.1834 7.17901C14.1834 7.30441 13.7792 7.43769 13.7792 7.43769C13.7792 7.43769 13.3425 7.46851 13.3425 7.66455C13.3425 7.76565 13.2373 7.76958 13.1094 7.77435C12.9893 7.77883 12.8491 7.78406 12.7573 7.87118C12.5676 8.05108 11.8096 7.87118 11.8096 7.87118V5.51383C11.8096 5.51383 12.6005 5.71908 12.7573 5.71908C12.9141 5.71908 12.8348 5.57071 12.6005 5.31682C12.3661 5.06293 12.8348 4.45974 13.0839 4.45974C13.1749 4.45974 13.8677 4.25329 14.7258 3.99758L14.7258 3.99757ZM12.1145 8.01988C12.1145 8.01988 12.4539 8.25372 12.8294 8.87988C13.0141 9.18792 13.0289 9.45928 13.0397 9.6555C13.0508 9.85815 13.0575 9.98066 13.2424 9.98066C13.4582 9.98066 13.6148 10.0273 13.7422 10.0653C13.8297 10.0914 13.9034 10.1134 13.9731 10.1134C14.1444 10.1134 14.4734 10.7602 14.3089 10.9098C14.1444 11.0595 13.4552 11.2981 13.4552 10.9098C13.4552 10.5216 13.2699 10.301 12.933 10.301C12.5962 10.301 11.9941 10.078 11.9941 9.58867C11.9941 9.09932 11.3377 9.13426 11.3377 9.13426L12.1145 8.01988ZM8.46312 9.65141C8.46312 9.43581 8.84406 9.27326 8.84406 9.27326L9.99072 8.78936C9.99072 8.78936 9.99661 8.89855 10.0054 9.07989C10.0142 8.89855 10.0201 8.78936 10.0201 8.78936L11.1667 9.27326C11.1667 9.27326 11.5477 9.43581 11.5477 9.65141C11.5477 9.75944 11.7097 9.95045 11.8714 10.141C12.0324 10.3308 12.193 10.5202 12.193 10.6268C12.193 10.8149 11.758 11.2378 11.4953 11.4932L11.4953 11.4932C11.4595 11.528 11.4268 11.5598 11.399 11.5873C11.3388 11.6469 11.2738 11.7206 11.2062 11.7972C11.013 12.0163 10.7992 12.2587 10.6198 12.2587C10.4937 12.2587 10.3917 12.3465 10.294 12.4306C10.2042 12.5079 10.1181 12.5821 10.0201 12.5821C10.0149 12.5821 10.01 12.5797 10.0054 12.575C10.0008 12.5797 9.99587 12.5821 9.99072 12.5821C9.89273 12.5821 9.80656 12.5079 9.71677 12.4306C9.6191 12.3465 9.51713 12.2587 9.39099 12.2587C9.21161 12.2587 8.99779 12.0163 8.80457 11.7972C8.73702 11.7206 8.67198 11.6469 8.61182 11.5873C8.58397 11.5598 8.5514 11.5281 8.51562 11.4933L8.51556 11.4933L8.5155 11.4932C8.25282 11.2378 7.81777 10.8149 7.81777 10.6268C7.81777 10.5202 7.9784 10.3308 8.13939 10.141C8.30108 9.95045 8.46312 9.75944 8.46312 9.65141Z" fill="#E8AA00"/>
<path fill-rule="evenodd" clip-rule="evenodd" d="M4.38131 6.67052C4.4063 6.95969 4.48852 7.13019 4.48852 7.13019C4.48852 7.13019 4.63322 7.35779 4.71528 7.36047C4.75743 7.4652 4.80335 7.57258 4.85245 7.68194C5.07768 8.282 5.38458 9.07045 5.69888 9.78861C5.67871 9.7733 5.64955 9.7565 5.6097 9.73787C5.34677 9.61493 5.15801 9.60087 5.15801 9.60087C5.15801 9.60087 4.80559 9.61593 4.84197 9.7159C4.87836 9.81588 5.3153 10.033 5.49271 9.96845C5.51248 9.96125 5.53257 9.95432 5.55229 9.94752C5.6339 9.91936 5.70921 9.89338 5.73008 9.85961C5.77186 9.95429 5.81372 10.0476 5.8555 10.1389C5.59323 10.0165 5.40507 10.0025 5.40507 10.0025C5.40507 10.0025 5.05264 10.0175 5.08903 10.1175C5.12542 10.2175 5.56236 10.4346 5.73977 10.3701C5.75954 10.3629 5.77963 10.3559 5.79935 10.3491C5.84849 10.3322 5.89534 10.316 5.92941 10.2985C6.2461 10.9737 6.55185 11.5127 6.77008 11.6489H7.21042C7.21042 11.6489 6.82986 11.1109 6.35022 10.358C6.49473 10.2554 6.69607 10.0289 6.69607 9.88642C6.69607 9.86538 6.69643 9.84413 6.69678 9.82328C6.69958 9.65702 6.70196 9.51546 6.51941 9.69762C6.31395 9.90264 6.23619 10.0752 6.23619 10.0752C6.23619 10.0752 6.22684 10.1048 6.21645 10.1464C6.1779 10.085 6.13892 10.0224 6.09962 9.95886C6.24435 9.85754 6.44901 9.62847 6.44901 9.48482C6.44901 9.46377 6.44937 9.44253 6.44972 9.42167C6.45252 9.25541 6.4549 9.11385 6.27235 9.29602C6.06689 9.50104 5.98913 9.67361 5.98913 9.67361C5.98913 9.67361 5.97958 9.70379 5.96907 9.74606C5.91359 9.65484 5.8578 9.56207 5.80204 9.46814C5.94345 9.3935 6.20195 9.12418 6.20195 8.96273C6.20195 8.94168 6.20231 8.92044 6.20266 8.89958C6.20546 8.73332 6.20784 8.59176 6.02529 8.77393C5.81984 8.97895 5.74207 9.15153 5.74207 9.15153C5.74207 9.15153 5.71882 9.22503 5.70493 9.30331C5.63197 9.17849 5.55944 9.05211 5.48815 8.92509C5.49033 8.92543 5.49262 8.9256 5.49501 8.9256C5.6014 8.9256 5.95489 8.58928 5.95489 8.40048C5.95489 8.37944 5.95525 8.3582 5.9556 8.33735V8.33735V8.33735V8.33734V8.33734V8.33734V8.33734V8.33734V8.33734V8.33733C5.9584 8.17107 5.96078 8.02951 5.77823 8.21168C5.57278 8.4167 5.49501 8.58928 5.49501 8.58928C5.49501 8.58928 5.44269 8.75467 5.44812 8.85349C5.34977 8.67677 5.25409 8.49915 5.16325 8.32313L5.1656 8.32319C5.27199 8.32319 5.62548 7.98687 5.62548 7.79807C5.62548 7.77703 5.62584 7.75579 5.62619 7.73494V7.73494V7.73493V7.73493V7.73493V7.73493V7.73493V7.73493V7.73492C5.62899 7.56866 5.63137 7.4271 5.44882 7.60927C5.24336 7.81429 5.1656 7.98687 5.1656 7.98687C5.1656 7.98687 5.1185 8.13577 5.11832 8.23542C5.02285 8.04761 4.93334 7.8621 4.85245 7.68194C4.80899 7.56615 4.76857 7.45738 4.73173 7.35749C4.73697 7.3552 4.74181 7.35155 4.74615 7.34637C4.81454 7.26487 4.78412 6.7779 4.6395 6.65654C4.62338 6.64302 4.60733 6.62909 4.59158 6.61541C4.46601 6.50639 4.35911 6.41358 4.38131 6.67052ZM4.87014 7.41026C4.87014 7.41026 4.8842 7.2215 5.00714 6.95857C5.11638 6.72495 5.16255 6.85879 5.21679 7.01598L5.21679 7.016C5.22359 7.03571 5.23052 7.05579 5.23772 7.07556C5.30229 7.25297 5.08515 7.68991 4.98517 7.7263C4.8852 7.76269 4.87014 7.41026 4.87014 7.41026ZM5.36264 9.21578C5.09972 9.09284 4.91095 9.07879 4.91095 9.07879C4.91095 9.07879 4.55853 9.09384 4.59491 9.19381C4.6313 9.29379 5.06824 9.51093 5.24565 9.44636C5.26542 9.43916 5.28551 9.43223 5.30523 9.42543C5.46242 9.37119 5.59626 9.32502 5.36264 9.21578ZM4.66389 8.51654C4.66389 8.51654 4.85266 8.53059 5.11558 8.65353C5.3492 8.76277 5.21536 8.80895 5.05817 8.86318C5.03845 8.86998 5.01837 8.87691 4.99859 8.88411C4.82118 8.94868 4.38424 8.73154 4.34785 8.63157C4.31147 8.53159 4.66389 8.51654 4.66389 8.51654ZM4.9097 8.09128C4.64677 7.96834 4.45801 7.95429 4.45801 7.95429C4.45801 7.95429 4.10559 7.96934 4.14197 8.06932C4.17836 8.16929 4.6153 8.38643 4.79271 8.32186C4.81248 8.31466 4.83257 8.30773 4.85229 8.30093C5.00948 8.2467 5.14332 8.20052 4.9097 8.09128ZM4.35927 7.27776C4.35927 7.27776 4.53184 7.35553 4.73686 7.56098C4.91903 7.74353 4.77747 7.74115 4.61121 7.73835H4.61121C4.59035 7.738 4.56911 7.73764 4.54807 7.73764C4.35927 7.73764 4.02295 7.38415 4.02295 7.27776C4.02295 7.17137 4.35927 7.27776 4.35927 7.27776Z" fill="#46A000"/>
<path fill-rule="evenodd" clip-rule="evenodd" d="M17.9323 6.46143H16.5965C16.5965 6.46143 16.8797 6.46143 16.9108 6.735C16.9108 6.735 16.9173 9.0437 16.9108 9.22509C16.9043 9.40648 16.5965 9.46819 16.5965 9.46819C16.5965 9.46819 18.217 9.47314 17.9323 9.46819C17.6476 9.46325 17.5848 9.22509 17.5848 9.22509V6.735C17.5848 6.5242 17.9323 6.46143 17.9323 6.46143ZM2.85332 9.2831C2.70212 8.89272 1.76855 6.50241 1.76855 6.50241H2.69276C2.53221 6.50241 2.4726 6.70678 2.4726 6.70678L3.11995 8.55256C3.11995 8.55256 3.74596 7.04559 3.74596 6.77836C3.74596 6.51112 3.48318 6.50241 3.48318 6.50241H4.68809L4.39699 6.59962C4.39699 6.59962 3.43288 8.80992 3.43288 9.2831C3.38694 9.38798 3.87676 9.45775 3.87676 9.45775H2.58289L2.85332 9.2831ZM13.9166 8.41021L14.6326 7.0909L14.6537 8.5588L14.4319 8.48682L14.2746 9.46702L15.0665 7.94851L14.8028 7.84945L15.783 6.78843L15.4492 8.22248L15.2593 8.05523L14.1364 10.1504L15.3897 8.71434L15.1481 8.59368L16.3858 7.78333L15.847 9.10387L15.5464 8.88746L14.2746 10.4885L13.7471 10.2857L14.2746 8.41021H13.9166ZM13.5031 10.9123H13.1072V11.2135H12.7955L11.9127 12.2375H12.4L12.5692 12.8141L12.7955 12.6106V12.8141L13.238 12.6106L13.6611 12.9769L13.9768 11.5688L13.7643 11.4128L13.8734 11.3174L13.7643 10.9123H13.5031Z" fill="#0093E1"/>
<path fill-rule="evenodd" clip-rule="evenodd" d="M7.71469 5.00781C7.71469 5.00781 8.29631 5.40942 8.87792 5.40942C9.45954 5.40942 10.0412 5.00781 10.0412 5.00781C10.0412 5.00781 10.6228 5.40942 11.2044 5.40942C11.786 5.40942 12.3676 5.00781 12.3676 5.00781V6.82086C12.3676 8.6955 10.0412 10.1484 10.0412 10.1484C10.0412 10.1484 7.60205 8.81436 7.71469 6.7986V5.00781Z" fill="#F7FCFF"/>
<mask id="mask1_85465_16756" style="mask-type:luminance" maskUnits="userSpaceOnUse" x="7" y="5" width="6" height="6">
<path fill-rule="evenodd" clip-rule="evenodd" d="M7.71469 5.00781C7.71469 5.00781 8.29631 5.40942 8.87792 5.40942C9.45954 5.40942 10.0412 5.00781 10.0412 5.00781C10.0412 5.00781 10.6228 5.40942 11.2044 5.40942C11.786 5.40942 12.3676 5.00781 12.3676 5.00781V6.82086C12.3676 8.6955 10.0412 10.1484 10.0412 10.1484C10.0412 10.1484 7.60205 8.81436 7.71469 6.7986V5.00781Z" fill="white"/>
</mask>
<g mask="url(#mask1_85465_16756)">
<path fill-rule="evenodd" clip-rule="evenodd" d="M7.55005 4.88721H12.45V6.77476H7.55005V4.88721Z" fill="#2E42A5"/>
<path fill-rule="evenodd" clip-rule="evenodd" d="M8.49697 6.7749H8.08521V10.5902H8.49697V6.7749ZM9.19697 6.7749H8.78521V10.5902H9.19697V6.7749ZM9.48521 6.7749H9.89697V10.5902H9.48521V6.7749ZM10.597 6.7749H10.1852V10.5902H10.597V6.7749ZM10.8852 6.7749H11.297V10.5902H10.8852V6.7749ZM11.997 6.7749H11.5852V10.5902H11.997V6.7749Z" fill="#AF0100"/>
</g>
</g>
</g>
<rect x="0.5" y="0.5" width="19" height="14" rx="0.5" stroke="black" stroke-opacity="0.1"/>
<defs>
<clipPath id="clip0_85465_16756">
<rect width="20" height="15" rx="1" fill="white"/>
</clipPath>
</defs>
</svg>
