<svg width="20" height="15" viewBox="0 0 20 15" fill="none" xmlns="http://www.w3.org/2000/svg">
<g clip-path="url(#clip0_85465_16809)">
<rect width="20" height="15" rx="1" fill="white"/>
<path fill-rule="evenodd" clip-rule="evenodd" d="M0 0H20V15H0V0Z" fill="#F7FCFF"/>
<path fill-rule="evenodd" clip-rule="evenodd" d="M0 0V5H20V0H0Z" fill="#C51918"/>
<path fill-rule="evenodd" clip-rule="evenodd" d="M0 10V15H20V10H0Z" fill="#5EAA22"/>
<path fill-rule="evenodd" clip-rule="evenodd" d="M0 -1.25L10.4185 7.5L0 16.25V-1.25Z" fill="#272727"/>
<mask id="path-7-outside-1_85465_16809" maskUnits="userSpaceOnUse" x="-2" y="-5.09668" width="24" height="25" fill="black">
<rect fill="white" x="-2" y="-5.09668" width="24" height="25"/>
<path fill-rule="evenodd" clip-rule="evenodd" d="M0 -2.09668L10.8802 6.25016H20V8.75016H10.7309L0 16.7574V13.9628L8.75 7.50016L0 0.959228V-2.09668Z"/>
</mask>
<path fill-rule="evenodd" clip-rule="evenodd" d="M0 -2.09668L10.8802 6.25016H20V8.75016H10.7309L0 16.7574V13.9628L8.75 7.50016L0 0.959228V-2.09668Z" fill="#FFD018"/>
<path d="M10.8802 6.25016L10.1193 7.24193L10.4559 7.50016H10.8802V6.25016ZM0 -2.09668L0.760848 -3.08845L-1.25 -4.63109V-2.09668H0ZM20 6.25016H21.25V5.00016H20V6.25016ZM20 8.75016V10.0002H21.25V8.75016H20ZM10.7309 8.75016V7.50016H10.3159L9.98331 7.74833L10.7309 8.75016ZM0 16.7574H-1.25V19.2497L0.747551 17.7592L0 16.7574ZM0 13.9628L-0.742634 12.9573L-1.25 13.332V13.9628H0ZM8.75 7.50016L9.49263 8.50564L10.8458 7.5062L9.49842 6.49898L8.75 7.50016ZM0 0.959228H-1.25V1.58546L-0.74842 1.96041L0 0.959228ZM11.641 5.25839L0.760848 -3.08845L-0.760848 -1.10491L10.1193 7.24193L11.641 5.25839ZM20 5.00016H10.8802V7.50016H20V5.00016ZM21.25 8.75016V6.25016H18.75V8.75016H21.25ZM10.7309 10.0002H20V7.50016H10.7309V10.0002ZM0.747551 17.7592L11.4784 9.75199L9.98331 7.74833L-0.747551 15.7555L0.747551 17.7592ZM-1.25 13.9628V16.7574H1.25V13.9628H-1.25ZM8.00737 6.49468L-0.742634 12.9573L0.742634 14.9683L9.49263 8.50564L8.00737 6.49468ZM-0.74842 1.96041L8.00158 8.50135L9.49842 6.49898L0.74842 -0.0419555L-0.74842 1.96041ZM-1.25 -2.09668V0.959228H1.25V-2.09668H-1.25Z" fill="#272727" mask="url(#path-7-outside-1_85465_16809)"/>
<path d="M3.04598 10.48L3.04723 9.49226C3.92744 9.29808 4.51053 9.04549 4.79435 8.74175C5.49325 7.8804 5.02865 5.86235 3.5928 5.87554C2.88143 5.87554 2.14581 6.21453 2.14581 7.01237C2.14581 8.00327 2.34973 8.42686 3.04723 8.42686C3.74039 8.42686 3.99452 8.46391 4.45111 7.84159L4.9466 7.99469C4.45732 8.66157 3.79779 9.18836 3.04598 9.18836C1.80752 9.18836 1.13354 8.25457 1.13354 7.17462C1.13354 5.84143 2.21584 4.90771 3.52081 4.90771C4.4945 4.90771 6.03459 6.10034 6.03459 7.17462C6.03459 8.2489 6.03459 8.74175 5.19012 9.49226C4.84997 9.79455 4.00719 10.3344 3.04598 10.48Z" fill="#FFD018"/>
<path fill-rule="evenodd" clip-rule="evenodd" d="M3.11962 6.17486C3.07194 6.16227 3.02309 6.19071 3.0105 6.23839L2.97636 6.36765C2.97466 6.36544 2.97294 6.36322 2.97123 6.361C2.94109 6.32198 2.88502 6.31477 2.84599 6.34491C2.80696 6.37505 2.79976 6.43112 2.8299 6.47015C2.85059 6.49694 2.871 6.52341 2.89113 6.54956L2.78824 6.64458C2.75201 6.67803 2.74976 6.73452 2.78321 6.77074C2.81666 6.80697 2.87315 6.80922 2.90938 6.77577L3.0003 6.69181C3.05459 6.76277 3.10661 6.83112 3.15631 6.89676L2.98515 6.98865C2.9417 7.01197 2.92539 7.0661 2.94871 7.10955C2.97204 7.15299 3.02617 7.16931 3.06961 7.14598L3.2651 7.04103C3.312 7.10351 3.35646 7.16312 3.39845 7.21978L3.16372 7.34579C3.12027 7.36912 3.10396 7.42324 3.12728 7.46669C3.15061 7.51014 3.20474 7.52645 3.24818 7.50312L3.50539 7.36504C3.5738 7.45862 3.63377 7.54208 3.68497 7.61483L3.52086 7.70293C3.47741 7.72626 3.4611 7.78039 3.48443 7.82383C3.50775 7.86728 3.56188 7.88359 3.60533 7.86027L3.78696 7.76275C3.86251 7.87533 3.90162 7.94286 3.90162 7.96063C3.90162 8.00994 3.94159 8.04992 3.99091 8.04992C4.04022 8.04992 4.08019 8.00994 4.08019 7.96063C4.08019 7.91544 4.03318 7.82039 3.93494 7.66806C3.93636 7.66559 3.93767 7.66305 3.93885 7.66044L4.07097 7.36953C4.09137 7.32464 4.0715 7.27171 4.0266 7.25132C3.9817 7.23093 3.92878 7.25079 3.90839 7.29569L3.81813 7.49443C3.76174 7.41326 3.69591 7.32139 3.62034 7.21825L3.71383 7.01239C3.73422 6.96749 3.71436 6.91457 3.66946 6.89417C3.62456 6.87378 3.57164 6.89365 3.55124 6.93855L3.49883 7.05395C3.46995 7.01521 3.43993 6.97516 3.40877 6.93376L3.53526 6.65525C3.55565 6.61035 3.53579 6.55742 3.49089 6.53703C3.44599 6.51664 3.39306 6.53651 3.37267 6.5814L3.28621 6.77177C3.23176 6.70013 3.17433 6.62499 3.11389 6.54626L3.18315 6.28398C3.19574 6.2363 3.1673 6.18745 3.11962 6.17486Z" fill="#FFD018"/>
<path fill-rule="evenodd" clip-rule="evenodd" d="M3.71998 6.17486C3.76766 6.16227 3.81651 6.19071 3.8291 6.23839L3.86324 6.36765C3.86494 6.36544 3.86666 6.36322 3.86837 6.361C3.89851 6.32198 3.95458 6.31477 3.99361 6.34491C4.03264 6.37505 4.03984 6.43112 4.0097 6.47015C3.98901 6.49694 3.9686 6.52341 3.94847 6.54956L4.05136 6.64458C4.08759 6.67803 4.08984 6.73452 4.05639 6.77074C4.02294 6.80697 3.96645 6.80922 3.93022 6.77577L3.8393 6.69181C3.78501 6.76277 3.73299 6.83112 3.68329 6.89676L3.85445 6.98865C3.8979 7.01197 3.91421 7.0661 3.89089 7.10955C3.86756 7.15299 3.81343 7.16931 3.76999 7.14598L3.5745 7.04103C3.5276 7.10351 3.48314 7.16312 3.44115 7.21978L3.67588 7.34579C3.71933 7.36912 3.73564 7.42324 3.71232 7.46669C3.68899 7.51014 3.63486 7.52645 3.59142 7.50312L3.33421 7.36504C3.2658 7.45862 3.20583 7.54208 3.15463 7.61483L3.31874 7.70293C3.36218 7.72626 3.3785 7.78039 3.35517 7.82383C3.33185 7.86728 3.27772 7.88359 3.23427 7.86027L3.05264 7.76275C2.97709 7.87533 2.93798 7.94286 2.93798 7.96063C2.93798 8.00994 2.898 8.04992 2.84869 8.04992C2.79938 8.04992 2.75941 8.00994 2.75941 7.96063C2.75941 7.91544 2.80642 7.82039 2.90466 7.66806C2.90324 7.66559 2.90193 7.66305 2.90075 7.66044L2.76863 7.36953C2.74823 7.32464 2.7681 7.27171 2.813 7.25132C2.85789 7.23093 2.91082 7.25079 2.93121 7.29569L3.02147 7.49443C3.07786 7.41326 3.14369 7.32139 3.21926 7.21825L3.12577 7.01239C3.10538 6.96749 3.12524 6.91457 3.17014 6.89417C3.21504 6.87378 3.26796 6.89365 3.28836 6.93855L3.34077 7.05395C3.36965 7.01521 3.39967 6.97516 3.43083 6.93376L3.30434 6.65525C3.28395 6.61035 3.30381 6.55742 3.34871 6.53703C3.39361 6.51664 3.44654 6.53651 3.46693 6.5814L3.55339 6.77177C3.60784 6.70013 3.66527 6.62499 3.72571 6.54626L3.65645 6.28398C3.64386 6.2363 3.6723 6.18745 3.71998 6.17486Z" fill="#FFD018"/>
</g>
<rect x="0.5" y="0.5" width="19" height="14" rx="0.5" stroke="black" stroke-opacity="0.1"/>
<defs>
<clipPath id="clip0_85465_16809">
<rect width="20" height="15" rx="1" fill="white"/>
</clipPath>
</defs>
</svg>
