<svg width="20" height="15" viewBox="0 0 20 15" fill="none" xmlns="http://www.w3.org/2000/svg">
<g clip-path="url(#clip0_85465_16863)">
<rect width="20" height="15" rx="1" fill="white"/>
<rect width="20" height="15" fill="white"/>
<path d="M6.93148 13.2681C6.5153 13.3939 5.91573 13.6517 5.6759 13.7964C5.59831 13.8467 5.60536 13.9033 5.72528 14.1171C5.80992 14.2555 5.89457 14.375 5.90868 14.375C5.92984 14.375 6.16261 14.2807 6.42361 14.1612C6.6846 14.048 7.01808 13.8986 7.17131 13.8719C7.2885 13.8514 7.39552 13.8321 7.46176 13.8075C7.48844 13.8653 7.47204 13.8331 7.52064 13.9238C7.5905 14.0542 7.54701 14.0512 7.66785 14.0869C7.79525 14.1245 8.10947 13.9725 8.10947 13.9725C8.47627 13.8593 8.68083 13.8467 9.9999 13.8467C11.319 13.8467 11.5235 13.8593 11.8903 13.9788C11.8903 13.9788 12.1855 14.0683 12.2234 14.0791C12.2611 14.0899 12.281 14.0984 12.3209 14.0899C12.3572 14.0821 12.395 14.0326 12.4118 14.0026C12.4118 14.0026 12.4929 13.8289 12.5137 13.7679C12.584 13.798 12.7121 13.8373 12.8355 13.8719C12.9837 13.9159 13.3152 14.048 13.5762 14.1612C13.8372 14.2807 14.07 14.375 14.0911 14.375C14.1052 14.375 14.1899 14.2555 14.2745 14.1171C14.4438 13.8215 14.4579 13.8467 13.8442 13.5637C13.026 13.1863 12.2077 13.0165 12.1302 13.1989C12.116 13.2335 12.1041 13.2537 12.0847 13.2986C12.0027 13.2817 11.788 13.2366 11.5729 13.2052C10.9098 13.0983 9.08995 13.0983 8.42689 13.2052C8.21175 13.2366 8.0663 13.2891 7.94475 13.3192C7.87593 13.1964 7.89034 13.2452 7.87623 13.2107C7.8198 13.0849 7.44641 13.1046 6.93148 13.2681H6.93148Z" fill="#DFDFDF"/>
<path d="M7.53091 5.49562C7.5167 5.70057 7.55933 5.84554 7.67066 5.95552C7.7204 6.008 7.76304 6.07049 7.76304 6.07049C7.76304 6.07049 7.70619 6.13297 7.65882 6.18046C7.54749 6.29043 7.50249 6.4329 7.50249 6.58286C7.50249 6.73783 7.54749 6.8453 7.66829 6.98527C7.66829 6.98527 7.77026 7.03659 7.76777 7.10024C7.76529 7.16389 7.65882 7.22771 7.65882 7.22771C7.4409 7.48265 7.44801 7.77508 7.6754 8.01753L7.77251 8.125H10.0038H12.2326L12.3416 8.00253C12.5524 7.76509 12.5524 7.50765 12.344 7.23521C12.344 7.23521 12.2391 7.1604 12.2374 7.09774C12.2357 7.03509 12.3369 6.97277 12.3369 6.97277C12.5548 6.69784 12.55 6.4454 12.325 6.18046C12.2232 6.06299 12.2208 6.04049 12.3013 5.98551C12.4316 5.89303 12.5121 5.5806 12.4529 5.39065C12.3653 5.10572 11.9887 4.91576 11.7589 5.04073C11.7163 5.06322 11.631 5.12571 11.5671 5.1782C11.5031 5.23318 11.4439 5.27567 11.432 5.27567C11.4226 5.27567 11.3657 5.23068 11.3065 5.1757C11.0768 4.96825 10.8001 4.94325 10.5703 5.1782C10.5703 5.1782 10.5376 5.30388 10.4893 5.30817C10.4411 5.31245 10.3733 5.19569 10.3733 5.19569C10.1388 4.96325 9.84506 4.97325 9.60583 5.21819C9.60583 5.21819 9.57229 5.32051 9.5182 5.30817C9.4641 5.29582 9.41963 5.1757 9.41963 5.1757C9.27988 5.04073 9.19132 5.04323 9.03026 5.04073C8.93755 5.03922 8.76957 5.06178 8.66813 5.13762C8.56668 5.21347 8.58459 5.30432 8.56127 5.29817C8.50265 5.28271 8.4381 5.1882 8.4381 5.1882C8.21071 4.98324 8.02833 4.94825 7.80805 5.07072C7.63513 5.1657 7.54512 5.30567 7.53091 5.49562Z" fill="#171796"/>
<path d="M7.67803 9.05744C7.67803 9.05744 7.76883 9.10166 7.7657 9.15831C7.76256 9.21497 7.66618 9.27149 7.66618 9.27149C7.61169 9.33299 7.55246 9.42156 7.5335 9.46585C7.45768 9.65529 7.51455 9.9087 7.66382 10.0539C7.75385 10.1449 7.75622 10.1818 7.67092 10.29C7.63301 10.3368 7.588 10.4032 7.57141 10.4377C7.39371 10.787 7.65908 11.2249 8.05239 11.2249C8.20877 11.2249 8.32724 11.1733 8.43386 11.0552C8.51916 10.9617 8.56417 10.9592 8.63999 11.0429C8.75135 11.1708 8.89825 11.2495 9.02146 11.2495C9.16599 11.2495 9.25603 11.2028 9.40293 11.0576C9.40293 11.0576 9.46115 10.9439 9.51429 10.9445C9.56743 10.9451 9.61617 11.0601 9.61617 11.0601C9.83652 11.3061 10.0592 11.3135 10.3554 11.0798C10.3554 11.0798 10.4205 10.9851 10.4763 10.9863C10.532 10.9875 10.5805 11.0847 10.5805 11.0847C10.7108 11.2028 10.808 11.2495 10.9359 11.2495C11.0639 11.2495 11.1586 11.1979 11.3079 11.0453C11.3079 11.0453 11.385 10.9296 11.4311 10.9223C11.4773 10.915 11.5259 11.0109 11.5259 11.0109C11.7083 11.1807 11.8078 11.2348 11.9405 11.2348C12.0779 11.2348 12.1751 11.188 12.3125 11.0601C12.4405 10.9396 12.5092 10.7993 12.4926 10.6837C12.476 10.5582 12.367 10.3294 12.2865 10.2507C12.2865 10.2507 12.2057 10.2436 12.2177 10.1818C12.2298 10.1199 12.3244 10.0563 12.3244 10.0563C12.5566 9.77338 12.5589 9.55442 12.3291 9.27395C12.3291 9.27395 12.2331 9.21852 12.2343 9.15586C12.2355 9.09319 12.3338 9.03038 12.3338 9.03038C12.5566 8.75729 12.5542 8.50388 12.3291 8.2554L12.2083 8.125L9.99054 8.12746L7.77281 8.12992L7.6733 8.24555C7.4411 8.51372 7.44346 8.78681 7.67803 9.05744Z" fill="#D42E12"/>
<path fill-rule="evenodd" clip-rule="evenodd" d="M11.1379 8.51367C11.2453 8.51367 11.3346 8.58679 11.3531 8.68321L11.3566 8.72037V9.10464L11.8164 8.86056C11.9181 8.80654 12.0449 8.84427 12.0996 8.94484C12.1482 9.03422 12.1234 9.14317 12.0458 9.20422L12.0143 9.22473L11.629 9.42932L12.0143 9.63391L12.0458 9.65443C12.1234 9.71547 12.1482 9.82442 12.0996 9.91381C12.0449 10.0144 11.9181 10.0521 11.8164 9.99808L11.3566 9.75401V10.182C11.3566 10.2961 11.2587 10.3887 11.1379 10.3887C11.0305 10.3887 10.9412 10.3156 10.9227 10.2191L10.9191 10.182V9.80617L10.5577 9.99808C10.4559 10.0521 10.3291 10.0144 10.2745 9.91381C10.2259 9.82442 10.2506 9.71547 10.3282 9.65443L10.3597 9.63391L10.7451 9.42932L10.3597 9.22473L10.3282 9.20422C10.2506 9.14317 10.2259 9.03422 10.2745 8.94484C10.3291 8.84427 10.4559 8.80654 10.5577 8.86056L10.9191 9.05248V8.72037C10.9191 8.60621 11.0171 8.51367 11.1379 8.51367Z" fill="#E9D315"/>
<path fill-rule="evenodd" clip-rule="evenodd" d="M9.01338 8.51367C9.12077 8.51367 9.21008 8.58679 9.2286 8.68321L9.23213 8.72037V9.10464L9.69185 8.86056C9.7936 8.80654 9.9204 8.84427 9.97506 8.94484C10.0236 9.03422 9.99888 9.14317 9.92131 9.20422L9.88979 9.22473L9.50444 9.42932L9.88979 9.63391L9.92131 9.65443C9.99888 9.71547 10.0236 9.82442 9.97506 9.91381C9.9204 10.0144 9.7936 10.0521 9.69185 9.99808L9.23213 9.75401V10.182C9.23213 10.2961 9.13419 10.3887 9.01338 10.3887C8.90599 10.3887 8.81668 10.3156 8.79815 10.2191L8.79463 10.182V9.80617L8.43315 9.99808C8.3314 10.0521 8.2046 10.0144 8.14994 9.91381C8.10135 9.82442 8.12612 9.71547 8.20369 9.65443L8.23521 9.63391L8.62056 9.42932L8.23521 9.22473L8.20369 9.20422C8.12612 9.14317 8.10135 9.03422 8.14994 8.94484C8.2046 8.84427 8.3314 8.80654 8.43315 8.86056L8.79463 9.05248V8.72037C8.79463 8.60621 8.89257 8.51367 9.01338 8.51367Z" fill="#E9D315"/>
<path d="M6.67671 4.375V8.03531H6.87671V8.03532C6.87671 8.036 6.87672 8.06749 6.87676 8.12411C6.7632 8.12063 6.67858 8.03728 6.67674 8.03547L6.67671 8.03544L6.67671 8.03553L6.67671 8.03589L6.67671 8.03734L6.67671 8.04307L6.67672 8.06548L6.67677 8.15126L6.67698 8.46329L6.67787 9.46292C6.6787 10.2214 6.68003 11.0768 6.68205 11.4685C6.67749 11.5729 6.7084 11.6594 6.7723 11.7307C6.79884 11.7603 6.82788 11.7836 6.84962 11.8004C6.8619 11.8099 6.87088 11.8166 6.87918 11.8228C6.88993 11.8309 6.89954 11.8381 6.91366 11.8493L7.03789 11.6925L6.91366 11.8493C6.98882 11.9088 7.10477 11.9482 7.21587 11.9769C7.33702 12.0082 7.48784 12.0352 7.65869 12.0555C7.99852 12.0958 8.42976 12.1108 8.88689 12.0752C9.06168 12.0775 9.18456 12.1115 9.27514 12.1553C9.3674 12.1999 9.43624 12.2595 9.49723 12.3255C9.52848 12.3593 9.55665 12.3936 9.5868 12.4305L9.58956 12.4339C9.61741 12.4679 9.64927 12.5069 9.6824 12.5415C9.75111 12.6133 9.85633 12.7 10.0116 12.7C10.1679 12.7 10.2725 12.6121 10.3401 12.5386C10.3733 12.5026 10.4047 12.4621 10.4317 12.4273L10.4324 12.4264L10.4335 12.425C10.4619 12.3884 10.4881 12.3546 10.5172 12.3212C10.5746 12.2554 10.6385 12.1971 10.7242 12.1536C10.8091 12.1106 10.926 12.0767 11.0958 12.0752C11.6089 12.083 12.0484 12.0706 12.3811 12.0394C12.5472 12.0238 12.6913 12.0031 12.8064 11.9765C12.9091 11.9528 13.0232 11.9173 13.1006 11.8518L13.1047 11.8485C13.1089 11.845 13.1147 11.8401 13.1215 11.8342C13.135 11.8224 13.1534 11.8055 13.1731 11.7852C13.2069 11.7504 13.2675 11.6826 13.2963 11.598C13.3203 11.5279 13.3264 11.4646 13.3267 11.4182C13.3268 11.3949 13.3255 11.3752 13.3238 11.3603C13.3236 11.3582 13.3234 11.3563 13.3232 11.3545V8.03531V4.375V4.175H13.1232H9.99994H6.87671H6.67671V4.375Z" stroke="black" stroke-width="0.4"/>
<path d="M9.29289 6.16628C9.12512 6.47864 9.11804 6.61881 9.25744 6.86909C9.36614 7.06132 9.49373 7.18346 9.66858 7.26155C10.1246 7.46779 10.7082 7.31561 10.9374 6.93117C11.0792 6.69489 11.0627 6.30044 10.9067 6.12824L10.8642 6.08218L10.824 6.21834C10.7673 6.41257 10.7106 6.51068 10.5972 6.6148C10.3845 6.80902 10.0915 6.85308 9.78909 6.73294C9.55516 6.63883 9.46065 6.50868 9.37322 6.14626L9.35196 6.05615L9.29289 6.16628L9.29289 6.16628Z" fill="white"/>
<path fill-rule="evenodd" clip-rule="evenodd" d="M11.1306 2C11.1306 2.57729 10.7743 3 10.2732 3C9.77208 3 9.41887 2.57729 9.41887 2C9.41887 1.41956 9.77208 1 10.2732 1C10.7743 1 11.1306 1.41956 11.1306 2ZM4.29887 2.96845V1.62145L4.80906 2.96845H5.03245L5.53057 1.62145V2.96845H5.83245V1.03155H5.48226L4.92377 2.5205L4.35925 1.03155H4V2.96845H4.29887ZM6.41509 2.96845L6.60528 2.43218H7.31472L7.50491 2.96845H7.82491L7.11245 1.03155H6.81057L6.09811 2.96845H6.41509ZM6.70491 2.14827H7.21208L6.95849 1.43218L6.70491 2.14827ZM8.71547 2.96845V2.19558L9.38868 1.03155H9.0566L8.56755 1.89905L8.07547 1.03155H7.73434L8.40453 2.19558V2.96845H8.71547ZM10.2732 2.70662C9.94717 2.70662 9.73585 2.41009 9.73585 2C9.73585 1.58991 9.94717 1.29338 10.2732 1.29338C10.5992 1.29338 10.8136 1.58991 10.8136 2C10.8136 2.41009 10.5992 2.70662 10.2732 2.70662ZM12.1509 1.32177V2.96845H11.837V1.32177H11.2211V1.03155H12.7668V1.32177H12.1509ZM13.8777 2.96845V1.32177H14.4936V1.03155H12.9479V1.32177H13.5638V2.96845H13.8777ZM16 2.67508V2.96845H14.7894V1.03155H16V1.32177H15.0974V1.83281H15.9155V2.11987H15.0974V2.67508H16Z" fill="#FF2500"/>
<path fill-rule="evenodd" clip-rule="evenodd" d="M16.1103 11.75C16.1103 11.75 15.8978 11.3314 16.4352 11.1248C16.9727 10.9182 17.2353 11.1878 17.4721 11.438C17.7088 11.6882 17.6828 12.4433 17.6828 12.4433L17.0978 13.3789L15.3034 13.7499L14.5883 13.3789L13.75 11.75L13.8126 10.1508C13.8126 10.1508 13.8974 9.53822 13.8974 9.41141C13.8974 9.2846 14.2869 8.30175 14.2869 8.30175L14.6557 7.93639L15.6988 7.38149L16.19 7.13616L16.7998 6.3653L16.7323 5.75163L16.0373 6.63696H15.4486L14.8358 6.89368L14.5883 7.12691L14.2869 7.13616L14.1688 6.89368L14.4979 6.3653L14.995 5.86486L14.7663 5.44166L15.1048 5.28749L15.0397 5.05421L15.4153 5.28749L15.6988 5.05421L15.7528 4.83966L15.1048 4.49237C15.1048 4.49237 15.7388 4.22632 16.0373 4.25409C16.3358 4.28185 16.6174 4.63307 16.6174 4.63307L17.4721 4.49237C17.4721 4.49237 17.2433 5.05421 17.3172 5.05421C17.3912 5.05421 17.8553 5.05421 17.8553 5.05421L17.6828 5.75163H18.3446L17.8553 6.28891L18.2373 6.49836L17.6561 6.89368L18.2373 7.28471L17.697 7.63963L18.0014 8.22821L18.4805 7.93639L18.75 8.30175L18.3446 9.20144L17.6828 9.67093L17.0523 9.82979L16.4352 9.99016L16.19 10.1508L16.0373 9.53522L14.995 10.2501L14.4535 11.371L14.6129 12.3895L14.995 12.911L15.6988 13.163L16.6174 12.9904L17.0978 12.4059L17.2125 11.8094C17.2125 11.8094 16.9342 11.4043 16.7323 11.438C16.5305 11.4716 16.1103 11.75 16.1103 11.75Z" fill="#DFDFDF" stroke="black" stroke-width="0.3"/>
<path d="M15.0542 7.76224C15.0542 7.76224 16.166 7.86535 16.4629 7.62934" stroke="black" stroke-width="0.2"/>
<path d="M14.2175 8.48343C14.2175 8.48343 15.3294 8.58654 15.6262 8.35053" stroke="black" stroke-width="0.2"/>
<path d="M14.0309 9.14558C14.0309 9.14558 14.6309 9.24646 14.6903 9.03766" stroke="black" stroke-width="0.2"/>
<path fill-rule="evenodd" clip-rule="evenodd" d="M15.4688 5.9375C15.3825 5.9375 15.3125 5.86754 15.3125 5.78125C15.3125 5.69496 15.3825 5.625 15.4688 5.625C15.555 5.625 15.625 5.69496 15.625 5.78125C15.625 5.86754 15.555 5.9375 15.4688 5.9375Z" fill="black"/>
<path fill-rule="evenodd" clip-rule="evenodd" d="M3.8897 11.75C3.8897 11.75 4.10224 11.3314 3.56479 11.1248C3.02735 10.9182 2.76466 11.1878 2.52793 11.438C2.2912 11.6882 2.31721 12.4433 2.31721 12.4433L2.90218 13.3789L4.69663 13.7499L5.41165 13.3789L6.25 11.75L6.18735 10.1508C6.18735 10.1508 6.10256 9.53822 6.10256 9.41141C6.10256 9.2846 5.71308 8.30175 5.71308 8.30175L5.34427 7.93639L4.30121 7.38149L3.81004 7.13616L3.20018 6.3653L3.26766 5.75163L3.96269 6.63696H4.55141L5.16423 6.89368L5.41165 7.12691L5.71308 7.13616L5.83118 6.89368L5.5021 6.3653L5.00504 5.86486L5.23367 5.44166L4.89523 5.28749L4.96034 5.05421L4.58469 5.28749L4.30121 5.05421L4.2472 4.83966L4.89523 4.49237C4.89523 4.49237 4.26118 4.22632 3.96269 4.25409C3.6642 4.28185 3.38259 4.63307 3.38259 4.63307L2.52793 4.49237C2.52793 4.49237 2.75674 5.05421 2.68279 5.05421C2.60885 5.05421 2.14467 5.05421 2.14467 5.05421L2.31721 5.75163H1.65539L2.14467 6.28891L1.76271 6.49836L2.34386 6.89368L1.76271 7.28471L2.30305 7.63963L1.99862 8.22821L1.51949 7.93639L1.25 8.30175L1.65539 9.20144L2.31721 9.67093L2.9477 9.82979L3.56479 9.99016L3.81004 10.1508L3.96269 9.53522L5.00504 10.2501L5.54651 11.371L5.38711 12.3895L5.00504 12.911L4.30121 13.163L3.38259 12.9904L2.90218 12.4059L2.78746 11.8094C2.78746 11.8094 3.0658 11.4043 3.26766 11.438C3.46951 11.4716 3.8897 11.75 3.8897 11.75Z" fill="#DFDFDF" stroke="black" stroke-width="0.3"/>
<path d="M4.9458 7.76224C4.9458 7.76224 3.83397 7.86535 3.5371 7.62934" stroke="black" stroke-width="0.2"/>
<path d="M5.78247 8.48343C5.78247 8.48343 4.67064 8.58654 4.37377 8.35053" stroke="black" stroke-width="0.2"/>
<path d="M5.96908 9.14558C5.96908 9.14558 5.36909 9.24646 5.3097 9.03766" stroke="black" stroke-width="0.2"/>
<path fill-rule="evenodd" clip-rule="evenodd" d="M4.53125 5.9375C4.61754 5.9375 4.6875 5.86754 4.6875 5.78125C4.6875 5.69496 4.61754 5.625 4.53125 5.625C4.44496 5.625 4.375 5.69496 4.375 5.78125C4.375 5.86754 4.44496 5.9375 4.53125 5.9375Z" fill="black"/>
</g>
<rect x="0.5" y="0.5" width="19" height="14" rx="0.5" stroke="black" stroke-opacity="0.1"/>
<defs>
<clipPath id="clip0_85465_16863">
<rect width="20" height="15" rx="1" fill="white"/>
</clipPath>
</defs>
</svg>
